<svg width="23" height="70" viewBox="0 0 23 70" fill="none" xmlns="http://www.w3.org/2000/svg">
<rect y="35" width="23" height="35" fill="#2B2C2D"/>
<path d="M3 53H20V68H3V53Z" fill="#1D1E1F"/>
<path d="M0 48H23L20 53H3L0 48Z" fill="#393939"/>
<path d="M0 70L0 48L3 53L3 68L0 70Z" fill="#191919"/>
<path d="M23 70V48L20 53V68L23 70Z" fill="#191919"/>
<path d="M23 69.9953L20 67.9953L3 68L0 69.9953H23Z" fill="#101010"/>
<rect width="23" height="35" fill="#2B2C2D"/>
<rect x="3" y="17" width="17" height="15" fill="#242526"/>
<path d="M0 13H23L20 17H3L0 13Z" fill="#323232"/>
<path d="M0 35H23L20 32H3L0 35Z" fill="#151617"/>
<path d="M0 35L0 13L3 17L3 32L0 35Z" fill="#1C1C1F"/>
<path d="M23 35V13L20 17V32L23 35Z" fill="#1C1C1F"/>
</svg>
