<svg width="23" height="70" viewBox="0 0 23 70" fill="none" xmlns="http://www.w3.org/2000/svg">
<rect y="35" width="23" height="35" fill="#8B2D2F"/>
<path d="M3 53H20V68H3V53Z" fill="#742527"/>
<path d="M0 48H23L20 53H3L0 48Z" fill="#C24C4E"/>
<path d="M0 70L0 48L3 53L3 68L0 70Z" fill="#591D20"/>
<path d="M23 70V48L20 53V68L23 70Z" fill="#591D20"/>
<path d="M23 69.9953L20 67.9953L3 68L0 69.9953H23Z" fill="#390909"/>
<rect width="23" height="35" fill="#9B3234"/>
<rect x="3" y="17" width="17" height="15" fill="#7F282A"/>
<path d="M0 13H23L20 17H3L0 13Z" fill="#B64647"/>
<path d="M0 35H23L20 32H3L0 35Z" fill="#49171A"/>
<path d="M0 35L0 13L3 17L3 32L0 35Z" fill="#631F22"/>
<path d="M23 35V13L20 17V32L23 35Z" fill="#631F22"/>
</svg>
