<svg width="23" height="210" viewBox="0 0 23 210" fill="none" xmlns="http://www.w3.org/2000/svg">
<rect y="175" width="23" height="35" fill="#2B2C2D"/>
<path d="M3 193H20V208H3V193Z" fill="#1D1E1F"/>
<path d="M0 188H23L20 193H3L0 188Z" fill="#393939"/>
<path d="M0 210L0 188L3 193L3 208L0 210Z" fill="#191919"/>
<path d="M23 210V188L20 193V208L23 210Z" fill="#191919"/>
<path d="M23 209.995L20 207.995L3 208L0 209.995H23Z" fill="#101010"/>
<circle cx="6.5" cy="181.5" r="3.75" fill="#1D3F24" stroke="#191919" stroke-width="1.5"/>
<circle cx="16.5" cy="181.5" r="3.75" fill="#FF0000" stroke="#191919" stroke-width="1.5"/>
<rect y="140" width="23" height="35" fill="#2B2C2D"/>
<rect x="3" y="157" width="17" height="15" fill="#242526"/>
<path d="M0 153H23L20 157H3L0 153Z" fill="#323232"/>
<path d="M0 175H23L20 172H3L0 175Z" fill="#151617"/>
<path d="M0 175L0 153L3 157L3 172L0 175Z" fill="#1C1C1F"/>
<path d="M23 175V153L20 157V172L23 175Z" fill="#1C1C1F"/>
<circle cx="6.5" cy="146.5" r="3.75" fill="#1D3F24" stroke="#191919" stroke-width="1.5"/>
<circle cx="16.5" cy="146.5" r="3.75" fill="#FF0000" stroke="#191919" stroke-width="1.5"/>
<rect y="105" width="23" height="35" fill="#2B2C2D"/>
<path d="M3 123H20V138H3V123Z" fill="#1D1E1F"/>
<path d="M0 118H23L20 123H3L0 118Z" fill="#393939"/>
<path d="M0 140L0 118L3 123L3 138L0 140Z" fill="#191919"/>
<path d="M23 140V118L20 123V138L23 140Z" fill="#191919"/>
<path d="M23 139.995L20 137.995L3 138L0 139.995H23Z" fill="#101010"/>
<circle cx="6.5" cy="111.5" r="3.75" fill="#33FF33" stroke="#191919" stroke-width="1.5"/>
<circle cx="16.5" cy="111.5" r="3.75" fill="#301010" stroke="#191919" stroke-width="1.5"/>
<rect y="70" width="23" height="35" fill="#2B2C2D"/>
<rect x="3" y="87" width="17" height="15" fill="#242526"/>
<path d="M0 83H23L20 87H3L0 83Z" fill="#323232"/>
<path d="M0 105H23L20 102H3L0 105Z" fill="#151617"/>
<path d="M0 105L0 83L3 87L3 102L0 105Z" fill="#1C1C1F"/>
<path d="M23 105V83L20 87V102L23 105Z" fill="#1C1C1F"/>
<circle cx="6.5" cy="76.5" r="3.75" fill="#33FF33" stroke="#191919" stroke-width="1.5"/>
<circle cx="16.5" cy="76.5" r="3.75" fill="#301010" stroke="#191919" stroke-width="1.5"/>
<rect y="35" width="23" height="35" fill="#2B2C2D"/>
<path d="M3 53H20V68H3V53Z" fill="#1D1E1F"/>
<path d="M0 48H23L20 53H3L0 48Z" fill="#393939"/>
<path d="M0 70L0 48L3 53L3 68L0 70Z" fill="#191919"/>
<path d="M23 70V48L20 53V68L23 70Z" fill="#191919"/>
<path d="M23 69.9953L20 67.9953L3 68L0 69.9953H23Z" fill="#101010"/>
<circle cx="6.5" cy="41.5" r="3.75" fill="#1D3F24" stroke="#191919" stroke-width="1.5"/>
<circle cx="16.5" cy="41.5" r="3.75" fill="#301010" stroke="#191919" stroke-width="1.5"/>
<rect width="23" height="35" fill="#2B2C2D"/>
<rect x="3" y="17" width="17" height="15" fill="#242526"/>
<path d="M0 13H23L20 17H3L0 13Z" fill="#323232"/>
<path d="M0 35H23L20 32H3L0 35Z" fill="#151617"/>
<path d="M0 35L0 13L3 17L3 32L0 35Z" fill="#1C1C1F"/>
<path d="M23 35V13L20 17V32L23 35Z" fill="#1C1C1F"/>
<circle cx="6.5" cy="6.5" r="3.75" fill="#1D3F24" stroke="#191919" stroke-width="1.5"/>
<circle cx="16.5" cy="6.5" r="3.75" fill="#301010" stroke="#191919" stroke-width="1.5"/>
</svg>
