<svg width="70" height="224" viewBox="0 0 70 224" fill="none" xmlns="http://www.w3.org/2000/svg">
<rect width="70" height="224" fill="black" fill-opacity="0.01"/>
<path d="M26 9.51465C16.6588 12.9703 10 21.9575 10 32.5C10 36.6566 11.0368 40.5706 12.8633 44H10.6182C8.94015 40.5217 8 36.6206 8 32.5C8 20.8376 15.5337 10.9347 26 7.39258V9.51465Z" fill="white"/>
<path d="M42 7.07715C52.9829 10.3121 61 20.4694 61 32.5C61 36.6206 60.0598 40.5217 58.3818 44H56.1367C57.9632 40.5706 59 36.6566 59 32.5C59 21.5852 51.8621 12.3389 42 9.1709V7.07715Z" fill="white"/>
<path d="M56.4241 47.3345V52H55.4329V50.0688H53.6282V52H52.637V47.3345H53.6282V49.2383H55.4329V47.3345H56.4241ZM58.5124 50.3696V52H57.5212V47.3345H59.8488C60.2726 47.3345 60.5768 47.3641 60.7614 47.4233C61.0667 47.5259 61.3083 47.7389 61.486 48.0625C61.6182 48.304 61.6843 48.5672 61.6843 48.8521C61.6843 49.1392 61.6205 49.4069 61.4929 49.6553C61.3493 49.9378 61.1362 50.1395 60.8537 50.2603C60.6873 50.3332 60.439 50.3696 60.1086 50.3696H58.5124ZM58.5124 49.5391H59.8659C60.1074 49.5391 60.2772 49.5003 60.3752 49.4229C60.521 49.3066 60.5939 49.105 60.5939 48.8179C60.5939 48.5034 60.4834 48.3018 60.2624 48.2129C60.1826 48.181 60.0573 48.165 59.8864 48.165H58.5124V49.5391Z" fill="white"/>
<path d="M32.9097 6.57861V10H31.9629V5.33447H33.2344L35.0903 8.81055V5.33447H36.0371V10H34.8135L32.9097 6.57861Z" fill="white"/>
<path d="M9.5882 47.3345H10.5794V49.9526C10.5931 50.2853 10.6079 50.5063 10.6238 50.6157C10.6694 50.9028 10.8563 51.0749 11.1844 51.1318C11.3348 51.1569 11.5524 51.1694 11.8372 51.1694H12.7908V52H11.7347C11.2357 52.0023 10.8734 51.9738 10.6478 51.9146C10.1328 51.7642 9.80695 51.4372 9.67023 50.9336C9.61783 50.7399 9.59048 50.4129 9.5882 49.9526V47.3345ZM14.5065 50.3696V52H13.5153V47.3345H15.8429C16.2668 47.3345 16.571 47.3641 16.7555 47.4233C17.0609 47.5259 17.3024 47.7389 17.4802 48.0625C17.6123 48.304 17.6784 48.5672 17.6784 48.8521C17.6784 49.1392 17.6146 49.4069 17.487 49.6553C17.3434 49.9378 17.1304 50.1395 16.8478 50.2603C16.6815 50.3332 16.4331 50.3696 16.1027 50.3696H14.5065ZM14.5065 49.5391H15.86C16.1016 49.5391 16.2713 49.5003 16.3693 49.4229C16.5151 49.3066 16.5881 49.105 16.5881 48.8179C16.5881 48.5034 16.4776 48.3018 16.2565 48.2129C16.1768 48.181 16.0514 48.165 15.8805 48.165H14.5065V49.5391Z" fill="white"/>
<path d="M26 65.5146C16.6588 68.9703 10 77.9575 10 88.5C10 92.6566 11.0368 96.5706 12.8633 100H10.6182C8.94015 96.5217 8 92.6206 8 88.5C8 76.8376 15.5337 66.9347 26 63.3926V65.5146Z" fill="white"/>
<path d="M42 63.0771C52.9829 66.3121 61 76.4694 61 88.5C61 92.6206 60.0598 96.5217 58.3818 100H56.1367C57.9632 96.5706 59 92.6566 59 88.5C59 77.5852 51.8621 68.3389 42 65.1709V63.0771Z" fill="white"/>
<path d="M56.4241 103.334V108H55.4329V106.069H53.6282V108H52.637V103.334H53.6282V105.238H55.4329V103.334H56.4241ZM58.5124 106.37V108H57.5212V103.334H59.8488C60.2726 103.334 60.5768 103.364 60.7614 103.423C61.0667 103.526 61.3083 103.739 61.486 104.062C61.6182 104.304 61.6843 104.567 61.6843 104.852C61.6843 105.139 61.6205 105.407 61.4929 105.655C61.3493 105.938 61.1362 106.139 60.8537 106.26C60.6873 106.333 60.439 106.37 60.1086 106.37H58.5124ZM58.5124 105.539H59.8659C60.1074 105.539 60.2772 105.5 60.3752 105.423C60.521 105.307 60.5939 105.105 60.5939 104.818C60.5939 104.503 60.4834 104.302 60.2624 104.213C60.1826 104.181 60.0573 104.165 59.8864 104.165H58.5124V105.539Z" fill="white"/>
<path d="M29.5618 66V61.3345H32.2005C32.6129 61.3345 32.9137 61.3812 33.1029 61.4746C33.3193 61.5863 33.4845 61.7674 33.5985 62.0181C33.6782 62.1935 33.7181 62.3735 33.7181 62.5581C33.7181 62.8748 33.611 63.1574 33.3968 63.4058C33.2897 63.5265 33.1701 63.6143 33.0379 63.6689C33.4891 63.8763 33.7147 64.242 33.7147 64.7661C33.7147 65.0692 33.6429 65.3244 33.4993 65.5317C33.3239 65.7801 33.0561 65.9271 32.6961 65.9727C32.5457 65.9909 32.3612 66 32.1424 66H29.5618ZM30.553 63.252H31.9066C32.0843 63.252 32.2062 63.2394 32.2723 63.2144C32.3839 63.1711 32.4717 63.097 32.5355 62.9922C32.5924 62.8965 32.6209 62.7905 32.6209 62.6743C32.6209 62.4875 32.5526 62.3496 32.4158 62.2607C32.3179 62.1969 32.1549 62.165 31.9271 62.165H30.553V63.252ZM30.553 65.1694H31.9066C32.0843 65.1694 32.2062 65.1569 32.2723 65.1318C32.3839 65.0885 32.4717 65.0145 32.5355 64.9097C32.5924 64.814 32.6209 64.708 32.6209 64.5918C32.6209 64.4049 32.5526 64.2671 32.4158 64.1782C32.3179 64.1144 32.1549 64.0825 31.9271 64.0825H30.553V65.1694ZM35.5876 64.3696V66H34.5964V61.3345H36.924C37.3478 61.3345 37.652 61.3641 37.8366 61.4233C38.1419 61.5259 38.3835 61.7389 38.5612 62.0625C38.6934 62.304 38.7595 62.5672 38.7595 62.8521C38.7595 63.1392 38.6957 63.4069 38.568 63.6553C38.4245 63.9378 38.2114 64.1395 37.9289 64.2603C37.7625 64.3332 37.5142 64.3696 37.1838 64.3696H35.5876ZM35.5876 63.5391H36.9411C37.1826 63.5391 37.3524 63.5003 37.4504 63.4229C37.5962 63.3066 37.6691 63.105 37.6691 62.8179C37.6691 62.5034 37.5586 62.3018 37.3376 62.2129C37.2578 62.181 37.1325 62.165 36.9616 62.165H35.5876V63.5391Z" fill="white"/>
<path d="M9.5882 103.334H10.5794V105.953C10.5931 106.285 10.6079 106.506 10.6238 106.616C10.6694 106.903 10.8563 107.075 11.1844 107.132C11.3348 107.157 11.5524 107.169 11.8372 107.169H12.7908V108H11.7347C11.2357 108.002 10.8734 107.974 10.6478 107.915C10.1328 107.764 9.80695 107.437 9.67023 106.934C9.61783 106.74 9.59048 106.413 9.5882 105.953V103.334ZM14.5065 106.37V108H13.5153V103.334H15.8429C16.2668 103.334 16.571 103.364 16.7555 103.423C17.0609 103.526 17.3024 103.739 17.4802 104.062C17.6123 104.304 17.6784 104.567 17.6784 104.852C17.6784 105.139 17.6146 105.407 17.487 105.655C17.3434 105.938 17.1304 106.139 16.8478 106.26C16.6815 106.333 16.4331 106.37 16.1027 106.37H14.5065ZM14.5065 105.539H15.86C16.1016 105.539 16.2713 105.5 16.3693 105.423C16.5151 105.307 16.5881 105.105 16.5881 104.818C16.5881 104.503 16.4776 104.302 16.2565 104.213C16.1768 104.181 16.0514 104.165 15.8805 104.165H14.5065V105.539Z" fill="white"/>
<path d="M13.4258 132C11.2504 135.66 10 139.934 10 144.5C10 148.657 11.0368 152.571 12.8633 156H10.6182C8.94015 152.522 8 148.621 8 144.5C8 139.979 9.13304 135.724 11.1289 132H13.4258Z" fill="white"/>
<path d="M57.8711 132C59.867 135.724 61 139.979 61 144.5C61 148.621 60.0598 152.522 58.3818 156H56.1367C57.9632 152.571 59 148.657 59 144.5C59 139.934 57.7496 135.66 55.5742 132H57.8711Z" fill="white"/>
<path d="M34.5 118C40.8734 118 46.7205 120.251 51.292 124H47.918C44.0634 121.472 39.4539 120 34.5 120C29.5461 120 24.9366 121.472 21.082 124H17.708C22.2795 120.251 28.1266 118 34.5 118Z" fill="white"/>
<path d="M53.5262 164H52.535V159.334H53.5262V164ZM55.6144 162.37V164H54.6232V159.334H56.9509C57.3747 159.334 57.6789 159.364 57.8635 159.423C58.1688 159.526 58.4103 159.739 58.5881 160.062C58.7202 160.304 58.7863 160.567 58.7863 160.852C58.7863 161.139 58.7225 161.407 58.5949 161.655C58.4513 161.938 58.2383 162.139 57.9557 162.26C57.7894 162.333 57.541 162.37 57.2106 162.37H55.6144ZM55.6144 161.539H56.9679C57.2095 161.539 57.3792 161.5 57.4772 161.423C57.6231 161.307 57.696 161.105 57.696 160.818C57.696 160.503 57.5855 160.302 57.3644 160.213C57.2847 160.181 57.1594 160.165 56.9885 160.165H55.6144V161.539Z" fill="white"/>
<path d="M52.4642 129.173H55.513V130H51.473V128.759C51.4661 128.237 51.5972 127.84 51.866 127.566C52.0233 127.414 52.2261 127.318 52.4744 127.279C52.5565 127.266 52.7251 127.259 52.9803 127.259H53.7425C53.7926 127.259 53.8872 127.251 54.0262 127.235C54.2176 127.214 54.3555 127.148 54.4398 127.037C54.5081 126.948 54.5423 126.846 54.5423 126.732C54.5423 126.637 54.5195 126.543 54.4739 126.452C54.4056 126.318 54.2825 126.232 54.1048 126.196C53.9863 126.173 53.8655 126.162 53.7425 126.162H51.5482V125.334H53.951C54.548 125.334 54.965 125.434 55.202 125.632C55.3455 125.753 55.456 125.913 55.5335 126.114C55.6019 126.296 55.6361 126.49 55.6361 126.695C55.6361 126.957 55.5859 127.204 55.4857 127.437C55.3535 127.749 55.0835 127.946 54.6756 128.028C54.491 128.067 54.2723 128.086 54.0194 128.086H53.3597C52.9586 128.086 52.7057 128.144 52.6009 128.26C52.5189 128.34 52.4733 128.506 52.4642 128.759V129.173ZM57.4543 128.37V130H56.4631V125.334H58.7907C59.2145 125.334 59.5187 125.364 59.7033 125.423C60.0086 125.526 60.2502 125.739 60.4279 126.062C60.5601 126.304 60.6262 126.567 60.6262 126.852C60.6262 127.139 60.5623 127.407 60.4347 127.655C60.2912 127.938 60.0781 128.139 59.7956 128.26C59.6292 128.333 59.3809 128.37 59.0505 128.37H57.4543ZM57.4543 127.539H58.8078C59.0493 127.539 59.2191 127.5 59.3171 127.423C59.4629 127.307 59.5358 127.105 59.5358 126.818C59.5358 126.503 59.4253 126.302 59.2043 126.213C59.1245 126.181 58.9992 126.165 58.8283 126.165H57.4543V127.539Z" fill="white"/>
<path d="M10.596 130V129.173H12.5955C12.8735 129.173 13.0615 129.133 13.1595 129.053C13.278 128.96 13.3372 128.816 13.3372 128.623C13.3372 128.388 13.2598 128.226 13.1048 128.137C13.0114 128.08 12.8416 128.052 12.5955 128.052H11.0369V127.225H12.5955C12.8872 127.225 13.0797 127.188 13.1732 127.115C13.2803 127.029 13.3338 126.892 13.3338 126.705C13.3338 126.5 13.2632 126.35 13.1219 126.254C13.0581 126.211 12.9783 126.183 12.8826 126.172C12.8348 126.165 12.7391 126.162 12.5955 126.162H10.596V125.334H12.7698C13.0797 125.337 13.2768 125.342 13.3612 125.352C13.4477 125.361 13.5434 125.385 13.6483 125.423C13.8875 125.512 14.0789 125.674 14.2225 125.909C14.3592 126.132 14.4276 126.369 14.4276 126.62C14.4276 127.055 14.2202 127.392 13.8055 127.631C14.2225 127.903 14.431 128.28 14.431 128.763C14.431 129.207 14.2635 129.536 13.9285 129.75C13.7257 129.883 13.4603 129.962 13.1321 129.99C13.0364 129.997 12.8758 130 12.6502 130H10.596ZM16.3073 128.37V130H15.3161V125.334H17.6437C18.0676 125.334 18.3718 125.364 18.5563 125.423C18.8617 125.526 19.1032 125.739 19.2809 126.062C19.4131 126.304 19.4792 126.567 19.4792 126.852C19.4792 127.139 19.4154 127.407 19.2878 127.655C19.1442 127.938 18.9312 128.139 18.6486 128.26C18.4823 128.333 18.2339 128.37 17.9035 128.37H16.3073ZM16.3073 127.539H17.6608C17.9024 127.539 18.0721 127.5 18.1701 127.423C18.3159 127.307 18.3888 127.105 18.3888 126.818C18.3888 126.503 18.2783 126.302 18.0573 126.213C17.9776 126.181 17.8522 126.165 17.6813 126.165H16.3073V127.539Z" fill="white"/>
<path d="M8.23371 163.19V162.202L10.8655 159.334H12.1746V162.363H12.7899V163.19H12.1746V164H11.1834V163.19H8.23371ZM9.34455 162.363H11.1834V160.367L9.34455 162.363ZM14.6115 162.37V164H13.6203V159.334H15.9479C16.3718 159.334 16.676 159.364 16.8605 159.423C17.1659 159.526 17.4074 159.739 17.5851 160.062C17.7173 160.304 17.7834 160.567 17.7834 160.852C17.7834 161.139 17.7196 161.407 17.592 161.655C17.4484 161.938 17.2354 162.139 16.9528 162.26C16.7865 162.333 16.5381 162.37 16.2077 162.37H14.6115ZM14.6115 161.539H15.965C16.2066 161.539 16.3763 161.5 16.4743 161.423C16.6201 161.307 16.693 161.105 16.693 160.818C16.693 160.503 16.5825 160.302 16.3615 160.213C16.2818 160.181 16.1564 160.165 15.9855 160.165H14.6115V161.539Z" fill="white"/>
<rect x="0.5" y="181.5" width="69" height="36" rx="0.5" fill="#36373A" stroke="black"/>
<rect x="3.5" y="184.5" width="63" height="30" fill="#27272B" stroke="#241E20"/>
<g opacity="0.2">
<path d="M16.139 205.488V205.776H14.667V202.768V202.032L15.403 200.752L16.139 202.048V202.768V205.488ZM12.459 200.736L11.723 200L12.459 199.264H14.123H14.539L14.971 200.016L14.539 200.736H12.683H12.459ZM13.915 201.488V204.048L12.923 205.776H12.683V203.232L13.691 201.488H13.915ZM13.915 198.512H13.691L12.683 196.768V194.224H12.923L13.915 195.952V198.512ZM11.483 192.496L11.979 192H18.827L19.323 192.496L18.347 193.488H18.315H16.139H14.667H12.491H12.459L11.483 192.496ZM16.891 201.488H17.115L18.123 203.232V205.776H17.883L16.891 204.048V201.488ZM14.667 194.224H16.139V197.232V197.968L15.403 199.264L14.667 198V197.232V194.224ZM10.955 206.976L10.459 206.48V200.368H11.051L11.195 200.528L11.947 201.264V204.512V205.776V206L10.955 206.976ZM19.323 207.504L18.827 208H11.979L11.483 207.504L12.459 206.512H12.491H14.667H16.139H18.315H18.347L19.323 207.504ZM18.859 201.264L19.755 200.368H20.347V206.48L19.851 206.976L18.859 206V205.776V204.512V201.264ZM19.851 193.024L20.347 193.52V199.632H19.755L18.859 198.736V198.288V195.488V194.224V194.016L19.851 193.024ZM17.883 194.224H18.123V196.768L17.115 198.512H16.891V195.952L17.883 194.224ZM11.947 198.736L11.051 199.632H10.459V193.52L10.955 193.024L11.947 194V194.224V195.488V198.736ZM18.347 199.264L19.083 200L18.347 200.736H18.123H16.891H16.251L15.819 200.016L16.267 199.264H16.683H18.347ZM29.2015 205.488V205.776H27.7295V202.768V202.032L28.4655 200.752L29.2015 202.048V202.768V205.488ZM25.5215 200.736L24.7855 200L25.5215 199.264H27.1855H27.6015L28.0335 200.016L27.6015 200.736H25.7455H25.5215ZM26.9775 201.488V204.048L25.9855 205.776H25.7455V203.232L26.7535 201.488H26.9775ZM26.9775 198.512H26.7535L25.7455 196.768V194.224H25.9855L26.9775 195.952V198.512ZM24.5455 192.496L25.0415 192H31.8895L32.3855 192.496L31.4095 193.488H31.3775H29.2015H27.7295H25.5535H25.5215L24.5455 192.496ZM29.9535 201.488H30.1775L31.1855 203.232V205.776H30.9455L29.9535 204.048V201.488ZM27.7295 194.224H29.2015V197.232V197.968L28.4655 199.264L27.7295 198V197.232V194.224ZM24.0175 206.976L23.5215 206.48V200.368H24.1135L24.2575 200.528L25.0095 201.264V204.512V205.776V206L24.0175 206.976ZM32.3855 207.504L31.8895 208H25.0415L24.5455 207.504L25.5215 206.512H25.5535H27.7295H29.2015H31.3775H31.4095L32.3855 207.504ZM31.9215 201.264L32.8175 200.368H33.4095V206.48L32.9135 206.976L31.9215 206V205.776V204.512V201.264ZM32.9135 193.024L33.4095 193.52V199.632H32.8175L31.9215 198.736V198.288V195.488V194.224V194.016L32.9135 193.024ZM30.9455 194.224H31.1855V196.768L30.1775 198.512H29.9535V195.952L30.9455 194.224ZM25.0095 198.736L24.1135 199.632H23.5215V193.52L24.0175 193.024L25.0095 194V194.224V195.488V198.736ZM31.4095 199.264L32.1455 200L31.4095 200.736H31.1855H29.9535H29.3135L28.8815 200.016L29.3295 199.264H29.7455H31.4095ZM42.264 205.488V205.776H40.792V202.768V202.032L41.528 200.752L42.264 202.048V202.768V205.488ZM38.584 200.736L37.848 200L38.584 199.264H40.248H40.664L41.096 200.016L40.664 200.736H38.808H38.584ZM40.04 201.488V204.048L39.048 205.776H38.808V203.232L39.816 201.488H40.04ZM40.04 198.512H39.816L38.808 196.768V194.224H39.048L40.04 195.952V198.512ZM37.608 192.496L38.104 192H44.952L45.448 192.496L44.472 193.488H44.44H42.264H40.792H38.616H38.584L37.608 192.496ZM43.016 201.488H43.24L44.248 203.232V205.776H44.008L43.016 204.048V201.488ZM40.792 194.224H42.264V197.232V197.968L41.528 199.264L40.792 198V197.232V194.224ZM37.08 206.976L36.584 206.48V200.368H37.176L37.32 200.528L38.072 201.264V204.512V205.776V206L37.08 206.976ZM45.448 207.504L44.952 208H38.104L37.608 207.504L38.584 206.512H38.616H40.792H42.264H44.44H44.472L45.448 207.504ZM44.984 201.264L45.88 200.368H46.472V206.48L45.976 206.976L44.984 206V205.776V204.512V201.264ZM45.976 193.024L46.472 193.52V199.632H45.88L44.984 198.736V198.288V195.488V194.224V194.016L45.976 193.024ZM44.008 194.224H44.248V196.768L43.24 198.512H43.016V195.952L44.008 194.224ZM38.072 198.736L37.176 199.632H36.584V193.52L37.08 193.024L38.072 194V194.224V195.488V198.736ZM44.472 199.264L45.208 200L44.472 200.736H44.248H43.016H42.376L41.944 200.016L42.392 199.264H42.808H44.472ZM55.3265 205.488V205.776H53.8545V202.768V202.032L54.5905 200.752L55.3265 202.048V202.768V205.488ZM51.6465 200.736L50.9105 200L51.6465 199.264H53.3105H53.7265L54.1585 200.016L53.7265 200.736H51.8705H51.6465ZM53.1025 201.488V204.048L52.1105 205.776H51.8705V203.232L52.8785 201.488H53.1025ZM53.1025 198.512H52.8785L51.8705 196.768V194.224H52.1105L53.1025 195.952V198.512ZM50.6705 192.496L51.1665 192H58.0145L58.5105 192.496L57.5345 193.488H57.5025H55.3265H53.8545H51.6785H51.6465L50.6705 192.496ZM56.0785 201.488H56.3025L57.3105 203.232V205.776H57.0705L56.0785 204.048V201.488ZM53.8545 194.224H55.3265V197.232V197.968L54.5905 199.264L53.8545 198V197.232V194.224ZM50.1425 206.976L49.6465 206.48V200.368H50.2385L50.3825 200.528L51.1345 201.264V204.512V205.776V206L50.1425 206.976ZM58.5105 207.504L58.0145 208H51.1665L50.6705 207.504L51.6465 206.512H51.6785H53.8545H55.3265H57.5025H57.5345L58.5105 207.504ZM58.0465 201.264L58.9425 200.368H59.5345V206.48L59.0385 206.976L58.0465 206V205.776V204.512V201.264ZM59.0385 193.024L59.5345 193.52V199.632H58.9425L58.0465 198.736V198.288V195.488V194.224V194.016L59.0385 193.024ZM57.0705 194.224H57.3105V196.768L56.3025 198.512H56.0785V195.952L57.0705 194.224ZM51.1345 198.736L50.2385 199.632H49.6465V193.52L50.1425 193.024L51.1345 194V194.224V195.488V198.736ZM57.5345 199.264L58.2705 200L57.5345 200.736H57.3105H56.0785H55.4385L55.0065 200.016L55.4545 199.264H55.8705H57.5345Z" fill="#FF0000"/>
</g>
</svg>
