<svg width="54" height="108" viewBox="0 0 54 108" fill="none" xmlns="http://www.w3.org/2000/svg">
<rect width="54" height="54" fill="black" fill-opacity="0.01"/>
<path d="M24.9238 31.6221V34H23.6982V27.335H26.8135C27.3701 27.335 27.777 27.3789 28.0342 27.4668C28.4671 27.6165 28.7992 27.9014 29.0303 28.3213C29.2126 28.6533 29.3037 29.0326 29.3037 29.459C29.3037 29.8724 29.2207 30.2484 29.0547 30.5869C28.8366 31.0329 28.5062 31.3324 28.0635 31.4854C27.79 31.5765 27.3929 31.6221 26.8721 31.6221H24.9238ZM24.9238 30.6211H26.7598C27.1797 30.6211 27.4775 30.543 27.6533 30.3867C27.8714 30.1947 27.9805 29.874 27.9805 29.4248C27.9805 29.0277 27.847 28.7266 27.5801 28.5215C27.4206 28.3978 27.1439 28.3359 26.75 28.3359H24.9238V30.6211ZM31.6887 27.335V31.3096C31.6887 31.6351 31.7098 31.8955 31.7521 32.0908C31.8335 32.4554 32.0402 32.7256 32.3723 32.9014C32.6327 33.0381 32.9533 33.1064 33.3342 33.1064C34.0633 33.1064 34.55 32.8997 34.7941 32.4863C34.9178 32.2812 34.9797 31.8743 34.9797 31.2656V27.335H36.2053V31.2363C36.2053 31.7637 36.1646 32.1836 36.0832 32.4961C35.9432 33.056 35.564 33.4808 34.9455 33.7705C34.5028 33.9756 33.938 34.0781 33.2512 34.0781C32.2258 34.0781 31.4755 33.8063 31.0002 33.2627C30.7561 32.986 30.5982 32.6507 30.5266 32.2568C30.4842 32.0355 30.4631 31.7246 30.4631 31.3242V27.335H31.6887ZM37.7504 34V32.999H40.7045C41.17 32.999 41.4923 32.9469 41.6713 32.8428C41.9382 32.6833 42.0717 32.4294 42.0717 32.0811C42.0717 31.6579 41.904 31.3763 41.5688 31.2363C41.406 31.168 41.1065 31.1338 40.6703 31.1338H39.8109C39.0492 31.1338 38.5023 31.015 38.1703 30.7773C37.7081 30.4453 37.477 29.9603 37.477 29.3223C37.477 28.873 37.599 28.4727 37.8432 28.1211C38.1101 27.7337 38.5186 27.4928 39.0688 27.3984C39.3096 27.3561 39.64 27.335 40.06 27.335H43.058V28.3359H40.2064C39.7442 28.3359 39.4138 28.3799 39.2152 28.4678C38.9418 28.5947 38.8051 28.8454 38.8051 29.2197C38.8051 29.5615 38.932 29.7943 39.1859 29.918C39.391 30.0189 39.7133 30.0693 40.1527 30.0693H40.8559C41.3962 30.0693 41.8031 30.1035 42.0766 30.1719C42.5844 30.2956 42.9441 30.5641 43.1557 30.9775C43.3217 31.3031 43.4047 31.666 43.4047 32.0664C43.4047 32.4863 43.3038 32.8558 43.102 33.1748C42.8415 33.5882 42.4444 33.8421 41.9105 33.9365C41.6729 33.9788 41.2921 34 40.768 34H37.7504ZM50.3062 27.335V34H49.0807V31.1338H45.9801V34H44.7545V27.335H45.9801V30.1328H49.0807V27.335H50.3062Z" fill="white"/>
<path d="M22.6982 14V7.33496H26.1504C26.8698 7.33496 27.3988 7.4554 27.7373 7.69629C27.9749 7.86882 28.1507 8.09993 28.2646 8.38965C28.3493 8.60449 28.3916 8.8291 28.3916 9.06348C28.3916 9.48991 28.2598 9.861 27.9961 10.1768C27.8398 10.3623 27.6364 10.5104 27.3857 10.6211C28.0889 10.888 28.4404 11.4023 28.4404 12.1641C28.4404 12.5319 28.359 12.8558 28.1963 13.1357C27.9587 13.5524 27.5713 13.8145 27.0342 13.9219C26.7607 13.974 26.4059 14 25.9697 14H22.6982ZM23.9238 10.1182H25.96C26.2301 10.1182 26.4238 10.0954 26.541 10.0498C26.7266 9.98145 26.8682 9.85775 26.9658 9.67871C27.0439 9.53548 27.083 9.3776 27.083 9.20508C27.083 8.91211 26.9886 8.6875 26.7998 8.53125C26.6794 8.43034 26.5443 8.37174 26.3945 8.35547C26.2839 8.34245 26.1439 8.33594 25.9746 8.33594H23.9238V10.1182ZM23.9238 12.999H25.9111C26.3148 12.999 26.6094 12.9209 26.7949 12.7646C27.0065 12.5921 27.1123 12.3415 27.1123 12.0127C27.1123 11.6807 27.0033 11.4398 26.7852 11.29C26.6224 11.1761 26.3522 11.1191 25.9746 11.1191H23.9238V12.999ZM31.05 11.6221V14H29.8244V7.33496H32.9396C33.4963 7.33496 33.9032 7.37891 34.1604 7.4668C34.5933 7.61654 34.9253 7.90137 35.1564 8.32129C35.3387 8.65332 35.4299 9.03255 35.4299 9.45898C35.4299 9.8724 35.3469 10.2484 35.1809 10.5869C34.9628 11.0329 34.6324 11.3324 34.1896 11.4854C33.9162 11.5765 33.5191 11.6221 32.9982 11.6221H31.05ZM31.05 10.6211H32.8859C33.3059 10.6211 33.6037 10.543 33.7795 10.3867C33.9976 10.1947 34.1066 9.87402 34.1066 9.4248C34.1066 9.02767 33.9732 8.72656 33.7063 8.52148C33.5467 8.39779 33.2701 8.33594 32.8762 8.33594H31.05V10.6211Z" fill="white"/>
<rect width="54" height="54" transform="translate(0 54)" fill="black" fill-opacity="0.01"/>
<path d="M4.76016 102.602L2.56289 99.335H4.04238L5.53652 101.669L7.18691 99.335H8.66152L6.27383 102.602L8.76406 106H7.3041L5.50723 103.51L3.77383 106H2.3041L4.76016 102.602ZM11.0367 103.622V106H9.81113V99.335H12.9264C13.483 99.335 13.8899 99.3789 14.1471 99.4668C14.58 99.6165 14.912 99.9014 15.1432 100.321C15.3255 100.653 15.4166 101.033 15.4166 101.459C15.4166 101.872 15.3336 102.248 15.1676 102.587C14.9495 103.033 14.6191 103.332 14.1764 103.485C13.9029 103.576 13.5058 103.622 12.985 103.622H11.0367ZM11.0367 102.621H12.8727C13.2926 102.621 13.5904 102.543 13.7662 102.387C13.9843 102.195 14.0934 101.874 14.0934 101.425C14.0934 101.028 13.9599 100.727 13.693 100.521C13.5335 100.398 13.2568 100.336 12.8629 100.336H11.0367V102.621ZM15.3797 106L18.1385 99.335H19.6473L22.3475 106H20.9705L20.3113 104.345H17.4305L16.7518 106H15.3797ZM18.8807 100.492L17.7527 103.344H19.9793L18.8807 100.492ZM24.5566 100.878V106H23.3799V99.335H24.8936L27.96 104.501V99.335H29.1367V106H27.6719L24.5566 100.878ZM30.8381 99.335H33.5188C34.2251 99.335 34.7557 99.3952 35.1105 99.5156C35.7648 99.7337 36.2401 100.185 36.5363 100.868C36.7512 101.36 36.8586 101.947 36.8586 102.631C36.8586 103.412 36.7333 104.076 36.4826 104.623C36.1734 105.297 35.6704 105.72 34.9738 105.893C34.6939 105.964 34.2268 106 33.5725 106H30.8381V99.335ZM32.0637 100.336V104.999H33.6311C34.3244 104.999 34.8078 104.817 35.0813 104.452C35.2147 104.276 35.3221 104.035 35.4035 103.729C35.4882 103.404 35.5305 103.07 35.5305 102.729C35.5305 102.276 35.4637 101.845 35.3303 101.435C35.1708 100.959 34.9152 100.644 34.5637 100.487C34.3358 100.386 34.0119 100.336 33.592 100.336H32.0637ZM43.0717 99.335V100.336H41.1674C40.7117 100.339 40.3764 100.38 40.1615 100.458C39.7383 100.604 39.4519 100.915 39.3021 101.391C39.2501 101.57 39.2143 101.825 39.1947 102.157H43.0717V103.158H39.1947C39.198 103.627 39.3119 104.027 39.5365 104.359C39.8197 104.786 40.365 104.999 41.1723 104.999H43.0717V106H41.0355C40.5375 106 40.0899 105.951 39.6928 105.854C38.9669 105.674 38.4379 105.181 38.1059 104.374C37.9171 103.912 37.8227 103.357 37.8227 102.709C37.8227 101.479 38.1856 100.546 38.9115 99.9111C39.1947 99.6637 39.5447 99.4993 39.9613 99.418C40.2348 99.3626 40.5668 99.335 40.9574 99.335H43.0717ZM45.7496 103.305V106H44.524V99.335H47.6637C48.5654 99.335 49.1952 99.4538 49.5533 99.6914C49.8072 99.8607 50.0025 100.089 50.1393 100.375C50.2564 100.629 50.315 100.904 50.315 101.2C50.315 101.519 50.2516 101.822 50.1246 102.108C49.9326 102.541 49.5517 102.846 48.982 103.021C49.2262 103.116 49.4085 103.212 49.5289 103.31C49.7828 103.511 49.9619 103.777 50.066 104.105C50.1246 104.285 50.1686 104.577 50.1979 104.984C50.2239 105.368 50.2467 105.609 50.2662 105.707C50.2857 105.792 50.3199 105.889 50.3688 106H49.0504C49.0146 105.909 48.9885 105.811 48.9723 105.707C48.9658 105.648 48.943 105.427 48.9039 105.043C48.8518 104.529 48.7411 104.153 48.5719 103.915C48.3668 103.616 48.0543 103.432 47.6344 103.363C47.413 103.324 47.151 103.305 46.8482 103.305H45.7496ZM45.7496 102.304H47.693C48.1552 102.304 48.4661 102.245 48.6256 102.128C48.8665 101.952 48.9869 101.677 48.9869 101.303C48.9869 100.883 48.8372 100.596 48.5377 100.443C48.3945 100.372 48.1129 100.336 47.693 100.336H45.7496V102.304Z" fill="white"/>
</svg>
