<svg width="70" height="230" viewBox="0 0 70 230" fill="none" xmlns="http://www.w3.org/2000/svg">
<rect width="70" height="50" fill="black" fill-opacity="0.01"/>
<path d="M26 6.51465C16.6588 9.97028 10 18.9575 10 29.5C10 33.6566 11.0368 37.5706 12.8633 41H10.6182C8.94015 37.5217 8 33.6206 8 29.5C8 17.8376 15.5337 7.93468 26 4.39258V6.51465Z" fill="white"/>
<path d="M42 4.07715C52.9829 7.31209 61 17.4694 61 29.5C61 33.6206 60.0598 37.5217 58.3818 41H56.1367C57.9632 37.5706 59 33.6566 59 29.5C59 18.5852 51.8621 9.33894 42 6.1709V4.07715Z" fill="white"/>
<path d="M56.4241 44.3345V49H55.4329V47.0688H53.6282V49H52.637V44.3345H53.6282V46.2383H55.4329V44.3345H56.4241ZM58.5124 47.3696V49H57.5212V44.3345H59.8488C60.2726 44.3345 60.5768 44.3641 60.7614 44.4233C61.0667 44.5259 61.3083 44.7389 61.486 45.0625C61.6182 45.304 61.6843 45.5672 61.6843 45.8521C61.6843 46.1392 61.6205 46.4069 61.4929 46.6553C61.3493 46.9378 61.1362 47.1395 60.8537 47.2603C60.6873 47.3332 60.439 47.3696 60.1086 47.3696H58.5124ZM58.5124 46.5391H59.8659C60.1074 46.5391 60.2772 46.5003 60.3752 46.4229C60.521 46.3066 60.5939 46.105 60.5939 45.8179C60.5939 45.5034 60.4834 45.3018 60.2624 45.2129C60.1826 45.181 60.0573 45.165 59.8864 45.165H58.5124V46.5391Z" fill="white"/>
<path d="M32.9097 3.57861V7H31.9629V2.33447H33.2344L35.0903 5.81055V2.33447H36.0371V7H34.8135L32.9097 3.57861Z" fill="white"/>
<path d="M9.5882 44.3345H10.5794V46.9526C10.5931 47.2853 10.6079 47.5063 10.6238 47.6157C10.6694 47.9028 10.8563 48.0749 11.1844 48.1318C11.3348 48.1569 11.5524 48.1694 11.8372 48.1694H12.7908V49H11.7347C11.2357 49.0023 10.8734 48.9738 10.6478 48.9146C10.1328 48.7642 9.80695 48.4372 9.67023 47.9336C9.61783 47.7399 9.59048 47.4129 9.5882 46.9526V44.3345ZM14.5065 47.3696V49H13.5153V44.3345H15.8429C16.2668 44.3345 16.571 44.3641 16.7555 44.4233C17.0609 44.5259 17.3024 44.7389 17.4802 45.0625C17.6123 45.304 17.6784 45.5672 17.6784 45.8521C17.6784 46.1392 17.6146 46.4069 17.487 46.6553C17.3434 46.9378 17.1304 47.1395 16.8478 47.2603C16.6815 47.3332 16.4331 47.3696 16.1027 47.3696H14.5065ZM14.5065 46.5391H15.86C16.1016 46.5391 16.2713 46.5003 16.3693 46.4229C16.5151 46.3066 16.5881 46.105 16.5881 45.8179C16.5881 45.5034 16.4776 45.3018 16.2565 45.2129C16.1768 45.181 16.0514 45.165 15.8805 45.165H14.5065V46.5391Z" fill="white"/>
<rect width="70" height="50" transform="translate(0 60)" fill="black" fill-opacity="0.01"/>
<path d="M26 66.5146C16.6588 69.9703 10 78.9575 10 89.5C10 93.6566 11.0368 97.5706 12.8633 101H10.6182C8.94015 97.5217 8 93.6206 8 89.5C8 77.8376 15.5337 67.9347 26 64.3926V66.5146Z" fill="white"/>
<path d="M42 64.0771C52.9829 67.3121 61 77.4694 61 89.5C61 93.6206 60.0598 97.5217 58.3818 101H56.1367C57.9632 97.5706 59 93.6566 59 89.5C59 78.5852 51.8621 69.3389 42 66.1709V64.0771Z" fill="white"/>
<path d="M56.4241 104.334V109H55.4329V107.069H53.6282V109H52.637V104.334H53.6282V106.238H55.4329V104.334H56.4241ZM58.5124 107.37V109H57.5212V104.334H59.8488C60.2726 104.334 60.5768 104.364 60.7614 104.423C61.0667 104.526 61.3083 104.739 61.486 105.062C61.6182 105.304 61.6843 105.567 61.6843 105.852C61.6843 106.139 61.6205 106.407 61.4929 106.655C61.3493 106.938 61.1362 107.139 60.8537 107.26C60.6873 107.333 60.439 107.37 60.1086 107.37H58.5124ZM58.5124 106.539H59.8659C60.1074 106.539 60.2772 106.5 60.3752 106.423C60.521 106.307 60.5939 106.105 60.5939 105.818C60.5939 105.503 60.4834 105.302 60.2624 105.213C60.1826 105.181 60.0573 105.165 59.8864 105.165H58.5124V106.539Z" fill="white"/>
<path d="M29.5618 67V62.3345H32.2005C32.6129 62.3345 32.9137 62.3812 33.1029 62.4746C33.3193 62.5863 33.4845 62.7674 33.5985 63.0181C33.6782 63.1935 33.7181 63.3735 33.7181 63.5581C33.7181 63.8748 33.611 64.1574 33.3968 64.4058C33.2897 64.5265 33.1701 64.6143 33.0379 64.6689C33.4891 64.8763 33.7147 65.242 33.7147 65.7661C33.7147 66.0692 33.6429 66.3244 33.4993 66.5317C33.3239 66.7801 33.0561 66.9271 32.6961 66.9727C32.5457 66.9909 32.3612 67 32.1424 67H29.5618ZM30.553 64.252H31.9066C32.0843 64.252 32.2062 64.2394 32.2723 64.2144C32.3839 64.1711 32.4717 64.097 32.5355 63.9922C32.5924 63.8965 32.6209 63.7905 32.6209 63.6743C32.6209 63.4875 32.5526 63.3496 32.4158 63.2607C32.3179 63.1969 32.1549 63.165 31.9271 63.165H30.553V64.252ZM30.553 66.1694H31.9066C32.0843 66.1694 32.2062 66.1569 32.2723 66.1318C32.3839 66.0885 32.4717 66.0145 32.5355 65.9097C32.5924 65.814 32.6209 65.708 32.6209 65.5918C32.6209 65.4049 32.5526 65.2671 32.4158 65.1782C32.3179 65.1144 32.1549 65.0825 31.9271 65.0825H30.553V66.1694ZM35.5876 65.3696V67H34.5964V62.3345H36.924C37.3478 62.3345 37.652 62.3641 37.8366 62.4233C38.1419 62.5259 38.3835 62.7389 38.5612 63.0625C38.6934 63.304 38.7595 63.5672 38.7595 63.8521C38.7595 64.1392 38.6957 64.4069 38.568 64.6553C38.4245 64.9378 38.2114 65.1395 37.9289 65.2603C37.7625 65.3332 37.5142 65.3696 37.1838 65.3696H35.5876ZM35.5876 64.5391H36.9411C37.1826 64.5391 37.3524 64.5003 37.4504 64.4229C37.5962 64.3066 37.6691 64.105 37.6691 63.8179C37.6691 63.5034 37.5586 63.3018 37.3376 63.2129C37.2578 63.181 37.1325 63.165 36.9616 63.165H35.5876V64.5391Z" fill="white"/>
<path d="M9.5882 104.334H10.5794V106.953C10.5931 107.285 10.6079 107.506 10.6238 107.616C10.6694 107.903 10.8563 108.075 11.1844 108.132C11.3348 108.157 11.5524 108.169 11.8372 108.169H12.7908V109H11.7347C11.2357 109.002 10.8734 108.974 10.6478 108.915C10.1328 108.764 9.80695 108.437 9.67023 107.934C9.61783 107.74 9.59048 107.413 9.5882 106.953V104.334ZM14.5065 107.37V109H13.5153V104.334H15.8429C16.2668 104.334 16.571 104.364 16.7555 104.423C17.0609 104.526 17.3024 104.739 17.4802 105.062C17.6123 105.304 17.6784 105.567 17.6784 105.852C17.6784 106.139 17.6146 106.407 17.487 106.655C17.3434 106.938 17.1304 107.139 16.8478 107.26C16.6815 107.333 16.4331 107.37 16.1027 107.37H14.5065ZM14.5065 106.539H15.86C16.1016 106.539 16.2713 106.5 16.3693 106.423C16.5151 106.307 16.5881 106.105 16.5881 105.818C16.5881 105.503 16.4776 105.302 16.2565 105.213C16.1768 105.181 16.0514 105.165 15.8805 105.165H14.5065V106.539Z" fill="white"/>
<rect width="70" height="50" transform="translate(0 120)" fill="black" fill-opacity="0.01"/>
<path d="M13.4258 137C11.2504 140.66 10 144.934 10 149.5C10 153.657 11.0368 157.571 12.8633 161H10.6182C8.94015 157.522 8 153.621 8 149.5C8 144.979 9.13304 140.724 11.1289 137H13.4258Z" fill="white"/>
<path d="M57.8711 137C59.867 140.724 61 144.979 61 149.5C61 153.621 60.0598 157.522 58.3818 161H56.1367C57.9632 157.571 59 153.657 59 149.5C59 144.934 57.7496 140.66 55.5742 137H57.8711Z" fill="white"/>
<path d="M34.5 123C40.8734 123 46.7205 125.251 51.292 129H47.918C44.0634 126.472 39.4539 125 34.5 125C29.5461 125 24.9366 126.472 21.082 129H17.708C22.2795 125.251 28.1266 123 34.5 123Z" fill="white"/>
<path d="M53.5262 169H52.535V164.334H53.5262V169ZM55.6144 167.37V169H54.6232V164.334H56.9509C57.3747 164.334 57.6789 164.364 57.8635 164.423C58.1688 164.526 58.4103 164.739 58.5881 165.062C58.7202 165.304 58.7863 165.567 58.7863 165.852C58.7863 166.139 58.7225 166.407 58.5949 166.655C58.4513 166.938 58.2383 167.139 57.9557 167.26C57.7894 167.333 57.541 167.37 57.2106 167.37H55.6144ZM55.6144 166.539H56.9679C57.2095 166.539 57.3792 166.5 57.4772 166.423C57.6231 166.307 57.696 166.105 57.696 165.818C57.696 165.503 57.5855 165.302 57.3644 165.213C57.2847 165.181 57.1594 165.165 56.9885 165.165H55.6144V166.539Z" fill="white"/>
<path d="M52.4642 134.173H55.513V135H51.473V133.759C51.4661 133.237 51.5972 132.84 51.866 132.566C52.0233 132.414 52.2261 132.318 52.4744 132.279C52.5565 132.266 52.7251 132.259 52.9803 132.259H53.7425C53.7926 132.259 53.8872 132.251 54.0262 132.235C54.2176 132.214 54.3555 132.148 54.4398 132.037C54.5081 131.948 54.5423 131.846 54.5423 131.732C54.5423 131.637 54.5195 131.543 54.4739 131.452C54.4056 131.318 54.2825 131.232 54.1048 131.196C53.9863 131.173 53.8655 131.162 53.7425 131.162H51.5482V130.334H53.951C54.548 130.334 54.965 130.434 55.202 130.632C55.3455 130.753 55.456 130.913 55.5335 131.114C55.6019 131.296 55.6361 131.49 55.6361 131.695C55.6361 131.957 55.5859 132.204 55.4857 132.437C55.3535 132.749 55.0835 132.946 54.6756 133.028C54.491 133.067 54.2723 133.086 54.0194 133.086H53.3597C52.9586 133.086 52.7057 133.144 52.6009 133.26C52.5189 133.34 52.4733 133.506 52.4642 133.759V134.173ZM57.4543 133.37V135H56.4631V130.334H58.7907C59.2145 130.334 59.5187 130.364 59.7033 130.423C60.0086 130.526 60.2502 130.739 60.4279 131.062C60.5601 131.304 60.6262 131.567 60.6262 131.852C60.6262 132.139 60.5623 132.407 60.4347 132.655C60.2912 132.938 60.0781 133.139 59.7956 133.26C59.6292 133.333 59.3809 133.37 59.0505 133.37H57.4543ZM57.4543 132.539H58.8078C59.0493 132.539 59.2191 132.5 59.3171 132.423C59.4629 132.307 59.5358 132.105 59.5358 131.818C59.5358 131.503 59.4253 131.302 59.2043 131.213C59.1245 131.181 58.9992 131.165 58.8283 131.165H57.4543V132.539Z" fill="white"/>
<path d="M10.596 135V134.173H12.5955C12.8735 134.173 13.0615 134.133 13.1595 134.053C13.278 133.96 13.3372 133.816 13.3372 133.623C13.3372 133.388 13.2598 133.226 13.1048 133.137C13.0114 133.08 12.8416 133.052 12.5955 133.052H11.0369V132.225H12.5955C12.8872 132.225 13.0797 132.188 13.1732 132.115C13.2803 132.029 13.3338 131.892 13.3338 131.705C13.3338 131.5 13.2632 131.35 13.1219 131.254C13.0581 131.211 12.9783 131.183 12.8826 131.172C12.8348 131.165 12.7391 131.162 12.5955 131.162H10.596V130.334H12.7698C13.0797 130.337 13.2768 130.342 13.3612 130.352C13.4477 130.361 13.5434 130.385 13.6483 130.423C13.8875 130.512 14.0789 130.674 14.2225 130.909C14.3592 131.132 14.4276 131.369 14.4276 131.62C14.4276 132.055 14.2202 132.392 13.8055 132.631C14.2225 132.903 14.431 133.28 14.431 133.763C14.431 134.207 14.2635 134.536 13.9285 134.75C13.7257 134.883 13.4603 134.962 13.1321 134.99C13.0364 134.997 12.8758 135 12.6502 135H10.596ZM16.3073 133.37V135H15.3161V130.334H17.6437C18.0676 130.334 18.3718 130.364 18.5563 130.423C18.8617 130.526 19.1032 130.739 19.2809 131.062C19.4131 131.304 19.4792 131.567 19.4792 131.852C19.4792 132.139 19.4154 132.407 19.2878 132.655C19.1442 132.938 18.9312 133.139 18.6486 133.26C18.4823 133.333 18.2339 133.37 17.9035 133.37H16.3073ZM16.3073 132.539H17.6608C17.9024 132.539 18.0721 132.5 18.1701 132.423C18.3159 132.307 18.3888 132.105 18.3888 131.818C18.3888 131.503 18.2783 131.302 18.0573 131.213C17.9776 131.181 17.8522 131.165 17.6813 131.165H16.3073V132.539Z" fill="white"/>
<path d="M8.23371 168.19V167.202L10.8655 164.334H12.1746V167.363H12.7899V168.19H12.1746V169H11.1834V168.19H8.23371ZM9.34455 167.363H11.1834V165.367L9.34455 167.363ZM14.6115 167.37V169H13.6203V164.334H15.9479C16.3718 164.334 16.676 164.364 16.8605 164.423C17.1659 164.526 17.4074 164.739 17.5851 165.062C17.7173 165.304 17.7834 165.567 17.7834 165.852C17.7834 166.139 17.7196 166.407 17.592 166.655C17.4484 166.938 17.2354 167.139 16.9528 167.26C16.7865 167.333 16.5381 167.37 16.2077 167.37H14.6115ZM14.6115 166.539H15.965C16.2066 166.539 16.3763 166.5 16.4743 166.423C16.6201 166.307 16.693 166.105 16.693 165.818C16.693 165.503 16.5825 165.302 16.3615 165.213C16.2818 165.181 16.1564 165.165 15.9855 165.165H14.6115V166.539Z" fill="white"/>
<rect width="70" height="50" transform="translate(0 180)" fill="black" fill-opacity="0.01"/>
<rect x="0.5" y="189.5" width="69" height="36" rx="1.5" stroke="#2D2E31"/>
<mask id="path-15-inside-1_45_1753" fill="white">
<rect x="1" y="190" width="68" height="35" rx="1"/>
</mask>
<rect x="1" y="190" width="68" height="35" rx="1" stroke="#36373A" stroke-width="4" mask="url(#path-15-inside-1_45_1753)"/>
<rect x="3.5" y="192.5" width="63" height="30" fill="#27272B" stroke="#241E20"/>
<g opacity="0.2">
<path d="M16.139 213.488V213.776H14.667V210.768V210.032L15.403 208.752L16.139 210.048V210.768V213.488ZM12.459 208.736L11.723 208L12.459 207.264H14.123H14.539L14.971 208.016L14.539 208.736H12.683H12.459ZM13.915 209.488V212.048L12.923 213.776H12.683V211.232L13.691 209.488H13.915ZM13.915 206.512H13.691L12.683 204.768V202.224H12.923L13.915 203.952V206.512ZM11.483 200.496L11.979 200H18.827L19.323 200.496L18.347 201.488H18.315H16.139H14.667H12.491H12.459L11.483 200.496ZM16.891 209.488H17.115L18.123 211.232V213.776H17.883L16.891 212.048V209.488ZM14.667 202.224H16.139V205.232V205.968L15.403 207.264L14.667 206V205.232V202.224ZM10.955 214.976L10.459 214.48V208.368H11.051L11.195 208.528L11.947 209.264V212.512V213.776V214L10.955 214.976ZM19.323 215.504L18.827 216H11.979L11.483 215.504L12.459 214.512H12.491H14.667H16.139H18.315H18.347L19.323 215.504ZM18.859 209.264L19.755 208.368H20.347V214.48L19.851 214.976L18.859 214V213.776V212.512V209.264ZM19.851 201.024L20.347 201.52V207.632H19.755L18.859 206.736V206.288V203.488V202.224V202.016L19.851 201.024ZM17.883 202.224H18.123V204.768L17.115 206.512H16.891V203.952L17.883 202.224ZM11.947 206.736L11.051 207.632H10.459V201.52L10.955 201.024L11.947 202V202.224V203.488V206.736ZM18.347 207.264L19.083 208L18.347 208.736H18.123H16.891H16.251L15.819 208.016L16.267 207.264H16.683H18.347ZM29.2015 213.488V213.776H27.7295V210.768V210.032L28.4655 208.752L29.2015 210.048V210.768V213.488ZM25.5215 208.736L24.7855 208L25.5215 207.264H27.1855H27.6015L28.0335 208.016L27.6015 208.736H25.7455H25.5215ZM26.9775 209.488V212.048L25.9855 213.776H25.7455V211.232L26.7535 209.488H26.9775ZM26.9775 206.512H26.7535L25.7455 204.768V202.224H25.9855L26.9775 203.952V206.512ZM24.5455 200.496L25.0415 200H31.8895L32.3855 200.496L31.4095 201.488H31.3775H29.2015H27.7295H25.5535H25.5215L24.5455 200.496ZM29.9535 209.488H30.1775L31.1855 211.232V213.776H30.9455L29.9535 212.048V209.488ZM27.7295 202.224H29.2015V205.232V205.968L28.4655 207.264L27.7295 206V205.232V202.224ZM24.0175 214.976L23.5215 214.48V208.368H24.1135L24.2575 208.528L25.0095 209.264V212.512V213.776V214L24.0175 214.976ZM32.3855 215.504L31.8895 216H25.0415L24.5455 215.504L25.5215 214.512H25.5535H27.7295H29.2015H31.3775H31.4095L32.3855 215.504ZM31.9215 209.264L32.8175 208.368H33.4095V214.48L32.9135 214.976L31.9215 214V213.776V212.512V209.264ZM32.9135 201.024L33.4095 201.52V207.632H32.8175L31.9215 206.736V206.288V203.488V202.224V202.016L32.9135 201.024ZM30.9455 202.224H31.1855V204.768L30.1775 206.512H29.9535V203.952L30.9455 202.224ZM25.0095 206.736L24.1135 207.632H23.5215V201.52L24.0175 201.024L25.0095 202V202.224V203.488V206.736ZM31.4095 207.264L32.1455 208L31.4095 208.736H31.1855H29.9535H29.3135L28.8815 208.016L29.3295 207.264H29.7455H31.4095ZM42.264 213.488V213.776H40.792V210.768V210.032L41.528 208.752L42.264 210.048V210.768V213.488ZM38.584 208.736L37.848 208L38.584 207.264H40.248H40.664L41.096 208.016L40.664 208.736H38.808H38.584ZM40.04 209.488V212.048L39.048 213.776H38.808V211.232L39.816 209.488H40.04ZM40.04 206.512H39.816L38.808 204.768V202.224H39.048L40.04 203.952V206.512ZM37.608 200.496L38.104 200H44.952L45.448 200.496L44.472 201.488H44.44H42.264H40.792H38.616H38.584L37.608 200.496ZM43.016 209.488H43.24L44.248 211.232V213.776H44.008L43.016 212.048V209.488ZM40.792 202.224H42.264V205.232V205.968L41.528 207.264L40.792 206V205.232V202.224ZM37.08 214.976L36.584 214.48V208.368H37.176L37.32 208.528L38.072 209.264V212.512V213.776V214L37.08 214.976ZM45.448 215.504L44.952 216H38.104L37.608 215.504L38.584 214.512H38.616H40.792H42.264H44.44H44.472L45.448 215.504ZM44.984 209.264L45.88 208.368H46.472V214.48L45.976 214.976L44.984 214V213.776V212.512V209.264ZM45.976 201.024L46.472 201.52V207.632H45.88L44.984 206.736V206.288V203.488V202.224V202.016L45.976 201.024ZM44.008 202.224H44.248V204.768L43.24 206.512H43.016V203.952L44.008 202.224ZM38.072 206.736L37.176 207.632H36.584V201.52L37.08 201.024L38.072 202V202.224V203.488V206.736ZM44.472 207.264L45.208 208L44.472 208.736H44.248H43.016H42.376L41.944 208.016L42.392 207.264H42.808H44.472ZM55.3265 213.488V213.776H53.8545V210.768V210.032L54.5905 208.752L55.3265 210.048V210.768V213.488ZM51.6465 208.736L50.9105 208L51.6465 207.264H53.3105H53.7265L54.1585 208.016L53.7265 208.736H51.8705H51.6465ZM53.1025 209.488V212.048L52.1105 213.776H51.8705V211.232L52.8785 209.488H53.1025ZM53.1025 206.512H52.8785L51.8705 204.768V202.224H52.1105L53.1025 203.952V206.512ZM50.6705 200.496L51.1665 200H58.0145L58.5105 200.496L57.5345 201.488H57.5025H55.3265H53.8545H51.6785H51.6465L50.6705 200.496ZM56.0785 209.488H56.3025L57.3105 211.232V213.776H57.0705L56.0785 212.048V209.488ZM53.8545 202.224H55.3265V205.232V205.968L54.5905 207.264L53.8545 206V205.232V202.224ZM50.1425 214.976L49.6465 214.48V208.368H50.2385L50.3825 208.528L51.1345 209.264V212.512V213.776V214L50.1425 214.976ZM58.5105 215.504L58.0145 216H51.1665L50.6705 215.504L51.6465 214.512H51.6785H53.8545H55.3265H57.5025H57.5345L58.5105 215.504ZM58.0465 209.264L58.9425 208.368H59.5345V214.48L59.0385 214.976L58.0465 214V213.776V212.512V209.264ZM59.0385 201.024L59.5345 201.52V207.632H58.9425L58.0465 206.736V206.288V203.488V202.224V202.016L59.0385 201.024ZM57.0705 202.224H57.3105V204.768L56.3025 206.512H56.0785V203.952L57.0705 202.224ZM51.1345 206.736L50.2385 207.632H49.6465V201.52L50.1425 201.024L51.1345 202V202.224V203.488V206.736ZM57.5345 207.264L58.2705 208L57.5345 208.736H57.3105H56.0785H55.4385L55.0065 208.016L55.4545 207.264H55.8705H57.5345Z" fill="#FF0000"/>
</g>
</svg>
