<svg width="31" height="992" viewBox="0 0 31 992" fill="none" xmlns="http://www.w3.org/2000/svg">
<rect width="31" height="31" fill="black" fill-opacity="0.01"/>
<path d="M25.484 17.264L26.38 16.368H26.972V22.48L26.476 22.976L25.484 22V21.776V20.512V17.264ZM26.476 9.024L26.972 9.52V15.632H26.38L25.484 14.736V14.288V11.488V10.224V10.016L26.476 9.024Z" fill="#FF0000"/>
<rect y="31" width="31" height="31" fill="black" fill-opacity="0.01"/>
<path d="M19.084 47.736L18.348 47L19.084 46.264H20.748H21.164L21.596 47.016L21.164 47.736H19.308H19.084ZM18.108 39.496L18.604 39H25.452L25.948 39.496L24.972 40.488H24.94H22.764H21.292H19.116H19.084L18.108 39.496ZM17.58 53.976L17.084 53.48V47.368H17.676L17.82 47.528L18.572 48.264V51.512V52.776V53L17.58 53.976ZM25.948 54.504L25.452 55H18.604L18.108 54.504L19.084 53.512H19.116H21.292H22.764H24.94H24.972L25.948 54.504ZM26.476 40.024L26.972 40.52V46.632H26.38L25.484 45.736V45.288V42.488V41.224V41.016L26.476 40.024ZM24.972 46.264L25.708 47L24.972 47.736H24.748H23.516H22.876L22.444 47.016L22.892 46.264H23.308H24.972Z" fill="#FF0000"/>
<rect y="62" width="31" height="31" fill="black" fill-opacity="0.01"/>
<path d="M19.084 78.736L18.348 78L19.084 77.264H20.748H21.164L21.596 78.016L21.164 78.736H19.308H19.084ZM18.108 70.496L18.604 70H25.452L25.948 70.496L24.972 71.488H24.94H22.764H21.292H19.116H19.084L18.108 70.496ZM25.948 85.504L25.452 86H18.604L18.108 85.504L19.084 84.512H19.116H21.292H22.764H24.94H24.972L25.948 85.504ZM25.484 79.264L26.38 78.368H26.972V84.48L26.476 84.976L25.484 84V83.776V82.512V79.264ZM26.476 71.024L26.972 71.52V77.632H26.38L25.484 76.736V76.288V73.488V72.224V72.016L26.476 71.024ZM24.972 77.264L25.708 78L24.972 78.736H24.748H23.516H22.876L22.444 78.016L22.892 77.264H23.308H24.972Z" fill="#FF0000"/>
<rect y="93" width="31" height="31" fill="black" fill-opacity="0.01"/>
<path d="M19.084 109.736L18.348 109L19.084 108.264H20.748H21.164L21.596 109.016L21.164 109.736H19.308H19.084ZM25.484 110.264L26.38 109.368H26.972V115.48L26.476 115.976L25.484 115V114.776V113.512V110.264ZM26.476 102.024L26.972 102.52V108.632H26.38L25.484 107.736V107.288V104.488V103.224V103.016L26.476 102.024ZM18.572 107.736L17.676 108.632H17.084V102.52L17.58 102.024L18.572 103V103.224V104.488V107.736ZM24.972 108.264L25.708 109L24.972 109.736H24.748H23.516H22.876L22.444 109.016L22.892 108.264H23.308H24.972Z" fill="#FF0000"/>
<rect y="124" width="31" height="31" fill="black" fill-opacity="0.01"/>
<path d="M19.084 140.736L18.348 140L19.084 139.264H20.748H21.164L21.596 140.016L21.164 140.736H19.308H19.084ZM18.108 132.496L18.604 132H25.452L25.948 132.496L24.972 133.488H24.94H22.764H21.292H19.116H19.084L18.108 132.496ZM25.948 147.504L25.452 148H18.604L18.108 147.504L19.084 146.512H19.116H21.292H22.764H24.94H24.972L25.948 147.504ZM25.484 141.264L26.38 140.368H26.972V146.48L26.476 146.976L25.484 146V145.776V144.512V141.264ZM18.572 138.736L17.676 139.632H17.084V133.52L17.58 133.024L18.572 134V134.224V135.488V138.736ZM24.972 139.264L25.708 140L24.972 140.736H24.748H23.516H22.876L22.444 140.016L22.892 139.264H23.308H24.972Z" fill="#FF0000"/>
<rect y="155" width="31" height="31" fill="black" fill-opacity="0.01"/>
<path d="M19.084 171.736L18.348 171L19.084 170.264H20.748H21.164L21.596 171.016L21.164 171.736H19.308H19.084ZM18.108 163.496L18.604 163H25.452L25.948 163.496L24.972 164.488H24.94H22.764H21.292H19.116H19.084L18.108 163.496ZM17.58 177.976L17.084 177.48V171.368H17.676L17.82 171.528L18.572 172.264V175.512V176.776V177L17.58 177.976ZM25.948 178.504L25.452 179H18.604L18.108 178.504L19.084 177.512H19.116H21.292H22.764H24.94H24.972L25.948 178.504ZM25.484 172.264L26.38 171.368H26.972V177.48L26.476 177.976L25.484 177V176.776V175.512V172.264ZM18.572 169.736L17.676 170.632H17.084V164.52L17.58 164.024L18.572 165V165.224V166.488V169.736ZM24.972 170.264L25.708 171L24.972 171.736H24.748H23.516H22.876L22.444 171.016L22.892 170.264H23.308H24.972Z" fill="#FF0000"/>
<rect y="186" width="31" height="31" fill="black" fill-opacity="0.01"/>
<path d="M18.108 194.496L18.604 194H25.452L25.948 194.496L24.972 195.488H24.94H22.764H21.292H19.116H19.084L18.108 194.496ZM25.484 203.264L26.38 202.368H26.972V208.48L26.476 208.976L25.484 208V207.776V206.512V203.264ZM26.476 195.024L26.972 195.52V201.632H26.38L25.484 200.736V200.288V197.488V196.224V196.016L26.476 195.024ZM18.572 200.736L17.676 201.632H17.084V195.52L17.58 195.024L18.572 196V196.224V197.488V200.736Z" fill="#FF0000"/>
<rect y="217" width="31" height="31" fill="black" fill-opacity="0.01"/>
<path d="M19.084 233.736L18.348 233L19.084 232.264H20.748H21.164L21.596 233.016L21.164 233.736H19.308H19.084ZM18.108 225.496L18.604 225H25.452L25.948 225.496L24.972 226.488H24.94H22.764H21.292H19.116H19.084L18.108 225.496ZM17.58 239.976L17.084 239.48V233.368H17.676L17.82 233.528L18.572 234.264V237.512V238.776V239L17.58 239.976ZM25.948 240.504L25.452 241H18.604L18.108 240.504L19.084 239.512H19.116H21.292H22.764H24.94H24.972L25.948 240.504ZM25.484 234.264L26.38 233.368H26.972V239.48L26.476 239.976L25.484 239V238.776V237.512V234.264ZM26.476 226.024L26.972 226.52V232.632H26.38L25.484 231.736V231.288V228.488V227.224V227.016L26.476 226.024ZM18.572 231.736L17.676 232.632H17.084V226.52L17.58 226.024L18.572 227V227.224V228.488V231.736ZM24.972 232.264L25.708 233L24.972 233.736H24.748H23.516H22.876L22.444 233.016L22.892 232.264H23.308H24.972Z" fill="#FF0000"/>
<rect y="248" width="31" height="31" fill="black" fill-opacity="0.01"/>
<path d="M19.084 264.736L18.348 264L19.084 263.264H20.748H21.164L21.596 264.016L21.164 264.736H19.308H19.084ZM18.108 256.496L18.604 256H25.452L25.948 256.496L24.972 257.488H24.94H22.764H21.292H19.116H19.084L18.108 256.496ZM25.948 271.504L25.452 272H18.604L18.108 271.504L19.084 270.512H19.116H21.292H22.764H24.94H24.972L25.948 271.504ZM25.484 265.264L26.38 264.368H26.972V270.48L26.476 270.976L25.484 270V269.776V268.512V265.264ZM26.476 257.024L26.972 257.52V263.632H26.38L25.484 262.736V262.288V259.488V258.224V258.016L26.476 257.024ZM18.572 262.736L17.676 263.632H17.084V257.52L17.58 257.024L18.572 258V258.224V259.488V262.736ZM24.972 263.264L25.708 264L24.972 264.736H24.748H23.516H22.876L22.444 264.016L22.892 263.264H23.308H24.972Z" fill="#FF0000"/>
<rect y="279" width="31" height="31" fill="black" fill-opacity="0.01"/>
<path d="M12.4215 296.264L13.3175 295.368H13.9095V301.48L13.4135 301.976L12.4215 301V300.776V299.512V296.264ZM13.4135 288.024L13.9095 288.52V294.632H13.3175L12.4215 293.736V293.288V290.488V289.224V289.016L13.4135 288.024ZM20.54 296.488V299.048L19.548 300.776H19.308V298.232L20.316 296.488H20.54ZM18.108 287.496L18.604 287H25.452L25.948 287.496L24.972 288.488H24.94H22.764H21.292H19.116H19.084L18.108 287.496ZM17.58 301.976L17.084 301.48V295.368H17.676L17.82 295.528L18.572 296.264V299.512V300.776V301L17.58 301.976ZM25.948 302.504L25.452 303H18.604L18.108 302.504L19.084 301.512H19.116H21.292H22.764H24.94H24.972L25.948 302.504ZM25.484 296.264L26.38 295.368H26.972V301.48L26.476 301.976L25.484 301V300.776V299.512V296.264ZM26.476 288.024L26.972 288.52V294.632H26.38L25.484 293.736V293.288V290.488V289.224V289.016L26.476 288.024ZM24.508 289.224H24.748V291.768L23.74 293.512H23.516V290.952L24.508 289.224ZM18.572 293.736L17.676 294.632H17.084V288.52L17.58 288.024L18.572 289V289.224V290.488V293.736Z" fill="#FF0000"/>
<rect y="310" width="31" height="31" fill="black" fill-opacity="0.01"/>
<path d="M12.4215 327.264L13.3175 326.368H13.9095V332.48L13.4135 332.976L12.4215 332V331.776V330.512V327.264ZM13.4135 319.024L13.9095 319.52V325.632H13.3175L12.4215 324.736V324.288V321.488V320.224V320.016L13.4135 319.024ZM25.484 327.264L26.38 326.368H26.972V332.48L26.476 332.976L25.484 332V331.776V330.512V327.264ZM26.476 319.024L26.972 319.52V325.632H26.38L25.484 324.736V324.288V321.488V320.224V320.016L26.476 319.024Z" fill="#FF0000"/>
<rect y="341" width="31" height="31" fill="black" fill-opacity="0.01"/>
<path d="M12.4215 358.264L13.3175 357.368H13.9095V363.48L13.4135 363.976L12.4215 363V362.776V361.512V358.264ZM13.4135 350.024L13.9095 350.52V356.632H13.3175L12.4215 355.736V355.288V352.488V351.224V351.016L13.4135 350.024ZM19.084 357.736L18.348 357L19.084 356.264H20.748H21.164L21.596 357.016L21.164 357.736H19.308H19.084ZM18.108 349.496L18.604 349H25.452L25.948 349.496L24.972 350.488H24.94H22.764H21.292H19.116H19.084L18.108 349.496ZM17.58 363.976L17.084 363.48V357.368H17.676L17.82 357.528L18.572 358.264V361.512V362.776V363L17.58 363.976ZM25.948 364.504L25.452 365H18.604L18.108 364.504L19.084 363.512H19.116H21.292H22.764H24.94H24.972L25.948 364.504ZM26.476 350.024L26.972 350.52V356.632H26.38L25.484 355.736V355.288V352.488V351.224V351.016L26.476 350.024ZM24.972 356.264L25.708 357L24.972 357.736H24.748H23.516H22.876L22.444 357.016L22.892 356.264H23.308H24.972Z" fill="#FF0000"/>
<rect y="372" width="31" height="31" fill="black" fill-opacity="0.01"/>
<path d="M12.4215 389.264L13.3175 388.368H13.9095V394.48L13.4135 394.976L12.4215 394V393.776V392.512V389.264ZM13.4135 381.024L13.9095 381.52V387.632H13.3175L12.4215 386.736V386.288V383.488V382.224V382.016L13.4135 381.024ZM19.084 388.736L18.348 388L19.084 387.264H20.748H21.164L21.596 388.016L21.164 388.736H19.308H19.084ZM18.108 380.496L18.604 380H25.452L25.948 380.496L24.972 381.488H24.94H22.764H21.292H19.116H19.084L18.108 380.496ZM25.948 395.504L25.452 396H18.604L18.108 395.504L19.084 394.512H19.116H21.292H22.764H24.94H24.972L25.948 395.504ZM25.484 389.264L26.38 388.368H26.972V394.48L26.476 394.976L25.484 394V393.776V392.512V389.264ZM26.476 381.024L26.972 381.52V387.632H26.38L25.484 386.736V386.288V383.488V382.224V382.016L26.476 381.024ZM24.972 387.264L25.708 388L24.972 388.736H24.748H23.516H22.876L22.444 388.016L22.892 387.264H23.308H24.972Z" fill="#FF0000"/>
<rect y="403" width="31" height="31" fill="black" fill-opacity="0.01"/>
<path d="M12.4215 420.264L13.3175 419.368H13.9095V425.48L13.4135 425.976L12.4215 425V424.776V423.512V420.264ZM13.4135 412.024L13.9095 412.52V418.632H13.3175L12.4215 417.736V417.288V414.488V413.224V413.016L13.4135 412.024ZM19.084 419.736L18.348 419L19.084 418.264H20.748H21.164L21.596 419.016L21.164 419.736H19.308H19.084ZM25.484 420.264L26.38 419.368H26.972V425.48L26.476 425.976L25.484 425V424.776V423.512V420.264ZM26.476 412.024L26.972 412.52V418.632H26.38L25.484 417.736V417.288V414.488V413.224V413.016L26.476 412.024ZM18.572 417.736L17.676 418.632H17.084V412.52L17.58 412.024L18.572 413V413.224V414.488V417.736ZM24.972 418.264L25.708 419L24.972 419.736H24.748H23.516H22.876L22.444 419.016L22.892 418.264H23.308H24.972Z" fill="#FF0000"/>
<rect y="434" width="31" height="31" fill="black" fill-opacity="0.01"/>
<path d="M12.4215 451.264L13.3175 450.368H13.9095V456.48L13.4135 456.976L12.4215 456V455.776V454.512V451.264ZM13.4135 443.024L13.9095 443.52V449.632H13.3175L12.4215 448.736V448.288V445.488V444.224V444.016L13.4135 443.024ZM19.084 450.736L18.348 450L19.084 449.264H20.748H21.164L21.596 450.016L21.164 450.736H19.308H19.084ZM18.108 442.496L18.604 442H25.452L25.948 442.496L24.972 443.488H24.94H22.764H21.292H19.116H19.084L18.108 442.496ZM25.948 457.504L25.452 458H18.604L18.108 457.504L19.084 456.512H19.116H21.292H22.764H24.94H24.972L25.948 457.504ZM25.484 451.264L26.38 450.368H26.972V456.48L26.476 456.976L25.484 456V455.776V454.512V451.264ZM18.572 448.736L17.676 449.632H17.084V443.52L17.58 443.024L18.572 444V444.224V445.488V448.736ZM24.972 449.264L25.708 450L24.972 450.736H24.748H23.516H22.876L22.444 450.016L22.892 449.264H23.308H24.972Z" fill="#FF0000"/>
<rect y="465" width="31" height="31" fill="black" fill-opacity="0.01"/>
<path d="M12.4215 482.264L13.3175 481.368H13.9095V487.48L13.4135 487.976L12.4215 487V486.776V485.512V482.264ZM13.4135 474.024L13.9095 474.52V480.632H13.3175L12.4215 479.736V479.288V476.488V475.224V475.016L13.4135 474.024ZM19.084 481.736L18.348 481L19.084 480.264H20.748H21.164L21.596 481.016L21.164 481.736H19.308H19.084ZM18.108 473.496L18.604 473H25.452L25.948 473.496L24.972 474.488H24.94H22.764H21.292H19.116H19.084L18.108 473.496ZM17.58 487.976L17.084 487.48V481.368H17.676L17.82 481.528L18.572 482.264V485.512V486.776V487L17.58 487.976ZM25.948 488.504L25.452 489H18.604L18.108 488.504L19.084 487.512H19.116H21.292H22.764H24.94H24.972L25.948 488.504ZM25.484 482.264L26.38 481.368H26.972V487.48L26.476 487.976L25.484 487V486.776V485.512V482.264ZM18.572 479.736L17.676 480.632H17.084V474.52L17.58 474.024L18.572 475V475.224V476.488V479.736ZM24.972 480.264L25.708 481L24.972 481.736H24.748H23.516H22.876L22.444 481.016L22.892 480.264H23.308H24.972Z" fill="#FF0000"/>
<rect y="496" width="31" height="31" fill="black" fill-opacity="0.01"/>
<path d="M12.4215 513.264L13.3175 512.368H13.9095V518.48L13.4135 518.976L12.4215 518V517.776V516.512V513.264ZM13.4135 505.024L13.9095 505.52V511.632H13.3175L12.4215 510.736V510.288V507.488V506.224V506.016L13.4135 505.024ZM18.108 504.496L18.604 504H25.452L25.948 504.496L24.972 505.488H24.94H22.764H21.292H19.116H19.084L18.108 504.496ZM25.484 513.264L26.38 512.368H26.972V518.48L26.476 518.976L25.484 518V517.776V516.512V513.264ZM26.476 505.024L26.972 505.52V511.632H26.38L25.484 510.736V510.288V507.488V506.224V506.016L26.476 505.024ZM18.572 510.736L17.676 511.632H17.084V505.52L17.58 505.024L18.572 506V506.224V507.488V510.736Z" fill="#FF0000"/>
<rect y="527" width="31" height="31" fill="black" fill-opacity="0.01"/>
<path d="M12.4215 544.264L13.3175 543.368H13.9095V549.48L13.4135 549.976L12.4215 549V548.776V547.512V544.264ZM13.4135 536.024L13.9095 536.52V542.632H13.3175L12.4215 541.736V541.288V538.488V537.224V537.016L13.4135 536.024ZM19.084 543.736L18.348 543L19.084 542.264H20.748H21.164L21.596 543.016L21.164 543.736H19.308H19.084ZM18.108 535.496L18.604 535H25.452L25.948 535.496L24.972 536.488H24.94H22.764H21.292H19.116H19.084L18.108 535.496ZM17.58 549.976L17.084 549.48V543.368H17.676L17.82 543.528L18.572 544.264V547.512V548.776V549L17.58 549.976ZM25.948 550.504L25.452 551H18.604L18.108 550.504L19.084 549.512H19.116H21.292H22.764H24.94H24.972L25.948 550.504ZM25.484 544.264L26.38 543.368H26.972V549.48L26.476 549.976L25.484 549V548.776V547.512V544.264ZM26.476 536.024L26.972 536.52V542.632H26.38L25.484 541.736V541.288V538.488V537.224V537.016L26.476 536.024ZM18.572 541.736L17.676 542.632H17.084V536.52L17.58 536.024L18.572 537V537.224V538.488V541.736ZM24.972 542.264L25.708 543L24.972 543.736H24.748H23.516H22.876L22.444 543.016L22.892 542.264H23.308H24.972Z" fill="#FF0000"/>
<rect y="558" width="31" height="31" fill="black" fill-opacity="0.01"/>
<path d="M12.4215 575.264L13.3175 574.368H13.9095V580.48L13.4135 580.976L12.4215 580V579.776V578.512V575.264ZM13.4135 567.024L13.9095 567.52V573.632H13.3175L12.4215 572.736V572.288V569.488V568.224V568.016L13.4135 567.024ZM19.084 574.736L18.348 574L19.084 573.264H20.748H21.164L21.596 574.016L21.164 574.736H19.308H19.084ZM18.108 566.496L18.604 566H25.452L25.948 566.496L24.972 567.488H24.94H22.764H21.292H19.116H19.084L18.108 566.496ZM25.948 581.504L25.452 582H18.604L18.108 581.504L19.084 580.512H19.116H21.292H22.764H24.94H24.972L25.948 581.504ZM25.484 575.264L26.38 574.368H26.972V580.48L26.476 580.976L25.484 580V579.776V578.512V575.264ZM26.476 567.024L26.972 567.52V573.632H26.38L25.484 572.736V572.288V569.488V568.224V568.016L26.476 567.024ZM18.572 572.736L17.676 573.632H17.084V567.52L17.58 567.024L18.572 568V568.224V569.488V572.736ZM24.972 573.264L25.708 574L24.972 574.736H24.748H23.516H22.876L22.444 574.016L22.892 573.264H23.308H24.972Z" fill="#FF0000"/>
<rect y="589" width="31" height="31" fill="black" fill-opacity="0.01"/>
<path d="M6.0215 605.736L5.2855 605L6.0215 604.264H7.6855H8.1015L8.5335 605.016L8.1015 605.736H6.2455H6.0215ZM5.0455 597.496L5.5415 597H12.3895L12.8855 597.496L11.9095 598.488H11.8775H9.7015H8.2295H6.0535H6.0215L5.0455 597.496ZM4.5175 611.976L4.0215 611.48V605.368H4.6135L4.7575 605.528L5.5095 606.264V609.512V610.776V611L4.5175 611.976ZM12.8855 612.504L12.3895 613H5.5415L5.0455 612.504L6.0215 611.512H6.0535H8.2295H9.7015H11.8775H11.9095L12.8855 612.504ZM13.4135 598.024L13.9095 598.52V604.632H13.3175L12.4215 603.736V603.288V600.488V599.224V599.016L13.4135 598.024ZM11.9095 604.264L12.6455 605L11.9095 605.736H11.6855H10.4535H9.8135L9.3815 605.016L9.8295 604.264H10.2455H11.9095ZM20.54 606.488V609.048L19.548 610.776H19.308V608.232L20.316 606.488H20.54ZM18.108 597.496L18.604 597H25.452L25.948 597.496L24.972 598.488H24.94H22.764H21.292H19.116H19.084L18.108 597.496ZM17.58 611.976L17.084 611.48V605.368H17.676L17.82 605.528L18.572 606.264V609.512V610.776V611L17.58 611.976ZM25.948 612.504L25.452 613H18.604L18.108 612.504L19.084 611.512H19.116H21.292H22.764H24.94H24.972L25.948 612.504ZM25.484 606.264L26.38 605.368H26.972V611.48L26.476 611.976L25.484 611V610.776V609.512V606.264ZM26.476 598.024L26.972 598.52V604.632H26.38L25.484 603.736V603.288V600.488V599.224V599.016L26.476 598.024ZM24.508 599.224H24.748V601.768L23.74 603.512H23.516V600.952L24.508 599.224ZM18.572 603.736L17.676 604.632H17.084V598.52L17.58 598.024L18.572 599V599.224V600.488V603.736Z" fill="#FF0000"/>
<rect y="620" width="31" height="31" fill="black" fill-opacity="0.01"/>
<path d="M6.0215 636.736L5.2855 636L6.0215 635.264H7.6855H8.1015L8.5335 636.016L8.1015 636.736H6.2455H6.0215ZM5.0455 628.496L5.5415 628H12.3895L12.8855 628.496L11.9095 629.488H11.8775H9.7015H8.2295H6.0535H6.0215L5.0455 628.496ZM4.5175 642.976L4.0215 642.48V636.368H4.6135L4.7575 636.528L5.5095 637.264V640.512V641.776V642L4.5175 642.976ZM12.8855 643.504L12.3895 644H5.5415L5.0455 643.504L6.0215 642.512H6.0535H8.2295H9.7015H11.8775H11.9095L12.8855 643.504ZM13.4135 629.024L13.9095 629.52V635.632H13.3175L12.4215 634.736V634.288V631.488V630.224V630.016L13.4135 629.024ZM11.9095 635.264L12.6455 636L11.9095 636.736H11.6855H10.4535H9.8135L9.3815 636.016L9.8295 635.264H10.2455H11.9095ZM25.484 637.264L26.38 636.368H26.972V642.48L26.476 642.976L25.484 642V641.776V640.512V637.264ZM26.476 629.024L26.972 629.52V635.632H26.38L25.484 634.736V634.288V631.488V630.224V630.016L26.476 629.024Z" fill="#FF0000"/>
<rect y="651" width="31" height="31" fill="black" fill-opacity="0.01"/>
<path d="M6.0215 667.736L5.2855 667L6.0215 666.264H7.6855H8.1015L8.5335 667.016L8.1015 667.736H6.2455H6.0215ZM5.0455 659.496L5.5415 659H12.3895L12.8855 659.496L11.9095 660.488H11.8775H9.7015H8.2295H6.0535H6.0215L5.0455 659.496ZM4.5175 673.976L4.0215 673.48V667.368H4.6135L4.7575 667.528L5.5095 668.264V671.512V672.776V673L4.5175 673.976ZM12.8855 674.504L12.3895 675H5.5415L5.0455 674.504L6.0215 673.512H6.0535H8.2295H9.7015H11.8775H11.9095L12.8855 674.504ZM13.4135 660.024L13.9095 660.52V666.632H13.3175L12.4215 665.736V665.288V662.488V661.224V661.016L13.4135 660.024ZM11.9095 666.264L12.6455 667L11.9095 667.736H11.6855H10.4535H9.8135L9.3815 667.016L9.8295 666.264H10.2455H11.9095ZM19.084 667.736L18.348 667L19.084 666.264H20.748H21.164L21.596 667.016L21.164 667.736H19.308H19.084ZM18.108 659.496L18.604 659H25.452L25.948 659.496L24.972 660.488H24.94H22.764H21.292H19.116H19.084L18.108 659.496ZM17.58 673.976L17.084 673.48V667.368H17.676L17.82 667.528L18.572 668.264V671.512V672.776V673L17.58 673.976ZM25.948 674.504L25.452 675H18.604L18.108 674.504L19.084 673.512H19.116H21.292H22.764H24.94H24.972L25.948 674.504ZM26.476 660.024L26.972 660.52V666.632H26.38L25.484 665.736V665.288V662.488V661.224V661.016L26.476 660.024ZM24.972 666.264L25.708 667L24.972 667.736H24.748H23.516H22.876L22.444 667.016L22.892 666.264H23.308H24.972Z" fill="#FF0000"/>
<rect y="682" width="31" height="31" fill="black" fill-opacity="0.01"/>
<path d="M6.0215 698.736L5.2855 698L6.0215 697.264H7.6855H8.1015L8.5335 698.016L8.1015 698.736H6.2455H6.0215ZM5.0455 690.496L5.5415 690H12.3895L12.8855 690.496L11.9095 691.488H11.8775H9.7015H8.2295H6.0535H6.0215L5.0455 690.496ZM4.5175 704.976L4.0215 704.48V698.368H4.6135L4.7575 698.528L5.5095 699.264V702.512V703.776V704L4.5175 704.976ZM12.8855 705.504L12.3895 706H5.5415L5.0455 705.504L6.0215 704.512H6.0535H8.2295H9.7015H11.8775H11.9095L12.8855 705.504ZM13.4135 691.024L13.9095 691.52V697.632H13.3175L12.4215 696.736V696.288V693.488V692.224V692.016L13.4135 691.024ZM11.9095 697.264L12.6455 698L11.9095 698.736H11.6855H10.4535H9.8135L9.3815 698.016L9.8295 697.264H10.2455H11.9095ZM19.084 698.736L18.348 698L19.084 697.264H20.748H21.164L21.596 698.016L21.164 698.736H19.308H19.084ZM18.108 690.496L18.604 690H25.452L25.948 690.496L24.972 691.488H24.94H22.764H21.292H19.116H19.084L18.108 690.496ZM25.948 705.504L25.452 706H18.604L18.108 705.504L19.084 704.512H19.116H21.292H22.764H24.94H24.972L25.948 705.504ZM25.484 699.264L26.38 698.368H26.972V704.48L26.476 704.976L25.484 704V703.776V702.512V699.264ZM26.476 691.024L26.972 691.52V697.632H26.38L25.484 696.736V696.288V693.488V692.224V692.016L26.476 691.024ZM24.972 697.264L25.708 698L24.972 698.736H24.748H23.516H22.876L22.444 698.016L22.892 697.264H23.308H24.972Z" fill="#FF0000"/>
<rect y="713" width="31" height="31" fill="black" fill-opacity="0.01"/>
<path d="M6.0215 729.736L5.2855 729L6.0215 728.264H7.6855H8.1015L8.5335 729.016L8.1015 729.736H6.2455H6.0215ZM5.0455 721.496L5.5415 721H12.3895L12.8855 721.496L11.9095 722.488H11.8775H9.7015H8.2295H6.0535H6.0215L5.0455 721.496ZM4.5175 735.976L4.0215 735.48V729.368H4.6135L4.7575 729.528L5.5095 730.264V733.512V734.776V735L4.5175 735.976ZM12.8855 736.504L12.3895 737H5.5415L5.0455 736.504L6.0215 735.512H6.0535H8.2295H9.7015H11.8775H11.9095L12.8855 736.504ZM13.4135 722.024L13.9095 722.52V728.632H13.3175L12.4215 727.736V727.288V724.488V723.224V723.016L13.4135 722.024ZM11.9095 728.264L12.6455 729L11.9095 729.736H11.6855H10.4535H9.8135L9.3815 729.016L9.8295 728.264H10.2455H11.9095ZM19.084 729.736L18.348 729L19.084 728.264H20.748H21.164L21.596 729.016L21.164 729.736H19.308H19.084ZM25.484 730.264L26.38 729.368H26.972V735.48L26.476 735.976L25.484 735V734.776V733.512V730.264ZM26.476 722.024L26.972 722.52V728.632H26.38L25.484 727.736V727.288V724.488V723.224V723.016L26.476 722.024ZM18.572 727.736L17.676 728.632H17.084V722.52L17.58 722.024L18.572 723V723.224V724.488V727.736ZM24.972 728.264L25.708 729L24.972 729.736H24.748H23.516H22.876L22.444 729.016L22.892 728.264H23.308H24.972Z" fill="#FF0000"/>
<rect y="744" width="31" height="31" fill="black" fill-opacity="0.01"/>
<path d="M6.0215 760.736L5.2855 760L6.0215 759.264H7.6855H8.1015L8.5335 760.016L8.1015 760.736H6.2455H6.0215ZM5.0455 752.496L5.5415 752H12.3895L12.8855 752.496L11.9095 753.488H11.8775H9.7015H8.2295H6.0535H6.0215L5.0455 752.496ZM4.5175 766.976L4.0215 766.48V760.368H4.6135L4.7575 760.528L5.5095 761.264V764.512V765.776V766L4.5175 766.976ZM12.8855 767.504L12.3895 768H5.5415L5.0455 767.504L6.0215 766.512H6.0535H8.2295H9.7015H11.8775H11.9095L12.8855 767.504ZM13.4135 753.024L13.9095 753.52V759.632H13.3175L12.4215 758.736V758.288V755.488V754.224V754.016L13.4135 753.024ZM11.9095 759.264L12.6455 760L11.9095 760.736H11.6855H10.4535H9.8135L9.3815 760.016L9.8295 759.264H10.2455H11.9095ZM19.084 760.736L18.348 760L19.084 759.264H20.748H21.164L21.596 760.016L21.164 760.736H19.308H19.084ZM18.108 752.496L18.604 752H25.452L25.948 752.496L24.972 753.488H24.94H22.764H21.292H19.116H19.084L18.108 752.496ZM25.948 767.504L25.452 768H18.604L18.108 767.504L19.084 766.512H19.116H21.292H22.764H24.94H24.972L25.948 767.504ZM25.484 761.264L26.38 760.368H26.972V766.48L26.476 766.976L25.484 766V765.776V764.512V761.264ZM18.572 758.736L17.676 759.632H17.084V753.52L17.58 753.024L18.572 754V754.224V755.488V758.736ZM24.972 759.264L25.708 760L24.972 760.736H24.748H23.516H22.876L22.444 760.016L22.892 759.264H23.308H24.972Z" fill="#FF0000"/>
<rect y="775" width="31" height="31" fill="black" fill-opacity="0.01"/>
<path d="M6.0215 791.736L5.2855 791L6.0215 790.264H7.6855H8.1015L8.5335 791.016L8.1015 791.736H6.2455H6.0215ZM5.0455 783.496L5.5415 783H12.3895L12.8855 783.496L11.9095 784.488H11.8775H9.7015H8.2295H6.0535H6.0215L5.0455 783.496ZM4.5175 797.976L4.0215 797.48V791.368H4.6135L4.7575 791.528L5.5095 792.264V795.512V796.776V797L4.5175 797.976ZM12.8855 798.504L12.3895 799H5.5415L5.0455 798.504L6.0215 797.512H6.0535H8.2295H9.7015H11.8775H11.9095L12.8855 798.504ZM13.4135 784.024L13.9095 784.52V790.632H13.3175L12.4215 789.736V789.288V786.488V785.224V785.016L13.4135 784.024ZM11.9095 790.264L12.6455 791L11.9095 791.736H11.6855H10.4535H9.8135L9.3815 791.016L9.8295 790.264H10.2455H11.9095ZM19.084 791.736L18.348 791L19.084 790.264H20.748H21.164L21.596 791.016L21.164 791.736H19.308H19.084ZM18.108 783.496L18.604 783H25.452L25.948 783.496L24.972 784.488H24.94H22.764H21.292H19.116H19.084L18.108 783.496ZM17.58 797.976L17.084 797.48V791.368H17.676L17.82 791.528L18.572 792.264V795.512V796.776V797L17.58 797.976ZM25.948 798.504L25.452 799H18.604L18.108 798.504L19.084 797.512H19.116H21.292H22.764H24.94H24.972L25.948 798.504ZM25.484 792.264L26.38 791.368H26.972V797.48L26.476 797.976L25.484 797V796.776V795.512V792.264ZM18.572 789.736L17.676 790.632H17.084V784.52L17.58 784.024L18.572 785V785.224V786.488V789.736ZM24.972 790.264L25.708 791L24.972 791.736H24.748H23.516H22.876L22.444 791.016L22.892 790.264H23.308H24.972Z" fill="#FF0000"/>
<rect y="806" width="31" height="31" fill="black" fill-opacity="0.01"/>
<path d="M6.0215 822.736L5.2855 822L6.0215 821.264H7.6855H8.1015L8.5335 822.016L8.1015 822.736H6.2455H6.0215ZM5.0455 814.496L5.5415 814H12.3895L12.8855 814.496L11.9095 815.488H11.8775H9.7015H8.2295H6.0535H6.0215L5.0455 814.496ZM4.5175 828.976L4.0215 828.48V822.368H4.6135L4.7575 822.528L5.5095 823.264V826.512V827.776V828L4.5175 828.976ZM12.8855 829.504L12.3895 830H5.5415L5.0455 829.504L6.0215 828.512H6.0535H8.2295H9.7015H11.8775H11.9095L12.8855 829.504ZM13.4135 815.024L13.9095 815.52V821.632H13.3175L12.4215 820.736V820.288V817.488V816.224V816.016L13.4135 815.024ZM11.9095 821.264L12.6455 822L11.9095 822.736H11.6855H10.4535H9.8135L9.3815 822.016L9.8295 821.264H10.2455H11.9095ZM18.108 814.496L18.604 814H25.452L25.948 814.496L24.972 815.488H24.94H22.764H21.292H19.116H19.084L18.108 814.496ZM25.484 823.264L26.38 822.368H26.972V828.48L26.476 828.976L25.484 828V827.776V826.512V823.264ZM26.476 815.024L26.972 815.52V821.632H26.38L25.484 820.736V820.288V817.488V816.224V816.016L26.476 815.024ZM18.572 820.736L17.676 821.632H17.084V815.52L17.58 815.024L18.572 816V816.224V817.488V820.736Z" fill="#FF0000"/>
<rect y="837" width="31" height="31" fill="black" fill-opacity="0.01"/>
<path d="M6.0215 853.736L5.2855 853L6.0215 852.264H7.6855H8.1015L8.5335 853.016L8.1015 853.736H6.2455H6.0215ZM5.0455 845.496L5.5415 845H12.3895L12.8855 845.496L11.9095 846.488H11.8775H9.7015H8.2295H6.0535H6.0215L5.0455 845.496ZM4.5175 859.976L4.0215 859.48V853.368H4.6135L4.7575 853.528L5.5095 854.264V857.512V858.776V859L4.5175 859.976ZM12.8855 860.504L12.3895 861H5.5415L5.0455 860.504L6.0215 859.512H6.0535H8.2295H9.7015H11.8775H11.9095L12.8855 860.504ZM13.4135 846.024L13.9095 846.52V852.632H13.3175L12.4215 851.736V851.288V848.488V847.224V847.016L13.4135 846.024ZM11.9095 852.264L12.6455 853L11.9095 853.736H11.6855H10.4535H9.8135L9.3815 853.016L9.8295 852.264H10.2455H11.9095ZM19.084 853.736L18.348 853L19.084 852.264H20.748H21.164L21.596 853.016L21.164 853.736H19.308H19.084ZM18.108 845.496L18.604 845H25.452L25.948 845.496L24.972 846.488H24.94H22.764H21.292H19.116H19.084L18.108 845.496ZM17.58 859.976L17.084 859.48V853.368H17.676L17.82 853.528L18.572 854.264V857.512V858.776V859L17.58 859.976ZM25.948 860.504L25.452 861H18.604L18.108 860.504L19.084 859.512H19.116H21.292H22.764H24.94H24.972L25.948 860.504ZM25.484 854.264L26.38 853.368H26.972V859.48L26.476 859.976L25.484 859V858.776V857.512V854.264ZM26.476 846.024L26.972 846.52V852.632H26.38L25.484 851.736V851.288V848.488V847.224V847.016L26.476 846.024ZM18.572 851.736L17.676 852.632H17.084V846.52L17.58 846.024L18.572 847V847.224V848.488V851.736ZM24.972 852.264L25.708 853L24.972 853.736H24.748H23.516H22.876L22.444 853.016L22.892 852.264H23.308H24.972Z" fill="#FF0000"/>
<rect y="868" width="31" height="31" fill="black" fill-opacity="0.01"/>
<path d="M6.0215 884.736L5.2855 884L6.0215 883.264H7.6855H8.1015L8.5335 884.016L8.1015 884.736H6.2455H6.0215ZM5.0455 876.496L5.5415 876H12.3895L12.8855 876.496L11.9095 877.488H11.8775H9.7015H8.2295H6.0535H6.0215L5.0455 876.496ZM4.5175 890.976L4.0215 890.48V884.368H4.6135L4.7575 884.528L5.5095 885.264V888.512V889.776V890L4.5175 890.976ZM12.8855 891.504L12.3895 892H5.5415L5.0455 891.504L6.0215 890.512H6.0535H8.2295H9.7015H11.8775H11.9095L12.8855 891.504ZM13.4135 877.024L13.9095 877.52V883.632H13.3175L12.4215 882.736V882.288V879.488V878.224V878.016L13.4135 877.024ZM11.9095 883.264L12.6455 884L11.9095 884.736H11.6855H10.4535H9.8135L9.3815 884.016L9.8295 883.264H10.2455H11.9095ZM19.084 884.736L18.348 884L19.084 883.264H20.748H21.164L21.596 884.016L21.164 884.736H19.308H19.084ZM18.108 876.496L18.604 876H25.452L25.948 876.496L24.972 877.488H24.94H22.764H21.292H19.116H19.084L18.108 876.496ZM25.948 891.504L25.452 892H18.604L18.108 891.504L19.084 890.512H19.116H21.292H22.764H24.94H24.972L25.948 891.504ZM25.484 885.264L26.38 884.368H26.972V890.48L26.476 890.976L25.484 890V889.776V888.512V885.264ZM26.476 877.024L26.972 877.52V883.632H26.38L25.484 882.736V882.288V879.488V878.224V878.016L26.476 877.024ZM18.572 882.736L17.676 883.632H17.084V877.52L17.58 877.024L18.572 878V878.224V879.488V882.736ZM24.972 883.264L25.708 884L24.972 884.736H24.748H23.516H22.876L22.444 884.016L22.892 883.264H23.308H24.972Z" fill="#FF0000"/>
<rect y="899" width="31" height="31" fill="black" fill-opacity="0.01"/>
<path d="M6.0215 915.736L5.2855 915L6.0215 914.264H7.6855H8.1015L8.5335 915.016L8.1015 915.736H6.2455H6.0215ZM5.0455 907.496L5.5415 907H12.3895L12.8855 907.496L11.9095 908.488H11.8775H9.7015H8.2295H6.0535H6.0215L5.0455 907.496ZM12.8855 922.504L12.3895 923H5.5415L5.0455 922.504L6.0215 921.512H6.0535H8.2295H9.7015H11.8775H11.9095L12.8855 922.504ZM12.4215 916.264L13.3175 915.368H13.9095V921.48L13.4135 921.976L12.4215 921V920.776V919.512V916.264ZM13.4135 908.024L13.9095 908.52V914.632H13.3175L12.4215 913.736V913.288V910.488V909.224V909.016L13.4135 908.024ZM11.9095 914.264L12.6455 915L11.9095 915.736H11.6855H10.4535H9.8135L9.3815 915.016L9.8295 914.264H10.2455H11.9095ZM20.54 916.488V919.048L19.548 920.776H19.308V918.232L20.316 916.488H20.54ZM18.108 907.496L18.604 907H25.452L25.948 907.496L24.972 908.488H24.94H22.764H21.292H19.116H19.084L18.108 907.496ZM17.58 921.976L17.084 921.48V915.368H17.676L17.82 915.528L18.572 916.264V919.512V920.776V921L17.58 921.976ZM25.948 922.504L25.452 923H18.604L18.108 922.504L19.084 921.512H19.116H21.292H22.764H24.94H24.972L25.948 922.504ZM25.484 916.264L26.38 915.368H26.972V921.48L26.476 921.976L25.484 921V920.776V919.512V916.264ZM26.476 908.024L26.972 908.52V914.632H26.38L25.484 913.736V913.288V910.488V909.224V909.016L26.476 908.024ZM24.508 909.224H24.748V911.768L23.74 913.512H23.516V910.952L24.508 909.224ZM18.572 913.736L17.676 914.632H17.084V908.52L17.58 908.024L18.572 909V909.224V910.488V913.736Z" fill="#FF0000"/>
<rect y="930" width="31" height="31" fill="black" fill-opacity="0.01"/>
<path d="M6.0215 946.736L5.2855 946L6.0215 945.264H7.6855H8.1015L8.5335 946.016L8.1015 946.736H6.2455H6.0215ZM5.0455 938.496L5.5415 938H12.3895L12.8855 938.496L11.9095 939.488H11.8775H9.7015H8.2295H6.0535H6.0215L5.0455 938.496ZM12.8855 953.504L12.3895 954H5.5415L5.0455 953.504L6.0215 952.512H6.0535H8.2295H9.7015H11.8775H11.9095L12.8855 953.504ZM12.4215 947.264L13.3175 946.368H13.9095V952.48L13.4135 952.976L12.4215 952V951.776V950.512V947.264ZM13.4135 939.024L13.9095 939.52V945.632H13.3175L12.4215 944.736V944.288V941.488V940.224V940.016L13.4135 939.024ZM11.9095 945.264L12.6455 946L11.9095 946.736H11.6855H10.4535H9.8135L9.3815 946.016L9.8295 945.264H10.2455H11.9095ZM25.484 947.264L26.38 946.368H26.972V952.48L26.476 952.976L25.484 952V951.776V950.512V947.264ZM26.476 939.024L26.972 939.52V945.632H26.38L25.484 944.736V944.288V941.488V940.224V940.016L26.476 939.024Z" fill="#FF0000"/>
<rect y="961" width="31" height="31" fill="black" fill-opacity="0.01"/>
<path d="M6.0215 977.736L5.2855 977L6.0215 976.264H7.6855H8.1015L8.5335 977.016L8.1015 977.736H6.2455H6.0215ZM5.0455 969.496L5.5415 969H12.3895L12.8855 969.496L11.9095 970.488H11.8775H9.7015H8.2295H6.0535H6.0215L5.0455 969.496ZM12.8855 984.504L12.3895 985H5.5415L5.0455 984.504L6.0215 983.512H6.0535H8.2295H9.7015H11.8775H11.9095L12.8855 984.504ZM12.4215 978.264L13.3175 977.368H13.9095V983.48L13.4135 983.976L12.4215 983V982.776V981.512V978.264ZM13.4135 970.024L13.9095 970.52V976.632H13.3175L12.4215 975.736V975.288V972.488V971.224V971.016L13.4135 970.024ZM11.9095 976.264L12.6455 977L11.9095 977.736H11.6855H10.4535H9.8135L9.3815 977.016L9.8295 976.264H10.2455H11.9095ZM19.084 977.736L18.348 977L19.084 976.264H20.748H21.164L21.596 977.016L21.164 977.736H19.308H19.084ZM18.108 969.496L18.604 969H25.452L25.948 969.496L24.972 970.488H24.94H22.764H21.292H19.116H19.084L18.108 969.496ZM17.58 983.976L17.084 983.48V977.368H17.676L17.82 977.528L18.572 978.264V981.512V982.776V983L17.58 983.976ZM25.948 984.504L25.452 985H18.604L18.108 984.504L19.084 983.512H19.116H21.292H22.764H24.94H24.972L25.948 984.504ZM26.476 970.024L26.972 970.52V976.632H26.38L25.484 975.736V975.288V972.488V971.224V971.016L26.476 970.024ZM24.972 976.264L25.708 977L24.972 977.736H24.748H23.516H22.876L22.444 977.016L22.892 976.264H23.308H24.972Z" fill="#FF0000"/>
</svg>
