<svg width="31" height="248" viewBox="0 0 31 248" fill="none" xmlns="http://www.w3.org/2000/svg">
<rect width="31" height="31" fill="black" fill-opacity="0.01"/>
<path d="M18.9528 17.264L19.8488 16.368H20.4408V22.48L19.9448 22.976L18.9528 22V21.776V20.512V17.264ZM19.9448 9.024L20.4408 9.52V15.632H19.8488L18.9528 14.736V14.288V11.488V10.224V10.016L19.9448 9.024Z" fill="#FF0000"/>
<rect y="31" width="31" height="31" fill="black" fill-opacity="0.01"/>
<path d="M12.5528 47.736L11.8168 47L12.5528 46.264H14.2168H14.6328L15.0648 47.016L14.6328 47.736H12.7768H12.5528ZM11.5768 39.496L12.0728 39H18.9208L19.4168 39.496L18.4408 40.488H18.4088H16.2328H14.7608H12.5848H12.5528L11.5768 39.496ZM11.0488 53.976L10.5528 53.48V47.368H11.1448L11.2888 47.528L12.0408 48.264V51.512V52.776V53L11.0488 53.976ZM19.4168 54.504L18.9208 55H12.0728L11.5768 54.504L12.5528 53.512H12.5848H14.7608H16.2328H18.4088H18.4408L19.4168 54.504ZM19.9448 40.024L20.4408 40.52V46.632H19.8488L18.9528 45.736V45.288V42.488V41.224V41.016L19.9448 40.024ZM18.4408 46.264L19.1768 47L18.4408 47.736H18.2168H16.9848H16.3448L15.9128 47.016L16.3608 46.264H16.7768H18.4408Z" fill="#FF0000"/>
<rect y="62" width="31" height="31" fill="black" fill-opacity="0.01"/>
<path d="M12.5528 78.736L11.8168 78L12.5528 77.264H14.2168H14.6328L15.0648 78.016L14.6328 78.736H12.7768H12.5528ZM11.5768 70.496L12.0728 70H18.9208L19.4168 70.496L18.4408 71.488H18.4088H16.2328H14.7608H12.5848H12.5528L11.5768 70.496ZM19.4168 85.504L18.9208 86H12.0728L11.5768 85.504L12.5528 84.512H12.5848H14.7608H16.2328H18.4088H18.4408L19.4168 85.504ZM18.9528 79.264L19.8488 78.368H20.4408V84.48L19.9448 84.976L18.9528 84V83.776V82.512V79.264ZM19.9448 71.024L20.4408 71.52V77.632H19.8488L18.9528 76.736V76.288V73.488V72.224V72.016L19.9448 71.024ZM18.4408 77.264L19.1768 78L18.4408 78.736H18.2168H16.9848H16.3448L15.9128 78.016L16.3608 77.264H16.7768H18.4408Z" fill="#FF0000"/>
<rect y="93" width="31" height="31" fill="black" fill-opacity="0.01"/>
<path d="M12.5528 109.736L11.8168 109L12.5528 108.264H14.2168H14.6328L15.0648 109.016L14.6328 109.736H12.7768H12.5528ZM18.9528 110.264L19.8488 109.368H20.4408V115.48L19.9448 115.976L18.9528 115V114.776V113.512V110.264ZM19.9448 102.024L20.4408 102.52V108.632H19.8488L18.9528 107.736V107.288V104.488V103.224V103.016L19.9448 102.024ZM12.0408 107.736L11.1448 108.632H10.5528V102.52L11.0488 102.024L12.0408 103V103.224V104.488V107.736ZM18.4408 108.264L19.1768 109L18.4408 109.736H18.2168H16.9848H16.3448L15.9128 109.016L16.3608 108.264H16.7768H18.4408Z" fill="#FF0000"/>
<rect y="124" width="31" height="31" fill="black" fill-opacity="0.01"/>
<path d="M12.5528 140.736L11.8168 140L12.5528 139.264H14.2168H14.6328L15.0648 140.016L14.6328 140.736H12.7768H12.5528ZM11.5768 132.496L12.0728 132H18.9208L19.4168 132.496L18.4408 133.488H18.4088H16.2328H14.7608H12.5848H12.5528L11.5768 132.496ZM19.4168 147.504L18.9208 148H12.0728L11.5768 147.504L12.5528 146.512H12.5848H14.7608H16.2328H18.4088H18.4408L19.4168 147.504ZM18.9528 141.264L19.8488 140.368H20.4408V146.48L19.9448 146.976L18.9528 146V145.776V144.512V141.264ZM12.0408 138.736L11.1448 139.632H10.5528V133.52L11.0488 133.024L12.0408 134V134.224V135.488V138.736ZM18.4408 139.264L19.1768 140L18.4408 140.736H18.2168H16.9848H16.3448L15.9128 140.016L16.3608 139.264H16.7768H18.4408Z" fill="#FF0000"/>
<rect y="155" width="31" height="31" fill="black" fill-opacity="0.01"/>
<path d="M12.5528 171.736L11.8168 171L12.5528 170.264H14.2168H14.6328L15.0648 171.016L14.6328 171.736H12.7768H12.5528ZM11.5768 163.496L12.0728 163H18.9208L19.4168 163.496L18.4408 164.488H18.4088H16.2328H14.7608H12.5848H12.5528L11.5768 163.496ZM11.0488 177.976L10.5528 177.48V171.368H11.1448L11.2888 171.528L12.0408 172.264V175.512V176.776V177L11.0488 177.976ZM19.4168 178.504L18.9208 179H12.0728L11.5768 178.504L12.5528 177.512H12.5848H14.7608H16.2328H18.4088H18.4408L19.4168 178.504ZM18.9528 172.264L19.8488 171.368H20.4408V177.48L19.9448 177.976L18.9528 177V176.776V175.512V172.264ZM12.0408 169.736L11.1448 170.632H10.5528V164.52L11.0488 164.024L12.0408 165V165.224V166.488V169.736ZM18.4408 170.264L19.1768 171L18.4408 171.736H18.2168H16.9848H16.3448L15.9128 171.016L16.3608 170.264H16.7768H18.4408Z" fill="#FF0000"/>
<rect y="186" width="31" height="31" fill="black" fill-opacity="0.01"/>
<path d="M11.5768 194.496L12.0728 194H18.9208L19.4168 194.496L18.4408 195.488H18.4088H16.2328H14.7608H12.5848H12.5528L11.5768 194.496ZM18.9528 203.264L19.8488 202.368H20.4408V208.48L19.9448 208.976L18.9528 208V207.776V206.512V203.264ZM19.9448 195.024L20.4408 195.52V201.632H19.8488L18.9528 200.736V200.288V197.488V196.224V196.016L19.9448 195.024ZM12.0408 200.736L11.1448 201.632H10.5528V195.52L11.0488 195.024L12.0408 196V196.224V197.488V200.736Z" fill="#FF0000"/>
<rect y="217" width="31" height="31" fill="black" fill-opacity="0.01"/>
<path d="M12.5528 233.736L11.8168 233L12.5528 232.264H14.2168H14.6328L15.0648 233.016L14.6328 233.736H12.7768H12.5528ZM11.5768 225.496L12.0728 225H18.9208L19.4168 225.496L18.4408 226.488H18.4088H16.2328H14.7608H12.5848H12.5528L11.5768 225.496ZM11.0488 239.976L10.5528 239.48V233.368H11.1448L11.2888 233.528L12.0408 234.264V237.512V238.776V239L11.0488 239.976ZM19.4168 240.504L18.9208 241H12.0728L11.5768 240.504L12.5528 239.512H12.5848H14.7608H16.2328H18.4088H18.4408L19.4168 240.504ZM18.9528 234.264L19.8488 233.368H20.4408V239.48L19.9448 239.976L18.9528 239V238.776V237.512V234.264ZM19.9448 226.024L20.4408 226.52V232.632H19.8488L18.9528 231.736V231.288V228.488V227.224V227.016L19.9448 226.024ZM12.0408 231.736L11.1448 232.632H10.5528V226.52L11.0488 226.024L12.0408 227V227.224V228.488V231.736ZM18.4408 232.264L19.1768 233L18.4408 233.736H18.2168H16.9848H16.3448L15.9128 233.016L16.3608 232.264H16.7768H18.4408Z" fill="#FF0000"/>
</svg>
