<svg width="11" height="44" viewBox="0 0 11 44" fill="none" xmlns="http://www.w3.org/2000/svg">
<rect x="0.5" y="0.5" width="10" height="43" stroke="black" stroke-opacity="0.01"/>
<rect x="1.5" y="1.5" width="8" height="8" rx="1.5" stroke="#191919"/>
<rect x="3.625" y="5.5" width="0.75" height="4.125" fill="#191919"/>
<rect x="6.625" y="5.5" width="0.75" height="4.125" fill="#191919"/>
<path d="M2.875 1.375H5.125V4.875C5.125 5.42728 4.67728 5.875 4.125 5.875H3.875C3.32272 5.875 2.875 5.42728 2.875 4.875V1.375Z" fill="#191919"/>
<path d="M5.875 1.375H8.125V4.875C8.125 5.42728 7.67728 5.875 7.125 5.875H6.875C6.32272 5.875 5.875 5.42728 5.875 4.875V1.375Z" fill="#191919"/>
<rect x="1.5" y="12.5" width="8" height="8" rx="1.5" stroke="#191919"/>
<rect x="3.625" y="16.5" width="0.75" height="4.125" fill="#191919"/>
<rect x="6.625" y="16.5" width="0.75" height="4.125" fill="#191919"/>
<path d="M2.875 12.375H5.125V15.875C5.125 16.4273 4.67728 16.875 4.125 16.875H3.875C3.32272 16.875 2.875 16.4273 2.875 15.875V12.375Z" fill="#191919"/>
<path d="M5.875 12.375H8.125V15.875C8.125 16.4273 7.67728 16.875 7.125 16.875H6.875C6.32272 16.875 5.875 16.4273 5.875 15.875V12.375Z" fill="#191919"/>
<rect x="1.5" y="23.5" width="8" height="8" rx="1.5" stroke="white"/>
<rect x="3.625" y="27.5" width="0.75" height="4.125" fill="white"/>
<rect x="6.625" y="27.5" width="0.75" height="4.125" fill="white"/>
<path d="M2.875 23.375H5.125V26.875C5.125 27.4273 4.67728 27.875 4.125 27.875H3.875C3.32272 27.875 2.875 27.4273 2.875 26.875V23.375Z" fill="white"/>
<path d="M5.875 23.375H8.125V26.875C8.125 27.4273 7.67728 27.875 7.125 27.875H6.875C6.32272 27.875 5.875 27.4273 5.875 26.875V23.375Z" fill="white"/>
<rect x="1.5" y="34.5" width="8" height="8" rx="1.5" stroke="white"/>
<rect x="3.625" y="38.5" width="0.75" height="4.125" fill="white"/>
<rect x="6.625" y="38.5" width="0.75" height="4.125" fill="white"/>
<path d="M2.875 34.375H5.125V37.875C5.125 38.4273 4.67728 38.875 4.125 38.875H3.875C3.32272 38.875 2.875 38.4273 2.875 37.875V34.375Z" fill="white"/>
<path d="M5.875 34.375H8.125V37.875C8.125 38.4273 7.67728 38.875 7.125 38.875H6.875C6.32272 38.875 5.875 38.4273 5.875 37.875V34.375Z" fill="white"/>
</svg>
