<svg width="252" height="72" viewBox="0 0 252 72" fill="none" xmlns="http://www.w3.org/2000/svg">
<path fill-rule="evenodd" clip-rule="evenodd" d="M18 39.2999C10.044 39.2999 3.60001 46.0124 3.60001 54.3C3.60001 60.9375 7.72201 66.5437 13.446 68.5312C14.166 68.6625 14.436 68.2125 14.436 67.8187C14.436 67.4625 14.418 66.2812 14.418 65.025C10.8 65.7187 9.86401 64.1062 9.57601 63.2625C9.41401 62.8312 8.71201 61.5 8.10001 61.1437C7.59601 60.8625 6.87601 60.1687 8.08201 60.15C9.21601 60.1312 10.026 61.2375 10.296 61.6875C11.592 63.9562 13.662 63.3187 14.49 62.925C14.616 61.95 14.994 61.2937 15.408 60.9187C12.204 60.5437 8.85601 59.25 8.85601 53.5125C8.85601 51.8812 9.41401 50.5311 10.332 49.4811C10.188 49.1062 9.68401 47.5686 10.476 45.5061C10.476 45.5061 11.682 45.1124 14.436 47.0437C15.588 46.7062 16.812 46.5374 18.036 46.5374C19.26 46.5374 20.484 46.7062 21.636 47.0437C24.39 45.0937 25.596 45.5061 25.596 45.5061C26.388 47.5686 25.884 49.1062 25.74 49.4811C26.658 50.5311 27.216 51.8625 27.216 53.5125C27.216 59.2687 23.85 60.5437 20.646 60.9187C21.168 61.3875 21.618 62.2875 21.618 63.6937C21.618 65.7 21.6 67.3125 21.6 67.8187C21.6 68.2125 21.87 68.6812 22.59 68.5312C28.278 66.5437 32.4 60.9187 32.4 54.3C32.4 46.0124 25.956 39.2999 18 39.2999Z" fill="#60C4FF"/>
<path fill-rule="evenodd" clip-rule="evenodd" d="M18 3.29993C10.044 3.29993 3.60001 10.0124 3.60001 18.3C3.60001 24.9375 7.72201 30.5437 13.446 32.5312C14.166 32.6625 14.436 32.2125 14.436 31.8187C14.436 31.4625 14.418 30.2812 14.418 29.025C10.8 29.7187 9.86401 28.1062 9.57601 27.2625C9.41401 26.8312 8.71201 25.5 8.10001 25.1437C7.59601 24.8625 6.87601 24.1687 8.08201 24.15C9.21601 24.1312 10.026 25.2375 10.296 25.6875C11.592 27.9562 13.662 27.3187 14.49 26.925C14.616 25.95 14.994 25.2937 15.408 24.9187C12.204 24.5437 8.85601 23.25 8.85601 17.5125C8.85601 15.8812 9.41401 14.5312 10.332 13.4811C10.188 13.1062 9.68401 11.5687 10.476 9.50618C10.476 9.50618 11.682 9.11243 14.436 11.0437C15.588 10.7062 16.812 10.5374 18.036 10.5374C19.26 10.5374 20.484 10.7062 21.636 11.0437C24.39 9.09368 25.596 9.50618 25.596 9.50618C26.388 11.5687 25.884 13.1062 25.74 13.4811C26.658 14.5312 27.216 15.8625 27.216 17.5125C27.216 23.2687 23.85 24.5437 20.646 24.9187C21.168 25.3875 21.618 26.2875 21.618 27.6937C21.618 29.7 21.6 31.3125 21.6 31.8187C21.6 32.2125 21.87 32.6812 22.59 32.5312C28.278 30.5437 32.4 24.9187 32.4 18.3C32.4 10.0124 25.956 3.29993 18 3.29993Z" fill="white"/>
<path fill-rule="evenodd" clip-rule="evenodd" d="M50.952 51.3002C50 51.3002 49.2483 52.111 49.2483 53.1002C49.2483 54.0895 50.0167 54.9002 50.952 54.9002C51.9041 54.9002 52.6558 54.0895 52.6558 53.1002C52.6725 52.111 51.9041 51.3002 50.952 51.3002ZM57.0487 51.3002C56.0965 51.3002 55.3449 52.111 55.3449 53.1002C55.3449 54.0895 56.1132 54.9002 57.0487 54.9002C58.0007 54.9002 58.7523 54.0895 58.7523 53.1002C58.7523 52.111 58.0007 51.3002 57.0487 51.3002Z" fill="#60C4FF"/>
<path fill-rule="evenodd" clip-rule="evenodd" d="M64.9162 36.9001H43.0841C41.2431 36.9001 39.7441 38.4733 39.7441 40.4227V63.5419C39.7441 65.4913 41.2431 67.0645 43.0841 67.0645H61.5598L60.6964 63.901L62.7818 65.9359L64.7532 67.8511L68.2561 71.1001V40.4227C68.2561 38.4733 66.7572 36.9001 64.9162 36.9001ZM58.6273 59.2327C58.6273 59.2327 58.0406 58.4974 57.5519 57.8476C59.6862 57.2149 60.5008 55.8127 60.5008 55.8127C59.8328 56.2744 59.1975 56.5993 58.6273 56.8216C57.8125 57.1807 57.0306 57.4201 56.2648 57.5569C54.7007 57.8647 53.267 57.7792 52.045 57.5398C51.1164 57.3517 50.318 57.0781 49.65 56.8045C49.2753 56.6506 48.868 56.4625 48.4607 56.2231C48.4118 56.1889 48.3629 56.1718 48.314 56.1376C48.2814 56.1205 48.2652 56.1034 48.2489 56.0863C47.9556 55.9153 47.7927 55.7956 47.7927 55.7956C47.7927 55.7956 48.5747 57.1636 50.6439 57.8134C50.1551 58.4632 49.5523 59.2327 49.5523 59.2327C45.9516 59.113 44.583 56.6335 44.583 56.6335C44.583 51.1273 46.9292 46.6642 46.9292 46.6642C49.2753 44.8174 51.5073 44.8687 51.5073 44.8687L51.6703 45.0739C48.7376 45.9631 47.3854 47.314 47.3854 47.314C47.3854 47.314 47.7438 47.1088 48.3466 46.8181C50.0899 46.0144 51.4748 45.7921 52.045 45.7408C52.1428 45.7237 52.2241 45.7066 52.3219 45.7066C53.3158 45.5698 54.44 45.5356 55.613 45.6724C57.1609 45.8605 58.8227 46.3393 60.5171 47.314C60.5171 47.314 59.23 46.0315 56.4603 45.1423L56.6884 44.8687C56.6884 44.8687 58.9204 44.8174 61.2666 46.6642C61.2666 46.6642 63.6127 51.1273 63.6127 56.6335C63.6127 56.6335 62.2278 59.113 58.6273 59.2327Z" fill="#60C4FF"/>
<path fill-rule="evenodd" clip-rule="evenodd" d="M50.9519 15.3002C49.9999 15.3002 49.2483 16.111 49.2483 17.1002C49.2483 18.0895 50.0166 18.9002 50.9519 18.9002C51.904 18.9002 52.6557 18.0895 52.6557 17.1002C52.6724 16.111 51.904 15.3002 50.9519 15.3002ZM57.0486 15.3002C56.0965 15.3002 55.3448 16.111 55.3448 17.1002C55.3448 18.0895 56.1132 18.9002 57.0486 18.9002C58.0006 18.9002 58.7522 18.0895 58.7522 17.1002C58.7522 16.111 58.0006 15.3002 57.0486 15.3002Z" fill="white"/>
<path fill-rule="evenodd" clip-rule="evenodd" d="M64.9162 0.900146H43.0841C41.2431 0.900146 39.7441 2.47335 39.7441 4.42275V27.5419C39.7441 29.4913 41.2431 31.0645 43.0841 31.0645H61.5598L60.6964 27.901L62.7818 29.9359L64.7532 31.8511L68.2561 35.1001V4.42275C68.2561 2.47335 66.7572 0.900146 64.9162 0.900146ZM58.6273 23.2327C58.6273 23.2327 58.0406 22.4974 57.5519 21.8476C59.6862 21.2149 60.5008 19.8127 60.5008 19.8127C59.8328 20.2744 59.1975 20.5993 58.6273 20.8216C57.8125 21.1807 57.0306 21.4201 56.2648 21.5569C54.7007 21.8647 53.267 21.7792 52.045 21.5398C51.1164 21.3517 50.318 21.0781 49.65 20.8045C49.2753 20.6506 48.868 20.4625 48.4607 20.2231C48.4118 20.1889 48.3629 20.1718 48.314 20.1376C48.2814 20.1205 48.2652 20.1034 48.2489 20.0863C47.9556 19.9153 47.7927 19.7956 47.7927 19.7956C47.7927 19.7956 48.5747 21.1636 50.6439 21.8134C50.1551 22.4632 49.5523 23.2327 49.5523 23.2327C45.9516 23.113 44.583 20.6335 44.583 20.6335C44.583 15.1273 46.9292 10.6642 46.9292 10.6642C49.2753 8.81745 51.5073 8.86875 51.5073 8.86875L51.6703 9.07395C48.7376 9.96315 47.3854 11.314 47.3854 11.314C47.3854 11.314 47.7438 11.1088 48.3466 10.8181C50.0899 10.0144 51.4748 9.79215 52.045 9.74085C52.1428 9.72375 52.2241 9.70665 52.3219 9.70665C53.3158 9.56985 54.44 9.53565 55.613 9.67245C57.1609 9.86055 58.8227 10.3393 60.5171 11.314C60.5171 11.314 59.23 10.0315 56.4603 9.14235L56.6884 8.86875C56.6884 8.86875 58.9204 8.81745 61.2666 10.6642C61.2666 10.6642 63.6127 15.1273 63.6127 20.6335C63.6127 20.6335 62.2278 23.113 58.6273 23.2327Z" fill="white"/>
<path fill-rule="evenodd" clip-rule="evenodd" d="M95.5027 37.2H104.394L90.6974 61.2421C89.9149 62.5819 89.1517 63.613 88.4081 64.3357C87.6635 65.0588 86.9761 65.584 86.3459 65.9125C85.7152 66.241 85.1731 66.4319 84.7188 66.4838C84.265 66.5366 83.9488 66.5627 83.7732 66.5627H75.6V45.7923H83.2435L83.2815 60.0595L95.5027 37.2Z" fill="#60C4FF"/>
<path fill-rule="evenodd" clip-rule="evenodd" d="M78.4655 69.2174C78.4778 69.1274 78.4627 69.0652 78.4197 69.0308H78.422C78.3823 68.9999 78.3251 68.9842 78.2502 68.9842H76.8292C76.7442 68.9842 76.6656 69.0037 76.593 69.0451C76.529 69.079 76.4888 69.1204 76.4723 69.1675L76.3219 69.5993H77.3704L77.2648 69.902H76.2159L75.8937 70.8247H75.6007L76.1803 69.1675C76.2278 69.0328 76.3265 68.9161 76.4764 68.8195C76.6218 68.7266 76.7753 68.6795 76.9353 68.6795H78.3562C78.507 68.6795 78.6186 68.7238 78.6926 68.809C78.7735 68.8961 78.7963 69.0328 78.7598 69.217L78.4655 69.2174Z" fill="#60C4FF"/>
<path fill-rule="evenodd" clip-rule="evenodd" d="M80.5635 69.7969C80.5694 69.7112 80.5443 69.6532 80.4899 69.6226C80.4693 69.6098 80.446 69.5998 80.4204 69.5945C80.3944 69.5903 80.3674 69.5875 80.3391 69.5875H79.6531C79.584 69.5875 79.5155 69.6017 79.4474 69.6298C79.3692 69.6602 79.3226 69.6998 79.3053 69.7469L78.9286 70.8253H78.6361L79.1741 69.2855H79.4671L79.4446 69.3499C79.5022 69.3269 79.5562 69.3109 79.6064 69.3008C79.6563 69.2908 79.7065 69.2855 79.7563 69.2855H80.4446C80.5753 69.2855 80.6819 69.3203 80.7646 69.3889C80.8642 69.4732 80.8934 69.6083 80.8532 69.7969H80.5635Z" fill="#60C4FF"/>
<path fill-rule="evenodd" clip-rule="evenodd" d="M83.1647 69.7426C83.1154 69.8854 83.0062 70.0021 82.8394 70.0934C82.7018 70.1692 82.5619 70.2058 82.4207 70.2058H81.7342C81.6885 70.2058 81.6469 70.2016 81.6067 70.1939C81.5674 70.1858 81.5194 70.1707 81.4632 70.1473L81.3914 70.3534L81.3896 70.3582C81.3796 70.4015 81.4033 70.4396 81.4623 70.4738C81.4874 70.4924 81.5139 70.5043 81.5409 70.5124C81.5688 70.52 81.5962 70.5229 81.6241 70.5229H82.3105C82.3384 70.5229 82.3677 70.52 82.3965 70.5158C82.4257 70.5106 82.4554 70.5014 82.4847 70.4887C82.5615 70.4572 82.6268 70.3991 82.6803 70.3139H82.9701C82.88 70.501 82.7562 70.6357 82.598 70.7195C82.4682 70.7896 82.3375 70.8253 82.2054 70.8253H81.5194C81.3873 70.8253 81.2767 70.789 81.1872 70.7171C81.0756 70.6267 81.045 70.5082 81.0971 70.361L81.3124 69.745C81.3636 69.5989 81.4696 69.4826 81.63 69.3961C81.7653 69.3227 81.9074 69.2855 82.0578 69.2855H82.7434C82.8878 69.2855 83.003 69.3208 83.0889 69.3917C83.1903 69.4784 83.2159 69.5945 83.1647 69.7426ZM82.8934 70.0086C82.9074 69.8855 82.8934 69.7786 82.8506 69.6839C82.805 69.5656 82.7389 69.5055 82.6524 69.5055H81.9563C81.8958 69.5055 81.8274 69.5505 81.7502 69.639C81.6692 69.7308 81.6208 69.8524 81.6041 70.0024C81.5878 70.1482 81.6083 70.2684 81.666 70.3645C81.7176 70.4592 81.7776 70.5055 81.8442 70.5055H82.5431C82.6259 70.5055 82.7045 70.4487 82.778 70.3347C82.8409 70.2414 82.8795 70.1331 82.8934 70.0086Z" fill="#60C4FF"/>
<path fill-rule="evenodd" clip-rule="evenodd" d="M85.464 69.7426C85.4147 69.8854 85.3059 70.0021 85.1391 70.0934C85.001 70.1692 84.8617 70.2058 84.7204 70.2058H84.034C83.9882 70.2058 83.9467 70.2016 83.9064 70.1939C83.8671 70.1858 83.8191 70.1707 83.7629 70.1473L83.6912 70.3534L83.6893 70.3582C83.6793 70.4015 83.703 70.4396 83.762 70.4738C83.7871 70.4924 83.8137 70.5043 83.8406 70.5124C83.8685 70.52 83.8959 70.5229 83.9238 70.5229H84.6103C84.6382 70.5229 84.6669 70.52 84.6962 70.5158C84.7254 70.5106 84.7552 70.5014 84.7849 70.4887C84.8612 70.4572 84.9266 70.3991 84.98 70.3139H85.2693C85.1797 70.501 85.0559 70.6357 84.8978 70.7195C84.768 70.7896 84.6377 70.8253 84.5056 70.8253H83.8191C83.6875 70.8253 83.5769 70.789 83.4869 70.7171C83.3753 70.6267 83.3452 70.5082 83.3968 70.361L83.6121 69.745C83.6628 69.5989 83.7693 69.4826 83.9297 69.3961C84.0655 69.3227 84.2072 69.2855 84.3571 69.2855H85.0431C85.1875 69.2855 85.3027 69.3208 85.3882 69.3917C85.4901 69.4784 85.5161 69.5945 85.464 69.7426ZM85.1939 70.0086C85.2074 69.8855 85.1934 69.7786 85.1511 69.6839C85.1055 69.5656 85.0394 69.5055 84.9528 69.5055H84.257C84.1961 69.5055 84.1272 69.5505 84.0504 69.639C83.9694 69.7308 83.921 69.8524 83.9043 70.0024C83.888 70.1482 83.9085 70.2684 83.9661 70.3645C84.0178 70.4592 84.0778 70.5055 84.1449 70.5055H84.8434C84.9263 70.5055 85.0045 70.4487 85.0785 70.3347C85.1408 70.2414 85.1795 70.1331 85.1939 70.0086Z" fill="#60C4FF"/>
<path fill-rule="evenodd" clip-rule="evenodd" d="M89.8823 70.6871C89.7425 70.7791 89.5913 70.8251 89.4295 70.8251H88.004C87.8545 70.8251 87.7425 70.7833 87.6685 70.7C87.588 70.61 87.5657 70.4719 87.6008 70.2872H87.8907C87.8806 70.3744 87.8966 70.4362 87.9382 70.4738H87.9355C87.9779 70.5062 88.036 70.5233 88.1096 70.5233H89.5354C89.6187 70.5233 89.6969 70.5029 89.7686 70.4624C89.8353 70.4267 89.876 70.3843 89.8929 70.3367L89.9788 70.091C89.9948 70.043 89.983 70.0016 89.9422 69.9659C89.8985 69.925 89.8344 69.9044 89.7494 69.9044H88.3257C88.1657 69.9044 88.0456 69.8582 87.9666 69.7664C87.8819 69.6716 87.8632 69.554 87.913 69.4136L87.999 69.1675C88.0465 69.0328 88.1453 68.9161 88.2952 68.8195C88.4405 68.7266 88.5931 68.6795 88.7535 68.6795H90.1794C90.3289 68.6795 90.4399 68.7238 90.5131 68.809C90.5944 68.8961 90.6173 69.0328 90.5807 69.217H90.2906C90.3001 69.1298 90.2841 69.0674 90.2425 69.0304H90.2448C90.2059 68.9995 90.1479 68.9837 90.073 68.9837H88.647C88.562 68.9837 88.4825 69.0032 88.4089 69.0446C88.3444 69.0784 88.3042 69.1199 88.2883 69.167L88.2023 69.4132C88.185 69.4627 88.196 69.5045 88.2353 69.5407C88.2792 69.5816 88.3444 69.6022 88.4308 69.6022H89.8569C90.0186 69.6022 90.1379 69.6484 90.2137 69.7397C90.2978 69.8368 90.3161 69.953 90.2677 70.0906L90.1817 70.3363C90.1338 70.4753 90.0337 70.5934 89.8823 70.6871Z" fill="#60C4FF"/>
<path fill-rule="evenodd" clip-rule="evenodd" d="M92.149 70.7128C92.0128 70.7875 91.873 70.8251 91.7304 70.8251H91.044C90.9042 70.8251 90.7907 70.7879 90.7039 70.7152C90.5983 70.6247 90.5709 70.5067 90.6216 70.3615L90.8369 69.7454C90.8867 69.6025 90.9955 69.4859 91.1628 69.394C91.3003 69.3188 91.4411 69.2812 91.5837 69.2812H92.2697C92.4045 69.2812 92.5161 69.3164 92.6029 69.3874C92.7127 69.4787 92.7423 69.5968 92.6906 69.743L92.4745 70.3619C92.4251 70.5038 92.3164 70.6208 92.149 70.7128ZM92.3982 69.753C92.4141 69.7037 92.3935 69.6631 92.3374 69.63C92.2894 69.6001 92.2313 69.5858 92.1631 69.5858H91.4773C91.4082 69.5858 91.3406 69.5991 91.2752 69.6276C91.1947 69.662 91.1468 69.7037 91.1308 69.753L90.9137 70.4156C90.8977 70.4649 90.9178 70.5055 90.9744 70.5386C91.0253 70.57 91.0833 70.5858 91.1477 70.5858H91.836C91.8671 70.5858 91.8995 70.5821 91.9338 70.5751C91.9672 70.5674 92.0019 70.5573 92.0366 70.5417C92.1175 70.5066 92.1655 70.4639 92.1824 70.4132L92.3982 69.753Z" fill="#60C4FF"/>
<path fill-rule="evenodd" clip-rule="evenodd" d="M93.5433 69.5876L93.0761 70.8254H92.759L93.3954 69.1415C93.4503 68.9977 93.5526 68.8816 93.703 68.7949C93.8355 68.7197 94.0007 68.6821 94.199 68.6821L94.0867 68.9797C93.9621 68.9977 93.8722 69.02 93.8153 69.0476C93.7594 69.0763 93.7248 69.1072 93.7119 69.1415L93.657 69.2857H93.9734L93.8592 69.5881L93.5433 69.5876Z" fill="#60C4FF"/>
<path fill-rule="evenodd" clip-rule="evenodd" d="M95.0132 69.5881L94.4592 70.8259H94.0824L94.6358 69.5881H94.2644L94.399 69.2858H94.7704L95.0414 68.6803H95.4188L95.1478 69.2858H95.5224L95.3871 69.5881H95.0132Z" fill="#60C4FF"/>
<path fill-rule="evenodd" clip-rule="evenodd" d="M97.0401 70.7072C96.9163 70.7839 96.7761 70.823 96.6207 70.823C96.5356 70.823 96.4565 70.8106 96.3835 70.7858C96.3099 70.7611 96.2481 70.7225 96.1975 70.6706C96.1092 70.721 96.0178 70.7602 95.925 70.7858C95.8318 70.8125 95.7431 70.8253 95.6582 70.8253C95.5083 70.8253 95.3967 70.7878 95.3227 70.7129C95.2404 70.6268 95.2257 70.5101 95.2779 70.3616L95.6536 69.2857H95.9456L95.5695 70.364C95.5539 70.4102 95.5667 70.4473 95.6101 70.4768C95.6576 70.5077 95.7234 70.5235 95.8085 70.5235C95.8949 70.5235 95.9707 70.5083 96.037 70.4768C96.1014 70.4488 96.1422 70.4102 96.1594 70.3616L96.3917 69.6985H96.6837L96.4515 70.3636C96.4346 70.4111 96.4487 70.4477 96.4931 70.4735C96.5406 70.5044 96.6041 70.5202 96.6865 70.5202C96.7742 70.5202 96.8515 70.5049 96.9173 70.4735C96.9825 70.4459 97.0219 70.4092 97.0384 70.3636L97.415 69.2852H97.7097L97.3341 70.3612C97.2834 70.5055 97.185 70.6211 97.0401 70.7072Z" fill="#60C4FF"/>
<path fill-rule="evenodd" clip-rule="evenodd" d="M99.2422 70.7152C99.1047 70.7879 98.963 70.8251 98.8171 70.8251H98.1307C97.9835 70.8251 97.8666 70.789 97.7825 70.717C97.6797 70.6309 97.6545 70.5148 97.7066 70.3657C97.7568 70.2214 97.8651 70.1053 98.0315 70.0172C98.1691 69.9419 98.3094 69.9049 98.4525 69.9049H99.1385C99.1823 69.9049 99.2243 69.9091 99.2632 69.9167C99.3034 69.9253 99.3505 69.941 99.4068 69.9638L99.4799 69.7549C99.4895 69.7106 99.4657 69.6716 99.4104 69.6377C99.3606 69.6049 99.3066 69.5882 99.2485 69.5882H98.5627C98.5329 69.5882 98.5032 69.5911 98.4744 69.5954C98.4456 69.6007 98.4154 69.6101 98.3857 69.6235C98.3094 69.6539 98.2436 69.7126 98.191 69.7978H97.9008C97.9927 69.6106 98.1161 69.4759 98.2715 69.392C98.4008 69.3217 98.5324 69.286 98.6659 69.286H99.3542C99.489 69.286 99.6005 69.3212 99.6873 69.392C99.7979 69.4807 99.8277 69.5992 99.7747 69.7477L99.5599 70.3643C99.5092 70.5095 99.4026 70.6261 99.2422 70.7152ZM99.2888 70.6102C99.3046 70.4664 99.2842 70.3449 99.2265 70.2469C99.1745 70.1538 99.1164 70.106 99.0507 70.106H98.3525C98.2716 70.106 98.1926 70.1646 98.1154 70.2772C98.0522 70.3699 98.0136 70.4797 97.9996 70.6027C97.9852 70.7304 97.9983 70.8416 98.0387 70.9362C98.087 71.0487 98.1531 71.106 98.2382 71.106H98.9382C99.0066 71.106 99.0745 71.0653 99.1414 70.9825C99.2237 70.8789 99.2725 70.7545 99.2888 70.6102Z" fill="#60C4FF"/>
<path fill-rule="evenodd" clip-rule="evenodd" d="M101.773 69.7969C101.779 69.7112 101.754 69.6532 101.699 69.6226C101.679 69.6098 101.655 69.5998 101.63 69.5945C101.604 69.5903 101.577 69.5875 101.549 69.5875H100.863C100.794 69.5875 100.725 69.6017 100.658 69.6298C100.579 69.6602 100.532 69.6998 100.514 69.7469L100.139 70.8253H99.8458L100.383 69.2855H100.676L100.654 69.3499C100.712 69.3269 100.766 69.3109 100.816 69.3008C100.865 69.2908 100.915 69.2855 100.966 69.2855H101.654C101.785 69.2855 101.891 69.3203 101.974 69.3889C102.074 69.4732 102.102 69.6083 102.062 69.7969H101.773Z" fill="#60C4FF"/>
<path fill-rule="evenodd" clip-rule="evenodd" d="M104.374 69.7426C104.325 69.8854 104.216 70.0021 104.049 70.0934C103.911 70.1692 103.771 70.2058 103.63 70.2058H102.944C102.898 70.2058 102.856 70.2016 102.817 70.1939C102.777 70.1858 102.729 70.1707 102.673 70.1473L102.601 70.3534L102.599 70.3582C102.589 70.4015 102.613 70.4396 102.671 70.4738C102.697 70.4924 102.723 70.5043 102.751 70.5124C102.778 70.52 102.805 70.5229 102.834 70.5229H103.52C103.548 70.5229 103.577 70.52 103.606 70.5158C103.635 70.5106 103.665 70.5014 103.694 70.4887C103.771 70.4572 103.836 70.3991 103.889 70.3139H104.179C104.089 70.501 103.965 70.6357 103.807 70.7195C103.677 70.7896 103.547 70.8253 103.414 70.8253H102.728C102.597 70.8253 102.486 70.789 102.396 70.7171C102.284 70.6267 102.255 70.5082 102.306 70.361L102.522 69.745C102.572 69.5989 102.678 69.4826 102.839 69.3961C102.974 69.3227 103.117 69.2855 103.266 69.2855H103.953C104.096 69.2855 104.212 69.3208 104.297 69.3917C104.4 69.4784 104.426 69.5945 104.374 69.7426ZM104.103 70.0086C104.117 69.8855 104.103 69.7786 104.061 69.6839C104.015 69.5656 103.949 69.5055 103.862 69.5055H103.167C103.106 69.5055 103.037 69.5505 102.96 69.639C102.879 69.7308 102.831 69.8524 102.814 70.0024C102.797 70.1482 102.818 70.2684 102.876 70.3645C102.928 70.4592 102.987 70.5055 103.055 70.5055H103.753C103.836 70.5055 103.914 70.4487 103.988 70.3347C104.051 70.2414 104.089 70.1331 104.103 70.0086Z" fill="#60C4FF"/>
<path fill-rule="evenodd" clip-rule="evenodd" d="M104.394 65.0236C104.394 65.4622 104.209 65.8306 103.837 66.1295C103.496 66.4181 103.069 66.5629 102.559 66.5629H98.0667C97.5964 66.5629 97.1974 66.4315 96.8706 66.1681C96.5187 65.8844 96.2965 65.4517 96.2021 64.8689H97.116C97.1805 65.1422 97.2989 65.3378 97.4721 65.4569H97.4648C97.6326 65.5601 97.8336 65.6111 98.0663 65.6111H102.559C102.816 65.6111 103.039 65.5492 103.228 65.4254C103.396 65.3122 103.48 65.1779 103.48 65.0231V64.2496C103.48 64.1048 103.396 63.9763 103.228 63.8624C103.029 63.7288 102.804 63.6616 102.552 63.6616H100.16V62.71H102.559C102.821 62.71 103.045 62.6456 103.228 62.5166C103.396 62.4038 103.48 62.2714 103.48 62.1224V61.3487C103.48 61.2041 103.396 61.075 103.228 60.9617C103.029 60.8275 102.804 60.7603 102.552 60.7603H98.0663C97.8382 60.7603 97.6399 60.8117 97.4717 60.9151H97.4793C97.3012 61.0237 97.1801 61.2193 97.1156 61.5031H96.2015C96.2906 60.9151 96.5086 60.4867 96.8555 60.2186C97.1823 59.9453 97.5859 59.8091 98.0663 59.8091H102.559C103.059 59.8091 103.485 59.9534 103.836 60.2419C104.208 60.5465 104.394 60.9151 104.394 61.3483C104.394 61.7249 104.379 62.0677 104.349 62.3767C104.339 62.5313 104.29 62.6737 104.201 62.8027C104.161 62.8594 104.115 62.9185 104.063 62.9807C104.012 63.0427 103.948 63.1099 103.874 63.1817C104.017 63.3212 104.127 63.4498 104.201 63.5687C104.285 63.7135 104.335 63.8525 104.349 63.9868C104.38 64.2914 104.394 64.6366 104.394 65.0236Z" fill="#60C4FF"/>
<path fill-rule="evenodd" clip-rule="evenodd" d="M80.8703 61.1758L80.2396 61.5866V63.9604L80.8703 64.3789V64.9001C80.6143 64.7359 80.3548 64.5694 80.0915 64.3988C79.8291 64.2293 79.57 64.0622 79.3168 63.898C79.0632 63.7343 78.8177 63.5747 78.581 63.421C78.3442 63.2672 78.1208 63.1216 77.9119 62.9845C77.8315 62.9453 77.7917 62.8763 77.7917 62.7788C77.7917 62.6888 77.8315 62.6212 77.9119 62.5769L80.8708 60.6506L80.8703 61.1758ZM79.9081 63.6785V61.8766L78.5366 62.7022C78.4913 62.7292 78.4681 62.7535 78.4681 62.7754C78.4681 62.8001 78.4913 62.8244 78.5366 62.8487L79.9081 63.6785Z" fill="#60C4FF"/>
<path fill-rule="evenodd" clip-rule="evenodd" d="M80.6694 56.545C80.8033 56.7211 80.87 56.9339 80.87 57.1838V59.3996C80.87 59.6515 80.8042 59.8624 80.6726 60.0308C80.5364 60.2117 80.3687 60.3022 80.1685 60.3022H78.4921C78.2969 60.3022 78.1306 60.2117 77.9916 60.0308C77.8577 59.8547 77.791 59.6419 77.791 59.3924V57.1724C77.791 56.9401 77.8531 56.743 77.9779 56.5816C78.1018 56.4131 78.2983 56.3041 78.5661 56.255V56.7064C78.4368 56.7377 78.3467 56.7977 78.2946 56.8859C78.2499 56.9615 78.2279 57.0581 78.2279 57.1757V59.392C78.2279 59.5238 78.2571 59.6366 78.3157 59.7295C78.365 59.81 78.4235 59.8504 78.4921 59.8504H80.1685C80.2389 59.8504 80.3001 59.81 80.3513 59.7295L80.3481 59.7334C80.4066 59.6428 80.4359 59.531 80.4359 59.399V57.1834C80.4359 57.0682 80.4126 56.9654 80.3655 56.8754C80.3166 56.7673 80.2494 56.7136 80.1648 56.7136H79.5483V58.5083H79.115V56.266H80.1685C80.3641 56.266 80.5305 56.3593 80.6694 56.545Z" fill="#60C4FF"/>
<path fill-rule="evenodd" clip-rule="evenodd" d="M79.3488 51.8078C79.48 51.9763 79.5463 52.1887 79.5463 52.4429V55.1176H80.8703V55.5688H78.4928C78.2976 55.5688 78.1312 55.4783 77.9923 55.2974C77.8584 55.1213 77.7917 54.9085 77.7917 54.659V52.4429C77.7917 52.1959 77.8584 51.9854 77.9923 51.8116C78.1312 51.6283 78.2976 51.5365 78.4928 51.5365H78.8447C79.0444 51.5365 79.2126 51.6269 79.3488 51.8078ZM78.6592 51.9839C78.5512 51.9839 78.4566 52.0258 78.3717 52.1092C78.2763 52.202 78.2286 52.3135 78.2286 52.4429V54.6623C78.2286 54.7753 78.2651 54.8767 78.3374 54.9671C78.4104 55.0675 78.5169 55.1176 78.6592 55.1176H79.6686V52.4429C79.6686 52.3135 79.6232 52.202 79.5308 52.1092C79.4473 52.0258 79.3468 51.9839 79.2321 51.9839H78.6592Z" fill="#60C4FF"/>
<path fill-rule="evenodd" clip-rule="evenodd" d="M80.1837 46.8068C80.3925 46.844 80.5603 46.9463 80.6873 47.1153C80.8098 47.2791 80.8706 47.4771 80.8706 47.7095V49.9294C80.8706 50.1784 80.8048 50.3907 80.6731 50.564C80.5369 50.7478 80.3692 50.8392 80.169 50.8392H77.7952V50.3808H80.169C80.2394 50.3808 80.3006 50.3403 80.3518 50.2594L80.3486 50.2632C80.4071 50.1727 80.4364 50.0613 80.4364 49.9294V47.7095C80.4364 47.5971 80.4131 47.4995 80.366 47.4162V47.4195C80.3144 47.3315 80.2262 47.2715 80.1018 47.24V46.8801L80.1837 46.8068Z" fill="#60C4FF"/>
<path fill-rule="evenodd" clip-rule="evenodd" d="M95.5027 1.20001H104.394L90.6974 25.2421C89.9149 26.5819 89.1517 27.613 88.4081 28.3357C87.6635 29.0588 86.9761 29.584 86.3459 29.9125C85.7152 30.241 85.1731 30.4319 84.7188 30.4838C84.265 30.5366 83.9488 30.5627 83.7732 30.5627H75.6V9.79233H83.2435L83.2815 24.0595L95.5027 1.20001Z" fill="#EEEEEE"/>
<path fill-rule="evenodd" clip-rule="evenodd" d="M78.4655 33.2174C78.4778 33.1274 78.4627 33.0652 78.4197 33.0308H78.422C78.3823 32.9999 78.3251 32.9842 78.2502 32.9842H76.8292C76.7442 32.9842 76.6656 33.0037 76.593 33.0451C76.529 33.079 76.4888 33.1204 76.4723 33.1675L76.3219 33.5993H77.3704L77.2648 33.902H76.2159L75.8937 34.8247H75.6007L76.1803 33.1675C76.2278 33.0328 76.3265 32.9161 76.4764 32.8195C76.6218 32.7266 76.7753 32.6795 76.9353 32.6795H78.3562C78.507 32.6795 78.6186 32.7238 78.6926 32.809C78.7735 32.8961 78.7963 33.0328 78.7598 33.217L78.4655 33.2174Z" fill="#EEEEEE"/>
<path fill-rule="evenodd" clip-rule="evenodd" d="M80.5635 33.7969C80.5694 33.7112 80.5443 33.6532 80.4899 33.6226C80.4693 33.6098 80.446 33.5998 80.4204 33.5945C80.3944 33.5903 80.3674 33.5875 80.3391 33.5875H79.6531C79.584 33.5875 79.5155 33.6017 79.4474 33.6298C79.3692 33.6602 79.3226 33.6998 79.3053 33.7469L78.9286 34.8253H78.6361L79.1741 33.2855H79.4671L79.4446 33.3499C79.5022 33.3269 79.5562 33.3109 79.6064 33.3008C79.6563 33.2908 79.7065 33.2855 79.7563 33.2855H80.4446C80.5753 33.2855 80.6819 33.3203 80.7646 33.3889C80.8642 33.4732 80.8934 33.6083 80.8532 33.7969H80.5635Z" fill="#EEEEEE"/>
<path fill-rule="evenodd" clip-rule="evenodd" d="M83.1647 33.7426C83.1154 33.8854 83.0062 34.0021 82.8394 34.0934C82.7018 34.1692 82.5619 34.2058 82.4207 34.2058H81.7342C81.6885 34.2058 81.6469 34.2016 81.6067 34.1939C81.5674 34.1858 81.5194 34.1707 81.4632 34.1473L81.3914 34.3534L81.3896 34.3582C81.3796 34.4015 81.4033 34.4396 81.4623 34.4738C81.4874 34.4924 81.5139 34.5043 81.5409 34.5124C81.5688 34.52 81.5962 34.5229 81.6241 34.5229H82.3105C82.3384 34.5229 82.3677 34.52 82.3965 34.5158C82.4257 34.5106 82.4554 34.5014 82.4847 34.4887C82.5615 34.4572 82.6268 34.3991 82.6803 34.3139H82.9701C82.88 34.501 82.7562 34.6357 82.598 34.7195C82.4682 34.7896 82.3375 34.8253 82.2054 34.8253H81.5194C81.3873 34.8253 81.2767 34.789 81.1872 34.7171C81.0756 34.6267 81.045 34.5082 81.0971 34.361L81.3124 33.745C81.3636 33.5989 81.4696 33.4826 81.63 33.3961C81.7653 33.3227 81.9074 33.2855 82.0578 33.2855H82.7434C82.8878 33.2855 83.003 33.3208 83.0889 33.3917C83.1903 33.4784 83.2159 33.5945 83.1647 33.7426ZM82.8934 34.0086C82.9074 33.8856 82.8934 33.7786 82.8506 33.684C82.805 33.5656 82.7389 33.5055 82.6524 33.5055H81.9563C81.8958 33.5055 81.8274 33.5505 81.7502 33.639C81.6692 33.7308 81.6208 33.8524 81.6041 34.0024C81.5878 34.1482 81.6083 34.2684 81.666 34.3645C81.7176 34.4592 81.7776 34.5055 81.8442 34.5055H82.5431C82.6259 34.5055 82.7045 34.4487 82.778 34.3347C82.8409 34.2414 82.8795 34.1331 82.8934 34.0086Z" fill="#EEEEEE"/>
<path fill-rule="evenodd" clip-rule="evenodd" d="M85.464 33.7426C85.4147 33.8854 85.3059 34.0021 85.1391 34.0934C85.001 34.1692 84.8617 34.2058 84.7204 34.2058H84.034C83.9882 34.2058 83.9467 34.2016 83.9064 34.1939C83.8671 34.1858 83.8191 34.1707 83.7629 34.1473L83.6912 34.3534L83.6893 34.3582C83.6793 34.4015 83.703 34.4396 83.762 34.4738C83.7871 34.4924 83.8137 34.5043 83.8406 34.5124C83.8685 34.52 83.8959 34.5229 83.9238 34.5229H84.6103C84.6382 34.5229 84.6669 34.52 84.6962 34.5158C84.7254 34.5106 84.7552 34.5014 84.7849 34.4887C84.8612 34.4572 84.9266 34.3991 84.98 34.3139H85.2693C85.1797 34.501 85.0559 34.6357 84.8978 34.7195C84.768 34.7896 84.6377 34.8253 84.5056 34.8253H83.8191C83.6875 34.8253 83.5769 34.789 83.4869 34.7171C83.3753 34.6267 83.3452 34.5082 83.3968 34.361L83.6121 33.745C83.6628 33.5989 83.7693 33.4826 83.9297 33.3961C84.0655 33.3227 84.2072 33.2855 84.3571 33.2855H85.0431C85.1875 33.2855 85.3027 33.3208 85.3882 33.3917C85.4901 33.4784 85.5161 33.5945 85.464 33.7426ZM85.1939 34.0086C85.2074 33.8856 85.1934 33.7786 85.1511 33.684C85.1055 33.5656 85.0394 33.5055 84.9528 33.5055H84.257C84.1961 33.5055 84.1272 33.5505 84.0504 33.639C83.9694 33.7308 83.921 33.8524 83.9043 34.0024C83.888 34.1482 83.9085 34.2684 83.9661 34.3645C84.0178 34.4592 84.0778 34.5055 84.1449 34.5055H84.8434C84.9263 34.5055 85.0045 34.4487 85.0785 34.3347C85.1408 34.2414 85.1795 34.1331 85.1939 34.0086Z" fill="#EEEEEE"/>
<path fill-rule="evenodd" clip-rule="evenodd" d="M89.8823 34.6871C89.7425 34.7791 89.5913 34.8251 89.4295 34.8251H88.004C87.8545 34.8251 87.7425 34.7833 87.6685 34.7C87.588 34.61 87.5657 34.4719 87.6008 34.2872H87.8907C87.8806 34.3744 87.8966 34.4362 87.9382 34.4738H87.9355C87.9779 34.5062 88.036 34.5233 88.1096 34.5233H89.5354C89.6187 34.5233 89.6969 34.5029 89.7686 34.4624C89.8353 34.4267 89.876 34.3843 89.8929 34.3367L89.9788 34.091C89.9948 34.043 89.983 34.0016 89.9422 33.9659C89.8985 33.925 89.8344 33.9044 89.7494 33.9044H88.3257C88.1657 33.9044 88.0456 33.8582 87.9666 33.7664C87.8819 33.6716 87.8632 33.554 87.913 33.4136L87.999 33.1675C88.0465 33.0328 88.1453 32.9161 88.2952 32.8195C88.4405 32.7266 88.5931 32.6795 88.7535 32.6795H90.1794C90.3289 32.6795 90.4399 32.7238 90.5131 32.809C90.5944 32.8961 90.6173 33.0328 90.5807 33.217H90.2906C90.3001 33.1298 90.2841 33.0674 90.2425 33.0304H90.2448C90.2059 32.9995 90.1479 32.9837 90.073 32.9837H88.647C88.562 32.9837 88.4825 33.0032 88.4089 33.0446C88.3444 33.0784 88.3042 33.1199 88.2883 33.167L88.2023 33.4132C88.185 33.4627 88.196 33.5045 88.2353 33.5407C88.2792 33.5816 88.3444 33.6022 88.4308 33.6022H89.8569C90.0186 33.6022 90.1379 33.6484 90.2137 33.7397C90.2978 33.8368 90.3161 33.953 90.2677 34.0906L90.1817 34.3363C90.1338 34.4753 90.0337 34.5934 89.8823 34.6871Z" fill="#EEEEEE"/>
<path fill-rule="evenodd" clip-rule="evenodd" d="M92.149 34.7128C92.0128 34.7875 91.873 34.8251 91.7304 34.8251H91.044C90.9042 34.8251 90.7907 34.7879 90.7039 34.7152C90.5983 34.6247 90.5709 34.5067 90.6216 34.3615L90.8369 33.7454C90.8867 33.6025 90.9955 33.4859 91.1628 33.394C91.3003 33.3188 91.4411 33.2812 91.5837 33.2812H92.2697C92.4045 33.2812 92.5161 33.3164 92.6029 33.3874C92.7127 33.4787 92.7423 33.5968 92.6906 33.743L92.4745 34.3619C92.4251 34.5038 92.3164 34.6208 92.149 34.7128ZM92.3982 33.753C92.4141 33.7037 92.3935 33.6631 92.3374 33.63C92.2894 33.6001 92.2313 33.5858 92.1631 33.5858H91.4773C91.4082 33.5858 91.3406 33.5991 91.2752 33.6276C91.1947 33.662 91.1468 33.7037 91.1308 33.753L90.9137 34.4156C90.8977 34.4649 90.9178 34.5055 90.9744 34.5386C91.0253 34.57 91.0833 34.5858 91.1477 34.5858H91.836C91.8671 34.5858 91.8995 34.5821 91.9338 34.5751C91.9672 34.5674 92.0019 34.5573 92.0366 34.5417C92.1175 34.5066 92.1655 34.4639 92.1824 34.4132L92.3982 33.753Z" fill="#EEEEEE"/>
<path fill-rule="evenodd" clip-rule="evenodd" d="M93.5433 33.5876L93.0761 34.8254H92.759L93.3954 33.1415C93.4503 32.9977 93.5526 32.8816 93.703 32.7949C93.8355 32.7197 94.0007 32.6821 94.199 32.6821L94.0867 32.9797C93.9621 32.9977 93.8722 33.02 93.8153 33.0476C93.7594 33.0763 93.7248 33.1072 93.7119 33.1415L93.657 33.2857H93.9734L93.8592 33.5881L93.5433 33.5876Z" fill="#EEEEEE"/>
<path fill-rule="evenodd" clip-rule="evenodd" d="M95.0132 33.5881L94.4592 34.8259H94.0824L94.6358 33.5881H94.2644L94.399 33.2858H94.7704L95.0414 32.6803H95.4188L95.1478 33.2858H95.5224L95.3871 33.5881H95.0132Z" fill="#EEEEEE"/>
<path fill-rule="evenodd" clip-rule="evenodd" d="M97.0401 34.7072C96.9163 34.7839 96.7761 34.823 96.6207 34.823C96.5356 34.823 96.4565 34.8106 96.3835 34.7858C96.3099 34.7611 96.2481 34.7225 96.1975 34.6706C96.1092 34.721 96.0178 34.7602 95.925 34.7858C95.8318 34.8125 95.7431 34.8253 95.6582 34.8253C95.5083 34.8253 95.3967 34.7878 95.3227 34.7129C95.2404 34.6268 95.2257 34.5101 95.2779 34.3616L95.6536 33.2857H95.9456L95.5695 34.364C95.5539 34.4102 95.5667 34.4473 95.6101 34.4768C95.6576 34.5077 95.7234 34.5235 95.8085 34.5235C95.8949 34.5235 95.9707 34.5083 96.037 34.4768C96.1014 34.4488 96.1422 34.4102 96.1594 34.3616L96.3917 33.6985H96.6837L96.4515 34.3636C96.4346 34.4111 96.4487 34.4477 96.4931 34.4735C96.5406 34.5044 96.6041 34.5202 96.6865 34.5202C96.7742 34.5202 96.8515 34.5049 96.9173 34.4735C96.9825 34.4459 97.0219 34.4092 97.0384 34.3636L97.415 33.2852H97.7097L97.3341 34.3612C97.2834 34.5055 97.185 34.6211 97.0401 34.7072Z" fill="#EEEEEE"/>
<path fill-rule="evenodd" clip-rule="evenodd" d="M99.2422 34.7152C99.1047 34.7879 98.963 34.8251 98.8171 34.8251H98.1307C97.9835 34.8251 97.8666 34.789 97.7825 34.717C97.6797 34.6309 97.6545 34.5148 97.7066 34.3657C97.7568 34.2214 97.8651 34.1053 98.0315 34.0172C98.1691 33.9419 98.3094 33.9049 98.4525 33.9049H99.1385C99.1823 33.9049 99.2243 33.9091 99.2632 33.9167C99.3034 33.9253 99.3505 33.941 99.4068 33.9638L99.4799 33.7549C99.4895 33.7106 99.4657 33.6716 99.4104 33.6377C99.3606 33.6049 99.3066 33.5882 99.2485 33.5882H98.5627C98.5329 33.5882 98.5032 33.5911 98.4744 33.5954C98.4456 33.6007 98.4154 33.6101 98.3857 33.6235C98.3094 33.6539 98.2436 33.7126 98.191 33.7978H97.9008C97.9927 33.6106 98.1161 33.4759 98.2715 33.392C98.4008 33.3217 98.5324 33.286 98.6659 33.286H99.3542C99.489 33.286 99.6005 33.3212 99.6873 33.392C99.7979 33.4807 99.8277 33.5992 99.7747 33.7477L99.5599 34.3643C99.5092 34.5095 99.4026 34.6261 99.2422 34.7152ZM99.2888 34.6102C99.3046 34.4664 99.2842 34.3449 99.2265 34.2469C99.1745 34.1538 99.1164 34.106 99.0507 34.106H98.3525C98.2716 34.106 98.1926 34.1646 98.1154 34.2772C98.0522 34.3699 98.0136 34.4797 97.9996 34.6027C97.9852 34.7304 97.9983 34.8416 98.0387 34.9362C98.087 35.0487 98.1531 35.106 98.2382 35.106H98.9382C99.0066 35.106 99.0745 35.0653 99.1414 34.9825C99.2237 34.8789 99.2725 34.7545 99.2888 34.6102Z" fill="#EEEEEE"/>
<path fill-rule="evenodd" clip-rule="evenodd" d="M101.773 33.7969C101.779 33.7112 101.754 33.6532 101.699 33.6226C101.679 33.6098 101.655 33.5998 101.63 33.5945C101.604 33.5903 101.577 33.5875 101.549 33.5875H100.863C100.794 33.5875 100.725 33.6017 100.658 33.6298C100.579 33.6602 100.532 33.6998 100.514 33.7469L100.139 34.8253H99.8458L100.383 33.2855H100.676L100.654 33.3499C100.712 33.3269 100.766 33.3109 100.816 33.3008C100.865 33.2908 100.915 33.2855 100.966 33.2855H101.654C101.785 33.2855 101.891 33.3203 101.974 33.3889C102.074 33.4732 102.102 33.6083 102.062 33.7969H101.773Z" fill="#EEEEEE"/>
<path fill-rule="evenodd" clip-rule="evenodd" d="M104.374 33.7426C104.325 33.8854 104.216 34.0021 104.049 34.0934C103.911 34.1692 103.771 34.2058 103.63 34.2058H102.944C102.898 34.2058 102.856 34.2016 102.817 34.1939C102.777 34.1858 102.729 34.1707 102.673 34.1473L102.601 34.3534L102.599 34.3582C102.589 34.4015 102.613 34.4396 102.671 34.4738C102.697 34.4924 102.723 34.5043 102.751 34.5124C102.778 34.52 102.805 34.5229 102.834 34.5229H103.52C103.548 34.5229 103.577 34.52 103.606 34.5158C103.635 34.5106 103.665 34.5014 103.694 34.4887C103.771 34.4572 103.836 34.3991 103.889 34.3139H104.179C104.089 34.501 103.965 34.6357 103.807 34.7195C103.677 34.7896 103.547 34.8253 103.414 34.8253H102.728C102.597 34.8253 102.486 34.789 102.396 34.7171C102.284 34.6267 102.255 34.5082 102.306 34.361L102.522 33.745C102.572 33.5989 102.678 33.4826 102.839 33.3961C102.974 33.3227 103.117 33.2855 103.266 33.2855H103.953C104.096 33.2855 104.212 33.3208 104.297 33.3917C104.4 33.4784 104.426 33.5945 104.374 33.7426ZM104.103 34.0086C104.117 33.8856 104.103 33.7786 104.061 33.684C104.015 33.5656 103.949 33.5055 103.862 33.5055H103.167C103.106 33.5055 103.037 33.5505 102.96 33.639C102.879 33.7308 102.831 33.8524 102.814 34.0024C102.797 34.1482 102.818 34.2684 102.876 34.3645C102.928 34.4592 102.987 34.5055 103.055 34.5055H103.753C103.836 34.5055 103.914 34.4487 103.988 34.3347C104.051 34.2414 104.089 34.1331 104.103 34.0086Z" fill="#EEEEEE"/>
<path fill-rule="evenodd" clip-rule="evenodd" d="M104.394 29.0236C104.394 29.4622 104.209 29.8306 103.837 30.1295C103.496 30.4181 103.069 30.5629 102.559 30.5629H98.0667C97.5964 30.5629 97.1974 30.4315 96.8706 30.1681C96.5187 29.8844 96.2965 29.4517 96.2021 28.8689H97.116C97.1805 29.1422 97.2989 29.3378 97.4721 29.4569H97.4648C97.6326 29.5601 97.8336 29.6111 98.0663 29.6111H102.559C102.816 29.6111 103.039 29.5492 103.228 29.4254C103.396 29.3122 103.48 29.1779 103.48 29.0231V28.2496C103.48 28.1048 103.396 27.9763 103.228 27.8624C103.029 27.7288 102.804 27.6616 102.552 27.6616H100.16V26.71H102.559C102.821 26.71 103.045 26.6456 103.228 26.5166C103.396 26.4038 103.48 26.2714 103.48 26.1224V25.3487C103.48 25.2041 103.396 25.075 103.228 24.9617C103.029 24.8275 102.804 24.7603 102.552 24.7603H98.0663C97.8382 24.7603 97.6399 24.8117 97.4717 24.9151H97.4793C97.3012 25.0237 97.1801 25.2193 97.1156 25.5031H96.2015C96.2906 24.9151 96.5086 24.4867 96.8555 24.2186C97.1823 23.9453 97.5859 23.8091 98.0663 23.8091H102.559C103.059 23.8091 103.485 23.9534 103.836 24.2419C104.208 24.5465 104.394 24.9151 104.394 25.3483C104.394 25.7249 104.379 26.0677 104.349 26.3767C104.339 26.5313 104.29 26.6737 104.201 26.8027C104.161 26.8594 104.115 26.9185 104.063 26.9807C104.012 27.0427 103.948 27.1099 103.874 27.1817C104.017 27.3212 104.127 27.4498 104.201 27.5687C104.285 27.7135 104.335 27.8525 104.349 27.9868C104.38 28.2914 104.394 28.6366 104.394 29.0236Z" fill="#EEEEEE"/>
<path fill-rule="evenodd" clip-rule="evenodd" d="M80.8703 25.1758L80.2396 25.5866V27.9604L80.8703 28.3789V28.9001C80.6143 28.7359 80.3548 28.5694 80.0915 28.3988C79.8291 28.2293 79.57 28.0622 79.3168 27.898C79.0632 27.7343 78.8177 27.5747 78.581 27.421C78.3442 27.2672 78.1208 27.1216 77.9119 26.9845C77.8315 26.9453 77.7917 26.8763 77.7917 26.7788C77.7917 26.6888 77.8315 26.6212 77.9119 26.5769L80.8708 24.6506L80.8703 25.1758ZM79.9081 27.6785V25.8766L78.5366 26.7022C78.4913 26.7292 78.4681 26.7535 78.4681 26.7754C78.4681 26.8001 78.4913 26.8244 78.5366 26.8487L79.9081 27.6785Z" fill="#EEEEEE"/>
<path fill-rule="evenodd" clip-rule="evenodd" d="M80.6694 20.545C80.8033 20.7211 80.87 20.9339 80.87 21.1838V23.3996C80.87 23.6515 80.8042 23.8624 80.6726 24.0308C80.5364 24.2117 80.3687 24.3022 80.1685 24.3022H78.4921C78.2969 24.3022 78.1306 24.2117 77.9916 24.0308C77.8577 23.8547 77.791 23.6419 77.791 23.3924V21.1724C77.791 20.9401 77.8531 20.743 77.9779 20.5816C78.1018 20.4131 78.2983 20.3041 78.5661 20.255V20.7064C78.4368 20.7377 78.3467 20.7977 78.2946 20.8859C78.2499 20.9615 78.2279 21.0581 78.2279 21.1757V23.392C78.2279 23.5238 78.2571 23.6366 78.3157 23.7295C78.365 23.81 78.4235 23.8504 78.4921 23.8504H80.1685C80.2389 23.8504 80.3001 23.81 80.3513 23.7295L80.3481 23.7334C80.4066 23.6428 80.4359 23.531 80.4359 23.399V21.1834C80.4359 21.0682 80.4126 20.9654 80.3655 20.8754C80.3166 20.7673 80.2494 20.7136 80.1648 20.7136H79.5483V22.5083H79.115V20.266H80.1685C80.3641 20.266 80.5305 20.3593 80.6694 20.545Z" fill="#EEEEEE"/>
<path fill-rule="evenodd" clip-rule="evenodd" d="M79.3488 15.8078C79.48 15.9763 79.5463 16.1887 79.5463 16.4429V19.1176H80.8703V19.5688H78.4928C78.2976 19.5688 78.1312 19.4783 77.9923 19.2974C77.8584 19.1213 77.7917 18.9085 77.7917 18.659V16.4429C77.7917 16.1959 77.8584 15.9854 77.9923 15.8116C78.1312 15.6283 78.2976 15.5365 78.4928 15.5365H78.8447C79.0444 15.5365 79.2126 15.6269 79.3488 15.8078ZM78.6592 15.9839C78.5512 15.9839 78.4566 16.0258 78.3717 16.1092C78.2763 16.202 78.2286 16.3135 78.2286 16.4429V18.6623C78.2286 18.7753 78.2651 18.8767 78.3374 18.9671C78.4104 19.0675 78.5169 19.1176 78.6592 19.1176H79.6686V16.4429C79.6686 16.3135 79.6232 16.202 79.5308 16.1092C79.4473 16.0258 79.3468 15.9839 79.2321 15.9839H78.6592Z" fill="#EEEEEE"/>
<path fill-rule="evenodd" clip-rule="evenodd" d="M80.1837 10.8068C80.3925 10.844 80.5603 10.9463 80.6873 11.1153C80.8098 11.2791 80.8706 11.4771 80.8706 11.7095V13.9294C80.8706 14.1784 80.8048 14.3907 80.6731 14.564C80.5369 14.7478 80.3692 14.8392 80.169 14.8392H77.7952V14.3808H80.169C80.2394 14.3808 80.3006 14.3403 80.3518 14.2594L80.3486 14.2632C80.4071 14.1727 80.4364 14.0613 80.4364 13.9294V11.7095C80.4364 11.5971 80.4131 11.4995 80.366 11.4162V11.4195C80.3144 11.3315 80.2262 11.2715 80.1018 11.24V10.8801L80.1837 10.8068Z" fill="#EEEEEE"/>
<path fill-rule="evenodd" clip-rule="evenodd" d="M120.601 57.6572C121.948 57.6572 123.043 56.5575 123.043 55.206V51.0055C123.043 47.7248 125.703 45.056 128.973 45.056C129.149 45.056 129.324 45.0653 129.497 45.0806L125.998 39L120.083 49.2806C120.253 49.2656 120.426 49.2565 120.601 49.2565H122.053C121.901 49.8142 121.819 50.4002 121.819 51.0055V52.7547H120.601C119.253 52.7547 118.158 53.8544 118.158 55.206C118.158 56.5575 119.253 57.6572 120.601 57.6572Z" fill="#60C4FF"/>
<path fill-rule="evenodd" clip-rule="evenodd" d="M134.348 53.5122C133.403 55.5434 131.35 56.9551 128.973 56.9551H127.52C127.672 56.3973 127.754 55.8113 127.754 55.206V53.4568H128.973C130.32 53.4568 131.416 52.3571 131.416 51.0055C131.416 49.654 130.32 48.5543 128.973 48.5543C127.626 48.5543 126.53 49.654 126.53 51.0055L126.53 55.206C126.53 58.4867 123.87 61.1556 120.601 61.1556C118.226 61.1556 116.173 59.7466 115.228 57.7185L112.283 62.8367H139.713L134.348 53.5122Z" fill="#60C4FF"/>
<path fill-rule="evenodd" clip-rule="evenodd" d="M130.664 67.0739H129.704C129.704 67.0739 129.69 66.8645 129.69 66.5924C129.69 66.3205 129.704 66.1109 129.704 66.1109C129.704 66.1109 129.854 66.0966 130.184 66.0966C130.515 66.0966 130.664 66.1109 130.664 66.1109C130.664 66.1109 130.678 66.2769 130.678 66.5924C130.678 66.9079 130.664 67.0739 130.664 67.0739ZM130.664 65.1482H129.704C129.174 65.1482 128.745 65.5792 128.745 66.1109V68.9995H129.704V68.0368H130.664V68.9995H131.624V66.1109C131.624 65.5792 131.194 65.1482 130.664 65.1482Z" fill="#60C4FF"/>
<path fill-rule="evenodd" clip-rule="evenodd" d="M139.041 67.0699C139.041 67.0699 138.875 67.0842 138.561 67.0842C138.246 67.0842 138.081 67.0699 138.081 67.0699V66.1069C138.081 66.1069 138.29 66.0924 138.561 66.0924C138.832 66.0924 139.041 66.1069 139.041 66.1069C139.041 66.1069 139.055 66.2567 139.055 66.5884C139.055 66.9201 139.041 67.0699 139.041 67.0699ZM139.042 65.144H137.121V68.9955H138.081V68.0326H139.042C139.571 68.0326 140 67.6022 140 67.0709V66.1056C140 65.5745 139.571 65.144 139.042 65.144Z" fill="#60C4FF"/>
<path fill-rule="evenodd" clip-rule="evenodd" d="M112 66.1107V68.0366C112 68.5683 112.43 68.9994 112.959 68.9995L114.879 69V68.0371H112.96V66.1107H114.879V65.1477H112.96C112.43 65.1477 112 65.579 112 66.1107Z" fill="#60C4FF"/>
<path fill-rule="evenodd" clip-rule="evenodd" d="M121.521 65.1479H120.561V68.0362C120.561 68.5681 120.991 68.9994 121.521 68.9995L123.062 69V68.0371H121.521V65.1479Z" fill="#60C4FF"/>
<path d="M120.601 21.6572C121.948 21.6572 123.043 20.5575 123.043 19.206V15.0055C123.043 11.7248 125.703 9.05596 128.973 9.05596C129.149 9.05596 129.324 9.06529 129.497 9.08056L125.998 3L120.083 13.2806C120.253 13.2656 120.426 13.2565 120.601 13.2565H122.053C121.901 13.8142 121.819 14.4002 121.819 15.0055V16.7547H120.601C119.253 16.7547 118.158 17.8544 118.158 19.206C118.158 20.5575 119.253 21.6572 120.601 21.6572Z" fill="white"/>
<path d="M134.348 17.5122C133.403 19.5434 131.35 20.9551 128.973 20.9551H127.52C127.672 20.3973 127.754 19.8113 127.754 19.206V17.4568H128.973C130.32 17.4568 131.416 16.3571 131.416 15.0055C131.416 13.654 130.32 12.5543 128.973 12.5543C127.626 12.5543 126.53 13.654 126.53 15.0055L126.53 19.206C126.53 22.4867 123.87 25.1556 120.601 25.1556C118.226 25.1556 116.173 23.7466 115.228 21.7185L112.283 26.8367H139.713L134.348 17.5122Z" fill="white"/>
<path fill-rule="evenodd" clip-rule="evenodd" d="M130.664 31.0739H129.704C129.704 31.0739 129.69 30.8645 129.69 30.5924C129.69 30.3205 129.704 30.1109 129.704 30.1109C129.704 30.1109 129.854 30.0966 130.184 30.0966C130.515 30.0966 130.664 30.1109 130.664 30.1109C130.664 30.1109 130.678 30.2769 130.678 30.5924C130.678 30.9079 130.664 31.0739 130.664 31.0739ZM130.664 29.1482H129.704C129.174 29.1482 128.745 29.5792 128.745 30.1109V32.9995H129.704V32.0368H130.664V32.9995H131.624V30.1109C131.624 29.5792 131.194 29.1482 130.664 29.1482Z" fill="white"/>
<path fill-rule="evenodd" clip-rule="evenodd" d="M139.041 31.0699C139.041 31.0699 138.875 31.0842 138.561 31.0842C138.246 31.0842 138.081 31.0699 138.081 31.0699V30.1069C138.081 30.1069 138.29 30.0924 138.561 30.0924C138.832 30.0924 139.041 30.1069 139.041 30.1069C139.041 30.1069 139.055 30.2567 139.055 30.5884C139.055 30.9201 139.041 31.0699 139.041 31.0699ZM139.042 29.144H137.121V32.9955H138.081V32.0326H139.042C139.571 32.0326 140 31.6022 140 31.0709V30.1056C140 29.5745 139.571 29.144 139.042 29.144Z" fill="white"/>
<path d="M112 30.1107V32.0366C112 32.5683 112.43 32.9994 112.959 32.9995L114.879 33V32.0371H112.96V30.1107H114.879V29.1477H112.96C112.43 29.1477 112 29.579 112 30.1107Z" fill="white"/>
<path d="M121.521 29.1479H120.561V32.0362C120.561 32.5682 120.991 32.9994 121.521 32.9995L123.062 33V32.0371H121.521V29.1479Z" fill="white"/>
<path fill-rule="evenodd" clip-rule="evenodd" d="M178.675 43.6897V64.2603H145.325V43.6897H178.675ZM179 43.375H178.675H145.325H145V43.6897V64.2603V64.575H145.325H178.675H179V64.2603V43.6897V43.375Z" fill="#60C4FF"/>
<path fill-rule="evenodd" clip-rule="evenodd" d="M150.883 60.0833C150.765 60.3408 150.41 61.0274 149.494 61.0274C148.725 61.0274 147.986 60.541 147.986 59.368C147.986 58.6814 148.4 57.7659 149.494 57.7659C150.322 57.7659 150.647 58.2808 150.795 58.71L150.203 58.853C150.174 58.5097 149.878 58.2808 149.523 58.2808C148.991 58.2808 148.637 58.6528 148.637 59.368C148.637 59.7972 148.814 60.4552 149.523 60.4552C149.937 60.4552 150.203 60.1405 150.292 59.8258L150.883 60.0833Z" fill="#60C4FF"/>
<path fill-rule="evenodd" clip-rule="evenodd" d="M152.805 57.7659C153.781 57.7659 154.343 58.5383 154.343 59.368C154.343 60.0833 153.958 61.0274 152.805 61.0274C151.859 61.0274 151.268 60.2835 151.268 59.3966C151.268 58.5097 151.859 57.7659 152.805 57.7659ZM152.805 60.4838C153.278 60.4838 153.722 60.1405 153.722 59.4252C153.722 58.8817 153.426 58.3095 152.776 58.3095C152.243 58.3095 151.859 58.71 151.859 59.3966C151.889 59.883 152.125 60.4838 152.805 60.4838Z" fill="#60C4FF"/>
<path fill-rule="evenodd" clip-rule="evenodd" d="M157.27 60.9416C157.27 60.8557 157.329 58.3953 157.329 58.3953L156.649 60.9416H156.117L155.437 58.3953C155.437 58.3953 155.496 60.8271 155.496 60.9416H154.904V57.8517H155.762L156.383 60.1405L157.003 57.8517H157.861V60.9416H157.27Z" fill="#60C4FF"/>
<path fill-rule="evenodd" clip-rule="evenodd" d="M160.019 57.8517C160.67 57.8517 161.143 58.2522 161.143 58.8816C161.143 59.4538 160.817 59.883 159.96 59.883H159.339V60.9416H158.748V57.8517H160.019ZM159.369 59.4252H159.901C160.315 59.4252 160.551 59.225 160.551 58.8816C160.551 58.3953 160.137 58.3667 159.842 58.3667H159.398V59.4252H159.369Z" fill="#60C4FF"/>
<path fill-rule="evenodd" clip-rule="evenodd" d="M163.39 60.9416L163.212 60.3408H162L161.823 60.9416H161.172L162.236 57.8517H162.916L164.01 60.9416H163.39ZM162.648 58.4239L162.148 59.8544H163.148L162.648 58.4239Z" fill="#60C4FF"/>
<path fill-rule="evenodd" clip-rule="evenodd" d="M165.252 58.3667V60.9416H164.661V58.3667H163.803V57.8517H166.169V58.3667H165.252Z" fill="#60C4FF"/>
<path fill-rule="evenodd" clip-rule="evenodd" d="M166.612 60.9416V57.8517H167.612V60.9416H166.612Z" fill="#60C4FF"/>
<path fill-rule="evenodd" clip-rule="evenodd" d="M169.539 57.8517C170.219 57.8517 170.515 58.2236 170.515 58.6242C170.515 58.8816 170.367 59.225 169.983 59.2536C170.278 59.3108 170.663 59.5397 170.663 60.0833C170.663 60.5124 170.396 60.9702 169.598 60.9702H168.12V57.8517H169.539ZM168.711 59.3381H169.303C169.569 59.3381 169.894 59.227 169.894 58.8195C169.894 58.4121 169.569 58.3381 169.332 58.3381H168.711V59.3381ZM168.711 60.5397H169.51C169.923 60.5397 170.071 60.3209 170.071 60.0709C170.071 59.6022 169.628 59.5397 169.391 59.5397H168.711V60.5397Z" fill="#60C4FF"/>
<path fill-rule="evenodd" clip-rule="evenodd" d="M171.431 60.9416V57.8517H172.023V60.4266H173.294V60.9416H171.431Z" fill="#60C4FF"/>
<path fill-rule="evenodd" clip-rule="evenodd" d="M173.678 60.9416V57.8517H175.955V58.3667H174.27V59.0819H175.807V59.5683H174.27V60.398H176.073V60.9129H173.678V60.9416Z" fill="#60C4FF"/>
<path fill-rule="evenodd" clip-rule="evenodd" d="M165.37 48.7823H176.073L176.103 50.6133H175.6C175.423 49.9839 174.95 49.5548 174.151 49.3545C173.708 49.24 173.028 49.1542 172.141 49.1542V53.7318C172.141 54.0465 172.259 54.1895 172.466 54.2754C172.703 54.3899 173.176 54.3899 173.885 54.3899V54.7904H167.588V54.3899C168.268 54.3899 168.741 54.3327 168.977 54.2468C169.214 54.1323 169.332 54.0465 169.332 53.7318V49.1542C168.475 49.1542 167.795 49.24 167.351 49.3545C166.494 49.5834 166.021 50.0125 165.903 50.6133C165.755 50.6133 165.4 50.6133 165.4 50.6133L165.37 48.7823Z" fill="#60C4FF"/>
<path fill-rule="evenodd" clip-rule="evenodd" d="M156.974 51.8722L157.95 51.9866L157.979 52.0152C158.363 52.7877 158.984 53.3885 159.842 53.7318C160.699 54.1037 161.704 54.2754 162.828 54.2754C163.922 54.2754 164.69 54.161 165.134 53.9035C165.577 53.6746 165.784 53.4171 165.784 53.1596C165.784 52.8735 165.548 52.616 165.104 52.4444C164.779 52.3013 164.129 52.1297 163.183 51.9294L161.616 51.5861C160.078 51.2427 158.955 50.8994 158.334 50.5561C157.684 50.2128 157.358 49.755 157.358 49.24C157.358 48.6965 157.802 48.1815 158.659 47.6951C159.517 47.2373 160.817 47.0085 162.562 47.0085C163.449 47.0085 164.306 47.0657 165.134 47.1801C165.666 47.266 166.405 47.3518 166.553 47.3518C166.878 47.3518 166.997 47.2946 167.056 47.266C167.144 47.2087 167.233 47.1229 167.292 47.0085L167.322 46.9799H168.15V49.4689H167.263L167.233 49.4403C166.908 48.8967 166.346 48.439 165.548 48.067C164.75 47.6665 163.774 47.4948 162.65 47.4948C161.852 47.4948 161.202 47.5807 160.758 47.7809C160.315 47.9526 160.108 48.1815 160.108 48.439C160.108 48.7537 160.315 48.9825 160.729 49.1542C161.172 49.3259 162.148 49.5834 163.626 49.8981L165.43 50.2986C166.228 50.4703 166.878 50.6705 167.351 50.8994C168.268 51.3286 168.741 51.8436 168.741 52.4444C168.741 53.0166 168.238 53.5602 167.263 54.0465C166.317 54.5329 164.75 54.7904 162.65 54.7904C162.177 54.7904 161.675 54.7618 161.172 54.7332C160.67 54.7046 160.167 54.6187 159.694 54.5615L159.221 54.4757C159.103 54.4757 159.014 54.4471 158.925 54.4471C158.837 54.4471 158.748 54.4185 158.659 54.4185C158.423 54.4185 158.275 54.4471 158.186 54.5043C158.097 54.5615 158.038 54.6473 157.95 54.7618L157.92 54.7904H156.974V51.8722Z" fill="#60C4FF"/>
<path fill-rule="evenodd" clip-rule="evenodd" d="M167.972 47.0943V49.4403H167.292C166.967 48.8967 166.405 48.4389 165.607 48.0384C164.809 47.6379 163.833 47.4376 162.68 47.4376C161.852 47.4376 161.231 47.5234 160.758 47.7237C160.285 47.924 160.049 48.1529 160.049 48.4389C160.049 48.7823 160.285 49.0398 160.729 49.2114C161.172 49.3831 162.148 49.6406 163.656 49.9553L165.459 50.3558C166.257 50.5275 166.908 50.7278 167.381 50.9566C168.268 51.3572 168.711 51.8722 168.711 52.4444C168.711 52.988 168.238 53.5029 167.263 53.9893C166.317 54.4757 164.779 54.7046 162.68 54.7046C162.207 54.7046 161.704 54.6759 161.202 54.6473C160.699 54.6187 160.226 54.5615 159.723 54.4757L159.25 54.3898C159.132 54.3898 159.043 54.3612 158.925 54.3612C158.837 54.3612 158.748 54.3326 158.659 54.3326C158.423 54.3326 158.245 54.3612 158.157 54.4184C158.068 54.4757 157.979 54.5615 157.92 54.7046H157.063V51.9294L157.92 52.0438C158.304 52.8449 158.925 53.4457 159.812 53.789C160.699 54.161 161.675 54.3326 162.798 54.3326C163.892 54.3326 164.661 54.2182 165.134 53.9607C165.607 53.7032 165.814 53.4457 165.814 53.1596C165.814 52.8449 165.577 52.5874 165.075 52.3585C164.75 52.2155 164.099 52.0438 163.153 51.8435L161.586 51.5002C160.049 51.1569 158.955 50.8136 158.304 50.4703C157.683 50.1269 157.358 49.7264 157.358 49.2114C157.358 48.6964 157.772 48.1815 158.6 47.7237C159.457 47.2659 160.729 47.0371 162.473 47.0371C163.36 47.0371 164.217 47.0943 165.016 47.2087C165.843 47.3232 166.317 47.3804 166.435 47.3804C166.701 47.3804 166.878 47.3518 166.997 47.2946C167.085 47.2373 167.174 47.1229 167.233 47.0085H167.972M168.09 46.9512H167.943H167.263H167.174L167.144 47.0084C167.085 47.0943 167.026 47.1801 166.937 47.2373C166.908 47.2659 166.79 47.3232 166.464 47.3232C166.317 47.3232 165.37 47.1801 165.075 47.1515C164.247 47.0371 163.39 46.9798 162.503 46.9798C160.758 46.9798 159.428 47.2087 158.57 47.6951C157.683 48.1815 157.24 48.6964 157.24 49.2973C157.24 49.8408 157.595 50.2986 158.275 50.6705C158.925 51.0139 160.019 51.3572 161.586 51.7005L163.153 52.0438C164.099 52.2441 164.75 52.4157 165.075 52.5588C165.489 52.7305 165.725 52.9593 165.725 53.2168C165.725 53.4457 165.518 53.6746 165.104 53.9035C164.661 54.1323 163.892 54.2468 162.828 54.2468C161.734 54.2468 160.729 54.0751 159.871 53.7032C158.984 53.3599 158.393 52.7877 158.009 52.0152L157.979 51.9294H157.89L157.033 51.8149H156.915V51.958V54.7332V54.8762H157.063H157.92H158.009L158.038 54.819C158.097 54.7045 158.157 54.6473 158.245 54.5901C158.275 54.5615 158.393 54.5043 158.689 54.5043C158.748 54.5043 158.837 54.5043 158.925 54.5329C159.014 54.5329 159.132 54.5615 159.25 54.5615L159.723 54.6473C160.197 54.7332 160.699 54.7904 161.202 54.819C161.704 54.8476 162.207 54.8762 162.68 54.8762C164.809 54.8762 166.376 54.6187 167.351 54.1323C168.357 53.6174 168.859 53.0738 168.859 52.473C168.859 51.8435 168.386 51.3 167.44 50.8708C166.967 50.6419 166.287 50.4417 165.489 50.27L163.685 49.8695C162.207 49.5547 161.231 49.2973 160.788 49.1256C160.403 48.9825 160.197 48.7537 160.197 48.4962C160.197 48.2673 160.403 48.067 160.817 47.8954C161.261 47.6951 161.911 47.6093 162.71 47.6093C163.833 47.6093 164.809 47.8095 165.577 48.1815C166.376 48.5534 166.908 49.0112 167.233 49.5261L167.263 49.5834H167.351H168.031H168.179V49.4403V47.0943V46.9512H168.09Z" fill="black"/>
<path fill-rule="evenodd" clip-rule="evenodd" d="M153.249 54.9621L148.784 49.8981C148.607 49.6978 148.43 49.5548 148.252 49.4689C148.075 49.3831 147.572 49.3259 147.129 49.3259H147.07V48.9254H153.278V49.3545H153.219C152.598 49.3831 152.214 49.4117 152.007 49.4403C151.8 49.4689 151.8 49.5548 151.8 49.6406C151.8 49.6692 151.8 49.7264 151.8 49.755C151.8 49.7837 151.83 49.8123 151.859 49.8409L154.461 52.9308H154.49L156.737 50.0984C156.796 50.0411 156.826 49.9839 156.856 49.9267C156.915 49.8409 156.944 49.755 156.944 49.6978C156.944 49.612 156.915 49.4976 156.708 49.4689C156.53 49.4403 156.117 49.4117 155.525 49.3831H155.466V48.954H159.546V49.3545H159.487C159.043 49.3831 158.482 49.4403 158.304 49.5262C158.097 49.612 157.92 49.7836 157.713 50.0125L153.781 54.9621H153.249Z" fill="#60C4FF"/>
<path fill-rule="evenodd" clip-rule="evenodd" d="M159.516 48.9826V49.2687C159.103 49.2973 158.511 49.3545 158.304 49.4403C158.097 49.5262 157.89 49.6978 157.683 49.9553L153.751 54.9048H153.278L148.814 49.8409C148.637 49.6406 148.459 49.4976 148.252 49.4117C148.075 49.3259 147.513 49.2687 147.099 49.2401V48.954H153.16V49.2401C152.539 49.2687 152.125 49.2973 151.948 49.3259C151.77 49.3545 151.682 49.4403 151.682 49.5834C151.682 49.612 151.682 49.6692 151.711 49.6978C151.741 49.7264 151.77 49.7837 151.8 49.8123L154.431 52.9308H154.55L156.826 50.0984C156.885 50.0411 156.915 49.9839 156.974 49.8981C157.033 49.7837 157.063 49.6978 157.063 49.6406C157.063 49.4689 156.974 49.3831 156.767 49.3545C156.59 49.3259 156.176 49.2687 155.584 49.2687V48.9826H159.516ZM159.664 48.8395H159.516H155.584H155.437V48.9826V49.2687V49.4117H155.584C156.176 49.4403 156.56 49.4689 156.737 49.4976C156.915 49.5262 156.915 49.5834 156.915 49.6406C156.915 49.6692 156.915 49.7264 156.826 49.8409C156.796 49.8981 156.737 49.9553 156.708 50.0125L154.49 52.7877L151.918 49.755C151.889 49.7264 151.859 49.6978 151.859 49.6692C151.859 49.6406 151.859 49.612 151.859 49.5834C151.859 49.5548 151.859 49.4976 152.007 49.4689C152.184 49.4403 152.569 49.4117 153.19 49.3831H153.337V49.2401V48.954V48.8109H153.19H147.129H146.981V48.954V49.2401V49.3545H147.099C147.602 49.3831 148.045 49.4403 148.193 49.4976C148.37 49.5834 148.548 49.7264 148.696 49.8981L153.16 54.9335L153.19 54.9907H153.249H153.722H153.781L153.81 54.9335L157.802 50.0125C157.979 49.7837 158.186 49.6406 158.363 49.5548C158.511 49.4689 158.984 49.4117 159.516 49.3831H159.635V49.2687V48.9826V48.8395H159.664Z" fill="black"/>
<path fill-rule="evenodd" clip-rule="evenodd" d="M176.014 47.6093C175.304 47.6093 174.713 47.0371 174.713 46.3505C174.713 45.6638 175.304 45.0916 176.014 45.0916C176.723 45.0916 177.315 45.6638 177.315 46.3218C177.344 47.0371 176.783 47.6093 176.014 47.6093ZM176.014 45.1774C175.363 45.1774 174.831 45.6924 174.831 46.3218C174.831 46.9513 175.334 47.4662 176.014 47.4662C176.664 47.4662 177.196 46.9513 177.196 46.3505C177.196 45.6924 176.694 45.1774 176.014 45.1774ZM175.984 45.5208C176.398 45.5208 176.576 45.6638 176.576 45.9785C176.576 46.236 176.457 46.3505 176.221 46.4363L176.605 47.1229H176.31L175.955 46.4649H175.748V47.1229H175.482V45.5208H175.984ZM175.777 46.721H176.166C176.611 46.721 176.777 46.5544 176.777 46.221C176.777 45.8877 176.555 45.721 176.111 45.721H175.777V46.721Z" fill="#60C4FF"/>
<path fill-rule="evenodd" clip-rule="evenodd" d="M178.675 7.68971V28.2603H145.325V7.68971H178.675ZM179 7.375H178.675H145.325H145V7.68971V28.2603V28.575H145.325H178.675H179V28.2603V7.68971V7.375Z" fill="white"/>
<path fill-rule="evenodd" clip-rule="evenodd" d="M150.883 24.0832C150.765 24.3407 150.41 25.0273 149.494 25.0273C148.725 25.0273 147.986 24.541 147.986 23.368C147.986 22.6813 148.4 21.7658 149.494 21.7658C150.322 21.7658 150.647 22.2808 150.795 22.7099L150.203 22.853C150.174 22.5097 149.878 22.2808 149.523 22.2808C148.991 22.2808 148.637 22.6527 148.637 23.368C148.637 23.7971 148.814 24.4551 149.523 24.4551C149.937 24.4551 150.203 24.1404 150.292 23.8257L150.883 24.0832Z" fill="white"/>
<path fill-rule="evenodd" clip-rule="evenodd" d="M152.805 21.7658C153.781 21.7658 154.343 22.5383 154.343 23.368C154.343 24.0832 153.958 25.0273 152.805 25.0273C151.859 25.0273 151.268 24.2835 151.268 23.3966C151.268 22.5097 151.859 21.7658 152.805 21.7658ZM152.805 24.4838C153.278 24.4838 153.722 24.1404 153.722 23.4252C153.722 22.8816 153.426 22.3094 152.776 22.3094C152.243 22.3094 151.859 22.7099 151.859 23.3966C151.889 23.8829 152.125 24.4838 152.805 24.4838Z" fill="white"/>
<path fill-rule="evenodd" clip-rule="evenodd" d="M157.27 24.9415C157.27 24.8557 157.329 22.3952 157.329 22.3952L156.649 24.9415H156.117L155.437 22.3952C155.437 22.3952 155.496 24.8271 155.496 24.9415H154.904V21.8516H155.762L156.383 24.1404L157.003 21.8516H157.861V24.9415H157.27Z" fill="white"/>
<path fill-rule="evenodd" clip-rule="evenodd" d="M160.019 21.8516C160.67 21.8516 161.143 22.2522 161.143 22.8816C161.143 23.4538 160.817 23.8829 159.96 23.8829H159.339V24.9415H158.748V21.8516H160.019ZM159.369 23.4252H159.901C160.315 23.4252 160.551 23.2249 160.551 22.8816C160.551 22.3952 160.137 22.3666 159.842 22.3666H159.398V23.4252H159.369Z" fill="white"/>
<path fill-rule="evenodd" clip-rule="evenodd" d="M163.39 24.9415L163.212 24.3407H162L161.823 24.9415H161.172L162.236 21.8516H162.916L164.01 24.9415H163.39ZM162.648 22.4238L162.148 23.8543H163.148L162.648 22.4238Z" fill="white"/>
<path fill-rule="evenodd" clip-rule="evenodd" d="M165.252 22.3666V24.9415H164.661V22.3666H163.803V21.8516H166.169V22.3666H165.252Z" fill="white"/>
<path fill-rule="evenodd" clip-rule="evenodd" d="M166.612 24.9415V21.8516H167.612V24.9415H166.612Z" fill="white"/>
<path fill-rule="evenodd" clip-rule="evenodd" d="M169.539 21.8516C170.219 21.8516 170.515 22.2236 170.515 22.6241C170.515 22.8816 170.367 23.2249 169.983 23.2535C170.278 23.3107 170.663 23.5396 170.663 24.0832C170.663 24.5124 170.396 24.9701 169.598 24.9701H168.12V21.8516H169.539ZM168.711 23.338H169.303C169.569 23.338 169.894 23.2269 169.894 22.8195C169.894 22.4121 169.569 22.338 169.332 22.338H168.711V23.338ZM168.711 24.5396H169.51C169.923 24.5396 170.071 24.3209 170.071 24.0709C170.071 23.6021 169.628 23.5396 169.391 23.5396H168.711V24.5396Z" fill="white"/>
<path fill-rule="evenodd" clip-rule="evenodd" d="M171.431 24.9415V21.8516H172.023V24.4265H173.294V24.9415H171.431Z" fill="white"/>
<path fill-rule="evenodd" clip-rule="evenodd" d="M173.678 24.9415V21.8516H175.955V22.3666H174.27V23.0819H175.807V23.5682H174.27V24.3979H176.073V24.9129H173.678V24.9415Z" fill="white"/>
<path fill-rule="evenodd" clip-rule="evenodd" d="M165.37 12.7823H176.073L176.103 14.6133H175.6C175.423 13.9839 174.95 13.5548 174.151 13.3545C173.708 13.24 173.028 13.1542 172.141 13.1542V17.7318C172.141 18.0465 172.259 18.1895 172.466 18.2754C172.703 18.3899 173.176 18.3899 173.885 18.3899V18.7904H167.588V18.3899C168.268 18.3899 168.741 18.3327 168.977 18.2468C169.214 18.1323 169.332 18.0465 169.332 17.7318V13.1542C168.475 13.1542 167.795 13.24 167.351 13.3545C166.494 13.5834 166.021 14.0125 165.903 14.6133C165.755 14.6133 165.4 14.6133 165.4 14.6133L165.37 12.7823Z" fill="white"/>
<path fill-rule="evenodd" clip-rule="evenodd" d="M156.974 15.8722L157.95 15.9866L157.979 16.0152C158.363 16.7877 158.984 17.3885 159.842 17.7318C160.699 18.1037 161.704 18.2754 162.828 18.2754C163.922 18.2754 164.69 18.161 165.134 17.9035C165.577 17.6746 165.784 17.4171 165.784 17.1596C165.784 16.8735 165.548 16.616 165.104 16.4444C164.779 16.3013 164.129 16.1297 163.183 15.9294L161.616 15.5861C160.078 15.2428 158.955 14.8994 158.334 14.5561C157.683 14.2128 157.358 13.755 157.358 13.24C157.358 12.6965 157.802 12.1815 158.659 11.6951C159.517 11.2373 160.817 11.0085 162.562 11.0085C163.449 11.0085 164.306 11.0657 165.134 11.1801C165.666 11.266 166.405 11.3518 166.553 11.3518C166.878 11.3518 166.997 11.2946 167.056 11.266C167.144 11.2087 167.233 11.1229 167.292 11.0085L167.322 10.9799H168.149V13.4689H167.263L167.233 13.4403C166.908 12.8967 166.346 12.439 165.548 12.067C164.75 11.6665 163.774 11.4948 162.65 11.4948C161.852 11.4948 161.202 11.5807 160.758 11.7809C160.315 11.9526 160.108 12.1815 160.108 12.439C160.108 12.7537 160.315 12.9825 160.729 13.1542C161.172 13.3259 162.148 13.5834 163.626 13.8981L165.43 14.2986C166.228 14.4703 166.878 14.6705 167.351 14.8994C168.268 15.3286 168.741 15.8436 168.741 16.4444C168.741 17.0166 168.238 17.5602 167.263 18.0465C166.317 18.5329 164.75 18.7904 162.65 18.7904C162.177 18.7904 161.675 18.7618 161.172 18.7332C160.67 18.7046 160.167 18.6187 159.694 18.5615L159.221 18.4757C159.103 18.4757 159.014 18.4471 158.925 18.4471C158.837 18.4471 158.748 18.4185 158.659 18.4185C158.423 18.4185 158.275 18.4471 158.186 18.5043C158.097 18.5615 158.038 18.6473 157.95 18.7618L157.92 18.7904H156.974V15.8722Z" fill="white"/>
<path fill-rule="evenodd" clip-rule="evenodd" d="M167.972 11.0943V13.4403H167.292C166.967 12.8967 166.405 12.4389 165.607 12.0384C164.809 11.6379 163.833 11.4376 162.68 11.4376C161.852 11.4376 161.231 11.5234 160.758 11.7237C160.285 11.924 160.049 12.1529 160.049 12.4389C160.049 12.7823 160.285 13.0398 160.729 13.2114C161.172 13.3831 162.148 13.6406 163.656 13.9553L165.459 14.3558C166.257 14.5275 166.908 14.7278 167.381 14.9566C168.268 15.3572 168.711 15.8722 168.711 16.4444C168.711 16.988 168.238 17.5029 167.263 17.9893C166.317 18.4757 164.779 18.7046 162.68 18.7046C162.207 18.7046 161.704 18.6759 161.202 18.6473C160.699 18.6187 160.226 18.5615 159.723 18.4757L159.25 18.3898C159.132 18.3898 159.043 18.3612 158.925 18.3612C158.837 18.3612 158.748 18.3326 158.659 18.3326C158.423 18.3326 158.245 18.3612 158.157 18.4184C158.068 18.4757 157.979 18.5615 157.92 18.7046H157.063V15.9294L157.92 16.0438C158.304 16.8449 158.925 17.4457 159.812 17.789C160.699 18.161 161.675 18.3326 162.798 18.3326C163.892 18.3326 164.661 18.2182 165.134 17.9607C165.607 17.7032 165.814 17.4457 165.814 17.1596C165.814 16.8449 165.577 16.5874 165.075 16.3585C164.75 16.2155 164.099 16.0438 163.153 15.8435L161.586 15.5002C160.049 15.1569 158.955 14.8136 158.304 14.4703C157.683 14.1269 157.358 13.7264 157.358 13.2114C157.358 12.6964 157.772 12.1815 158.6 11.7237C159.457 11.2659 160.729 11.0371 162.473 11.0371C163.36 11.0371 164.217 11.0943 165.016 11.2087C165.843 11.3232 166.317 11.3804 166.435 11.3804C166.701 11.3804 166.878 11.3518 166.997 11.2946C167.085 11.2373 167.174 11.1229 167.233 11.0085H167.972M168.09 10.9512H167.943H167.263H167.174L167.144 11.0085C167.085 11.0943 167.026 11.1801 166.937 11.2373C166.908 11.2659 166.79 11.3232 166.464 11.3232C166.317 11.3232 165.37 11.1801 165.075 11.1515C164.247 11.0371 163.39 10.9798 162.503 10.9798C160.758 10.9798 159.428 11.2087 158.57 11.6951C157.683 12.1815 157.24 12.6964 157.24 13.2973C157.24 13.8408 157.595 14.2986 158.275 14.6705C158.925 15.0139 160.019 15.3572 161.586 15.7005L163.153 16.0438C164.099 16.2441 164.75 16.4157 165.075 16.5588C165.489 16.7305 165.725 16.9593 165.725 17.2168C165.725 17.4457 165.518 17.6746 165.104 17.9035C164.661 18.1323 163.892 18.2468 162.828 18.2468C161.734 18.2468 160.729 18.0751 159.871 17.7032C158.984 17.3599 158.393 16.7877 158.009 16.0152L157.979 15.9294H157.89L157.033 15.8149H156.915V15.958V18.7332V18.8762H157.063H157.92H158.009L158.038 18.819C158.097 18.7045 158.157 18.6473 158.245 18.5901C158.275 18.5615 158.393 18.5043 158.689 18.5043C158.748 18.5043 158.837 18.5043 158.925 18.5329C159.014 18.5329 159.132 18.5615 159.25 18.5615L159.723 18.6473C160.197 18.7332 160.699 18.7904 161.202 18.819C161.704 18.8476 162.207 18.8762 162.68 18.8762C164.809 18.8762 166.376 18.6187 167.351 18.1323C168.357 17.6174 168.859 17.0738 168.859 16.473C168.859 15.8435 168.386 15.3 167.44 14.8708C166.967 14.6419 166.287 14.4417 165.489 14.27L163.685 13.8695C162.207 13.5547 161.231 13.2973 160.788 13.1256C160.403 12.9825 160.197 12.7537 160.197 12.4962C160.197 12.2673 160.403 12.067 160.817 11.8954C161.261 11.6951 161.911 11.6093 162.71 11.6093C163.833 11.6093 164.809 11.8095 165.577 12.1815C166.376 12.5534 166.908 13.0112 167.233 13.5261L167.263 13.5834H167.351H168.031H168.179V13.4403V11.0943V10.9512H168.09Z" fill="#1A1A18"/>
<path fill-rule="evenodd" clip-rule="evenodd" d="M153.249 18.9621L148.784 13.8981C148.607 13.6978 148.43 13.5548 148.252 13.4689C148.075 13.3831 147.572 13.3259 147.129 13.3259H147.07V12.9254H153.278V13.3545H153.219C152.598 13.3831 152.214 13.4117 152.007 13.4403C151.8 13.4689 151.8 13.5548 151.8 13.6406C151.8 13.6692 151.8 13.7264 151.8 13.755C151.8 13.7837 151.83 13.8123 151.859 13.8409L154.461 16.9308H154.49L156.737 14.0984C156.796 14.0411 156.826 13.9839 156.856 13.9267C156.915 13.8409 156.944 13.755 156.944 13.6978C156.944 13.612 156.915 13.4976 156.708 13.4689C156.53 13.4403 156.117 13.4117 155.525 13.3831H155.466V12.954H159.546V13.3545H159.487C159.043 13.3831 158.482 13.4403 158.304 13.5262C158.097 13.612 157.92 13.7837 157.713 14.0125L153.781 18.9621H153.249Z" fill="white"/>
<path fill-rule="evenodd" clip-rule="evenodd" d="M159.516 12.9826V13.2687C159.103 13.2973 158.511 13.3545 158.304 13.4403C158.097 13.5262 157.89 13.6978 157.683 13.9553L153.751 18.9048H153.278L148.814 13.8409C148.637 13.6406 148.459 13.4976 148.252 13.4117C148.075 13.3259 147.513 13.2687 147.099 13.2401V12.954H153.16V13.2401C152.539 13.2687 152.125 13.2973 151.948 13.3259C151.77 13.3545 151.682 13.4403 151.682 13.5834C151.682 13.612 151.682 13.6692 151.711 13.6978C151.741 13.7264 151.77 13.7837 151.8 13.8123L154.431 16.9308H154.55L156.826 14.0984C156.885 14.0411 156.915 13.9839 156.974 13.8981C157.033 13.7837 157.063 13.6978 157.063 13.6406C157.063 13.4689 156.974 13.3831 156.767 13.3545C156.59 13.3259 156.176 13.2687 155.584 13.2687V12.9826H159.516ZM159.664 12.8395H159.516H155.584H155.437V12.9826V13.2687V13.4117H155.584C156.176 13.4403 156.56 13.4689 156.737 13.4976C156.915 13.5262 156.915 13.5834 156.915 13.6406C156.915 13.6692 156.915 13.7264 156.826 13.8409C156.796 13.8981 156.737 13.9553 156.708 14.0125L154.49 16.7877L151.918 13.755C151.889 13.7264 151.859 13.6978 151.859 13.6692C151.859 13.6406 151.859 13.612 151.859 13.5834C151.859 13.5548 151.859 13.4976 152.007 13.4689C152.184 13.4403 152.569 13.4117 153.19 13.3831H153.337V13.2401V12.954V12.8109H153.19H147.129H146.981V12.954V13.2401V13.3545H147.099C147.602 13.3831 148.045 13.4403 148.193 13.4976C148.37 13.5834 148.548 13.7264 148.696 13.8981L153.16 18.9335L153.19 18.9907H153.249H153.722H153.781L153.81 18.9335L157.802 14.0125C157.979 13.7837 158.186 13.6406 158.363 13.5548C158.511 13.4689 158.984 13.4117 159.516 13.3831H159.635V13.2687V12.9826V12.8395H159.664Z" fill="#1A1A18"/>
<path fill-rule="evenodd" clip-rule="evenodd" d="M176.014 11.6093C175.304 11.6093 174.713 11.0371 174.713 10.3505C174.713 9.66381 175.304 9.09161 176.014 9.09161C176.723 9.09161 177.315 9.66381 177.315 10.3218C177.344 11.0371 176.783 11.6093 176.014 11.6093ZM176.014 9.17744C175.363 9.17744 174.831 9.69242 174.831 10.3218C174.831 10.9513 175.334 11.4662 176.014 11.4662C176.664 11.4662 177.196 10.9513 177.196 10.3505C177.196 9.69242 176.694 9.17744 176.014 9.17744ZM175.984 9.52077C176.398 9.52077 176.576 9.66382 176.576 9.97853C176.576 10.236 176.457 10.3505 176.221 10.4363L176.605 11.1229H176.31L175.955 10.4649H175.748V11.1229H175.482V9.52077H175.984ZM175.777 10.721H176.166C176.611 10.721 176.777 10.5544 176.777 10.221C176.777 9.8877 176.555 9.72104 176.111 9.72104H175.777V10.721Z" fill="white"/>
<path fill-rule="evenodd" clip-rule="evenodd" d="M214.5 70.5H181.5V37.5H214.5V70.5Z" stroke="#60C4FF"/>
<path fill-rule="evenodd" clip-rule="evenodd" d="M189.316 51.5709C189.316 53.5575 190.005 55.503 191.256 57.0421L192.233 56.2472C191.162 54.9316 190.573 53.2709 190.573 51.5709C190.573 49.8725 191.159 48.2126 192.227 46.8985L191.25 46.1054C190.003 47.645 189.316 49.5857 189.316 51.5709Z" fill="#60C4FF"/>
<path fill-rule="evenodd" clip-rule="evenodd" d="M186.912 51.5709C186.912 54.1031 187.789 56.5787 189.38 58.5443L190.355 57.7526C188.945 56.0105 188.167 53.816 188.167 51.5709C188.167 49.3249 188.942 47.1312 190.351 45.3915L189.373 44.5995C187.786 46.5631 186.912 49.0379 186.912 51.5709Z" fill="#60C4FF"/>
<path fill-rule="evenodd" clip-rule="evenodd" d="M184.534 51.5709C184.534 54.6478 185.601 57.6563 187.535 60.0451L188.514 59.2529C186.76 57.088 185.792 54.3594 185.792 51.5709C185.792 48.7836 186.755 46.0595 188.503 43.9L187.524 43.1072C185.596 45.4917 184.534 48.4974 184.534 51.5709Z" fill="#60C4FF"/>
<path fill-rule="evenodd" clip-rule="evenodd" d="M203.762 46.8985C204.827 48.2126 205.413 49.8725 205.413 51.5709C205.413 53.2709 204.824 54.9316 203.755 56.2472L204.73 57.0421C205.983 55.503 206.673 53.5575 206.673 51.5709C206.673 49.5857 205.986 47.645 204.738 46.1054L203.762 46.8985Z" fill="#60C4FF"/>
<path fill-rule="evenodd" clip-rule="evenodd" d="M205.637 45.3915C207.043 47.1312 207.819 49.3249 207.819 51.5709C207.819 53.816 207.042 56.0106 205.631 57.7526L206.608 58.5443C208.2 56.5787 209.076 54.1031 209.076 51.5709C209.076 49.0379 208.2 46.5631 206.614 44.5995L205.637 45.3915Z" fill="#60C4FF"/>
<path fill-rule="evenodd" clip-rule="evenodd" d="M207.485 43.9C209.232 46.0595 210.194 48.7836 210.194 51.5709C210.194 54.3594 209.228 57.088 207.474 59.2529L208.452 60.0451C210.387 57.6563 211.454 54.6478 211.454 51.5709C211.454 48.4974 210.392 45.4917 208.464 43.1072L207.485 43.9Z" fill="#60C4FF"/>
<path fill-rule="evenodd" clip-rule="evenodd" d="M192.312 51.5709C192.312 54.7036 194.861 57.2534 197.994 57.2534C201.127 57.2534 203.675 54.7036 203.675 51.5709C203.675 48.436 201.127 45.8871 197.994 45.8871C194.861 45.8871 192.312 48.436 192.312 51.5709ZM193.515 51.5709C193.515 49.1009 195.525 47.0925 197.994 47.0925C200.462 47.0925 202.47 49.1009 202.47 51.5709C202.47 54.0405 200.462 56.0481 197.994 56.0481C195.525 56.0481 193.515 54.0405 193.515 51.5709Z" fill="#60C4FF"/>
<path fill-rule="evenodd" clip-rule="evenodd" d="M187.707 67.2105H187.078L186.734 66.1337H185.538L185.211 67.2105H184.599L185.783 63.531H186.515L187.707 67.2105ZM186.643 65.6829L186.328 64.7171C186.294 64.6203 186.231 64.3879 186.14 64.0219H186.13C186.091 64.1789 186.033 64.4103 185.952 64.7171L185.643 65.6829H186.643Z" fill="#60C4FF"/>
<path fill-rule="evenodd" clip-rule="evenodd" d="M190.372 67.2104H189.853L189.821 66.8116H189.812C189.623 67.116 189.345 67.2684 188.968 67.2684C188.705 67.2684 188.498 67.189 188.341 67.0304C188.153 66.828 188.062 66.5242 188.062 66.1214V64.5554H188.652V66.0211C188.652 66.5312 188.829 66.7876 189.175 66.7876C189.435 66.7876 189.618 66.6574 189.719 66.4035C189.745 66.3389 189.758 66.264 189.758 66.1789V64.5554H190.349V66.4493C190.349 66.7003 190.356 66.9547 190.372 67.2104Z" fill="#60C4FF"/>
<path fill-rule="evenodd" clip-rule="evenodd" d="M193.469 67.2105H192.944L192.916 66.7893H192.901C192.733 67.1102 192.448 67.2684 192.048 67.2684C191.728 67.2684 191.461 67.1431 191.25 66.8939C191.037 66.6437 190.931 66.3215 190.931 65.9177C190.931 65.489 191.047 65.1424 191.277 64.8771C191.502 64.629 191.777 64.5043 192.102 64.5043C192.461 64.5043 192.712 64.6268 192.855 64.8665V63.3434H193.447V66.4988C193.447 66.7578 193.453 66.9962 193.469 67.2105ZM192.855 66.0963V65.6544C192.855 65.5772 192.85 65.5147 192.838 65.4675C192.806 65.3267 192.735 65.2056 192.625 65.1107C192.515 65.0126 192.385 64.9635 192.231 64.9635C192.013 64.9635 191.838 65.0518 191.714 65.2271C191.587 65.4025 191.526 65.6277 191.526 65.8994C191.526 66.1604 191.584 66.3768 191.705 66.539C191.832 66.7135 192.005 66.8023 192.222 66.8023C192.414 66.8023 192.567 66.7288 192.686 66.5825C192.798 66.447 192.855 66.2861 192.855 66.0963Z" fill="#60C4FF"/>
<path fill-rule="evenodd" clip-rule="evenodd" d="M195.117 63.9091C195.117 64.0616 195.068 64.1823 194.973 64.2739C194.878 64.3697 194.753 64.4137 194.601 64.4137C194.466 64.4137 194.352 64.3683 194.257 64.2695C194.165 64.1757 194.117 64.0547 194.117 63.9092C194.117 63.7677 194.165 63.6455 194.26 63.5531C194.355 63.4594 194.476 63.4137 194.617 63.4137C194.759 63.4137 194.878 63.4594 194.973 63.5531C195.068 63.6455 195.117 63.7676 195.117 63.9091ZM195.184 67.2105H194.184V64.5554H195.184V67.2105Z" fill="#60C4FF"/>
<path fill-rule="evenodd" clip-rule="evenodd" d="M197.948 65.8654C197.948 66.2734 197.832 66.6092 197.599 66.8714C197.355 67.1361 197.031 67.2684 196.626 67.2684C196.235 67.2684 195.925 67.1399 195.693 66.8832C195.463 66.6265 195.348 66.3035 195.348 65.907C195.348 65.4983 195.465 65.1607 195.704 64.8976C195.944 64.6375 196.265 64.5043 196.669 64.5043C197.06 64.5043 197.372 64.6361 197.611 64.8941C197.836 65.1435 197.948 65.4675 197.948 65.8654ZM197.337 65.8811C197.337 65.6373 197.284 65.4281 197.178 65.2523C197.054 65.0411 196.878 64.9345 196.647 64.9345C196.411 64.9345 196.231 65.0411 196.107 65.2523C196.001 65.4281 195.948 65.6428 195.948 65.8919C195.948 66.1351 196.001 66.3473 196.107 66.5207C196.233 66.7308 196.412 66.8388 196.643 66.8388C196.869 66.8388 197.045 66.7297 197.172 66.5152C197.282 66.3384 197.337 66.1253 197.337 65.8811Z" fill="#60C4FF"/>
<path fill-rule="evenodd" clip-rule="evenodd" d="M202.574 65.669C202.574 66.2104 202.441 66.6199 202.18 66.891C201.939 67.1422 201.6 67.2684 201.162 67.2684C200.265 67.2684 199.818 66.7386 199.818 65.6797V63.531H200.41V65.7105C200.41 66.0719 200.482 66.3473 200.627 66.5312C200.759 66.7051 200.943 66.7948 201.185 66.7948C201.716 66.7948 201.981 66.4334 201.981 65.7105V63.531H202.574V65.669Z" fill="#60C4FF"/>
<path fill-rule="evenodd" clip-rule="evenodd" d="M205.617 67.2105H205.024V65.6918C205.024 65.2202 204.847 64.9859 204.49 64.9859C204.314 64.9859 204.171 65.0518 204.061 65.181C203.952 65.3108 203.898 65.4632 203.898 65.6373V67.2105H203.304V65.3165C203.304 65.0831 203.297 64.8312 203.284 64.5554H203.804L203.831 64.9667H203.848C203.919 64.8433 204.02 64.7354 204.154 64.6521C204.316 64.554 204.494 64.5043 204.692 64.5043C204.939 64.5043 205.145 64.5848 205.31 64.7452C205.514 64.9409 205.617 65.2346 205.617 65.6267V67.2105Z" fill="#60C4FF"/>
<path fill-rule="evenodd" clip-rule="evenodd" d="M207.23 63.9091C207.23 64.0616 207.185 64.1823 207.088 64.2739C206.992 64.3697 206.867 64.4137 206.715 64.4137C206.579 64.4137 206.464 64.3683 206.369 64.2695C206.278 64.1757 206.23 64.0547 206.23 63.9092C206.23 63.7677 206.279 63.6455 206.373 63.5531C206.47 63.4594 206.589 63.4137 206.73 63.4137C206.872 63.4137 206.992 63.4594 207.088 63.5531C207.185 63.6455 207.23 63.7676 207.23 63.9091ZM207.296 67.2105H206.296V64.5554H207.296V67.2105Z" fill="#60C4FF"/>
<path fill-rule="evenodd" clip-rule="evenodd" d="M208.971 65.001H208.318V66.2894C208.318 66.6161 208.433 66.7785 208.663 66.7785C208.768 66.7785 208.856 66.7733 208.926 66.7564L208.943 67.2029C208.826 67.2403 208.672 67.2618 208.484 67.2618C208.249 67.2618 208.068 67.1922 207.937 67.0537C207.804 66.9102 207.74 66.6731 207.74 66.3418V65.001H207.352V64.5554H207.74V64.0732L208.318 63.8994V64.5554H208.971V65.001Z" fill="#60C4FF"/>
<path fill-rule="evenodd" clip-rule="evenodd" d="M211.107 66.447C211.107 66.6957 211.015 66.8919 210.833 67.0411C210.651 67.189 210.399 67.2618 210.079 67.2618C209.776 67.2618 209.519 67.2042 209.308 67.0902L209.433 66.6508C209.638 66.7755 209.853 66.8388 210.084 66.8388C210.384 66.8388 210.536 66.7255 210.536 66.5027C210.536 66.4066 210.502 66.3259 210.437 66.2627C210.372 66.1967 210.256 66.1337 210.088 66.0742C209.617 65.8972 209.381 65.6436 209.381 65.3066C209.381 65.0776 209.467 64.8877 209.643 64.7324C209.817 64.5809 210.048 64.5043 210.335 64.5043C210.598 64.5043 210.822 64.5576 211.007 64.6637L210.882 65.0831C210.713 64.9793 210.532 64.9284 210.344 64.9284C210.22 64.9284 210.122 64.956 210.053 65.0158C209.985 65.0755 209.95 65.1499 209.95 65.2403C209.95 65.3333 209.989 65.4061 210.059 65.4632C210.121 65.5189 210.242 65.5806 210.419 65.646C210.877 65.8196 211.107 66.0879 211.107 66.447Z" fill="#60C4FF"/>
<path fill-rule="evenodd" clip-rule="evenodd" d="M214.5 34.5H181.5V1.5H214.5V34.5Z" stroke="white"/>
<path fill-rule="evenodd" clip-rule="evenodd" d="M189.316 15.5709C189.316 17.5575 190.005 19.503 191.256 21.0422L192.233 20.2473C191.162 18.9316 190.573 17.2709 190.573 15.5709C190.573 13.8725 191.159 12.2126 192.227 10.8985L191.25 10.1054C190.004 11.645 189.316 13.5857 189.316 15.5709Z" fill="white"/>
<path fill-rule="evenodd" clip-rule="evenodd" d="M186.912 15.5709C186.912 18.1032 187.789 20.5788 189.38 22.5444L190.355 21.7527C188.945 20.0106 188.167 17.816 188.167 15.5709C188.167 13.3249 188.942 11.1312 190.351 9.39149L189.373 8.59955C187.786 10.5631 186.912 13.0379 186.912 15.5709Z" fill="white"/>
<path fill-rule="evenodd" clip-rule="evenodd" d="M184.534 15.5709C184.534 18.6478 185.601 21.6563 187.535 24.0451L188.514 23.2529C186.76 21.088 185.792 18.3594 185.792 15.5709C185.792 12.7835 186.755 10.0595 188.503 7.90002L187.524 7.10718C185.596 9.49166 184.534 12.4974 184.534 15.5709Z" fill="white"/>
<path fill-rule="evenodd" clip-rule="evenodd" d="M203.762 10.8985C204.827 12.2126 205.413 13.8725 205.413 15.5709C205.413 17.2709 204.824 18.9316 203.755 20.2472L204.73 21.0421C205.983 19.503 206.673 17.5575 206.673 15.5709C206.673 13.5857 205.986 11.645 204.738 10.1054L203.762 10.8985Z" fill="white"/>
<path fill-rule="evenodd" clip-rule="evenodd" d="M205.637 9.39149C207.043 11.1312 207.819 13.3249 207.819 15.5709C207.819 17.816 207.042 20.0105 205.631 21.7526L206.608 22.5443C208.2 20.5787 209.076 18.1031 209.076 15.5709C209.076 13.0379 208.2 10.5631 206.614 8.59955L205.637 9.39149Z" fill="white"/>
<path fill-rule="evenodd" clip-rule="evenodd" d="M207.485 7.90004C209.232 10.0595 210.194 12.7835 210.194 15.5709C210.194 18.3594 209.228 21.088 207.474 23.2529L208.452 24.0451C210.387 21.6563 211.454 18.6478 211.454 15.5709C211.454 12.4974 210.392 9.49166 208.464 7.10718L207.485 7.90004Z" fill="white"/>
<path fill-rule="evenodd" clip-rule="evenodd" d="M192.312 15.5709C192.312 18.7036 194.861 21.2534 197.994 21.2534C201.127 21.2534 203.675 18.7036 203.675 15.5709C203.675 12.436 201.127 9.88708 197.994 9.88708C194.861 9.88708 192.312 12.436 192.312 15.5709ZM193.515 15.5709C193.515 13.1009 195.525 11.0925 197.994 11.0925C200.462 11.0925 202.47 13.1009 202.47 15.5709C202.47 18.0405 200.462 20.0481 197.994 20.0481C195.525 20.0481 193.515 18.0405 193.515 15.5709Z" fill="white"/>
<path fill-rule="evenodd" clip-rule="evenodd" d="M187.707 31.2105H187.078L186.734 30.1337H185.538L185.211 31.2105H184.599L185.783 27.531H186.515L187.707 31.2105ZM186.643 29.6829L186.328 28.7171C186.294 28.6203 186.231 28.3879 186.14 28.0219H186.129C186.091 28.1789 186.033 28.4103 185.952 28.7171L185.643 29.6829H186.643Z" fill="white"/>
<path fill-rule="evenodd" clip-rule="evenodd" d="M190.372 31.2105H189.853L189.821 30.8116H189.812C189.623 31.116 189.345 31.2684 188.968 31.2684C188.705 31.2684 188.498 31.189 188.341 31.0304C188.153 30.828 188.062 30.5242 188.062 30.1215V28.5554H188.652V30.0211C188.652 30.5312 188.829 30.7877 189.175 30.7877C189.435 30.7877 189.618 30.6574 189.719 30.4035C189.745 30.3389 189.758 30.264 189.758 30.1789V28.5554H190.349V30.4493C190.349 30.7003 190.356 30.9547 190.372 31.2105Z" fill="white"/>
<path fill-rule="evenodd" clip-rule="evenodd" d="M193.469 31.2104H192.944L192.916 30.7892H192.901C192.733 31.1102 192.448 31.2684 192.048 31.2684C191.728 31.2684 191.461 31.1431 191.25 30.8939C191.037 30.6437 190.931 30.3215 190.931 29.9177C190.931 29.489 191.047 29.1424 191.277 28.8771C191.502 28.629 191.777 28.5043 192.102 28.5043C192.461 28.5043 192.712 28.6268 192.855 28.8665V27.3433H193.447V30.4988C193.447 30.7578 193.453 30.9961 193.469 31.2104ZM192.855 30.0963V29.6544C192.855 29.5772 192.85 29.5147 192.838 29.4675C192.806 29.3267 192.735 29.2056 192.625 29.1107C192.515 29.0126 192.385 28.9635 192.231 28.9635C192.013 28.9635 191.838 29.0518 191.714 29.2271C191.587 29.4025 191.526 29.6277 191.526 29.8994C191.526 30.1604 191.584 30.3767 191.705 30.539C191.832 30.7135 192.005 30.8022 192.222 30.8022C192.414 30.8022 192.567 30.7288 192.686 30.5825C192.798 30.447 192.855 30.2862 192.855 30.0963Z" fill="white"/>
<path fill-rule="evenodd" clip-rule="evenodd" d="M195.117 27.9091C195.117 28.0616 195.068 28.1823 194.973 28.2739C194.878 28.3697 194.753 28.4137 194.601 28.4137C194.466 28.4137 194.352 28.3683 194.257 28.2694C194.165 28.1757 194.117 28.0547 194.117 27.9091C194.117 27.7678 194.165 27.6455 194.26 27.5531C194.355 27.4594 194.476 27.4137 194.617 27.4137C194.759 27.4137 194.878 27.4594 194.973 27.5531C195.068 27.6455 195.117 27.7678 195.117 27.9091ZM195.184 31.2105H194.184V28.5554H195.184V31.2105Z" fill="white"/>
<path fill-rule="evenodd" clip-rule="evenodd" d="M197.948 29.8655C197.948 30.2734 197.832 30.6092 197.599 30.8714C197.355 31.1361 197.031 31.2684 196.626 31.2684C196.235 31.2684 195.925 31.1399 195.693 30.8833C195.463 30.6266 195.348 30.3035 195.348 29.907C195.348 29.4983 195.465 29.1607 195.704 28.8976C195.944 28.6375 196.265 28.5043 196.669 28.5043C197.06 28.5043 197.372 28.6361 197.611 28.8941C197.836 29.1435 197.948 29.4675 197.948 29.8655ZM197.337 29.8812C197.337 29.6373 197.284 29.4281 197.178 29.2523C197.054 29.0411 196.878 28.9345 196.647 28.9345C196.411 28.9345 196.231 29.0411 196.107 29.2523C196.001 29.4281 195.948 29.6428 195.948 29.8919C195.948 30.1351 196.001 30.3473 196.107 30.5207C196.233 30.7308 196.412 30.8388 196.643 30.8388C196.869 30.8388 197.045 30.7297 197.172 30.5152C197.282 30.3384 197.337 30.1254 197.337 29.8812Z" fill="white"/>
<path fill-rule="evenodd" clip-rule="evenodd" d="M202.574 29.669C202.574 30.2104 202.441 30.62 202.18 30.891C201.939 31.1422 201.6 31.2684 201.162 31.2684C200.265 31.2684 199.818 30.7386 199.818 29.6797V27.531H200.41V29.7105C200.41 30.0719 200.482 30.3473 200.627 30.5312C200.759 30.7051 200.943 30.7948 201.185 30.7948C201.716 30.7948 201.981 30.4334 201.981 29.7105V27.531H202.574V29.669Z" fill="white"/>
<path fill-rule="evenodd" clip-rule="evenodd" d="M205.617 31.2105H205.024V29.6918C205.024 29.2202 204.847 28.9859 204.49 28.9859C204.314 28.9859 204.171 29.0518 204.061 29.181C203.952 29.3108 203.898 29.4632 203.898 29.6373V31.2105H203.305V29.3165C203.305 29.0831 203.297 28.8312 203.284 28.5554H203.804L203.831 28.9667H203.848C203.919 28.8433 204.02 28.7354 204.154 28.6521C204.316 28.554 204.494 28.5043 204.692 28.5043C204.939 28.5043 205.145 28.5848 205.31 28.7452C205.514 28.9409 205.617 29.2346 205.617 29.6267V31.2105Z" fill="white"/>
<path fill-rule="evenodd" clip-rule="evenodd" d="M207.23 27.9091C207.23 28.0616 207.185 28.1823 207.088 28.2739C206.992 28.3697 206.867 28.4137 206.715 28.4137C206.579 28.4137 206.464 28.3683 206.369 28.2694C206.278 28.1757 206.23 28.0547 206.23 27.9091C206.23 27.7678 206.279 27.6455 206.373 27.5531C206.47 27.4594 206.589 27.4137 206.73 27.4137C206.872 27.4137 206.992 27.4594 207.088 27.5531C207.185 27.6455 207.23 27.7678 207.23 27.9091ZM207.296 31.2105H206.296V28.5554H207.296V31.2105Z" fill="white"/>
<path fill-rule="evenodd" clip-rule="evenodd" d="M208.971 29.001H208.318V30.2894C208.318 30.6161 208.433 30.7785 208.663 30.7785C208.768 30.7785 208.856 30.7733 208.926 30.7564L208.943 31.2029C208.826 31.2404 208.672 31.2618 208.484 31.2618C208.249 31.2618 208.068 31.1922 207.937 31.0537C207.804 30.9102 207.74 30.6731 207.74 30.3418V29.001H207.352V28.5554H207.74V28.0733L208.318 27.8994V28.5554H208.971V29.001Z" fill="white"/>
<path fill-rule="evenodd" clip-rule="evenodd" d="M211.107 30.447C211.107 30.6957 211.015 30.8919 210.833 31.0411C210.651 31.189 210.399 31.2618 210.079 31.2618C209.776 31.2618 209.519 31.2042 209.308 31.0902L209.433 30.6508C209.638 30.7755 209.853 30.8388 210.084 30.8388C210.384 30.8388 210.536 30.7256 210.536 30.5027C210.536 30.4066 210.502 30.3259 210.437 30.2626C210.372 30.1967 210.256 30.1337 210.088 30.0742C209.617 29.8972 209.381 29.6436 209.381 29.3066C209.381 29.0776 209.467 28.8877 209.643 28.7324C209.817 28.5809 210.048 28.5043 210.335 28.5043C210.598 28.5043 210.822 28.5576 211.007 28.6637L210.882 29.0831C210.713 28.9793 210.532 28.9284 210.344 28.9284C210.22 28.9284 210.122 28.956 210.053 29.0158C209.985 29.0756 209.95 29.1499 209.95 29.2403C209.95 29.3333 209.989 29.4061 210.059 29.4632C210.121 29.5189 210.242 29.5807 210.419 29.646C210.877 29.8196 211.107 30.0879 211.107 30.447Z" fill="white"/>
<path fill-rule="evenodd" clip-rule="evenodd" d="M234.17 67.33C226.35 67.33 220 60.97 220 53.16C220 45.35 226.36 38.98 234.17 38.98C241.98 38.98 248.34 45.34 248.34 53.15C248.34 60.96 241.99 67.33 234.17 67.33ZM234.17 39.93C226.88 39.93 220.94 45.86 220.94 53.16C220.94 60.46 226.87 66.39 234.17 66.39C241.47 66.39 247.4 60.46 247.4 53.16C247.4 45.86 241.47 39.93 234.17 39.93Z" fill="#60C4FF"/>
<path fill-rule="evenodd" clip-rule="evenodd" d="M245.36 52.68C245.6 52.68 245.84 52.59 246.01 52.42C246.2 52.23 246.28 51.98 246.25 51.72C245.99 49.5 245.11 47.39 243.72 45.63C243.55 45.41 243.31 45.3 243.06 45.3C242.83 45.3 242.61 45.4 242.44 45.57L235.6 52.4C235.49 52.51 235.57 52.69 235.72 52.69L245.36 52.68Z" fill="#60C4FF"/>
<path fill-rule="evenodd" clip-rule="evenodd" d="M243.06 61.02C243.32 61.02 243.55 60.9 243.72 60.69C245.11 58.93 245.98 56.82 246.25 54.6C246.28 54.34 246.19 54.09 246.01 53.9C245.84 53.73 245.6 53.64 245.36 53.64H235.72C235.57 53.64 235.5 53.82 235.6 53.93L242.44 60.77C242.61 60.92 242.83 61.02 243.06 61.02Z" fill="#60C4FF"/>
<path fill-rule="evenodd" clip-rule="evenodd" d="M234.9 65C235.08 65.18 235.33 65.27 235.61 65.23C237.84 64.97 239.95 64.1 241.7 62.71C241.91 62.55 242.02 62.31 242.03 62.04C242.03 61.8 241.93 61.57 241.75 61.4L234.94 54.59C234.83 54.48 234.65 54.56 234.65 54.71V64.38C234.65 64.61 234.73 64.84 234.9 65Z" fill="#60C4FF"/>
<path fill-rule="evenodd" clip-rule="evenodd" d="M225.29 45.29C225.03 45.29 224.8 45.41 224.63 45.62C223.24 47.38 222.37 49.49 222.1 51.71C222.07 51.97 222.16 52.22 222.34 52.41C222.51 52.58 222.75 52.67 222.99 52.67H232.63C232.78 52.67 232.85 52.49 232.75 52.38L225.91 45.56C225.74 45.39 225.52 45.29 225.29 45.29Z" fill="#60C4FF"/>
<path fill-rule="evenodd" clip-rule="evenodd" d="M233.45 41.31C233.27 41.13 233.02 41.04 232.74 41.08C230.52 41.34 228.41 42.21 226.65 43.6C226.44 43.76 226.33 44 226.32 44.27C226.32 44.51 226.42 44.74 226.6 44.91L233.41 51.72C233.52 51.83 233.7 51.75 233.7 51.6V41.93C233.7 41.7 233.61 41.48 233.45 41.31Z" fill="#60C4FF"/>
<path fill-rule="evenodd" clip-rule="evenodd" d="M242.04 44.27C242.04 44.01 241.92 43.78 241.71 43.61C239.95 42.22 237.84 41.35 235.62 41.08C235.36 41.05 235.11 41.14 234.92 41.32C234.75 41.49 234.66 41.73 234.66 41.97V51.61C234.66 51.76 234.84 51.83 234.95 51.73L241.79 44.89C241.94 44.72 242.04 44.5 242.04 44.27Z" fill="#60C4FF"/>
<path fill-rule="evenodd" clip-rule="evenodd" d="M232.63 53.63H222.99C222.75 53.63 222.51 53.72 222.34 53.89C222.15 54.08 222.07 54.33 222.1 54.59C222.36 56.81 223.24 58.92 224.63 60.68C224.8 60.9 225.04 61.01 225.29 61.01C225.52 61.01 225.74 60.91 225.91 60.74L232.75 53.9C232.85 53.81 232.78 53.63 232.63 53.63Z" fill="#60C4FF"/>
<path fill-rule="evenodd" clip-rule="evenodd" d="M233.42 54.58L226.6 61.4C226.43 61.57 226.32 61.8 226.32 62.04C226.32 62.31 226.44 62.55 226.65 62.71C228.41 64.1 230.51 64.97 232.74 65.23C233.01 65.26 233.26 65.18 233.45 65C233.61 64.84 233.7 64.62 233.7 64.37V54.7C233.7 54.55 233.52 54.48 233.42 54.58Z" fill="#60C4FF"/>
<path fill-rule="evenodd" clip-rule="evenodd" d="M234.17 31.35C226.35 31.35 220 24.99 220 17.18C220 9.37 226.36 3 234.17 3C241.98 3 248.34 9.36 248.34 17.17C248.34 24.98 241.99 31.35 234.17 31.35ZM234.17 3.95C226.88 3.95 220.94 9.88 220.94 17.18C220.94 24.48 226.87 30.41 234.17 30.41C241.47 30.41 247.4 24.48 247.4 17.18C247.4 9.88 241.47 3.95 234.17 3.95Z" fill="white"/>
<path fill-rule="evenodd" clip-rule="evenodd" d="M245.36 16.7C245.6 16.7 245.84 16.61 246.01 16.44C246.2 16.25 246.28 16 246.25 15.74C245.99 13.52 245.11 11.41 243.72 9.65001C243.55 9.43001 243.31 9.32001 243.06 9.32001C242.83 9.32001 242.61 9.42001 242.44 9.59001L235.6 16.42C235.49 16.53 235.57 16.71 235.72 16.71L245.36 16.7Z" fill="white"/>
<path fill-rule="evenodd" clip-rule="evenodd" d="M243.06 25.04C243.32 25.04 243.55 24.92 243.72 24.71C245.11 22.95 245.98 20.84 246.25 18.62C246.28 18.36 246.19 18.11 246.01 17.92C245.84 17.75 245.6 17.66 245.36 17.66H235.72C235.57 17.66 235.5 17.84 235.6 17.95L242.44 24.79C242.61 24.94 242.83 25.04 243.06 25.04Z" fill="white"/>
<path fill-rule="evenodd" clip-rule="evenodd" d="M234.9 29.02C235.08 29.2 235.33 29.29 235.61 29.25C237.84 28.99 239.95 28.12 241.7 26.73C241.91 26.57 242.02 26.33 242.03 26.06C242.03 25.82 241.93 25.59 241.75 25.42L234.94 18.61C234.83 18.5 234.65 18.58 234.65 18.73V28.4C234.65 28.63 234.73 28.86 234.9 29.02Z" fill="white"/>
<path fill-rule="evenodd" clip-rule="evenodd" d="M225.29 9.31C225.03 9.31 224.8 9.43 224.63 9.64C223.24 11.4 222.37 13.51 222.1 15.73C222.07 15.99 222.16 16.24 222.34 16.43C222.51 16.6 222.75 16.69 222.99 16.69H232.63C232.78 16.69 232.85 16.51 232.75 16.4L225.91 9.58C225.74 9.41 225.52 9.31 225.29 9.31Z" fill="white"/>
<path fill-rule="evenodd" clip-rule="evenodd" d="M233.45 5.33002C233.27 5.15002 233.02 5.06002 232.74 5.10002C230.52 5.36002 228.41 6.23002 226.65 7.62002C226.44 7.78002 226.33 8.02002 226.32 8.29002C226.32 8.53002 226.42 8.76002 226.6 8.93002L233.41 15.74C233.52 15.85 233.7 15.77 233.7 15.62V5.95002C233.7 5.72002 233.61 5.50002 233.45 5.33002Z" fill="white"/>
<path fill-rule="evenodd" clip-rule="evenodd" d="M242.04 8.28998C242.04 8.02998 241.92 7.79998 241.71 7.62998C239.95 6.23998 237.84 5.36998 235.62 5.09998C235.36 5.06998 235.11 5.15998 234.92 5.33998C234.75 5.50998 234.66 5.74998 234.66 5.98998V15.63C234.66 15.78 234.84 15.85 234.95 15.75L241.79 8.90998C241.94 8.73998 242.04 8.51998 242.04 8.28998Z" fill="white"/>
<path fill-rule="evenodd" clip-rule="evenodd" d="M232.63 17.65H222.99C222.75 17.65 222.51 17.74 222.34 17.91C222.15 18.1 222.07 18.35 222.1 18.61C222.36 20.83 223.24 22.94 224.63 24.7C224.8 24.92 225.04 25.03 225.29 25.03C225.52 25.03 225.74 24.93 225.91 24.76L232.75 17.92C232.85 17.83 232.78 17.65 232.63 17.65Z" fill="white"/>
<path fill-rule="evenodd" clip-rule="evenodd" d="M233.42 18.6L226.6 25.42C226.43 25.59 226.32 25.82 226.32 26.06C226.32 26.33 226.44 26.57 226.65 26.73C228.41 28.12 230.51 28.99 232.74 29.25C233.01 29.28 233.26 29.2 233.45 29.02C233.61 28.86 233.7 28.64 233.7 28.39V18.72C233.7 18.57 233.52 18.5 233.42 18.6Z" fill="white"/>
</svg>
