<svg width="288" height="72" viewBox="0 0 288 72" fill="none" xmlns="http://www.w3.org/2000/svg">
<path fill-rule="evenodd" clip-rule="evenodd" d="M18 39.2999C10.044 39.2999 3.60001 46.0124 3.60001 54.3C3.60001 60.9375 7.72201 66.5437 13.446 68.5312C14.166 68.6625 14.436 68.2125 14.436 67.8187C14.436 67.4625 14.418 66.2812 14.418 65.025C10.8 65.7187 9.86401 64.1062 9.57601 63.2625C9.41401 62.8312 8.71201 61.5 8.10001 61.1437C7.59601 60.8625 6.87601 60.1687 8.08201 60.15C9.21601 60.1312 10.026 61.2375 10.296 61.6875C11.592 63.9562 13.662 63.3187 14.49 62.925C14.616 61.95 14.994 61.2937 15.408 60.9187C12.204 60.5437 8.85601 59.25 8.85601 53.5125C8.85601 51.8812 9.41401 50.5311 10.332 49.4811C10.188 49.1062 9.68401 47.5686 10.476 45.5061C10.476 45.5061 11.682 45.1124 14.436 47.0437C15.588 46.7062 16.812 46.5374 18.036 46.5374C19.26 46.5374 20.484 46.7062 21.636 47.0437C24.39 45.0937 25.596 45.5061 25.596 45.5061C26.388 47.5686 25.884 49.1062 25.74 49.4811C26.658 50.5311 27.216 51.8625 27.216 53.5125C27.216 59.2687 23.85 60.5437 20.646 60.9187C21.168 61.3875 21.618 62.2875 21.618 63.6937C21.618 65.7 21.6 67.3125 21.6 67.8187C21.6 68.2125 21.87 68.6812 22.59 68.5312C28.278 66.5437 32.4 60.9187 32.4 54.3C32.4 46.0124 25.956 39.2999 18 39.2999Z" fill="#60C4FF"/>
<path fill-rule="evenodd" clip-rule="evenodd" d="M18 3.29993C10.044 3.29993 3.60001 10.0124 3.60001 18.3C3.60001 24.9375 7.72201 30.5437 13.446 32.5312C14.166 32.6625 14.436 32.2125 14.436 31.8187C14.436 31.4625 14.418 30.2812 14.418 29.025C10.8 29.7187 9.86401 28.1062 9.57601 27.2625C9.41401 26.8312 8.71201 25.5 8.10001 25.1437C7.59601 24.8625 6.87601 24.1687 8.08201 24.15C9.21601 24.1312 10.026 25.2375 10.296 25.6875C11.592 27.9562 13.662 27.3187 14.49 26.925C14.616 25.95 14.994 25.2937 15.408 24.9187C12.204 24.5437 8.85601 23.25 8.85601 17.5125C8.85601 15.8812 9.41401 14.5312 10.332 13.4811C10.188 13.1062 9.68401 11.5687 10.476 9.50618C10.476 9.50618 11.682 9.11243 14.436 11.0437C15.588 10.7062 16.812 10.5374 18.036 10.5374C19.26 10.5374 20.484 10.7062 21.636 11.0437C24.39 9.09368 25.596 9.50618 25.596 9.50618C26.388 11.5687 25.884 13.1062 25.74 13.4811C26.658 14.5312 27.216 15.8625 27.216 17.5125C27.216 23.2687 23.85 24.5437 20.646 24.9187C21.168 25.3875 21.618 26.2875 21.618 27.6937C21.618 29.7 21.6 31.3125 21.6 31.8187C21.6 32.2125 21.87 32.6812 22.59 32.5312C28.278 30.5437 32.4 24.9187 32.4 18.3C32.4 10.0124 25.956 3.29993 18 3.29993Z" fill="white"/>
<path fill-rule="evenodd" clip-rule="evenodd" d="M50.952 51.3002C50 51.3002 49.2483 52.111 49.2483 53.1002C49.2483 54.0895 50.0167 54.9002 50.952 54.9002C51.9041 54.9002 52.6558 54.0895 52.6558 53.1002C52.6725 52.111 51.9041 51.3002 50.952 51.3002ZM57.0487 51.3002C56.0965 51.3002 55.3449 52.111 55.3449 53.1002C55.3449 54.0895 56.1132 54.9002 57.0487 54.9002C58.0007 54.9002 58.7523 54.0895 58.7523 53.1002C58.7523 52.111 58.0007 51.3002 57.0487 51.3002Z" fill="#60C4FF"/>
<path fill-rule="evenodd" clip-rule="evenodd" d="M64.9162 36.9001H43.0841C41.2431 36.9001 39.7441 38.4733 39.7441 40.4227V63.5419C39.7441 65.4913 41.2431 67.0645 43.0841 67.0645H61.5598L60.6964 63.901L62.7818 65.9359L64.7532 67.8511L68.2561 71.1001V40.4227C68.2561 38.4733 66.7572 36.9001 64.9162 36.9001ZM58.6273 59.2327C58.6273 59.2327 58.0406 58.4974 57.5519 57.8476C59.6862 57.2149 60.5008 55.8127 60.5008 55.8127C59.8328 56.2744 59.1975 56.5993 58.6273 56.8216C57.8125 57.1807 57.0306 57.4201 56.2648 57.5569C54.7007 57.8647 53.267 57.7792 52.045 57.5398C51.1164 57.3517 50.318 57.0781 49.65 56.8045C49.2753 56.6506 48.868 56.4625 48.4607 56.2231C48.4118 56.1889 48.3629 56.1718 48.314 56.1376C48.2814 56.1205 48.2652 56.1034 48.2489 56.0863C47.9556 55.9153 47.7927 55.7956 47.7927 55.7956C47.7927 55.7956 48.5747 57.1636 50.6439 57.8134C50.1551 58.4632 49.5523 59.2327 49.5523 59.2327C45.9516 59.113 44.583 56.6335 44.583 56.6335C44.583 51.1273 46.9292 46.6642 46.9292 46.6642C49.2753 44.8174 51.5073 44.8687 51.5073 44.8687L51.6703 45.0739C48.7376 45.9631 47.3854 47.314 47.3854 47.314C47.3854 47.314 47.7438 47.1088 48.3466 46.8181C50.0899 46.0144 51.4748 45.7921 52.045 45.7408C52.1428 45.7237 52.2241 45.7066 52.3219 45.7066C53.3158 45.5698 54.44 45.5356 55.613 45.6724C57.1609 45.8605 58.8227 46.3393 60.5171 47.314C60.5171 47.314 59.23 46.0315 56.4603 45.1423L56.6884 44.8687C56.6884 44.8687 58.9204 44.8174 61.2666 46.6642C61.2666 46.6642 63.6127 51.1273 63.6127 56.6335C63.6127 56.6335 62.2278 59.113 58.6273 59.2327Z" fill="#60C4FF"/>
<path fill-rule="evenodd" clip-rule="evenodd" d="M50.9519 15.3002C49.9999 15.3002 49.2483 16.111 49.2483 17.1002C49.2483 18.0895 50.0166 18.9002 50.9519 18.9002C51.904 18.9002 52.6557 18.0895 52.6557 17.1002C52.6724 16.111 51.904 15.3002 50.9519 15.3002ZM57.0486 15.3002C56.0965 15.3002 55.3448 16.111 55.3448 17.1002C55.3448 18.0895 56.1132 18.9002 57.0486 18.9002C58.0006 18.9002 58.7522 18.0895 58.7522 17.1002C58.7522 16.111 58.0006 15.3002 57.0486 15.3002Z" fill="white"/>
<path fill-rule="evenodd" clip-rule="evenodd" d="M64.9162 0.900146H43.0841C41.2431 0.900146 39.7441 2.47335 39.7441 4.42275V27.5419C39.7441 29.4913 41.2431 31.0645 43.0841 31.0645H61.5598L60.6964 27.901L62.7818 29.9359L64.7532 31.8511L68.2561 35.1001V4.42275C68.2561 2.47335 66.7572 0.900146 64.9162 0.900146ZM58.6273 23.2327C58.6273 23.2327 58.0406 22.4974 57.5519 21.8476C59.6862 21.2149 60.5008 19.8127 60.5008 19.8127C59.8328 20.2744 59.1975 20.5993 58.6273 20.8216C57.8125 21.1807 57.0306 21.4201 56.2648 21.5569C54.7007 21.8647 53.267 21.7792 52.045 21.5398C51.1164 21.3517 50.318 21.0781 49.65 20.8045C49.2753 20.6506 48.868 20.4625 48.4607 20.2231C48.4118 20.1889 48.3629 20.1718 48.314 20.1376C48.2814 20.1205 48.2652 20.1034 48.2489 20.0863C47.9556 19.9153 47.7927 19.7956 47.7927 19.7956C47.7927 19.7956 48.5747 21.1636 50.6439 21.8134C50.1551 22.4632 49.5523 23.2327 49.5523 23.2327C45.9516 23.113 44.583 20.6335 44.583 20.6335C44.583 15.1273 46.9292 10.6642 46.9292 10.6642C49.2753 8.81745 51.5073 8.86875 51.5073 8.86875L51.6703 9.07395C48.7376 9.96315 47.3854 11.314 47.3854 11.314C47.3854 11.314 47.7438 11.1088 48.3466 10.8181C50.0899 10.0144 51.4748 9.79215 52.045 9.74085C52.1428 9.72375 52.2241 9.70665 52.3219 9.70665C53.3158 9.56985 54.44 9.53565 55.613 9.67245C57.1609 9.86055 58.8227 10.3393 60.5171 11.314C60.5171 11.314 59.23 10.0315 56.4603 9.14235L56.6884 8.86875C56.6884 8.86875 58.9204 8.81745 61.2666 10.6642C61.2666 10.6642 63.6127 15.1273 63.6127 20.6335C63.6127 20.6335 62.2278 23.113 58.6273 23.2327Z" fill="white"/>
<path fill-rule="evenodd" clip-rule="evenodd" d="M95.5027 37.2H104.394L90.6974 61.2421C89.9149 62.5819 89.1517 63.613 88.4081 64.3357C87.6635 65.0588 86.9761 65.584 86.3459 65.9125C85.7152 66.241 85.1731 66.4319 84.7188 66.4838C84.265 66.5366 83.9488 66.5627 83.7732 66.5627H75.6V45.7923H83.2435L83.2815 60.0595L95.5027 37.2Z" fill="#60C4FF"/>
<path fill-rule="evenodd" clip-rule="evenodd" d="M78.4655 69.2174C78.4778 69.1274 78.4627 69.0652 78.4197 69.0308H78.422C78.3823 68.9999 78.3251 68.9842 78.2502 68.9842H76.8292C76.7442 68.9842 76.6656 69.0037 76.593 69.0451C76.529 69.079 76.4888 69.1204 76.4723 69.1675L76.3219 69.5993H77.3704L77.2648 69.902H76.2159L75.8937 70.8247H75.6007L76.1803 69.1675C76.2278 69.0328 76.3265 68.9161 76.4764 68.8195C76.6218 68.7266 76.7753 68.6795 76.9353 68.6795H78.3562C78.507 68.6795 78.6186 68.7238 78.6926 68.809C78.7735 68.8961 78.7963 69.0328 78.7598 69.217L78.4655 69.2174Z" fill="#60C4FF"/>
<path fill-rule="evenodd" clip-rule="evenodd" d="M80.5635 69.7969C80.5694 69.7112 80.5443 69.6532 80.4899 69.6226C80.4693 69.6098 80.446 69.5998 80.4204 69.5945C80.3944 69.5903 80.3674 69.5875 80.3391 69.5875H79.6531C79.584 69.5875 79.5155 69.6017 79.4474 69.6298C79.3692 69.6602 79.3226 69.6998 79.3053 69.7469L78.9286 70.8253H78.6361L79.1741 69.2855H79.4671L79.4446 69.3499C79.5022 69.3269 79.5562 69.3109 79.6064 69.3008C79.6563 69.2908 79.7065 69.2855 79.7563 69.2855H80.4446C80.5753 69.2855 80.6819 69.3203 80.7646 69.3889C80.8642 69.4732 80.8934 69.6083 80.8532 69.7969H80.5635Z" fill="#60C4FF"/>
<path fill-rule="evenodd" clip-rule="evenodd" d="M83.1647 69.7426C83.1154 69.8854 83.0062 70.0021 82.8394 70.0934C82.7018 70.1692 82.5619 70.2058 82.4207 70.2058H81.7342C81.6885 70.2058 81.6469 70.2016 81.6067 70.1939C81.5674 70.1858 81.5194 70.1707 81.4632 70.1473L81.3914 70.3534L81.3896 70.3582C81.3796 70.4015 81.4033 70.4396 81.4623 70.4738C81.4874 70.4924 81.5139 70.5043 81.5409 70.5124C81.5688 70.52 81.5962 70.5229 81.6241 70.5229H82.3105C82.3384 70.5229 82.3677 70.52 82.3965 70.5158C82.4257 70.5106 82.4554 70.5014 82.4847 70.4887C82.5615 70.4572 82.6268 70.3991 82.6803 70.3139H82.9701C82.88 70.501 82.7562 70.6357 82.598 70.7195C82.4682 70.7896 82.3375 70.8253 82.2054 70.8253H81.5194C81.3873 70.8253 81.2767 70.789 81.1872 70.7171C81.0756 70.6267 81.045 70.5082 81.0971 70.361L81.3124 69.745C81.3636 69.5989 81.4696 69.4826 81.63 69.3961C81.7653 69.3227 81.9074 69.2855 82.0578 69.2855H82.7434C82.8878 69.2855 83.003 69.3208 83.0889 69.3917C83.1903 69.4784 83.2159 69.5945 83.1647 69.7426ZM82.8934 70.0086C82.9074 69.8855 82.8934 69.7786 82.8506 69.6839C82.805 69.5656 82.7389 69.5055 82.6524 69.5055H81.9563C81.8958 69.5055 81.8274 69.5505 81.7502 69.639C81.6692 69.7308 81.6208 69.8524 81.6041 70.0024C81.5878 70.1482 81.6083 70.2684 81.666 70.3645C81.7176 70.4592 81.7776 70.5055 81.8442 70.5055H82.5431C82.6259 70.5055 82.7045 70.4487 82.778 70.3347C82.8409 70.2414 82.8795 70.1331 82.8934 70.0086Z" fill="#60C4FF"/>
<path fill-rule="evenodd" clip-rule="evenodd" d="M85.464 69.7426C85.4147 69.8854 85.3059 70.0021 85.1391 70.0934C85.001 70.1692 84.8617 70.2058 84.7204 70.2058H84.034C83.9882 70.2058 83.9467 70.2016 83.9064 70.1939C83.8671 70.1858 83.8191 70.1707 83.7629 70.1473L83.6912 70.3534L83.6893 70.3582C83.6793 70.4015 83.703 70.4396 83.762 70.4738C83.7871 70.4924 83.8137 70.5043 83.8406 70.5124C83.8685 70.52 83.8959 70.5229 83.9238 70.5229H84.6103C84.6382 70.5229 84.6669 70.52 84.6962 70.5158C84.7254 70.5106 84.7552 70.5014 84.7849 70.4887C84.8612 70.4572 84.9266 70.3991 84.98 70.3139H85.2693C85.1797 70.501 85.0559 70.6357 84.8978 70.7195C84.768 70.7896 84.6377 70.8253 84.5056 70.8253H83.8191C83.6875 70.8253 83.5769 70.789 83.4869 70.7171C83.3753 70.6267 83.3452 70.5082 83.3968 70.361L83.6121 69.745C83.6628 69.5989 83.7693 69.4826 83.9297 69.3961C84.0655 69.3227 84.2072 69.2855 84.3571 69.2855H85.0431C85.1875 69.2855 85.3027 69.3208 85.3882 69.3917C85.4901 69.4784 85.5161 69.5945 85.464 69.7426ZM85.1939 70.0086C85.2074 69.8855 85.1934 69.7786 85.1511 69.6839C85.1055 69.5656 85.0394 69.5055 84.9528 69.5055H84.257C84.1961 69.5055 84.1272 69.5505 84.0504 69.639C83.9694 69.7308 83.921 69.8524 83.9043 70.0024C83.888 70.1482 83.9085 70.2684 83.9661 70.3645C84.0178 70.4592 84.0778 70.5055 84.1449 70.5055H84.8434C84.9263 70.5055 85.0045 70.4487 85.0785 70.3347C85.1408 70.2414 85.1795 70.1331 85.1939 70.0086Z" fill="#60C4FF"/>
<path fill-rule="evenodd" clip-rule="evenodd" d="M89.8823 70.6871C89.7425 70.7791 89.5913 70.8251 89.4295 70.8251H88.004C87.8545 70.8251 87.7425 70.7833 87.6685 70.7C87.588 70.61 87.5657 70.4719 87.6008 70.2872H87.8907C87.8806 70.3744 87.8966 70.4362 87.9382 70.4738H87.9355C87.9779 70.5062 88.036 70.5233 88.1096 70.5233H89.5354C89.6187 70.5233 89.6969 70.5029 89.7686 70.4624C89.8353 70.4267 89.876 70.3843 89.8929 70.3367L89.9788 70.091C89.9948 70.043 89.983 70.0016 89.9422 69.9659C89.8985 69.925 89.8344 69.9044 89.7494 69.9044H88.3257C88.1657 69.9044 88.0456 69.8582 87.9666 69.7664C87.8819 69.6716 87.8632 69.554 87.913 69.4136L87.999 69.1675C88.0465 69.0328 88.1453 68.9161 88.2952 68.8195C88.4405 68.7266 88.5931 68.6795 88.7535 68.6795H90.1794C90.3289 68.6795 90.4399 68.7238 90.5131 68.809C90.5944 68.8961 90.6173 69.0328 90.5807 69.217H90.2906C90.3001 69.1298 90.2841 69.0674 90.2425 69.0304H90.2448C90.2059 68.9995 90.1479 68.9837 90.073 68.9837H88.647C88.562 68.9837 88.4825 69.0032 88.4089 69.0446C88.3444 69.0784 88.3042 69.1199 88.2883 69.167L88.2023 69.4132C88.185 69.4627 88.196 69.5045 88.2353 69.5407C88.2792 69.5816 88.3444 69.6022 88.4308 69.6022H89.8569C90.0186 69.6022 90.1379 69.6484 90.2137 69.7397C90.2978 69.8368 90.3161 69.953 90.2677 70.0906L90.1817 70.3363C90.1338 70.4753 90.0337 70.5934 89.8823 70.6871Z" fill="#60C4FF"/>
<path fill-rule="evenodd" clip-rule="evenodd" d="M92.149 70.7128C92.0128 70.7875 91.873 70.8251 91.7304 70.8251H91.044C90.9042 70.8251 90.7907 70.7879 90.7039 70.7152C90.5983 70.6247 90.5709 70.5067 90.6216 70.3615L90.8369 69.7454C90.8867 69.6025 90.9955 69.4859 91.1628 69.394C91.3003 69.3188 91.4411 69.2812 91.5837 69.2812H92.2697C92.4045 69.2812 92.5161 69.3164 92.6029 69.3874C92.7127 69.4787 92.7423 69.5968 92.6906 69.743L92.4745 70.3619C92.4251 70.5038 92.3164 70.6208 92.149 70.7128ZM92.3982 69.753C92.4141 69.7037 92.3935 69.6631 92.3374 69.63C92.2894 69.6001 92.2313 69.5858 92.1631 69.5858H91.4773C91.4082 69.5858 91.3406 69.5991 91.2752 69.6276C91.1947 69.662 91.1468 69.7037 91.1308 69.753L90.9137 70.4156C90.8977 70.4649 90.9178 70.5055 90.9744 70.5386C91.0253 70.57 91.0833 70.5858 91.1477 70.5858H91.836C91.8671 70.5858 91.8995 70.5821 91.9338 70.5751C91.9672 70.5674 92.0019 70.5573 92.0366 70.5417C92.1175 70.5066 92.1655 70.4639 92.1824 70.4132L92.3982 69.753Z" fill="#60C4FF"/>
<path fill-rule="evenodd" clip-rule="evenodd" d="M93.5433 69.5876L93.0761 70.8254H92.759L93.3954 69.1415C93.4503 68.9977 93.5526 68.8816 93.703 68.7949C93.8355 68.7197 94.0007 68.6821 94.199 68.6821L94.0867 68.9797C93.9621 68.9977 93.8722 69.02 93.8153 69.0476C93.7594 69.0763 93.7248 69.1072 93.7119 69.1415L93.657 69.2857H93.9734L93.8592 69.5881L93.5433 69.5876Z" fill="#60C4FF"/>
<path fill-rule="evenodd" clip-rule="evenodd" d="M95.0132 69.5881L94.4592 70.8259H94.0824L94.6358 69.5881H94.2644L94.399 69.2858H94.7704L95.0414 68.6803H95.4188L95.1478 69.2858H95.5224L95.3871 69.5881H95.0132Z" fill="#60C4FF"/>
<path fill-rule="evenodd" clip-rule="evenodd" d="M97.0401 70.7072C96.9163 70.7839 96.7761 70.823 96.6207 70.823C96.5356 70.823 96.4565 70.8106 96.3835 70.7858C96.3099 70.7611 96.2481 70.7225 96.1975 70.6706C96.1092 70.721 96.0178 70.7602 95.925 70.7858C95.8318 70.8125 95.7431 70.8253 95.6582 70.8253C95.5083 70.8253 95.3967 70.7878 95.3227 70.7129C95.2404 70.6268 95.2257 70.5101 95.2779 70.3616L95.6536 69.2857H95.9456L95.5695 70.364C95.5539 70.4102 95.5667 70.4473 95.6101 70.4768C95.6576 70.5077 95.7234 70.5235 95.8085 70.5235C95.8949 70.5235 95.9707 70.5083 96.037 70.4768C96.1014 70.4488 96.1422 70.4102 96.1594 70.3616L96.3917 69.6985H96.6837L96.4515 70.3636C96.4346 70.4111 96.4487 70.4477 96.4931 70.4735C96.5406 70.5044 96.6041 70.5202 96.6865 70.5202C96.7742 70.5202 96.8515 70.5049 96.9173 70.4735C96.9825 70.4459 97.0219 70.4092 97.0384 70.3636L97.415 69.2852H97.7097L97.3341 70.3612C97.2834 70.5055 97.185 70.6211 97.0401 70.7072Z" fill="#60C4FF"/>
<path fill-rule="evenodd" clip-rule="evenodd" d="M99.2422 70.7152C99.1047 70.7879 98.963 70.8251 98.8171 70.8251H98.1307C97.9835 70.8251 97.8666 70.789 97.7825 70.717C97.6797 70.6309 97.6545 70.5148 97.7066 70.3657C97.7568 70.2214 97.8651 70.1053 98.0315 70.0172C98.1691 69.9419 98.3094 69.9049 98.4525 69.9049H99.1385C99.1823 69.9049 99.2243 69.9091 99.2632 69.9167C99.3034 69.9253 99.3505 69.941 99.4068 69.9638L99.4799 69.7549C99.4895 69.7106 99.4657 69.6716 99.4104 69.6377C99.3606 69.6049 99.3066 69.5882 99.2485 69.5882H98.5627C98.5329 69.5882 98.5032 69.5911 98.4744 69.5954C98.4456 69.6007 98.4154 69.6101 98.3857 69.6235C98.3094 69.6539 98.2436 69.7126 98.191 69.7978H97.9008C97.9927 69.6106 98.1161 69.4759 98.2715 69.392C98.4008 69.3217 98.5324 69.286 98.6659 69.286H99.3542C99.489 69.286 99.6005 69.3212 99.6873 69.392C99.7979 69.4807 99.8277 69.5992 99.7747 69.7477L99.5599 70.3643C99.5092 70.5095 99.4026 70.6261 99.2422 70.7152ZM99.2888 70.6102C99.3046 70.4664 99.2842 70.3449 99.2265 70.2469C99.1745 70.1538 99.1164 70.106 99.0507 70.106H98.3525C98.2716 70.106 98.1926 70.1646 98.1154 70.2772C98.0522 70.3699 98.0136 70.4797 97.9996 70.6027C97.9852 70.7304 97.9983 70.8416 98.0387 70.9362C98.087 71.0487 98.1531 71.106 98.2382 71.106H98.9382C99.0066 71.106 99.0745 71.0653 99.1414 70.9825C99.2237 70.8789 99.2725 70.7545 99.2888 70.6102Z" fill="#60C4FF"/>
<path fill-rule="evenodd" clip-rule="evenodd" d="M101.773 69.7969C101.779 69.7112 101.754 69.6532 101.699 69.6226C101.679 69.6098 101.655 69.5998 101.63 69.5945C101.604 69.5903 101.577 69.5875 101.549 69.5875H100.863C100.794 69.5875 100.725 69.6017 100.658 69.6298C100.579 69.6602 100.532 69.6998 100.514 69.7469L100.139 70.8253H99.8458L100.383 69.2855H100.676L100.654 69.3499C100.712 69.3269 100.766 69.3109 100.816 69.3008C100.865 69.2908 100.915 69.2855 100.966 69.2855H101.654C101.785 69.2855 101.891 69.3203 101.974 69.3889C102.074 69.4732 102.102 69.6083 102.062 69.7969H101.773Z" fill="#60C4FF"/>
<path fill-rule="evenodd" clip-rule="evenodd" d="M104.374 69.7426C104.325 69.8854 104.216 70.0021 104.049 70.0934C103.911 70.1692 103.771 70.2058 103.63 70.2058H102.944C102.898 70.2058 102.856 70.2016 102.817 70.1939C102.777 70.1858 102.729 70.1707 102.673 70.1473L102.601 70.3534L102.599 70.3582C102.589 70.4015 102.613 70.4396 102.671 70.4738C102.697 70.4924 102.723 70.5043 102.751 70.5124C102.778 70.52 102.805 70.5229 102.834 70.5229H103.52C103.548 70.5229 103.577 70.52 103.606 70.5158C103.635 70.5106 103.665 70.5014 103.694 70.4887C103.771 70.4572 103.836 70.3991 103.889 70.3139H104.179C104.089 70.501 103.965 70.6357 103.807 70.7195C103.677 70.7896 103.547 70.8253 103.414 70.8253H102.728C102.597 70.8253 102.486 70.789 102.396 70.7171C102.284 70.6267 102.255 70.5082 102.306 70.361L102.522 69.745C102.572 69.5989 102.678 69.4826 102.839 69.3961C102.974 69.3227 103.117 69.2855 103.266 69.2855H103.953C104.096 69.2855 104.212 69.3208 104.297 69.3917C104.4 69.4784 104.426 69.5945 104.374 69.7426ZM104.103 70.0086C104.117 69.8855 104.103 69.7786 104.061 69.6839C104.015 69.5656 103.949 69.5055 103.862 69.5055H103.167C103.106 69.5055 103.037 69.5505 102.96 69.639C102.879 69.7308 102.831 69.8524 102.814 70.0024C102.797 70.1482 102.818 70.2684 102.876 70.3645C102.928 70.4592 102.987 70.5055 103.055 70.5055H103.753C103.836 70.5055 103.914 70.4487 103.988 70.3347C104.051 70.2414 104.089 70.1331 104.103 70.0086Z" fill="#60C4FF"/>
<path fill-rule="evenodd" clip-rule="evenodd" d="M104.394 65.0236C104.394 65.4622 104.209 65.8306 103.837 66.1295C103.496 66.4181 103.069 66.5629 102.559 66.5629H98.0667C97.5964 66.5629 97.1974 66.4315 96.8706 66.1681C96.5187 65.8844 96.2965 65.4517 96.2021 64.8689H97.116C97.1805 65.1422 97.2989 65.3378 97.4721 65.4569H97.4648C97.6326 65.5601 97.8336 65.6111 98.0663 65.6111H102.559C102.816 65.6111 103.039 65.5492 103.228 65.4254C103.396 65.3122 103.48 65.1779 103.48 65.0231V64.2496C103.48 64.1048 103.396 63.9763 103.228 63.8624C103.029 63.7288 102.804 63.6616 102.552 63.6616H100.16V62.71H102.559C102.821 62.71 103.045 62.6456 103.228 62.5166C103.396 62.4038 103.48 62.2714 103.48 62.1224V61.3487C103.48 61.2041 103.396 61.075 103.228 60.9617C103.029 60.8275 102.804 60.7603 102.552 60.7603H98.0663C97.8382 60.7603 97.6399 60.8117 97.4717 60.9151H97.4793C97.3012 61.0237 97.1801 61.2193 97.1156 61.5031H96.2015C96.2906 60.9151 96.5086 60.4867 96.8555 60.2186C97.1823 59.9453 97.5859 59.8091 98.0663 59.8091H102.559C103.059 59.8091 103.485 59.9534 103.836 60.2419C104.208 60.5465 104.394 60.9151 104.394 61.3483C104.394 61.7249 104.379 62.0677 104.349 62.3767C104.339 62.5313 104.29 62.6737 104.201 62.8027C104.161 62.8594 104.115 62.9185 104.063 62.9807C104.012 63.0427 103.948 63.1099 103.874 63.1817C104.017 63.3212 104.127 63.4498 104.201 63.5687C104.285 63.7135 104.335 63.8525 104.349 63.9868C104.38 64.2914 104.394 64.6366 104.394 65.0236Z" fill="#60C4FF"/>
<path fill-rule="evenodd" clip-rule="evenodd" d="M95.5027 1.20001H104.394L90.6974 25.2421C89.9149 26.5819 89.1517 27.613 88.4081 28.3357C87.6635 29.0588 86.9761 29.584 86.3459 29.9125C85.7152 30.241 85.1731 30.4319 84.7188 30.4838C84.265 30.5366 83.9488 30.5627 83.7732 30.5627H75.6V9.79233H83.2435L83.2815 24.0595L95.5027 1.20001Z" fill="white"/>
<path fill-rule="evenodd" clip-rule="evenodd" d="M78.4655 33.2174C78.4778 33.1274 78.4627 33.0652 78.4197 33.0308H78.422C78.3823 32.9999 78.3251 32.9842 78.2502 32.9842H76.8292C76.7442 32.9842 76.6656 33.0037 76.593 33.0451C76.529 33.079 76.4888 33.1204 76.4723 33.1675L76.3219 33.5993H77.3704L77.2648 33.902H76.2159L75.8937 34.8247H75.6007L76.1803 33.1675C76.2278 33.0328 76.3265 32.9161 76.4764 32.8195C76.6218 32.7266 76.7753 32.6795 76.9353 32.6795H78.3562C78.507 32.6795 78.6186 32.7238 78.6926 32.809C78.7735 32.8961 78.7963 33.0328 78.7598 33.217L78.4655 33.2174Z" fill="white"/>
<path fill-rule="evenodd" clip-rule="evenodd" d="M80.5635 33.7969C80.5694 33.7112 80.5443 33.6532 80.4899 33.6226C80.4693 33.6098 80.446 33.5998 80.4204 33.5945C80.3944 33.5903 80.3674 33.5875 80.3391 33.5875H79.6531C79.584 33.5875 79.5155 33.6017 79.4474 33.6298C79.3692 33.6602 79.3226 33.6998 79.3053 33.7469L78.9286 34.8253H78.6361L79.1741 33.2855H79.4671L79.4446 33.3499C79.5022 33.3269 79.5562 33.3109 79.6064 33.3008C79.6563 33.2908 79.7065 33.2855 79.7563 33.2855H80.4446C80.5753 33.2855 80.6819 33.3203 80.7646 33.3889C80.8642 33.4732 80.8934 33.6083 80.8532 33.7969H80.5635Z" fill="white"/>
<path fill-rule="evenodd" clip-rule="evenodd" d="M83.1647 33.7426C83.1154 33.8854 83.0062 34.0021 82.8394 34.0934C82.7018 34.1692 82.5619 34.2058 82.4207 34.2058H81.7342C81.6885 34.2058 81.6469 34.2016 81.6067 34.1939C81.5674 34.1858 81.5194 34.1707 81.4632 34.1473L81.3914 34.3534L81.3896 34.3582C81.3796 34.4015 81.4033 34.4396 81.4623 34.4738C81.4874 34.4924 81.5139 34.5043 81.5409 34.5124C81.5688 34.52 81.5962 34.5229 81.6241 34.5229H82.3105C82.3384 34.5229 82.3677 34.52 82.3965 34.5158C82.4257 34.5106 82.4554 34.5014 82.4847 34.4887C82.5615 34.4572 82.6268 34.3991 82.6803 34.3139H82.9701C82.88 34.501 82.7562 34.6357 82.598 34.7195C82.4682 34.7896 82.3375 34.8253 82.2054 34.8253H81.5194C81.3873 34.8253 81.2767 34.789 81.1872 34.7171C81.0756 34.6267 81.045 34.5082 81.0971 34.361L81.3124 33.745C81.3636 33.5989 81.4696 33.4826 81.63 33.3961C81.7653 33.3227 81.9074 33.2855 82.0578 33.2855H82.7434C82.8878 33.2855 83.003 33.3208 83.0889 33.3917C83.1903 33.4784 83.2159 33.5945 83.1647 33.7426ZM82.8934 34.0086C82.9074 33.8856 82.8934 33.7786 82.8506 33.684C82.805 33.5656 82.7389 33.5055 82.6524 33.5055H81.9563C81.8958 33.5055 81.8274 33.5505 81.7502 33.639C81.6692 33.7308 81.6208 33.8524 81.6041 34.0024C81.5878 34.1482 81.6083 34.2684 81.666 34.3645C81.7176 34.4592 81.7776 34.5055 81.8442 34.5055H82.5431C82.6259 34.5055 82.7045 34.4487 82.778 34.3347C82.8409 34.2414 82.8795 34.1331 82.8934 34.0086Z" fill="white"/>
<path fill-rule="evenodd" clip-rule="evenodd" d="M85.464 33.7426C85.4147 33.8854 85.3059 34.0021 85.1391 34.0934C85.001 34.1692 84.8617 34.2058 84.7204 34.2058H84.034C83.9882 34.2058 83.9467 34.2016 83.9064 34.1939C83.8671 34.1858 83.8191 34.1707 83.7629 34.1473L83.6912 34.3534L83.6893 34.3582C83.6793 34.4015 83.703 34.4396 83.762 34.4738C83.7871 34.4924 83.8137 34.5043 83.8406 34.5124C83.8685 34.52 83.8959 34.5229 83.9238 34.5229H84.6103C84.6382 34.5229 84.6669 34.52 84.6962 34.5158C84.7254 34.5106 84.7552 34.5014 84.7849 34.4887C84.8612 34.4572 84.9266 34.3991 84.98 34.3139H85.2693C85.1797 34.501 85.0559 34.6357 84.8978 34.7195C84.768 34.7896 84.6377 34.8253 84.5056 34.8253H83.8191C83.6875 34.8253 83.5769 34.789 83.4869 34.7171C83.3753 34.6267 83.3452 34.5082 83.3968 34.361L83.6121 33.745C83.6628 33.5989 83.7693 33.4826 83.9297 33.3961C84.0655 33.3227 84.2072 33.2855 84.3571 33.2855H85.0431C85.1875 33.2855 85.3027 33.3208 85.3882 33.3917C85.4901 33.4784 85.5161 33.5945 85.464 33.7426ZM85.1939 34.0086C85.2074 33.8856 85.1934 33.7786 85.1511 33.684C85.1055 33.5656 85.0394 33.5055 84.9528 33.5055H84.257C84.1961 33.5055 84.1272 33.5505 84.0504 33.639C83.9694 33.7308 83.921 33.8524 83.9043 34.0024C83.888 34.1482 83.9085 34.2684 83.9661 34.3645C84.0178 34.4592 84.0778 34.5055 84.1449 34.5055H84.8434C84.9263 34.5055 85.0045 34.4487 85.0785 34.3347C85.1408 34.2414 85.1795 34.1331 85.1939 34.0086Z" fill="white"/>
<path fill-rule="evenodd" clip-rule="evenodd" d="M89.8823 34.6871C89.7425 34.7791 89.5913 34.8251 89.4295 34.8251H88.004C87.8545 34.8251 87.7425 34.7833 87.6685 34.7C87.588 34.61 87.5657 34.4719 87.6008 34.2872H87.8907C87.8806 34.3744 87.8966 34.4362 87.9382 34.4738H87.9355C87.9779 34.5062 88.036 34.5233 88.1096 34.5233H89.5354C89.6187 34.5233 89.6969 34.5029 89.7686 34.4624C89.8353 34.4267 89.876 34.3843 89.8929 34.3367L89.9788 34.091C89.9948 34.043 89.983 34.0016 89.9422 33.9659C89.8985 33.925 89.8344 33.9044 89.7494 33.9044H88.3257C88.1657 33.9044 88.0456 33.8582 87.9666 33.7664C87.8819 33.6716 87.8632 33.554 87.913 33.4136L87.999 33.1675C88.0465 33.0328 88.1453 32.9161 88.2952 32.8195C88.4405 32.7266 88.5931 32.6795 88.7535 32.6795H90.1794C90.3289 32.6795 90.4399 32.7238 90.5131 32.809C90.5944 32.8961 90.6173 33.0328 90.5807 33.217H90.2906C90.3001 33.1298 90.2841 33.0674 90.2425 33.0304H90.2448C90.2059 32.9995 90.1479 32.9837 90.073 32.9837H88.647C88.562 32.9837 88.4825 33.0032 88.4089 33.0446C88.3444 33.0784 88.3042 33.1199 88.2883 33.167L88.2023 33.4132C88.185 33.4627 88.196 33.5045 88.2353 33.5407C88.2792 33.5816 88.3444 33.6022 88.4308 33.6022H89.8569C90.0186 33.6022 90.1379 33.6484 90.2137 33.7397C90.2978 33.8368 90.3161 33.953 90.2677 34.0906L90.1817 34.3363C90.1338 34.4753 90.0337 34.5934 89.8823 34.6871Z" fill="white"/>
<path fill-rule="evenodd" clip-rule="evenodd" d="M92.149 34.7128C92.0128 34.7875 91.873 34.8251 91.7304 34.8251H91.044C90.9042 34.8251 90.7907 34.7879 90.7039 34.7152C90.5983 34.6247 90.5709 34.5067 90.6216 34.3615L90.8369 33.7454C90.8867 33.6025 90.9955 33.4859 91.1628 33.394C91.3003 33.3188 91.4411 33.2812 91.5837 33.2812H92.2697C92.4045 33.2812 92.5161 33.3164 92.6029 33.3874C92.7127 33.4787 92.7423 33.5968 92.6906 33.743L92.4745 34.3619C92.4251 34.5038 92.3164 34.6208 92.149 34.7128ZM92.3982 33.753C92.4141 33.7037 92.3935 33.6631 92.3374 33.63C92.2894 33.6001 92.2313 33.5858 92.1631 33.5858H91.4773C91.4082 33.5858 91.3406 33.5991 91.2752 33.6276C91.1947 33.662 91.1468 33.7037 91.1308 33.753L90.9137 34.4156C90.8977 34.4649 90.9178 34.5055 90.9744 34.5386C91.0253 34.57 91.0833 34.5858 91.1477 34.5858H91.836C91.8671 34.5858 91.8995 34.5821 91.9338 34.5751C91.9672 34.5674 92.0019 34.5573 92.0366 34.5417C92.1175 34.5066 92.1655 34.4639 92.1824 34.4132L92.3982 33.753Z" fill="white"/>
<path fill-rule="evenodd" clip-rule="evenodd" d="M93.5433 33.5876L93.0761 34.8254H92.759L93.3954 33.1415C93.4503 32.9977 93.5526 32.8816 93.703 32.7949C93.8355 32.7197 94.0007 32.6821 94.199 32.6821L94.0867 32.9797C93.9621 32.9977 93.8722 33.02 93.8153 33.0476C93.7594 33.0763 93.7248 33.1072 93.7119 33.1415L93.657 33.2857H93.9734L93.8592 33.5881L93.5433 33.5876Z" fill="white"/>
<path fill-rule="evenodd" clip-rule="evenodd" d="M95.0132 33.5881L94.4592 34.8259H94.0824L94.6358 33.5881H94.2644L94.399 33.2858H94.7704L95.0414 32.6803H95.4188L95.1478 33.2858H95.5224L95.3871 33.5881H95.0132Z" fill="white"/>
<path fill-rule="evenodd" clip-rule="evenodd" d="M97.0401 34.7072C96.9163 34.7839 96.7761 34.823 96.6207 34.823C96.5356 34.823 96.4565 34.8106 96.3835 34.7858C96.3099 34.7611 96.2481 34.7225 96.1975 34.6706C96.1092 34.721 96.0178 34.7602 95.925 34.7858C95.8318 34.8125 95.7431 34.8253 95.6582 34.8253C95.5083 34.8253 95.3967 34.7878 95.3227 34.7129C95.2404 34.6268 95.2257 34.5101 95.2779 34.3616L95.6536 33.2857H95.9456L95.5695 34.364C95.5539 34.4102 95.5667 34.4473 95.6101 34.4768C95.6576 34.5077 95.7234 34.5235 95.8085 34.5235C95.8949 34.5235 95.9707 34.5083 96.037 34.4768C96.1014 34.4488 96.1422 34.4102 96.1594 34.3616L96.3917 33.6985H96.6837L96.4515 34.3636C96.4346 34.4111 96.4487 34.4477 96.4931 34.4735C96.5406 34.5044 96.6041 34.5202 96.6865 34.5202C96.7742 34.5202 96.8515 34.5049 96.9173 34.4735C96.9825 34.4459 97.0219 34.4092 97.0384 34.3636L97.415 33.2852H97.7097L97.3341 34.3612C97.2834 34.5055 97.185 34.6211 97.0401 34.7072Z" fill="white"/>
<path fill-rule="evenodd" clip-rule="evenodd" d="M99.2422 34.7152C99.1047 34.7879 98.963 34.8251 98.8171 34.8251H98.1307C97.9835 34.8251 97.8666 34.789 97.7825 34.717C97.6797 34.6309 97.6545 34.5148 97.7066 34.3657C97.7568 34.2214 97.8651 34.1053 98.0315 34.0172C98.1691 33.9419 98.3094 33.9049 98.4525 33.9049H99.1385C99.1823 33.9049 99.2243 33.9091 99.2632 33.9167C99.3034 33.9253 99.3505 33.941 99.4068 33.9638L99.4799 33.7549C99.4895 33.7106 99.4657 33.6716 99.4104 33.6377C99.3606 33.6049 99.3066 33.5882 99.2485 33.5882H98.5627C98.5329 33.5882 98.5032 33.5911 98.4744 33.5954C98.4456 33.6007 98.4154 33.6101 98.3857 33.6235C98.3094 33.6539 98.2436 33.7126 98.191 33.7978H97.9008C97.9927 33.6106 98.1161 33.4759 98.2715 33.392C98.4008 33.3217 98.5324 33.286 98.6659 33.286H99.3542C99.489 33.286 99.6005 33.3212 99.6873 33.392C99.7979 33.4807 99.8277 33.5992 99.7747 33.7477L99.5599 34.3643C99.5092 34.5095 99.4026 34.6261 99.2422 34.7152ZM99.2888 34.6102C99.3046 34.4664 99.2842 34.3449 99.2265 34.2469C99.1745 34.1538 99.1164 34.106 99.0507 34.106H98.3525C98.2716 34.106 98.1926 34.1646 98.1154 34.2772C98.0522 34.3699 98.0136 34.4797 97.9996 34.6027C97.9852 34.7304 97.9983 34.8416 98.0387 34.9362C98.087 35.0487 98.1531 35.106 98.2382 35.106H98.9382C99.0066 35.106 99.0745 35.0653 99.1414 34.9825C99.2237 34.8789 99.2725 34.7545 99.2888 34.6102Z" fill="white"/>
<path fill-rule="evenodd" clip-rule="evenodd" d="M101.773 33.7969C101.779 33.7112 101.754 33.6532 101.699 33.6226C101.679 33.6098 101.655 33.5998 101.63 33.5945C101.604 33.5903 101.577 33.5875 101.549 33.5875H100.863C100.794 33.5875 100.725 33.6017 100.658 33.6298C100.579 33.6602 100.532 33.6998 100.514 33.7469L100.139 34.8253H99.8458L100.383 33.2855H100.676L100.654 33.3499C100.712 33.3269 100.766 33.3109 100.816 33.3008C100.865 33.2908 100.915 33.2855 100.966 33.2855H101.654C101.785 33.2855 101.891 33.3203 101.974 33.3889C102.074 33.4732 102.102 33.6083 102.062 33.7969H101.773Z" fill="white"/>
<path fill-rule="evenodd" clip-rule="evenodd" d="M104.374 33.7426C104.325 33.8854 104.216 34.0021 104.049 34.0934C103.911 34.1692 103.771 34.2058 103.63 34.2058H102.944C102.898 34.2058 102.856 34.2016 102.817 34.1939C102.777 34.1858 102.729 34.1707 102.673 34.1473L102.601 34.3534L102.599 34.3582C102.589 34.4015 102.613 34.4396 102.671 34.4738C102.697 34.4924 102.723 34.5043 102.751 34.5124C102.778 34.52 102.805 34.5229 102.834 34.5229H103.52C103.548 34.5229 103.577 34.52 103.606 34.5158C103.635 34.5106 103.665 34.5014 103.694 34.4887C103.771 34.4572 103.836 34.3991 103.889 34.3139H104.179C104.089 34.501 103.965 34.6357 103.807 34.7195C103.677 34.7896 103.547 34.8253 103.414 34.8253H102.728C102.597 34.8253 102.486 34.789 102.396 34.7171C102.284 34.6267 102.255 34.5082 102.306 34.361L102.522 33.745C102.572 33.5989 102.678 33.4826 102.839 33.3961C102.974 33.3227 103.117 33.2855 103.266 33.2855H103.953C104.096 33.2855 104.212 33.3208 104.297 33.3917C104.4 33.4784 104.426 33.5945 104.374 33.7426ZM104.103 34.0086C104.117 33.8856 104.103 33.7786 104.061 33.684C104.015 33.5656 103.949 33.5055 103.862 33.5055H103.167C103.106 33.5055 103.037 33.5505 102.96 33.639C102.879 33.7308 102.831 33.8524 102.814 34.0024C102.797 34.1482 102.818 34.2684 102.876 34.3645C102.928 34.4592 102.987 34.5055 103.055 34.5055H103.753C103.836 34.5055 103.914 34.4487 103.988 34.3347C104.051 34.2414 104.089 34.1331 104.103 34.0086Z" fill="white"/>
<path fill-rule="evenodd" clip-rule="evenodd" d="M104.394 29.0236C104.394 29.4622 104.209 29.8306 103.837 30.1295C103.496 30.4181 103.069 30.5629 102.559 30.5629H98.0667C97.5964 30.5629 97.1974 30.4315 96.8706 30.1681C96.5187 29.8844 96.2965 29.4517 96.2021 28.8689H97.116C97.1805 29.1422 97.2989 29.3378 97.4721 29.4569H97.4648C97.6326 29.5601 97.8336 29.6111 98.0663 29.6111H102.559C102.816 29.6111 103.039 29.5492 103.228 29.4254C103.396 29.3122 103.48 29.1779 103.48 29.0231V28.2496C103.48 28.1048 103.396 27.9763 103.228 27.8624C103.029 27.7288 102.804 27.6616 102.552 27.6616H100.16V26.71H102.559C102.821 26.71 103.045 26.6456 103.228 26.5166C103.396 26.4038 103.48 26.2714 103.48 26.1224V25.3487C103.48 25.2041 103.396 25.075 103.228 24.9617C103.029 24.8275 102.804 24.7603 102.552 24.7603H98.0663C97.8382 24.7603 97.6399 24.8117 97.4717 24.9151H97.4793C97.3012 25.0237 97.1801 25.2193 97.1156 25.5031H96.2015C96.2906 24.9151 96.5086 24.4867 96.8555 24.2186C97.1823 23.9453 97.5859 23.8091 98.0663 23.8091H102.559C103.059 23.8091 103.485 23.9534 103.836 24.2419C104.208 24.5465 104.394 24.9151 104.394 25.3483C104.394 25.7249 104.379 26.0677 104.349 26.3767C104.339 26.5313 104.29 26.6737 104.201 26.8027C104.161 26.8594 104.115 26.9185 104.063 26.9807C104.012 27.0427 103.948 27.1099 103.874 27.1817C104.017 27.3212 104.127 27.4498 104.201 27.5687C104.285 27.7135 104.335 27.8525 104.349 27.9868C104.38 28.2914 104.394 28.6366 104.394 29.0236Z" fill="white"/>
<path fill-rule="evenodd" clip-rule="evenodd" d="M120.601 57.6572C121.948 57.6572 123.043 56.5575 123.043 55.206V51.0055C123.043 47.7248 125.703 45.056 128.973 45.056C129.149 45.056 129.324 45.0653 129.497 45.0806L125.998 39L120.083 49.2806C120.253 49.2656 120.426 49.2565 120.601 49.2565H122.053C121.901 49.8142 121.819 50.4002 121.819 51.0055V52.7547H120.601C119.253 52.7547 118.158 53.8544 118.158 55.206C118.158 56.5575 119.253 57.6572 120.601 57.6572Z" fill="#60C4FF"/>
<path fill-rule="evenodd" clip-rule="evenodd" d="M134.348 53.5122C133.403 55.5434 131.35 56.9551 128.973 56.9551H127.52C127.672 56.3973 127.754 55.8113 127.754 55.206V53.4568H128.973C130.32 53.4568 131.416 52.3571 131.416 51.0055C131.416 49.654 130.32 48.5543 128.973 48.5543C127.626 48.5543 126.53 49.654 126.53 51.0055L126.53 55.206C126.53 58.4867 123.87 61.1556 120.601 61.1556C118.226 61.1556 116.173 59.7466 115.228 57.7185L112.283 62.8367H139.713L134.348 53.5122Z" fill="#60C4FF"/>
<path fill-rule="evenodd" clip-rule="evenodd" d="M130.664 67.0739H129.704C129.704 67.0739 129.69 66.8645 129.69 66.5924C129.69 66.3205 129.704 66.1109 129.704 66.1109C129.704 66.1109 129.854 66.0966 130.184 66.0966C130.515 66.0966 130.664 66.1109 130.664 66.1109C130.664 66.1109 130.678 66.2769 130.678 66.5924C130.678 66.9079 130.664 67.0739 130.664 67.0739ZM130.664 65.1482H129.704C129.174 65.1482 128.745 65.5792 128.745 66.1109V68.9995H129.704V68.0368H130.664V68.9995H131.624V66.1109C131.624 65.5792 131.194 65.1482 130.664 65.1482Z" fill="#60C4FF"/>
<path fill-rule="evenodd" clip-rule="evenodd" d="M139.041 67.0699C139.041 67.0699 138.875 67.0842 138.561 67.0842C138.246 67.0842 138.081 67.0699 138.081 67.0699V66.1069C138.081 66.1069 138.29 66.0924 138.561 66.0924C138.832 66.0924 139.041 66.1069 139.041 66.1069C139.041 66.1069 139.055 66.2567 139.055 66.5884C139.055 66.9201 139.041 67.0699 139.041 67.0699ZM139.042 65.144H137.121V68.9955H138.081V68.0326H139.042C139.571 68.0326 140 67.6022 140 67.0709V66.1056C140 65.5745 139.571 65.144 139.042 65.144Z" fill="#60C4FF"/>
<path fill-rule="evenodd" clip-rule="evenodd" d="M112 66.1107V68.0366C112 68.5683 112.43 68.9994 112.959 68.9995L114.879 69V68.0371H112.96V66.1107H114.879V65.1477H112.96C112.43 65.1477 112 65.579 112 66.1107Z" fill="#60C4FF"/>
<path fill-rule="evenodd" clip-rule="evenodd" d="M121.521 65.1479H120.561V68.0362C120.561 68.5681 120.991 68.9994 121.521 68.9995L123.062 69V68.0371H121.521V65.1479Z" fill="#60C4FF"/>
<path d="M120.601 21.6572C121.948 21.6572 123.043 20.5575 123.043 19.206V15.0055C123.043 11.7248 125.703 9.05596 128.973 9.05596C129.149 9.05596 129.324 9.06529 129.497 9.08056L125.998 3L120.083 13.2806C120.253 13.2656 120.426 13.2565 120.601 13.2565H122.053C121.901 13.8142 121.819 14.4002 121.819 15.0055V16.7547H120.601C119.253 16.7547 118.158 17.8544 118.158 19.206C118.158 20.5575 119.253 21.6572 120.601 21.6572Z" fill="white"/>
<path d="M134.348 17.5122C133.403 19.5434 131.35 20.9551 128.973 20.9551H127.52C127.672 20.3973 127.754 19.8113 127.754 19.206V17.4568H128.973C130.32 17.4568 131.416 16.3571 131.416 15.0055C131.416 13.654 130.32 12.5543 128.973 12.5543C127.626 12.5543 126.53 13.654 126.53 15.0055L126.53 19.206C126.53 22.4867 123.87 25.1556 120.601 25.1556C118.226 25.1556 116.173 23.7466 115.228 21.7185L112.283 26.8367H139.713L134.348 17.5122Z" fill="white"/>
<path fill-rule="evenodd" clip-rule="evenodd" d="M130.664 31.0739H129.704C129.704 31.0739 129.69 30.8645 129.69 30.5924C129.69 30.3205 129.704 30.1109 129.704 30.1109C129.704 30.1109 129.854 30.0966 130.184 30.0966C130.515 30.0966 130.664 30.1109 130.664 30.1109C130.664 30.1109 130.678 30.2769 130.678 30.5924C130.678 30.9079 130.664 31.0739 130.664 31.0739ZM130.664 29.1482H129.704C129.174 29.1482 128.745 29.5792 128.745 30.1109V32.9995H129.704V32.0368H130.664V32.9995H131.624V30.1109C131.624 29.5792 131.194 29.1482 130.664 29.1482Z" fill="white"/>
<path fill-rule="evenodd" clip-rule="evenodd" d="M139.041 31.0699C139.041 31.0699 138.875 31.0842 138.561 31.0842C138.246 31.0842 138.081 31.0699 138.081 31.0699V30.1069C138.081 30.1069 138.29 30.0924 138.561 30.0924C138.832 30.0924 139.041 30.1069 139.041 30.1069C139.041 30.1069 139.055 30.2567 139.055 30.5884C139.055 30.9201 139.041 31.0699 139.041 31.0699ZM139.042 29.144H137.121V32.9955H138.081V32.0326H139.042C139.571 32.0326 140 31.6022 140 31.0709V30.1056C140 29.5745 139.571 29.144 139.042 29.144Z" fill="white"/>
<path d="M112 30.1107V32.0366C112 32.5683 112.43 32.9994 112.959 32.9995L114.879 33V32.0371H112.96V30.1107H114.879V29.1477H112.96C112.43 29.1477 112 29.579 112 30.1107Z" fill="white"/>
<path d="M121.521 29.1479H120.561V32.0362C120.561 32.5682 120.991 32.9994 121.521 32.9995L123.062 33V32.0371H121.521V29.1479Z" fill="white"/>
<path fill-rule="evenodd" clip-rule="evenodd" d="M153.737 39L159.823 61.2627L171.981 61.2848L169.8 69H154.176L146 39H153.737Z" fill="#60C4FF"/>
<path d="M154.137 39L160.109 60.8829H163.891L169.887 39H166.199L161.988 53.8735L157.777 39H154.137Z" fill="#60C4FF"/>
<path d="M164.272 60.8829H167.952L173.932 39H170.268L164.272 60.8829Z" fill="#60C4FF"/>
<path d="M168.348 60.8829H172.012L178 39H174.328L168.348 60.8829Z" fill="#60C4FF"/>
<path fill-rule="evenodd" clip-rule="evenodd" d="M153.737 3L159.823 25.2627L171.981 25.2848L169.8 33H154.176L146 3H153.737Z" fill="white"/>
<path d="M154.137 3L160.109 24.8829H163.891L169.887 3H166.199L161.988 17.8735L157.777 3H154.137Z" fill="white"/>
<path d="M164.272 24.8829H167.952L173.932 3H170.268L164.272 24.8829Z" fill="white"/>
<path d="M168.348 24.8829H172.012L178 3H174.328L168.348 24.8829Z" fill="white"/>
<path fill-rule="evenodd" clip-rule="evenodd" d="M214.675 43.6897V64.2603H181.325V43.6897H214.675ZM215 43.375H214.675H181.325H181V43.6897V64.2603V64.575H181.325H214.675H215V64.2603V43.6897V43.375Z" fill="#60C4FF"/>
<path fill-rule="evenodd" clip-rule="evenodd" d="M186.883 60.0833C186.765 60.3408 186.41 61.0274 185.494 61.0274C184.725 61.0274 183.986 60.541 183.986 59.368C183.986 58.6814 184.4 57.7659 185.494 57.7659C186.322 57.7659 186.647 58.2808 186.795 58.71L186.203 58.853C186.174 58.5097 185.878 58.2808 185.523 58.2808C184.991 58.2808 184.637 58.6528 184.637 59.368C184.637 59.7972 184.814 60.4552 185.523 60.4552C185.937 60.4552 186.203 60.1405 186.292 59.8258L186.883 60.0833Z" fill="#60C4FF"/>
<path fill-rule="evenodd" clip-rule="evenodd" d="M188.805 57.7659C189.781 57.7659 190.343 58.5383 190.343 59.368C190.343 60.0833 189.958 61.0274 188.805 61.0274C187.859 61.0274 187.268 60.2835 187.268 59.3966C187.268 58.5097 187.859 57.7659 188.805 57.7659ZM188.805 60.4838C189.278 60.4838 189.722 60.1405 189.722 59.4252C189.722 58.8817 189.426 58.3095 188.776 58.3095C188.243 58.3095 187.859 58.71 187.859 59.3966C187.889 59.883 188.125 60.4838 188.805 60.4838Z" fill="#60C4FF"/>
<path fill-rule="evenodd" clip-rule="evenodd" d="M193.27 60.9416C193.27 60.8557 193.329 58.3953 193.329 58.3953L192.649 60.9416H192.117L191.437 58.3953C191.437 58.3953 191.496 60.8271 191.496 60.9416H190.904V57.8517H191.762L192.383 60.1405L193.003 57.8517H193.861V60.9416H193.27Z" fill="#60C4FF"/>
<path fill-rule="evenodd" clip-rule="evenodd" d="M196.019 57.8517C196.67 57.8517 197.143 58.2522 197.143 58.8816C197.143 59.4538 196.817 59.883 195.96 59.883H195.339V60.9416H194.748V57.8517H196.019ZM195.369 59.4252H195.901C196.315 59.4252 196.551 59.225 196.551 58.8816C196.551 58.3953 196.137 58.3667 195.842 58.3667H195.398V59.4252H195.369Z" fill="#60C4FF"/>
<path fill-rule="evenodd" clip-rule="evenodd" d="M199.39 60.9416L199.212 60.3408H198L197.823 60.9416H197.172L198.236 57.8517H198.916L200.01 60.9416H199.39ZM198.648 58.4239L198.148 59.8544H199.148L198.648 58.4239Z" fill="#60C4FF"/>
<path fill-rule="evenodd" clip-rule="evenodd" d="M201.252 58.3667V60.9416H200.661V58.3667H199.803V57.8517H202.169V58.3667H201.252Z" fill="#60C4FF"/>
<path fill-rule="evenodd" clip-rule="evenodd" d="M202.612 60.9416V57.8517H203.612V60.9416H202.612Z" fill="#60C4FF"/>
<path fill-rule="evenodd" clip-rule="evenodd" d="M205.539 57.8517C206.219 57.8517 206.515 58.2236 206.515 58.6242C206.515 58.8816 206.367 59.225 205.983 59.2536C206.278 59.3108 206.663 59.5397 206.663 60.0833C206.663 60.5124 206.396 60.9702 205.598 60.9702H204.12V57.8517H205.539ZM204.711 59.3381H205.303C205.569 59.3381 205.894 59.227 205.894 58.8195C205.894 58.4121 205.569 58.3381 205.332 58.3381H204.711V59.3381ZM204.711 60.5397H205.51C205.923 60.5397 206.071 60.3209 206.071 60.0709C206.071 59.6022 205.628 59.5397 205.391 59.5397H204.711V60.5397Z" fill="#60C4FF"/>
<path fill-rule="evenodd" clip-rule="evenodd" d="M207.431 60.9416V57.8517H208.023V60.4266H209.294V60.9416H207.431Z" fill="#60C4FF"/>
<path fill-rule="evenodd" clip-rule="evenodd" d="M209.678 60.9416V57.8517H211.955V58.3667H210.27V59.0819H211.807V59.5683H210.27V60.398H212.073V60.9129H209.678V60.9416Z" fill="#60C4FF"/>
<path fill-rule="evenodd" clip-rule="evenodd" d="M201.37 48.7823H212.073L212.103 50.6133H211.6C211.423 49.9839 210.95 49.5548 210.151 49.3545C209.708 49.24 209.028 49.1542 208.141 49.1542V53.7318C208.141 54.0465 208.259 54.1895 208.466 54.2754C208.703 54.3899 209.176 54.3899 209.885 54.3899V54.7904H203.588V54.3899C204.268 54.3899 204.741 54.3327 204.977 54.2468C205.214 54.1323 205.332 54.0465 205.332 53.7318V49.1542C204.475 49.1542 203.795 49.24 203.351 49.3545C202.494 49.5834 202.021 50.0125 201.903 50.6133C201.755 50.6133 201.4 50.6133 201.4 50.6133L201.37 48.7823Z" fill="#60C4FF"/>
<path fill-rule="evenodd" clip-rule="evenodd" d="M192.974 51.8722L193.95 51.9866L193.979 52.0152C194.363 52.7877 194.984 53.3885 195.842 53.7318C196.699 54.1037 197.704 54.2754 198.828 54.2754C199.922 54.2754 200.69 54.161 201.134 53.9035C201.577 53.6746 201.784 53.4171 201.784 53.1596C201.784 52.8735 201.548 52.616 201.104 52.4444C200.779 52.3013 200.129 52.1297 199.183 51.9294L197.616 51.5861C196.078 51.2427 194.955 50.8994 194.334 50.5561C193.684 50.2128 193.358 49.755 193.358 49.24C193.358 48.6965 193.802 48.1815 194.659 47.6951C195.517 47.2373 196.817 47.0085 198.562 47.0085C199.449 47.0085 200.306 47.0657 201.134 47.1801C201.666 47.266 202.405 47.3518 202.553 47.3518C202.878 47.3518 202.997 47.2946 203.056 47.266C203.144 47.2087 203.233 47.1229 203.292 47.0085L203.322 46.9799H204.15V49.4689H203.263L203.233 49.4403C202.908 48.8967 202.346 48.439 201.548 48.067C200.75 47.6665 199.774 47.4948 198.65 47.4948C197.852 47.4948 197.202 47.5807 196.758 47.7809C196.315 47.9526 196.108 48.1815 196.108 48.439C196.108 48.7537 196.315 48.9825 196.729 49.1542C197.172 49.3259 198.148 49.5834 199.626 49.8981L201.43 50.2986C202.228 50.4703 202.878 50.6705 203.351 50.8994C204.268 51.3286 204.741 51.8436 204.741 52.4444C204.741 53.0166 204.238 53.5602 203.263 54.0465C202.317 54.5329 200.75 54.7904 198.65 54.7904C198.177 54.7904 197.675 54.7618 197.172 54.7332C196.67 54.7046 196.167 54.6187 195.694 54.5615L195.221 54.4757C195.103 54.4757 195.014 54.4471 194.925 54.4471C194.837 54.4471 194.748 54.4185 194.659 54.4185C194.423 54.4185 194.275 54.4471 194.186 54.5043C194.097 54.5615 194.038 54.6473 193.95 54.7618L193.92 54.7904H192.974V51.8722Z" fill="#60C4FF"/>
<path fill-rule="evenodd" clip-rule="evenodd" d="M203.972 47.0943V49.4403H203.292C202.967 48.8967 202.405 48.4389 201.607 48.0384C200.809 47.6379 199.833 47.4376 198.68 47.4376C197.852 47.4376 197.231 47.5234 196.758 47.7237C196.285 47.924 196.049 48.1529 196.049 48.4389C196.049 48.7823 196.285 49.0398 196.729 49.2114C197.172 49.3831 198.148 49.6406 199.656 49.9553L201.459 50.3558C202.257 50.5275 202.908 50.7278 203.381 50.9566C204.268 51.3572 204.711 51.8722 204.711 52.4444C204.711 52.988 204.238 53.5029 203.263 53.9893C202.317 54.4757 200.779 54.7046 198.68 54.7046C198.207 54.7046 197.704 54.6759 197.202 54.6473C196.699 54.6187 196.226 54.5615 195.723 54.4757L195.25 54.3898C195.132 54.3898 195.043 54.3612 194.925 54.3612C194.837 54.3612 194.748 54.3326 194.659 54.3326C194.423 54.3326 194.245 54.3612 194.157 54.4184C194.068 54.4757 193.979 54.5615 193.92 54.7046H193.063V51.9294L193.92 52.0438C194.304 52.8449 194.925 53.4457 195.812 53.789C196.699 54.161 197.675 54.3326 198.798 54.3326C199.892 54.3326 200.661 54.2182 201.134 53.9607C201.607 53.7032 201.814 53.4457 201.814 53.1596C201.814 52.8449 201.577 52.5874 201.075 52.3585C200.75 52.2155 200.099 52.0438 199.153 51.8435L197.586 51.5002C196.049 51.1569 194.955 50.8136 194.304 50.4703C193.683 50.1269 193.358 49.7264 193.358 49.2114C193.358 48.6964 193.772 48.1815 194.6 47.7237C195.457 47.2659 196.729 47.0371 198.473 47.0371C199.36 47.0371 200.217 47.0943 201.016 47.2087C201.843 47.3232 202.317 47.3804 202.435 47.3804C202.701 47.3804 202.878 47.3518 202.997 47.2946C203.085 47.2373 203.174 47.1229 203.233 47.0085H203.972M204.09 46.9512H203.943H203.263H203.174L203.144 47.0084C203.085 47.0943 203.026 47.1801 202.937 47.2373C202.908 47.2659 202.79 47.3232 202.464 47.3232C202.317 47.3232 201.37 47.1801 201.075 47.1515C200.247 47.0371 199.39 46.9798 198.503 46.9798C196.758 46.9798 195.428 47.2087 194.57 47.6951C193.683 48.1815 193.24 48.6964 193.24 49.2973C193.24 49.8408 193.595 50.2986 194.275 50.6705C194.925 51.0139 196.019 51.3572 197.586 51.7005L199.153 52.0438C200.099 52.2441 200.75 52.4157 201.075 52.5588C201.489 52.7305 201.725 52.9593 201.725 53.2168C201.725 53.4457 201.518 53.6746 201.104 53.9035C200.661 54.1323 199.892 54.2468 198.828 54.2468C197.734 54.2468 196.729 54.0751 195.871 53.7032C194.984 53.3599 194.393 52.7877 194.009 52.0152L193.979 51.9294H193.89L193.033 51.8149H192.915V51.958V54.7332V54.8762H193.063H193.92H194.009L194.038 54.819C194.097 54.7045 194.157 54.6473 194.245 54.5901C194.275 54.5615 194.393 54.5043 194.689 54.5043C194.748 54.5043 194.837 54.5043 194.925 54.5329C195.014 54.5329 195.132 54.5615 195.25 54.5615L195.723 54.6473C196.197 54.7332 196.699 54.7904 197.202 54.819C197.704 54.8476 198.207 54.8762 198.68 54.8762C200.809 54.8762 202.376 54.6187 203.351 54.1323C204.357 53.6174 204.859 53.0738 204.859 52.473C204.859 51.8435 204.386 51.3 203.44 50.8708C202.967 50.6419 202.287 50.4417 201.489 50.27L199.685 49.8695C198.207 49.5547 197.231 49.2973 196.788 49.1256C196.403 48.9825 196.197 48.7537 196.197 48.4962C196.197 48.2673 196.403 48.067 196.817 47.8954C197.261 47.6951 197.911 47.6093 198.71 47.6093C199.833 47.6093 200.809 47.8095 201.577 48.1815C202.376 48.5534 202.908 49.0112 203.233 49.5261L203.263 49.5834H203.351H204.031H204.179V49.4403V47.0943V46.9512H204.09Z" fill="black"/>
<path fill-rule="evenodd" clip-rule="evenodd" d="M189.249 54.9621L184.784 49.8981C184.607 49.6978 184.43 49.5548 184.252 49.4689C184.075 49.3831 183.572 49.3259 183.129 49.3259H183.07V48.9254H189.278V49.3545H189.219C188.598 49.3831 188.214 49.4117 188.007 49.4403C187.8 49.4689 187.8 49.5548 187.8 49.6406C187.8 49.6692 187.8 49.7264 187.8 49.755C187.8 49.7837 187.83 49.8123 187.859 49.8409L190.461 52.9308H190.49L192.737 50.0984C192.796 50.0411 192.826 49.9839 192.856 49.9267C192.915 49.8409 192.944 49.755 192.944 49.6978C192.944 49.612 192.915 49.4976 192.708 49.4689C192.53 49.4403 192.117 49.4117 191.525 49.3831H191.466V48.954H195.546V49.3545H195.487C195.043 49.3831 194.482 49.4403 194.304 49.5262C194.097 49.612 193.92 49.7836 193.713 50.0125L189.781 54.9621H189.249Z" fill="#60C4FF"/>
<path fill-rule="evenodd" clip-rule="evenodd" d="M195.516 48.9826V49.2687C195.103 49.2973 194.511 49.3545 194.304 49.4403C194.097 49.5262 193.89 49.6978 193.683 49.9553L189.751 54.9048H189.278L184.814 49.8409C184.637 49.6406 184.459 49.4976 184.252 49.4117C184.075 49.3259 183.513 49.2687 183.099 49.2401V48.954H189.16V49.2401C188.539 49.2687 188.125 49.2973 187.948 49.3259C187.77 49.3545 187.682 49.4403 187.682 49.5834C187.682 49.612 187.682 49.6692 187.711 49.6978C187.741 49.7264 187.77 49.7837 187.8 49.8123L190.431 52.9308H190.55L192.826 50.0984C192.885 50.0411 192.915 49.9839 192.974 49.8981C193.033 49.7837 193.063 49.6978 193.063 49.6406C193.063 49.4689 192.974 49.3831 192.767 49.3545C192.59 49.3259 192.176 49.2687 191.584 49.2687V48.9826H195.516ZM195.664 48.8395H195.516H191.584H191.437V48.9826V49.2687V49.4117H191.584C192.176 49.4403 192.56 49.4689 192.737 49.4976C192.915 49.5262 192.915 49.5834 192.915 49.6406C192.915 49.6692 192.915 49.7264 192.826 49.8409C192.796 49.8981 192.737 49.9553 192.708 50.0125L190.49 52.7877L187.918 49.755C187.889 49.7264 187.859 49.6978 187.859 49.6692C187.859 49.6406 187.859 49.612 187.859 49.5834C187.859 49.5548 187.859 49.4976 188.007 49.4689C188.184 49.4403 188.569 49.4117 189.19 49.3831H189.337V49.2401V48.954V48.8109H189.19H183.129H182.981V48.954V49.2401V49.3545H183.099C183.602 49.3831 184.045 49.4403 184.193 49.4976C184.37 49.5834 184.548 49.7264 184.696 49.8981L189.16 54.9335L189.19 54.9907H189.249H189.722H189.781L189.81 54.9335L193.802 50.0125C193.979 49.7837 194.186 49.6406 194.363 49.5548C194.511 49.4689 194.984 49.4117 195.516 49.3831H195.635V49.2687V48.9826V48.8395H195.664Z" fill="black"/>
<path fill-rule="evenodd" clip-rule="evenodd" d="M212.014 47.6093C211.304 47.6093 210.713 47.0371 210.713 46.3505C210.713 45.6638 211.304 45.0916 212.014 45.0916C212.723 45.0916 213.315 45.6638 213.315 46.3218C213.344 47.0371 212.783 47.6093 212.014 47.6093ZM212.014 45.1774C211.363 45.1774 210.831 45.6924 210.831 46.3218C210.831 46.9513 211.334 47.4662 212.014 47.4662C212.664 47.4662 213.196 46.9513 213.196 46.3505C213.196 45.6924 212.694 45.1774 212.014 45.1774ZM211.984 45.5208C212.398 45.5208 212.576 45.6638 212.576 45.9785C212.576 46.236 212.457 46.3505 212.221 46.4363L212.605 47.1229H212.31L211.955 46.4649H211.748V47.1229H211.482V45.5208H211.984ZM211.777 46.721H212.166C212.611 46.721 212.777 46.5544 212.777 46.221C212.777 45.8877 212.555 45.721 212.111 45.721H211.777V46.721Z" fill="#60C4FF"/>
<path fill-rule="evenodd" clip-rule="evenodd" d="M214.675 7.68971V28.2603H181.325V7.68971H214.675ZM215 7.375H214.675H181.325H181V7.68971V28.2603V28.575H181.325H214.675H215V28.2603V7.68971V7.375Z" fill="white"/>
<path fill-rule="evenodd" clip-rule="evenodd" d="M186.883 24.0832C186.765 24.3407 186.41 25.0273 185.494 25.0273C184.725 25.0273 183.986 24.541 183.986 23.368C183.986 22.6813 184.4 21.7658 185.494 21.7658C186.322 21.7658 186.647 22.2808 186.795 22.7099L186.203 22.853C186.174 22.5097 185.878 22.2808 185.523 22.2808C184.991 22.2808 184.637 22.6527 184.637 23.368C184.637 23.7971 184.814 24.4551 185.523 24.4551C185.937 24.4551 186.203 24.1404 186.292 23.8257L186.883 24.0832Z" fill="white"/>
<path fill-rule="evenodd" clip-rule="evenodd" d="M188.805 21.7658C189.781 21.7658 190.343 22.5383 190.343 23.368C190.343 24.0832 189.958 25.0273 188.805 25.0273C187.859 25.0273 187.268 24.2835 187.268 23.3966C187.268 22.5097 187.859 21.7658 188.805 21.7658ZM188.805 24.4838C189.278 24.4838 189.722 24.1404 189.722 23.4252C189.722 22.8816 189.426 22.3094 188.776 22.3094C188.243 22.3094 187.859 22.7099 187.859 23.3966C187.889 23.8829 188.125 24.4838 188.805 24.4838Z" fill="white"/>
<path fill-rule="evenodd" clip-rule="evenodd" d="M193.27 24.9415C193.27 24.8557 193.329 22.3952 193.329 22.3952L192.649 24.9415H192.117L191.437 22.3952C191.437 22.3952 191.496 24.8271 191.496 24.9415H190.904V21.8516H191.762L192.383 24.1404L193.003 21.8516H193.861V24.9415H193.27Z" fill="white"/>
<path fill-rule="evenodd" clip-rule="evenodd" d="M196.019 21.8516C196.67 21.8516 197.143 22.2522 197.143 22.8816C197.143 23.4538 196.817 23.8829 195.96 23.8829H195.339V24.9415H194.748V21.8516H196.019ZM195.369 23.4252H195.901C196.315 23.4252 196.551 23.2249 196.551 22.8816C196.551 22.3952 196.137 22.3666 195.842 22.3666H195.398V23.4252H195.369Z" fill="white"/>
<path fill-rule="evenodd" clip-rule="evenodd" d="M199.39 24.9415L199.212 24.3407H198L197.823 24.9415H197.172L198.236 21.8516H198.916L200.01 24.9415H199.39ZM198.648 22.4238L198.148 23.8543H199.148L198.648 22.4238Z" fill="white"/>
<path fill-rule="evenodd" clip-rule="evenodd" d="M201.252 22.3666V24.9415H200.661V22.3666H199.803V21.8516H202.169V22.3666H201.252Z" fill="white"/>
<path fill-rule="evenodd" clip-rule="evenodd" d="M202.612 24.9415V21.8516H203.612V24.9415H202.612Z" fill="white"/>
<path fill-rule="evenodd" clip-rule="evenodd" d="M205.539 21.8516C206.219 21.8516 206.515 22.2236 206.515 22.6241C206.515 22.8816 206.367 23.2249 205.983 23.2535C206.278 23.3107 206.663 23.5396 206.663 24.0832C206.663 24.5124 206.396 24.9701 205.598 24.9701H204.12V21.8516H205.539ZM204.711 23.338H205.303C205.569 23.338 205.894 23.2269 205.894 22.8195C205.894 22.4121 205.569 22.338 205.332 22.338H204.711V23.338ZM204.711 24.5396H205.51C205.923 24.5396 206.071 24.3209 206.071 24.0709C206.071 23.6021 205.628 23.5396 205.391 23.5396H204.711V24.5396Z" fill="white"/>
<path fill-rule="evenodd" clip-rule="evenodd" d="M207.431 24.9415V21.8516H208.023V24.4265H209.294V24.9415H207.431Z" fill="white"/>
<path fill-rule="evenodd" clip-rule="evenodd" d="M209.678 24.9415V21.8516H211.955V22.3666H210.27V23.0819H211.807V23.5682H210.27V24.3979H212.073V24.9129H209.678V24.9415Z" fill="white"/>
<path fill-rule="evenodd" clip-rule="evenodd" d="M201.37 12.7823H212.073L212.103 14.6133H211.6C211.423 13.9839 210.95 13.5548 210.151 13.3545C209.708 13.24 209.028 13.1542 208.141 13.1542V17.7318C208.141 18.0465 208.259 18.1895 208.466 18.2754C208.703 18.3899 209.176 18.3899 209.885 18.3899V18.7904H203.588V18.3899C204.268 18.3899 204.741 18.3327 204.977 18.2468C205.214 18.1323 205.332 18.0465 205.332 17.7318V13.1542C204.475 13.1542 203.795 13.24 203.351 13.3545C202.494 13.5834 202.021 14.0125 201.903 14.6133C201.755 14.6133 201.4 14.6133 201.4 14.6133L201.37 12.7823Z" fill="white"/>
<path fill-rule="evenodd" clip-rule="evenodd" d="M192.974 15.8722L193.95 15.9866L193.979 16.0152C194.363 16.7877 194.984 17.3885 195.842 17.7318C196.699 18.1037 197.704 18.2754 198.828 18.2754C199.922 18.2754 200.69 18.161 201.134 17.9035C201.577 17.6746 201.784 17.4171 201.784 17.1596C201.784 16.8735 201.548 16.616 201.104 16.4444C200.779 16.3013 200.129 16.1297 199.183 15.9294L197.616 15.5861C196.078 15.2428 194.955 14.8994 194.334 14.5561C193.683 14.2128 193.358 13.755 193.358 13.24C193.358 12.6965 193.802 12.1815 194.659 11.6951C195.517 11.2373 196.817 11.0085 198.562 11.0085C199.449 11.0085 200.306 11.0657 201.134 11.1801C201.666 11.266 202.405 11.3518 202.553 11.3518C202.878 11.3518 202.997 11.2946 203.056 11.266C203.144 11.2087 203.233 11.1229 203.292 11.0085L203.322 10.9799H204.149V13.4689H203.263L203.233 13.4403C202.908 12.8967 202.346 12.439 201.548 12.067C200.75 11.6665 199.774 11.4948 198.65 11.4948C197.852 11.4948 197.202 11.5807 196.758 11.7809C196.315 11.9526 196.108 12.1815 196.108 12.439C196.108 12.7537 196.315 12.9825 196.729 13.1542C197.172 13.3259 198.148 13.5834 199.626 13.8981L201.43 14.2986C202.228 14.4703 202.878 14.6705 203.351 14.8994C204.268 15.3286 204.741 15.8436 204.741 16.4444C204.741 17.0166 204.238 17.5602 203.263 18.0465C202.317 18.5329 200.75 18.7904 198.65 18.7904C198.177 18.7904 197.675 18.7618 197.172 18.7332C196.67 18.7046 196.167 18.6187 195.694 18.5615L195.221 18.4757C195.103 18.4757 195.014 18.4471 194.925 18.4471C194.837 18.4471 194.748 18.4185 194.659 18.4185C194.423 18.4185 194.275 18.4471 194.186 18.5043C194.097 18.5615 194.038 18.6473 193.95 18.7618L193.92 18.7904H192.974V15.8722Z" fill="white"/>
<path fill-rule="evenodd" clip-rule="evenodd" d="M203.972 11.0943V13.4403H203.292C202.967 12.8967 202.405 12.4389 201.607 12.0384C200.809 11.6379 199.833 11.4376 198.68 11.4376C197.852 11.4376 197.231 11.5234 196.758 11.7237C196.285 11.924 196.049 12.1529 196.049 12.4389C196.049 12.7823 196.285 13.0398 196.729 13.2114C197.172 13.3831 198.148 13.6406 199.656 13.9553L201.459 14.3558C202.257 14.5275 202.908 14.7278 203.381 14.9566C204.268 15.3572 204.711 15.8722 204.711 16.4444C204.711 16.988 204.238 17.5029 203.263 17.9893C202.317 18.4757 200.779 18.7046 198.68 18.7046C198.207 18.7046 197.704 18.6759 197.202 18.6473C196.699 18.6187 196.226 18.5615 195.723 18.4757L195.25 18.3898C195.132 18.3898 195.043 18.3612 194.925 18.3612C194.837 18.3612 194.748 18.3326 194.659 18.3326C194.423 18.3326 194.245 18.3612 194.157 18.4184C194.068 18.4757 193.979 18.5615 193.92 18.7046H193.063V15.9294L193.92 16.0438C194.304 16.8449 194.925 17.4457 195.812 17.789C196.699 18.161 197.675 18.3326 198.798 18.3326C199.892 18.3326 200.661 18.2182 201.134 17.9607C201.607 17.7032 201.814 17.4457 201.814 17.1596C201.814 16.8449 201.577 16.5874 201.075 16.3585C200.75 16.2155 200.099 16.0438 199.153 15.8435L197.586 15.5002C196.049 15.1569 194.955 14.8136 194.304 14.4703C193.683 14.1269 193.358 13.7264 193.358 13.2114C193.358 12.6964 193.772 12.1815 194.6 11.7237C195.457 11.2659 196.729 11.0371 198.473 11.0371C199.36 11.0371 200.217 11.0943 201.016 11.2087C201.843 11.3232 202.317 11.3804 202.435 11.3804C202.701 11.3804 202.878 11.3518 202.997 11.2946C203.085 11.2373 203.174 11.1229 203.233 11.0085H203.972M204.09 10.9512H203.943H203.263H203.174L203.144 11.0085C203.085 11.0943 203.026 11.1801 202.937 11.2373C202.908 11.2659 202.79 11.3232 202.464 11.3232C202.317 11.3232 201.37 11.1801 201.075 11.1515C200.247 11.0371 199.39 10.9798 198.503 10.9798C196.758 10.9798 195.428 11.2087 194.57 11.6951C193.683 12.1815 193.24 12.6964 193.24 13.2973C193.24 13.8408 193.595 14.2986 194.275 14.6705C194.925 15.0139 196.019 15.3572 197.586 15.7005L199.153 16.0438C200.099 16.2441 200.75 16.4157 201.075 16.5588C201.489 16.7305 201.725 16.9593 201.725 17.2168C201.725 17.4457 201.518 17.6746 201.104 17.9035C200.661 18.1323 199.892 18.2468 198.828 18.2468C197.734 18.2468 196.729 18.0751 195.871 17.7032C194.984 17.3599 194.393 16.7877 194.009 16.0152L193.979 15.9294H193.89L193.033 15.8149H192.915V15.958V18.7332V18.8762H193.063H193.92H194.009L194.038 18.819C194.097 18.7045 194.157 18.6473 194.245 18.5901C194.275 18.5615 194.393 18.5043 194.689 18.5043C194.748 18.5043 194.837 18.5043 194.925 18.5329C195.014 18.5329 195.132 18.5615 195.25 18.5615L195.723 18.6473C196.197 18.7332 196.699 18.7904 197.202 18.819C197.704 18.8476 198.207 18.8762 198.68 18.8762C200.809 18.8762 202.376 18.6187 203.351 18.1323C204.357 17.6174 204.859 17.0738 204.859 16.473C204.859 15.8435 204.386 15.3 203.44 14.8708C202.967 14.6419 202.287 14.4417 201.489 14.27L199.685 13.8695C198.207 13.5547 197.231 13.2973 196.788 13.1256C196.403 12.9825 196.197 12.7537 196.197 12.4962C196.197 12.2673 196.403 12.067 196.817 11.8954C197.261 11.6951 197.911 11.6093 198.71 11.6093C199.833 11.6093 200.809 11.8095 201.577 12.1815C202.376 12.5534 202.908 13.0112 203.233 13.5261L203.263 13.5834H203.351H204.031H204.179V13.4403V11.0943V10.9512H204.09Z" fill="black"/>
<path fill-rule="evenodd" clip-rule="evenodd" d="M189.249 18.9621L184.784 13.8981C184.607 13.6978 184.43 13.5548 184.252 13.4689C184.075 13.3831 183.572 13.3259 183.129 13.3259H183.07V12.9254H189.278V13.3545H189.219C188.598 13.3831 188.214 13.4117 188.007 13.4403C187.8 13.4689 187.8 13.5548 187.8 13.6406C187.8 13.6692 187.8 13.7264 187.8 13.755C187.8 13.7837 187.83 13.8123 187.859 13.8409L190.461 16.9308H190.49L192.737 14.0984C192.796 14.0411 192.826 13.9839 192.856 13.9267C192.915 13.8409 192.944 13.755 192.944 13.6978C192.944 13.612 192.915 13.4976 192.708 13.4689C192.53 13.4403 192.117 13.4117 191.525 13.3831H191.466V12.954H195.546V13.3545H195.487C195.043 13.3831 194.482 13.4403 194.304 13.5262C194.097 13.612 193.92 13.7837 193.713 14.0125L189.781 18.9621H189.249Z" fill="white"/>
<path fill-rule="evenodd" clip-rule="evenodd" d="M195.516 12.9826V13.2687C195.103 13.2973 194.511 13.3545 194.304 13.4403C194.097 13.5262 193.89 13.6978 193.683 13.9553L189.751 18.9048H189.278L184.814 13.8409C184.637 13.6406 184.459 13.4976 184.252 13.4117C184.075 13.3259 183.513 13.2687 183.099 13.2401V12.954H189.16V13.2401C188.539 13.2687 188.125 13.2973 187.948 13.3259C187.77 13.3545 187.682 13.4403 187.682 13.5834C187.682 13.612 187.682 13.6692 187.711 13.6978C187.741 13.7264 187.77 13.7837 187.8 13.8123L190.431 16.9308H190.55L192.826 14.0984C192.885 14.0411 192.915 13.9839 192.974 13.8981C193.033 13.7837 193.063 13.6978 193.063 13.6406C193.063 13.4689 192.974 13.3831 192.767 13.3545C192.59 13.3259 192.176 13.2687 191.584 13.2687V12.9826H195.516ZM195.664 12.8395H195.516H191.584H191.437V12.9826V13.2687V13.4117H191.584C192.176 13.4403 192.56 13.4689 192.737 13.4976C192.915 13.5262 192.915 13.5834 192.915 13.6406C192.915 13.6692 192.915 13.7264 192.826 13.8409C192.796 13.8981 192.737 13.9553 192.708 14.0125L190.49 16.7877L187.918 13.755C187.889 13.7264 187.859 13.6978 187.859 13.6692C187.859 13.6406 187.859 13.612 187.859 13.5834C187.859 13.5548 187.859 13.4976 188.007 13.4689C188.184 13.4403 188.569 13.4117 189.19 13.3831H189.337V13.2401V12.954V12.8109H189.19H183.129H182.981V12.954V13.2401V13.3545H183.099C183.602 13.3831 184.045 13.4403 184.193 13.4976C184.37 13.5834 184.548 13.7264 184.696 13.8981L189.16 18.9335L189.19 18.9907H189.249H189.722H189.781L189.81 18.9335L193.802 14.0125C193.979 13.7837 194.186 13.6406 194.363 13.5548C194.511 13.4689 194.984 13.4117 195.516 13.3831H195.635V13.2687V12.9826V12.8395H195.664Z" fill="black"/>
<path fill-rule="evenodd" clip-rule="evenodd" d="M212.014 11.6093C211.304 11.6093 210.713 11.0371 210.713 10.3505C210.713 9.66381 211.304 9.09161 212.014 9.09161C212.723 9.09161 213.315 9.66381 213.315 10.3218C213.344 11.0371 212.783 11.6093 212.014 11.6093ZM212.014 9.17744C211.363 9.17744 210.831 9.69242 210.831 10.3218C210.831 10.9513 211.334 11.4662 212.014 11.4662C212.664 11.4662 213.196 10.9513 213.196 10.3505C213.196 9.69242 212.694 9.17744 212.014 9.17744ZM211.984 9.52077C212.398 9.52077 212.576 9.66382 212.576 9.97853C212.576 10.236 212.457 10.3505 212.221 10.4363L212.605 11.1229H212.31L211.955 10.4649H211.748V11.1229H211.482V9.52077H211.984ZM211.777 10.721H212.166C212.611 10.721 212.777 10.5544 212.777 10.221C212.777 9.8877 212.555 9.72104 212.111 9.72104H211.777V10.721Z" fill="white"/>
<path fill-rule="evenodd" clip-rule="evenodd" d="M250.5 70.5H217.5V37.5H250.5V70.5Z" stroke="#60C4FF"/>
<path fill-rule="evenodd" clip-rule="evenodd" d="M225.316 51.5709C225.316 53.5575 226.005 55.503 227.256 57.0421L228.233 56.2472C227.162 54.9316 226.573 53.2709 226.573 51.5709C226.573 49.8725 227.159 48.2126 228.227 46.8985L227.25 46.1054C226.003 47.645 225.316 49.5857 225.316 51.5709Z" fill="#60C4FF"/>
<path fill-rule="evenodd" clip-rule="evenodd" d="M222.912 51.5709C222.912 54.1031 223.789 56.5787 225.38 58.5443L226.355 57.7526C224.945 56.0105 224.167 53.816 224.167 51.5709C224.167 49.3249 224.942 47.1312 226.351 45.3915L225.373 44.5995C223.786 46.5631 222.912 49.0379 222.912 51.5709Z" fill="#60C4FF"/>
<path fill-rule="evenodd" clip-rule="evenodd" d="M220.534 51.5709C220.534 54.6478 221.601 57.6563 223.535 60.0451L224.514 59.2529C222.76 57.088 221.792 54.3594 221.792 51.5709C221.792 48.7836 222.755 46.0595 224.503 43.9L223.524 43.1072C221.596 45.4917 220.534 48.4974 220.534 51.5709Z" fill="#60C4FF"/>
<path fill-rule="evenodd" clip-rule="evenodd" d="M239.762 46.8985C240.827 48.2126 241.413 49.8725 241.413 51.5709C241.413 53.2709 240.824 54.9316 239.755 56.2472L240.73 57.0421C241.983 55.503 242.673 53.5575 242.673 51.5709C242.673 49.5857 241.986 47.645 240.738 46.1054L239.762 46.8985Z" fill="#60C4FF"/>
<path fill-rule="evenodd" clip-rule="evenodd" d="M241.637 45.3915C243.043 47.1312 243.819 49.3249 243.819 51.5709C243.819 53.816 243.042 56.0106 241.631 57.7526L242.608 58.5443C244.2 56.5787 245.076 54.1031 245.076 51.5709C245.076 49.0379 244.2 46.5631 242.614 44.5995L241.637 45.3915Z" fill="#60C4FF"/>
<path fill-rule="evenodd" clip-rule="evenodd" d="M243.485 43.9C245.232 46.0595 246.194 48.7836 246.194 51.5709C246.194 54.3594 245.228 57.088 243.474 59.2529L244.452 60.0451C246.387 57.6563 247.454 54.6478 247.454 51.5709C247.454 48.4974 246.392 45.4917 244.464 43.1072L243.485 43.9Z" fill="#60C4FF"/>
<path fill-rule="evenodd" clip-rule="evenodd" d="M228.312 51.5709C228.312 54.7036 230.861 57.2534 233.994 57.2534C237.127 57.2534 239.675 54.7036 239.675 51.5709C239.675 48.436 237.127 45.8871 233.994 45.8871C230.861 45.8871 228.312 48.436 228.312 51.5709ZM229.515 51.5709C229.515 49.1009 231.525 47.0925 233.994 47.0925C236.462 47.0925 238.47 49.1009 238.47 51.5709C238.47 54.0405 236.462 56.0481 233.994 56.0481C231.525 56.0481 229.515 54.0405 229.515 51.5709Z" fill="#60C4FF"/>
<path fill-rule="evenodd" clip-rule="evenodd" d="M223.707 67.2105H223.078L222.734 66.1337H221.538L221.211 67.2105H220.599L221.783 63.531H222.515L223.707 67.2105ZM222.643 65.6829L222.328 64.7171C222.294 64.6203 222.231 64.3879 222.14 64.0219H222.13C222.091 64.1789 222.033 64.4103 221.952 64.7171L221.643 65.6829H222.643Z" fill="#60C4FF"/>
<path fill-rule="evenodd" clip-rule="evenodd" d="M226.372 67.2104H225.853L225.821 66.8116H225.812C225.623 67.116 225.345 67.2684 224.968 67.2684C224.705 67.2684 224.498 67.189 224.341 67.0304C224.153 66.828 224.062 66.5242 224.062 66.1214V64.5554H224.652V66.0211C224.652 66.5312 224.829 66.7876 225.175 66.7876C225.435 66.7876 225.618 66.6574 225.719 66.4035C225.745 66.3389 225.758 66.264 225.758 66.1789V64.5554H226.349V66.4493C226.349 66.7003 226.356 66.9547 226.372 67.2104Z" fill="#60C4FF"/>
<path fill-rule="evenodd" clip-rule="evenodd" d="M229.469 67.2105H228.944L228.916 66.7893H228.901C228.733 67.1102 228.448 67.2684 228.048 67.2684C227.728 67.2684 227.461 67.1431 227.25 66.8939C227.037 66.6437 226.931 66.3215 226.931 65.9177C226.931 65.489 227.047 65.1424 227.277 64.8771C227.502 64.629 227.777 64.5043 228.102 64.5043C228.461 64.5043 228.712 64.6268 228.855 64.8665V63.3434H229.447V66.4988C229.447 66.7578 229.453 66.9962 229.469 67.2105ZM228.855 66.0963V65.6544C228.855 65.5772 228.85 65.5147 228.838 65.4675C228.806 65.3267 228.735 65.2056 228.625 65.1107C228.515 65.0126 228.385 64.9635 228.231 64.9635C228.013 64.9635 227.838 65.0518 227.714 65.2271C227.587 65.4025 227.526 65.6277 227.526 65.8994C227.526 66.1604 227.584 66.3768 227.705 66.539C227.832 66.7135 228.005 66.8023 228.222 66.8023C228.414 66.8023 228.567 66.7288 228.686 66.5825C228.798 66.447 228.855 66.2861 228.855 66.0963Z" fill="#60C4FF"/>
<path fill-rule="evenodd" clip-rule="evenodd" d="M231.117 63.9091C231.117 64.0616 231.068 64.1823 230.973 64.2739C230.878 64.3697 230.753 64.4137 230.601 64.4137C230.466 64.4137 230.352 64.3683 230.257 64.2695C230.165 64.1757 230.117 64.0547 230.117 63.9092C230.117 63.7677 230.165 63.6455 230.26 63.5531C230.355 63.4594 230.476 63.4137 230.617 63.4137C230.759 63.4137 230.878 63.4594 230.973 63.5531C231.068 63.6455 231.117 63.7676 231.117 63.9091ZM231.184 67.2105H230.184V64.5554H231.184V67.2105Z" fill="#60C4FF"/>
<path fill-rule="evenodd" clip-rule="evenodd" d="M233.948 65.8654C233.948 66.2734 233.832 66.6092 233.599 66.8714C233.355 67.1361 233.031 67.2684 232.626 67.2684C232.235 67.2684 231.925 67.1399 231.693 66.8832C231.463 66.6265 231.348 66.3035 231.348 65.907C231.348 65.4983 231.465 65.1607 231.704 64.8976C231.944 64.6375 232.265 64.5043 232.669 64.5043C233.06 64.5043 233.372 64.6361 233.611 64.8941C233.836 65.1435 233.948 65.4675 233.948 65.8654ZM233.337 65.8811C233.337 65.6373 233.284 65.4281 233.178 65.2523C233.054 65.0411 232.878 64.9345 232.647 64.9345C232.411 64.9345 232.231 65.0411 232.107 65.2523C232.001 65.4281 231.948 65.6428 231.948 65.8919C231.948 66.1351 232.001 66.3473 232.107 66.5207C232.233 66.7308 232.412 66.8388 232.643 66.8388C232.869 66.8388 233.045 66.7297 233.172 66.5152C233.282 66.3384 233.337 66.1253 233.337 65.8811Z" fill="#60C4FF"/>
<path fill-rule="evenodd" clip-rule="evenodd" d="M238.574 65.669C238.574 66.2104 238.441 66.6199 238.18 66.891C237.939 67.1422 237.6 67.2684 237.162 67.2684C236.265 67.2684 235.818 66.7386 235.818 65.6797V63.531H236.41V65.7105C236.41 66.0719 236.482 66.3473 236.627 66.5312C236.759 66.7051 236.943 66.7948 237.185 66.7948C237.716 66.7948 237.981 66.4334 237.981 65.7105V63.531H238.574V65.669Z" fill="#60C4FF"/>
<path fill-rule="evenodd" clip-rule="evenodd" d="M241.617 67.2105H241.024V65.6918C241.024 65.2202 240.847 64.9859 240.49 64.9859C240.314 64.9859 240.171 65.0518 240.061 65.181C239.952 65.3108 239.898 65.4632 239.898 65.6373V67.2105H239.304V65.3165C239.304 65.0831 239.297 64.8312 239.284 64.5554H239.804L239.831 64.9667H239.848C239.919 64.8433 240.02 64.7354 240.154 64.6521C240.316 64.554 240.494 64.5043 240.692 64.5043C240.939 64.5043 241.145 64.5848 241.31 64.7452C241.514 64.9409 241.617 65.2346 241.617 65.6267V67.2105Z" fill="#60C4FF"/>
<path fill-rule="evenodd" clip-rule="evenodd" d="M243.23 63.9091C243.23 64.0616 243.185 64.1823 243.088 64.2739C242.992 64.3697 242.867 64.4137 242.715 64.4137C242.579 64.4137 242.464 64.3683 242.369 64.2695C242.278 64.1757 242.23 64.0547 242.23 63.9092C242.23 63.7677 242.279 63.6455 242.373 63.5531C242.47 63.4594 242.589 63.4137 242.73 63.4137C242.872 63.4137 242.992 63.4594 243.088 63.5531C243.185 63.6455 243.23 63.7676 243.23 63.9091ZM243.296 67.2105H242.296V64.5554H243.296V67.2105Z" fill="#60C4FF"/>
<path fill-rule="evenodd" clip-rule="evenodd" d="M244.971 65.001H244.318V66.2894C244.318 66.6161 244.433 66.7785 244.663 66.7785C244.768 66.7785 244.856 66.7733 244.926 66.7564L244.943 67.2029C244.826 67.2403 244.672 67.2618 244.484 67.2618C244.249 67.2618 244.068 67.1922 243.937 67.0537C243.804 66.9102 243.74 66.6731 243.74 66.3418V65.001H243.352V64.5554H243.74V64.0732L244.318 63.8994V64.5554H244.971V65.001Z" fill="#60C4FF"/>
<path fill-rule="evenodd" clip-rule="evenodd" d="M247.107 66.447C247.107 66.6957 247.015 66.8919 246.833 67.0411C246.651 67.189 246.399 67.2618 246.079 67.2618C245.776 67.2618 245.519 67.2042 245.308 67.0902L245.433 66.6508C245.638 66.7755 245.853 66.8388 246.084 66.8388C246.384 66.8388 246.536 66.7255 246.536 66.5027C246.536 66.4066 246.502 66.3259 246.437 66.2627C246.372 66.1967 246.256 66.1337 246.088 66.0742C245.617 65.8972 245.381 65.6436 245.381 65.3066C245.381 65.0776 245.467 64.8877 245.643 64.7324C245.817 64.5809 246.048 64.5043 246.335 64.5043C246.598 64.5043 246.822 64.5576 247.007 64.6637L246.882 65.0831C246.713 64.9793 246.532 64.9284 246.344 64.9284C246.22 64.9284 246.122 64.956 246.053 65.0158C245.985 65.0755 245.95 65.1499 245.95 65.2403C245.95 65.3333 245.989 65.4061 246.059 65.4632C246.121 65.5189 246.242 65.5806 246.419 65.646C246.877 65.8196 247.107 66.0879 247.107 66.447Z" fill="#60C4FF"/>
<path fill-rule="evenodd" clip-rule="evenodd" d="M250.5 34.5H217.5V1.5H250.5V34.5Z" stroke="white"/>
<path fill-rule="evenodd" clip-rule="evenodd" d="M225.316 15.5709C225.316 17.5575 226.005 19.503 227.256 21.0422L228.233 20.2473C227.162 18.9316 226.573 17.2709 226.573 15.5709C226.573 13.8725 227.159 12.2126 228.227 10.8985L227.25 10.1054C226.004 11.645 225.316 13.5857 225.316 15.5709Z" fill="white"/>
<path fill-rule="evenodd" clip-rule="evenodd" d="M222.912 15.5709C222.912 18.1032 223.789 20.5788 225.38 22.5444L226.355 21.7527C224.945 20.0106 224.167 17.816 224.167 15.5709C224.167 13.3249 224.942 11.1312 226.351 9.39149L225.373 8.59955C223.786 10.5631 222.912 13.0379 222.912 15.5709Z" fill="white"/>
<path fill-rule="evenodd" clip-rule="evenodd" d="M220.534 15.5709C220.534 18.6478 221.601 21.6563 223.535 24.0451L224.514 23.2529C222.76 21.088 221.792 18.3594 221.792 15.5709C221.792 12.7835 222.755 10.0595 224.503 7.90002L223.524 7.10718C221.596 9.49166 220.534 12.4974 220.534 15.5709Z" fill="white"/>
<path fill-rule="evenodd" clip-rule="evenodd" d="M239.762 10.8985C240.827 12.2126 241.413 13.8725 241.413 15.5709C241.413 17.2709 240.824 18.9316 239.755 20.2472L240.73 21.0421C241.983 19.503 242.673 17.5575 242.673 15.5709C242.673 13.5857 241.986 11.645 240.738 10.1054L239.762 10.8985Z" fill="white"/>
<path fill-rule="evenodd" clip-rule="evenodd" d="M241.637 9.39149C243.043 11.1312 243.819 13.3249 243.819 15.5709C243.819 17.816 243.042 20.0105 241.631 21.7526L242.608 22.5443C244.2 20.5787 245.076 18.1031 245.076 15.5709C245.076 13.0379 244.2 10.5631 242.614 8.59955L241.637 9.39149Z" fill="white"/>
<path fill-rule="evenodd" clip-rule="evenodd" d="M243.485 7.90004C245.232 10.0595 246.194 12.7835 246.194 15.5709C246.194 18.3594 245.228 21.088 243.474 23.2529L244.452 24.0451C246.387 21.6563 247.454 18.6478 247.454 15.5709C247.454 12.4974 246.392 9.49166 244.464 7.10718L243.485 7.90004Z" fill="white"/>
<path fill-rule="evenodd" clip-rule="evenodd" d="M228.312 15.5709C228.312 18.7036 230.861 21.2534 233.994 21.2534C237.127 21.2534 239.675 18.7036 239.675 15.5709C239.675 12.436 237.127 9.88708 233.994 9.88708C230.861 9.88708 228.312 12.436 228.312 15.5709ZM229.515 15.5709C229.515 13.1009 231.525 11.0925 233.994 11.0925C236.462 11.0925 238.47 13.1009 238.47 15.5709C238.47 18.0405 236.462 20.0481 233.994 20.0481C231.525 20.0481 229.515 18.0405 229.515 15.5709Z" fill="white"/>
<path fill-rule="evenodd" clip-rule="evenodd" d="M223.707 31.2105H223.078L222.734 30.1337H221.538L221.211 31.2105H220.599L221.783 27.531H222.515L223.707 31.2105ZM222.643 29.6829L222.328 28.7171C222.294 28.6203 222.231 28.3879 222.14 28.0219H222.129C222.091 28.1789 222.033 28.4103 221.952 28.7171L221.643 29.6829H222.643Z" fill="white"/>
<path fill-rule="evenodd" clip-rule="evenodd" d="M226.372 31.2105H225.853L225.821 30.8116H225.812C225.623 31.116 225.345 31.2684 224.968 31.2684C224.705 31.2684 224.498 31.189 224.341 31.0304C224.153 30.828 224.062 30.5242 224.062 30.1215V28.5554H224.652V30.0211C224.652 30.5312 224.829 30.7877 225.175 30.7877C225.435 30.7877 225.618 30.6574 225.719 30.4035C225.745 30.3389 225.758 30.264 225.758 30.1789V28.5554H226.349V30.4493C226.349 30.7003 226.356 30.9547 226.372 31.2105Z" fill="white"/>
<path fill-rule="evenodd" clip-rule="evenodd" d="M229.469 31.2104H228.944L228.916 30.7892H228.901C228.733 31.1102 228.448 31.2684 228.048 31.2684C227.728 31.2684 227.461 31.1431 227.25 30.8939C227.037 30.6437 226.931 30.3215 226.931 29.9177C226.931 29.489 227.047 29.1424 227.277 28.8771C227.502 28.629 227.777 28.5043 228.102 28.5043C228.461 28.5043 228.712 28.6268 228.855 28.8665V27.3433H229.447V30.4988C229.447 30.7578 229.453 30.9961 229.469 31.2104ZM228.855 30.0963V29.6544C228.855 29.5772 228.85 29.5147 228.838 29.4675C228.806 29.3267 228.735 29.2056 228.625 29.1107C228.515 29.0126 228.385 28.9635 228.231 28.9635C228.013 28.9635 227.838 29.0518 227.714 29.2271C227.587 29.4025 227.526 29.6277 227.526 29.8994C227.526 30.1604 227.584 30.3767 227.705 30.539C227.832 30.7135 228.005 30.8022 228.222 30.8022C228.414 30.8022 228.567 30.7288 228.686 30.5825C228.798 30.447 228.855 30.2862 228.855 30.0963Z" fill="white"/>
<path fill-rule="evenodd" clip-rule="evenodd" d="M231.117 27.9091C231.117 28.0616 231.068 28.1823 230.973 28.2739C230.878 28.3697 230.753 28.4137 230.601 28.4137C230.466 28.4137 230.352 28.3683 230.257 28.2694C230.165 28.1757 230.117 28.0547 230.117 27.9091C230.117 27.7678 230.165 27.6455 230.26 27.5531C230.355 27.4594 230.476 27.4137 230.617 27.4137C230.759 27.4137 230.878 27.4594 230.973 27.5531C231.068 27.6455 231.117 27.7678 231.117 27.9091ZM231.184 31.2105H230.184V28.5554H231.184V31.2105Z" fill="white"/>
<path fill-rule="evenodd" clip-rule="evenodd" d="M233.948 29.8655C233.948 30.2734 233.832 30.6092 233.599 30.8714C233.355 31.1361 233.031 31.2684 232.626 31.2684C232.235 31.2684 231.925 31.1399 231.693 30.8833C231.463 30.6266 231.348 30.3035 231.348 29.907C231.348 29.4983 231.465 29.1607 231.704 28.8976C231.944 28.6375 232.265 28.5043 232.669 28.5043C233.06 28.5043 233.372 28.6361 233.611 28.8941C233.836 29.1435 233.948 29.4675 233.948 29.8655ZM233.337 29.8812C233.337 29.6373 233.284 29.4281 233.178 29.2523C233.054 29.0411 232.878 28.9345 232.647 28.9345C232.411 28.9345 232.231 29.0411 232.107 29.2523C232.001 29.4281 231.948 29.6428 231.948 29.8919C231.948 30.1351 232.001 30.3473 232.107 30.5207C232.233 30.7308 232.412 30.8388 232.643 30.8388C232.869 30.8388 233.045 30.7297 233.172 30.5152C233.282 30.3384 233.337 30.1254 233.337 29.8812Z" fill="white"/>
<path fill-rule="evenodd" clip-rule="evenodd" d="M238.574 29.669C238.574 30.2104 238.441 30.62 238.18 30.891C237.939 31.1422 237.6 31.2684 237.162 31.2684C236.265 31.2684 235.818 30.7386 235.818 29.6797V27.531H236.41V29.7105C236.41 30.0719 236.482 30.3473 236.627 30.5312C236.759 30.7051 236.943 30.7948 237.185 30.7948C237.716 30.7948 237.981 30.4334 237.981 29.7105V27.531H238.574V29.669Z" fill="white"/>
<path fill-rule="evenodd" clip-rule="evenodd" d="M241.617 31.2105H241.024V29.6918C241.024 29.2202 240.847 28.9859 240.49 28.9859C240.314 28.9859 240.171 29.0518 240.061 29.181C239.952 29.3108 239.898 29.4632 239.898 29.6373V31.2105H239.305V29.3165C239.305 29.0831 239.297 28.8312 239.284 28.5554H239.804L239.831 28.9667H239.848C239.919 28.8433 240.02 28.7354 240.154 28.6521C240.316 28.554 240.494 28.5043 240.692 28.5043C240.939 28.5043 241.145 28.5848 241.31 28.7452C241.514 28.9409 241.617 29.2346 241.617 29.6267V31.2105Z" fill="white"/>
<path fill-rule="evenodd" clip-rule="evenodd" d="M243.23 27.9091C243.23 28.0616 243.185 28.1823 243.088 28.2739C242.992 28.3697 242.867 28.4137 242.715 28.4137C242.579 28.4137 242.464 28.3683 242.369 28.2694C242.278 28.1757 242.23 28.0547 242.23 27.9091C242.23 27.7678 242.279 27.6455 242.373 27.5531C242.47 27.4594 242.589 27.4137 242.73 27.4137C242.872 27.4137 242.992 27.4594 243.088 27.5531C243.185 27.6455 243.23 27.7678 243.23 27.9091ZM243.296 31.2105H242.296V28.5554H243.296V31.2105Z" fill="white"/>
<path fill-rule="evenodd" clip-rule="evenodd" d="M244.971 29.001H244.318V30.2894C244.318 30.6161 244.433 30.7785 244.663 30.7785C244.768 30.7785 244.856 30.7733 244.926 30.7564L244.943 31.2029C244.826 31.2404 244.672 31.2618 244.484 31.2618C244.249 31.2618 244.068 31.1922 243.937 31.0537C243.804 30.9102 243.74 30.6731 243.74 30.3418V29.001H243.352V28.5554H243.74V28.0733L244.318 27.8994V28.5554H244.971V29.001Z" fill="white"/>
<path fill-rule="evenodd" clip-rule="evenodd" d="M247.107 30.447C247.107 30.6957 247.015 30.8919 246.833 31.0411C246.651 31.189 246.399 31.2618 246.079 31.2618C245.776 31.2618 245.519 31.2042 245.308 31.0902L245.433 30.6508C245.638 30.7755 245.853 30.8388 246.084 30.8388C246.384 30.8388 246.536 30.7256 246.536 30.5027C246.536 30.4066 246.502 30.3259 246.437 30.2626C246.372 30.1967 246.256 30.1337 246.088 30.0742C245.617 29.8972 245.381 29.6436 245.381 29.3066C245.381 29.0776 245.467 28.8877 245.643 28.7324C245.817 28.5809 246.048 28.5043 246.335 28.5043C246.598 28.5043 246.822 28.5576 247.007 28.6637L246.882 29.0831C246.713 28.9793 246.532 28.9284 246.344 28.9284C246.22 28.9284 246.122 28.956 246.053 29.0158C245.985 29.0756 245.95 29.1499 245.95 29.2403C245.95 29.3333 245.989 29.4061 246.059 29.4632C246.121 29.5189 246.242 29.5807 246.419 29.646C246.877 29.8196 247.107 30.0879 247.107 30.447Z" fill="white"/>
<path fill-rule="evenodd" clip-rule="evenodd" d="M270.17 67.33C262.35 67.33 256 60.97 256 53.16C256 45.35 262.36 38.98 270.17 38.98C277.98 38.98 284.34 45.34 284.34 53.15C284.34 60.96 277.99 67.33 270.17 67.33ZM270.17 39.93C262.88 39.93 256.94 45.86 256.94 53.16C256.94 60.46 262.87 66.39 270.17 66.39C277.47 66.39 283.4 60.46 283.4 53.16C283.4 45.86 277.47 39.93 270.17 39.93Z" fill="#60C4FF"/>
<path fill-rule="evenodd" clip-rule="evenodd" d="M281.36 52.68C281.6 52.68 281.84 52.59 282.01 52.42C282.2 52.23 282.28 51.98 282.25 51.72C281.99 49.5 281.11 47.39 279.72 45.63C279.55 45.41 279.31 45.3 279.06 45.3C278.83 45.3 278.61 45.4 278.44 45.57L271.6 52.4C271.49 52.51 271.57 52.69 271.72 52.69L281.36 52.68Z" fill="#60C4FF"/>
<path fill-rule="evenodd" clip-rule="evenodd" d="M279.06 61.02C279.32 61.02 279.55 60.9 279.72 60.69C281.11 58.93 281.98 56.82 282.25 54.6C282.28 54.34 282.19 54.09 282.01 53.9C281.84 53.73 281.6 53.64 281.36 53.64H271.72C271.57 53.64 271.5 53.82 271.6 53.93L278.44 60.77C278.61 60.92 278.83 61.02 279.06 61.02Z" fill="#60C4FF"/>
<path fill-rule="evenodd" clip-rule="evenodd" d="M270.9 65C271.08 65.18 271.33 65.27 271.61 65.23C273.84 64.97 275.95 64.1 277.7 62.71C277.91 62.55 278.02 62.31 278.03 62.04C278.03 61.8 277.93 61.57 277.75 61.4L270.94 54.59C270.83 54.48 270.65 54.56 270.65 54.71V64.38C270.65 64.61 270.73 64.84 270.9 65Z" fill="#60C4FF"/>
<path fill-rule="evenodd" clip-rule="evenodd" d="M261.29 45.29C261.03 45.29 260.8 45.41 260.63 45.62C259.24 47.38 258.37 49.49 258.1 51.71C258.07 51.97 258.16 52.22 258.34 52.41C258.51 52.58 258.75 52.67 258.99 52.67H268.63C268.78 52.67 268.85 52.49 268.75 52.38L261.91 45.56C261.74 45.39 261.52 45.29 261.29 45.29Z" fill="#60C4FF"/>
<path fill-rule="evenodd" clip-rule="evenodd" d="M269.45 41.31C269.27 41.13 269.02 41.04 268.74 41.08C266.52 41.34 264.41 42.21 262.65 43.6C262.44 43.76 262.33 44 262.32 44.27C262.32 44.51 262.42 44.74 262.6 44.91L269.41 51.72C269.52 51.83 269.7 51.75 269.7 51.6V41.93C269.7 41.7 269.61 41.48 269.45 41.31Z" fill="#60C4FF"/>
<path fill-rule="evenodd" clip-rule="evenodd" d="M278.04 44.27C278.04 44.01 277.92 43.78 277.71 43.61C275.95 42.22 273.84 41.35 271.62 41.08C271.36 41.05 271.11 41.14 270.92 41.32C270.75 41.49 270.66 41.73 270.66 41.97V51.61C270.66 51.76 270.84 51.83 270.95 51.73L277.79 44.89C277.94 44.72 278.04 44.5 278.04 44.27Z" fill="#60C4FF"/>
<path fill-rule="evenodd" clip-rule="evenodd" d="M268.63 53.63H258.99C258.75 53.63 258.51 53.72 258.34 53.89C258.15 54.08 258.07 54.33 258.1 54.59C258.36 56.81 259.24 58.92 260.63 60.68C260.8 60.9 261.04 61.01 261.29 61.01C261.52 61.01 261.74 60.91 261.91 60.74L268.75 53.9C268.85 53.81 268.78 53.63 268.63 53.63Z" fill="#60C4FF"/>
<path fill-rule="evenodd" clip-rule="evenodd" d="M269.42 54.58L262.6 61.4C262.43 61.57 262.32 61.8 262.32 62.04C262.32 62.31 262.44 62.55 262.65 62.71C264.41 64.1 266.51 64.97 268.74 65.23C269.01 65.26 269.26 65.18 269.45 65C269.61 64.84 269.7 64.62 269.7 64.37V54.7C269.7 54.55 269.52 54.48 269.42 54.58Z" fill="#60C4FF"/>
<path fill-rule="evenodd" clip-rule="evenodd" d="M270.17 31.35C262.35 31.35 256 24.99 256 17.18C256 9.37 262.36 3 270.17 3C277.98 3 284.34 9.36 284.34 17.17C284.34 24.98 277.99 31.35 270.17 31.35ZM270.17 3.95C262.88 3.95 256.94 9.88 256.94 17.18C256.94 24.48 262.87 30.41 270.17 30.41C277.47 30.41 283.4 24.48 283.4 17.18C283.4 9.88 277.47 3.95 270.17 3.95Z" fill="white"/>
<path fill-rule="evenodd" clip-rule="evenodd" d="M281.36 16.7C281.6 16.7 281.84 16.61 282.01 16.44C282.2 16.25 282.28 16 282.25 15.74C281.99 13.52 281.11 11.41 279.72 9.65001C279.55 9.43001 279.31 9.32001 279.06 9.32001C278.83 9.32001 278.61 9.42001 278.44 9.59001L271.6 16.42C271.49 16.53 271.57 16.71 271.72 16.71L281.36 16.7Z" fill="white"/>
<path fill-rule="evenodd" clip-rule="evenodd" d="M279.06 25.04C279.32 25.04 279.55 24.92 279.72 24.71C281.11 22.95 281.98 20.84 282.25 18.62C282.28 18.36 282.19 18.11 282.01 17.92C281.84 17.75 281.6 17.66 281.36 17.66H271.72C271.57 17.66 271.5 17.84 271.6 17.95L278.44 24.79C278.61 24.94 278.83 25.04 279.06 25.04Z" fill="white"/>
<path fill-rule="evenodd" clip-rule="evenodd" d="M270.9 29.02C271.08 29.2 271.33 29.29 271.61 29.25C273.84 28.99 275.95 28.12 277.7 26.73C277.91 26.57 278.02 26.33 278.03 26.06C278.03 25.82 277.93 25.59 277.75 25.42L270.94 18.61C270.83 18.5 270.65 18.58 270.65 18.73V28.4C270.65 28.63 270.73 28.86 270.9 29.02Z" fill="white"/>
<path fill-rule="evenodd" clip-rule="evenodd" d="M261.29 9.31C261.03 9.31 260.8 9.43 260.63 9.64C259.24 11.4 258.37 13.51 258.1 15.73C258.07 15.99 258.16 16.24 258.34 16.43C258.51 16.6 258.75 16.69 258.99 16.69H268.63C268.78 16.69 268.85 16.51 268.75 16.4L261.91 9.58C261.74 9.41 261.52 9.31 261.29 9.31Z" fill="white"/>
<path fill-rule="evenodd" clip-rule="evenodd" d="M269.45 5.33002C269.27 5.15002 269.02 5.06002 268.74 5.10002C266.52 5.36002 264.41 6.23002 262.65 7.62002C262.44 7.78002 262.33 8.02002 262.32 8.29002C262.32 8.53002 262.42 8.76002 262.6 8.93002L269.41 15.74C269.52 15.85 269.7 15.77 269.7 15.62V5.95002C269.7 5.72002 269.61 5.50002 269.45 5.33002Z" fill="white"/>
<path fill-rule="evenodd" clip-rule="evenodd" d="M278.04 8.28998C278.04 8.02998 277.92 7.79998 277.71 7.62998C275.95 6.23998 273.84 5.36998 271.62 5.09998C271.36 5.06998 271.11 5.15998 270.92 5.33998C270.75 5.50998 270.66 5.74998 270.66 5.98998V15.63C270.66 15.78 270.84 15.85 270.95 15.75L277.79 8.90998C277.94 8.73998 278.04 8.51998 278.04 8.28998Z" fill="white"/>
<path fill-rule="evenodd" clip-rule="evenodd" d="M268.63 17.65H258.99C258.75 17.65 258.51 17.74 258.34 17.91C258.15 18.1 258.07 18.35 258.1 18.61C258.36 20.83 259.24 22.94 260.63 24.7C260.8 24.92 261.04 25.03 261.29 25.03C261.52 25.03 261.74 24.93 261.91 24.76L268.75 17.92C268.85 17.83 268.78 17.65 268.63 17.65Z" fill="white"/>
<path fill-rule="evenodd" clip-rule="evenodd" d="M269.42 18.6L262.6 25.42C262.43 25.59 262.32 25.82 262.32 26.06C262.32 26.33 262.44 26.57 262.65 26.73C264.41 28.12 266.51 28.99 268.74 29.25C269.01 29.28 269.26 29.2 269.45 29.02C269.61 28.86 269.7 28.64 269.7 28.39V18.72C269.7 18.57 269.52 18.5 269.42 18.6Z" fill="white"/>
</svg>
