<svg width="64" height="93" viewBox="0 0 64 93" fill="none" xmlns="http://www.w3.org/2000/svg">
<g clip-path="url(#clip0_53_3066)">
<path d="M64 0H0V31H64V0Z" fill="black" fill-opacity="0.01"/>
<path d="M7.95498 22.976L7.45898 22.48V16.368H8.05098L8.19498 16.528L8.94698 17.264V20.512V21.776V22L7.95498 22.976ZM16.323 23.504L15.827 24H8.97898L8.48298 23.504L9.45898 22.512H9.49098H11.667H13.139H15.315H15.347L16.323 23.504ZM8.94698 14.736L8.05098 15.632H7.45898V9.52L7.95498 9.024L8.94698 10V10.224V11.488V14.736ZM22.5215 16.736L21.7855 16L22.5215 15.264H24.1855H24.6015L25.0335 16.016L24.6015 16.736H22.7455H22.5215ZM21.5455 8.496L22.0415 8H28.8895L29.3855 8.496L28.4095 9.488H28.3775H26.2015H24.7295H22.5535H22.5215L21.5455 8.496ZM21.0175 22.976L20.5215 22.48V16.368H21.1135L21.2575 16.528L22.0095 17.264V20.512V21.776V22L21.0175 22.976ZM28.9215 17.264L29.8175 16.368H30.4095V22.48L29.9135 22.976L28.9215 22V21.776V20.512V17.264ZM29.9135 9.024L30.4095 9.52V15.632H29.8175L28.9215 14.736V14.288V11.488V10.224V10.016L29.9135 9.024ZM22.0095 14.736L21.1135 15.632H20.5215V9.52L21.0175 9.024L22.0095 10V10.224V11.488V14.736ZM28.4095 15.264L29.1455 16L28.4095 16.736H28.1855H26.9535H26.3135L25.8815 16.016L26.3295 15.264H26.7455H28.4095ZM37.04 14.512H36.816L35.808 12.768V10.224H36.048L37.04 11.952V14.512ZM34.608 8.496L35.104 8H41.952L42.448 8.496L41.472 9.488H41.44H39.264H37.792H35.616H35.584L34.608 8.496ZM42.448 23.504L41.952 24H35.104L34.608 23.504L35.584 22.512H35.616H37.792H39.264H41.44H41.472L42.448 23.504ZM41.984 17.264L42.88 16.368H43.472V22.48L42.976 22.976L41.984 22V21.776V20.512V17.264ZM41.472 15.264L42.208 16L41.472 16.736H41.248H40.016H39.376L38.944 16.016L39.392 15.264H39.808H41.472ZM52.3265 21.488V21.776H50.8545V18.768V18.032L51.5905 16.752L52.3265 18.048V18.768V21.488ZM47.6705 8.496L48.1665 8H55.0145L55.5105 8.496L54.5345 9.488H54.5025H52.3265H50.8545H48.6785H48.6465L47.6705 8.496ZM50.8545 10.224H52.3265V13.232V13.968L51.5905 15.264L50.8545 14V13.232V10.224Z" fill="#FF0000"/>
<path d="M64 31H0V62H64V31Z" fill="black" fill-opacity="0.01"/>
<path d="M21.0175 53.976L20.5215 53.48V47.368H21.1135L21.2575 47.528L22.0095 48.264V51.512V52.776V53L21.0175 53.976ZM29.3855 54.504L28.8895 55H22.0415L21.5455 54.504L22.5215 53.512H22.5535H24.7295H26.2015H28.3775H28.4095L29.3855 54.504ZM22.0095 45.736L21.1135 46.632H20.5215V40.52L21.0175 40.024L22.0095 41V41.224V42.488V45.736ZM34.608 39.496L35.104 39H41.952L42.448 39.496L41.472 40.488H41.44H39.264H37.792H35.616H35.584L34.608 39.496ZM34.08 53.976L33.584 53.48V47.368H34.176L34.32 47.528L35.072 48.264V51.512V52.776V53L34.08 53.976ZM42.448 54.504L41.952 55H35.104L34.608 54.504L35.584 53.512H35.616H37.792H39.264H41.44H41.472L42.448 54.504ZM41.984 48.264L42.88 47.368H43.472V53.48L42.976 53.976L41.984 53V52.776V51.512V48.264ZM42.976 40.024L43.472 40.52V46.632H42.88L41.984 45.736V45.288V42.488V41.224V41.016L42.976 40.024ZM35.072 45.736L34.176 46.632H33.584V40.52L34.08 40.024L35.072 41V41.224V42.488V45.736ZM50.1025 48.488V51.048L49.1105 52.776H48.8705V50.232L49.8785 48.488H50.1025ZM53.0785 48.488H53.3025L54.3105 50.232V52.776H54.0705L53.0785 51.048V48.488ZM50.8545 41.224H52.3265V44.232V44.968L51.5905 46.264L50.8545 45V44.232V41.224ZM47.1425 53.976L46.6465 53.48V47.368H47.2385L47.3825 47.528L48.1345 48.264V51.512V52.776V53L47.1425 53.976ZM55.0465 48.264L55.9425 47.368H56.5345V53.48L56.0385 53.976L55.0465 53V52.776V51.512V48.264ZM56.0385 40.024L56.5345 40.52V46.632H55.9425L55.0465 45.736V45.288V42.488V41.224V41.016L56.0385 40.024ZM48.1345 45.736L47.2385 46.632H46.6465V40.52L47.1425 40.024L48.1345 41V41.224V42.488V45.736Z" fill="#FF0000"/>
<path d="M64 62H0V93H64V62Z" fill="black" fill-opacity="0.01"/>
<path d="M9.45898 78.736L8.72298 78L9.45898 77.264H11.123H11.539L11.971 78.016L11.539 78.736H9.68298H9.45898ZM7.95498 84.976L7.45898 84.48V78.368H8.05098L8.19498 78.528L8.94698 79.264V82.512V83.776V84L7.95498 84.976ZM15.859 79.264L16.755 78.368H17.347V84.48L16.851 84.976L15.859 84V83.776V82.512V79.264ZM16.851 71.024L17.347 71.52V77.632H16.755L15.859 76.736V76.288V73.488V72.224V72.016L16.851 71.024ZM8.94698 76.736L8.05098 77.632H7.45898V71.52L7.95498 71.024L8.94698 72V72.224V73.488V76.736ZM15.347 77.264L16.083 78L15.347 78.736H15.123H13.891H13.251L12.819 78.016L13.267 77.264H13.683H15.347ZM26.2015 83.488V83.776H24.7295V80.768V80.032L25.4655 78.752L26.2015 80.048V80.768V83.488ZM21.5455 70.496L22.0415 70H28.8895L29.3855 70.496L28.4095 71.488H28.3775H26.2015H24.7295H22.5535H22.5215L21.5455 70.496ZM24.7295 72.224H26.2015V75.232V75.968L25.4655 77.264L24.7295 76V75.232V72.224ZM29.3855 85.504L28.8895 86H22.0415L21.5455 85.504L22.5215 84.512H22.5535H24.7295H26.2015H28.3775H28.4095L29.3855 85.504ZM34.608 70.496L35.104 70H41.952L42.448 70.496L41.472 71.488H41.44H39.264H37.792H35.616H35.584L34.608 70.496ZM34.08 84.976L33.584 84.48V78.368H34.176L34.32 78.528L35.072 79.264V82.512V83.776V84L34.08 84.976ZM42.448 85.504L41.952 86H35.104L34.608 85.504L35.584 84.512H35.616H37.792H39.264H41.44H41.472L42.448 85.504ZM41.984 79.264L42.88 78.368H43.472V84.48L42.976 84.976L41.984 84V83.776V82.512V79.264ZM35.072 76.736L34.176 77.632H33.584V71.52L34.08 71.024L35.072 72V72.224V73.488V76.736ZM41.472 77.264L42.208 78L41.472 78.736H41.248H40.016H39.376L38.944 78.016L39.392 77.264H39.808H41.472ZM48.6465 78.736L47.9105 78L48.6465 77.264H50.3105H50.7265L51.1585 78.016L50.7265 78.736H48.8705H48.6465ZM47.1425 84.976L46.6465 84.48V78.368H47.2385L47.3825 78.528L48.1345 79.264V82.512V83.776V84L47.1425 84.976ZM55.0465 79.264L55.9425 78.368H56.5345V84.48L56.0385 84.976L55.0465 84V83.776V82.512V79.264ZM56.0385 71.024L56.5345 71.52V77.632H55.9425L55.0465 76.736V76.288V73.488V72.224V72.016L56.0385 71.024ZM48.1345 76.736L47.2385 77.632H46.6465V71.52L47.1425 71.024L48.1345 72V72.224V73.488V76.736ZM54.5345 77.264L55.2705 78L54.5345 78.736H54.3105H53.0785H52.4385L52.0065 78.016L52.4545 77.264H52.8705H54.5345Z" fill="#FF0000"/>
</g>
<defs>
<clipPath id="clip0_53_3066">
<rect width="64" height="93" fill="white"/>
</clipPath>
</defs>
</svg>
