<svg width="11" height="44" viewBox="0 0 11 44" fill="none" xmlns="http://www.w3.org/2000/svg">
<rect x="0.5" y="0.5" width="10" height="43" stroke="black" stroke-opacity="0.01"/>
<path d="M1 5.5C1 5.08579 1.33579 4.75 1.75 4.75H9.25C9.66421 4.75 10 5.08579 10 5.5V9.25C10 9.66421 9.66421 10 9.25 10H1.75C1.33579 10 1 9.66421 1 9.25V5.5Z" fill="#191919"/>
<path d="M6.25 1C7.49264 1 8.5 2.00736 8.5 3.25V7.75H7.375V3.25C7.375 2.62868 6.87132 2.125 6.25 2.125H4.75C4.12868 2.125 3.625 2.62868 3.625 3.25V7.75H2.5V3.25C2.5 2.00736 3.50736 1 4.75 1H6.25Z" fill="#191919"/>
<path d="M1 16.5C1 16.0858 1.33579 15.75 1.75 15.75H9.25C9.66421 15.75 10 16.0858 10 16.5V20.25C10 20.6642 9.66421 21 9.25 21H1.75C1.33579 21 1 20.6642 1 20.25V16.5Z" fill="#191919"/>
<path d="M6.25 12C7.49264 12 8.5 13.0074 8.5 14.25V18.75H7.375V14.25C7.375 13.6287 6.87132 13.125 6.25 13.125H4.75C4.12868 13.125 3.625 13.6287 3.625 14.25V18.75H2.5V14.25C2.5 13.0074 3.50736 12 4.75 12H6.25Z" fill="#191919"/>
<path d="M1 27.5C1 27.0858 1.33579 26.75 1.75 26.75H9.25C9.66421 26.75 10 27.0858 10 27.5V31.25C10 31.6642 9.66421 32 9.25 32H1.75C1.33579 32 1 31.6642 1 31.25V27.5Z" fill="white"/>
<path d="M6.25 23C7.49264 23 8.5 24.0074 8.5 25.25V29.75H7.375V25.25C7.375 24.6287 6.87132 24.125 6.25 24.125H4.75C4.12868 24.125 3.625 24.6287 3.625 25.25V29.75H2.5V25.25C2.5 24.0074 3.50736 23 4.75 23H6.25Z" fill="white"/>
<path d="M1 38.5C1 38.0858 1.33579 37.75 1.75 37.75H9.25C9.66421 37.75 10 38.0858 10 38.5V42.25C10 42.6642 9.66421 43 9.25 43H1.75C1.33579 43 1 42.6642 1 42.25V38.5Z" fill="white"/>
<path d="M6.25 34C7.49264 34 8.5 35.0074 8.5 36.25V40.75H7.375V36.25C7.375 35.6287 6.87132 35.125 6.25 35.125H4.75C4.12868 35.125 3.625 35.6287 3.625 36.25V40.75H2.5V36.25C2.5 35.0074 3.50736 34 4.75 34H6.25Z" fill="white"/>
</svg>
