<svg width="11" height="44" viewBox="0 0 11 44" fill="none" xmlns="http://www.w3.org/2000/svg">
<rect x="0.5" y="0.5" width="10" height="43" stroke="black" stroke-opacity="0.01"/>
<path fill-rule="evenodd" clip-rule="evenodd" d="M6.4 1H4.6V2.01342C4.26968 2.09843 3.95771 2.22916 3.67123 2.39844L2.95441 1.68162L1.68162 2.95441L2.39844 3.67123C2.22915 3.95771 2.09843 4.26968 2.01342 4.6H1V6.4H2.01342C2.09843 6.73031 2.22915 7.04228 2.39843 7.32875L1.68162 8.04556L2.95441 9.31835L3.67121 8.60155C3.9577 8.77084 4.26967 8.90156 4.6 8.98658V10H6.4V8.98658C6.73032 8.90157 7.04229 8.77084 7.32877 8.60156L8.04559 9.31838L9.31838 8.04559L8.60156 7.32877C8.77084 7.04229 8.90157 6.73032 8.98658 6.4H10V4.6H8.98658C8.90156 4.26967 8.77084 3.9577 8.60155 3.67121L9.31838 2.95438L8.04559 1.68159L7.32875 2.39843C7.04228 2.22915 6.73031 2.09843 6.4 2.01342V1ZM5.5 7.3C6.49411 7.3 7.3 6.49411 7.3 5.5C7.3 4.50589 6.49411 3.7 5.5 3.7C4.50589 3.7 3.7 4.50589 3.7 5.5C3.7 6.49411 4.50589 7.3 5.5 7.3Z" fill="#191919"/>
<path fill-rule="evenodd" clip-rule="evenodd" d="M6.4 12H4.6V13.0134C4.26968 13.0984 3.95771 13.2292 3.67123 13.3984L2.95441 12.6816L1.68162 13.9544L2.39844 14.6712C2.22915 14.9577 2.09843 15.2697 2.01342 15.6H1V17.4H2.01342C2.09843 17.7303 2.22915 18.0423 2.39843 18.3288L1.68162 19.0456L2.95441 20.3184L3.67121 19.6016C3.9577 19.7708 4.26967 19.9016 4.6 19.9866V21H6.4V19.9866C6.73032 19.9016 7.04229 19.7708 7.32877 19.6016L8.04559 20.3184L9.31838 19.0456L8.60156 18.3288C8.77084 18.0423 8.90157 17.7303 8.98658 17.4H10V15.6H8.98658C8.90156 15.2697 8.77084 14.9577 8.60155 14.6712L9.31838 13.9544L8.04559 12.6816L7.32875 13.3984C7.04228 13.2291 6.73031 13.0984 6.4 13.0134V12ZM5.5 18.3C6.49411 18.3 7.3 17.4941 7.3 16.5C7.3 15.5059 6.49411 14.7 5.5 14.7C4.50589 14.7 3.7 15.5059 3.7 16.5C3.7 17.4941 4.50589 18.3 5.5 18.3Z" fill="#191919"/>
<path fill-rule="evenodd" clip-rule="evenodd" d="M6.4 23H4.6V24.0134C4.26968 24.0984 3.95771 24.2292 3.67123 24.3984L2.95441 23.6816L1.68162 24.9544L2.39844 25.6712C2.22915 25.9577 2.09843 26.2697 2.01342 26.6H1V28.4H2.01342C2.09843 28.7303 2.22915 29.0423 2.39843 29.3288L1.68162 30.0456L2.95441 31.3184L3.67121 30.6016C3.9577 30.7708 4.26967 30.9016 4.6 30.9866V32H6.4V30.9866C6.73032 30.9016 7.04229 30.7708 7.32877 30.6016L8.04559 31.3184L9.31838 30.0456L8.60156 29.3288C8.77084 29.0423 8.90157 28.7303 8.98658 28.4H10V26.6H8.98658C8.90156 26.2697 8.77084 25.9577 8.60155 25.6712L9.31838 24.9544L8.04559 23.6816L7.32875 24.3984C7.04228 24.2291 6.73031 24.0984 6.4 24.0134V23ZM5.5 29.3C6.49411 29.3 7.3 28.4941 7.3 27.5C7.3 26.5059 6.49411 25.7 5.5 25.7C4.50589 25.7 3.7 26.5059 3.7 27.5C3.7 28.4941 4.50589 29.3 5.5 29.3Z" fill="white"/>
<path fill-rule="evenodd" clip-rule="evenodd" d="M6.4 34H4.6V35.0134C4.26968 35.0984 3.95771 35.2292 3.67123 35.3984L2.95441 34.6816L1.68162 35.9544L2.39844 36.6712C2.22915 36.9577 2.09843 37.2697 2.01342 37.6H1V39.4H2.01342C2.09843 39.7303 2.22915 40.0423 2.39843 40.3288L1.68162 41.0456L2.95441 42.3184L3.67121 41.6016C3.9577 41.7708 4.26967 41.9016 4.6 41.9866V43H6.4V41.9866C6.73032 41.9016 7.04229 41.7708 7.32877 41.6016L8.04559 42.3184L9.31838 41.0456L8.60156 40.3288C8.77084 40.0423 8.90157 39.7303 8.98658 39.4H10V37.6H8.98658C8.90156 37.2697 8.77084 36.9577 8.60155 36.6712L9.31838 35.9544L8.04559 34.6816L7.32875 35.3984C7.04228 35.2291 6.73031 35.0984 6.4 35.0134V34ZM5.5 40.3C6.49411 40.3 7.3 39.4941 7.3 38.5C7.3 37.5059 6.49411 36.7 5.5 36.7C4.50589 36.7 3.7 37.5059 3.7 38.5C3.7 39.4941 4.50589 40.3 5.5 40.3Z" fill="white"/>
</svg>
