<svg width="11" height="44" viewBox="0 0 11 44" fill="none" xmlns="http://www.w3.org/2000/svg">
<rect x="0.5" y="0.5" width="10" height="43" stroke="black" stroke-opacity="0.01"/>
<path d="M4.68175 4.68182C4.23315 5.13041 4.2299 5.85571 4.672 6.30831L4.69161 6.32793C5.14422 6.77002 5.86953 6.76677 6.31813 6.31818L9.18181 3.45454L10 4.27273L7.13633 7.13636C6.37386 7.89882 5.21171 8.01801 4.32428 7.49394L1.81819 10L1 9.18182L3.50606 6.6758C2.98188 5.78836 3.10104 4.62614 3.86355 3.86363L6.72723 1L7.54542 1.81818L4.68175 4.68182Z" fill="#191919"/>
<path d="M4.68175 15.6818C4.23315 16.1304 4.2299 16.8557 4.672 17.3083L4.69161 17.3279C5.14422 17.77 5.86953 17.7668 6.31813 17.3182L9.18181 14.4545L10 15.2727L7.13633 18.1364C6.37386 18.8988 5.21171 19.018 4.32428 18.4939L1.81819 21L1 20.1818L3.50606 17.6758C2.98188 16.7884 3.10104 15.6261 3.86355 14.8636L6.72723 12L7.54542 12.8182L4.68175 15.6818Z" fill="#191919"/>
<path d="M4.68175 26.6818C4.23315 27.1304 4.2299 27.8557 4.672 28.3083L4.69161 28.3279C5.14422 28.77 5.86953 28.7668 6.31813 28.3182L9.18181 25.4545L10 26.2727L7.13633 29.1364C6.37386 29.8988 5.21171 30.018 4.32428 29.4939L1.81819 32L1 31.1818L3.50606 28.6758C2.98188 27.7884 3.10104 26.6261 3.86355 25.8636L6.72723 23L7.54542 23.8182L4.68175 26.6818Z" fill="white"/>
<path d="M4.68175 37.6818C4.23315 38.1304 4.2299 38.8557 4.672 39.3083L4.69161 39.3279C5.14422 39.77 5.86953 39.7668 6.31813 39.3182L9.18181 36.4545L10 37.2727L7.13633 40.1364C6.37386 40.8988 5.21171 41.018 4.32428 40.4939L1.81819 43L1 42.1818L3.50606 39.6758C2.98188 38.7884 3.10104 37.6261 3.86355 36.8636L6.72723 34L7.54542 34.8182L4.68175 37.6818Z" fill="white"/>
</svg>
