<svg width="18" height="78" viewBox="0 0 18 78" fill="none" xmlns="http://www.w3.org/2000/svg">
<rect width="18" height="78" fill="black" fill-opacity="0.01"/>
<rect x="1.5" y="1.5" width="15" height="10" rx="1.5" fill="#817F7E" stroke="#242424"/>
<rect x="3" y="3" width="12" height="7" rx="1" fill="url(#paint0_radial_51_809)"/>
<rect x="1.5" y="14.5" width="15" height="10" rx="1.5" fill="#626363" stroke="#242424"/>
<rect x="3" y="16" width="12" height="7" rx="1" fill="url(#paint1_radial_51_809)"/>
<rect x="1.5" y="27.5" width="15" height="10" rx="1.5" fill="#693F5B" stroke="#242424"/>
<rect x="3" y="29" width="12" height="7" rx="1" fill="url(#paint2_radial_51_809)"/>
<rect x="1.5" y="40.5" width="15" height="10" rx="1.5" fill="#4D3344" stroke="#242424"/>
<rect x="3" y="42" width="12" height="7" rx="1" fill="url(#paint3_radial_51_809)"/>
<rect x="1.5" y="53.5" width="15" height="10" rx="1.5" fill="#461818" stroke="#242424"/>
<rect x="3" y="55" width="12" height="7" rx="1" fill="url(#paint4_radial_51_809)"/>
<rect x="1.5" y="66.5" width="15" height="10" rx="1.5" fill="#331212" stroke="#242424"/>
<rect x="3" y="68" width="12" height="7" rx="1" fill="url(#paint5_radial_51_809)"/>
<defs>
<radialGradient id="paint0_radial_51_809" cx="0" cy="0" r="1" gradientUnits="userSpaceOnUse" gradientTransform="translate(9 6.5) rotate(90) scale(3.5 7.61279)">
<stop stop-color="white"/>
<stop offset="1" stop-color="#BFBBB5"/>
</radialGradient>
<radialGradient id="paint1_radial_51_809" cx="0" cy="0" r="1" gradientUnits="userSpaceOnUse" gradientTransform="translate(9 19.5) rotate(90) scale(3.5 7.61279)">
<stop stop-color="white" stop-opacity="0.75"/>
<stop offset="1" stop-color="#BFBBB5" stop-opacity="0.75"/>
</radialGradient>
<radialGradient id="paint2_radial_51_809" cx="0" cy="0" r="1" gradientUnits="userSpaceOnUse" gradientTransform="translate(9 32.5) rotate(90) scale(3.5 7.61279)">
<stop stop-color="#DF9FC9"/>
<stop offset="1" stop-color="#D279B4"/>
</radialGradient>
<radialGradient id="paint3_radial_51_809" cx="0" cy="0" r="1" gradientUnits="userSpaceOnUse" gradientTransform="translate(9 45.5) rotate(90) scale(3.5 7.61279)">
<stop stop-color="#DF9FC9" stop-opacity="0.75"/>
<stop offset="1" stop-color="#D279B4" stop-opacity="0.75"/>
</radialGradient>
<radialGradient id="paint4_radial_51_809" cx="0" cy="0" r="1" gradientUnits="userSpaceOnUse" gradientTransform="translate(9 58.5) rotate(90) scale(3.5 7.61279)">
<stop stop-color="#FF0000"/>
<stop offset="1" stop-color="#730505"/>
</radialGradient>
<radialGradient id="paint5_radial_51_809" cx="0" cy="0" r="1" gradientUnits="userSpaceOnUse" gradientTransform="translate(9 71.5) rotate(90) scale(3.5 7.61279)">
<stop stop-color="#FF0000" stop-opacity="0.75"/>
<stop offset="1" stop-color="#730505" stop-opacity="0.75"/>
</radialGradient>
</defs>
</svg>
