<svg width="11" height="44" viewBox="0 0 11 44" fill="none" xmlns="http://www.w3.org/2000/svg">
<rect x="0.5" y="0.5" width="10" height="43" stroke="black" stroke-opacity="0.01"/>
<path d="M9 5.85C9 7.0098 8.28866 8 7 8H4V10L2 7.5L4 5V7H7C7.64433 7 8 6.4299 8 5.85V4.1C8 3.5201 7.64433 3 7 3H4V2H7C8.28866 2 9 2.9402 9 4.1V5.85Z" fill="#191919"/>
<path d="M9 16.85C9 18.0098 8.28866 19 7 19H4V21L2 18.5L4 16V18H7C7.64433 18 8 17.4299 8 16.85V15.1C8 14.5201 7.64433 14 7 14H4V13H7C8.28866 13 9 13.9402 9 15.1V16.85Z" fill="#191919"/>
<path d="M9 27.85C9 29.0098 8.28866 30 7 30H4V32L2 29.5L4 27V29H7C7.64433 29 8 28.4299 8 27.85V26.1C8 25.5201 7.64433 25 7 25H4V24H7C8.28866 24 9 24.9402 9 26.1V27.85Z" fill="white"/>
<path d="M9 38.85C9 40.0098 8.28866 41 7 41H4V43L2 40.5L4 38V40H7C7.64433 40 8 39.4299 8 38.85V37.1C8 36.5201 7.64433 36 7 36H4V35H7C8.28866 35 9 35.9402 9 37.1V38.85Z" fill="white"/>
</svg>
