<?xml version="1.0" encoding="UTF-8" standalone="no"?>
<!-- Created with Inkscape (http://www.inkscape.org/) -->

<svg
   version="1.1"
   id="svg1"
   width="40"
   height="40"
   viewBox="0 0 39.999999 39.999999"
   sodipodi:docname="knob_svg painted_NEU540x40.svg"
   inkscape:version="1.4.2 (f4327f4, 2025-05-13)"
   inkscape:export-filename="40\40\40\40\40\knob_layer2.svg"
   inkscape:export-xdpi="96"
   inkscape:export-ydpi="96"
   inkscape:export-batch-path="40\40\40\40\40"
   inkscape:export-batch-name="knob_layer1"
   xmlns:inkscape="http://www.inkscape.org/namespaces/inkscape"
   xmlns:sodipodi="http://sodipodi.sourceforge.net/DTD/sodipodi-0.dtd"
   xmlns:xlink="http://www.w3.org/1999/xlink"
   xmlns="http://www.w3.org/2000/svg"
   xmlns:svg="http://www.w3.org/2000/svg">
  <defs
     id="defs1">
    <linearGradient
       id="linearGradient14">
      <stop
         style="stop-color:#a2a2a4;stop-opacity:1;"
         offset="0.7117607"
         id="stop13" />
      <stop
         style="stop-color:#111111;stop-opacity:1;"
         offset="1"
         id="stop14" />
    </linearGradient>
    <linearGradient
       id="linearGradient9">
      <stop
         style="stop-color:#a2a2a4;stop-opacity:1;"
         offset="0.71583956"
         id="stop8" />
      <stop
         style="stop-color:#111111;stop-opacity:1;"
         offset="1"
         id="stop9" />
    </linearGradient>
    <linearGradient
       id="linearGradient15"
       inkscape:swatch="gradient">
      <stop
         style="stop-color:#000000;stop-opacity:1;"
         offset="0"
         id="stop15" />
      <stop
         style="stop-color:#ffffff;stop-opacity:0;"
         offset="1"
         id="stop17" />
    </linearGradient>
    <linearGradient
       id="swatch55"
       inkscape:swatch="solid">
      <stop
         style="stop-color:#000000;stop-opacity:1;"
         offset="0"
         id="stop55" />
    </linearGradient>
    <linearGradient
       id="linearGradient50"
       inkscape:collect="always">
      <stop
         style="stop-color:#000000;stop-opacity:1;"
         offset="0.25832766"
         id="stop51" />
      <stop
         style="stop-color:#2b2b2b;stop-opacity:0;"
         offset="1"
         id="stop52" />
    </linearGradient>
    <linearGradient
       id="linearGradient21">
      <stop
         style="stop-color:#38383d;stop-opacity:1;"
         offset="0"
         id="stop18" />
      <stop
         style="stop-color:#182425;stop-opacity:1;"
         offset="1"
         id="stop7" />
    </linearGradient>
    <linearGradient
       id="swatch16"
       inkscape:swatch="solid">
      <stop
         style="stop-color:#000000;stop-opacity:1;"
         offset="0"
         id="stop16" />
    </linearGradient>
    <linearGradient
       id="swatch9">
      <stop
         style="stop-color:#242424;stop-opacity:1;"
         offset="0"
         id="stop10" />
      <stop
         style="stop-color:#151616;stop-opacity:1;"
         offset="0.51937449"
         id="stop46" />
      <stop
         style="stop-color:#2f3032;stop-opacity:1;"
         offset="0.84432364"
         id="stop42" />
      <stop
         style="stop-color:#212223;stop-opacity:1;"
         offset="1"
         id="stop41" />
    </linearGradient>
    <linearGradient
       id="swatch1"
       inkscape:swatch="solid">
      <stop
         style="stop-color:#a3a3a3;stop-opacity:1;"
         offset="0"
         id="stop1" />
    </linearGradient>
    <linearGradient
       id="swatch97"
       inkscape:swatch="solid">
      <stop
         style="stop-color:#000000;stop-opacity:1;"
         offset="0"
         id="stop97" />
    </linearGradient>
    <linearGradient
       id="swatch85"
       inkscape:swatch="solid">
      <stop
         style="stop-color:#252525;stop-opacity:1;"
         offset="0"
         id="stop85" />
    </linearGradient>
    <linearGradient
       id="swatch74"
       inkscape:swatch="solid">
      <stop
         style="stop-color:#e5e5e5;stop-opacity:1;"
         offset="0"
         id="stop74" />
    </linearGradient>
    <linearGradient
       id="swatch73"
       inkscape:swatch="solid">
      <stop
         style="stop-color:#2f3031;stop-opacity:1;"
         offset="0"
         id="stop73" />
    </linearGradient>
    <linearGradient
       id="swatch69">
      <stop
         style="stop-color:#393a3c;stop-opacity:0.98431373;"
         offset="0"
         id="stop69" />
      <stop
         style="stop-color:#303234;stop-opacity:1;"
         offset="0.6390211"
         id="stop45" />
      <stop
         style="stop-color:#27282b;stop-opacity:1;"
         offset="1"
         id="stop43" />
    </linearGradient>
    <linearGradient
       id="swatch60"
       inkscape:collect="always">
      <stop
         style="stop-color:#222222;stop-opacity:1;"
         offset="0"
         id="stop60" />
      <stop
         style="stop-color:#141414;stop-opacity:0.14197531;"
         offset="0.48677966"
         id="stop61" />
    </linearGradient>
    <linearGradient
       id="swatch44">
      <stop
         style="stop-color:#d1d3d4;stop-opacity:1;"
         offset="0.73152542"
         id="stop44" />
    </linearGradient>
    <linearGradient
       id="linearGradient4"
       inkscape:swatch="gradient">
      <stop
         style="stop-color:#47474b;stop-opacity:1;"
         offset="0.0210741"
         id="stop2" />
      <stop
         style="stop-color:#3b3b41;stop-opacity:0.65098041;"
         offset="0.77889287"
         id="stop3" />
      <stop
         style="stop-color:#151515;stop-opacity:1;"
         offset="1"
         id="stop4" />
    </linearGradient>
    <linearGradient
       id="linearGradient37"
       inkscape:collect="always">
      <stop
         style="stop-color:#434546;stop-opacity:1;"
         offset="0"
         id="stop35" />
      <stop
         style="stop-color:#737579;stop-opacity:0.65098041;"
         offset="0"
         id="stop36" />
      <stop
         style="stop-color:#323232;stop-opacity:0;"
         offset="1"
         id="stop37" />
    </linearGradient>
    <linearGradient
       id="linearGradient33"
       inkscape:collect="always">
      <stop
         style="stop-color:#636363;stop-opacity:1;"
         offset="0"
         id="stop32" />
      <stop
         style="stop-color:#40494c;stop-opacity:0.65098041;"
         offset="0.08649286"
         id="stop34" />
      <stop
         style="stop-color:#050505;stop-opacity:0;"
         offset="1"
         id="stop33" />
    </linearGradient>
    <linearGradient
       id="swatch30"
       inkscape:swatch="solid">
      <stop
         style="stop-color:#212121;stop-opacity:0.7733236;"
         offset="0"
         id="stop30" />
    </linearGradient>
    <linearGradient
       id="linearGradient19"
       inkscape:swatch="gradient">
      <stop
         style="stop-color:#000000;stop-opacity:1;"
         offset="0.36777702"
         id="stop19" />
      <stop
         style="stop-color:#4b4d50;stop-opacity:0;"
         offset="1"
         id="stop20" />
    </linearGradient>
    <linearGradient
       id="linearGradient120"
       inkscape:collect="always">
      <stop
         style="stop-color:#0e1d1d;stop-opacity:1;"
         offset="0"
         id="stop120" />
      <stop
         style="stop-color:#272829;stop-opacity:1;"
         offset="0.45182782"
         id="stop122" />
      <stop
         style="stop-color:#2a2b2d;stop-opacity:1;"
         offset="0.59981704"
         id="stop123" />
      <stop
         style="stop-color:#404043;stop-opacity:1;"
         offset="1"
         id="stop121" />
    </linearGradient>
    <linearGradient
       inkscape:collect="always"
       xlink:href="#swatch60"
       id="linearGradient22"
       gradientUnits="userSpaceOnUse"
       x1="1350"
       y1="450"
       x2="1350"
       y2="2250"
       gradientTransform="matrix(0.01555555,0,0,0.01555555,-1.0000283,-1.0000283)" />
    <linearGradient
       inkscape:collect="always"
       xlink:href="#swatch44"
       id="linearGradient23"
       gradientUnits="userSpaceOnUse"
       x1="445.00009"
       y1="1349.9958"
       x2="2255"
       y2="1349.9958"
       gradientTransform="matrix(0.01555555,0,0,0.01555555,-1.0000283,-1.0000283)" />
    <radialGradient
       inkscape:collect="always"
       xlink:href="#swatch9"
       id="radialGradient23"
       gradientUnits="userSpaceOnUse"
       gradientTransform="matrix(0.01526109,0,0,0.01526109,-0.60250699,-0.60251552)"
       cx="1350"
       cy="1350"
       fx="1350"
       fy="1350"
       r="804.07672" />
    <linearGradient
       inkscape:collect="always"
       xlink:href="#linearGradient21"
       id="linearGradient24"
       gradientUnits="userSpaceOnUse"
       x1="1350"
       y1="545.92334"
       x2="1350"
       y2="2154.0767"
       gradientTransform="matrix(0.01526109,0,0,0.01526109,-0.60250699,-0.60251552)" />
    <radialGradient
       inkscape:collect="always"
       xlink:href="#linearGradient50"
       id="radialGradient24"
       gradientUnits="userSpaceOnUse"
       gradientTransform="matrix(0.01573368,0,0,0.01573368,-1.2404926,-1.2405009)"
       cx="1350"
       cy="1350"
       fx="1350"
       fy="1350"
       r="680.00006" />
    <linearGradient
       inkscape:collect="always"
       xlink:href="#linearGradient37"
       id="linearGradient25"
       gradientUnits="userSpaceOnUse"
       gradientTransform="matrix(0.01573368,0,0,0.01573368,-1.2404926,-1.2405009)"
       x1="1350"
       y1="669.99988"
       x2="1350"
       y2="2030.0001" />
    <linearGradient
       inkscape:collect="always"
       xlink:href="#swatch69"
       id="linearGradient26"
       gradientUnits="userSpaceOnUse"
       x1="1350"
       y1="800"
       x2="1350"
       y2="1900"
       gradientTransform="matrix(0.01545455,0,0,0.01545455,-0.86368337,-0.86363097)" />
    <linearGradient
       inkscape:collect="always"
       xlink:href="#linearGradient33"
       id="linearGradient27"
       gradientUnits="userSpaceOnUse"
       gradientTransform="matrix(0.01463643,0,0,0.01463643,0.48470534,0.48475792)"
       x1="1333.3335"
       y1="715.11975"
       x2="1329.7018"
       y2="1951.547" />
    <linearGradient
       inkscape:collect="always"
       xlink:href="#swatch1"
       id="linearGradient54"
       gradientUnits="userSpaceOnUse"
       x1="1170"
       y1="264.49277"
       x2="1530"
       y2="264.49277"
       gradientTransform="matrix(0.01388895,0,0,0.01497394,1.2499083,-0.7605026)" />
    <linearGradient
       inkscape:collect="always"
       xlink:href="#linearGradient120"
       id="linearGradient1"
       gradientUnits="userSpaceOnUse"
       gradientTransform="matrix(0.01480076,0,0,0.01480076,0.2656271,0.26562805)"
       x1="1333.3331"
       y1="2648.333"
       x2="1333.3333"
       y2="215.69077" />
    <radialGradient
       inkscape:collect="always"
       xlink:href="#linearGradient14"
       id="radialGradient1"
       gradientUnits="userSpaceOnUse"
       cx="1345"
       cy="1345"
       fx="1345"
       fy="1345"
       r="775"
       gradientTransform="matrix(0.01483871,0,0,0.01483871,0.04193505,0.04193505)" />
    <radialGradient
       inkscape:collect="always"
       xlink:href="#linearGradient9"
       id="radialGradient3"
       gradientUnits="userSpaceOnUse"
       cx="1345"
       cy="1345"
       fx="1345"
       fy="1345"
       r="775"
       gradientTransform="matrix(0.01483871,0,0,0.01483871,0.04193505,0.04193505)" />
    <radialGradient
       inkscape:collect="always"
       xlink:href="#linearGradient9"
       id="radialGradient4"
       gradientUnits="userSpaceOnUse"
       cx="1345"
       cy="1345"
       fx="1345"
       fy="1345"
       r="775"
       gradientTransform="matrix(0.01483871,0,0,0.01483871,0.04193505,0.04193505)" />
    <radialGradient
       inkscape:collect="always"
       xlink:href="#linearGradient9"
       id="radialGradient5"
       gradientUnits="userSpaceOnUse"
       cx="1345"
       cy="1345"
       fx="1345"
       fy="1345"
       r="775"
       gradientTransform="matrix(0.01483871,0,0,0.01483871,0.04193505,0.04193505)" />
    <radialGradient
       inkscape:collect="always"
       xlink:href="#linearGradient9"
       id="radialGradient6"
       gradientUnits="userSpaceOnUse"
       cx="1345"
       cy="1345"
       fx="1345"
       fy="1345"
       r="775"
       gradientTransform="matrix(0.01483871,0,0,0.01483871,0.04193505,0.04193505)" />
    <radialGradient
       inkscape:collect="always"
       xlink:href="#linearGradient9"
       id="radialGradient7"
       gradientUnits="userSpaceOnUse"
       cx="1345"
       cy="1345"
       fx="1345"
       fy="1345"
       r="775"
       gradientTransform="matrix(0.01483871,0,0,0.01483871,0.04193505,0.04193505)" />
    <radialGradient
       inkscape:collect="always"
       xlink:href="#linearGradient9"
       id="radialGradient8"
       gradientUnits="userSpaceOnUse"
       cx="1345"
       cy="1345"
       fx="1345"
       fy="1345"
       r="775"
       gradientTransform="matrix(0.01483871,0,0,0.01483871,0.04193505,0.04193505)" />
    <radialGradient
       inkscape:collect="always"
       xlink:href="#linearGradient9"
       id="radialGradient9"
       gradientUnits="userSpaceOnUse"
       cx="1345"
       cy="1345"
       fx="1345"
       fy="1345"
       r="775"
       gradientTransform="matrix(0.01483871,0,0,0.01483871,0.04193505,0.04193505)" />
    <radialGradient
       inkscape:collect="always"
       xlink:href="#linearGradient9"
       id="radialGradient11"
       gradientUnits="userSpaceOnUse"
       cx="1345"
       cy="1345"
       fx="1345"
       fy="1345"
       r="775"
       gradientTransform="matrix(0.01483871,0,0,0.01483871,0.04193505,0.04193505)" />
    <radialGradient
       inkscape:collect="always"
       xlink:href="#linearGradient9"
       id="radialGradient12"
       gradientUnits="userSpaceOnUse"
       cx="1345"
       cy="1345"
       fx="1345"
       fy="1345"
       r="775"
       gradientTransform="matrix(0.01483871,0,0,0.01483871,0.04193505,0.04193505)" />
    <radialGradient
       inkscape:collect="always"
       xlink:href="#linearGradient9"
       id="radialGradient13"
       gradientUnits="userSpaceOnUse"
       cx="1345"
       cy="1345"
       fx="1345"
       fy="1345"
       r="775"
       gradientTransform="matrix(0.01483871,0,0,0.01483871,0.04193505,0.04193505)" />
    <radialGradient
       inkscape:collect="always"
       xlink:href="#linearGradient9"
       id="radialGradient17"
       gradientUnits="userSpaceOnUse"
       gradientTransform="matrix(0.01483871,0,0,0.01483871,0.04193505,0.04193505)"
       cx="1345"
       cy="1345"
       fx="1345"
       fy="1345"
       r="775" />
  </defs>
  <sodipodi:namedview
     id="namedview1"
     pagecolor="#505050"
     bordercolor="#eeeeee"
     borderopacity="1"
     inkscape:showpageshadow="0"
     inkscape:pageopacity="0"
     inkscape:pagecheckerboard="0"
     inkscape:deskcolor="#505050"
     inkscape:zoom="22.627417"
     inkscape:cx="0.35355339"
     inkscape:cy="22.295961"
     inkscape:window-width="3840"
     inkscape:window-height="2054"
     inkscape:window-x="-11"
     inkscape:window-y="-11"
     inkscape:window-maximized="1"
     inkscape:current-layer="g40"
     showguides="false"
     showgrid="false">
    <inkscape:page
       x="0"
       y="0"
       width="40"
       height="40"
       id="page2"
       margin="0"
       bleed="0" />
  </sodipodi:namedview>
  <g
     id="g17"
     inkscape:label="Layer1x"
     transform="translate(2.9698713e-5,2.9698713e-5)"
     inkscape:export-filename="40\knob_layer1.svg"
     inkscape:export-xdpi="96"
     inkscape:export-ydpi="96"
     sodipodi:insensitive="true"
     style="display:none"
     inkscape:highlight-color="#d4f335">
    <circle
       style="display:inline;fill:url(#linearGradient1);fill-rule:evenodd;stroke:#333333;stroke-width:0.0740038;stroke-linecap:round;stroke-dasharray:none;stroke-dashoffset:0;stroke-opacity:1;paint-order:fill markers stroke"
       id="path239"
       cy="19.999969"
       cx="19.999969"
       r="19.462997"
       inkscape:label="Hut" />
    <circle
       style="display:inline;opacity:0.520646;fill:url(#linearGradient22);fill-rule:nonzero;stroke:url(#linearGradient23);stroke-width:0;stroke-linecap:round;stroke-dasharray:none;stroke-dashoffset:0;stroke-opacity:0;paint-order:fill markers stroke"
       id="circle13"
       cx="19.999969"
       cy="19.999969"
       r="14"
       inkscape:label="Sink" />
    <path
       style="display:inline;mix-blend-mode:normal;fill:url(#radialGradient23);stroke:url(#linearGradient24);stroke-width:0.763054;stroke-linecap:round;stroke-linejoin:bevel;stroke-dasharray:none;paint-order:stroke fill markers"
       id="path15"
       sodipodi:type="arc"
       sodipodi:cx="19.999971"
       sodipodi:cy="19.999973"
       sodipodi:rx="12.118473"
       sodipodi:ry="12.118473"
       sodipodi:start="0"
       sodipodi:end="6.2731593"
       sodipodi:open="true"
       sodipodi:arc-type="arc"
       d="M 32.118444,19.999973 A 12.118473,12.118473 0 0 1 20.030346,32.118408 12.118473,12.118473 0 0 1 7.8816506,20.060723 12.118473,12.118473 0 0 1 19.908847,7.8818428 12.118473,12.118473 0 0 1 32.117835,19.878475"
       inkscape:label="Sinkradial" />
    <path
       style="display:inline;opacity:1;fill:url(#radialGradient24);stroke:url(#linearGradient25);stroke-width:2.11815;stroke-linecap:round;stroke-linejoin:bevel;stroke-dasharray:none;paint-order:stroke fill markers"
       id="path16"
       sodipodi:type="arc"
       sodipodi:cx="19.999971"
       sodipodi:cy="19.999971"
       sodipodi:rx="9.4409237"
       sodipodi:ry="9.4409237"
       sodipodi:start="0"
       sodipodi:end="6.2731593"
       sodipodi:open="true"
       sodipodi:arc-type="arc"
       d="m 29.440895,19.999971 a 9.4409237,9.4409237 0 0 1 -9.41726,9.440894 9.4409237,9.4409237 0 0 1 -9.464469,-9.393566 9.4409237,9.4409237 0 0 1 9.369815,-9.487984 9.4409237,9.4409237 0 0 1 9.51144,9.346003"
       inkscape:label="Reflection" />
    <path
       style="display:inline;opacity:0.865079;mix-blend-mode:normal;fill:url(#linearGradient26);stroke:url(#linearGradient27);stroke-width:1.03298;stroke-linecap:round;stroke-linejoin:bevel;stroke-dasharray:none;stroke-opacity:1;paint-order:stroke fill markers"
       id="path17"
       sodipodi:type="arc"
       sodipodi:cx="19.999971"
       sodipodi:cy="19.999971"
       sodipodi:rx="7.9835076"
       sodipodi:ry="7.9835076"
       sodipodi:start="0"
       sodipodi:end="6.2731593"
       sodipodi:open="true"
       sodipodi:arc-type="arc"
       d="m 27.983479,19.999971 a 7.9835076,7.9835076 0 0 1 -7.963497,7.983483 7.9835076,7.9835076 0 0 1 -8.003418,-7.943461 7.9835076,7.9835076 0 0 1 7.923376,-8.023304 7.9835076,7.9835076 0 0 1 8.043138,7.903241"
       inkscape:label="TopHatReflection" />
    <rect
       style="display:inline;opacity:0;fill:#3a3b3d;fill-opacity:1;stroke:none;stroke-width:0;stroke-linecap:round;stroke-linejoin:bevel;stroke-dasharray:none;stroke-dashoffset:0;stroke-opacity:0;paint-order:stroke fill markers"
       id="rect17"
       width="40"
       height="40"
       x="-2.9698713e-05"
       y="-2.9698713e-05"
       rx="0.43991137"
       inkscape:export-filename="40\knob_layer1.svg"
       inkscape:export-xdpi="96"
       inkscape:export-ydpi="96" />
  </g>
  <g
     id="g40"
     inkscape:label="Layer2x"
     style="display:inline"
     sodipodi:insensitive="true"
     inkscape:export-filename="C:\Users\artur\40\knob_layer2.svg"
     inkscape:export-xdpi="96"
     inkscape:export-ydpi="96">
    <path
       d="m 19.981915,0.7 0.05435,0.01953 0.271724,0.5468734 0.217369,0.4296866 0.253637,0.5078145 0.235502,0.4687495 0.253637,0.5078145 0.253636,0.5078085 0.253589,0.5078145 0.253636,0.5078095 0.253637,0.5078144 L 22.5,5.6414 V 5.7 h -5 L 17.51809,5.60234 17.77168,5.0945306 18.04345,4.5476559 18.297038,4.0398465 18.550674,3.532032 18.804311,3.0242235 19.057948,2.5164093 19.275316,2.0867195 19.528952,1.578909 19.782589,1.0710966 19.963737,0.7195349 Z"
       fill="#ffffff"
       id="path27"
       style="display:inline;fill:url(#linearGradient54);stroke-width:0.0188105"
       inkscape:transform-center-x="0.038362279"
       inkscape:transform-center-y="-0.04134102"
       inkscape:label="Arrow" />
    <path
       d="M 31.382252,18.135666 H 31.5 l -0.01963,0.05887 -0.255118,0.156997 -0.196246,0.17662 -0.176621,0.196247 -0.215872,0.412115 -0.0785,0.313993 -0.03925,0.353242 v 0.392492 l 0.03925,0.333618 0.05887,0.274744 0.196245,0.412116 0.176621,0.21587 0.176622,0.176621 0.215869,0.137372 0.09812,0.05887 0.01963,0.05887 -0.215869,-0.01962 -0.549489,-0.09812 -0.313993,-0.05887 -0.196247,-0.05887 -0.196246,-0.17662 -0.196243,-0.235495 -0.176624,-0.372867 -0.05887,-0.176621 -0.03925,-0.294369 v -0.765358 l 0.05888,-0.353243 0.137372,-0.333617 0.137372,-0.215871 0.235495,-0.255119 0.137371,-0.09812 0.372867,-0.0785 0.176622,-0.03925 0.235495,-0.03925 z"
       id="path28"
       style="fill:url(#radialGradient1);fill-opacity:1;stroke-width:0;stroke-dasharray:none" />
    <path
       d="m 24.121161,9.127986 h 0.03925 l 0.01963,0.1569966 0.01962,0.2551195 0.117748,0.412116 0.156995,0.2747439 0.156997,0.196246 0.137372,0.137372 0.313993,0.235495 0.431741,0.235495 0.412116,0.156996 0.215872,0.03925 h 0.431738 l 0.333619,-0.0785 0.235495,-0.09812 0.137372,-0.0785 h 0.0785 l -0.03925,0.0785 -0.255119,0.294369 -0.17662,0.21587 -0.255121,0.294369 -0.176621,0.137372 -0.235494,0.05887 -0.137373,0.01963 h -0.431739 l -0.235495,-0.03925 -0.392491,-0.156997 -0.353243,-0.196246 -0.255119,-0.176622 -0.215871,-0.176621 -0.156996,-0.176621 -0.176623,-0.274744 -0.0785,-0.176621 -0.0785,-0.294369 v -0.137372 l 0.215869,-0.6476107 0.09812,-0.2354948 0.0785,-0.2354949 z"
       id="path29"
       style="fill:url(#radialGradient17);fill-opacity:1;stroke-width:0;stroke-dasharray:none" />
    <path
       d="m 25.632252,27.928329 h 0.510241 l 0.294367,0.0785 0.176621,0.117747 0.0785,0.0785 v 0.03925 h 0.03925 l 0.215869,0.274743 0.235495,0.25512 0.137372,0.176621 0.03925,0.0785 -0.117748,-0.01963 -0.274743,-0.137373 -0.274745,-0.0785 -0.117748,-0.01963 h -0.431738 l -0.274746,0.05887 -0.353242,0.137372 -0.333618,0.176622 -0.255118,0.176621 -0.215872,0.176621 -0.137372,0.137372 -0.196245,0.294369 -0.09812,0.235495 -0.0785,0.294367 -0.01962,0.255121 -0.01963,0.156996 h -0.03925 l -0.09812,-0.255119 -0.05887,-0.156998 -0.0785,-0.215869 -0.176621,-0.510239 v -0.176621 l 0.137371,-0.392491 0.09812,-0.176623 0.176621,-0.235494 0.137372,-0.137371 0.294369,-0.215872 0.294367,-0.176621 0.313995,-0.156995 0.274743,-0.09812 z"
       id="path30"
       style="fill:url(#radialGradient3);fill-opacity:1;stroke-width:0;stroke-dasharray:none" />
    <path
       d="m 28.988056,12.640785 h 0.03925 l -0.01963,0.117748 -0.137373,0.274744 -0.0785,0.274744 -0.01963,0.117747 v 0.431741 l 0.05887,0.274744 0.156998,0.392491 0.215869,0.392492 0.196246,0.25512 0.176621,0.196245 0.196247,0.156997 0.274743,0.156996 0.412115,0.117747 0.235495,0.01963 0.176621,0.01962 v 0.03925 l -0.353242,0.137374 -0.333617,0.117747 -0.255119,0.09812 -0.196246,0.05887 -0.255121,-0.01962 -0.176621,-0.05887 -0.313991,-0.156997 -0.235496,-0.176622 -0.156997,-0.156995 -0.235495,-0.333619 -0.196246,-0.353241 -0.117747,-0.235496 -0.09812,-0.313993 -0.01963,-0.117747 v -0.490614 l 0.05887,-0.294369 0.117748,-0.176621 0.255119,-0.235495 0.215869,-0.176621 0.274747,-0.235495 z"
       id="path31"
       style="fill:url(#radialGradient4);fill-opacity:1;stroke-width:0;stroke-dasharray:none" />
    <path
       d="m 10.226962,23.728668 h 0.25512 l 0.21587,0.05887 0.313993,0.156998 0.25512,0.196247 0.196245,0.215869 0.137373,0.196246 0.176621,0.294369 0.156996,0.313993 0.09812,0.255119 0.03925,0.196245 v 0.490615 l -0.05887,0.294367 -0.0785,0.156998 -0.156996,0.156997 -0.215871,0.176621 -0.274744,0.235494 -0.21587,0.176621 -0.09812,0.05887 0.01963,-0.117748 0.137372,-0.274743 0.0785,-0.274745 0.01963,-0.117746 v -0.43174 l -0.05887,-0.274745 -0.156997,-0.392491 -0.21587,-0.392493 -0.196246,-0.255119 -0.176621,-0.196246 -0.196246,-0.156997 -0.2747439,-0.156995 -0.412116,-0.117748 -0.2551195,-0.01962 -0.1569965,-0.01963 -0.019625,-0.03925 0.3532423,-0.137372 0.4121161,-0.137373 0.1962465,-0.0785 z"
       id="path32"
       style="fill:url(#radialGradient5);fill-opacity:1;stroke-width:0;stroke-dasharray:none" />
    <path
       d="m 19.627133,29.557168 h 0.745734 l 0.353242,0.05887 0.294368,0.117748 0.215872,0.117746 0.255118,0.215872 0.137372,0.156995 0.0785,0.294369 0.0785,0.431741 0.0785,0.451366 V 31.5 l -0.05887,-0.01962 -0.156995,-0.255119 -0.176621,-0.196246 -0.196246,-0.176621 -0.274745,-0.156998 -0.255119,-0.09812 -0.333619,-0.05887 -0.215869,-0.01963 h -0.392492 l -0.353242,0.03925 -0.313993,0.0785 -0.313994,0.156997 -0.215869,0.156996 -0.215871,0.215871 -0.137372,0.215871 -0.05887,0.09812 -0.05887,0.01962 0.01962,-0.215869 0.0785,-0.451367 0.0785,-0.412115 0.05887,-0.196247 0.17662,-0.196244 0.235495,-0.196245 0.313993,-0.156998 0.255121,-0.0785 z"
       id="path33"
       style="fill:url(#radialGradient6);fill-opacity:1;stroke-width:0;stroke-dasharray:none" />
    <path
       d="m 13.877133,27.928329 h 0.529864 l 0.333617,0.09812 0.451365,0.215872 0.372867,0.235495 0.255119,0.215869 0.156997,0.17662 0.156998,0.235497 0.156995,0.470989 v 0.156997 l -0.09812,0.313993 -0.0785,0.196246 -0.156995,0.431741 -0.0785,0.196245 H 15.83959 L 15.81996,30.715017 15.80034,30.459896 15.682592,30.047781 15.525597,29.773038 15.3686,29.576791 15.231228,29.439419 14.917235,29.203924 14.563992,29.007678 14.348122,28.909558 13.994879,28.79181 13.857508,28.77218 h -0.431741 l -0.333618,0.0785 -0.235495,0.09812 -0.137372,0.0785 h -0.0785 l 0.03925,-0.0785 0.235495,-0.274743 0.176621,-0.215872 0.176621,-0.196247 0.137372,-0.156995 0.137372,-0.09812 z"
       id="path34"
       style="fill:url(#radialGradient7);fill-opacity:1;stroke-width:0;stroke-dasharray:none" />
    <path
       d="m 29.576792,23.709045 h 0.156997 l 0.294367,0.09812 0.804608,0.294367 0.03925,0.01963 v 0.03925 l -0.156995,0.01963 -0.255121,0.01962 -0.412115,0.117748 -0.274743,0.156995 -0.196247,0.156997 -0.137372,0.137372 -0.235495,0.313993 -0.235495,0.431741 -0.156998,0.412116 -0.03925,0.215872 v 0.43174 l 0.0785,0.333617 0.09812,0.235495 0.0785,0.137372 v 0.0785 l -0.0785,-0.03925 -0.274745,-0.235495 -0.21587,-0.176622 -0.215869,-0.196245 -0.156998,-0.137372 -0.09812,-0.176623 -0.05887,-0.274743 v -0.451365 l 0.03925,-0.255119 0.117747,-0.294369 0.156998,-0.313993 0.196245,-0.313993 0.196245,-0.255119 0.156998,-0.156997 0.294368,-0.196246 0.215869,-0.09812 z"
       id="path35"
       style="fill:url(#radialGradient8);fill-opacity:1;stroke-width:0;stroke-dasharray:none" />
    <path
       d="m 10.972696,12.66041 0.0785,0.01962 0.294369,0.25512 0.21587,0.176621 0.215871,0.196246 0.156996,0.137372 0.0785,0.137372 0.05887,0.333617 v 0.431741 l -0.05887,0.274744 -0.156997,0.372867 -0.21587,0.392491 -0.274744,0.372867 -0.156997,0.156997 -0.294369,0.196245 -0.21587,0.09812 -0.25512,0.0785 H 10.285836 L 9.9522181,16.192834 9.7952216,16.13396 9.3242319,15.957339 9.1279861,15.878839 v -0.03925 l 0.1766212,-0.01962 0.3139932,-0.03925 0.3336176,-0.09812 0.2747439,-0.156996 0.196246,-0.156997 0.137372,-0.137372 0.235495,-0.313993 0.235495,-0.431741 0.156996,-0.412116 0.03925,-0.21587 v -0.431741 l -0.0785,-0.333618 -0.09812,-0.235494 -0.0785,-0.137372 z"
       id="path36"
       style="fill:url(#radialGradient9);fill-opacity:1;stroke-width:0;stroke-dasharray:none" />
    <path
       d="m 8.4999997,18.135666 0.3336179,0.03925 0.451365,0.0785 0.4317408,0.09812 0.1766211,0.117746 0.2158705,0.235495 0.156996,0.25512 0.09812,0.235494 0.03925,0.137374 0.03925,0.412115 v 0.627986 l -0.05887,0.372867 -0.156997,0.353243 -0.137372,0.215869 -0.2551192,0.274745 -0.1962458,0.0785 -0.3336177,0.0785 -0.2943686,0.03925 -0.1766211,0.03925 -0.235495,0.03925 h -0.098123 l 0.039249,-0.0785 0.2158702,-0.117747 0.2354949,-0.21587 0.1569965,-0.176621 0.2158703,-0.412116 0.058874,-0.215872 0.039249,-0.235495 0.019625,-0.215869 V 19.803754 L 9.4419792,19.450512 9.3634809,19.136519 9.1476106,18.724404 8.9317405,18.488909 8.7551192,18.331912 8.5196244,18.19454 Z"
       id="path37"
       style="fill:url(#radialGradient11);fill-opacity:1;stroke-width:0;stroke-dasharray:none" />
    <path
       d="m 18.135666,8.4999997 0.0785,0.039249 0.117748,0.2158703 0.215869,0.2354949 0.176621,0.1569965 0.412117,0.2158703 0.215871,0.058874 0.235495,0.039249 0.215869,0.019625 h 0.392492 L 20.54949,9.4419797 20.863484,9.3634817 21.2756,9.1476114 21.530719,8.9121165 21.66809,8.75512 21.805462,8.519625 21.864332,8.5 l -0.01962,0.1962458 -0.117749,0.68686 -0.0785,0.3336177 -0.117748,0.1766212 -0.235495,0.2158703 -0.196245,0.117747 -0.215872,0.09812 -0.137371,0.05887 -0.372867,0.05887 H 19.74488 l -0.39249,-0.03925 -0.255121,-0.0785 -0.313993,-0.156997 -0.274743,-0.2354942 -0.117748,-0.137372 -0.0785,-0.2158702 -0.117747,-0.6279865 -0.05887,-0.3532422 z"
       id="path38"
       style="fill:url(#radialGradient12);fill-opacity:1;stroke-width:0;stroke-dasharray:none" />
    <path
       d="m 15.839591,9.127986 0.05887,0.019625 0.09812,0.2943686 0.0785,0.1962458 0.09812,0.2943685 0.05887,0.1373721 0.03925,0.137372 v 0.294368 l -0.137372,0.372867 -0.137373,0.21587 -0.137372,0.176622 -0.196245,0.176621 -0.274745,0.196245 -0.431741,0.235496 -0.274743,0.117747 -0.09812,0.03925 -0.235495,0.03925 h -0.490614 l -0.353243,-0.09812 -0.196246,-0.176622 -0.176621,-0.21587 -0.196245,-0.215871 -0.215871,-0.274744 -0.0785,-0.09812 0.0785,-0.01962 0.313993,0.156997 0.274744,0.0785 0.117748,0.01962 h 0.431741 l 0.274743,-0.05887 0.392492,-0.156997 0.392492,-0.21587 0.255119,-0.196246 0.196246,-0.176621 0.156997,-0.196246 0.156995,-0.2747435 0.117748,-0.412116 0.01962,-0.2551195 z"
       id="path39"
       style="fill:url(#radialGradient13);fill-opacity:1;stroke-width:0;stroke-dasharray:none" />
    <rect
       style="display:inline;opacity:0;fill:#3a3b3d;fill-opacity:1;stroke:none;stroke-width:0;stroke-linecap:round;stroke-linejoin:bevel;stroke-dasharray:none;stroke-dashoffset:0;stroke-opacity:0;paint-order:stroke fill markers"
       id="rect39"
       width="40"
       height="40"
       x="0"
       y="0"
       rx="0.43991137"
       inkscape:label="ViewBox"
       inkscape:export-filename="40\knob_layer2.svg"
       inkscape:export-xdpi="96"
       inkscape:export-ydpi="96" />
  </g>
</svg>
