<svg width="218" height="168" viewBox="0 0 218 168" fill="none" xmlns="http://www.w3.org/2000/svg">
<g filter="url(#filter0_d_180_1447)">
<rect x="157" y="25" width="40" height="40" rx="20" fill="url(#paint0_radial_180_1447)"/>
<rect x="157" y="25" width="40" height="40" rx="20" stroke="black"/>
</g>
<g filter="url(#filter1_d_180_1447)">
<rect x="89" y="25" width="40" height="40" rx="20" fill="url(#paint1_radial_180_1447)"/>
<rect x="89" y="25" width="40" height="40" rx="20" stroke="black"/>
</g>
<g filter="url(#filter2_d_180_1447)">
<rect x="21" y="25" width="40" height="40" rx="20" fill="url(#paint2_radial_180_1447)"/>
<rect x="21" y="25" width="40" height="40" rx="20" stroke="black"/>
</g>
<path d="M166.332 71.3359H164.106V70.335H169.814V71.3359H167.558V77H166.332V71.3359ZM172.003 70.335V74.3096C172.003 74.6351 172.024 74.8955 172.067 75.0908C172.148 75.4554 172.355 75.7256 172.687 75.9014C172.947 76.0381 173.268 76.1064 173.649 76.1064C174.378 76.1064 174.865 75.8997 175.109 75.4863C175.232 75.2812 175.294 74.8743 175.294 74.2656V70.335H176.52V74.2363C176.52 74.7637 176.479 75.1836 176.398 75.4961C176.258 76.056 175.879 76.4808 175.26 76.7705C174.817 76.9756 174.253 77.0781 173.566 77.0781C172.54 77.0781 171.79 76.8063 171.315 76.2627C171.071 75.986 170.913 75.6507 170.841 75.2568C170.799 75.0355 170.778 74.7246 170.778 74.3242V70.335H172.003ZM179.315 71.8779V77H178.138V70.335H179.652L182.718 75.501V70.335H183.895V77H182.43L179.315 71.8779ZM190.479 70.335V71.3359H188.575C188.119 71.3392 187.784 71.3799 187.569 71.458C187.146 71.6045 186.86 71.9154 186.71 72.3906C186.658 72.5697 186.622 72.8252 186.602 73.1572H190.479V74.1582H186.602C186.606 74.627 186.72 75.0273 186.944 75.3594C187.227 75.7858 187.773 75.999 188.58 75.999H190.479V77H188.443C187.945 77 187.498 76.9512 187.1 76.8535C186.374 76.6745 185.846 76.1813 185.513 75.374C185.325 74.9118 185.23 74.3568 185.23 73.709C185.23 72.4785 185.593 71.5459 186.319 70.9111C186.602 70.6637 186.952 70.4993 187.369 70.418C187.642 70.3626 187.974 70.335 188.365 70.335H190.479Z" fill="white"/>
<path d="M80.5998 71.3359H78.3732V70.335H84.0812V71.3359H81.8254V77H80.5998V71.3359ZM86.349 74.3047V77H85.1234V70.335H88.2631C89.1648 70.335 89.7947 70.4538 90.1527 70.6914C90.4066 70.8607 90.602 71.0885 90.7387 71.375C90.8559 71.6289 90.9145 71.904 90.9145 72.2002C90.9145 72.5192 90.851 72.8219 90.724 73.1084C90.532 73.5413 90.1511 73.8457 89.5814 74.0215C89.8256 74.1159 90.0079 74.2119 90.1283 74.3096C90.3822 74.5114 90.5613 74.7767 90.6654 75.1055C90.724 75.2845 90.768 75.5775 90.7973 75.9844C90.8233 76.3685 90.8461 76.6094 90.8656 76.707C90.8852 76.7917 90.9193 76.8893 90.9682 77H89.6498C89.614 76.9089 89.588 76.8112 89.5717 76.707C89.5652 76.6484 89.5424 76.4271 89.5033 76.043C89.4512 75.5286 89.3406 75.1527 89.1713 74.915C88.9662 74.6156 88.6537 74.4316 88.2338 74.3633C88.0124 74.3242 87.7504 74.3047 87.4477 74.3047H86.349ZM86.349 73.3037H88.2924C88.7546 73.3037 89.0655 73.2451 89.225 73.1279C89.4659 72.9521 89.5863 72.6771 89.5863 72.3027C89.5863 71.8828 89.4366 71.5964 89.1371 71.4434C88.9939 71.3717 88.7123 71.3359 88.2924 71.3359H86.349V73.3037ZM91.6881 77L94.4469 70.335H95.9557L98.6559 77H97.2789L96.6197 75.3447H93.7389L93.0602 77H91.6881ZM95.1891 71.4922L94.0611 74.3438H96.2877L95.1891 71.4922ZM100.865 71.8779V77H99.6883V70.335H101.202L104.268 75.501V70.335H105.445V77H103.98L100.865 71.8779ZM107.073 77V75.999H110.027C110.493 75.999 110.815 75.9469 110.994 75.8428C111.261 75.6833 111.395 75.4294 111.395 75.0811C111.395 74.6579 111.227 74.3763 110.892 74.2363C110.729 74.168 110.429 74.1338 109.993 74.1338H109.134C108.372 74.1338 107.825 74.015 107.493 73.7773C107.031 73.4453 106.8 72.9603 106.8 72.3223C106.8 71.873 106.922 71.4727 107.166 71.1211C107.433 70.7337 107.841 70.4928 108.392 70.3984C108.632 70.3561 108.963 70.335 109.383 70.335H112.381V71.3359H109.529C109.067 71.3359 108.737 71.3799 108.538 71.4678C108.265 71.5947 108.128 71.8454 108.128 72.2197C108.128 72.5615 108.255 72.7943 108.509 72.918C108.714 73.0189 109.036 73.0693 109.476 73.0693H110.179C110.719 73.0693 111.126 73.1035 111.399 73.1719C111.907 73.2956 112.267 73.5641 112.479 73.9775C112.645 74.3031 112.728 74.666 112.728 75.0664C112.728 75.4863 112.627 75.8558 112.425 76.1748C112.164 76.5882 111.767 76.8421 111.233 76.9365C110.996 76.9788 110.615 77 110.091 77H107.073ZM115.303 74.6221V77H114.077V70.335H117.193C117.749 70.335 118.156 70.3789 118.413 70.4668C118.846 70.6165 119.178 70.9014 119.409 71.3213C119.592 71.6533 119.683 72.0326 119.683 72.459C119.683 72.8724 119.6 73.2484 119.434 73.5869C119.216 74.0329 118.885 74.3324 118.443 74.4854C118.169 74.5765 117.772 74.6221 117.251 74.6221H115.303ZM115.303 73.6211H117.139C117.559 73.6211 117.857 73.543 118.032 73.3867C118.251 73.1947 118.36 72.874 118.36 72.4248C118.36 72.0277 118.226 71.7266 117.959 71.5215C117.8 71.3978 117.523 71.3359 117.129 71.3359H115.303V73.6211ZM123.884 70.2617C125.076 70.2617 125.933 70.6165 126.457 71.3262C126.864 71.8763 127.068 72.6641 127.068 73.6895C127.068 74.9069 126.754 75.7907 126.125 76.3408C125.572 76.8291 124.807 77.0732 123.83 77.0732C123.124 77.0732 122.515 76.9447 122.004 76.6875C121.438 76.401 121.037 75.9242 120.803 75.2568C120.637 74.7881 120.554 74.264 120.554 73.6846C120.554 73.0758 120.645 72.5273 120.828 72.0391C121.264 70.8542 122.283 70.2617 123.884 70.2617ZM123.816 71.2334C123.354 71.2334 122.963 71.3392 122.644 71.5508C122.136 71.8861 121.882 72.5843 121.882 73.6455C121.882 74.4561 122.021 75.0599 122.297 75.457C122.6 75.8867 123.108 76.1016 123.821 76.1016C124.635 76.1016 125.183 75.8151 125.466 75.2422C125.649 74.8776 125.74 74.3535 125.74 73.6699C125.74 72.9082 125.624 72.3402 125.393 71.9658C125.087 71.4775 124.561 71.2334 123.816 71.2334ZM128.325 77V75.999H131.279C131.744 75.999 132.067 75.9469 132.246 75.8428C132.513 75.6833 132.646 75.4294 132.646 75.0811C132.646 74.6579 132.478 74.3763 132.143 74.2363C131.98 74.168 131.681 74.1338 131.245 74.1338H130.385C129.624 74.1338 129.077 74.015 128.745 73.7773C128.282 73.4453 128.051 72.9603 128.051 72.3223C128.051 71.873 128.173 71.4727 128.418 71.1211C128.685 70.7337 129.093 70.4928 129.643 70.3984C129.884 70.3561 130.214 70.335 130.634 70.335H133.632V71.3359H130.781C130.319 71.3359 129.988 71.3799 129.79 71.4678C129.516 71.5947 129.379 71.8454 129.379 72.2197C129.379 72.5615 129.506 72.7943 129.76 72.918C129.965 73.0189 130.288 73.0693 130.727 73.0693H131.43C131.971 73.0693 132.378 73.1035 132.651 73.1719C133.159 73.2956 133.518 73.5641 133.73 73.9775C133.896 74.3031 133.979 74.666 133.979 75.0664C133.979 75.4863 133.878 75.8558 133.676 76.1748C133.416 76.5882 133.019 76.8421 132.485 76.9365C132.247 76.9788 131.866 77 131.342 77H128.325ZM140.212 70.335V71.3359H138.307C137.852 71.3392 137.516 71.3799 137.302 71.458C136.878 71.6045 136.592 71.9154 136.442 72.3906C136.39 72.5697 136.354 72.8252 136.335 73.1572H140.212V74.1582H136.335C136.338 74.627 136.452 75.0273 136.677 75.3594C136.96 75.7858 137.505 75.999 138.312 75.999H140.212V77H138.176C137.678 77 137.23 76.9512 136.833 76.8535C136.107 76.6745 135.578 76.1813 135.246 75.374C135.057 74.9118 134.963 74.3568 134.963 73.709C134.963 72.4785 135.326 71.5459 136.052 70.9111C136.335 70.6637 136.685 70.4993 137.101 70.418C137.375 70.3626 137.707 70.335 138.097 70.335H140.212Z" fill="white"/>
<path d="M27.4492 70.335L24.5732 77H23.2402L20.3984 70.335H21.7949L23.9287 75.7109L26.0967 70.335H27.4492ZM31.1379 70.2617C32.3293 70.2617 33.187 70.6165 33.7111 71.3262C34.118 71.8763 34.3215 72.6641 34.3215 73.6895C34.3215 74.9069 34.0074 75.7907 33.3791 76.3408C32.8257 76.8291 32.0607 77.0732 31.0842 77.0732C30.3778 77.0732 29.7691 76.9447 29.258 76.6875C28.6916 76.401 28.2912 75.9242 28.0568 75.2568C27.8908 74.7881 27.8078 74.264 27.8078 73.6846C27.8078 73.0758 27.899 72.5273 28.0813 72.0391C28.5174 70.8542 29.5363 70.2617 31.1379 70.2617ZM31.0695 71.2334C30.6073 71.2334 30.2167 71.3392 29.8977 71.5508C29.3898 71.8861 29.1359 72.5843 29.1359 73.6455C29.1359 74.4561 29.2743 75.0599 29.551 75.457C29.8537 75.8867 30.3615 76.1016 31.0744 76.1016C31.8882 76.1016 32.4367 75.8151 32.7199 75.2422C32.9022 74.8776 32.9934 74.3535 32.9934 73.6699C32.9934 72.9082 32.8778 72.3402 32.6467 71.9658C32.3407 71.4775 31.815 71.2334 31.0695 71.2334ZM35.5736 70.335H36.7992V74.1533C36.8025 74.5928 36.8285 74.9248 36.8773 75.1494C36.9815 75.7223 37.5463 76.0055 38.5717 75.999H39.9682V77H38.391C37.6879 76.9967 37.1964 76.9398 36.9164 76.8291C36.3012 76.5817 35.904 76.1781 35.725 75.6182C35.6241 75.2861 35.5736 74.8206 35.5736 74.2217V70.335ZM42.0211 70.335V74.3096C42.0211 74.6351 42.0423 74.8955 42.0846 75.0908C42.166 75.4554 42.3727 75.7256 42.7047 75.9014C42.9651 76.0381 43.2857 76.1064 43.6666 76.1064C44.3958 76.1064 44.8824 75.8997 45.1266 75.4863C45.2503 75.2812 45.3121 74.8743 45.3121 74.2656V70.335H46.5377V74.2363C46.5377 74.7637 46.497 75.1836 46.4156 75.4961C46.2757 76.056 45.8964 76.4808 45.2779 76.7705C44.8352 76.9756 44.2704 77.0781 43.5836 77.0781C42.5582 77.0781 41.8079 76.8063 41.3326 76.2627C41.0885 75.986 40.9306 75.6507 40.859 75.2568C40.8167 75.0355 40.7955 74.7246 40.7955 74.3242V70.335H42.0211ZM49.9432 70.335L51.8963 75.667L53.7908 70.335H55.5877V77H54.4109V71.6338L52.4871 77H51.242L49.323 71.6338V77H48.1463V70.335H49.9432ZM62.1768 70.335V71.3359H60.2725C59.8167 71.3392 59.4814 71.3799 59.2666 71.458C58.8434 71.6045 58.557 71.9154 58.4072 72.3906C58.3551 72.5697 58.3193 72.8252 58.2998 73.1572H62.1768V74.1582H58.2998C58.3031 74.627 58.417 75.0273 58.6416 75.3594C58.9248 75.7858 59.4701 75.999 60.2773 75.999H62.1768V77H60.1406C59.6426 77 59.195 76.9512 58.7979 76.8535C58.0719 76.6745 57.543 76.1813 57.2109 75.374C57.0221 74.9118 56.9277 74.3568 56.9277 73.709C56.9277 72.4785 57.2907 71.5459 58.0166 70.9111C58.2998 70.6637 58.6497 70.4993 59.0664 70.418C59.3398 70.3626 59.6719 70.335 60.0625 70.335H62.1768Z" fill="white"/>
<path d="M82.6311 7.66895L84.9553 14.9492L87.4025 7.66895H90.301V17H88.4074V9.99316L85.967 17H83.923L81.6193 9.99316V17H79.7258V7.66895H82.6311ZM91.5927 17L95.455 7.66895H97.745L101.607 17H99.2763L98.3739 14.8398H94.8261L93.9238 17H91.5927ZM96.6034 9.91113L95.2704 13.1787H97.9296L96.6034 9.91113ZM102.865 17V15.3389H107.124C107.807 15.3389 108.263 15.2705 108.491 15.1338C108.819 14.9378 108.983 14.6439 108.983 14.252C108.983 13.8008 108.792 13.4704 108.409 13.2607C108.19 13.1423 107.841 13.083 107.363 13.083H105.633C104.576 13.083 103.815 12.8916 103.35 12.5088C103.045 12.2581 102.81 11.9391 102.646 11.5518C102.496 11.1917 102.421 10.8158 102.421 10.4238C102.421 9.76302 102.612 9.16374 102.995 8.62598C103.373 8.10189 103.972 7.79655 104.793 7.70996C105.071 7.68262 105.485 7.66895 106.037 7.66895H110.665V9.33008H106.488C105.741 9.33008 105.271 9.37793 105.08 9.47363C104.77 9.63314 104.615 9.92936 104.615 10.3623C104.615 10.7406 104.756 11.0231 105.039 11.21C105.253 11.3512 105.679 11.4219 106.317 11.4219H107.814C108.575 11.4219 109.147 11.488 109.53 11.6201C110.191 11.8434 110.644 12.2354 110.89 12.7959C111.091 13.2562 111.191 13.7393 111.191 14.2451C111.191 14.8057 111.061 15.3138 110.801 15.7695C110.437 16.4076 109.888 16.7881 109.154 16.9111C108.798 16.9704 108.265 17 107.554 17H102.865ZM114.91 9.33008H111.936V7.66895H119.982V9.33008H116.892V17H114.91V9.33008ZM128.294 7.66895V9.33008H125.703C124.956 9.33464 124.432 9.3916 124.131 9.50098C123.789 9.61491 123.511 9.86556 123.297 10.2529C123.169 10.4945 123.085 10.9183 123.044 11.5244H128.294V13.1855H123.044C123.09 13.8372 123.263 14.3385 123.564 14.6895C123.764 14.9173 124.008 15.0723 124.295 15.1543C124.691 15.2728 125.191 15.3343 125.792 15.3389H128.294V17H125.703C125.001 17 124.384 16.9567 123.851 16.8701C123.008 16.7334 122.34 16.3665 121.848 15.7695C121.141 14.9128 120.788 13.7415 120.788 12.2559C120.788 10.6471 121.289 9.3916 122.292 8.48926C122.679 8.13835 123.103 7.90592 123.564 7.79199C123.914 7.70996 124.372 7.66895 124.938 7.66895H128.294ZM132.129 13.4521V17H130.146V7.66895H134.699C136.007 7.66895 136.921 7.83529 137.44 8.16797C137.819 8.40951 138.101 8.72852 138.288 9.125C138.461 9.47591 138.548 9.85417 138.548 10.2598C138.548 11.6725 137.953 12.5817 136.763 12.9873C137.178 13.1286 137.477 13.2835 137.659 13.4521C138.147 13.9352 138.413 14.6484 138.459 15.5918C138.513 16.2617 138.589 16.7311 138.684 17H136.456C136.388 16.7812 136.319 16.3392 136.251 15.6738C136.196 15.1497 136.116 14.7715 136.012 14.5391C135.784 14.0286 135.387 13.7005 134.822 13.5547C134.54 13.4863 134.175 13.4521 133.728 13.4521H132.129ZM132.129 11.791H134.918C135.383 11.791 135.713 11.7227 135.909 11.5859C136.205 11.3763 136.353 11.0163 136.353 10.5059C136.353 9.9362 136.13 9.57161 135.683 9.41211C135.528 9.35742 135.273 9.33008 134.918 9.33008H132.129V11.791Z" fill="white"/>
<g filter="url(#filter3_d_180_1447)">
<rect x="164" y="110" width="25" height="37" rx="2" fill="url(#paint3_radial_180_1447)"/>
<rect x="164" y="110" width="25" height="37" rx="2" stroke="black"/>
</g>
<path d="M152.915 154.335H155.596C156.302 154.335 156.833 154.395 157.188 154.516C157.842 154.734 158.317 155.185 158.614 155.868C158.829 156.36 158.936 156.947 158.936 157.631C158.936 158.412 158.811 159.076 158.56 159.623C158.251 160.297 157.748 160.72 157.051 160.893C156.771 160.964 156.304 161 155.65 161H152.915V154.335ZM154.141 155.336V159.999H155.708C156.402 159.999 156.885 159.817 157.159 159.452C157.292 159.276 157.399 159.035 157.481 158.729C157.565 158.404 157.608 158.07 157.608 157.729C157.608 157.276 157.541 156.845 157.408 156.435C157.248 155.959 156.993 155.644 156.641 155.487C156.413 155.386 156.089 155.336 155.669 155.336H154.141ZM161.716 158.212L159.138 154.335H160.569L162.351 157.235L164.143 154.335H165.579L162.942 158.236V161H161.716V158.212ZM167.778 155.878V161H166.601V154.335H168.115L171.181 159.501V154.335H172.358V161H170.893L167.778 155.878ZM173.352 161L176.11 154.335H177.619L180.319 161H178.942L178.283 159.345H175.402L174.724 161H173.352ZM176.853 155.492L175.725 158.344H177.951L176.853 155.492ZM183.139 154.335L185.092 159.667L186.987 154.335H188.783V161H187.607V155.634L185.683 161H184.438L182.519 155.634V161H181.342V154.335H183.139ZM190.49 161V154.335H191.715V161H190.49ZM198.446 159.999V161H196.263C195.759 161 195.349 160.963 195.033 160.888C194.278 160.705 193.734 160.248 193.402 159.516C193.168 158.998 193.05 158.393 193.05 157.699C193.05 156.869 193.218 156.164 193.553 155.585C193.804 155.155 194.116 154.846 194.491 154.657C194.921 154.442 195.51 154.335 196.258 154.335H198.446V155.336H196.366C195.64 155.336 195.135 155.502 194.852 155.834C194.536 156.205 194.379 156.814 194.379 157.66C194.379 158.559 194.569 159.195 194.95 159.569C195.145 159.758 195.397 159.883 195.707 159.945C195.889 159.981 196.131 159.999 196.434 159.999H198.446Z" fill="white"/>
<path d="M60.8008 161V159.999H63.7549C64.2204 159.999 64.5426 159.947 64.7217 159.843C64.9886 159.683 65.1221 159.429 65.1221 159.081C65.1221 158.658 64.9544 158.376 64.6191 158.236C64.4564 158.168 64.1569 158.134 63.7207 158.134H62.8613C62.0996 158.134 61.5527 158.015 61.2207 157.777C60.7585 157.445 60.5273 156.96 60.5273 156.322C60.5273 155.873 60.6494 155.473 60.8936 155.121C61.1605 154.734 61.569 154.493 62.1191 154.398C62.36 154.356 62.6904 154.335 63.1104 154.335H66.1084V155.336H63.2568C62.7946 155.336 62.4642 155.38 62.2656 155.468C61.9922 155.595 61.8555 155.845 61.8555 156.22C61.8555 156.562 61.9824 156.794 62.2363 156.918C62.4414 157.019 62.7637 157.069 63.2031 157.069H63.9062C64.4466 157.069 64.8535 157.104 65.127 157.172C65.6348 157.296 65.9945 157.564 66.2061 157.978C66.3721 158.303 66.4551 158.666 66.4551 159.066C66.4551 159.486 66.3542 159.856 66.1523 160.175C65.8919 160.588 65.4948 160.842 64.9609 160.937C64.7233 160.979 64.3424 161 63.8184 161H60.8008ZM69.3332 155.336H67.1066V154.335H72.8146V155.336H70.5588V161H69.3332V155.336ZM72.348 161L75.1068 154.335H76.6156L79.3158 161H77.9389L77.2797 159.345H74.3988L73.7201 161H72.348ZM75.849 155.492L74.7211 158.344H76.9477L75.849 155.492ZM81.0855 155.336H78.859V154.335H84.567V155.336H82.3111V161H81.0855V155.336ZM86.7566 154.335V158.31C86.7566 158.635 86.7778 158.896 86.8201 159.091C86.9015 159.455 87.1082 159.726 87.4402 159.901C87.7007 160.038 88.0213 160.106 88.4021 160.106C89.1313 160.106 89.618 159.9 89.8621 159.486C89.9858 159.281 90.0477 158.874 90.0477 158.266V154.335H91.2732V158.236C91.2732 158.764 91.2326 159.184 91.1512 159.496C91.0112 160.056 90.632 160.481 90.0135 160.771C89.5708 160.976 89.006 161.078 88.3191 161.078C87.2938 161.078 86.5434 160.806 86.0682 160.263C85.824 159.986 85.6661 159.651 85.5945 159.257C85.5522 159.035 85.5311 158.725 85.5311 158.324V154.335H86.7566ZM92.8184 161V159.999H95.7725C96.238 159.999 96.5602 159.947 96.7393 159.843C97.0062 159.683 97.1396 159.429 97.1396 159.081C97.1396 158.658 96.972 158.376 96.6367 158.236C96.474 158.168 96.1745 158.134 95.7383 158.134H94.8789C94.1172 158.134 93.5703 158.015 93.2383 157.777C92.776 157.445 92.5449 156.96 92.5449 156.322C92.5449 155.873 92.667 155.473 92.9111 155.121C93.1781 154.734 93.5866 154.493 94.1367 154.398C94.3776 154.356 94.708 154.335 95.1279 154.335H98.126V155.336H95.2744C94.8122 155.336 94.4818 155.38 94.2832 155.468C94.0098 155.595 93.873 155.845 93.873 156.22C93.873 156.562 94 156.794 94.2539 156.918C94.459 157.019 94.7812 157.069 95.2207 157.069H95.9238C96.4642 157.069 96.8711 157.104 97.1445 157.172C97.6523 157.296 98.012 157.564 98.2236 157.978C98.3896 158.303 98.4727 158.666 98.4727 159.066C98.4727 159.486 98.3717 159.856 98.1699 160.175C97.9095 160.588 97.5124 160.842 96.9785 160.937C96.7409 160.979 96.36 161 95.8359 161H92.8184Z" fill="white"/>
<path d="M136 110.5C136.276 110.5 136.5 110.724 136.5 111V146C136.5 146.276 136.276 146.5 136 146.5H22.5V110.5H136Z" fill="#36373A" stroke="black"/>
<rect x="25.5" y="113.5" width="108" height="30" fill="#101010" stroke="#202020"/>
<path d="M81.1649 91.6689L83.4891 98.9492L85.9364 91.6689H88.8348V101H86.9413V93.9932L84.5008 101H82.4569L80.1532 93.9932V101H78.2596V91.6689H81.1649ZM93.1138 93.3301H90.1402V91.6689H98.1861V93.3301H95.0963V101H93.1138V93.3301ZM99.5667 101V99.3389H103.825C104.509 99.3389 104.965 99.2705 105.193 99.1338C105.521 98.9378 105.685 98.6439 105.685 98.252C105.685 97.8008 105.493 97.4704 105.111 97.2607C104.892 97.1423 104.543 97.083 104.065 97.083H102.335C101.278 97.083 100.517 96.8916 100.052 96.5088C99.7467 96.2581 99.512 95.9391 99.3479 95.5518C99.1975 95.1917 99.1223 94.8158 99.1223 94.4238C99.1223 93.763 99.3138 93.1637 99.6966 92.626C100.075 92.1019 100.674 91.7965 101.494 91.71C101.772 91.6826 102.187 91.6689 102.739 91.6689H107.366V93.3301H103.19C102.442 93.3301 101.973 93.3779 101.782 93.4736C101.472 93.6331 101.317 93.9294 101.317 94.3623C101.317 94.7406 101.458 95.0231 101.741 95.21C101.955 95.3512 102.381 95.4219 103.019 95.4219H104.516C105.277 95.4219 105.849 95.488 106.232 95.6201C106.893 95.8434 107.346 96.2354 107.592 96.7959C107.793 97.2562 107.893 97.7393 107.893 98.2451C107.893 98.8057 107.763 99.3138 107.503 99.7695C107.139 100.408 106.589 100.788 105.856 100.911C105.5 100.97 104.967 101 104.256 101H99.5667ZM111.919 96.543V98.2246H108.651V96.543H111.919ZM120.156 91.6689V93.3301H117.565C116.818 93.3346 116.294 93.3916 115.993 93.501C115.651 93.6149 115.373 93.8656 115.159 94.2529C115.031 94.4945 114.947 94.9183 114.906 95.5244H120.156V97.1855H114.906C114.952 97.8372 115.125 98.3385 115.426 98.6895C115.626 98.9173 115.87 99.0723 116.157 99.1543C116.553 99.2728 117.052 99.3343 117.654 99.3389H120.156V101H117.565C116.863 101 116.246 100.957 115.713 100.87C114.87 100.733 114.202 100.367 113.71 99.7695C113.003 98.9128 112.65 97.7415 112.65 96.2559C112.65 94.6471 113.151 93.3916 114.154 92.4893C114.541 92.1383 114.965 91.9059 115.426 91.792C115.776 91.71 116.234 91.6689 116.8 91.6689H120.156ZM121.981 101V99.3389H126.24C126.923 99.3389 127.379 99.2705 127.607 99.1338C127.935 98.9378 128.099 98.6439 128.099 98.252C128.099 97.8008 127.908 97.4704 127.525 97.2607C127.306 97.1423 126.957 97.083 126.479 97.083H124.749C123.692 97.083 122.931 96.8916 122.466 96.5088C122.161 96.2581 121.926 95.9391 121.762 95.5518C121.612 95.1917 121.537 94.8158 121.537 94.4238C121.537 93.763 121.728 93.1637 122.111 92.626C122.489 92.1019 123.088 91.7965 123.909 91.71C124.187 91.6826 124.601 91.6689 125.153 91.6689H129.781V93.3301H125.604C124.857 93.3301 124.387 93.3779 124.196 93.4736C123.886 93.6331 123.731 93.9294 123.731 94.3623C123.731 94.7406 123.872 95.0231 124.155 95.21C124.369 95.3512 124.795 95.4219 125.433 95.4219H126.93C127.691 95.4219 128.263 95.488 128.646 95.6201C129.307 95.8434 129.76 96.2354 130.006 96.7959C130.207 97.2562 130.307 97.7393 130.307 98.2451C130.307 98.8057 130.177 99.3138 129.917 99.7695C129.553 100.408 129.004 100.788 128.27 100.911C127.914 100.97 127.381 101 126.67 101H121.981ZM134.005 97.7393V101H132.023V91.6689H136.678C137.526 91.6689 138.134 91.7282 138.503 91.8467C139.114 92.0518 139.597 92.4779 139.952 93.125C140.217 93.6081 140.349 94.1344 140.349 94.7041C140.349 95.2783 140.221 95.8138 139.966 96.3105C139.679 96.8757 139.253 97.279 138.688 97.5205C138.355 97.6663 137.858 97.7393 137.197 97.7393H134.005ZM134.005 96.0781H136.712C137.195 96.0781 137.535 96.0007 137.731 95.8457C138.022 95.6133 138.168 95.21 138.168 94.6357C138.168 94.0068 137.947 93.6035 137.505 93.4258C137.346 93.362 137.095 93.3301 136.753 93.3301H134.005V96.0781Z" fill="white"/>
<defs>
<filter id="filter0_d_180_1447" x="154.5" y="22.5" width="45" height="45" filterUnits="userSpaceOnUse" color-interpolation-filters="sRGB">
<feFlood flood-opacity="0" result="BackgroundImageFix"/>
<feColorMatrix in="SourceAlpha" type="matrix" values="0 0 0 0 0 0 0 0 0 0 0 0 0 0 0 0 0 0 127 0" result="hardAlpha"/>
<feMorphology radius="1" operator="dilate" in="SourceAlpha" result="effect1_dropShadow_180_1447"/>
<feOffset/>
<feGaussianBlur stdDeviation="0.5"/>
<feComposite in2="hardAlpha" operator="out"/>
<feColorMatrix type="matrix" values="0 0 0 0 0 0 0 0 0 0 0 0 0 0 0 0 0 0 1 0"/>
<feBlend mode="normal" in2="BackgroundImageFix" result="effect1_dropShadow_180_1447"/>
<feBlend mode="normal" in="SourceGraphic" in2="effect1_dropShadow_180_1447" result="shape"/>
</filter>
<filter id="filter1_d_180_1447" x="86.5" y="22.5" width="45" height="45" filterUnits="userSpaceOnUse" color-interpolation-filters="sRGB">
<feFlood flood-opacity="0" result="BackgroundImageFix"/>
<feColorMatrix in="SourceAlpha" type="matrix" values="0 0 0 0 0 0 0 0 0 0 0 0 0 0 0 0 0 0 127 0" result="hardAlpha"/>
<feMorphology radius="1" operator="dilate" in="SourceAlpha" result="effect1_dropShadow_180_1447"/>
<feOffset/>
<feGaussianBlur stdDeviation="0.5"/>
<feComposite in2="hardAlpha" operator="out"/>
<feColorMatrix type="matrix" values="0 0 0 0 0 0 0 0 0 0 0 0 0 0 0 0 0 0 1 0"/>
<feBlend mode="normal" in2="BackgroundImageFix" result="effect1_dropShadow_180_1447"/>
<feBlend mode="normal" in="SourceGraphic" in2="effect1_dropShadow_180_1447" result="shape"/>
</filter>
<filter id="filter2_d_180_1447" x="18.5" y="22.5" width="45" height="45" filterUnits="userSpaceOnUse" color-interpolation-filters="sRGB">
<feFlood flood-opacity="0" result="BackgroundImageFix"/>
<feColorMatrix in="SourceAlpha" type="matrix" values="0 0 0 0 0 0 0 0 0 0 0 0 0 0 0 0 0 0 127 0" result="hardAlpha"/>
<feMorphology radius="1" operator="dilate" in="SourceAlpha" result="effect1_dropShadow_180_1447"/>
<feOffset/>
<feGaussianBlur stdDeviation="0.5"/>
<feComposite in2="hardAlpha" operator="out"/>
<feColorMatrix type="matrix" values="0 0 0 0 0 0 0 0 0 0 0 0 0 0 0 0 0 0 1 0"/>
<feBlend mode="normal" in2="BackgroundImageFix" result="effect1_dropShadow_180_1447"/>
<feBlend mode="normal" in="SourceGraphic" in2="effect1_dropShadow_180_1447" result="shape"/>
</filter>
<filter id="filter3_d_180_1447" x="161.5" y="107.5" width="30" height="42" filterUnits="userSpaceOnUse" color-interpolation-filters="sRGB">
<feFlood flood-opacity="0" result="BackgroundImageFix"/>
<feColorMatrix in="SourceAlpha" type="matrix" values="0 0 0 0 0 0 0 0 0 0 0 0 0 0 0 0 0 0 127 0" result="hardAlpha"/>
<feMorphology radius="1" operator="dilate" in="SourceAlpha" result="effect1_dropShadow_180_1447"/>
<feOffset/>
<feGaussianBlur stdDeviation="0.5"/>
<feComposite in2="hardAlpha" operator="out"/>
<feColorMatrix type="matrix" values="0 0 0 0 0 0 0 0 0 0 0 0 0 0 0 0 0 0 1 0"/>
<feBlend mode="normal" in2="BackgroundImageFix" result="effect1_dropShadow_180_1447"/>
<feBlend mode="normal" in="SourceGraphic" in2="effect1_dropShadow_180_1447" result="shape"/>
</filter>
<radialGradient id="paint0_radial_180_1447" cx="0" cy="0" r="1" gradientUnits="userSpaceOnUse" gradientTransform="translate(177 45) rotate(90) scale(20)">
<stop stop-color="#202020"/>
<stop offset="1"/>
</radialGradient>
<radialGradient id="paint1_radial_180_1447" cx="0" cy="0" r="1" gradientUnits="userSpaceOnUse" gradientTransform="translate(109 45) rotate(90) scale(20)">
<stop stop-color="#202020"/>
<stop offset="1"/>
</radialGradient>
<radialGradient id="paint2_radial_180_1447" cx="0" cy="0" r="1" gradientUnits="userSpaceOnUse" gradientTransform="translate(41 45) rotate(90) scale(20)">
<stop stop-color="#202020"/>
<stop offset="1"/>
</radialGradient>
<radialGradient id="paint3_radial_180_1447" cx="0" cy="0" r="1" gradientUnits="userSpaceOnUse" gradientTransform="translate(176.5 128.5) rotate(90) scale(18.5 12.5)">
<stop stop-color="#202020"/>
<stop offset="1"/>
</radialGradient>
</defs>
</svg>
