<svg width="246" height="328" viewBox="0 0 246 328" fill="none" xmlns="http://www.w3.org/2000/svg">
<rect width="246" height="328" fill="#767C89"/>
<g filter="url(#filter0_d_212_1781)">
<rect x="128" y="271" width="25" height="37" rx="2" fill="url(#paint0_radial_212_1781)"/>
<rect x="128" y="271" width="25" height="37" rx="2" stroke="black"/>
</g>
<g filter="url(#filter1_d_212_1781)">
<rect x="91" y="271" width="25" height="37" rx="2" fill="url(#paint1_radial_212_1781)"/>
<rect x="91" y="271" width="25" height="37" rx="2" stroke="black"/>
</g>
<path d="M137.171 313.262C138.363 313.262 139.22 313.617 139.745 314.326C140.151 314.876 140.355 315.664 140.355 316.689C140.355 317.907 140.041 318.791 139.412 319.341C138.859 319.829 138.094 320.073 137.118 320.073C136.411 320.073 135.802 319.945 135.291 319.688C134.725 319.401 134.325 318.924 134.09 318.257C133.924 317.788 133.841 317.264 133.841 316.685C133.841 316.076 133.932 315.527 134.115 315.039C134.551 313.854 135.57 313.262 137.171 313.262ZM137.103 314.233C136.641 314.233 136.25 314.339 135.931 314.551C135.423 314.886 135.169 315.584 135.169 316.646C135.169 317.456 135.308 318.06 135.584 318.457C135.887 318.887 136.395 319.102 137.108 319.102C137.922 319.102 138.47 318.815 138.753 318.242C138.936 317.878 139.027 317.354 139.027 316.67C139.027 315.908 138.911 315.34 138.68 314.966C138.374 314.478 137.848 314.233 137.103 314.233ZM142.911 313.335V320H141.685V313.335H142.911ZM142.93 316.616L145.85 313.335H147.408L144.297 316.587L147.457 320H145.831L142.93 316.616Z" fill="white"/>
<path d="M90.1689 318.999V320H87.9863C87.4818 320 87.0716 319.963 86.7559 319.888C86.0007 319.705 85.457 319.248 85.125 318.516C84.8906 317.998 84.7734 317.393 84.7734 316.699C84.7734 315.869 84.9411 315.164 85.2764 314.585C85.527 314.155 85.8395 313.846 86.2139 313.657C86.6436 313.442 87.2327 313.335 87.9814 313.335H90.1689V314.336H88.0889C87.363 314.336 86.8584 314.502 86.5752 314.834C86.2594 315.205 86.1016 315.814 86.1016 316.66C86.1016 317.559 86.292 318.195 86.6729 318.569C86.8682 318.758 87.1204 318.883 87.4297 318.945C87.612 318.981 87.8545 318.999 88.1572 318.999H90.1689ZM90.9719 320L93.7307 313.335H95.2395L97.9396 320H96.5627L95.9035 318.345H93.0227L92.3439 320H90.9719ZM94.4729 314.492L93.3449 317.344H95.5715L94.4729 314.492ZM100.149 314.878V320H98.9721V313.335H100.486L103.552 318.501V313.335H104.729V320H103.264L100.149 314.878ZM111.469 318.999V320H109.287C108.782 320 108.372 319.963 108.056 319.888C107.301 319.705 106.757 319.248 106.425 318.516C106.191 317.998 106.074 317.393 106.074 316.699C106.074 315.869 106.241 315.164 106.577 314.585C106.827 314.155 107.14 313.846 107.514 313.657C107.944 313.442 108.533 313.335 109.282 313.335H111.469V314.336H109.389C108.663 314.336 108.159 314.502 107.876 314.834C107.56 315.205 107.402 315.814 107.402 316.66C107.402 317.559 107.592 318.195 107.973 318.569C108.169 318.758 108.421 318.883 108.73 318.945C108.912 318.981 109.155 318.999 109.458 318.999H111.469ZM117.687 313.335V314.336H115.783C115.327 314.339 114.992 314.38 114.777 314.458C114.354 314.604 114.068 314.915 113.918 315.391C113.866 315.57 113.83 315.825 113.81 316.157H117.687V317.158H113.81C113.814 317.627 113.928 318.027 114.152 318.359C114.435 318.786 114.981 318.999 115.788 318.999H117.687V320H115.651C115.153 320 114.706 319.951 114.308 319.854C113.582 319.674 113.054 319.181 112.721 318.374C112.533 317.912 112.438 317.357 112.438 316.709C112.438 315.479 112.801 314.546 113.527 313.911C113.81 313.664 114.16 313.499 114.577 313.418C114.85 313.363 115.182 313.335 115.573 313.335H117.687ZM119.062 313.335H120.287V317.153C120.29 317.593 120.316 317.925 120.365 318.149C120.469 318.722 121.034 319.006 122.06 318.999H123.456V320H121.879C121.176 319.997 120.684 319.94 120.404 319.829C119.789 319.582 119.392 319.178 119.213 318.618C119.112 318.286 119.062 317.821 119.062 317.222V313.335Z" fill="white"/>
<path d="M153.886 251.335H155.112V255.153C155.115 255.593 155.141 255.925 155.19 256.149C155.294 256.722 155.859 257.006 156.884 256.999H158.281V258H156.704C156 257.997 155.509 257.94 155.229 257.829C154.614 257.582 154.217 257.178 154.038 256.618C153.937 256.286 153.886 255.821 153.886 255.222V251.335ZM159.381 258V251.335H160.607V258H159.381ZM167.338 256.999V258H165.155C164.651 258 164.24 257.963 163.925 257.888C163.169 257.705 162.626 257.248 162.294 256.516C162.059 255.998 161.942 255.393 161.942 254.699C161.942 253.869 162.11 253.164 162.445 252.585C162.696 252.155 163.008 251.846 163.383 251.657C163.812 251.442 164.401 251.335 165.15 251.335H167.338V252.336H165.258C164.532 252.336 164.027 252.502 163.744 252.834C163.428 253.205 163.27 253.814 163.27 254.66C163.27 255.559 163.461 256.195 163.842 256.569C164.037 256.758 164.289 256.883 164.598 256.945C164.781 256.981 165.023 256.999 165.326 256.999H167.338ZM173.556 251.335V252.336H171.651C171.196 252.339 170.86 252.38 170.646 252.458C170.222 252.604 169.936 252.915 169.786 253.391C169.734 253.57 169.698 253.825 169.679 254.157H173.556V255.158H169.679C169.682 255.627 169.796 256.027 170.021 256.359C170.304 256.786 170.849 256.999 171.656 256.999H173.556V258H171.52C171.021 258 170.574 257.951 170.177 257.854C169.451 257.674 168.922 257.181 168.59 256.374C168.401 255.912 168.307 255.357 168.307 254.709C168.307 253.479 168.67 252.546 169.396 251.911C169.679 251.664 170.029 251.499 170.445 251.418C170.719 251.363 171.051 251.335 171.441 251.335H173.556ZM176.185 252.878V258H175.008V251.335H176.522L179.588 256.501V251.335H180.765V258H179.3L176.185 252.878ZM182.393 258V256.999H185.347C185.813 256.999 186.135 256.947 186.314 256.843C186.581 256.683 186.714 256.429 186.714 256.081C186.714 255.658 186.547 255.376 186.211 255.236C186.049 255.168 185.749 255.134 185.313 255.134H184.454C183.692 255.134 183.145 255.015 182.813 254.777C182.351 254.445 182.12 253.96 182.12 253.322C182.12 252.873 182.242 252.473 182.486 252.121C182.753 251.734 183.161 251.493 183.711 251.398C183.952 251.356 184.283 251.335 184.703 251.335H187.701V252.336H184.849C184.387 252.336 184.056 252.38 183.858 252.468C183.584 252.595 183.448 252.845 183.448 253.22C183.448 253.562 183.575 253.794 183.829 253.918C184.034 254.019 184.356 254.069 184.795 254.069H185.498C186.039 254.069 186.446 254.104 186.719 254.172C187.227 254.296 187.587 254.564 187.798 254.978C187.964 255.303 188.047 255.666 188.047 256.066C188.047 256.486 187.946 256.856 187.745 257.175C187.484 257.588 187.087 257.842 186.553 257.937C186.315 257.979 185.935 258 185.411 258H182.393ZM194.28 251.335V252.336H192.376C191.92 252.339 191.585 252.38 191.37 252.458C190.947 252.604 190.66 252.915 190.51 253.391C190.458 253.57 190.422 253.825 190.403 254.157H194.28V255.158H190.403C190.406 255.627 190.52 256.027 190.745 256.359C191.028 256.786 191.573 256.999 192.38 256.999H194.28V258H192.244C191.746 258 191.298 257.951 190.901 257.854C190.175 257.674 189.646 257.181 189.314 256.374C189.125 255.912 189.031 255.357 189.031 254.709C189.031 253.479 189.394 252.546 190.12 251.911C190.403 251.664 190.753 251.499 191.17 251.418C191.443 251.363 191.775 251.335 192.166 251.335H194.28Z" fill="white"/>
<rect x="126.5" y="209.5" width="95" height="36" rx="0.5" fill="#36373A" stroke="black"/>
<rect x="129.5" y="212.5" width="89" height="30" fill="#101010" stroke="#202020"/>
<path d="M49.0281 256.999V258H46.8455C46.341 258 45.9308 257.963 45.615 257.888C44.8598 257.705 44.3162 257.248 43.9842 256.516C43.7498 255.998 43.6326 255.393 43.6326 254.699C43.6326 253.869 43.8003 253.164 44.1355 252.585C44.3862 252.155 44.6987 251.846 45.073 251.657C45.5027 251.442 46.0919 251.335 46.8406 251.335H49.0281V252.336H46.948C46.2221 252.336 45.7176 252.502 45.4344 252.834C45.1186 253.205 44.9607 253.814 44.9607 254.66C44.9607 255.559 45.1512 256.195 45.532 256.569C45.7273 256.758 45.9796 256.883 46.2889 256.945C46.4712 256.981 46.7137 256.999 47.0164 256.999H49.0281ZM49.8311 258L52.5898 251.335H54.0986L56.7988 258H55.4219L54.7627 256.345H51.8818L51.2031 258H49.8311ZM53.332 252.492L52.2041 255.344H54.4307L53.332 252.492ZM58.5686 252.336H56.342V251.335H62.05V252.336H59.7941V258H58.5686V252.336ZM67.975 251.335V252.336H66.0707C65.615 252.339 65.2797 252.38 65.0648 252.458C64.6417 252.604 64.3552 252.915 64.2055 253.391C64.1534 253.57 64.1176 253.825 64.098 254.157H67.975V255.158H64.098C64.1013 255.627 64.2152 256.027 64.4398 256.359C64.723 256.786 65.2683 256.999 66.0756 256.999H67.975V258H65.9389C65.4408 258 64.9932 257.951 64.5961 257.854C63.8702 257.674 63.3412 257.181 63.0092 256.374C62.8204 255.912 62.726 255.357 62.726 254.709C62.726 253.479 63.0889 252.546 63.8148 251.911C64.098 251.664 64.448 251.499 64.8646 251.418C65.1381 251.363 65.4701 251.335 65.8607 251.335H67.975ZM71.7711 254.113H74.9596V258H72.2643C71.636 258 71.1412 257.943 70.7799 257.829C70.22 257.65 69.7936 257.287 69.5006 256.74C69.2076 256.187 69.0611 255.508 69.0611 254.704C69.0611 253.308 69.4436 252.346 70.2086 251.818C70.6741 251.496 71.3788 251.335 72.3229 251.335H74.9596V252.336H72.44C71.9908 252.336 71.6572 252.375 71.4391 252.453C70.7457 252.701 70.399 253.366 70.399 254.45C70.399 255.267 70.513 255.869 70.7408 256.257C70.9231 256.576 71.1705 256.786 71.483 256.887C71.7141 256.962 72.0413 256.999 72.4645 256.999H73.734V255.114H71.7711V254.113ZM79.449 251.262C80.6404 251.262 81.4982 251.617 82.0223 252.326C82.4292 252.876 82.6326 253.664 82.6326 254.689C82.6326 255.907 82.3185 256.791 81.6902 257.341C81.1368 257.829 80.3719 258.073 79.3953 258.073C78.6889 258.073 78.0802 257.945 77.5691 257.688C77.0027 257.401 76.6023 256.924 76.368 256.257C76.202 255.788 76.1189 255.264 76.1189 254.685C76.1189 254.076 76.2101 253.527 76.3924 253.039C76.8286 251.854 77.8475 251.262 79.449 251.262ZM79.3807 252.233C78.9184 252.233 78.5278 252.339 78.2088 252.551C77.701 252.886 77.4471 253.584 77.4471 254.646C77.4471 255.456 77.5854 256.06 77.8621 256.457C78.1648 256.887 78.6727 257.102 79.3855 257.102C80.1993 257.102 80.7479 256.815 81.0311 256.242C81.2133 255.878 81.3045 255.354 81.3045 254.67C81.3045 253.908 81.1889 253.34 80.9578 252.966C80.6518 252.478 80.1261 252.233 79.3807 252.233ZM85.1885 255.305V258H83.9629V251.335H87.1025C88.0042 251.335 88.6341 251.454 88.9922 251.691C89.2461 251.861 89.4414 252.089 89.5781 252.375C89.6953 252.629 89.7539 252.904 89.7539 253.2C89.7539 253.519 89.6904 253.822 89.5635 254.108C89.3714 254.541 88.9906 254.846 88.4209 255.021C88.665 255.116 88.8473 255.212 88.9678 255.31C89.2217 255.511 89.4007 255.777 89.5049 256.105C89.5635 256.285 89.6074 256.577 89.6367 256.984C89.6628 257.368 89.6855 257.609 89.7051 257.707C89.7246 257.792 89.7588 257.889 89.8076 258H88.4893C88.4535 257.909 88.4274 257.811 88.4111 257.707C88.4046 257.648 88.3818 257.427 88.3428 257.043C88.2907 256.529 88.18 256.153 88.0107 255.915C87.8057 255.616 87.4932 255.432 87.0732 255.363C86.8519 255.324 86.5898 255.305 86.2871 255.305H85.1885ZM85.1885 254.304H87.1318C87.5941 254.304 87.9049 254.245 88.0645 254.128C88.3053 253.952 88.4258 253.677 88.4258 253.303C88.4258 252.883 88.276 252.596 87.9766 252.443C87.8333 252.372 87.5518 252.336 87.1318 252.336H85.1885V254.304ZM92.8127 255.212L90.2346 251.335H91.6652L93.4475 254.235L95.2395 251.335H96.675L94.0383 255.236V258H92.8127V255.212Z" fill="white"/>
<rect x="22.5" y="209.5" width="95" height="36" rx="0.5" fill="#36373A" stroke="black"/>
<rect x="25.5" y="212.5" width="89" height="30" fill="#101010" stroke="#202020"/>
<g opacity="0.2">
<path d="M38.0765 233.488V233.776H36.6045V230.768V230.032L37.3405 228.752L38.0765 230.048V230.768V233.488ZM34.3965 228.736L33.6605 228L34.3965 227.264H36.0605H36.4765L36.9085 228.016L36.4765 228.736H34.6205H34.3965ZM35.8525 229.488V232.048L34.8605 233.776H34.6205V231.232L35.6285 229.488H35.8525ZM35.8525 226.512H35.6285L34.6205 224.768V222.224H34.8605L35.8525 223.952V226.512ZM33.4205 220.496L33.9165 220H40.7645L41.2605 220.496L40.2845 221.488H40.2525H38.0765H36.6045H34.4285H34.3965L33.4205 220.496ZM38.8285 229.488H39.0525L40.0605 231.232V233.776H39.8205L38.8285 232.048V229.488ZM36.6045 222.224H38.0765V225.232V225.968L37.3405 227.264L36.6045 226V225.232V222.224ZM32.8925 234.976L32.3965 234.48V228.368H32.9885L33.1325 228.528L33.8845 229.264V232.512V233.776V234L32.8925 234.976ZM41.2605 235.504L40.7645 236H33.9165L33.4205 235.504L34.3965 234.512H34.4285H36.6045H38.0765H40.2525H40.2845L41.2605 235.504ZM40.7965 229.264L41.6925 228.368H42.2845V234.48L41.7885 234.976L40.7965 234V233.776V232.512V229.264ZM41.7885 221.024L42.2845 221.52V227.632H41.6925L40.7965 226.736V226.288V223.488V222.224V222.016L41.7885 221.024ZM39.8205 222.224H40.0605V224.768L39.0525 226.512H38.8285V223.952L39.8205 222.224ZM33.8845 226.736L32.9885 227.632H32.3965V221.52L32.8925 221.024L33.8845 222V222.224V223.488V226.736ZM40.2845 227.264L41.0205 228L40.2845 228.736H40.0605H38.8285H38.1885L37.7565 228.016L38.2045 227.264H38.6205H40.2845ZM51.139 233.488V233.776H49.667V230.768V230.032L50.403 228.752L51.139 230.048V230.768V233.488ZM47.459 228.736L46.723 228L47.459 227.264H49.123H49.539L49.971 228.016L49.539 228.736H47.683H47.459ZM48.915 229.488V232.048L47.923 233.776H47.683V231.232L48.691 229.488H48.915ZM48.915 226.512H48.691L47.683 224.768V222.224H47.923L48.915 223.952V226.512ZM46.483 220.496L46.979 220H53.827L54.323 220.496L53.347 221.488H53.315H51.139H49.667H47.491H47.459L46.483 220.496ZM51.891 229.488H52.115L53.123 231.232V233.776H52.883L51.891 232.048V229.488ZM49.667 222.224H51.139V225.232V225.968L50.403 227.264L49.667 226V225.232V222.224ZM45.955 234.976L45.459 234.48V228.368H46.051L46.195 228.528L46.947 229.264V232.512V233.776V234L45.955 234.976ZM54.323 235.504L53.827 236H46.979L46.483 235.504L47.459 234.512H47.491H49.667H51.139H53.315H53.347L54.323 235.504ZM53.859 229.264L54.755 228.368H55.347V234.48L54.851 234.976L53.859 234V233.776V232.512V229.264ZM54.851 221.024L55.347 221.52V227.632H54.755L53.859 226.736V226.288V223.488V222.224V222.016L54.851 221.024ZM52.883 222.224H53.123V224.768L52.115 226.512H51.891V223.952L52.883 222.224ZM46.947 226.736L46.051 227.632H45.459V221.52L45.955 221.024L46.947 222V222.224V223.488V226.736ZM53.347 227.264L54.083 228L53.347 228.736H53.123H51.891H51.251L50.819 228.016L51.267 227.264H51.683H53.347ZM64.2015 233.488V233.776H62.7295V230.768V230.032L63.4655 228.752L64.2015 230.048V230.768V233.488ZM60.5215 228.736L59.7855 228L60.5215 227.264H62.1855H62.6015L63.0335 228.016L62.6015 228.736H60.7455H60.5215ZM61.9775 229.488V232.048L60.9855 233.776H60.7455V231.232L61.7535 229.488H61.9775ZM61.9775 226.512H61.7535L60.7455 224.768V222.224H60.9855L61.9775 223.952V226.512ZM59.5455 220.496L60.0415 220H66.8895L67.3855 220.496L66.4095 221.488H66.3775H64.2015H62.7295H60.5535H60.5215L59.5455 220.496ZM64.9535 229.488H65.1775L66.1855 231.232V233.776H65.9455L64.9535 232.048V229.488ZM62.7295 222.224H64.2015V225.232V225.968L63.4655 227.264L62.7295 226V225.232V222.224ZM59.0175 234.976L58.5215 234.48V228.368H59.1135L59.2575 228.528L60.0095 229.264V232.512V233.776V234L59.0175 234.976ZM67.3855 235.504L66.8895 236H60.0415L59.5455 235.504L60.5215 234.512H60.5535H62.7295H64.2015H66.3775H66.4095L67.3855 235.504ZM66.9215 229.264L67.8175 228.368H68.4095V234.48L67.9135 234.976L66.9215 234V233.776V232.512V229.264ZM67.9135 221.024L68.4095 221.52V227.632H67.8175L66.9215 226.736V226.288V223.488V222.224V222.016L67.9135 221.024ZM65.9455 222.224H66.1855V224.768L65.1775 226.512H64.9535V223.952L65.9455 222.224ZM60.0095 226.736L59.1135 227.632H58.5215V221.52L59.0175 221.024L60.0095 222V222.224V223.488V226.736ZM66.4095 227.264L67.1455 228L66.4095 228.736H66.1855H64.9535H64.3135L63.8815 228.016L64.3295 227.264H64.7455H66.4095ZM77.264 233.488V233.776H75.792V230.768V230.032L76.528 228.752L77.264 230.048V230.768V233.488ZM73.584 228.736L72.848 228L73.584 227.264H75.248H75.664L76.096 228.016L75.664 228.736H73.808H73.584ZM75.04 229.488V232.048L74.048 233.776H73.808V231.232L74.816 229.488H75.04ZM75.04 226.512H74.816L73.808 224.768V222.224H74.048L75.04 223.952V226.512ZM72.608 220.496L73.104 220H79.952L80.448 220.496L79.472 221.488H79.44H77.264H75.792H73.616H73.584L72.608 220.496ZM78.016 229.488H78.24L79.248 231.232V233.776H79.008L78.016 232.048V229.488ZM75.792 222.224H77.264V225.232V225.968L76.528 227.264L75.792 226V225.232V222.224ZM72.08 234.976L71.584 234.48V228.368H72.176L72.32 228.528L73.072 229.264V232.512V233.776V234L72.08 234.976ZM80.448 235.504L79.952 236H73.104L72.608 235.504L73.584 234.512H73.616H75.792H77.264H79.44H79.472L80.448 235.504ZM79.984 229.264L80.88 228.368H81.472V234.48L80.976 234.976L79.984 234V233.776V232.512V229.264ZM80.976 221.024L81.472 221.52V227.632H80.88L79.984 226.736V226.288V223.488V222.224V222.016L80.976 221.024ZM79.008 222.224H79.248V224.768L78.24 226.512H78.016V223.952L79.008 222.224ZM73.072 226.736L72.176 227.632H71.584V221.52L72.08 221.024L73.072 222V222.224V223.488V226.736ZM79.472 227.264L80.208 228L79.472 228.736H79.248H78.016H77.376L76.944 228.016L77.392 227.264H77.808H79.472ZM90.3265 233.488V233.776H88.8545V230.768V230.032L89.5905 228.752L90.3265 230.048V230.768V233.488ZM86.6465 228.736L85.9105 228L86.6465 227.264H88.3105H88.7265L89.1585 228.016L88.7265 228.736H86.8705H86.6465ZM88.1025 229.488V232.048L87.1105 233.776H86.8705V231.232L87.8785 229.488H88.1025ZM88.1025 226.512H87.8785L86.8705 224.768V222.224H87.1105L88.1025 223.952V226.512ZM85.6705 220.496L86.1665 220H93.0145L93.5105 220.496L92.5345 221.488H92.5025H90.3265H88.8545H86.6785H86.6465L85.6705 220.496ZM91.0785 229.488H91.3025L92.3105 231.232V233.776H92.0705L91.0785 232.048V229.488ZM88.8545 222.224H90.3265V225.232V225.968L89.5905 227.264L88.8545 226V225.232V222.224ZM85.1425 234.976L84.6465 234.48V228.368H85.2385L85.3825 228.528L86.1345 229.264V232.512V233.776V234L85.1425 234.976ZM93.5105 235.504L93.0145 236H86.1665L85.6705 235.504L86.6465 234.512H86.6785H88.8545H90.3265H92.5025H92.5345L93.5105 235.504ZM93.0465 229.264L93.9425 228.368H94.5345V234.48L94.0385 234.976L93.0465 234V233.776V232.512V229.264ZM94.0385 221.024L94.5345 221.52V227.632H93.9425L93.0465 226.736V226.288V223.488V222.224V222.016L94.0385 221.024ZM92.0705 222.224H92.3105V224.768L91.3025 226.512H91.0785V223.952L92.0705 222.224ZM86.1345 226.736L85.2385 227.632H84.6465V221.52L85.1425 221.024L86.1345 222V222.224V223.488V226.736ZM92.5345 227.264L93.2705 228L92.5345 228.736H92.3105H91.0785H90.4385L90.0065 228.016L90.4545 227.264H90.8705H92.5345ZM103.389 233.488V233.776H101.917V230.768V230.032L102.653 228.752L103.389 230.048V230.768V233.488ZM99.709 228.736L98.973 228L99.709 227.264H101.373H101.789L102.221 228.016L101.789 228.736H99.933H99.709ZM101.165 229.488V232.048L100.173 233.776H99.933V231.232L100.941 229.488H101.165ZM101.165 226.512H100.941L99.933 224.768V222.224H100.173L101.165 223.952V226.512ZM98.733 220.496L99.229 220H106.077L106.573 220.496L105.597 221.488H105.565H103.389H101.917H99.741H99.709L98.733 220.496ZM104.141 229.488H104.365L105.373 231.232V233.776H105.133L104.141 232.048V229.488ZM101.917 222.224H103.389V225.232V225.968L102.653 227.264L101.917 226V225.232V222.224ZM98.205 234.976L97.709 234.48V228.368H98.301L98.445 228.528L99.197 229.264V232.512V233.776V234L98.205 234.976ZM106.573 235.504L106.077 236H99.229L98.733 235.504L99.709 234.512H99.741H101.917H103.389H105.565H105.597L106.573 235.504ZM106.109 229.264L107.005 228.368H107.597V234.48L107.101 234.976L106.109 234V233.776V232.512V229.264ZM107.101 221.024L107.597 221.52V227.632H107.005L106.109 226.736V226.288V223.488V222.224V222.016L107.101 221.024ZM105.133 222.224H105.373V224.768L104.365 226.512H104.141V223.952L105.133 222.224ZM99.197 226.736L98.301 227.632H97.709V221.52L98.205 221.024L99.197 222V222.224V223.488V226.736ZM105.597 227.264L106.333 228L105.597 228.736H105.373H104.141H103.501L103.069 228.016L103.517 227.264H103.933H105.597Z" fill="#FF0000"/>
</g>
<path d="M221 148.5C221.276 148.5 221.5 148.724 221.5 149V184C221.5 184.276 221.276 184.5 221 184.5H22.5V148.5H221Z" fill="#36373A" stroke="black"/>
<rect x="25.5" y="151.5" width="193" height="30" fill="#101010" stroke="#202020"/>
<path d="M101.242 196.622V199H100.016V192.335H103.131C103.688 192.335 104.095 192.379 104.352 192.467C104.785 192.617 105.117 192.901 105.348 193.321C105.53 193.653 105.621 194.033 105.621 194.459C105.621 194.872 105.538 195.248 105.372 195.587C105.154 196.033 104.824 196.332 104.381 196.485C104.108 196.576 103.711 196.622 103.19 196.622H101.242ZM101.242 195.621H103.078C103.497 195.621 103.795 195.543 103.971 195.387C104.189 195.195 104.298 194.874 104.298 194.425C104.298 194.028 104.165 193.727 103.898 193.521C103.738 193.398 103.462 193.336 103.068 193.336H101.242V195.621ZM108.085 196.305V199H106.859V192.335H109.999C110.9 192.335 111.53 192.454 111.888 192.691C112.142 192.861 112.338 193.089 112.474 193.375C112.591 193.629 112.65 193.904 112.65 194.2C112.65 194.519 112.587 194.822 112.46 195.108C112.268 195.541 111.887 195.846 111.317 196.021C111.561 196.116 111.743 196.212 111.864 196.31C112.118 196.511 112.297 196.777 112.401 197.105C112.46 197.285 112.504 197.577 112.533 197.984C112.559 198.368 112.582 198.609 112.601 198.707C112.621 198.792 112.655 198.889 112.704 199H111.385C111.35 198.909 111.324 198.811 111.307 198.707C111.301 198.648 111.278 198.427 111.239 198.043C111.187 197.529 111.076 197.153 110.907 196.915C110.702 196.616 110.389 196.432 109.969 196.363C109.748 196.324 109.486 196.305 109.183 196.305H108.085ZM108.085 195.304H110.028C110.49 195.304 110.801 195.245 110.961 195.128C111.201 194.952 111.322 194.677 111.322 194.303C111.322 193.883 111.172 193.596 110.873 193.443C110.729 193.372 110.448 193.336 110.028 193.336H108.085V195.304ZM116.998 192.262C118.189 192.262 119.047 192.617 119.571 193.326C119.978 193.876 120.181 194.664 120.181 195.689C120.181 196.907 119.867 197.791 119.239 198.341C118.686 198.829 117.921 199.073 116.944 199.073C116.238 199.073 115.629 198.945 115.118 198.688C114.552 198.401 114.151 197.924 113.917 197.257C113.751 196.788 113.668 196.264 113.668 195.685C113.668 195.076 113.759 194.527 113.941 194.039C114.377 192.854 115.396 192.262 116.998 192.262ZM116.929 193.233C116.467 193.233 116.077 193.339 115.758 193.551C115.25 193.886 114.996 194.584 114.996 195.646C114.996 196.456 115.134 197.06 115.411 197.457C115.714 197.887 116.221 198.102 116.934 198.102C117.748 198.102 118.297 197.815 118.58 197.242C118.762 196.878 118.853 196.354 118.853 195.67C118.853 194.908 118.738 194.34 118.507 193.966C118.201 193.478 117.675 193.233 116.929 193.233ZM120.911 199V197.999H122.229C123.001 198.006 123.493 197.913 123.704 197.721C123.88 197.558 123.984 197.291 124.017 196.92C124.036 196.728 124.046 196.476 124.046 196.163V192.335H125.271V196.163C125.275 196.869 125.215 197.394 125.091 197.735C124.876 198.312 124.441 198.694 123.787 198.883C123.488 198.961 122.991 199 122.298 199H120.911ZM131.773 192.335V193.336H129.868C129.413 193.339 129.077 193.38 128.863 193.458C128.439 193.604 128.153 193.915 128.003 194.391C127.951 194.57 127.915 194.825 127.896 195.157H131.773V196.158H127.896C127.899 196.627 128.013 197.027 128.238 197.359C128.521 197.786 129.066 197.999 129.873 197.999H131.773V199H129.737C129.238 199 128.791 198.951 128.394 198.854C127.668 198.674 127.139 198.181 126.807 197.374C126.618 196.912 126.524 196.357 126.524 195.709C126.524 194.479 126.887 193.546 127.613 192.911C127.896 192.664 128.246 192.499 128.662 192.418C128.936 192.363 129.268 192.335 129.658 192.335H131.773ZM138.254 197.999V199H136.072C135.567 199 135.157 198.963 134.841 198.888C134.086 198.705 133.542 198.248 133.21 197.516C132.976 196.998 132.859 196.393 132.859 195.699C132.859 194.869 133.026 194.164 133.362 193.585C133.612 193.155 133.925 192.846 134.299 192.657C134.729 192.442 135.318 192.335 136.067 192.335H138.254V193.336H136.174C135.448 193.336 134.944 193.502 134.661 193.834C134.345 194.205 134.187 194.814 134.187 195.66C134.187 196.559 134.377 197.195 134.758 197.569C134.954 197.758 135.206 197.883 135.515 197.945C135.697 197.981 135.94 197.999 136.243 197.999H138.254ZM141.157 193.336H138.93V192.335H144.638V193.336H142.382V199H141.157V193.336Z" fill="white"/>
<path d="M221 87.5C221.276 87.5 221.5 87.7239 221.5 88V123C221.5 123.276 221.276 123.5 221 123.5H22.5V87.5H221Z" fill="#36373A" stroke="black"/>
<rect x="25.5" y="90.5" width="193" height="30" fill="#101010" stroke="#202020"/>
<path d="M101.021 138L103.779 131.335H105.288L107.988 138H106.611L105.952 136.345H103.071L102.393 138H101.021ZM104.521 132.492L103.394 135.344H105.62L104.521 132.492ZM109.836 131.335V135.31C109.836 135.635 109.857 135.896 109.9 136.091C109.981 136.455 110.188 136.726 110.52 136.901C110.78 137.038 111.101 137.106 111.482 137.106C112.211 137.106 112.697 136.9 112.942 136.486C113.065 136.281 113.127 135.874 113.127 135.266V131.335H114.353V135.236C114.353 135.764 114.312 136.184 114.231 136.496C114.091 137.056 113.711 137.481 113.093 137.771C112.65 137.976 112.085 138.078 111.399 138.078C110.373 138.078 109.623 137.806 109.148 137.263C108.904 136.986 108.746 136.651 108.674 136.257C108.632 136.035 108.611 135.725 108.611 135.324V131.335H109.836ZM117.538 132.336H115.312V131.335H121.02V132.336H118.764V138H117.538V132.336ZM127.614 131.335V138H126.388V135.134H123.288V138H122.062V131.335H123.288V134.133H126.388V131.335H127.614ZM132.279 131.262C133.471 131.262 134.328 131.617 134.852 132.326C135.259 132.876 135.463 133.664 135.463 134.689C135.463 135.907 135.149 136.791 134.52 137.341C133.967 137.829 133.202 138.073 132.225 138.073C131.519 138.073 130.91 137.945 130.399 137.688C129.833 137.401 129.432 136.924 129.198 136.257C129.032 135.788 128.949 135.264 128.949 134.685C128.949 134.076 129.04 133.527 129.222 133.039C129.659 131.854 130.678 131.262 132.279 131.262ZM132.211 132.233C131.748 132.233 131.358 132.339 131.039 132.551C130.531 132.886 130.277 133.584 130.277 134.646C130.277 135.456 130.415 136.06 130.692 136.457C130.995 136.887 131.503 137.102 132.216 137.102C133.029 137.102 133.578 136.815 133.861 136.242C134.043 135.878 134.135 135.354 134.135 134.67C134.135 133.908 134.019 133.34 133.788 132.966C133.482 132.478 132.956 132.233 132.211 132.233ZM138.019 135.305V138H136.793V131.335H139.933C140.834 131.335 141.464 131.454 141.822 131.691C142.076 131.861 142.271 132.089 142.408 132.375C142.525 132.629 142.584 132.904 142.584 133.2C142.584 133.519 142.521 133.822 142.394 134.108C142.201 134.541 141.821 134.846 141.251 135.021C141.495 135.116 141.677 135.212 141.798 135.31C142.052 135.511 142.231 135.777 142.335 136.105C142.394 136.285 142.438 136.577 142.467 136.984C142.493 137.368 142.516 137.609 142.535 137.707C142.555 137.792 142.589 137.889 142.638 138H141.319C141.284 137.909 141.257 137.811 141.241 137.707C141.235 137.648 141.212 137.427 141.173 137.043C141.121 136.529 141.01 136.153 140.841 135.915C140.636 135.616 140.323 135.432 139.903 135.363C139.682 135.324 139.42 135.305 139.117 135.305H138.019ZM138.019 134.304H139.962C140.424 134.304 140.735 134.245 140.895 134.128C141.135 133.952 141.256 133.677 141.256 133.303C141.256 132.883 141.106 132.596 140.807 132.443C140.663 132.372 140.382 132.336 139.962 132.336H138.019V134.304Z" fill="white"/>
<path d="M221 26.5C221.276 26.5 221.5 26.7239 221.5 27V62C221.5 62.2761 221.276 62.5 221 62.5H22.5V26.5H221Z" fill="#36373A" stroke="black"/>
<rect x="25.5" y="29.5" width="193" height="30" fill="#101010" stroke="#202020"/>
<path d="M91.5191 74.6221V77H90.2936V70.335H93.4088C93.9654 70.335 94.3723 70.3789 94.6295 70.4668C95.0624 70.6165 95.3945 70.9014 95.6256 71.3213C95.8079 71.6533 95.899 72.0326 95.899 72.459C95.899 72.8724 95.816 73.2484 95.65 73.5869C95.4319 74.0329 95.1015 74.3324 94.6588 74.4854C94.3854 74.5765 93.9882 74.6221 93.4674 74.6221H91.5191ZM91.5191 73.6211H93.3551C93.775 73.6211 94.0729 73.543 94.2486 73.3867C94.4667 73.1947 94.5758 72.874 94.5758 72.4248C94.5758 72.0277 94.4423 71.7266 94.1754 71.5215C94.0159 71.3978 93.7392 71.3359 93.3453 71.3359H91.5191V73.6211ZM95.8621 77L98.6209 70.335H100.13L102.83 77H101.453L100.794 75.3447H97.9129L97.2342 77H95.8621ZM99.3631 71.4922L98.2352 74.3438H100.462L99.3631 71.4922ZM104.6 71.3359H102.373V70.335H108.081V71.3359H105.825V77H104.6V71.3359ZM113.977 75.999V77H111.794C111.29 77 110.879 76.9626 110.564 76.8877C109.808 76.7054 109.265 76.248 108.933 75.5156C108.698 74.998 108.581 74.3926 108.581 73.6992C108.581 72.8691 108.749 72.1644 109.084 71.585C109.335 71.1553 109.647 70.846 110.022 70.6572C110.451 70.4424 111.041 70.335 111.789 70.335H113.977V71.3359H111.897C111.171 71.3359 110.666 71.502 110.383 71.834C110.067 72.2051 109.909 72.8138 109.909 73.6602C109.909 74.5586 110.1 75.195 110.481 75.5693C110.676 75.7581 110.928 75.8835 111.238 75.9453C111.42 75.9811 111.662 75.999 111.965 75.999H113.977ZM120.678 70.335V77H119.453V74.1338H116.352V77H115.126V70.335H116.352V73.1328H119.453V70.335H120.678ZM126.356 71.8779V77H125.179V70.335H126.693L129.76 75.501V70.335H130.936V77H129.471L126.356 71.8779ZM131.93 77L134.688 70.335H136.197L138.897 77H137.521L136.861 75.3447H133.98L133.302 77H131.93ZM135.431 71.4922L134.303 74.3438H136.529L135.431 71.4922ZM141.717 70.335L143.67 75.667L145.565 70.335H147.362V77H146.185V71.6338L144.261 77H143.016L141.097 71.6338V77H139.92V70.335H141.717ZM153.951 70.335V71.3359H152.046C151.591 71.3392 151.255 71.3799 151.04 71.458C150.617 71.6045 150.331 71.9154 150.181 72.3906C150.129 72.5697 150.093 72.8252 150.074 73.1572H153.951V74.1582H150.074C150.077 74.627 150.191 75.0273 150.415 75.3594C150.699 75.7858 151.244 75.999 152.051 75.999H153.951V77H151.914C151.416 77 150.969 76.9512 150.572 76.8535C149.846 76.6745 149.317 76.1813 148.985 75.374C148.796 74.9118 148.702 74.3568 148.702 73.709C148.702 72.4785 149.065 71.5459 149.79 70.9111C150.074 70.6637 150.424 70.4993 150.84 70.418C151.114 70.3626 151.446 70.335 151.836 70.335H153.951Z" fill="white"/>
<path d="M80.4851 18V16.3389H84.7439C85.4275 16.3389 85.8832 16.2705 86.1111 16.1338C86.4392 15.9378 86.6033 15.6439 86.6033 15.252C86.6033 14.8008 86.4119 14.4704 86.0291 14.2607C85.8103 14.1423 85.4617 14.083 84.9832 14.083H83.2537C82.1964 14.083 81.4353 13.8916 80.9705 13.5088C80.6651 13.2581 80.4304 12.9391 80.2664 12.5518C80.116 12.1917 80.0408 11.8158 80.0408 11.4238C80.0408 10.763 80.2322 10.1637 80.615 9.62598C80.9933 9.10189 81.5925 8.79655 82.4129 8.70996C82.6909 8.68262 83.1056 8.66895 83.657 8.66895H88.2849V10.3301H84.1082C83.3608 10.3301 82.8914 10.3779 82.7 10.4736C82.3901 10.6331 82.2351 10.9294 82.2351 11.3623C82.2351 11.7406 82.3764 12.0231 82.659 12.21C82.8731 12.3512 83.2993 12.4219 83.9373 12.4219H85.4343C86.1954 12.4219 86.7673 12.488 87.1502 12.6201C87.811 12.8434 88.2644 13.2354 88.5105 13.7959C88.711 14.2562 88.8113 14.7393 88.8113 15.2451C88.8113 15.8057 88.6814 16.3138 88.4216 16.7695C88.0571 17.4076 87.5079 17.7881 86.7742 17.9111C86.4187 17.9704 85.8855 18 85.1746 18H80.4851ZM89.3921 18L93.2544 8.66895H95.5444L99.4067 18H97.0757L96.1733 15.8398H92.6255L91.7231 18H89.3921ZM94.4028 10.9111L93.0698 14.1787H95.729L94.4028 10.9111ZM108.731 8.66895L104.65 18H102.66L98.7229 8.66895H100.958L103.706 15.6895L106.495 8.66895H108.731ZM116.995 8.66895V10.3301H114.404C113.657 10.3346 113.133 10.3916 112.832 10.501C112.49 10.6149 112.212 10.8656 111.998 11.2529C111.87 11.4945 111.786 11.9183 111.745 12.5244H116.995V14.1855H111.745C111.791 14.8372 111.964 15.3385 112.265 15.6895C112.465 15.9173 112.709 16.0723 112.996 16.1543C113.393 16.2728 113.892 16.3343 114.493 16.3389H116.995V18H114.404C113.702 18 113.085 17.9567 112.552 17.8701C111.709 17.7334 111.041 17.3665 110.549 16.7695C109.842 15.9128 109.489 14.7415 109.489 13.2559C109.489 11.6471 109.99 10.3916 110.993 9.48926C111.38 9.13835 111.804 8.90592 112.265 8.79199C112.615 8.70996 113.073 8.66895 113.639 8.66895H116.995ZM124.61 14.7393V18H122.627V8.66895H127.283C128.13 8.66895 128.739 8.72819 129.108 8.84668C129.718 9.05176 130.202 9.47786 130.557 10.125C130.821 10.6081 130.953 11.1344 130.953 11.7041C130.953 12.2783 130.826 12.8138 130.571 13.3105C130.284 13.8757 129.857 14.279 129.292 14.5205C128.96 14.6663 128.463 14.7393 127.802 14.7393H124.61ZM124.61 13.0781H127.317C127.8 13.0781 128.139 13.0007 128.335 12.8457C128.627 12.6133 128.773 12.21 128.773 11.6357C128.773 11.0068 128.552 10.6035 128.11 10.4258C127.95 10.362 127.7 10.3301 127.358 10.3301H124.61V13.0781ZM130.728 18L134.59 8.66895H136.88L140.742 18H138.411L137.509 15.8398H133.961L133.059 18H130.728ZM135.738 10.9111L134.405 14.1787H137.065L135.738 10.9111ZM142.991 10.3301H140.017V8.66895H148.063V10.3301H144.973V18H142.991V10.3301ZM156.314 16.3389V18H153.06C152.449 18 151.975 17.9681 151.638 17.9043C150.494 17.681 149.683 17.0407 149.205 15.9834C148.881 15.2725 148.719 14.3975 148.719 13.3584C148.719 12.1097 148.963 11.0889 149.451 10.2959C149.834 9.67611 150.337 9.24544 150.961 9.00391C151.531 8.7806 152.263 8.66895 153.156 8.66895H156.314V10.3301H153.381C152.493 10.3301 151.841 10.5671 151.426 11.041C151.085 11.4375 150.914 12.1484 150.914 13.1738C150.914 14.5501 151.18 15.4548 151.713 15.8877C152.087 16.1885 152.668 16.3389 153.457 16.3389H156.314ZM165.488 8.66895V18H163.505V14.1377H159.896V18H157.913V8.66895H159.896V12.4766H163.505V8.66895H165.488Z" fill="white"/>
<defs>
<filter id="filter0_d_212_1781" x="125.5" y="268.5" width="30" height="42" filterUnits="userSpaceOnUse" color-interpolation-filters="sRGB">
<feFlood flood-opacity="0" result="BackgroundImageFix"/>
<feColorMatrix in="SourceAlpha" type="matrix" values="0 0 0 0 0 0 0 0 0 0 0 0 0 0 0 0 0 0 127 0" result="hardAlpha"/>
<feMorphology radius="1" operator="dilate" in="SourceAlpha" result="effect1_dropShadow_212_1781"/>
<feOffset/>
<feGaussianBlur stdDeviation="0.5"/>
<feComposite in2="hardAlpha" operator="out"/>
<feColorMatrix type="matrix" values="0 0 0 0 0 0 0 0 0 0 0 0 0 0 0 0 0 0 1 0"/>
<feBlend mode="normal" in2="BackgroundImageFix" result="effect1_dropShadow_212_1781"/>
<feBlend mode="normal" in="SourceGraphic" in2="effect1_dropShadow_212_1781" result="shape"/>
</filter>
<filter id="filter1_d_212_1781" x="88.5" y="268.5" width="30" height="42" filterUnits="userSpaceOnUse" color-interpolation-filters="sRGB">
<feFlood flood-opacity="0" result="BackgroundImageFix"/>
<feColorMatrix in="SourceAlpha" type="matrix" values="0 0 0 0 0 0 0 0 0 0 0 0 0 0 0 0 0 0 127 0" result="hardAlpha"/>
<feMorphology radius="1" operator="dilate" in="SourceAlpha" result="effect1_dropShadow_212_1781"/>
<feOffset/>
<feGaussianBlur stdDeviation="0.5"/>
<feComposite in2="hardAlpha" operator="out"/>
<feColorMatrix type="matrix" values="0 0 0 0 0 0 0 0 0 0 0 0 0 0 0 0 0 0 1 0"/>
<feBlend mode="normal" in2="BackgroundImageFix" result="effect1_dropShadow_212_1781"/>
<feBlend mode="normal" in="SourceGraphic" in2="effect1_dropShadow_212_1781" result="shape"/>
</filter>
<radialGradient id="paint0_radial_212_1781" cx="0" cy="0" r="1" gradientUnits="userSpaceOnUse" gradientTransform="translate(140.5 289.5) rotate(90) scale(18.5 12.5)">
<stop stop-color="#202020"/>
<stop offset="1"/>
</radialGradient>
<radialGradient id="paint1_radial_212_1781" cx="0" cy="0" r="1" gradientUnits="userSpaceOnUse" gradientTransform="translate(103.5 289.5) rotate(90) scale(18.5 12.5)">
<stop stop-color="#202020"/>
<stop offset="1"/>
</radialGradient>
</defs>
</svg>
