<?xml version="1.0" encoding="UTF-8" standalone="no"?>
<svg
   version="1.1"
   width="54"
   height="192"
   viewBox="0 0 54 192"
   id="svg48"
   sodipodi:docname="lfo_label_snappingking.svg"
   inkscape:version="1.4.2 (f4327f4, 2025-05-13)"
   xmlns:inkscape="http://www.inkscape.org/namespaces/inkscape"
   xmlns:sodipodi="http://sodipodi.sourceforge.net/DTD/sodipodi-0.dtd"
   xmlns="http://www.w3.org/2000/svg"
   xmlns:svg="http://www.w3.org/2000/svg">
  <defs
     id="defs48" />
  <sodipodi:namedview
     id="namedview48"
     pagecolor="#2a2a2a"
     bordercolor="#000000"
     borderopacity="0.25"
     inkscape:showpageshadow="2"
     inkscape:pageopacity="0.0"
     inkscape:pagecheckerboard="0"
     inkscape:deskcolor="#d1d1d1"
     showgrid="true"
     inkscape:zoom="32"
     inkscape:cx="6.046875"
     inkscape:cy="117.10937"
     inkscape:window-width="3840"
     inkscape:window-height="2054"
     inkscape:window-x="-11"
     inkscape:window-y="-11"
     inkscape:window-maximized="1"
     inkscape:current-layer="svg48">
    <inkscape:grid
       id="grid48"
       units="px"
       originx="0"
       originy="0"
       spacingx="1"
       spacingy="1"
       empcolor="#0099e5"
       empopacity="0.30196078"
       color="#0099e5"
       opacity="0.14901961"
       empspacing="5"
       enabled="true"
       visible="true" />
  </sodipodi:namedview>
  <path
     d="m 1,65 h 8.7 0.01 v 5 H 14 v 1 H 8.85 8.6411262 V 66 H 2 v 5 H 1 Z"
     fill="#e7e7e7"
     id="path1"
     sodipodi:nodetypes="ccccccccccccc" />
  <path
     d="m 1,25 h 7.72 0.01 v 5 H 14 v 1 H 7.87 7.7771359 V 26 H 2 v 5 H 1 Z"
     fill="#e7e7e7"
     id="path2"
     sodipodi:nodetypes="ccccccccccccc" />
  <path
     d="m 1,185 h 12 v 5 h 1 v 1 h -2 v 0 -5 H 2 v 5 H 1 Z"
     fill="#e6e6e6"
     id="path3"
     sodipodi:nodetypes="ccccccccccccc" />
  <path
     d="m 1,177 h 11.44 0.01 v 5 H 14 v 1 h -2.41 v -5 H 2 v 5 H 1 Z"
     fill="#e6e6e6"
     id="path4"
     sodipodi:nodetypes="ccccccccccccc" />
  <path
     d="m 1,169 h 11.25 v 5 H 14 v 1 h -2.6 -0.01 v -5 H 2 v 5 H 1 Z"
     fill="#e6e6e6"
     id="path5"
     sodipodi:nodetypes="ccccccccccccc" />
  <path
     d="m 1,153 h 10.85 0.01 v 5 H 14 v 1 h -3.160156 v -5 H 2 v 5 H 1 Z"
     fill="#e6e6e6"
     id="path6"
     sodipodi:nodetypes="cccccccccccc" />
  <path
     d="m 1,145 h 10.66 v 5 H 14 v 1 h -3.19 -0.219922 v -5 H 2 v 5 H 1 Z"
     fill="#e6e6e6"
     id="path7"
     sodipodi:nodetypes="cccccccccccc" />
  <path
     d="m 1,137 h 10.46 0.01 v 5 H 14 v 1 h -3.533631 v -5 H 2 v 5 H 1 Z"
     fill="#e6e6e6"
     id="path8"
     sodipodi:nodetypes="ccccccccccccc" />
  <path
     d="m 1,129 h 10.27 v 5 H 14 v 1 h -3.58 -0.153631 v -5 H 2 v 5 H 1 Z"
     fill="#e6e6e6"
     id="path9"
     sodipodi:nodetypes="ccccccccccccc" />
  <path
     d="m 1,121 h 10 v 1 4 h 3 v 1 h -4 v -5 H 2 v 5 H 1 Z"
     fill="#e6e6e6"
     id="path10"
     sodipodi:nodetypes="ccccccccccccc" />
  <path
     d="m 1,105 h 9.68 v 5 H 14 v 1 h -4 l -0.3567767,0 0,-5 L 2,106 v 5 H 1 Z"
     fill="#e6e6e6"
     id="path11"
     sodipodi:nodetypes="ccccccccccccc" />
  <path
     d="m 1,97 h 9.48 0.01 v 5 H 14 v 1 H 9.4311262 V 98 H 2 v 5 H 1 Z"
     fill="#e6e6e6"
     id="path12"
     sodipodi:nodetypes="ccccccccccccc" />
  <path
     d="m 1,89 h 9.29 v 5 H 14 v 1 H 9.44 9.2863689 V 90 H 2 v 5 H 1 Z"
     fill="#e6e6e6"
     id="path13"
     sodipodi:nodetypes="ccccccccccccc" />
  <path
     d="m 1,81 h 9.09 0.01 v 5 H 14 v 1 H 9.1626602 V 82 H 2 v 5 H 1 Z"
     fill="#e6e6e6"
     id="path14"
     sodipodi:nodetypes="ccccccccccccc" />
  <path
     d="m 1,57 h 8.5 l 0.01,0.179845 V 62 H 14 v 1 H 8.4897961 V 58 H 2 v 5 H 1 Z"
     fill="#e6e6e6"
     id="path15"
     sodipodi:nodetypes="ccccccccccccc" />
  <path
     d="m 1,49 h 8.31 v 5 H 14 v 1 H 8.46 8.281591 V 50 H 2 v 5 H 1 Z"
     fill="#e6e6e6"
     id="path16"
     sodipodi:nodetypes="cccccccccccc" />
  <path
     d="m 1,41 h 8.11 0.01 v 5 H 14 v 1 H 8.1115625 V 42 H 2 v 5 H 1 Z"
     fill="#e6e6e6"
     id="path17"
     sodipodi:nodetypes="cccccccccccc" />
  <path
     d="m 1,17 h 7.52 0.01 v 5 H 14 v 1 H 7.5263689 V 18 H 2 v 5 H 1 Z"
     fill="#e6e6e6"
     id="path18"
     sodipodi:nodetypes="ccccccccccccc" />
  <path
     d="m 1,9 h 7.33 v 5 H 14 v 1 H 7.48 7.3153204 V 10 H 2 v 5 H 1 Z"
     fill="#e6e6e6"
     id="path19"
     sodipodi:nodetypes="cccccccccccc" />
  <path
     d="M 0.95,0.99 H 7.99 L 8,1 v 5 h 6 V 7 H 7 V 2 H 2 V 7 H 1 L 0.94,1 Z"
     fill="#e6e6e6"
     id="path20"
     sodipodi:nodetypes="ccccccccccccc" />
  <path
     d="m 1,161 h 11 v 0 5 h 2 v 1 h -3 v -5 H 2 v 5 H 1 Z"
     fill="#e6e6e6"
     id="path21"
     sodipodi:nodetypes="ccccccccccccc" />
  <path
     d="m 1,113 h 9.87 0.01 v 5 H 14 v 1 H 10 9.8628125 l 0.02,-5 H 2 v 5 H 1 Z"
     fill="#e6e6e6"
     id="path22"
     sodipodi:nodetypes="cccccccccccccc" />
  <path
     d="m 1,73 h 9 v 0 5 h 4 v 1 H 9 9.04 L 9,74 H 2 v 5 H 1 Z"
     fill="#e6e6e6"
     id="path23"
     sodipodi:nodetypes="cccccccccccccc" />
  <path
     d="M 1,33 H 8.91 9 v 5 h 5 v 1 H 8.07 8 V 34 H 2 v 5 H 1 Z"
     fill="#e6e6e6"
     id="path24"
     sodipodi:nodetypes="ccccccccccccc" />
  <path
     d="M39.37 168.76h0.18l0.1 0.03 0.1 0.07 0.08 0.09 0.05 0.11 0.21 0.89 0.19 0.77 0.15 0.54 0.13 0.41 0.11 0.31 0.12 0.29 0.14 0.29 0.13 0.22 0.11 0.16 0.11 0.14 0.12 0.13 0.12 0.12 0.14 0.11 0.14 0.1 0.15 0.09 0.23 0.12 0.27 0.11 0.3 0.1 0.3 0.08 0.38 0.08 0.41 0.07 0.46 0.06 0.59 0.06 0.67 0.05 0.73 0.04 1.02 0.04 1.07 0.03 1.4 0.03 1.07 0.02 0.18 0.01v0.27l-0.01 0.5 -0.01 0.08 -0.01 0.01 -1.66 -0.03 -1.31 -0.03 -1.25 -0.04 -0.88 -0.04 -0.77 -0.05 -0.58 -0.05 -0.54 -0.06 -0.48 -0.07 -0.43 -0.08 -0.38 -0.09 -0.25 -0.07 -0.36 -0.12 -0.26 -0.11 -0.25 -0.12 -0.27 -0.16 -0.14 -0.1 -0.13 -0.1 -0.14 -0.12 -0.13 -0.12 -0.14 -0.15 -0.09 -0.11 -0.1 -0.13 -0.18 -0.27 -0.14 -0.25 -0.11 -0.22 -0.13 -0.3 -0.01 2.78h-0.85l-0.01 -0.01v-6.01l0.03 -0.14 0.06 -0.1 0.05 -0.05 0.07 -0.06Z"
     fill="#E6E6E6"
     id="path25" />
  <path
     d="M39.37 152.76h0.18l0.1 0.03 0.1 0.07 0.08 0.09 0.05 0.11 0.21 0.7 0.18 0.57 0.15 0.45 0.14 0.38 0.15 0.37 0.15 0.33 0.15 0.29 0.12 0.2 0.13 0.19 0.1 0.13 0.09 0.11 0.12 0.13 0.13 0.13 0.11 0.09 0.17 0.13 0.17 0.11 0.18 0.1 0.16 0.08 0.2 0.09 0.3 0.11 0.29 0.09 0.44 0.11 0.45 0.09 0.51 0.08 0.56 0.07 0.7 0.07 0.92 0.07 1.02 0.06 1.29 0.06 1.78 0.07 0.08 0.01 0.01 0.04 -0.03 0.8 -0.01 0.02 -1.1 -0.04 -1.41 -0.06 -1.16 -0.06 -0.91 -0.06 -0.73 -0.06 -0.67 -0.07 -0.6 -0.08 -0.48 -0.08 -0.4 -0.08 -0.48 -0.12 -0.39 -0.12 -0.34 -0.13 -0.2 -0.09 -0.16 -0.08 -0.19 -0.1 -0.21 -0.13 -0.18 -0.13 -0.14 -0.11 -0.15 -0.13 -0.1 -0.1 -0.05 -0.04 -0.07 -0.08 -0.12 -0.13 -0.11 -0.14 -0.12 -0.16 -0.1 -0.15 -0.13 -0.21 -0.16 -0.29 -0.15 -0.31 -0.09 -0.21 -0.01 3.34h-0.85l-0.01 -0.01v-6.01l0.03 -0.14 0.06 -0.1 0.05 -0.05 0.07 -0.06Z"
     fill="#E6E6E6"
     id="path26" />
  <path
     d="M39.37 176.76h0.18l0.1 0.03 0.1 0.07 0.08 0.09 0.05 0.11 0.15 0.73 0.16 0.76 0.12 0.52 0.11 0.44 0.12 0.41 0.11 0.32 0.11 0.27 0.12 0.25 0.1 0.18 0.11 0.16 0.11 0.14 0.12 0.13 0.08 0.08 0.11 0.09 0.17 0.12 0.19 0.11 0.21 0.1 0.26 0.1 0.29 0.09 0.32 0.08 0.37 0.07 0.4 0.06 0.43 0.05 0.56 0.05 0.64 0.04 0.67 0.03 1 0.03 1.05 0.02 1.66 0.02 1.03 0.01 0.26 0.01v0.85l-0.01 0.01 -1.26 -0.01 -1.66 -0.02 -1.07 -0.02 -1.01 -0.03 -0.67 -0.03 -0.65 -0.04 -0.58 -0.05 -0.52 -0.06 -0.45 -0.07 -0.37 -0.07 -0.4 -0.1 -0.35 -0.11 -0.28 -0.11 -0.25 -0.12 -0.15 -0.08 -0.19 -0.12 -0.19 -0.14 -0.14 -0.12 -0.16 -0.15 -0.1 -0.11 -0.09 -0.11 -0.12 -0.16 -0.11 -0.17 -0.11 -0.19 -0.11 -0.21 -0.12 -0.28 -0.01 2.47h-0.85l-0.01 -0.01v-6.01l0.03 -0.14 0.06 -0.1 0.05 -0.05 0.07 -0.06Z"
     fill="#E6E6E6"
     id="path27" />
  <path
     d="M39.37 160.76h0.18l0.1 0.03 0.1 0.07 0.08 0.09 0.05 0.11 0.22 0.83 0.17 0.6 0.14 0.46 0.12 0.36 0.1 0.28 0.13 0.32 0.12 0.26 0.13 0.25 0.11 0.18 0.11 0.16 0.08 0.1 0.09 0.11 0.15 0.16 0.08 0.07 0.13 0.11 0.19 0.13 0.15 0.09 0.23 0.12 0.29 0.12 0.36 0.12 0.38 0.1 0.39 0.08 0.41 0.07 0.53 0.07 0.58 0.06 0.62 0.05 0.8 0.05 0.82 0.04 1.34 0.05 2.04 0.06 0.14 0.01v0.33l-0.01 0.35 -0.01 0.17 -0.04 0.01 -2.06 -0.06 -1.11 -0.04 -0.89 -0.04 -0.87 -0.05 -0.66 -0.05 -0.72 -0.07 -0.54 -0.07 -0.49 -0.08 -0.39 -0.08 -0.44 -0.11 -0.38 -0.12 -0.26 -0.1 -0.2 -0.09 -0.16 -0.08 -0.17 -0.09 -0.22 -0.14 -0.14 -0.1 -0.16 -0.13 -0.1 -0.09 -0.1 -0.09 -0.11 -0.11 -0.07 -0.08 -0.11 -0.13 -0.14 -0.19 -0.1 -0.15 -0.12 -0.2 -0.13 -0.24 -0.14 -0.29 -0.09 -0.22 -0.01 3.08h-0.85l-0.01 -0.01v-6.01l0.03 -0.14 0.06 -0.1 0.05 -0.05 0.07 -0.06Z"
     fill="#E6E6E6"
     id="path28" />
  <path
     d="M39.37 144.76h0.18l0.1 0.03 0.1 0.07 0.08 0.09 0.05 0.11 0.16 0.48 0.15 0.43 0.17 0.47 0.18 0.46 0.15 0.35 0.18 0.38 0.14 0.26 0.12 0.2 0.14 0.21 0.12 0.16 0.09 0.11 0.11 0.12 0.07 0.08 0.08 0.08 0.08 0.07 0.13 0.11 0.18 0.13 0.14 0.09 0.21 0.12 0.22 0.11 0.32 0.13 0.35 0.12 0.36 0.1 0.43 0.1 0.43 0.08 0.51 0.08 0.64 0.08 0.58 0.06 0.82 0.07 1.01 0.07 1.22 0.07 1.61 0.08 0.06 0.01v0.15l-0.03 0.62 -0.01 0.08 -0.05 0.01 -1.61 -0.08 -1.22 -0.07 -1.01 -0.07 -0.83 -0.07 -0.67 -0.07 -0.64 -0.08 -0.57 -0.09 -0.42 -0.08 -0.39 -0.09 -0.38 -0.1 -0.43 -0.14 -0.28 -0.11 -0.24 -0.11 -0.16 -0.08 -0.17 -0.09 -0.21 -0.13 -0.16 -0.11 -0.13 -0.1 -0.11 -0.09 -0.14 -0.12 -0.28 -0.28 -0.09 -0.11 -0.11 -0.13 -0.14 -0.19 -0.14 -0.21 -0.17 -0.28 -0.17 -0.32 -0.15 -0.31 -0.03 -0.07 -0.01 3.57h-0.85l-0.01 -0.01v-6.01l0.03 -0.14 0.06 -0.1 0.05 -0.05 0.07 -0.06Z"
     fill="#E6E6E6"
     id="path29" />
  <path
     d="M39.37 136.76h0.18l0.1 0.03 0.1 0.07 0.08 0.09 0.07 0.16 0.18 0.48 0.18 0.46 0.19 0.46 0.17 0.38 0.14 0.29 0.11 0.22 0.13 0.23 0.13 0.22 0.15 0.22 0.12 0.16 0.08 0.1 0.11 0.13 0.14 0.15 0.1 0.1 0.08 0.07 0.17 0.14 0.18 0.13 0.21 0.13 0.22 0.12 0.25 0.12 0.3 0.12 0.35 0.12 0.43 0.12 0.39 0.09 0.46 0.09 0.55 0.09 0.68 0.09 0.74 0.08 0.88 0.08 1.05 0.08 1.38 0.09 0.84 0.05 0.05 0.01v0.21l-0.04 0.64 -0.04 0.01 -1.48 -0.09 -1.16 -0.08 -0.99 -0.08 -0.83 -0.08 -0.69 -0.08 -0.65 -0.09 -0.53 -0.09 -0.45 -0.09 -0.42 -0.1 -0.36 -0.1 -0.4 -0.13 -0.28 -0.11 -0.27 -0.12 -0.16 -0.08 -0.21 -0.11 -0.23 -0.14 -0.2 -0.14 -0.13 -0.1 -0.11 -0.09 -0.1 -0.09 -0.08 -0.07 -0.07 -0.07 -0.07 -0.06 -0.07 -0.08 -0.07 -0.07 -0.07 -0.08 -0.14 -0.17 -0.15 -0.2 -0.2 -0.3 -0.11 -0.18 -0.12 -0.21 -0.17 -0.32 -0.09 -0.19 -0.01 3.78h-0.85l-0.01 -0.01v-6.01l0.03 -0.14 0.06 -0.1 0.05 -0.05 0.07 -0.06Z"
     fill="#E6E6E6"
     id="path30" />
  <path
     d="M39.37 184.76h0.18l0.1 0.03 0.1 0.07 0.08 0.09 0.05 0.11 0.08 0.44 0.17 0.96 0.13 0.68 0.12 0.54 0.11 0.42 0.13 0.4 0.11 0.27 0.1 0.21 0.1 0.17 0.1 0.14 0.08 0.1 0.11 0.12 0.07 0.07 0.14 0.11 0.15 0.1 0.16 0.09 0.19 0.09 0.27 0.1 0.27 0.08 0.3 0.07 0.38 0.07 0.45 0.06 0.51 0.05 0.59 0.04 0.64 0.03 0.65 0.02 0.48 0.01 0.73 0.01 3.82 0.02v0.86h-1.94l-1.92 -0.01 -0.72 -0.01 -0.83 -0.02 -0.76 -0.03 -0.65 -0.04 -0.46 -0.04 -0.51 -0.06 -0.49 -0.08 -0.33 -0.07 -0.31 -0.08 -0.36 -0.12 -0.24 -0.1 -0.16 -0.08 -0.17 -0.09 -0.24 -0.16 -0.14 -0.11 -0.13 -0.12 -0.08 -0.07 -0.11 -0.12 -0.1 -0.12 -0.11 -0.15 -0.12 -0.19 -0.1 -0.18 -0.14 -0.29 -0.01 2.13h-0.85l-0.01 -0.01v-6.01l0.03 -0.14 0.06 -0.1 0.05 -0.05 0.07 -0.06Z"
     fill="#E6E6E6"
     id="path31" />
  <path
     d="M39.37 128.76h0.18l0.1 0.03 0.1 0.07 0.08 0.09 0.07 0.15 0.12 0.29 0.18 0.42 0.12 0.27 0.16 0.35 0.18 0.37 0.1 0.19 0.16 0.29 0.14 0.23 0.2 0.3 0.14 0.19 0.14 0.17 0.09 0.1 0.07 0.08 0.24 0.24 0.11 0.09 0.12 0.1 0.18 0.13 0.17 0.11 0.26 0.15 0.22 0.11 0.3 0.13 0.36 0.13 0.35 0.11 0.42 0.11 0.45 0.1 0.47 0.09 0.57 0.09 0.66 0.09 0.79 0.09 0.82 0.08 1.05 0.09 1.47 0.11 0.28 0.02 0.06 0.01 -0.01 0.25 -0.04 0.55 -0.02 0.06 -1.25 -0.09 -1.24 -0.1 -0.96 -0.09 -0.74 -0.08 -0.79 -0.1 -0.65 -0.1 -0.5 -0.09 -0.52 -0.11 -0.47 -0.12 -0.43 -0.13 -0.34 -0.12 -0.29 -0.12 -0.24 -0.11 -0.24 -0.12 -0.27 -0.16 -0.24 -0.16 -0.19 -0.14 -0.13 -0.11 -0.11 -0.09 -0.07 -0.07 -0.08 -0.07 -0.18 -0.18 -0.07 -0.08 -0.09 -0.1 -0.09 -0.11 -0.12 -0.15 -0.13 -0.18 -0.2 -0.3 -0.13 -0.21 -0.12 -0.21 -0.12 -0.22 -0.08 -0.15 -0.01 3.96h-0.85l-0.01 -0.01v-6.01l0.03 -0.14 0.06 -0.1 0.05 -0.05 0.07 -0.06Z"
     fill="#E6E6E6"
     id="path32" />
  <path
     d="M39.37 120.76h0.18l0.1 0.03 0.1 0.07 0.08 0.09 0.12 0.25 0.12 0.26 0.16 0.34 0.28 0.56 0.12 0.22 0.15 0.27 0.17 0.28 0.12 0.19 0.11 0.16 0.13 0.18 0.1 0.13 0.09 0.11 0.12 0.14 0.12 0.13 0.24 0.24 0.08 0.07 0.17 0.14 0.19 0.14 0.2 0.13 0.22 0.13 0.27 0.14 0.24 0.11 0.33 0.13 0.44 0.15 0.43 0.12 0.36 0.09 0.52 0.11 0.5 0.09 0.64 0.1 0.74 0.1 0.96 0.11 1.11 0.11 1.25 0.11 0.36 0.03 0.06 0.01v0.15l-0.05 0.61 -0.01 0.08 -0.01 0.01h-0.12l-1.27 -0.11 -1.15 -0.11 -0.91 -0.1 -0.79 -0.1 -0.68 -0.1 -0.64 -0.11 -0.5 -0.1 -0.47 -0.11 -0.41 -0.11 -0.45 -0.14 -0.38 -0.14 -0.26 -0.11 -0.28 -0.13 -0.25 -0.13 -0.22 -0.13 -0.17 -0.11 -0.2 -0.14 -0.13 -0.1 -0.16 -0.13 -0.1 -0.09 -0.08 -0.07 -0.16 -0.15 -0.09 -0.09 -0.07 -0.08 -0.13 -0.14 -0.09 -0.11 -0.13 -0.16 -0.14 -0.19 -0.12 -0.17 -0.14 -0.21 -0.15 -0.24 -0.14 -0.24 -0.1 -0.18 -0.01 4.13h-0.85l-0.01 -0.01v-6.01l0.03 -0.14 0.06 -0.1 0.05 -0.05 0.07 -0.06Z"
     fill="#E6E6E6"
     id="path33" />
  <path
     d="M39.37 112.76h0.18l0.1 0.03 0.1 0.07 0.08 0.09 0.16 0.32 0.1 0.19 0.14 0.27 0.12 0.22 0.15 0.27 0.16 0.27 0.14 0.23 0.11 0.17 0.1 0.15 0.14 0.2 0.14 0.19 0.13 0.16 0.09 0.11 0.09 0.1 0.07 0.08 0.15 0.16 0.11 0.11 0.08 0.07 0.12 0.11 0.14 0.11 0.18 0.14 0.27 0.18 0.15 0.09 0.18 0.1 0.23 0.12 0.29 0.13 0.33 0.13 0.37 0.13 0.4 0.12 0.42 0.11 0.49 0.11 0.5 0.1 0.7 0.12 0.74 0.11 0.85 0.11 1.14 0.13 1.38 0.14 0.17 0.02 -0.01 0.2 -0.06 0.61 -0.01 0.04h-0.11l-1.29 -0.13 -1.08 -0.12 -0.95 -0.12 -0.76 -0.11 -0.72 -0.12 -0.62 -0.12 -0.53 -0.12 -0.43 -0.11 -0.44 -0.13 -0.44 -0.15 -0.35 -0.14 -0.27 -0.12 -0.25 -0.12 -0.22 -0.12 -0.22 -0.13 -0.3 -0.2 -0.19 -0.14 -0.16 -0.13 -0.13 -0.11 -0.12 -0.11 -0.08 -0.07 -0.27 -0.27 -0.07 -0.08 -0.09 -0.1 -0.09 -0.11 -0.11 -0.13 -0.15 -0.2 -0.12 -0.16 -0.11 -0.16 -0.14 -0.21 -0.14 -0.22 -0.13 -0.21 -0.01 4.27h-0.85l-0.01 -0.01v-6.01l0.03 -0.14 0.06 -0.1 0.05 -0.05 0.07 -0.06Z"
     fill="#E6E6E6"
     id="path34" />
  <path
     d="M39.37 104.76h0.18l0.1 0.03 0.1 0.07 0.08 0.09 0.16 0.29 0.16 0.28 0.17 0.29 0.14 0.23 0.12 0.19 0.16 0.25 0.16 0.23 0.12 0.17 0.14 0.19 0.13 0.16 0.08 0.1 0.11 0.13 0.09 0.1 0.07 0.08 0.15 0.16 0.13 0.13 0.08 0.07 0.13 0.12 0.11 0.09 0.16 0.13 0.18 0.13 0.21 0.14 0.25 0.15 0.22 0.12 0.16 0.08 0.25 0.12 0.37 0.15 0.3 0.11 0.43 0.14 0.43 0.12 0.48 0.12 0.51 0.11 0.51 0.1 0.7 0.12 0.72 0.11 0.87 0.12 1.14 0.14 0.88 0.1 0.06 0.02 -0.05 0.5 -0.04 0.33 -0.01 0.01h-0.09l-1.22 -0.14 -1.1 -0.14 -0.84 -0.12 -0.81 -0.13 -0.6 -0.11 -0.49 -0.1 -0.49 -0.11 -0.43 -0.11 -0.45 -0.13 -0.46 -0.15 -0.37 -0.14 -0.31 -0.13 -0.36 -0.17 -0.3 -0.16 -0.17 -0.1 -0.19 -0.12 -0.12 -0.08 -0.17 -0.12 -0.16 -0.12 -0.16 -0.13 -0.14 -0.12 -0.1 -0.09 -0.1 -0.09 -0.34 -0.34 -0.07 -0.08 -0.11 -0.12 -0.09 -0.11 -0.11 -0.13 -0.1 -0.13 -0.16 -0.21 -0.13 -0.18 -0.15 -0.22 -0.12 -0.18 -0.06 -0.09 -0.01 4.4h-0.85l-0.01 -0.01v-6.01l0.03 -0.14 0.06 -0.1 0.05 -0.05 0.07 -0.06Z"
     fill="#E6E6E6"
     id="path35" />
  <path
     d="M39.37 96.76h0.18l0.1 0.03 0.1 0.07 0.08 0.09 0.12 0.2 0.12 0.19 0.12 0.19 0.16 0.25 0.19 0.28 0.16 0.23 0.13 0.18 0.16 0.21 0.11 0.14 0.13 0.16 0.11 0.13 0.12 0.14 0.15 0.16 0.12 0.13 0.15 0.15 0.08 0.07 0.15 0.14 0.11 0.09 0.17 0.14 0.19 0.14 0.2 0.14 0.19 0.12 0.22 0.13 0.24 0.13 0.28 0.14 0.32 0.14 0.33 0.13 0.34 0.12 0.4 0.13 0.39 0.11 0.42 0.11 0.61 0.14 0.75 0.15 0.68 0.12 0.68 0.11 0.88 0.13 1.19 0.16 0.37 0.05v0.09l-0.09 0.71 -0.01 0.05 -0.16 -0.01 -1.14 -0.15 -0.84 -0.12 -0.83 -0.13 -0.64 -0.11 -0.63 -0.12 -0.62 -0.13 -0.54 -0.13 -0.49 -0.13 -0.46 -0.14 -0.5 -0.17 -0.41 -0.16 -0.27 -0.12 -0.34 -0.16 -0.28 -0.15 -0.26 -0.15 -0.25 -0.16 -0.23 -0.16 -0.21 -0.16 -0.14 -0.11 -0.14 -0.12 -0.14 -0.12 -0.16 -0.15 -0.37 -0.37 -0.07 -0.08 -0.11 -0.12 -0.09 -0.11 -0.13 -0.15 -0.11 -0.14 -0.11 -0.14 -0.16 -0.21 -0.1 -0.14 -0.12 -0.17 -0.02 -0.03 -0.01 4.52h-0.85l-0.01 -0.01v-6.01l0.03 -0.14 0.06 -0.1 0.05 -0.05 0.07 -0.06Z"
     fill="#E6E6E6"
     id="path36" />
  <path
     d="M39.37 88.76h0.18l0.1 0.03 0.1 0.07 0.08 0.09 0.14 0.21 0.11 0.16 0.16 0.23 0.13 0.18 0.13 0.18 0.16 0.21 0.1 0.13 0.11 0.14 0.14 0.17 0.11 0.13 0.12 0.14 0.12 0.13 0.07 0.08 0.16 0.17 0.24 0.24 0.08 0.07 0.14 0.13 0.11 0.09 0.14 0.12 0.17 0.13 0.16 0.12 0.2 0.14 0.22 0.14 0.22 0.13 0.18 0.1 0.23 0.12 0.31 0.15 0.35 0.15 0.39 0.15 0.5 0.17 0.39 0.12 0.44 0.12 0.64 0.16 0.64 0.14 0.6 0.12 0.77 0.14 0.97 0.16 1.13 0.17 0.27 0.04 -0.01 0.13 -0.09 0.63 -0.02 0.09 -0.13 -0.01 -1.01 -0.15 -0.81 -0.13 -0.76 -0.13 -0.69 -0.13 -0.68 -0.14 -0.65 -0.15 -0.51 -0.13 -0.52 -0.15 -0.41 -0.13 -0.43 -0.15 -0.38 -0.15 -0.28 -0.12 -0.28 -0.13 -0.34 -0.17 -0.23 -0.13 -0.27 -0.16 -0.17 -0.11 -0.22 -0.15 -0.18 -0.13 -0.18 -0.14 -0.16 -0.13 -0.13 -0.11 -0.1 -0.09 -0.08 -0.07 -0.13 -0.12 -0.11 -0.11 -0.08 -0.07 -0.14 -0.15 -0.12 -0.12 -0.07 -0.08 -0.11 -0.12 -0.07 -0.08 -0.12 -0.14 -0.09 -0.11 -0.14 -0.17 -0.13 -0.17 -0.11 -0.14 -0.04 -0.05 -0.01 4.62h-0.85l-0.01 -0.01v-6.01l0.03 -0.14 0.06 -0.1 0.05 -0.05 0.07 -0.06Z"
     fill="#E6E6E6"
     id="path37" />
  <path
     d="M39.37 80.76h0.18l0.1 0.03 0.1 0.07 0.08 0.09 0.14 0.19 0.16 0.21 0.12 0.16 0.12 0.15 0.11 0.14 0.09 0.11 0.11 0.13 0.09 0.11 0.12 0.14 0.09 0.1 0.07 0.08 0.11 0.12 0.09 0.1 0.08 0.08 0.07 0.08 0.25 0.25 0.08 0.07 0.08 0.08 0.08 0.07 0.11 0.1 0.11 0.09 0.13 0.11 0.14 0.11 0.21 0.16 0.2 0.14 0.15 0.1 0.22 0.14 0.29 0.17 0.28 0.15 0.34 0.17 0.29 0.13 0.44 0.18 0.44 0.16 0.42 0.14 0.5 0.15 0.52 0.14 0.69 0.17 0.73 0.16 0.9 0.18 1 0.18 1.08 0.18 0.01 0.03 -0.09 0.58 -0.04 0.23 -0.05 0.01 -1.08 -0.18 -0.99 -0.18 -0.71 -0.14 -0.62 -0.13 -0.64 -0.15 -0.52 -0.13 -0.54 -0.15 -0.52 -0.16 -0.53 -0.18 -0.47 -0.18 -0.28 -0.12 -0.29 -0.13 -0.33 -0.16 -0.25 -0.13 -0.24 -0.14 -0.27 -0.16 -0.39 -0.26 -0.18 -0.13 -0.12 -0.09 -0.13 -0.1 -0.16 -0.13 -0.13 -0.11 -0.11 -0.09 -0.15 -0.14 -0.08 -0.07 -0.17 -0.16 -0.34 -0.34 -0.07 -0.08 -0.08 -0.08 -0.07 -0.08 -0.11 -0.12 -0.07 -0.08 -0.12 -0.14 -0.12 -0.14 -0.09 -0.11 -0.04 -0.05 -0.01 4.72h-0.85l-0.01 -0.01v-6.01l0.03 -0.14 0.06 -0.1 0.05 -0.05 0.07 -0.06Z"
     fill="#E6E6E6"
     id="path38" />
  <path
     d="M39.37 72.76h0.18l0.1 0.03 0.1 0.07 0.1 0.11 0.11 0.14 0.12 0.14 0.09 0.11 0.12 0.14 0.12 0.14 0.09 0.1 0.09 0.11 0.07 0.07 0.07 0.08 0.12 0.13 0.14 0.15 0.14 0.14 0.07 0.08 0.13 0.13 0.08 0.07 0.14 0.14 0.08 0.07 0.14 0.13 0.11 0.09 0.11 0.1 0.11 0.09 0.16 0.13 0.16 0.12 0.2 0.15 0.19 0.13 0.24 0.16 0.24 0.15 0.26 0.15 0.24 0.13 0.27 0.14 0.27 0.13 0.39 0.17 0.45 0.18 0.44 0.16 0.51 0.17 0.5 0.15 0.62 0.17 0.64 0.16 0.6 0.14 0.84 0.18 0.85 0.17 0.92 0.17v0.08l-0.09 0.51 -0.05 0.25 -0.04 0.01 -0.81 -0.15 -1.01 -0.2 -0.7 -0.15 -0.65 -0.15 -0.64 -0.16 -0.49 -0.13 -0.48 -0.14 -0.45 -0.14 -0.53 -0.18 -0.4 -0.15 -0.44 -0.18 -0.29 -0.13 -0.3 -0.14 -0.3 -0.15 -0.22 -0.12 -0.28 -0.16 -0.23 -0.14 -0.17 -0.11 -0.18 -0.12 -0.2 -0.14 -0.19 -0.14 -0.17 -0.13 -0.14 -0.11 -0.17 -0.14 -0.14 -0.12 -0.14 -0.12 -0.15 -0.14 -0.1 -0.09 -0.17 -0.16 -0.41 -0.41 -0.07 -0.08 -0.09 -0.09 -0.07 -0.08 -0.14 -0.15 -0.07 -0.08 -0.02 -0.03 -0.01 4.81h-0.85l-0.01 -0.01v-6.01l0.03 -0.14 0.06 -0.1 0.05 -0.05 0.07 -0.06Z"
     fill="#E6E6E6"
     id="path39" />
  <path
     d="M39.37 64.76h0.18l0.1 0.03 0.1 0.07 0.09 0.09 0.07 0.08 0.09 0.1 0.11 0.12 0.09 0.1 0.14 0.15 0.15 0.16 0.15 0.15 0.07 0.08 0.23 0.23 0.08 0.07 0.16 0.16 0.08 0.07 0.17 0.16 0.08 0.07 0.14 0.12 0.1 0.09 0.11 0.09 0.17 0.14 0.17 0.13 0.18 0.14 0.18 0.13 0.2 0.14 0.24 0.16 0.19 0.12 0.28 0.17 0.25 0.14 0.24 0.13 0.25 0.13 0.23 0.11 0.35 0.16 0.43 0.18 0.39 0.15 0.36 0.13 0.47 0.16 0.44 0.14 0.69 0.2 0.72 0.19 0.69 0.17 0.83 0.19 0.89 0.19 0.39 0.08 0.01 0.01 -0.01 0.11 -0.12 0.6 -0.03 0.12 -0.03 0.01 -0.68 -0.14 -0.87 -0.19 -0.77 -0.18 -0.64 -0.16 -0.53 -0.14 -0.56 -0.16 -0.49 -0.15 -0.49 -0.16 -0.43 -0.15 -0.42 -0.16 -0.39 -0.16 -0.32 -0.14 -0.26 -0.12 -0.33 -0.16 -0.31 -0.16 -0.23 -0.13 -0.28 -0.16 -0.24 -0.15 -0.25 -0.16 -0.23 -0.16 -0.17 -0.12 -0.19 -0.14 -0.13 -0.1 -0.14 -0.11 -0.1 -0.08 -0.16 -0.13 -0.14 -0.12 -0.14 -0.12 -0.1 -0.09 -0.08 -0.07 -0.12 -0.11 -0.12 -0.11 -0.17 -0.16 -0.53 -0.53 -0.01 4.88h-0.85l-0.01 -0.01v-6.01l0.03 -0.14 0.06 -0.1 0.05 -0.05 0.07 -0.06Z"
     fill="#E6E6E6"
     id="path40" />
  <path
     d="M39.37 56.76h0.18l0.1 0.03 0.1 0.07 0.66 0.66 0.08 0.07 0.13 0.13 0.08 0.07 0.07 0.07 0.08 0.07 0.14 0.13 0.08 0.07 0.1 0.09 0.11 0.09 0.11 0.1 0.11 0.09 0.13 0.11 0.14 0.11 0.15 0.12 0.17 0.13 0.2 0.15 0.18 0.13 0.16 0.11 0.36 0.24 0.19 0.12 0.28 0.17 0.28 0.16 0.24 0.13 0.23 0.12 0.44 0.22 0.33 0.15 0.3 0.13 0.44 0.18 0.56 0.21 0.43 0.15 0.48 0.16 0.52 0.16 0.69 0.2 0.56 0.15 0.62 0.16 0.69 0.17 0.73 0.17 0.11 0.03 -0.01 0.1 -0.13 0.58 -0.04 0.15 -0.02 0.01 -0.9 -0.21 -0.93 -0.23 -0.57 -0.15 -0.68 -0.19 -0.57 -0.17 -0.51 -0.16 -0.45 -0.15 -0.55 -0.2 -0.42 -0.16 -0.41 -0.17 -0.32 -0.14 -0.35 -0.16 -0.41 -0.2 -0.23 -0.12 -0.24 -0.13 -0.24 -0.14 -0.16 -0.09 -0.23 -0.14 -0.25 -0.16 -0.3 -0.2 -0.23 -0.16 -0.18 -0.13 -0.21 -0.16 -0.12 -0.09 -0.14 -0.11 -0.16 -0.13 -0.1 -0.08 -0.13 -0.11 -0.11 -0.09 -0.15 -0.13 -0.1 -0.09 -0.08 -0.07 -0.1 -0.09 -0.1 -0.09 -0.12 -0.11 -0.13 -0.12 -0.07 -0.07 -0.06 -0.05 -0.01 4.95h-0.85l-0.01 -0.01v-6.01l0.03 -0.14 0.06 -0.1 0.05 -0.05 0.07 -0.06Z"
     fill="#E6E6E6"
     id="path41" />
  <path
     d="M39.37 40.76h0.18l0.1 0.03 0.1 0.07 0.14 0.12 0.11 0.09 0.17 0.14 0.17 0.14 0.14 0.11 0.16 0.13 0.17 0.13 0.15 0.12 0.12 0.09 0.21 0.16 0.18 0.13 0.18 0.13 0.18 0.13 0.23 0.16 0.39 0.26 0.15 0.1 0.22 0.14 0.21 0.13 0.28 0.17 0.26 0.15 0.23 0.13 0.29 0.16 0.25 0.13 0.19 0.1 0.44 0.22 0.28 0.13 0.28 0.13 0.41 0.18 0.43 0.18 0.53 0.21 0.42 0.16 0.5 0.18 0.43 0.15 0.36 0.12 0.42 0.14 0.54 0.17 0.83 0.25 0.73 0.21 -0.01 0.09 -0.12 0.44 -0.09 0.29 -0.04 0.01 -0.69 -0.2 -0.6 -0.18 -0.55 -0.17 -0.53 -0.17 -0.66 -0.22 -0.48 -0.17 -0.49 -0.18 -0.49 -0.19 -0.42 -0.17 -0.38 -0.16 -0.43 -0.19 -0.28 -0.13 -0.34 -0.16 -0.62 -0.31 -0.22 -0.12 -0.28 -0.15 -0.24 -0.14 -0.18 -0.1 -0.28 -0.17 -0.2 -0.12 -0.19 -0.12 -0.22 -0.14 -0.33 -0.22 -0.24 -0.16 -0.15 -0.11 -0.19 -0.13 -0.16 -0.12 -0.14 -0.1 -0.21 -0.16 -0.19 -0.14 -0.14 -0.11 -0.18 -0.14 -0.16 -0.13 -0.12 -0.09v5.08h-0.85l-0.01 -0.01v-6.01l0.03 -0.14 0.06 -0.1 0.05 -0.05 0.07 -0.06Z"
     fill="#E6E6E6"
     id="path42" />
  <path
     d="M39.37 32.76h0.18l0.1 0.03 0.13 0.09 0.21 0.16 0.21 0.16 0.14 0.1 0.19 0.14 0.18 0.13 0.18 0.13 0.2 0.14 0.2 0.14 0.19 0.13 0.43 0.29 0.22 0.14 0.17 0.11 0.19 0.12 0.21 0.13 0.28 0.17 0.29 0.17 0.24 0.14 0.27 0.15 0.24 0.13 0.22 0.12 0.29 0.15 0.23 0.12 0.36 0.18 0.23 0.11 0.32 0.15 0.36 0.16 0.31 0.14 0.4 0.17 0.46 0.19 0.38 0.15 0.52 0.2 0.46 0.17 0.53 0.19 0.52 0.18 0.62 0.21 0.71 0.23 0.19 0.06 0.02 0.03 -0.13 0.42 -0.12 0.37 -0.03 0.01 -0.71 -0.23 -0.64 -0.21 -0.55 -0.19 -0.54 -0.19 -0.57 -0.21 -0.52 -0.2 -0.65 -0.26 -0.36 -0.15 -0.28 -0.12 -0.41 -0.18 -0.35 -0.16 -0.34 -0.16 -0.35 -0.17 -0.54 -0.27 -0.19 -0.1 -0.28 -0.15 -0.23 -0.13 -0.22 -0.12 -0.24 -0.14 -0.26 -0.15 -0.2 -0.12 -0.23 -0.14 -0.19 -0.12 -0.19 -0.12 -0.22 -0.14 -0.33 -0.22 -0.27 -0.18 -0.19 -0.13 -0.23 -0.16 -0.17 -0.12 -0.18 -0.13 -0.18 -0.13 -0.17 -0.12v5.13h-0.85l-0.01 -0.01v-6.01l0.03 -0.14 0.06 -0.1 0.05 -0.05 0.07 -0.06Z"
     fill="#E6E6E6"
     id="path43" />
  <path
     d="M39.37 48.76h0.18l0.1 0.03 0.1 0.07 0.17 0.16 0.12 0.11 0.12 0.11 0.1 0.09 0.08 0.07 0.1 0.09 0.11 0.09 0.12 0.11 0.11 0.09 0.15 0.13 0.11 0.09 0.11 0.09 0.16 0.13 0.14 0.11 0.18 0.14 0.21 0.16 0.19 0.14 0.18 0.13 0.23 0.16 0.33 0.22 0.17 0.11 0.19 0.12 0.28 0.17 0.26 0.15 0.27 0.15 0.28 0.15 0.39 0.2 0.23 0.11 0.39 0.18 0.44 0.19 0.44 0.18 0.39 0.15 0.49 0.18 0.61 0.21 0.62 0.2 0.56 0.17 0.73 0.21 0.62 0.17 0.76 0.2 0.23 0.06 -0.01 0.1 -0.16 0.63 -0.03 0.1 -0.08 -0.01 -0.7 -0.18 -0.7 -0.19 -0.77 -0.22 -0.53 -0.16 -0.51 -0.16 -0.52 -0.17 -0.48 -0.17 -0.36 -0.13 -0.57 -0.22 -0.41 -0.17 -0.41 -0.18 -0.35 -0.16 -0.35 -0.17 -0.36 -0.18 -0.22 -0.12 -0.26 -0.14 -0.24 -0.14 -0.29 -0.17 -0.24 -0.15 -0.22 -0.14 -0.3 -0.2 -0.16 -0.11 -0.2 -0.14 -0.18 -0.13 -0.19 -0.14 -0.18 -0.14 -0.16 -0.12 -0.16 -0.13 -0.14 -0.11 -0.17 -0.14 -0.13 -0.11 -0.11 -0.09 -0.14 -0.12 -0.14 -0.12 -0.09 -0.08 -0.01 5.02h-0.85l-0.01 -0.01v-6.01l0.03 -0.14 0.06 -0.1 0.05 -0.05 0.07 -0.06Z"
     fill="#E6E6E6"
     id="path44" />
  <path
     d="M39.37 0.76h0.18l0.1 0.03 0.7 0.35 0.23 0.11 3.68 1.84 0.19 0.1 1.48 0.74 0.19 0.1 2.1 1.05 0.19 0.1 0.76 0.38 0.23 0.11 1.5 0.75 0.23 0.11 0.07 0.04 -0.01 0.06 -0.12 0.25 -0.1 0.21 -0.1 0.19 -0.03 0.06 -0.06 -0.01 -1 -0.5 -0.23 -0.11 -2.86 -1.43 -0.19 -0.1 -1.58 -0.79 -0.19 -0.1 -1.64 -0.82 -0.19 -0.1 -2.32 -1.16 -0.23 -0.11 -0.46 -0.23v5.3h-0.85l-0.01 -0.01V1.16l0.03 -0.14 0.06 -0.1 0.05 -0.05 0.07 -0.06Z"
     fill="#E6E6E6"
     id="path45" />
  <path
     d="M39.37 24.76h0.18l0.1 0.03 0.18 0.12 0.19 0.13 0.43 0.29 0.44 0.29 0.2 0.13 0.17 0.11 0.22 0.14 0.24 0.15 0.21 0.13 0.26 0.16 0.32 0.19 0.15 0.09 0.24 0.14 0.26 0.15 0.25 0.14 0.27 0.15 0.24 0.13 0.22 0.12 0.27 0.14 0.19 0.1 0.39 0.2 0.32 0.16 0.23 0.11 0.29 0.14 0.28 0.13 0.37 0.17 0.36 0.16 0.53 0.23 0.43 0.18 0.46 0.19 0.53 0.21 0.49 0.19 0.69 0.26 0.63 0.23 0.48 0.17 0.08 0.03 -0.02 0.09 -0.14 0.41 -0.11 0.3 -0.04 0.01 -0.54 -0.19 -0.57 -0.21 -0.46 -0.17 -0.55 -0.21 -0.56 -0.22 -0.54 -0.22 -0.48 -0.2 -0.44 -0.19 -0.43 -0.19 -0.33 -0.15 -0.26 -0.12 -0.3 -0.14 -0.35 -0.17 -0.23 -0.11 -0.54 -0.27 -0.19 -0.1 -0.27 -0.14 -0.22 -0.12 -0.3 -0.16 -0.23 -0.13 -0.27 -0.15 -0.24 -0.14 -0.28 -0.16 -0.25 -0.15 -0.32 -0.19 -0.16 -0.1 -0.26 -0.16 -0.22 -0.14 -0.19 -0.12 -0.25 -0.16 -0.26 -0.17 -0.44 -0.29 -0.03 -0.02v5.18h-0.85l-0.01 -0.01v-6.01l0.03 -0.14 0.06 -0.1 0.05 -0.05 0.07 -0.06Z"
     fill="#E6E6E6"
     id="path46" />
  <path
     d="M39.37 8.76h0.18l0.1 0.03 0.27 0.15 0.29 0.16 0.29 0.16 0.24 0.13 0.23 0.13 0.34 0.18 0.23 0.13 0.25 0.13 0.22 0.12 0.32 0.17 0.28 0.15 0.34 0.18 0.23 0.12 0.19 0.1 0.23 0.12 0.23 0.12 0.27 0.14 0.33 0.17 0.41 0.21 0.54 0.27 0.19 0.1 0.35 0.17 0.54 0.27 0.23 0.11 0.45 0.22 0.23 0.11 0.34 0.16 0.29 0.14 0.28 0.13 0.36 0.17 0.26 0.12 0.37 0.17 0.35 0.16 0.42 0.19 0.4 0.18 0.36 0.16 0.36 0.16 0.03 0.02 -0.03 0.09 -0.15 0.35 -0.15 0.33 -0.04 0.01 -0.42 -0.19 -0.41 -0.18 -0.35 -0.16 -0.29 -0.13 -0.37 -0.17 -0.33 -0.15 -0.32 -0.15 -0.28 -0.13 -0.34 -0.16 -0.34 -0.16 -0.27 -0.13 -0.23 -0.11 -0.25 -0.12 -0.33 -0.16 -0.35 -0.17 -0.32 -0.16 -0.23 -0.11 -0.7 -0.35 -0.19 -0.1 -0.4 -0.2 -0.19 -0.1 -0.47 -0.24 -0.19 -0.1 -0.27 -0.14 -0.19 -0.1 -0.28 -0.15 -0.27 -0.14 -0.22 -0.12 -0.23 -0.12 -0.22 -0.12 -0.32 -0.17 -0.22 -0.12 -0.24 -0.13 -0.24 -0.13 -0.23 -0.13 -0.28 -0.15 -0.14 -0.08 -0.01 5.26h-0.85l-0.01 -0.01V9.16l0.03 -0.14 0.06 -0.1 0.05 -0.05 0.07 -0.06Z"
     fill="#E6E6E6"
     id="path47" />
  <path
     d="M39.37 16.76h0.18l0.1 0.03 0.21 0.13 0.21 0.13 0.28 0.17 0.28 0.17 0.32 0.19 0.28 0.17 0.26 0.15 0.22 0.13 0.26 0.15 0.28 0.16 0.23 0.13 0.25 0.14 0.23 0.13 0.26 0.14 0.23 0.13 0.25 0.13 0.22 0.12 0.27 0.14 0.19 0.1 0.29 0.15 0.39 0.2 0.6 0.3 0.23 0.11 0.37 0.18 0.28 0.13 0.38 0.18 0.33 0.15 0.35 0.16 0.41 0.18 0.43 0.19 0.35 0.15 0.4 0.17 0.48 0.2 0.44 0.18 1.05 0.42 0.01 0.05 -0.17 0.44 -0.12 0.29 -0.03 0.03 -0.95 -0.38 -0.44 -0.18 -0.41 -0.17 -0.45 -0.19 -0.56 -0.24 -0.43 -0.19 -0.38 -0.17 -0.4 -0.18 -0.41 -0.19 -0.36 -0.17 -0.34 -0.16 -0.51 -0.25 -0.51 -0.25 -0.23 -0.12 -0.3 -0.15 -0.19 -0.1 -0.29 -0.15 -0.22 -0.12 -0.23 -0.12 -0.22 -0.12 -0.26 -0.14 -0.18 -0.1 -0.27 -0.15 -0.25 -0.14 -0.24 -0.14 -0.27 -0.15 -0.17 -0.1 -0.26 -0.15 -0.25 -0.15 -0.24 -0.14 -0.32 -0.19 -0.23 -0.14 -0.18 -0.11 -0.01 5.22h-0.85l-0.01 -0.01v-6.01l0.03 -0.14 0.06 -0.1 0.05 -0.05 0.07 -0.06Z"
     fill="#E6E6E6"
     id="path48" />
</svg>
