<svg width="118" height="456" viewBox="0 0 118 456" fill="none" xmlns="http://www.w3.org/2000/svg">
<path d="M26 0V4H4C1.79086 4 0 5.79086 0 8V110C1.90735e-06 112.209 1.79086 114 4 114H12V112H4C2.89543 112 2 111.105 2 110V53.4629C2.58854 53.8035 3.27107 54 4 54H12V52H4C2.89543 52 2 51.1046 2 50V8C2 6.89543 2.89543 6 4 6H26V10H28V0H26Z" fill="white"/>
<path d="M56 114V118H4C1.79086 118 0 119.791 0 122V224C0 226.209 1.79086 228 4 228H12V226H4C2.89543 226 2 225.105 2 224V167.463C2.58854 167.804 3.27107 168 4 168H12V166H4C2.89543 166 2 165.105 2 164V122C2 120.895 2.89543 120 4 120H56V124H58V114H56Z" fill="white"/>
<path d="M86 228V232H4C1.79086 232 0 233.791 0 236V338C0 340.209 1.79086 342 4 342H12V340H4C2.89543 340 2 339.105 2 338V281.463C2.58854 281.804 3.27107 282 4 282H12V280H4C2.89543 280 2 279.105 2 278V236C2 234.895 2.89543 234 4 234H86V238H88V228H86Z" fill="white"/>
<path d="M116 342V346H4C1.79086 346 0 347.791 0 350V452C0 454.209 1.79086 456 4 456H12V454H4C2.89543 454 2 453.105 2 452V395.463C2.58854 395.804 3.27107 396 4 396H12V394H4C2.89543 394 2 393.105 2 392V350C2 348.895 2.89543 348 4 348H116V352H118V342H116Z" fill="white"/>
</svg>
