<svg width="14" height="400" viewBox="0 0 14 400" fill="none" xmlns="http://www.w3.org/2000/svg">
<path d="M1 313H2.94049V318H13V319H1.97V314H2V319H1V313Z" fill="#e6e6e6"/>
<path d="M1 305H3.08839V310H13V311H2.1V306H2V311H1V305Z" fill="#e6e6e6"/>
<path d="M1 297H3.21153V302H13V303H2.23V298H2V303H1V297Z" fill="#e6e6e6"/>
<path d="M1 281H3.48891V286H13V287H2.5V282H2V287H1V281Z" fill="#e6e6e6"/>
<path d="M1 273H3.62281V278H13V279H2.63V274H2V279H1V273Z" fill="#e6e6e6"/>
<path d="M1 265H3.76844V270H13V271H2.76V266H2V271H1V265Z" fill="#e6e6e6"/>
<path d="M1 249H4.03062V254H13V255H3.03V250H2V255H1V249Z" fill="#e6e6e6"/>
<path d="M1 241H4.11766V246H13V247H3.16V242H2V247H1V241Z" fill="#e6e6e6"/>
<path d="M1 233H4.34141V238H13V239H3.29V234H2V239H1V233Z" fill="#e6e6e6"/>
<path d="M1 217H4.56453V222H13V223H3.56V218H2V223H1V217Z" fill="#e6e6e6"/>
<path d="M1 209H4.72969V214H13V215H3.69V210H2V215H1V209Z" fill="#e6e6e6"/>
<path d="M1 201H4.81281V206H13V207H3.82V202H2V207H1V201Z" fill="#e6e6e6"/>
<path d="M1 193H4.93891V198H13V199H3.95V194H2V199H1V193Z" fill="#e6e6e6"/>
<path d="M1 177H5.22844V182H13V183H4.22V178H2V183H1V177Z" fill="#e6e6e6"/>
<path d="M1 169H5.37406V174H13V175H4.35V170H2V175H1V169Z" fill="#e6e6e6"/>
<path d="M1 161H5.57437V166H13V167H4.48V162H2V167H1V161Z" fill="#e6e6e6"/>
<path d="M1 145H5.78969V150H13V151H4.75V146H2V151H1V145Z" fill="#e6e6e6"/>
<path d="M1 137H5.87281V142H13V143H4.88V138H2V143H1V137Z" fill="#e6e6e6"/>
<path d="M1 129H6V134H13V135H5.01V130H2V135H1V129Z" fill="#e6e6e6"/>
<path d="M1 113H6.27258V118H13V119H5.28V114.011L2 114V119H1V113Z" fill="#e6e6e6"/>
<path d="M1 105H6.46933V110H13V111H5.41V106H2V111H1V105Z" fill="#e6e6e6"/>
<path d="M1 97H6.57188V102H13V103H5.54V98H2V103H1V97Z" fill="#e6e6e6"/>
<path d="M1 81H6.81363V86H13V87H5.81V82H2V87H1V81Z" fill="#e6e6e6"/>
<path d="M1 73H6.94363V78H13V79H5.94V74H2V79H1V73Z" fill="#e6e6e6"/>
<path d="M1 65H7.07363V70H13V71H6.08119L6.07 66H2V71H1V65Z" fill="#e6e6e6"/>
<path d="M1 49H7.31601V54H13V55H6.34V50H2V55H1V49Z" fill="#e6e6e6"/>
<path d="M1 41H7.52335V46H13V47H6.47V42H2V47H1V41Z" fill="#e6e6e6"/>
<path d="M1 33H7.61468V38H13V39H6.6V34H2V39L1.09 38.99L1 39V33Z" fill="#e6e6e6"/>
<path d="M1 25H7.76187V30H13V31H6.73V26H2V31H1V25Z" fill="#e6e6e6"/>
<path d="M1 9H8V14H13V15H7V10H2V15H1V9Z" fill="#e6e6e6"/>
<path d="M1 1H8.10048V6H13V7H7.13V2H2V7H1V1Z" fill="#e6e6e6"/>
<path d="M1 225H4.48312V230H13V231H3.43H3.42V226H2V231H1V225Z" fill="#e6e6e6"/>
<path d="M1 185H5.08063H5.09062V190H13V191H4.09V186H2V191H1V185Z" fill="#e6e6e6"/>
<path d="M1 153H5.62625H5.63625V158H13V159H4.62V154H2V159H1V153Z" fill="#e6e6e6"/>
<path d="M1 57H7.17049V62H13V63H6.21H6.2V58H2V63H1V57Z" fill="#e6e6e6"/>
<path d="M1 17H7.84153H7.85153V22H13V23H6.87V18H2V23H1V17Z" fill="#e6e6e6"/>
<path d="M1 289H3.34706L3.35706 294H13V295H2.37L2.36 290H2V295H1V289Z" fill="#e6e6e6"/>
<path d="M1 121H6.15468L6.16468 126H13V127H5.15L5.14 122H2V127H1V121Z" fill="#e6e6e6"/>
<path d="M1 257H3.85547V262H13V263H2.9L2.89 258H2V263H1V257Z" fill="#e6e6e6"/>
<path d="M1 89H6.67062V94H13V95H5.68L5.67 90H2V95H1V89Z" fill="#e6e6e6"/>
<path d="M1 321H2.80049H2.81049V326H13V327H1.93H1V321Z" fill="#e6e6e6"/>
<path d="M1 329H2.64286V334H13V335H1.93H1V329Z" fill="#e6e6e6"/>
<path d="M1 337H2.49077V342H13V343H1.93H1V337Z" fill="#e6e6e6"/>
<path d="M1 345H2.3V350H13V351H1.93C1.62035 350.986 1.30863 350.999 1 351V345Z" fill="#e6e6e6"/>
<path d="M1 353H2.16H2.17V358H13V359H2L1.09 358.99L1 359V353Z" fill="#e6e6e6"/>
<path d="M1 361H2.03V366H13V367H1.93H1V361Z" fill="#e6e6e6"/>
<path d="M1 370H2V374H13V375H2H1V370Z" fill="#e6e6e6"/>
<path d="M1 379H2V382H13V383H2H1V379Z" fill="#e6e6e6"/>
<path d="M1 389H1.93H2V390H13V391H2H1V389Z" fill="#e6e6e6"/>
<path d="M1 398H13V399H1.93H1V398Z" fill="#e6e6e6"/>
</svg>
