<svg width="90" height="124" viewBox="0 0 90 124" fill="none" xmlns="http://www.w3.org/2000/svg">
<rect width="90" height="31" fill="black" fill-opacity="0.01"/>
<path d="M26.139 21.488V21.776H24.667V18.768V18.032L25.403 16.752L26.139 18.048V18.768V21.488ZM21.483 8.496L21.979 8H28.827L29.323 8.496L28.347 9.488H28.315H26.139H24.667H22.491H22.459L21.483 8.496ZM24.667 10.224H26.139V13.232V13.968L25.403 15.264L24.667 14V13.232V10.224ZM29.323 23.504L28.827 24H21.979L21.483 23.504L22.459 22.512H22.491H24.667H26.139H28.315H28.347L29.323 23.504ZM28.859 17.264L29.755 16.368H30.347V22.48L29.851 22.976L28.859 22V21.776V20.512V17.264ZM29.851 9.024L30.347 9.52V15.632H29.755L28.859 14.736V14.288V11.488V10.224V10.016L29.851 9.024ZM28.347 15.264L29.083 16L28.347 16.736H28.123H26.891H26.251L25.819 16.016L26.267 15.264H26.683H28.347ZM34.5455 8.496L35.0415 8H41.8895L42.3855 8.496L41.4095 9.488H41.3775H39.2015H37.7295H35.5535H35.5215L34.5455 8.496ZM34.0175 22.976L33.5215 22.48V16.368H34.1135L34.2575 16.528L35.0095 17.264V20.512V21.776V22L34.0175 22.976ZM42.3855 23.504L41.8895 24H35.0415L34.5455 23.504L35.5215 22.512H35.5535H37.7295H39.2015H41.3775H41.4095L42.3855 23.504ZM41.9215 17.264L42.8175 16.368H43.4095V22.48L42.9135 22.976L41.9215 22V21.776V20.512V17.264ZM42.9135 9.024L43.4095 9.52V15.632H42.8175L41.9215 14.736V14.288V11.488V10.224V10.016L42.9135 9.024ZM35.0095 14.736L34.1135 15.632H33.5215V9.52L34.0175 9.024L35.0095 10V10.224V11.488V14.736ZM52.264 21.488V21.776H50.792V18.768V18.032L51.528 16.752L52.264 18.048V18.768V21.488ZM47.608 8.496L48.104 8H54.952L55.448 8.496L54.472 9.488H54.44H52.264H50.792H48.616H48.584L47.608 8.496ZM50.792 10.224H52.264V13.232V13.968L51.528 15.264L50.792 14V13.232V10.224ZM61.6465 16.736L60.9105 16L61.6465 15.264H63.3105H63.7265L64.1585 16.016L63.7265 16.736H61.8705H61.6465ZM60.1425 22.976L59.6465 22.48V16.368H60.2385L60.3825 16.528L61.1345 17.264V20.512V21.776V22L60.1425 22.976ZM68.0465 17.264L68.9425 16.368H69.5345V22.48L69.0385 22.976L68.0465 22V21.776V20.512V17.264ZM69.0385 9.024L69.5345 9.52V15.632H68.9425L68.0465 14.736V14.288V11.488V10.224V10.016L69.0385 9.024ZM61.1345 14.736L60.2385 15.632H59.6465V9.52L60.1425 9.024L61.1345 10V10.224V11.488V14.736ZM67.5345 15.264L68.2705 16L67.5345 16.736H67.3105H66.0785H65.4385L65.0065 16.016L65.4545 15.264H65.8705H67.5345Z" fill="#FF0000"/>
<rect y="31" width="90" height="31" fill="black" fill-opacity="0.01"/>
<path d="M9.3965 47.736L8.6605 47L9.3965 46.264H11.0605H11.4765L11.9085 47.016L11.4765 47.736H9.6205H9.3965ZM8.4205 39.496L8.9165 39H15.7645L16.2605 39.496L15.2845 40.488H15.2525H13.0765H11.6045H9.4285H9.3965L8.4205 39.496ZM7.8925 53.976L7.3965 53.48V47.368H7.9885L8.1325 47.528L8.8845 48.264V51.512V52.776V53L7.8925 53.976ZM8.8845 45.736L7.9885 46.632H7.3965V40.52L7.8925 40.024L8.8845 41V41.224V42.488V45.736ZM15.2845 46.264L16.0205 47L15.2845 47.736H15.0605H13.8285H13.1885L12.7565 47.016L13.2045 46.264H13.6205H15.2845ZM26.139 52.488V52.776H24.667V49.768V49.032L25.403 47.752L26.139 49.048V49.768V52.488ZM21.483 39.496L21.979 39H28.827L29.323 39.496L28.347 40.488H28.315H26.139H24.667H22.491H22.459L21.483 39.496ZM24.667 41.224H26.139V44.232V44.968L25.403 46.264L24.667 45V44.232V41.224ZM29.323 54.504L28.827 55H21.979L21.483 54.504L22.459 53.512H22.491H24.667H26.139H28.315H28.347L29.323 54.504ZM34.0175 53.976L33.5215 53.48V47.368H34.1135L34.2575 47.528L35.0095 48.264V51.512V52.776V53L34.0175 53.976ZM42.3855 54.504L41.8895 55H35.0415L34.5455 54.504L35.5215 53.512H35.5535H37.7295H39.2015H41.3775H41.4095L42.3855 54.504ZM35.0095 45.736L34.1135 46.632H33.5215V40.52L34.0175 40.024L35.0095 41V41.224V42.488V45.736ZM52.264 52.488V52.776H50.792V49.768V49.032L51.528 47.752L52.264 49.048V49.768V52.488ZM47.608 39.496L48.104 39H54.952L55.448 39.496L54.472 40.488H54.44H52.264H50.792H48.616H48.584L47.608 39.496ZM50.792 41.224H52.264V44.232V44.968L51.528 46.264L50.792 45V44.232V41.224ZM61.6465 47.736L60.9105 47L61.6465 46.264H63.3105H63.7265L64.1585 47.016L63.7265 47.736H61.8705H61.6465ZM60.6705 39.496L61.1665 39H68.0145L68.5105 39.496L67.5345 40.488H67.5025H65.3265H63.8545H61.6785H61.6465L60.6705 39.496ZM60.1425 53.976L59.6465 53.48V47.368H60.2385L60.3825 47.528L61.1345 48.264V51.512V52.776V53L60.1425 53.976ZM68.5105 54.504L68.0145 55H61.1665L60.6705 54.504L61.6465 53.512H61.6785H63.8545H65.3265H67.5025H67.5345L68.5105 54.504ZM61.1345 45.736L60.2385 46.632H59.6465V40.52L60.1425 40.024L61.1345 41V41.224V42.488V45.736ZM67.5345 46.264L68.2705 47L67.5345 47.736H67.3105H66.0785H65.4385L65.0065 47.016L65.4545 46.264H65.8705H67.5345ZM74.709 47.736L73.973 47L74.709 46.264H76.373H76.789L77.221 47.016L76.789 47.736H74.933H74.709ZM73.733 39.496L74.229 39H81.077L81.573 39.496L80.597 40.488H80.565H78.389H76.917H74.741H74.709L73.733 39.496ZM79.141 48.488H79.365L80.373 50.232V52.776H80.133L79.141 51.048V48.488ZM73.205 53.976L72.709 53.48V47.368H73.301L73.445 47.528L74.197 48.264V51.512V52.776V53L73.205 53.976ZM82.101 40.024L82.597 40.52V46.632H82.005L81.109 45.736V45.288V42.488V41.224V41.016L82.101 40.024ZM74.197 45.736L73.301 46.632H72.709V40.52L73.205 40.024L74.197 41V41.224V42.488V45.736ZM80.597 46.264L81.333 47L80.597 47.736H80.373H79.141H78.501L78.069 47.016L78.517 46.264H78.933H80.597Z" fill="#FF0000"/>
<rect y="62" width="90" height="31" fill="black" fill-opacity="0.01"/>
<path d="M35.5215 78.736L34.7855 78L35.5215 77.264H37.1855H37.6015L38.0335 78.016L37.6015 78.736H35.7455H35.5215ZM34.5455 70.496L35.0415 70H41.8895L42.3855 70.496L41.4095 71.488H41.3775H39.2015H37.7295H35.5535H35.5215L34.5455 70.496ZM34.0175 84.976L33.5215 84.48V78.368H34.1135L34.2575 78.528L35.0095 79.264V82.512V83.776V84L34.0175 84.976ZM41.9215 79.264L42.8175 78.368H43.4095V84.48L42.9135 84.976L41.9215 84V83.776V82.512V79.264ZM42.9135 71.024L43.4095 71.52V77.632H42.8175L41.9215 76.736V76.288V73.488V72.224V72.016L42.9135 71.024ZM35.0095 76.736L34.1135 77.632H33.5215V71.52L34.0175 71.024L35.0095 72V72.224V73.488V76.736ZM41.4095 77.264L42.1455 78L41.4095 78.736H41.1855H39.9535H39.3135L38.8815 78.016L39.3295 77.264H39.7455H41.4095ZM52.264 83.488V83.776H50.792V80.768V80.032L51.528 78.752L52.264 80.048V80.768V83.488ZM50.04 76.512H49.816L48.808 74.768V72.224H49.048L50.04 73.952V76.512ZM47.08 84.976L46.584 84.48V78.368H47.176L47.32 78.528L48.072 79.264V82.512V83.776V84L47.08 84.976ZM54.984 79.264L55.88 78.368H56.472V84.48L55.976 84.976L54.984 84V83.776V82.512V79.264ZM55.976 71.024L56.472 71.52V77.632H55.88L54.984 76.736V76.288V73.488V72.224V72.016L55.976 71.024ZM54.008 72.224H54.248V74.768L53.24 76.512H53.016V73.952L54.008 72.224ZM48.072 76.736L47.176 77.632H46.584V71.52L47.08 71.024L48.072 72V72.224V73.488V76.736ZM61.6465 78.736L60.9105 78L61.6465 77.264H63.3105H63.7265L64.1585 78.016L63.7265 78.736H61.8705H61.6465ZM60.6705 70.496L61.1665 70H68.0145L68.5105 70.496L67.5345 71.488H67.5025H65.3265H63.8545H61.6785H61.6465L60.6705 70.496ZM60.1425 84.976L59.6465 84.48V78.368H60.2385L60.3825 78.528L61.1345 79.264V82.512V83.776V84L60.1425 84.976ZM69.0385 71.024L69.5345 71.52V77.632H68.9425L68.0465 76.736V76.288V73.488V72.224V72.016L69.0385 71.024ZM61.1345 76.736L60.2385 77.632H59.6465V71.52L60.1425 71.024L61.1345 72V72.224V73.488V76.736ZM67.5345 77.264L68.2705 78L67.5345 78.736H67.3105H66.0785H65.4385L65.0065 78.016L65.4545 77.264H65.8705H67.5345Z" fill="#FF0000"/>
<rect y="93" width="90" height="31" fill="black" fill-opacity="0.01"/>
<path d="M9.3965 109.736L8.6605 109L9.3965 108.264H11.0605H11.4765L11.9085 109.016L11.4765 109.736H9.6205H9.3965ZM8.4205 101.496L8.9165 101H15.7645L16.2605 101.496L15.2845 102.488H15.2525H13.0765H11.6045H9.4285H9.3965L8.4205 101.496ZM13.8285 110.488H14.0525L15.0605 112.232V114.776H14.8205L13.8285 113.048V110.488ZM7.8925 115.976L7.3965 115.48V109.368H7.9885L8.1325 109.528L8.8845 110.264V113.512V114.776V115L7.8925 115.976ZM16.7885 102.024L17.2845 102.52V108.632H16.6925L15.7965 107.736V107.288V104.488V103.224V103.016L16.7885 102.024ZM8.8845 107.736L7.9885 108.632H7.3965V102.52L7.8925 102.024L8.8845 103V103.224V104.488V107.736ZM15.2845 108.264L16.0205 109L15.2845 109.736H15.0605H13.8285H13.1885L12.7565 109.016L13.2045 108.264H13.6205H15.2845ZM22.459 109.736L21.723 109L22.459 108.264H24.123H24.539L24.971 109.016L24.539 109.736H22.683H22.459ZM21.483 101.496L21.979 101H28.827L29.323 101.496L28.347 102.488H28.315H26.139H24.667H22.491H22.459L21.483 101.496ZM20.955 115.976L20.459 115.48V109.368H21.051L21.195 109.528L21.947 110.264V113.512V114.776V115L20.955 115.976ZM29.323 116.504L28.827 117H21.979L21.483 116.504L22.459 115.512H22.491H24.667H26.139H28.315H28.347L29.323 116.504ZM21.947 107.736L21.051 108.632H20.459V102.52L20.955 102.024L21.947 103V103.224V104.488V107.736ZM28.347 108.264L29.083 109L28.347 109.736H28.123H26.891H26.251L25.819 109.016L26.267 108.264H26.683H28.347ZM39.2015 114.488V114.776H37.7295V111.768V111.032L38.4655 109.752L39.2015 111.048V111.768V114.488ZM34.5455 101.496L35.0415 101H41.8895L42.3855 101.496L41.4095 102.488H41.3775H39.2015H37.7295H35.5535H35.5215L34.5455 101.496ZM37.7295 103.224H39.2015V106.232V106.968L38.4655 108.264L37.7295 107V106.232V103.224ZM48.584 109.736L47.848 109L48.584 108.264H50.248H50.664L51.096 109.016L50.664 109.736H48.808H48.584ZM47.608 101.496L48.104 101H54.952L55.448 101.496L54.472 102.488H54.44H52.264H50.792H48.616H48.584L47.608 101.496ZM53.016 110.488H53.24L54.248 112.232V114.776H54.008L53.016 113.048V110.488ZM47.08 115.976L46.584 115.48V109.368H47.176L47.32 109.528L48.072 110.264V113.512V114.776V115L47.08 115.976ZM55.976 102.024L56.472 102.52V108.632H55.88L54.984 107.736V107.288V104.488V103.224V103.016L55.976 102.024ZM48.072 107.736L47.176 108.632H46.584V102.52L47.08 102.024L48.072 103V103.224V104.488V107.736ZM54.472 108.264L55.208 109L54.472 109.736H54.248H53.016H52.376L51.944 109.016L52.392 108.264H52.808H54.472ZM65.3265 114.488V114.776H63.8545V111.768V111.032L64.5905 109.752L65.3265 111.048V111.768V114.488ZM60.6705 101.496L61.1665 101H68.0145L68.5105 101.496L67.5345 102.488H67.5025H65.3265H63.8545H61.6785H61.6465L60.6705 101.496ZM63.8545 103.224H65.3265V106.232V106.968L64.5905 108.264L63.8545 107V106.232V103.224ZM68.5105 116.504L68.0145 117H61.1665L60.6705 116.504L61.6465 115.512H61.6785H63.8545H65.3265H67.5025H67.5345L68.5105 116.504ZM73.733 101.496L74.229 101H81.077L81.573 101.496L80.597 102.488H80.565H78.389H76.917H74.741H74.709L73.733 101.496ZM73.205 115.976L72.709 115.48V109.368H73.301L73.445 109.528L74.197 110.264V113.512V114.776V115L73.205 115.976ZM81.573 116.504L81.077 117H74.229L73.733 116.504L74.709 115.512H74.741H76.917H78.389H80.565H80.597L81.573 116.504ZM81.109 110.264L82.005 109.368H82.597V115.48L82.101 115.976L81.109 115V114.776V113.512V110.264ZM74.197 107.736L73.301 108.632H72.709V102.52L73.205 102.024L74.197 103V103.224V104.488V107.736ZM80.597 108.264L81.333 109L80.597 109.736H80.373H79.141H78.501L78.069 109.016L78.517 108.264H78.933H80.597Z" fill="#FF0000"/>
</svg>
