<svg width="90" height="589" viewBox="0 0 90 589" fill="none" xmlns="http://www.w3.org/2000/svg">
<path d="M0 0H90V31H0V0Z" fill="black" fill-opacity="0.01"/>
<rect y="31" width="90" height="31" fill="black" fill-opacity="0.01"/>
<path d="M22.459 47.736L21.723 47L22.459 46.264H24.123H24.539L24.971 47.016L24.539 47.736H22.683H22.459ZM21.483 39.496L21.979 39H28.827L29.323 39.496L28.347 40.488H28.315H26.139H24.667H22.491H22.459L21.483 39.496ZM20.955 53.976L20.459 53.48V47.368H21.051L21.195 47.528L21.947 48.264V51.512V52.776V53L20.955 53.976ZM28.859 48.264L29.755 47.368H30.347V53.48L29.851 53.976L28.859 53V52.776V51.512V48.264ZM29.851 40.024L30.347 40.52V46.632H29.755L28.859 45.736V45.288V42.488V41.224V41.016L29.851 40.024ZM21.947 45.736L21.051 46.632H20.459V40.52L20.955 40.024L21.947 41V41.224V42.488V45.736ZM28.347 46.264L29.083 47L28.347 47.736H28.123H26.891H26.251L25.819 47.016L26.267 46.264H26.683H28.347ZM39.2015 52.488V52.776H37.7295V49.768V49.032L38.4655 47.752L39.2015 49.048V49.768V52.488ZM34.5455 39.496L35.0415 39H41.8895L42.3855 39.496L41.4095 40.488H41.3775H39.2015H37.7295H35.5535H35.5215L34.5455 39.496ZM37.7295 41.224H39.2015V44.232V44.968L38.4655 46.264L37.7295 45V44.232V41.224ZM52.264 52.488V52.776H50.792V49.768V49.032L51.528 47.752L52.264 49.048V49.768V52.488ZM50.04 45.512H49.816L48.808 43.768V41.224H49.048L50.04 42.952V45.512ZM47.08 53.976L46.584 53.48V47.368H47.176L47.32 47.528L48.072 48.264V51.512V52.776V53L47.08 53.976ZM54.984 48.264L55.88 47.368H56.472V53.48L55.976 53.976L54.984 53V52.776V51.512V48.264ZM55.976 40.024L56.472 40.52V46.632H55.88L54.984 45.736V45.288V42.488V41.224V41.016L55.976 40.024ZM54.008 41.224H54.248V43.768L53.24 45.512H53.016V42.952L54.008 41.224ZM48.072 45.736L47.176 46.632H46.584V40.52L47.08 40.024L48.072 41V41.224V42.488V45.736ZM60.6705 39.496L61.1665 39H68.0145L68.5105 39.496L67.5345 40.488H67.5025H65.3265H63.8545H61.6785H61.6465L60.6705 39.496ZM60.1425 53.976L59.6465 53.48V47.368H60.2385L60.3825 47.528L61.1345 48.264V51.512V52.776V53L60.1425 53.976ZM68.5105 54.504L68.0145 55H61.1665L60.6705 54.504L61.6465 53.512H61.6785H63.8545H65.3265H67.5025H67.5345L68.5105 54.504ZM68.0465 48.264L68.9425 47.368H69.5345V53.48L69.0385 53.976L68.0465 53V52.776V51.512V48.264ZM69.0385 40.024L69.5345 40.52V46.632H68.9425L68.0465 45.736V45.288V42.488V41.224V41.016L69.0385 40.024ZM61.1345 45.736L60.2385 46.632H59.6465V40.52L60.1425 40.024L61.1345 41V41.224V42.488V45.736Z" fill="#FF0000"/>
<path d="M0 62H90V93H0V62Z" fill="black" fill-opacity="0.01"/>
<path d="M13.0765 83.776H11.6045V80.032L12.3405 78.752L13.0765 80.048V83.776ZM8.4205 70.496L8.9165 70H15.7645L16.2605 70.496L15.2845 71.488H9.3965L8.4205 70.496ZM11.6045 72.224H13.0765V75.968L12.3405 77.264L11.6045 76V72.224ZM16.2605 85.504L15.7645 86H8.9165L8.4205 85.504L9.3965 84.512H15.2845L16.2605 85.504ZM15.7965 79.264L16.6925 78.368H17.2845V84.48L16.7885 84.976L15.7965 84V79.264ZM16.7885 71.024L17.2845 71.52V77.632H16.6925L15.7965 76.736V72.016L16.7885 71.024ZM15.2845 77.264L16.0205 78L15.2845 78.736H13.1885L12.7565 78.016L13.2045 77.264H15.2845Z" fill="#FF0000"/>
<path d="M22.459 78.736L21.723 78L22.459 77.264H24.539L24.971 78.016L24.539 78.736H22.459ZM21.483 70.496L21.979 70H28.827L29.323 70.496L28.347 71.488H22.459L21.483 70.496ZM20.955 84.976L20.459 84.48V78.368H21.051L21.195 78.528L21.947 79.264V84L20.955 84.976ZM28.859 79.264L29.755 78.368H30.347V84.48L29.851 84.976L28.859 84V79.264ZM29.851 71.024L30.347 71.52V77.632H29.755L28.859 76.736V72.016L29.851 71.024ZM21.947 76.736L21.051 77.632H20.459V71.52L20.955 71.024L21.947 72V76.736ZM28.347 77.264L29.083 78L28.347 78.736H26.251L25.819 78.016L26.267 77.264H28.347Z" fill="#FF0000"/>
<path d="M35.5215 78.736L34.7855 78L35.5215 77.264H37.6015L38.0335 78.016L37.6015 78.736H35.5215ZM34.5455 70.496L35.0415 70H41.8895L42.3855 70.496L41.4095 71.488H35.5215L34.5455 70.496ZM42.3855 85.504L41.8895 86H35.0415L34.5455 85.504L35.5215 84.512H41.4095L42.3855 85.504ZM41.9215 79.264L42.8175 78.368H43.4095V84.48L42.9135 84.976L41.9215 84V79.264ZM35.0095 76.736L34.1135 77.632H33.5215V71.52L34.0175 71.024L35.0095 72V76.736ZM41.4095 77.264L42.1455 78L41.4095 78.736H39.3135L38.8815 78.016L39.3295 77.264H41.4095Z" fill="#FF0000"/>
<path d="M48.584 78.736L47.848 78L48.584 77.264H50.664L51.096 78.016L50.664 78.736H48.584ZM47.608 70.496L48.104 70H54.952L55.448 70.496L54.472 71.488H48.584L47.608 70.496ZM55.448 85.504L54.952 86H48.104L47.608 85.504L48.584 84.512H54.472L55.448 85.504ZM54.984 79.264L55.88 78.368H56.472V84.48L55.976 84.976L54.984 84V79.264ZM48.072 76.736L47.176 77.632H46.584V71.52L47.08 71.024L48.072 72V76.736ZM54.472 77.264L55.208 78L54.472 78.736H52.376L51.944 78.016L52.392 77.264H54.472Z" fill="#FF0000"/>
<path d="M61.6465 78.736L60.9105 78L61.6465 77.264H63.7265L64.1585 78.016L63.7265 78.736H61.6465ZM60.6705 70.496L61.1665 70H68.0145L68.5105 70.496L67.5345 71.488H61.6465L60.6705 70.496ZM60.1425 84.976L59.6465 84.48V78.368H60.2385L60.3825 78.528L61.1345 79.264V84L60.1425 84.976ZM68.5105 85.504L68.0145 86H61.1665L60.6705 85.504L61.6465 84.512H67.5345L68.5105 85.504ZM61.1345 76.736L60.2385 77.632H59.6465V71.52L60.1425 71.024L61.1345 72V76.736ZM67.5345 77.264L68.2705 78L67.5345 78.736H65.4385L65.0065 78.016L65.4545 77.264H67.5345Z" fill="#FF0000"/>
<path d="M74.709 78.736L73.973 78L74.709 77.264H76.789L77.221 78.016L76.789 78.736H74.709ZM73.733 70.496L74.229 70H81.077L81.573 70.496L80.597 71.488H74.709L73.733 70.496ZM81.573 85.504L81.077 86H74.229L73.733 85.504L74.709 84.512H80.597L81.573 85.504ZM81.109 79.264L82.005 78.368H82.597V84.48L82.101 84.976L81.109 84V79.264ZM74.197 76.736L73.301 77.632H72.709V71.52L73.205 71.024L74.197 72V76.736ZM80.597 77.264L81.333 78L80.597 78.736H78.501L78.069 78.016L78.517 77.264H80.597Z" fill="#FF0000"/>
<path d="M0 93H90V124H0V93Z" fill="black" fill-opacity="0.01"/>
<path d="M13.0765 114.776H11.6045V111.032L12.3405 109.752L13.0765 111.048V114.776ZM8.4205 101.496L8.9165 101H15.7645L16.2605 101.496L15.2845 102.488H9.3965L8.4205 101.496ZM11.6045 103.224H13.0765V106.968L12.3405 108.264L11.6045 107V103.224ZM16.2605 116.504L15.7645 117H8.9165L8.4205 116.504L9.3965 115.512H15.2845L16.2605 116.504ZM15.7965 110.264L16.6925 109.368H17.2845V115.48L16.7885 115.976L15.7965 115V110.264ZM16.7885 102.024L17.2845 102.52V108.632H16.6925L15.7965 107.736V103.016L16.7885 102.024ZM15.2845 108.264L16.0205 109L15.2845 109.736H13.1885L12.7565 109.016L13.2045 108.264H15.2845Z" fill="#FF0000"/>
<path d="M22.459 109.736L21.723 109L22.459 108.264H24.539L24.971 109.016L24.539 109.736H22.459ZM21.483 101.496L21.979 101H28.827L29.323 101.496L28.347 102.488H22.459L21.483 101.496ZM26.891 110.488H27.115L28.123 112.232V114.776H27.883L26.891 113.048V110.488ZM20.955 115.976L20.459 115.48V109.368H21.051L21.195 109.528L21.947 110.264V115L20.955 115.976ZM29.851 102.024L30.347 102.52V108.632H29.755L28.859 107.736V103.016L29.851 102.024ZM21.947 107.736L21.051 108.632H20.459V102.52L20.955 102.024L21.947 103V107.736ZM28.347 108.264L29.083 109L28.347 109.736H26.251L25.819 109.016L26.267 108.264H28.347Z" fill="#FF0000"/>
<path d="M35.5215 109.736L34.7855 109L35.5215 108.264H37.6015L38.0335 109.016L37.6015 109.736H35.5215ZM34.5455 101.496L35.0415 101H41.8895L42.3855 101.496L41.4095 102.488H35.5215L34.5455 101.496ZM34.0175 115.976L33.5215 115.48V109.368H34.1135L34.2575 109.528L35.0095 110.264V115L34.0175 115.976ZM41.9215 110.264L42.8175 109.368H43.4095V115.48L42.9135 115.976L41.9215 115V110.264ZM42.9135 102.024L43.4095 102.52V108.632H42.8175L41.9215 107.736V103.016L42.9135 102.024ZM35.0095 107.736L34.1135 108.632H33.5215V102.52L34.0175 102.024L35.0095 103V107.736ZM41.4095 108.264L42.1455 109L41.4095 109.736H39.3135L38.8815 109.016L39.3295 108.264H41.4095Z" fill="#FF0000"/>
<path d="M48.584 109.736L47.848 109L48.584 108.264H50.664L51.096 109.016L50.664 109.736H48.584ZM47.608 101.496L48.104 101H54.952L55.448 101.496L54.472 102.488H48.584L47.608 101.496ZM55.448 116.504L54.952 117H48.104L47.608 116.504L48.584 115.512H54.472L55.448 116.504ZM54.984 110.264L55.88 109.368H56.472V115.48L55.976 115.976L54.984 115V110.264ZM48.072 107.736L47.176 108.632H46.584V102.52L47.08 102.024L48.072 103V107.736ZM54.472 108.264L55.208 109L54.472 109.736H52.376L51.944 109.016L52.392 108.264H54.472Z" fill="#FF0000"/>
<path d="M61.6465 109.736L60.9105 109L61.6465 108.264H63.7265L64.1585 109.016L63.7265 109.736H61.6465ZM60.6705 101.496L61.1665 101H68.0145L68.5105 101.496L67.5345 102.488H61.6465L60.6705 101.496ZM68.5105 116.504L68.0145 117H61.1665L60.6705 116.504L61.6465 115.512H67.5345L68.5105 116.504ZM68.0465 110.264L68.9425 109.368H69.5345V115.48L69.0385 115.976L68.0465 115V110.264ZM61.1345 107.736L60.2385 108.632H59.6465V102.52L60.1425 102.024L61.1345 103V107.736ZM67.5345 108.264L68.2705 109L67.5345 109.736H65.4385L65.0065 109.016L65.4545 108.264H67.5345Z" fill="#FF0000"/>
<path d="M0 124H90V155H0V124Z" fill="black" fill-opacity="0.01"/>
<path d="M13.0765 145.776H11.6045V142.032L12.3405 140.752L13.0765 142.048V145.776ZM8.4205 132.496L8.9165 132H15.7645L16.2605 132.496L15.2845 133.488H9.3965L8.4205 132.496ZM11.6045 134.224H13.0765V137.968L12.3405 139.264L11.6045 138V134.224ZM16.2605 147.504L15.7645 148H8.9165L8.4205 147.504L9.3965 146.512H15.2845L16.2605 147.504ZM15.7965 141.264L16.6925 140.368H17.2845V146.48L16.7885 146.976L15.7965 146V141.264ZM16.7885 133.024L17.2845 133.52V139.632H16.6925L15.7965 138.736V134.016L16.7885 133.024ZM15.2845 139.264L16.0205 140L15.2845 140.736H13.1885L12.7565 140.016L13.2045 139.264H15.2845Z" fill="#FF0000"/>
<path d="M22.459 140.736L21.723 140L22.459 139.264H24.539L24.971 140.016L24.539 140.736H22.459ZM21.483 132.496L21.979 132H28.827L29.323 132.496L28.347 133.488H22.459L21.483 132.496ZM20.955 146.976L20.459 146.48V140.368H21.051L21.195 140.528L21.947 141.264V146L20.955 146.976ZM29.323 147.504L28.827 148H21.979L21.483 147.504L22.459 146.512H28.347L29.323 147.504ZM21.947 138.736L21.051 139.632H20.459V133.52L20.955 133.024L21.947 134V138.736ZM28.347 139.264L29.083 140L28.347 140.736H26.251L25.819 140.016L26.267 139.264H28.347Z" fill="#FF0000"/>
<path d="M34.0175 146.976L33.5215 146.48V140.368H34.1135L34.2575 140.528L35.0095 141.264V146L34.0175 146.976ZM42.3855 147.504L41.8895 148H35.0415L34.5455 147.504L35.5215 146.512H41.4095L42.3855 147.504ZM35.0095 138.736L34.1135 139.632H33.5215V133.52L34.0175 133.024L35.0095 134V138.736Z" fill="#FF0000"/>
<path d="M47.08 146.976L46.584 146.48V140.368H47.176L47.32 140.528L48.072 141.264V146L47.08 146.976ZM55.448 147.504L54.952 148H48.104L47.608 147.504L48.584 146.512H54.472L55.448 147.504ZM48.072 138.736L47.176 139.632H46.584V133.52L47.08 133.024L48.072 134V138.736Z" fill="#FF0000"/>
<path d="M61.6465 140.736L60.9105 140L61.6465 139.264H63.7265L64.1585 140.016L63.7265 140.736H61.6465ZM60.6705 132.496L61.1665 132H68.0145L68.5105 132.496L67.5345 133.488H61.6465L60.6705 132.496ZM68.5105 147.504L68.0145 148H61.1665L60.6705 147.504L61.6465 146.512H67.5345L68.5105 147.504ZM68.0465 141.264L68.9425 140.368H69.5345V146.48L69.0385 146.976L68.0465 146V141.264ZM61.1345 138.736L60.2385 139.632H59.6465V133.52L60.1425 133.024L61.1345 134V138.736ZM67.5345 139.264L68.2705 140L67.5345 140.736H65.4385L65.0065 140.016L65.4545 139.264H67.5345Z" fill="#FF0000"/>
<path d="M0 155H90V186H0V155Z" fill="black" fill-opacity="0.01"/>
<path d="M13.0765 176.776H11.6045V173.032L12.3405 171.752L13.0765 173.048V176.776ZM8.4205 163.496L8.9165 163H15.7645L16.2605 163.496L15.2845 164.488H9.3965L8.4205 163.496ZM11.6045 165.224H13.0765V168.968L12.3405 170.264L11.6045 169V165.224ZM16.2605 178.504L15.7645 179H8.9165L8.4205 178.504L9.3965 177.512H15.2845L16.2605 178.504ZM15.7965 172.264L16.6925 171.368H17.2845V177.48L16.7885 177.976L15.7965 177V172.264ZM16.7885 164.024L17.2845 164.52V170.632H16.6925L15.7965 169.736V165.016L16.7885 164.024Z" fill="#FF0000"/>
<path d="M22.459 171.736L21.723 171L22.459 170.264H24.539L24.971 171.016L24.539 171.736H22.459ZM21.483 163.496L21.979 163H28.827L29.323 163.496L28.347 164.488H22.459L21.483 163.496ZM26.891 172.488H27.115L28.123 174.232V176.776H27.883L26.891 175.048V172.488ZM20.955 177.976L20.459 177.48V171.368H21.051L21.195 171.528L21.947 172.264V177L20.955 177.976ZM29.851 164.024L30.347 164.52V170.632H29.755L28.859 169.736V165.016L29.851 164.024ZM21.947 169.736L21.051 170.632H20.459V164.52L20.955 164.024L21.947 165V169.736ZM28.347 170.264L29.083 171L28.347 171.736H26.251L25.819 171.016L26.267 170.264H28.347Z" fill="#FF0000"/>
<path d="M34.0175 177.976L33.5215 177.48V171.368H34.1135L34.2575 171.528L35.0095 172.264V177L34.0175 177.976ZM42.3855 178.504L41.8895 179H35.0415L34.5455 178.504L35.5215 177.512H41.4095L42.3855 178.504ZM41.9215 172.264L42.8175 171.368H43.4095V177.48L42.9135 177.976L41.9215 177V172.264ZM42.9135 164.024L43.4095 164.52V170.632H42.8175L41.9215 169.736V165.016L42.9135 164.024ZM35.0095 169.736L34.1135 170.632H33.5215V164.52L34.0175 164.024L35.0095 165V169.736Z" fill="#FF0000"/>
<path d="M52.264 176.776H50.792V173.032L51.528 171.752L52.264 173.048V176.776ZM50.04 169.512H49.816L48.808 167.768V165.224H49.048L50.04 166.952V169.512ZM47.08 177.976L46.584 177.48V171.368H47.176L47.32 171.528L48.072 172.264V177L47.08 177.976ZM54.984 172.264L55.88 171.368H56.472V177.48L55.976 177.976L54.984 177V172.264ZM55.976 164.024L56.472 164.52V170.632H55.88L54.984 169.736V165.016L55.976 164.024ZM54.008 165.224H54.248V167.768L53.24 169.512H53.016V166.952L54.008 165.224ZM48.072 169.736L47.176 170.632H46.584V164.52L47.08 164.024L48.072 165V169.736Z" fill="#FF0000"/>
<path d="M61.6465 171.736L60.9105 171L61.6465 170.264H63.7265L64.1585 171.016L63.7265 171.736H61.6465ZM60.6705 163.496L61.1665 163H68.0145L68.5105 163.496L67.5345 164.488H61.6465L60.6705 163.496ZM68.5105 178.504L68.0145 179H61.1665L60.6705 178.504L61.6465 177.512H67.5345L68.5105 178.504ZM68.0465 172.264L68.9425 171.368H69.5345V177.48L69.0385 177.976L68.0465 177V172.264ZM61.1345 169.736L60.2385 170.632H59.6465V164.52L60.1425 164.024L61.1345 165V169.736ZM67.5345 170.264L68.2705 171L67.5345 171.736H65.4385L65.0065 171.016L65.4545 170.264H67.5345Z" fill="#FF0000"/>
<rect y="186" width="90" height="31" fill="black" fill-opacity="0.01"/>
<path d="M35.5215 202.736L34.7855 202L35.5215 201.264H37.1855H37.6015L38.0335 202.016L37.6015 202.736H35.7455H35.5215ZM34.5455 194.496L35.0415 194H41.8895L42.3855 194.496L41.4095 195.488H41.3775H39.2015H37.7295H35.5535H35.5215L34.5455 194.496ZM34.0175 208.976L33.5215 208.48V202.368H34.1135L34.2575 202.528L35.0095 203.264V206.512V207.776V208L34.0175 208.976ZM35.0095 200.736L34.1135 201.632H33.5215V195.52L34.0175 195.024L35.0095 196V196.224V197.488V200.736ZM41.4095 201.264L42.1455 202L41.4095 202.736H41.1855H39.9535H39.3135L38.8815 202.016L39.3295 201.264H39.7455H41.4095ZM50.04 203.488V206.048L49.048 207.776H48.808V205.232L49.816 203.488H50.04ZM50.04 200.512H49.816L48.808 198.768V196.224H49.048L50.04 197.952V200.512ZM53.016 203.488H53.24L54.248 205.232V207.776H54.008L53.016 206.048V203.488ZM54.008 196.224H54.248V198.768L53.24 200.512H53.016V197.952L54.008 196.224Z" fill="#FF0000"/>
<rect y="217" width="90" height="31" fill="black" fill-opacity="0.01"/>
<path d="M8.4205 225.496L8.9165 225H15.7645L16.2605 225.496L15.2845 226.488H15.2525H13.0765H11.6045H9.4285H9.3965L8.4205 225.496ZM7.8925 239.976L7.3965 239.48V233.368H7.9885L8.1325 233.528L8.8845 234.264V237.512V238.776V239L7.8925 239.976ZM16.2605 240.504L15.7645 241H8.9165L8.4205 240.504L9.3965 239.512H9.4285H11.6045H13.0765H15.2525H15.2845L16.2605 240.504ZM15.7965 234.264L16.6925 233.368H17.2845V239.48L16.7885 239.976L15.7965 239V238.776V237.512V234.264ZM8.8845 231.736L7.9885 232.632H7.3965V226.52L7.8925 226.024L8.8845 227V227.224V228.488V231.736ZM15.2845 232.264L16.0205 233L15.2845 233.736H15.0605H13.8285H13.1885L12.7565 233.016L13.2045 232.264H13.6205H15.2845ZM20.955 239.976L20.459 239.48V233.368H21.051L21.195 233.528L21.947 234.264V237.512V238.776V239L20.955 239.976ZM29.323 240.504L28.827 241H21.979L21.483 240.504L22.459 239.512H22.491H24.667H26.139H28.315H28.347L29.323 240.504ZM28.859 234.264L29.755 233.368H30.347V239.48L29.851 239.976L28.859 239V238.776V237.512V234.264ZM29.851 226.024L30.347 226.52V232.632H29.755L28.859 231.736V231.288V228.488V227.224V227.016L29.851 226.024ZM21.947 231.736L21.051 232.632H20.459V226.52L20.955 226.024L21.947 227V227.224V228.488V231.736ZM39.2015 238.488V238.776H37.7295V235.768V235.032L38.4655 233.752L39.2015 235.048V235.768V238.488ZM34.5455 225.496L35.0415 225H41.8895L42.3855 225.496L41.4095 226.488H41.3775H39.2015H37.7295H35.5535H35.5215L34.5455 225.496ZM37.7295 227.224H39.2015V230.232V230.968L38.4655 232.264L37.7295 231V230.232V227.224ZM42.3855 240.504L41.8895 241H35.0415L34.5455 240.504L35.5215 239.512H35.5535H37.7295H39.2015H41.3775H41.4095L42.3855 240.504ZM52.264 238.488V238.776H50.792V235.768V235.032L51.528 233.752L52.264 235.048V235.768V238.488ZM47.608 225.496L48.104 225H54.952L55.448 225.496L54.472 226.488H54.44H52.264H50.792H48.616H48.584L47.608 225.496ZM50.792 227.224H52.264V230.232V230.968L51.528 232.264L50.792 231V230.232V227.224ZM61.6465 233.736L60.9105 233L61.6465 232.264H63.3105H63.7265L64.1585 233.016L63.7265 233.736H61.8705H61.6465ZM60.6705 225.496L61.1665 225H68.0145L68.5105 225.496L67.5345 226.488H67.5025H65.3265H63.8545H61.6785H61.6465L60.6705 225.496ZM60.1425 239.976L59.6465 239.48V233.368H60.2385L60.3825 233.528L61.1345 234.264V237.512V238.776V239L60.1425 239.976ZM68.0465 234.264L68.9425 233.368H69.5345V239.48L69.0385 239.976L68.0465 239V238.776V237.512V234.264ZM69.0385 226.024L69.5345 226.52V232.632H68.9425L68.0465 231.736V231.288V228.488V227.224V227.016L69.0385 226.024ZM61.1345 231.736L60.2385 232.632H59.6465V226.52L60.1425 226.024L61.1345 227V227.224V228.488V231.736ZM67.5345 232.264L68.2705 233L67.5345 233.736H67.3105H66.0785H65.4385L65.0065 233.016L65.4545 232.264H65.8705H67.5345ZM74.709 233.736L73.973 233L74.709 232.264H76.373H76.789L77.221 233.016L76.789 233.736H74.933H74.709ZM73.733 225.496L74.229 225H81.077L81.573 225.496L80.597 226.488H80.565H78.389H76.917H74.741H74.709L73.733 225.496ZM79.141 234.488H79.365L80.373 236.232V238.776H80.133L79.141 237.048V234.488ZM73.205 239.976L72.709 239.48V233.368H73.301L73.445 233.528L74.197 234.264V237.512V238.776V239L73.205 239.976ZM82.101 226.024L82.597 226.52V232.632H82.005L81.109 231.736V231.288V228.488V227.224V227.016L82.101 226.024ZM74.197 231.736L73.301 232.632H72.709V226.52L73.205 226.024L74.197 227V227.224V228.488V231.736ZM80.597 232.264L81.333 233L80.597 233.736H80.373H79.141H78.501L78.069 233.016L78.517 232.264H78.933H80.597Z" fill="#FF0000"/>
<path d="M0 248H90V279H0V248Z" fill="black" fill-opacity="0.01"/>
<path d="M22.459 264.736L21.723 264L22.459 263.264H24.539L24.971 264.016L24.539 264.736H22.459ZM26.891 265.488H27.115L28.123 267.232V269.776H27.883L26.891 268.048V265.488ZM20.955 270.976L20.459 270.48V264.368H21.051L21.195 264.528L21.947 265.264V270L20.955 270.976ZM27.883 258.224H28.123V260.768L27.115 262.512H26.891V259.952L27.883 258.224ZM21.947 262.736L21.051 263.632H20.459V257.52L20.955 257.024L21.947 258V262.736Z" fill="#FF0000"/>
<path d="M35.5215 264.736L34.7855 264L35.5215 263.264H37.6015L38.0335 264.016L37.6015 264.736H35.5215ZM34.5455 256.496L35.0415 256H41.8895L42.3855 256.496L41.4095 257.488H35.5215L34.5455 256.496ZM34.0175 270.976L33.5215 270.48V264.368H34.1135L34.2575 264.528L35.0095 265.264V270L34.0175 270.976ZM42.3855 271.504L41.8895 272H35.0415L34.5455 271.504L35.5215 270.512H41.4095L42.3855 271.504ZM35.0095 262.736L34.1135 263.632H33.5215V257.52L34.0175 257.024L35.0095 258V262.736ZM41.4095 263.264L42.1455 264L41.4095 264.736H39.3135L38.8815 264.016L39.3295 263.264H41.4095Z" fill="#FF0000"/>
<path d="M52.264 269.776H50.792V266.032L51.528 264.752L52.264 266.048V269.776ZM50.04 262.512H49.816L48.808 260.768V258.224H49.048L50.04 259.952V262.512ZM54.008 258.224H54.248V260.768L53.24 262.512H53.016V259.952L54.008 258.224Z" fill="#FF0000"/>
<path d="M61.6465 264.736L60.9105 264L61.6465 263.264H63.7265L64.1585 264.016L63.7265 264.736H61.6465ZM60.6705 256.496L61.1665 256H68.0145L68.5105 256.496L67.5345 257.488H61.6465L60.6705 256.496ZM68.5105 271.504L68.0145 272H61.1665L60.6705 271.504L61.6465 270.512H67.5345L68.5105 271.504ZM68.0465 265.264L68.9425 264.368H69.5345V270.48L69.0385 270.976L68.0465 270V265.264ZM61.1345 262.736L60.2385 263.632H59.6465V257.52L60.1425 257.024L61.1345 258V262.736ZM67.5345 263.264L68.2705 264L67.5345 264.736H65.4385L65.0065 264.016L65.4545 263.264H67.5345Z" fill="#FF0000"/>
<path d="M0 279H90V310H0V279Z" fill="black" fill-opacity="0.01"/>
<path d="M7.8925 301.976L7.3965 301.48V295.368H7.9885L8.1325 295.528L8.8845 296.264V301L7.8925 301.976ZM16.2605 302.504L15.7645 303H8.9165L8.4205 302.504L9.3965 301.512H15.2845L16.2605 302.504ZM8.8845 293.736L7.9885 294.632H7.3965V288.52L7.8925 288.024L8.8845 289V293.736Z" fill="#FF0000"/>
<path d="M22.459 295.736L21.723 295L22.459 294.264H24.539L24.971 295.016L24.539 295.736H22.459ZM21.483 287.496L21.979 287H28.827L29.323 287.496L28.347 288.488H22.459L21.483 287.496ZM20.955 301.976L20.459 301.48V295.368H21.051L21.195 295.528L21.947 296.264V301L20.955 301.976ZM29.323 302.504L28.827 303H21.979L21.483 302.504L22.459 301.512H28.347L29.323 302.504ZM21.947 293.736L21.051 294.632H20.459V288.52L20.955 288.024L21.947 289V293.736ZM28.347 294.264L29.083 295L28.347 295.736H26.251L25.819 295.016L26.267 294.264H28.347Z" fill="#FF0000"/>
<path d="M35.5215 295.736L34.7855 295L35.5215 294.264H37.6015L38.0335 295.016L37.6015 295.736H35.5215ZM34.5455 287.496L35.0415 287H41.8895L42.3855 287.496L41.4095 288.488H35.5215L34.5455 287.496ZM34.0175 301.976L33.5215 301.48V295.368H34.1135L34.2575 295.528L35.0095 296.264V301L34.0175 301.976ZM41.9215 296.264L42.8175 295.368H43.4095V301.48L42.9135 301.976L41.9215 301V296.264ZM42.9135 288.024L43.4095 288.52V294.632H42.8175L41.9215 293.736V289.016L42.9135 288.024ZM35.0095 293.736L34.1135 294.632H33.5215V288.52L34.0175 288.024L35.0095 289V293.736ZM41.4095 294.264L42.1455 295L41.4095 295.736H39.3135L38.8815 295.016L39.3295 294.264H41.4095Z" fill="#FF0000"/>
<path d="M52.264 300.776H50.792V297.032L51.528 295.752L52.264 297.048V300.776ZM47.608 287.496L48.104 287H54.952L55.448 287.496L54.472 288.488H48.584L47.608 287.496ZM50.792 289.224H52.264V292.968L51.528 294.264L50.792 293V289.224ZM55.448 302.504L54.952 303H48.104L47.608 302.504L48.584 301.512H54.472L55.448 302.504ZM54.984 296.264L55.88 295.368H56.472V301.48L55.976 301.976L54.984 301V296.264ZM55.976 288.024L56.472 288.52V294.632H55.88L54.984 293.736V289.016L55.976 288.024Z" fill="#FF0000"/>
<path d="M61.6465 295.736L60.9105 295L61.6465 294.264H63.7265L64.1585 295.016L63.7265 295.736H61.6465ZM60.6705 287.496L61.1665 287H68.0145L68.5105 287.496L67.5345 288.488H61.6465L60.6705 287.496ZM68.5105 302.504L68.0145 303H61.1665L60.6705 302.504L61.6465 301.512H67.5345L68.5105 302.504ZM68.0465 296.264L68.9425 295.368H69.5345V301.48L69.0385 301.976L68.0465 301V296.264ZM61.1345 293.736L60.2385 294.632H59.6465V288.52L60.1425 288.024L61.1345 289V293.736ZM67.5345 294.264L68.2705 295L67.5345 295.736H65.4385L65.0065 295.016L65.4545 294.264H67.5345Z" fill="#FF0000"/>
<rect y="310" width="90" height="31" fill="black" fill-opacity="0.01"/>
<path d="M13.0765 331.488V331.776H11.6045V328.768V328.032L12.3405 326.752L13.0765 328.048V328.768V331.488ZM10.8525 324.512H10.6285L9.6205 322.768V320.224H9.8605L10.8525 321.952V324.512ZM7.8925 332.976L7.3965 332.48V326.368H7.9885L8.1325 326.528L8.8845 327.264V330.512V331.776V332L7.8925 332.976ZM15.7965 327.264L16.6925 326.368H17.2845V332.48L16.7885 332.976L15.7965 332V331.776V330.512V327.264ZM16.7885 319.024L17.2845 319.52V325.632H16.6925L15.7965 324.736V324.288V321.488V320.224V320.016L16.7885 319.024ZM14.8205 320.224H15.0605V322.768L14.0525 324.512H13.8285V321.952L14.8205 320.224ZM8.8845 324.736L7.9885 325.632H7.3965V319.52L7.8925 319.024L8.8845 320V320.224V321.488V324.736ZM22.459 326.736L21.723 326L22.459 325.264H24.123H24.539L24.971 326.016L24.539 326.736H22.683H22.459ZM21.483 318.496L21.979 318H28.827L29.323 318.496L28.347 319.488H28.315H26.139H24.667H22.491H22.459L21.483 318.496ZM20.955 332.976L20.459 332.48V326.368H21.051L21.195 326.528L21.947 327.264V330.512V331.776V332L20.955 332.976ZM28.859 327.264L29.755 326.368H30.347V332.48L29.851 332.976L28.859 332V331.776V330.512V327.264ZM29.851 319.024L30.347 319.52V325.632H29.755L28.859 324.736V324.288V321.488V320.224V320.016L29.851 319.024ZM21.947 324.736L21.051 325.632H20.459V319.52L20.955 319.024L21.947 320V320.224V321.488V324.736ZM28.347 325.264L29.083 326L28.347 326.736H28.123H26.891H26.251L25.819 326.016L26.267 325.264H26.683H28.347ZM34.0175 332.976L33.5215 332.48V326.368H34.1135L34.2575 326.528L35.0095 327.264V330.512V331.776V332L34.0175 332.976ZM42.3855 333.504L41.8895 334H35.0415L34.5455 333.504L35.5215 332.512H35.5535H37.7295H39.2015H41.3775H41.4095L42.3855 333.504ZM35.0095 324.736L34.1135 325.632H33.5215V319.52L34.0175 319.024L35.0095 320V320.224V321.488V324.736ZM47.08 332.976L46.584 332.48V326.368H47.176L47.32 326.528L48.072 327.264V330.512V331.776V332L47.08 332.976ZM55.448 333.504L54.952 334H48.104L47.608 333.504L48.584 332.512H48.616H50.792H52.264H54.44H54.472L55.448 333.504ZM48.072 324.736L47.176 325.632H46.584V319.52L47.08 319.024L48.072 320V320.224V321.488V324.736ZM61.6465 326.736L60.9105 326L61.6465 325.264H63.3105H63.7265L64.1585 326.016L63.7265 326.736H61.8705H61.6465ZM60.6705 318.496L61.1665 318H68.0145L68.5105 318.496L67.5345 319.488H67.5025H65.3265H63.8545H61.6785H61.6465L60.6705 318.496ZM60.1425 332.976L59.6465 332.48V326.368H60.2385L60.3825 326.528L61.1345 327.264V330.512V331.776V332L60.1425 332.976ZM68.5105 333.504L68.0145 334H61.1665L60.6705 333.504L61.6465 332.512H61.6785H63.8545H65.3265H67.5025H67.5345L68.5105 333.504ZM61.1345 324.736L60.2385 325.632H59.6465V319.52L60.1425 319.024L61.1345 320V320.224V321.488V324.736ZM67.5345 325.264L68.2705 326L67.5345 326.736H67.3105H66.0785H65.4385L65.0065 326.016L65.4545 325.264H65.8705H67.5345ZM78.389 331.488V331.776H76.917V328.768V328.032L77.653 326.752L78.389 328.048V328.768V331.488ZM73.733 318.496L74.229 318H81.077L81.573 318.496L80.597 319.488H80.565H78.389H76.917H74.741H74.709L73.733 318.496ZM76.917 320.224H78.389V323.232V323.968L77.653 325.264L76.917 324V323.232V320.224Z" fill="#FF0000"/>
<path d="M0 341H90V372H0V341Z" fill="black" fill-opacity="0.01"/>
<path d="M8.4205 349.496L8.9165 349H15.7645L16.2605 349.496L15.2845 350.488H9.3965L8.4205 349.496ZM7.8925 363.976L7.3965 363.48V357.368H7.9885L8.1325 357.528L8.8845 358.264V363L7.8925 363.976ZM16.2605 364.504L15.7645 365H8.9165L8.4205 364.504L9.3965 363.512H15.2845L16.2605 364.504ZM15.7965 358.264L16.6925 357.368H17.2845V363.48L16.7885 363.976L15.7965 363V358.264ZM16.7885 350.024L17.2845 350.52V356.632H16.6925L15.7965 355.736V351.016L16.7885 350.024ZM8.8845 355.736L7.9885 356.632H7.3965V350.52L7.8925 350.024L8.8845 351V355.736Z" fill="#FF0000"/>
<path d="M22.459 357.736L21.723 357L22.459 356.264H24.539L24.971 357.016L24.539 357.736H22.459ZM21.483 349.496L21.979 349H28.827L29.323 349.496L28.347 350.488H22.459L21.483 349.496ZM26.891 358.488H27.115L28.123 360.232V362.776H27.883L26.891 361.048V358.488ZM20.955 363.976L20.459 363.48V357.368H21.051L21.195 357.528L21.947 358.264V363L20.955 363.976ZM29.851 350.024L30.347 350.52V356.632H29.755L28.859 355.736V351.016L29.851 350.024ZM21.947 355.736L21.051 356.632H20.459V350.52L20.955 350.024L21.947 351V355.736ZM28.347 356.264L29.083 357L28.347 357.736H26.251L25.819 357.016L26.267 356.264H28.347Z" fill="#FF0000"/>
<path d="M34.5455 349.496L35.0415 349H41.8895L42.3855 349.496L41.4095 350.488H35.5215L34.5455 349.496ZM34.0175 363.976L33.5215 363.48V357.368H34.1135L34.2575 357.528L35.0095 358.264V363L34.0175 363.976ZM42.3855 364.504L41.8895 365H35.0415L34.5455 364.504L35.5215 363.512H41.4095L42.3855 364.504ZM41.9215 358.264L42.8175 357.368H43.4095V363.48L42.9135 363.976L41.9215 363V358.264ZM35.0095 355.736L34.1135 356.632H33.5215V350.52L34.0175 350.024L35.0095 351V355.736ZM41.4095 356.264L42.1455 357L41.4095 357.736H39.3135L38.8815 357.016L39.3295 356.264H41.4095Z" fill="#FF0000"/>
<path d="M48.584 357.736L47.848 357L48.584 356.264H50.664L51.096 357.016L50.664 357.736H48.584ZM47.608 349.496L48.104 349H54.952L55.448 349.496L54.472 350.488H48.584L47.608 349.496ZM47.08 363.976L46.584 363.48V357.368H47.176L47.32 357.528L48.072 358.264V363L47.08 363.976ZM54.984 358.264L55.88 357.368H56.472V363.48L55.976 363.976L54.984 363V358.264ZM55.976 350.024L56.472 350.52V356.632H55.88L54.984 355.736V351.016L55.976 350.024ZM48.072 355.736L47.176 356.632H46.584V350.52L47.08 350.024L48.072 351V355.736ZM54.472 356.264L55.208 357L54.472 357.736H52.376L51.944 357.016L52.392 356.264H54.472Z" fill="#FF0000"/>
<path d="M63.1025 355.512H62.8785L61.8705 353.768V351.224H62.1105L63.1025 352.952V355.512ZM66.0785 358.488H66.3025L67.3105 360.232V362.776H67.0705L66.0785 361.048V358.488ZM60.1425 363.976L59.6465 363.48V357.368H60.2385L60.3825 357.528L61.1345 358.264V363L60.1425 363.976ZM68.0465 358.264L68.9425 357.368H69.5345V363.48L69.0385 363.976L68.0465 363V358.264ZM69.0385 350.024L69.5345 350.52V356.632H68.9425L68.0465 355.736V351.016L69.0385 350.024ZM61.1345 355.736L60.2385 356.632H59.6465V350.52L60.1425 350.024L61.1345 351V355.736Z" fill="#FF0000"/>
<path d="M74.709 357.736L73.973 357L74.709 356.264H76.789L77.221 357.016L76.789 357.736H74.709ZM73.733 349.496L74.229 349H81.077L81.573 349.496L80.597 350.488H74.709L73.733 349.496ZM81.573 364.504L81.077 365H74.229L73.733 364.504L74.709 363.512H80.597L81.573 364.504ZM81.109 358.264L82.005 357.368H82.597V363.48L82.101 363.976L81.109 363V358.264ZM74.197 355.736L73.301 356.632H72.709V350.52L73.205 350.024L74.197 351V355.736ZM80.597 356.264L81.333 357L80.597 357.736H78.501L78.069 357.016L78.517 356.264H80.597Z" fill="#FF0000"/>
<rect y="372" width="90" height="31" fill="black" fill-opacity="0.01"/>
<path d="M22.459 388.736L21.723 388L22.459 387.264H24.123H24.539L24.971 388.016L24.539 388.736H22.683H22.459ZM21.483 380.496L21.979 380H28.827L29.323 380.496L28.347 381.488H28.315H26.139H24.667H22.491H22.459L21.483 380.496ZM20.955 394.976L20.459 394.48V388.368H21.051L21.195 388.528L21.947 389.264V392.512V393.776V394L20.955 394.976ZM29.851 381.024L30.347 381.52V387.632H29.755L28.859 386.736V386.288V383.488V382.224V382.016L29.851 381.024ZM21.947 386.736L21.051 387.632H20.459V381.52L20.955 381.024L21.947 382V382.224V383.488V386.736ZM28.347 387.264L29.083 388L28.347 388.736H28.123H26.891H26.251L25.819 388.016L26.267 387.264H26.683H28.347ZM35.5215 388.736L34.7855 388L35.5215 387.264H37.1855H37.6015L38.0335 388.016L37.6015 388.736H35.7455H35.5215ZM34.5455 380.496L35.0415 380H41.8895L42.3855 380.496L41.4095 381.488H41.3775H39.2015H37.7295H35.5535H35.5215L34.5455 380.496ZM34.0175 394.976L33.5215 394.48V388.368H34.1135L34.2575 388.528L35.0095 389.264V392.512V393.776V394L34.0175 394.976ZM42.3855 395.504L41.8895 396H35.0415L34.5455 395.504L35.5215 394.512H35.5535H37.7295H39.2015H41.3775H41.4095L42.3855 395.504ZM35.0095 386.736L34.1135 387.632H33.5215V381.52L34.0175 381.024L35.0095 382V382.224V383.488V386.736ZM41.4095 387.264L42.1455 388L41.4095 388.736H41.1855H39.9535H39.3135L38.8815 388.016L39.3295 387.264H39.7455H41.4095ZM48.584 388.736L47.848 388L48.584 387.264H50.248H50.664L51.096 388.016L50.664 388.736H48.808H48.584ZM47.608 380.496L48.104 380H54.952L55.448 380.496L54.472 381.488H54.44H52.264H50.792H48.616H48.584L47.608 380.496ZM53.016 389.488H53.24L54.248 391.232V393.776H54.008L53.016 392.048V389.488ZM47.08 394.976L46.584 394.48V388.368H47.176L47.32 388.528L48.072 389.264V392.512V393.776V394L47.08 394.976ZM55.976 381.024L56.472 381.52V387.632H55.88L54.984 386.736V386.288V383.488V382.224V382.016L55.976 381.024ZM48.072 386.736L47.176 387.632H46.584V381.52L47.08 381.024L48.072 382V382.224V383.488V386.736ZM54.472 387.264L55.208 388L54.472 388.736H54.248H53.016H52.376L51.944 388.016L52.392 387.264H52.808H54.472ZM60.6705 380.496L61.1665 380H68.0145L68.5105 380.496L67.5345 381.488H67.5025H65.3265H63.8545H61.6785H61.6465L60.6705 380.496ZM60.1425 394.976L59.6465 394.48V388.368H60.2385L60.3825 388.528L61.1345 389.264V392.512V393.776V394L60.1425 394.976ZM68.5105 395.504L68.0145 396H61.1665L60.6705 395.504L61.6465 394.512H61.6785H63.8545H65.3265H67.5025H67.5345L68.5105 395.504ZM61.1345 386.736L60.2385 387.632H59.6465V381.52L60.1425 381.024L61.1345 382V382.224V383.488V386.736Z" fill="#FF0000"/>
<path d="M0 403H90V434H0V403Z" fill="black" fill-opacity="0.01"/>
<path d="M22.459 419.736L21.723 419L22.459 418.264H24.539L24.971 419.016L24.539 419.736H22.459ZM21.483 411.496L21.979 411H28.827L29.323 411.496L28.347 412.488H22.459L21.483 411.496ZM20.955 425.976L20.459 425.48V419.368H21.051L21.195 419.528L21.947 420.264V425L20.955 425.976ZM29.851 412.024L30.347 412.52V418.632H29.755L28.859 417.736V413.016L29.851 412.024ZM21.947 417.736L21.051 418.632H20.459V412.52L20.955 412.024L21.947 413V417.736ZM28.347 418.264L29.083 419L28.347 419.736H26.251L25.819 419.016L26.267 418.264H28.347Z" fill="#FF0000"/>
<path d="M35.5215 419.736L34.7855 419L35.5215 418.264H37.6015L38.0335 419.016L37.6015 419.736H35.5215ZM34.5455 411.496L35.0415 411H41.8895L42.3855 411.496L41.4095 412.488H35.5215L34.5455 411.496ZM34.0175 425.976L33.5215 425.48V419.368H34.1135L34.2575 419.528L35.0095 420.264V425L34.0175 425.976ZM41.9215 420.264L42.8175 419.368H43.4095V425.48L42.9135 425.976L41.9215 425V420.264ZM42.9135 412.024L43.4095 412.52V418.632H42.8175L41.9215 417.736V413.016L42.9135 412.024ZM35.0095 417.736L34.1135 418.632H33.5215V412.52L34.0175 412.024L35.0095 413V417.736ZM41.4095 418.264L42.1455 419L41.4095 419.736H39.3135L38.8815 419.016L39.3295 418.264H41.4095Z" fill="#FF0000"/>
<path d="M52.264 424.776H50.792V421.032L51.528 419.752L52.264 421.048V424.776ZM47.608 411.496L48.104 411H54.952L55.448 411.496L54.472 412.488H48.584L47.608 411.496ZM50.792 413.224H52.264V416.968L51.528 418.264L50.792 417V413.224ZM55.448 426.504L54.952 427H48.104L47.608 426.504L48.584 425.512H54.472L55.448 426.504ZM54.984 420.264L55.88 419.368H56.472V425.48L55.976 425.976L54.984 425V420.264ZM55.976 412.024L56.472 412.52V418.632H55.88L54.984 417.736V413.016L55.976 412.024Z" fill="#FF0000"/>
<path d="M61.6465 419.736L60.9105 419L61.6465 418.264H63.7265L64.1585 419.016L63.7265 419.736H61.6465ZM60.6705 411.496L61.1665 411H68.0145L68.5105 411.496L67.5345 412.488H61.6465L60.6705 411.496ZM68.5105 426.504L68.0145 427H61.1665L60.6705 426.504L61.6465 425.512H67.5345L68.5105 426.504ZM68.0465 420.264L68.9425 419.368H69.5345V425.48L69.0385 425.976L68.0465 425V420.264ZM61.1345 417.736L60.2385 418.632H59.6465V412.52L60.1425 412.024L61.1345 413V417.736ZM67.5345 418.264L68.2705 419L67.5345 419.736H65.4385L65.0065 419.016L65.4545 418.264H67.5345Z" fill="#FF0000"/>
<path d="M0 434H90V465H0V434Z" fill="black" fill-opacity="0.01"/>
<path d="M9.3965 450.736L8.6605 450L9.3965 449.264H11.4765L11.9085 450.016L11.4765 450.736H9.3965ZM8.4205 442.496L8.9165 442H15.7645L16.2605 442.496L15.2845 443.488H9.3965L8.4205 442.496ZM7.8925 456.976L7.3965 456.48V450.368H7.9885L8.1325 450.528L8.8845 451.264V456L7.8925 456.976ZM16.7885 443.024L17.2845 443.52V449.632H16.6925L15.7965 448.736V444.016L16.7885 443.024ZM8.8845 448.736L7.9885 449.632H7.3965V443.52L7.8925 443.024L8.8845 444V448.736ZM15.2845 449.264L16.0205 450L15.2845 450.736H13.1885L12.7565 450.016L13.2045 449.264H15.2845Z" fill="#FF0000"/>
<path d="M20.955 456.976L20.459 456.48V450.368H21.051L21.195 450.528L21.947 451.264V456L20.955 456.976ZM29.323 457.504L28.827 458H21.979L21.483 457.504L22.459 456.512H28.347L29.323 457.504ZM21.947 448.736L21.051 449.632H20.459V443.52L20.955 443.024L21.947 444V448.736Z" fill="#FF0000"/>
<path d="M34.0175 456.976L33.5215 456.48V450.368H34.1135L34.2575 450.528L35.0095 451.264V456L34.0175 456.976ZM42.3855 457.504L41.8895 458H35.0415L34.5455 457.504L35.5215 456.512H41.4095L42.3855 457.504ZM41.9215 451.264L42.8175 450.368H43.4095V456.48L42.9135 456.976L41.9215 456V451.264ZM42.9135 443.024L43.4095 443.52V449.632H42.8175L41.9215 448.736V444.016L42.9135 443.024ZM35.0095 448.736L34.1135 449.632H33.5215V443.52L34.0175 443.024L35.0095 444V448.736Z" fill="#FF0000"/>
<path d="M47.608 442.496L48.104 442H54.952L55.448 442.496L54.472 443.488H48.584L47.608 442.496ZM47.08 456.976L46.584 456.48V450.368H47.176L47.32 450.528L48.072 451.264V456L47.08 456.976ZM55.448 457.504L54.952 458H48.104L47.608 457.504L48.584 456.512H54.472L55.448 457.504ZM48.072 448.736L47.176 449.632H46.584V443.52L47.08 443.024L48.072 444V448.736Z" fill="#FF0000"/>
<path d="M61.6465 450.736L60.9105 450L61.6465 449.264H63.7265L64.1585 450.016L63.7265 450.736H61.6465ZM66.0785 451.488H66.3025L67.3105 453.232V455.776H67.0705L66.0785 454.048V451.488ZM60.1425 456.976L59.6465 456.48V450.368H60.2385L60.3825 450.528L61.1345 451.264V456L60.1425 456.976ZM67.0705 444.224H67.3105V446.768L66.3025 448.512H66.0785V445.952L67.0705 444.224ZM61.1345 448.736L60.2385 449.632H59.6465V443.52L60.1425 443.024L61.1345 444V448.736Z" fill="#FF0000"/>
<path d="M74.709 450.736L73.973 450L74.709 449.264H76.789L77.221 450.016L76.789 450.736H74.709ZM73.733 442.496L74.229 442H81.077L81.573 442.496L80.597 443.488H74.709L73.733 442.496ZM81.573 457.504L81.077 458H74.229L73.733 457.504L74.709 456.512H80.597L81.573 457.504ZM81.109 451.264L82.005 450.368H82.597V456.48L82.101 456.976L81.109 456V451.264ZM74.197 448.736L73.301 449.632H72.709V443.52L73.205 443.024L74.197 444V448.736ZM80.597 449.264L81.333 450L80.597 450.736H78.501L78.069 450.016L78.517 449.264H80.597Z" fill="#FF0000"/>
<path d="M0 465H90V496H0V465Z" fill="black" fill-opacity="0.01"/>
<path d="M9.3965 481.736L8.6605 481L9.3965 480.264H11.4765L11.9085 481.016L11.4765 481.736H9.3965ZM8.4205 473.496L8.9165 473H15.7645L16.2605 473.496L15.2845 474.488H9.3965L8.4205 473.496ZM16.2605 488.504L15.7645 489H8.9165L8.4205 488.504L9.3965 487.512H15.2845L16.2605 488.504ZM15.7965 482.264L16.6925 481.368H17.2845V487.48L16.7885 487.976L15.7965 487V482.264ZM8.8845 479.736L7.9885 480.632H7.3965V474.52L7.8925 474.024L8.8845 475V479.736ZM15.2845 480.264L16.0205 481L15.2845 481.736H13.1885L12.7565 481.016L13.2045 480.264H15.2845Z" fill="#FF0000"/>
<path d="M21.483 473.496L21.979 473H28.827L29.323 473.496L28.347 474.488H22.459L21.483 473.496ZM20.955 487.976L20.459 487.48V481.368H21.051L21.195 481.528L21.947 482.264V487L20.955 487.976ZM29.323 488.504L28.827 489H21.979L21.483 488.504L22.459 487.512H28.347L29.323 488.504ZM21.947 479.736L21.051 480.632H20.459V474.52L20.955 474.024L21.947 475V479.736Z" fill="#FF0000"/>
<path d="M35.5215 481.736L34.7855 481L35.5215 480.264H37.6015L38.0335 481.016L37.6015 481.736H35.5215ZM34.5455 473.496L35.0415 473H41.8895L42.3855 473.496L41.4095 474.488H35.5215L34.5455 473.496ZM34.0175 487.976L33.5215 487.48V481.368H34.1135L34.2575 481.528L35.0095 482.264V487L34.0175 487.976ZM41.9215 482.264L42.8175 481.368H43.4095V487.48L42.9135 487.976L41.9215 487V482.264ZM42.9135 474.024L43.4095 474.52V480.632H42.8175L41.9215 479.736V475.016L42.9135 474.024ZM35.0095 479.736L34.1135 480.632H33.5215V474.52L34.0175 474.024L35.0095 475V479.736ZM41.4095 480.264L42.1455 481L41.4095 481.736H39.3135L38.8815 481.016L39.3295 480.264H41.4095Z" fill="#FF0000"/>
<path d="M48.584 481.736L47.848 481L48.584 480.264H50.664L51.096 481.016L50.664 481.736H48.584ZM47.608 473.496L48.104 473H54.952L55.448 473.496L54.472 474.488H48.584L47.608 473.496ZM47.08 487.976L46.584 487.48V481.368H47.176L47.32 481.528L48.072 482.264V487L47.08 487.976ZM55.976 474.024L56.472 474.52V480.632H55.88L54.984 479.736V475.016L55.976 474.024ZM48.072 479.736L47.176 480.632H46.584V474.52L47.08 474.024L48.072 475V479.736ZM54.472 480.264L55.208 481L54.472 481.736H52.376L51.944 481.016L52.392 480.264H54.472Z" fill="#FF0000"/>
<path d="M61.6465 481.736L60.9105 481L61.6465 480.264H63.7265L64.1585 481.016L63.7265 481.736H61.6465ZM60.6705 473.496L61.1665 473H68.0145L68.5105 473.496L67.5345 474.488H61.6465L60.6705 473.496ZM60.1425 487.976L59.6465 487.48V481.368H60.2385L60.3825 481.528L61.1345 482.264V487L60.1425 487.976ZM68.5105 488.504L68.0145 489H61.1665L60.6705 488.504L61.6465 487.512H67.5345L68.5105 488.504ZM61.1345 479.736L60.2385 480.632H59.6465V474.52L60.1425 474.024L61.1345 475V479.736ZM67.5345 480.264L68.2705 481L67.5345 481.736H65.4385L65.0065 481.016L65.4545 480.264H67.5345Z" fill="#FF0000"/>
<path d="M74.709 481.736L73.973 481L74.709 480.264H76.789L77.221 481.016L76.789 481.736H74.709ZM73.733 473.496L74.229 473H81.077L81.573 473.496L80.597 474.488H74.709L73.733 473.496ZM81.573 488.504L81.077 489H74.229L73.733 488.504L74.709 487.512H80.597L81.573 488.504ZM81.109 482.264L82.005 481.368H82.597V487.48L82.101 487.976L81.109 487V482.264ZM74.197 479.736L73.301 480.632H72.709V474.52L73.205 474.024L74.197 475V479.736ZM80.597 480.264L81.333 481L80.597 481.736H78.501L78.069 481.016L78.517 480.264H80.597Z" fill="#FF0000"/>
<path d="M0 496H90V527H0V496Z" fill="black" fill-opacity="0.01"/>
<path d="M9.3965 512.736L8.6605 512L9.3965 511.264H11.4765L11.9085 512.016L11.4765 512.736H9.3965ZM8.4205 504.496L8.9165 504H15.7645L16.2605 504.496L15.2845 505.488H9.3965L8.4205 504.496ZM16.2605 519.504L15.7645 520H8.9165L8.4205 519.504L9.3965 518.512H15.2845L16.2605 519.504ZM15.7965 513.264L16.6925 512.368H17.2845V518.48L16.7885 518.976L15.7965 518V513.264ZM8.8845 510.736L7.9885 511.632H7.3965V505.52L7.8925 505.024L8.8845 506V510.736ZM15.2845 511.264L16.0205 512L15.2845 512.736H13.1885L12.7565 512.016L13.2045 511.264H15.2845Z" fill="#FF0000"/>
<path d="M26.139 517.776H24.667V514.032L25.403 512.752L26.139 514.048V517.776ZM21.483 504.496L21.979 504H28.827L29.323 504.496L28.347 505.488H22.459L21.483 504.496ZM24.667 506.224H26.139V509.968L25.403 511.264L24.667 510V506.224Z" fill="#FF0000"/>
<path d="M35.5215 512.736L34.7855 512L35.5215 511.264H37.6015L38.0335 512.016L37.6015 512.736H35.5215ZM34.5455 504.496L35.0415 504H41.8895L42.3855 504.496L41.4095 505.488H35.5215L34.5455 504.496ZM39.9535 513.488H40.1775L41.1855 515.232V517.776H40.9455L39.9535 516.048V513.488ZM34.0175 518.976L33.5215 518.48V512.368H34.1135L34.2575 512.528L35.0095 513.264V518L34.0175 518.976ZM42.9135 505.024L43.4095 505.52V511.632H42.8175L41.9215 510.736V506.016L42.9135 505.024ZM35.0095 510.736L34.1135 511.632H33.5215V505.52L34.0175 505.024L35.0095 506V510.736ZM41.4095 511.264L42.1455 512L41.4095 512.736H39.3135L38.8815 512.016L39.3295 511.264H41.4095Z" fill="#FF0000"/>
<path d="M52.264 517.776H50.792V514.032L51.528 512.752L52.264 514.048V517.776ZM47.608 504.496L48.104 504H54.952L55.448 504.496L54.472 505.488H48.584L47.608 504.496ZM50.792 506.224H52.264V509.968L51.528 511.264L50.792 510V506.224ZM55.448 519.504L54.952 520H48.104L47.608 519.504L48.584 518.512H54.472L55.448 519.504Z" fill="#FF0000"/>
<path d="M63.1025 510.512H62.8785L61.8705 508.768V506.224H62.1105L63.1025 507.952V510.512ZM66.0785 513.488H66.3025L67.3105 515.232V517.776H67.0705L66.0785 516.048V513.488ZM60.1425 518.976L59.6465 518.48V512.368H60.2385L60.3825 512.528L61.1345 513.264V518L60.1425 518.976ZM68.0465 513.264L68.9425 512.368H69.5345V518.48L69.0385 518.976L68.0465 518V513.264ZM69.0385 505.024L69.5345 505.52V511.632H68.9425L68.0465 510.736V506.016L69.0385 505.024ZM61.1345 510.736L60.2385 511.632H59.6465V505.52L60.1425 505.024L61.1345 506V510.736Z" fill="#FF0000"/>
<path d="M73.733 504.496L74.229 504H81.077L81.573 504.496L80.597 505.488H74.709L73.733 504.496ZM73.205 518.976L72.709 518.48V512.368H73.301L73.445 512.528L74.197 513.264V518L73.205 518.976ZM81.573 519.504L81.077 520H74.229L73.733 519.504L74.709 518.512H80.597L81.573 519.504ZM81.109 513.264L82.005 512.368H82.597V518.48L82.101 518.976L81.109 518V513.264ZM74.197 510.736L73.301 511.632H72.709V505.52L73.205 505.024L74.197 506V510.736ZM80.597 511.264L81.333 512L80.597 512.736H78.501L78.069 512.016L78.517 511.264H80.597Z" fill="#FF0000"/>
<path d="M0 527H90V558H0V527Z" fill="black" fill-opacity="0.01"/>
<path d="M10.8525 544.488V547.048L9.8605 548.776H9.6205V546.232L10.6285 544.488H10.8525ZM7.8925 549.976L7.3965 549.48V543.368H7.9885L8.1325 543.528L8.8845 544.264V549L7.8925 549.976ZM14.8205 537.224H15.0605V539.768L14.0525 541.512H13.8285V538.952L14.8205 537.224ZM8.8845 541.736L7.9885 542.632H7.3965V536.52L7.8925 536.024L8.8845 537V541.736Z" fill="#FF0000"/>
<path d="M21.483 535.496L21.979 535H28.827L29.323 535.496L28.347 536.488H22.459L21.483 535.496ZM20.955 549.976L20.459 549.48V543.368H21.051L21.195 543.528L21.947 544.264V549L20.955 549.976ZM29.323 550.504L28.827 551H21.979L21.483 550.504L22.459 549.512H28.347L29.323 550.504ZM28.859 544.264L29.755 543.368H30.347V549.48L29.851 549.976L28.859 549V544.264ZM29.851 536.024L30.347 536.52V542.632H29.755L28.859 541.736V537.016L29.851 536.024ZM21.947 541.736L21.051 542.632H20.459V536.52L20.955 536.024L21.947 537V541.736Z" fill="#FF0000"/>
<path d="M39.2015 548.776H37.7295V545.032L38.4655 543.752L39.2015 545.048V548.776ZM34.5455 535.496L35.0415 535H41.8895L42.3855 535.496L41.4095 536.488H35.5215L34.5455 535.496ZM37.7295 537.224H39.2015V540.968L38.4655 542.264L37.7295 541V537.224ZM42.3855 550.504L41.8895 551H35.0415L34.5455 550.504L35.5215 549.512H41.4095L42.3855 550.504Z" fill="#FF0000"/>
<path d="M47.608 535.496L48.104 535H54.952L55.448 535.496L54.472 536.488H48.584L47.608 535.496ZM47.08 549.976L46.584 549.48V543.368H47.176L47.32 543.528L48.072 544.264V549L47.08 549.976ZM55.448 550.504L54.952 551H48.104L47.608 550.504L48.584 549.512H54.472L55.448 550.504ZM48.072 541.736L47.176 542.632H46.584V536.52L47.08 536.024L48.072 537V541.736Z" fill="#FF0000"/>
<path d="M61.6465 543.736L60.9105 543L61.6465 542.264H63.7265L64.1585 543.016L63.7265 543.736H61.6465ZM60.6705 535.496L61.1665 535H68.0145L68.5105 535.496L67.5345 536.488H61.6465L60.6705 535.496ZM60.1425 549.976L59.6465 549.48V543.368H60.2385L60.3825 543.528L61.1345 544.264V549L60.1425 549.976ZM68.5105 550.504L68.0145 551H61.1665L60.6705 550.504L61.6465 549.512H67.5345L68.5105 550.504ZM61.1345 541.736L60.2385 542.632H59.6465V536.52L60.1425 536.024L61.1345 537V541.736ZM67.5345 542.264L68.2705 543L67.5345 543.736H65.4385L65.0065 543.016L65.4545 542.264H67.5345Z" fill="#FF0000"/>
<path d="M74.709 543.736L73.973 543L74.709 542.264H76.789L77.221 543.016L76.789 543.736H74.709ZM73.733 535.496L74.229 535H81.077L81.573 535.496L80.597 536.488H74.709L73.733 535.496ZM81.573 550.504L81.077 551H74.229L73.733 550.504L74.709 549.512H80.597L81.573 550.504ZM81.109 544.264L82.005 543.368H82.597V549.48L82.101 549.976L81.109 549V544.264ZM74.197 541.736L73.301 542.632H72.709V536.52L73.205 536.024L74.197 537V541.736ZM80.597 542.264L81.333 543L80.597 543.736H78.501L78.069 543.016L78.517 542.264H80.597Z" fill="#FF0000"/>
<path d="M0 558H90V589H0V558Z" fill="black" fill-opacity="0.01"/>
<path d="M10.8525 575.488V578.048L9.8605 579.776H9.6205V577.232L10.6285 575.488H10.8525ZM13.8285 575.488H14.0525L15.0605 577.232V579.776H14.8205L13.8285 578.048V575.488ZM11.6045 568.224H13.0765V571.968L12.3405 573.264L11.6045 572V568.224ZM7.8925 580.976L7.3965 580.48V574.368H7.9885L8.1325 574.528L8.8845 575.264V580L7.8925 580.976ZM15.7965 575.264L16.6925 574.368H17.2845V580.48L16.7885 580.976L15.7965 580V575.264ZM16.7885 567.024L17.2845 567.52V573.632H16.6925L15.7965 572.736V568.016L16.7885 567.024ZM8.8845 572.736L7.9885 573.632H7.3965V567.52L7.8925 567.024L8.8845 568V572.736Z" fill="#FF0000"/>
<path d="M26.139 579.776H24.667V576.032L25.403 574.752L26.139 576.048V579.776ZM21.483 566.496L21.979 566H28.827L29.323 566.496L28.347 567.488H22.459L21.483 566.496ZM24.667 568.224H26.139V571.968L25.403 573.264L24.667 572V568.224ZM29.323 581.504L28.827 582H21.979L21.483 581.504L22.459 580.512H28.347L29.323 581.504Z" fill="#FF0000"/>
<path d="M36.9775 572.512H36.7535L35.7455 570.768V568.224H35.9855L36.9775 569.952V572.512ZM39.9535 575.488H40.1775L41.1855 577.232V579.776H40.9455L39.9535 578.048V575.488ZM34.0175 580.976L33.5215 580.48V574.368H34.1135L34.2575 574.528L35.0095 575.264V580L34.0175 580.976ZM41.9215 575.264L42.8175 574.368H43.4095V580.48L42.9135 580.976L41.9215 580V575.264ZM42.9135 567.024L43.4095 567.52V573.632H42.8175L41.9215 572.736V568.016L42.9135 567.024ZM35.0095 572.736L34.1135 573.632H33.5215V567.52L34.0175 567.024L35.0095 568V572.736Z" fill="#FF0000"/>
<path d="M52.264 579.776H50.792V576.032L51.528 574.752L52.264 576.048V579.776ZM47.608 566.496L48.104 566H54.952L55.448 566.496L54.472 567.488H48.584L47.608 566.496ZM50.792 568.224H52.264V571.968L51.528 573.264L50.792 572V568.224ZM55.448 581.504L54.952 582H48.104L47.608 581.504L48.584 580.512H54.472L55.448 581.504ZM54.984 575.264L55.88 574.368H56.472V580.48L55.976 580.976L54.984 580V575.264ZM55.976 567.024L56.472 567.52V573.632H55.88L54.984 572.736V568.016L55.976 567.024Z" fill="#FF0000"/>
<path d="M61.6465 574.736L60.9105 574L61.6465 573.264H63.7265L64.1585 574.016L63.7265 574.736H61.6465ZM60.6705 566.496L61.1665 566H68.0145L68.5105 566.496L67.5345 567.488H61.6465L60.6705 566.496ZM68.5105 581.504L68.0145 582H61.1665L60.6705 581.504L61.6465 580.512H67.5345L68.5105 581.504ZM68.0465 575.264L68.9425 574.368H69.5345V580.48L69.0385 580.976L68.0465 580V575.264ZM61.1345 572.736L60.2385 573.632H59.6465V567.52L60.1425 567.024L61.1345 568V572.736ZM67.5345 573.264L68.2705 574L67.5345 574.736H65.4385L65.0065 574.016L65.4545 573.264H67.5345Z" fill="#FF0000"/>
</svg>
