<svg width="64" height="465" viewBox="0 0 64 465" fill="none" xmlns="http://www.w3.org/2000/svg">
<rect width="64" height="31" fill="black" fill-opacity="0.01"/>
<path d="M21.0175 22.976L20.5215 22.48V16.368H21.1135L21.2575 16.528L22.0095 17.264V20.512V21.776V22L21.0175 22.976ZM29.3855 23.504L28.8895 24H22.0415L21.5455 23.504L22.5215 22.512H22.5535H24.7295H26.2015H28.3775H28.4095L29.3855 23.504ZM22.0095 14.736L21.1135 15.632H20.5215V9.52L21.0175 9.024L22.0095 10V10.224V11.488V14.736ZM35.584 16.736L34.848 16L35.584 15.264H37.248H37.664L38.096 16.016L37.664 16.736H35.808H35.584ZM41.984 17.264L42.88 16.368H43.472V22.48L42.976 22.976L41.984 22V21.776V20.512V17.264ZM42.976 9.024L43.472 9.52V15.632H42.88L41.984 14.736V14.288V11.488V10.224V10.016L42.976 9.024ZM35.072 14.736L34.176 15.632H33.584V9.52L34.08 9.024L35.072 10V10.224V11.488V14.736ZM41.472 15.264L42.208 16L41.472 16.736H41.248H40.016H39.376L38.944 16.016L39.392 15.264H39.808H41.472Z" fill="#FF0000"/>
<rect y="31" width="64" height="31" fill="black" fill-opacity="0.01"/>
<path d="M21.0175 53.976L20.5215 53.48V47.368H21.1135L21.2575 47.528L22.0095 48.264V51.512V52.776V53L21.0175 53.976ZM29.3855 54.504L28.8895 55H22.0415L21.5455 54.504L22.5215 53.512H22.5535H24.7295H26.2015H28.3775H28.4095L29.3855 54.504ZM22.0095 45.736L21.1135 46.632H20.5215V40.52L21.0175 40.024L22.0095 41V41.224V42.488V45.736ZM35.584 47.736L34.848 47L35.584 46.264H37.248H37.664L38.096 47.016L37.664 47.736H35.808H35.584ZM34.608 39.496L35.104 39H41.952L42.448 39.496L41.472 40.488H41.44H39.264H37.792H35.616H35.584L34.608 39.496ZM42.448 54.504L41.952 55H35.104L34.608 54.504L35.584 53.512H35.616H37.792H39.264H41.44H41.472L42.448 54.504ZM41.984 48.264L42.88 47.368H43.472V53.48L42.976 53.976L41.984 53V52.776V51.512V48.264ZM42.976 40.024L43.472 40.52V46.632H42.88L41.984 45.736V45.288V42.488V41.224V41.016L42.976 40.024ZM41.472 46.264L42.208 47L41.472 47.736H41.248H40.016H39.376L38.944 47.016L39.392 46.264H39.808H41.472Z" fill="#FF0000"/>
<rect y="62" width="64" height="31" fill="black" fill-opacity="0.01"/>
<path d="M21.0175 84.976L20.5215 84.48V78.368H21.1135L21.2575 78.528L22.0095 79.264V82.512V83.776V84L21.0175 84.976ZM29.3855 85.504L28.8895 86H22.0415L21.5455 85.504L22.5215 84.512H22.5535H24.7295H26.2015H28.3775H28.4095L29.3855 85.504ZM22.0095 76.736L21.1135 77.632H20.5215V71.52L21.0175 71.024L22.0095 72V72.224V73.488V76.736ZM35.584 78.736L34.848 78L35.584 77.264H37.248H37.664L38.096 78.016L37.664 78.736H35.808H35.584ZM34.608 70.496L35.104 70H41.952L42.448 70.496L41.472 71.488H41.44H39.264H37.792H35.616H35.584L34.608 70.496ZM34.08 84.976L33.584 84.48V78.368H34.176L34.32 78.528L35.072 79.264V82.512V83.776V84L34.08 84.976ZM42.448 85.504L41.952 86H35.104L34.608 85.504L35.584 84.512H35.616H37.792H39.264H41.44H41.472L42.448 85.504ZM42.976 71.024L43.472 71.52V77.632H42.88L41.984 76.736V76.288V73.488V72.224V72.016L42.976 71.024ZM41.472 77.264L42.208 78L41.472 78.736H41.248H40.016H39.376L38.944 78.016L39.392 77.264H39.808H41.472Z" fill="#FF0000"/>
<rect y="93" width="64" height="31" fill="black" fill-opacity="0.01"/>
<path d="M21.0175 115.976L20.5215 115.48V109.368H21.1135L21.2575 109.528L22.0095 110.264V113.512V114.776V115L21.0175 115.976ZM29.3855 116.504L28.8895 117H22.0415L21.5455 116.504L22.5215 115.512H22.5535H24.7295H26.2015H28.3775H28.4095L29.3855 116.504ZM22.0095 107.736L21.1135 108.632H20.5215V102.52L21.0175 102.024L22.0095 103V103.224V104.488V107.736ZM41.984 110.264L42.88 109.368H43.472V115.48L42.976 115.976L41.984 115V114.776V113.512V110.264ZM42.976 102.024L43.472 102.52V108.632H42.88L41.984 107.736V107.288V104.488V103.224V103.016L42.976 102.024Z" fill="#FF0000"/>
<rect y="124" width="64" height="31" fill="black" fill-opacity="0.01"/>
<path d="M22.5215 140.736L21.7855 140L22.5215 139.264H24.1855H24.6015L25.0335 140.016L24.6015 140.736H22.7455H22.5215ZM21.0175 146.976L20.5215 146.48V140.368H21.1135L21.2575 140.528L22.0095 141.264V144.512V145.776V146L21.0175 146.976ZM28.9215 141.264L29.8175 140.368H30.4095V146.48L29.9135 146.976L28.9215 146V145.776V144.512V141.264ZM29.9135 133.024L30.4095 133.52V139.632H29.8175L28.9215 138.736V138.288V135.488V134.224V134.016L29.9135 133.024ZM22.0095 138.736L21.1135 139.632H20.5215V133.52L21.0175 133.024L22.0095 134V134.224V135.488V138.736ZM28.4095 139.264L29.1455 140L28.4095 140.736H28.1855H26.9535H26.3135L25.8815 140.016L26.3295 139.264H26.7455H28.4095ZM35.584 140.736L34.848 140L35.584 139.264H37.248H37.664L38.096 140.016L37.664 140.736H35.808H35.584ZM34.608 132.496L35.104 132H41.952L42.448 132.496L41.472 133.488H41.44H39.264H37.792H35.616H35.584L34.608 132.496ZM42.448 147.504L41.952 148H35.104L34.608 147.504L35.584 146.512H35.616H37.792H39.264H41.44H41.472L42.448 147.504ZM41.984 141.264L42.88 140.368H43.472V146.48L42.976 146.976L41.984 146V145.776V144.512V141.264ZM42.976 133.024L43.472 133.52V139.632H42.88L41.984 138.736V138.288V135.488V134.224V134.016L42.976 133.024ZM41.472 139.264L42.208 140L41.472 140.736H41.248H40.016H39.376L38.944 140.016L39.392 139.264H39.808H41.472Z" fill="#FF0000"/>
<rect y="155" width="64" height="31" fill="black" fill-opacity="0.01"/>
<path d="M22.5215 171.736L21.7855 171L22.5215 170.264H24.1855H24.6015L25.0335 171.016L24.6015 171.736H22.7455H22.5215ZM21.0175 177.976L20.5215 177.48V171.368H21.1135L21.2575 171.528L22.0095 172.264V175.512V176.776V177L21.0175 177.976ZM28.9215 172.264L29.8175 171.368H30.4095V177.48L29.9135 177.976L28.9215 177V176.776V175.512V172.264ZM29.9135 164.024L30.4095 164.52V170.632H29.8175L28.9215 169.736V169.288V166.488V165.224V165.016L29.9135 164.024ZM22.0095 169.736L21.1135 170.632H20.5215V164.52L21.0175 164.024L22.0095 165V165.224V166.488V169.736ZM28.4095 170.264L29.1455 171L28.4095 171.736H28.1855H26.9535H26.3135L25.8815 171.016L26.3295 170.264H26.7455H28.4095ZM35.584 171.736L34.848 171L35.584 170.264H37.248H37.664L38.096 171.016L37.664 171.736H35.808H35.584ZM34.608 163.496L35.104 163H41.952L42.448 163.496L41.472 164.488H41.44H39.264H37.792H35.616H35.584L34.608 163.496ZM34.08 177.976L33.584 177.48V171.368H34.176L34.32 171.528L35.072 172.264V175.512V176.776V177L34.08 177.976ZM42.448 178.504L41.952 179H35.104L34.608 178.504L35.584 177.512H35.616H37.792H39.264H41.44H41.472L42.448 178.504ZM42.976 164.024L43.472 164.52V170.632H42.88L41.984 169.736V169.288V166.488V165.224V165.016L42.976 164.024ZM41.472 170.264L42.208 171L41.472 171.736H41.248H40.016H39.376L38.944 171.016L39.392 170.264H39.808H41.472Z" fill="#FF0000"/>
<rect y="186" width="64" height="31" fill="black" fill-opacity="0.01"/>
<path d="M22.5215 202.736L21.7855 202L22.5215 201.264H24.1855H24.6015L25.0335 202.016L24.6015 202.736H22.7455H22.5215ZM21.0175 208.976L20.5215 208.48V202.368H21.1135L21.2575 202.528L22.0095 203.264V206.512V207.776V208L21.0175 208.976ZM28.9215 203.264L29.8175 202.368H30.4095V208.48L29.9135 208.976L28.9215 208V207.776V206.512V203.264ZM29.9135 195.024L30.4095 195.52V201.632H29.8175L28.9215 200.736V200.288V197.488V196.224V196.016L29.9135 195.024ZM22.0095 200.736L21.1135 201.632H20.5215V195.52L21.0175 195.024L22.0095 196V196.224V197.488V200.736ZM28.4095 201.264L29.1455 202L28.4095 202.736H28.1855H26.9535H26.3135L25.8815 202.016L26.3295 201.264H26.7455H28.4095ZM41.984 203.264L42.88 202.368H43.472V208.48L42.976 208.976L41.984 208V207.776V206.512V203.264ZM42.976 195.024L43.472 195.52V201.632H42.88L41.984 200.736V200.288V197.488V196.224V196.016L42.976 195.024Z" fill="#FF0000"/>
<rect y="217" width="64" height="31" fill="black" fill-opacity="0.01"/>
<path d="M26.2015 238.488V238.776H24.7295V235.768V235.032L25.4655 233.752L26.2015 235.048V235.768V238.488ZM21.5455 225.496L22.0415 225H28.8895L29.3855 225.496L28.4095 226.488H28.3775H26.2015H24.7295H22.5535H22.5215L21.5455 225.496ZM24.7295 227.224H26.2015V230.232V230.968L25.4655 232.264L24.7295 231V230.232V227.224ZM29.3855 240.504L28.8895 241H22.0415L21.5455 240.504L22.5215 239.512H22.5535H24.7295H26.2015H28.3775H28.4095L29.3855 240.504ZM28.9215 234.264L29.8175 233.368H30.4095V239.48L29.9135 239.976L28.9215 239V238.776V237.512V234.264ZM29.9135 226.024L30.4095 226.52V232.632H29.8175L28.9215 231.736V231.288V228.488V227.224V227.016L29.9135 226.024ZM28.4095 232.264L29.1455 233L28.4095 233.736H28.1855H26.9535H26.3135L25.8815 233.016L26.3295 232.264H26.7455H28.4095ZM35.584 233.736L34.848 233L35.584 232.264H37.248H37.664L38.096 233.016L37.664 233.736H35.808H35.584ZM41.984 234.264L42.88 233.368H43.472V239.48L42.976 239.976L41.984 239V238.776V237.512V234.264ZM42.976 226.024L43.472 226.52V232.632H42.88L41.984 231.736V231.288V228.488V227.224V227.016L42.976 226.024ZM35.072 231.736L34.176 232.632H33.584V226.52L34.08 226.024L35.072 227V227.224V228.488V231.736ZM41.472 232.264L42.208 233L41.472 233.736H41.248H40.016H39.376L38.944 233.016L39.392 232.264H39.808H41.472Z" fill="#FF0000"/>
<rect y="248" width="64" height="31" fill="black" fill-opacity="0.01"/>
<path d="M26.2015 269.488V269.776H24.7295V266.768V266.032L25.4655 264.752L26.2015 266.048V266.768V269.488ZM21.5455 256.496L22.0415 256H28.8895L29.3855 256.496L28.4095 257.488H28.3775H26.2015H24.7295H22.5535H22.5215L21.5455 256.496ZM24.7295 258.224H26.2015V261.232V261.968L25.4655 263.264L24.7295 262V261.232V258.224ZM29.3855 271.504L28.8895 272H22.0415L21.5455 271.504L22.5215 270.512H22.5535H24.7295H26.2015H28.3775H28.4095L29.3855 271.504ZM28.9215 265.264L29.8175 264.368H30.4095V270.48L29.9135 270.976L28.9215 270V269.776V268.512V265.264ZM29.9135 257.024L30.4095 257.52V263.632H29.8175L28.9215 262.736V262.288V259.488V258.224V258.016L29.9135 257.024ZM28.4095 263.264L29.1455 264L28.4095 264.736H28.1855H26.9535H26.3135L25.8815 264.016L26.3295 263.264H26.7455H28.4095ZM35.584 264.736L34.848 264L35.584 263.264H37.248H37.664L38.096 264.016L37.664 264.736H35.808H35.584ZM34.608 256.496L35.104 256H41.952L42.448 256.496L41.472 257.488H41.44H39.264H37.792H35.616H35.584L34.608 256.496ZM34.08 270.976L33.584 270.48V264.368H34.176L34.32 264.528L35.072 265.264V268.512V269.776V270L34.08 270.976ZM42.448 271.504L41.952 272H35.104L34.608 271.504L35.584 270.512H35.616H37.792H39.264H41.44H41.472L42.448 271.504ZM42.976 257.024L43.472 257.52V263.632H42.88L41.984 262.736V262.288V259.488V258.224V258.016L42.976 257.024ZM41.472 263.264L42.208 264L41.472 264.736H41.248H40.016H39.376L38.944 264.016L39.392 263.264H39.808H41.472Z" fill="#FF0000"/>
<rect y="279" width="64" height="31" fill="black" fill-opacity="0.01"/>
<path d="M23.9775 293.512H23.7535L22.7455 291.768V289.224H22.9855L23.9775 290.952V293.512ZM26.9535 296.488H27.1775L28.1855 298.232V300.776H27.9455L26.9535 299.048V296.488ZM21.0175 301.976L20.5215 301.48V295.368H21.1135L21.2575 295.528L22.0095 296.264V299.512V300.776V301L21.0175 301.976ZM28.9215 296.264L29.8175 295.368H30.4095V301.48L29.9135 301.976L28.9215 301V300.776V299.512V296.264ZM29.9135 288.024L30.4095 288.52V294.632H29.8175L28.9215 293.736V293.288V290.488V289.224V289.016L29.9135 288.024ZM22.0095 293.736L21.1135 294.632H20.5215V288.52L21.0175 288.024L22.0095 289V289.224V290.488V293.736ZM35.584 295.736L34.848 295L35.584 294.264H37.248H37.664L38.096 295.016L37.664 295.736H35.808H35.584ZM34.608 287.496L35.104 287H41.952L42.448 287.496L41.472 288.488H41.44H39.264H37.792H35.616H35.584L34.608 287.496ZM34.08 301.976L33.584 301.48V295.368H34.176L34.32 295.528L35.072 296.264V299.512V300.776V301L34.08 301.976ZM42.448 302.504L41.952 303H35.104L34.608 302.504L35.584 301.512H35.616H37.792H39.264H41.44H41.472L42.448 302.504ZM42.976 288.024L43.472 288.52V294.632H42.88L41.984 293.736V293.288V290.488V289.224V289.016L42.976 288.024ZM41.472 294.264L42.208 295L41.472 295.736H41.248H40.016H39.376L38.944 295.016L39.392 294.264H39.808H41.472Z" fill="#FF0000"/>
<rect y="310" width="64" height="31" fill="black" fill-opacity="0.01"/>
<path d="M22.5215 326.736L21.7855 326L22.5215 325.264H24.1855H24.6015L25.0335 326.016L24.6015 326.736H22.7455H22.5215ZM21.5455 318.496L22.0415 318H28.8895L29.3855 318.496L28.4095 319.488H28.3775H26.2015H24.7295H22.5535H22.5215L21.5455 318.496ZM21.0175 332.976L20.5215 332.48V326.368H21.1135L21.2575 326.528L22.0095 327.264V330.512V331.776V332L21.0175 332.976ZM29.9135 319.024L30.4095 319.52V325.632H29.8175L28.9215 324.736V324.288V321.488V320.224V320.016L29.9135 319.024ZM22.0095 324.736L21.1135 325.632H20.5215V319.52L21.0175 319.024L22.0095 320V320.224V321.488V324.736ZM28.4095 325.264L29.1455 326L28.4095 326.736H28.1855H26.9535H26.3135L25.8815 326.016L26.3295 325.264H26.7455H28.4095ZM35.584 326.736L34.848 326L35.584 325.264H37.248H37.664L38.096 326.016L37.664 326.736H35.808H35.584ZM34.608 318.496L35.104 318H41.952L42.448 318.496L41.472 319.488H41.44H39.264H37.792H35.616H35.584L34.608 318.496ZM42.448 333.504L41.952 334H35.104L34.608 333.504L35.584 332.512H35.616H37.792H39.264H41.44H41.472L42.448 333.504ZM41.984 327.264L42.88 326.368H43.472V332.48L42.976 332.976L41.984 332V331.776V330.512V327.264ZM42.976 319.024L43.472 319.52V325.632H42.88L41.984 324.736V324.288V321.488V320.224V320.016L42.976 319.024ZM41.472 325.264L42.208 326L41.472 326.736H41.248H40.016H39.376L38.944 326.016L39.392 325.264H39.808H41.472Z" fill="#FF0000"/>
<rect y="341" width="64" height="31" fill="black" fill-opacity="0.01"/>
<path d="M9.459 357.736L8.723 357L9.459 356.264H11.123H11.539L11.971 357.016L11.539 357.736H9.683H9.459ZM7.955 363.976L7.459 363.48V357.368H8.051L8.195 357.528L8.947 358.264V361.512V362.776V363L7.955 363.976ZM15.859 358.264L16.755 357.368H17.347V363.48L16.851 363.976L15.859 363V362.776V361.512V358.264ZM16.851 350.024L17.347 350.52V356.632H16.755L15.859 355.736V355.288V352.488V351.224V351.016L16.851 350.024ZM8.947 355.736L8.051 356.632H7.459V350.52L7.955 350.024L8.947 351V351.224V352.488V355.736ZM15.347 356.264L16.083 357L15.347 357.736H15.123H13.891H13.251L12.819 357.016L13.267 356.264H13.683H15.347ZM22.5215 357.736L21.7855 357L22.5215 356.264H24.1855H24.6015L25.0335 357.016L24.6015 357.736H22.7455H22.5215ZM21.5455 349.496L22.0415 349H28.8895L29.3855 349.496L28.4095 350.488H28.3775H26.2015H24.7295H22.5535H22.5215L21.5455 349.496ZM21.0175 363.976L20.5215 363.48V357.368H21.1135L21.2575 357.528L22.0095 358.264V361.512V362.776V363L21.0175 363.976ZM29.3855 364.504L28.8895 365H22.0415L21.5455 364.504L22.5215 363.512H22.5535H24.7295H26.2015H28.3775H28.4095L29.3855 364.504ZM29.9135 350.024L30.4095 350.52V356.632H29.8175L28.9215 355.736V355.288V352.488V351.224V351.016L29.9135 350.024ZM28.4095 356.264L29.1455 357L28.4095 357.736H28.1855H26.9535H26.3135L25.8815 357.016L26.3295 356.264H26.7455H28.4095ZM34.08 363.976L33.584 363.48V357.368H34.176L34.32 357.528L35.072 358.264V361.512V362.776V363L34.08 363.976ZM42.448 364.504L41.952 365H35.104L34.608 364.504L35.584 363.512H35.616H37.792H39.264H41.44H41.472L42.448 364.504ZM35.072 355.736L34.176 356.632H33.584V350.52L34.08 350.024L35.072 351V351.224V352.488V355.736ZM55.0465 358.264L55.9425 357.368H56.5345V363.48L56.0385 363.976L55.0465 363V362.776V361.512V358.264ZM56.0385 350.024L56.5345 350.52V356.632H55.9425L55.0465 355.736V355.288V352.488V351.224V351.016L56.0385 350.024Z" fill="#FF0000"/>
<rect y="372" width="64" height="31" fill="black" fill-opacity="0.01"/>
<path d="M9.459 388.736L8.723 388L9.459 387.264H11.123H11.539L11.971 388.016L11.539 388.736H9.683H9.459ZM7.955 394.976L7.459 394.48V388.368H8.051L8.195 388.528L8.947 389.264V392.512V393.776V394L7.955 394.976ZM15.859 389.264L16.755 388.368H17.347V394.48L16.851 394.976L15.859 394V393.776V392.512V389.264ZM16.851 381.024L17.347 381.52V387.632H16.755L15.859 386.736V386.288V383.488V382.224V382.016L16.851 381.024ZM8.947 386.736L8.051 387.632H7.459V381.52L7.955 381.024L8.947 382V382.224V383.488V386.736ZM15.347 387.264L16.083 388L15.347 388.736H15.123H13.891H13.251L12.819 388.016L13.267 387.264H13.683H15.347ZM22.5215 388.736L21.7855 388L22.5215 387.264H24.1855H24.6015L25.0335 388.016L24.6015 388.736H22.7455H22.5215ZM21.5455 380.496L22.0415 380H28.8895L29.3855 380.496L28.4095 381.488H28.3775H26.2015H24.7295H22.5535H22.5215L21.5455 380.496ZM29.3855 395.504L28.8895 396H22.0415L21.5455 395.504L22.5215 394.512H22.5535H24.7295H26.2015H28.3775H28.4095L29.3855 395.504ZM28.9215 389.264L29.8175 388.368H30.4095V394.48L29.9135 394.976L28.9215 394V393.776V392.512V389.264ZM29.9135 381.024L30.4095 381.52V387.632H29.8175L28.9215 386.736V386.288V383.488V382.224V382.016L29.9135 381.024ZM28.4095 387.264L29.1455 388L28.4095 388.736H28.1855H26.9535H26.3135L25.8815 388.016L26.3295 387.264H26.7455H28.4095ZM34.08 394.976L33.584 394.48V388.368H34.176L34.32 388.528L35.072 389.264V392.512V393.776V394L34.08 394.976ZM42.448 395.504L41.952 396H35.104L34.608 395.504L35.584 394.512H35.616H37.792H39.264H41.44H41.472L42.448 395.504ZM35.072 386.736L34.176 387.632H33.584V381.52L34.08 381.024L35.072 382V382.224V383.488V386.736ZM55.0465 389.264L55.9425 388.368H56.5345V394.48L56.0385 394.976L55.0465 394V393.776V392.512V389.264ZM56.0385 381.024L56.5345 381.52V387.632H55.9425L55.0465 386.736V386.288V383.488V382.224V382.016L56.0385 381.024Z" fill="#FF0000"/>
<rect y="403" width="64" height="31" fill="black" fill-opacity="0.01"/>
<path d="M10.915 417.512H10.691L9.683 415.768V413.224H9.923L10.915 414.952V417.512ZM13.891 420.488H14.115L15.123 422.232V424.776H14.883L13.891 423.048V420.488ZM7.955 425.976L7.459 425.48V419.368H8.051L8.195 419.528L8.947 420.264V423.512V424.776V425L7.955 425.976ZM15.859 420.264L16.755 419.368H17.347V425.48L16.851 425.976L15.859 425V424.776V423.512V420.264ZM16.851 412.024L17.347 412.52V418.632H16.755L15.859 417.736V417.288V414.488V413.224V413.016L16.851 412.024ZM8.947 417.736L8.051 418.632H7.459V412.52L7.955 412.024L8.947 413V413.224V414.488V417.736ZM22.5215 419.736L21.7855 419L22.5215 418.264H24.1855H24.6015L25.0335 419.016L24.6015 419.736H22.7455H22.5215ZM21.5455 411.496L22.0415 411H28.8895L29.3855 411.496L28.4095 412.488H28.3775H26.2015H24.7295H22.5535H22.5215L21.5455 411.496ZM21.0175 425.976L20.5215 425.48V419.368H21.1135L21.2575 419.528L22.0095 420.264V423.512V424.776V425L21.0175 425.976ZM29.3855 426.504L28.8895 427H22.0415L21.5455 426.504L22.5215 425.512H22.5535H24.7295H26.2015H28.3775H28.4095L29.3855 426.504ZM29.9135 412.024L30.4095 412.52V418.632H29.8175L28.9215 417.736V417.288V414.488V413.224V413.016L29.9135 412.024ZM28.4095 418.264L29.1455 419L28.4095 419.736H28.1855H26.9535H26.3135L25.8815 419.016L26.3295 418.264H26.7455H28.4095ZM34.08 425.976L33.584 425.48V419.368H34.176L34.32 419.528L35.072 420.264V423.512V424.776V425L34.08 425.976ZM42.448 426.504L41.952 427H35.104L34.608 426.504L35.584 425.512H35.616H37.792H39.264H41.44H41.472L42.448 426.504ZM35.072 417.736L34.176 418.632H33.584V412.52L34.08 412.024L35.072 413V413.224V414.488V417.736ZM55.0465 420.264L55.9425 419.368H56.5345V425.48L56.0385 425.976L55.0465 425V424.776V423.512V420.264ZM56.0385 412.024L56.5345 412.52V418.632H55.9425L55.0465 417.736V417.288V414.488V413.224V413.016L56.0385 412.024Z" fill="#FF0000"/>
<rect y="434" width="64" height="31" fill="black" fill-opacity="0.01"/>
<path d="M9.459 450.736L8.723 450L9.459 449.264H11.123H11.539L11.971 450.016L11.539 450.736H9.683H9.459ZM8.483 442.496L8.979 442H15.827L16.323 442.496L15.347 443.488H15.315H13.139H11.667H9.491H9.459L8.483 442.496ZM7.955 456.976L7.459 456.48V450.368H8.051L8.195 450.528L8.947 451.264V454.512V455.776V456L7.955 456.976ZM16.851 443.024L17.347 443.52V449.632H16.755L15.859 448.736V448.288V445.488V444.224V444.016L16.851 443.024ZM8.947 448.736L8.051 449.632H7.459V443.52L7.955 443.024L8.947 444V444.224V445.488V448.736ZM15.347 449.264L16.083 450L15.347 450.736H15.123H13.891H13.251L12.819 450.016L13.267 449.264H13.683H15.347ZM22.5215 450.736L21.7855 450L22.5215 449.264H24.1855H24.6015L25.0335 450.016L24.6015 450.736H22.7455H22.5215ZM21.5455 442.496L22.0415 442H28.8895L29.3855 442.496L28.4095 443.488H28.3775H26.2015H24.7295H22.5535H22.5215L21.5455 442.496ZM29.3855 457.504L28.8895 458H22.0415L21.5455 457.504L22.5215 456.512H22.5535H24.7295H26.2015H28.3775H28.4095L29.3855 457.504ZM28.9215 451.264L29.8175 450.368H30.4095V456.48L29.9135 456.976L28.9215 456V455.776V454.512V451.264ZM29.9135 443.024L30.4095 443.52V449.632H29.8175L28.9215 448.736V448.288V445.488V444.224V444.016L29.9135 443.024ZM28.4095 449.264L29.1455 450L28.4095 450.736H28.1855H26.9535H26.3135L25.8815 450.016L26.3295 449.264H26.7455H28.4095ZM34.08 456.976L33.584 456.48V450.368H34.176L34.32 450.528L35.072 451.264V454.512V455.776V456L34.08 456.976ZM42.448 457.504L41.952 458H35.104L34.608 457.504L35.584 456.512H35.616H37.792H39.264H41.44H41.472L42.448 457.504ZM35.072 448.736L34.176 449.632H33.584V443.52L34.08 443.024L35.072 444V444.224V445.488V448.736ZM55.0465 451.264L55.9425 450.368H56.5345V456.48L56.0385 456.976L55.0465 456V455.776V454.512V451.264ZM56.0385 443.024L56.5345 443.52V449.632H55.9425L55.0465 448.736V448.288V445.488V444.224V444.016L56.0385 443.024Z" fill="#FF0000"/>
</svg>
