<svg width="107" height="719" viewBox="0 0 107 719" fill="none" xmlns="http://www.w3.org/2000/svg">
<g clip-path="url(#clip0_141_1242)">
<path d="M3.85798 8.496L4.35398 8H11.202L11.698 8.496L10.722 9.488H4.83398L3.85798 8.496ZM3.32998 22.976L2.83398 22.48V16.368H3.42598L3.56998 16.528L4.32198 17.264V22L3.32998 22.976ZM11.698 23.504L11.202 24H4.35398L3.85798 23.504L4.83398 22.512H10.722L11.698 23.504ZM11.234 17.264L12.13 16.368H12.722V22.48L12.226 22.976L11.234 22V17.264ZM12.226 9.024L12.722 9.52V15.632H12.13L11.234 14.736V10.016L12.226 9.024ZM4.32198 14.736L3.42598 15.632H2.83398V9.52L3.32998 9.024L4.32198 10V14.736Z" fill="#FF0000"/>
<path d="M19.3525 14.512H19.1285L18.1205 12.768V10.224H18.3605L19.3525 11.952V14.512ZM16.9205 8.496L17.4165 8H24.2645L24.7605 8.496L23.7845 9.488H17.8965L16.9205 8.496ZM24.7605 23.504L24.2645 24H17.4165L16.9205 23.504L17.8965 22.512H23.7845L24.7605 23.504ZM24.2965 17.264L25.1925 16.368H25.7845V22.48L25.2885 22.976L24.2965 22V17.264ZM23.7845 15.264L24.5205 16L23.7845 16.736H21.6885L21.2565 16.016L21.7045 15.264H23.7845Z" fill="#FF0000"/>
<path d="M29.983 8.496L30.479 8H37.327L37.823 8.496L36.847 9.488H30.959L29.983 8.496ZM29.455 22.976L28.959 22.48V16.368H29.551L29.695 16.528L30.447 17.264V22L29.455 22.976ZM37.823 23.504L37.327 24H30.479L29.983 23.504L30.959 22.512H36.847L37.823 23.504ZM30.447 14.736L29.551 15.632H28.959V9.52L29.455 9.024L30.447 10V14.736Z" fill="#FF0000"/>
<path d="M44.0215 16.736L43.2855 16L44.0215 15.264H46.1015L46.5335 16.016L46.1015 16.736H44.0215ZM43.0455 8.496L43.5415 8H50.3895L50.8855 8.496L49.9095 9.488H44.0215L43.0455 8.496ZM42.5175 22.976L42.0215 22.48V16.368H42.6135L42.7575 16.528L43.5095 17.264V22L42.5175 22.976ZM51.4135 9.024L51.9095 9.52V15.632H51.3175L50.4215 14.736V10.016L51.4135 9.024ZM43.5095 14.736L42.6135 15.632H42.0215V9.52L42.5175 9.024L43.5095 10V14.736ZM49.9095 15.264L50.6455 16L49.9095 16.736H47.8135L47.3815 16.016L47.8295 15.264H49.9095Z" fill="#FF0000"/>
<path d="M60.764 21.776H59.292V18.032L60.028 16.752L60.764 18.048V21.776ZM56.108 8.496L56.604 8H63.452L63.948 8.496L62.972 9.488H57.084L56.108 8.496ZM59.292 10.224H60.764V13.968L60.028 15.264L59.292 14V10.224ZM63.948 23.504L63.452 24H56.604L56.108 23.504L57.084 22.512H62.972L63.948 23.504Z" fill="#FF0000"/>
<path d="M73.8265 21.776H72.3545V18.032L73.0905 16.752L73.8265 18.048V21.776ZM69.1705 8.496L69.6665 8H76.5145L77.0105 8.496L76.0345 9.488H70.1465L69.1705 8.496ZM72.3545 10.224H73.8265V13.968L73.0905 15.264L72.3545 14V10.224Z" fill="#FF0000"/>
<path d="M82.233 8.496L82.729 8H89.577L90.073 8.496L89.097 9.488H83.209L82.233 8.496ZM81.705 22.976L81.209 22.48V16.368H81.801L81.945 16.528L82.697 17.264V22L81.705 22.976ZM90.073 23.504L89.577 24H82.729L82.233 23.504L83.209 22.512H89.097L90.073 23.504ZM82.697 14.736L81.801 15.632H81.209V9.52L81.705 9.024L82.697 10V14.736Z" fill="#FF0000"/>
<path d="M96.2715 16.736L95.5355 16L96.2715 15.264H98.3515L98.7835 16.016L98.3515 16.736H96.2715ZM94.7675 22.976L94.2715 22.48V16.368H94.8635L95.0075 16.528L95.7595 17.264V22L94.7675 22.976ZM102.671 17.264L103.567 16.368H104.159V22.48L103.663 22.976L102.671 22V17.264ZM103.663 9.024L104.159 9.52V15.632H103.567L102.671 14.736V10.016L103.663 9.024ZM95.7595 14.736L94.8635 15.632H94.2715V9.52L94.7675 9.024L95.7595 10V14.736ZM102.159 15.264L102.895 16L102.159 16.736H100.063L99.6315 16.016L100.079 15.264H102.159Z" fill="#FF0000"/>
<path d="M3.85798 39.496L4.35398 39H11.202L11.698 39.496L10.722 40.488H4.83398L3.85798 39.496ZM3.32998 53.976L2.83398 53.48V47.368H3.42598L3.56998 47.528L4.32198 48.264V53L3.32998 53.976ZM11.698 54.504L11.202 55H4.35398L3.85798 54.504L4.83398 53.512H10.722L11.698 54.504ZM11.234 48.264L12.13 47.368H12.722V53.48L12.226 53.976L11.234 53V48.264ZM12.226 40.024L12.722 40.52V46.632H12.13L11.234 45.736V41.016L12.226 40.024ZM4.32198 45.736L3.42598 46.632H2.83398V40.52L3.32998 40.024L4.32198 41V45.736Z" fill="#FF0000"/>
<path d="M19.3525 45.512H19.1285L18.1205 43.768V41.224H18.3605L19.3525 42.952V45.512ZM16.9205 39.496L17.4165 39H24.2645L24.7605 39.496L23.7845 40.488H17.8965L16.9205 39.496ZM24.7605 54.504L24.2645 55H17.4165L16.9205 54.504L17.8965 53.512H23.7845L24.7605 54.504ZM24.2965 48.264L25.1925 47.368H25.7845V53.48L25.2885 53.976L24.2965 53V48.264ZM23.7845 46.264L24.5205 47L23.7845 47.736H21.6885L21.2565 47.016L21.7045 46.264H23.7845Z" fill="#FF0000"/>
<path d="M29.983 39.496L30.479 39H37.327L37.823 39.496L36.847 40.488H30.959L29.983 39.496ZM29.455 53.976L28.959 53.48V47.368H29.551L29.695 47.528L30.447 48.264V53L29.455 53.976ZM37.823 54.504L37.327 55H30.479L29.983 54.504L30.959 53.512H36.847L37.823 54.504ZM30.447 45.736L29.551 46.632H28.959V40.52L29.455 40.024L30.447 41V45.736Z" fill="#FF0000"/>
<path d="M50.4215 48.264L51.3175 47.368H51.9095V53.48L51.4135 53.976L50.4215 53V48.264ZM51.4135 40.024L51.9095 40.52V46.632H51.3175L50.4215 45.736V41.016L51.4135 40.024Z" fill="#FF0000"/>
<path d="M57.084 47.736L56.348 47L57.084 46.264H59.164L59.596 47.016L59.164 47.736H57.084ZM56.108 39.496L56.604 39H63.452L63.948 39.496L62.972 40.488H57.084L56.108 39.496ZM55.58 53.976L55.084 53.48V47.368H55.676L55.82 47.528L56.572 48.264V53L55.58 53.976ZM64.476 40.024L64.972 40.52V46.632H64.38L63.484 45.736V41.016L64.476 40.024ZM56.572 45.736L55.676 46.632H55.084V40.52L55.58 40.024L56.572 41V45.736ZM62.972 46.264L63.708 47L62.972 47.736H60.876L60.444 47.016L60.892 46.264H62.972Z" fill="#FF0000"/>
<path d="M73.8265 52.776H72.3545V49.032L73.0905 47.752L73.8265 49.048V52.776ZM69.1705 39.496L69.6665 39H76.5145L77.0105 39.496L76.0345 40.488H70.1465L69.1705 39.496ZM72.3545 41.224H73.8265V44.968L73.0905 46.264L72.3545 45V41.224Z" fill="#FF0000"/>
<path d="M82.233 39.496L82.729 39H89.577L90.073 39.496L89.097 40.488H83.209L82.233 39.496ZM81.705 53.976L81.209 53.48V47.368H81.801L81.945 47.528L82.697 48.264V53L81.705 53.976ZM90.073 54.504L89.577 55H82.729L82.233 54.504L83.209 53.512H89.097L90.073 54.504ZM82.697 45.736L81.801 46.632H81.209V40.52L81.705 40.024L82.697 41V45.736Z" fill="#FF0000"/>
<path d="M96.2715 47.736L95.5355 47L96.2715 46.264H98.3515L98.7835 47.016L98.3515 47.736H96.2715ZM94.7675 53.976L94.2715 53.48V47.368H94.8635L95.0075 47.528L95.7595 48.264V53L94.7675 53.976ZM102.671 48.264L103.567 47.368H104.159V53.48L103.663 53.976L102.671 53V48.264ZM103.663 40.024L104.159 40.52V46.632H103.567L102.671 45.736V41.016L103.663 40.024ZM95.7595 45.736L94.8635 46.632H94.2715V40.52L94.7675 40.024L95.7595 41V45.736ZM102.159 46.264L102.895 47L102.159 47.736H100.063L99.6315 47.016L100.079 46.264H102.159Z" fill="#FF0000"/>
<path d="M3.85798 70.496L4.35398 70H11.202L11.698 70.496L10.722 71.488H4.83398L3.85798 70.496ZM3.32998 84.976L2.83398 84.48V78.368H3.42598L3.56998 78.528L4.32198 79.264V84L3.32998 84.976ZM11.698 85.504L11.202 86H4.35398L3.85798 85.504L4.83398 84.512H10.722L11.698 85.504ZM11.234 79.264L12.13 78.368H12.722V84.48L12.226 84.976L11.234 84V79.264ZM12.226 71.024L12.722 71.52V77.632H12.13L11.234 76.736V72.016L12.226 71.024ZM4.32198 76.736L3.42598 77.632H2.83398V71.52L3.32998 71.024L4.32198 72V76.736Z" fill="#FF0000"/>
<path d="M19.3525 76.512H19.1285L18.1205 74.768V72.224H18.3605L19.3525 73.952V76.512ZM16.9205 70.496L17.4165 70H24.2645L24.7605 70.496L23.7845 71.488H17.8965L16.9205 70.496ZM24.7605 85.504L24.2645 86H17.4165L16.9205 85.504L17.8965 84.512H23.7845L24.7605 85.504ZM24.2965 79.264L25.1925 78.368H25.7845V84.48L25.2885 84.976L24.2965 84V79.264ZM23.7845 77.264L24.5205 78L23.7845 78.736H21.6885L21.2565 78.016L21.7045 77.264H23.7845Z" fill="#FF0000"/>
<path d="M29.983 70.496L30.479 70H37.327L37.823 70.496L36.847 71.488H30.959L29.983 70.496ZM29.455 84.976L28.959 84.48V78.368H29.551L29.695 78.528L30.447 79.264V84L29.455 84.976ZM37.823 85.504L37.327 86H30.479L29.983 85.504L30.959 84.512H36.847L37.823 85.504ZM30.447 76.736L29.551 77.632H28.959V71.52L29.455 71.024L30.447 72V76.736Z" fill="#FF0000"/>
<path d="M44.0215 78.736L43.2855 78L44.0215 77.264H46.1015L46.5335 78.016L46.1015 78.736H44.0215ZM43.0455 70.496L43.5415 70H50.3895L50.8855 70.496L49.9095 71.488H44.0215L43.0455 70.496ZM42.5175 84.976L42.0215 84.48V78.368H42.6135L42.7575 78.528L43.5095 79.264V84L42.5175 84.976ZM50.8855 85.504L50.3895 86H43.5415L43.0455 85.504L44.0215 84.512H49.9095L50.8855 85.504ZM51.4135 71.024L51.9095 71.52V77.632H51.3175L50.4215 76.736V72.016L51.4135 71.024ZM49.9095 77.264L50.6455 78L49.9095 78.736H47.8135L47.3815 78.016L47.8295 77.264H49.9095Z" fill="#FF0000"/>
<path d="M57.084 78.736L56.348 78L57.084 77.264H59.164L59.596 78.016L59.164 78.736H57.084ZM56.108 70.496L56.604 70H63.452L63.948 70.496L62.972 71.488H57.084L56.108 70.496ZM55.58 84.976L55.084 84.48V78.368H55.676L55.82 78.528L56.572 79.264V84L55.58 84.976ZM64.476 71.024L64.972 71.52V77.632H64.38L63.484 76.736V72.016L64.476 71.024ZM56.572 76.736L55.676 77.632H55.084V71.52L55.58 71.024L56.572 72V76.736ZM62.972 77.264L63.708 78L62.972 78.736H60.876L60.444 78.016L60.892 77.264H62.972Z" fill="#FF0000"/>
<path d="M73.8265 83.776H72.3545V80.032L73.0905 78.752L73.8265 80.048V83.776ZM69.1705 70.496L69.6665 70H76.5145L77.0105 70.496L76.0345 71.488H70.1465L69.1705 70.496ZM72.3545 72.224H73.8265V75.968L73.0905 77.264L72.3545 76V72.224Z" fill="#FF0000"/>
<path d="M82.233 70.496L82.729 70H89.577L90.073 70.496L89.097 71.488H83.209L82.233 70.496ZM81.705 84.976L81.209 84.48V78.368H81.801L81.945 78.528L82.697 79.264V84L81.705 84.976ZM90.073 85.504L89.577 86H82.729L82.233 85.504L83.209 84.512H89.097L90.073 85.504ZM82.697 76.736L81.801 77.632H81.209V71.52L81.705 71.024L82.697 72V76.736Z" fill="#FF0000"/>
<path d="M96.2715 78.736L95.5355 78L96.2715 77.264H98.3515L98.7835 78.016L98.3515 78.736H96.2715ZM94.7675 84.976L94.2715 84.48V78.368H94.8635L95.0075 78.528L95.7595 79.264V84L94.7675 84.976ZM102.671 79.264L103.567 78.368H104.159V84.48L103.663 84.976L102.671 84V79.264ZM103.663 71.024L104.159 71.52V77.632H103.567L102.671 76.736V72.016L103.663 71.024ZM95.7595 76.736L94.8635 77.632H94.2715V71.52L94.7675 71.024L95.7595 72V76.736ZM102.159 77.264L102.895 78L102.159 78.736H100.063L99.6315 78.016L100.079 77.264H102.159Z" fill="#FF0000"/>
<path d="M21.5765 114.488V114.776H20.1045V111.768V111.032L20.8405 109.752L21.5765 111.048V111.768V114.488ZM16.9205 101.496L17.4165 101H24.2645L24.7605 101.496L23.7845 102.488H23.7525H21.5765H20.1045H17.9285H17.8965L16.9205 101.496ZM20.1045 103.224H21.5765V106.232V106.968L20.8405 108.264L20.1045 107V106.232V103.224ZM24.7605 116.504L24.2645 117H17.4165L16.9205 116.504L17.8965 115.512H17.9285H20.1045H21.5765H23.7525H23.7845L24.7605 116.504ZM24.2965 110.264L25.1925 109.368H25.7845V115.48L25.2885 115.976L24.2965 115V114.776V113.512V110.264ZM25.2885 102.024L25.7845 102.52V108.632H25.1925L24.2965 107.736V107.288V104.488V103.224V103.016L25.2885 102.024ZM30.959 109.736L30.223 109L30.959 108.264H32.623H33.039L33.471 109.016L33.039 109.736H31.183H30.959ZM29.983 101.496L30.479 101H37.327L37.823 101.496L36.847 102.488H36.815H34.639H33.167H30.991H30.959L29.983 101.496ZM29.455 115.976L28.959 115.48V109.368H29.551L29.695 109.528L30.447 110.264V113.512V114.776V115L29.455 115.976ZM37.823 116.504L37.327 117H30.479L29.983 116.504L30.959 115.512H30.991H33.167H34.639H36.815H36.847L37.823 116.504ZM30.447 107.736L29.551 108.632H28.959V102.52L29.455 102.024L30.447 103V103.224V104.488V107.736ZM36.847 108.264L37.583 109L36.847 109.736H36.623H35.391H34.751L34.319 109.016L34.767 108.264H35.183H36.847ZM47.7015 114.488V114.776H46.2295V111.768V111.032L46.9655 109.752L47.7015 111.048V111.768V114.488ZM43.0455 101.496L43.5415 101H50.3895L50.8855 101.496L49.9095 102.488H49.8775H47.7015H46.2295H44.0535H44.0215L43.0455 101.496ZM46.2295 103.224H47.7015V106.232V106.968L46.9655 108.264L46.2295 107V106.232V103.224ZM55.58 115.976L55.084 115.48V109.368H55.676L55.82 109.528L56.572 110.264V113.512V114.776V115L55.58 115.976ZM63.948 116.504L63.452 117H56.604L56.108 116.504L57.084 115.512H57.116H59.292H60.764H62.94H62.972L63.948 116.504ZM63.484 110.264L64.38 109.368H64.972V115.48L64.476 115.976L63.484 115V114.776V113.512V110.264ZM64.476 102.024L64.972 102.52V108.632H64.38L63.484 107.736V107.288V104.488V103.224V103.016L64.476 102.024ZM56.572 107.736L55.676 108.632H55.084V102.52L55.58 102.024L56.572 103V103.224V104.488V107.736ZM71.6025 107.512H71.3785L70.3705 105.768V103.224H70.6105L71.6025 104.952V107.512ZM74.5785 110.488H74.8025L75.8105 112.232V114.776H75.5705L74.5785 113.048V110.488ZM68.6425 115.976L68.1465 115.48V109.368H68.7385L68.8825 109.528L69.6345 110.264V113.512V114.776V115L68.6425 115.976ZM76.5465 110.264L77.4425 109.368H78.0345V115.48L77.5385 115.976L76.5465 115V114.776V113.512V110.264ZM77.5385 102.024L78.0345 102.52V108.632H77.4425L76.5465 107.736V107.288V104.488V103.224V103.016L77.5385 102.024ZM69.6345 107.736L68.7385 108.632H68.1465V102.52L68.6425 102.024L69.6345 103V103.224V104.488V107.736ZM83.209 109.736L82.473 109L83.209 108.264H84.873H85.289L85.721 109.016L85.289 109.736H83.433H83.209ZM82.233 101.496L82.729 101H89.577L90.073 101.496L89.097 102.488H89.065H86.889H85.417H83.241H83.209L82.233 101.496ZM81.705 115.976L81.209 115.48V109.368H81.801L81.945 109.528L82.697 110.264V113.512V114.776V115L81.705 115.976ZM90.073 116.504L89.577 117H82.729L82.233 116.504L83.209 115.512H83.241H85.417H86.889H89.065H89.097L90.073 116.504ZM82.697 107.736L81.801 108.632H81.209V102.52L81.705 102.024L82.697 103V103.224V104.488V107.736ZM89.097 108.264L89.833 109L89.097 109.736H88.873H87.641H87.001L86.569 109.016L87.017 108.264H87.433H89.097Z" fill="#FF0000"/>
<path d="M3.33 146.976L2.834 146.48V140.368H3.426L3.57 140.528L4.322 141.264V144.512V145.776V146L3.33 146.976ZM11.698 147.504L11.202 148H4.354L3.858 147.504L4.834 146.512H4.866H7.042H8.514H10.69H10.722L11.698 147.504ZM11.234 141.264L12.13 140.368H12.722V146.48L12.226 146.976L11.234 146V145.776V144.512V141.264ZM12.226 133.024L12.722 133.52V139.632H12.13L11.234 138.736V138.288V135.488V134.224V134.016L12.226 133.024ZM4.322 138.736L3.426 139.632H2.834V133.52L3.33 133.024L4.322 134V134.224V135.488V138.736ZM19.3525 138.512H19.1285L18.1205 136.768V134.224H18.3605L19.3525 135.952V138.512ZM22.3285 141.488H22.5525L23.5605 143.232V145.776H23.3205L22.3285 144.048V141.488ZM16.3925 146.976L15.8965 146.48V140.368H16.4885L16.6325 140.528L17.3845 141.264V144.512V145.776V146L16.3925 146.976ZM24.2965 141.264L25.1925 140.368H25.7845V146.48L25.2885 146.976L24.2965 146V145.776V144.512V141.264ZM25.2885 133.024L25.7845 133.52V139.632H25.1925L24.2965 138.736V138.288V135.488V134.224V134.016L25.2885 133.024ZM17.3845 138.736L16.4885 139.632H15.8965V133.52L16.3925 133.024L17.3845 134V134.224V135.488V138.736ZM34.639 145.488V145.776H33.167V142.768V142.032L33.903 140.752L34.639 142.048V142.768V145.488ZM29.983 132.496L30.479 132H37.327L37.823 132.496L36.847 133.488H36.815H34.639H33.167H30.991H30.959L29.983 132.496ZM33.167 134.224H34.639V137.232V137.968L33.903 139.264L33.167 138V137.232V134.224ZM37.823 147.504L37.327 148H30.479L29.983 147.504L30.959 146.512H30.991H33.167H34.639H36.815H36.847L37.823 147.504ZM47.7015 145.488V145.776H46.2295V142.768V142.032L46.9655 140.752L47.7015 142.048V142.768V145.488ZM43.0455 132.496L43.5415 132H50.3895L50.8855 132.496L49.9095 133.488H49.8775H47.7015H46.2295H44.0535H44.0215L43.0455 132.496ZM46.2295 134.224H47.7015V137.232V137.968L46.9655 139.264L46.2295 138V137.232V134.224ZM50.8855 147.504L50.3895 148H43.5415L43.0455 147.504L44.0215 146.512H44.0535H46.2295H47.7015H49.8775H49.9095L50.8855 147.504ZM50.4215 141.264L51.3175 140.368H51.9095V146.48L51.4135 146.976L50.4215 146V145.776V144.512V141.264ZM51.4135 133.024L51.9095 133.52V139.632H51.3175L50.4215 138.736V138.288V135.488V134.224V134.016L51.4135 133.024ZM57.084 140.736L56.348 140L57.084 139.264H58.748H59.164L59.596 140.016L59.164 140.736H57.308H57.084ZM56.108 132.496L56.604 132H63.452L63.948 132.496L62.972 133.488H62.94H60.764H59.292H57.116H57.084L56.108 132.496ZM55.58 146.976L55.084 146.48V140.368H55.676L55.82 140.528L56.572 141.264V144.512V145.776V146L55.58 146.976ZM63.948 147.504L63.452 148H56.604L56.108 147.504L57.084 146.512H57.116H59.292H60.764H62.94H62.972L63.948 147.504ZM56.572 138.736L55.676 139.632H55.084V133.52L55.58 133.024L56.572 134V134.224V135.488V138.736ZM62.972 139.264L63.708 140L62.972 140.736H62.748H61.516H60.876L60.444 140.016L60.892 139.264H61.308H62.972ZM73.8265 145.488V145.776H72.3545V142.768V142.032L73.0905 140.752L73.8265 142.048V142.768V145.488ZM69.1705 132.496L69.6665 132H76.5145L77.0105 132.496L76.0345 133.488H76.0025H73.8265H72.3545H70.1785H70.1465L69.1705 132.496ZM72.3545 134.224H73.8265V137.232V137.968L73.0905 139.264L72.3545 138V137.232V134.224ZM81.705 146.976L81.209 146.48V140.368H81.801L81.945 140.528L82.697 141.264V144.512V145.776V146L81.705 146.976ZM90.073 147.504L89.577 148H82.729L82.233 147.504L83.209 146.512H83.241H85.417H86.889H89.065H89.097L90.073 147.504ZM89.609 141.264L90.505 140.368H91.097V146.48L90.601 146.976L89.609 146V145.776V144.512V141.264ZM90.601 133.024L91.097 133.52V139.632H90.505L89.609 138.736V138.288V135.488V134.224V134.016L90.601 133.024ZM82.697 138.736L81.801 139.632H81.209V133.52L81.705 133.024L82.697 134V134.224V135.488V138.736ZM97.7275 138.512H97.5035L96.4955 136.768V134.224H96.7355L97.7275 135.952V138.512ZM100.704 141.488H100.928L101.936 143.232V145.776H101.696L100.704 144.048V141.488ZM94.7675 146.976L94.2715 146.48V140.368H94.8635L95.0075 140.528L95.7595 141.264V144.512V145.776V146L94.7675 146.976ZM102.672 141.264L103.568 140.368H104.16V146.48L103.664 146.976L102.672 146V145.776V144.512V141.264ZM103.664 133.024L104.16 133.52V139.632H103.568L102.672 138.736V138.288V135.488V134.224V134.016L103.664 133.024ZM95.7595 138.736L94.8635 139.632H94.2715V133.52L94.7675 133.024L95.7595 134V134.224V135.488V138.736Z" fill="#FF0000"/>
<path d="M17.8965 172.736L17.1605 172L17.8965 171.264H19.9765L20.4085 172.016L19.9765 172.736H17.8965ZM16.9205 164.496L17.4165 164H24.2645L24.7605 164.496L23.7845 165.488H17.8965L16.9205 164.496ZM16.3925 178.976L15.8965 178.48V172.368H16.4885L16.6325 172.528L17.3845 173.264V178L16.3925 178.976ZM25.2885 165.024L25.7845 165.52V171.632H25.1925L24.2965 170.736V166.016L25.2885 165.024ZM17.3845 170.736L16.4885 171.632H15.8965V165.52L16.3925 165.024L17.3845 166V170.736ZM23.7845 171.264L24.5205 172L23.7845 172.736H21.6885L21.2565 172.016L21.7045 171.264H23.7845Z" fill="#FF0000"/>
<path d="M29.455 178.976L28.959 178.48V172.368H29.551L29.695 172.528L30.447 173.264V178L29.455 178.976ZM37.823 179.504L37.327 180H30.479L29.983 179.504L30.959 178.512H36.847L37.823 179.504ZM37.359 173.264L38.255 172.368H38.847V178.48L38.351 178.976L37.359 178V173.264ZM38.351 165.024L38.847 165.52V171.632H38.255L37.359 170.736V166.016L38.351 165.024ZM30.447 170.736L29.551 171.632H28.959V165.52L29.455 165.024L30.447 166V170.736Z" fill="#FF0000"/>
<path d="M42.5175 178.976L42.0215 178.48V172.368H42.6135L42.7575 172.528L43.5095 173.264V178L42.5175 178.976ZM50.8855 179.504L50.3895 180H43.5415L43.0455 179.504L44.0215 178.512H49.9095L50.8855 179.504ZM43.5095 170.736L42.6135 171.632H42.0215V165.52L42.5175 165.024L43.5095 166V170.736Z" fill="#FF0000"/>
<path d="M58.54 170.512H58.316L57.308 168.768V166.224H57.548L58.54 167.952V170.512ZM56.108 164.496L56.604 164H63.452L63.948 164.496L62.972 165.488H57.084L56.108 164.496ZM63.948 179.504L63.452 180H56.604L56.108 179.504L57.084 178.512H62.972L63.948 179.504ZM63.484 173.264L64.38 172.368H64.972V178.48L64.476 178.976L63.484 178V173.264ZM62.972 171.264L63.708 172L62.972 172.736H60.876L60.444 172.016L60.892 171.264H62.972Z" fill="#FF0000"/>
<path d="M70.1465 172.736L69.4105 172L70.1465 171.264H72.2265L72.6585 172.016L72.2265 172.736H70.1465ZM69.1705 164.496L69.6665 164H76.5145L77.0105 164.496L76.0345 165.488H70.1465L69.1705 164.496ZM68.6425 178.976L68.1465 178.48V172.368H68.7385L68.8825 172.528L69.6345 173.264V178L68.6425 178.976ZM77.0105 179.504L76.5145 180H69.6665L69.1705 179.504L70.1465 178.512H76.0345L77.0105 179.504ZM69.6345 170.736L68.7385 171.632H68.1465V165.52L68.6425 165.024L69.6345 166V170.736ZM76.0345 171.264L76.7705 172L76.0345 172.736H73.9385L73.5065 172.016L73.9545 171.264H76.0345Z" fill="#FF0000"/>
<path d="M84.665 173.488V176.048L83.673 177.776H83.433V175.232L84.441 173.488H84.665ZM87.641 173.488H87.865L88.873 175.232V177.776H88.633L87.641 176.048V173.488ZM85.417 166.224H86.889V169.968L86.153 171.264L85.417 170V166.224ZM81.705 178.976L81.209 178.48V172.368H81.801L81.945 172.528L82.697 173.264V178L81.705 178.976ZM89.609 173.264L90.505 172.368H91.097V178.48L90.601 178.976L89.609 178V173.264ZM90.601 165.024L91.097 165.52V171.632H90.505L89.609 170.736V166.016L90.601 165.024ZM82.697 170.736L81.801 171.632H81.209V165.52L81.705 165.024L82.697 166V170.736Z" fill="#FF0000"/>
<path d="M4.83398 206.736L4.09798 206L4.83398 205.264H6.91398L7.34598 206.016L6.91398 206.736H4.83398ZM3.85798 198.496L4.35398 198H11.202L11.698 198.496L10.722 199.488H4.83398L3.85798 198.496ZM3.32998 212.976L2.83398 212.48V206.368H3.42598L3.56998 206.528L4.32198 207.264V212L3.32998 212.976ZM12.226 199.024L12.722 199.52V205.632H12.13L11.234 204.736V200.016L12.226 199.024ZM4.32198 204.736L3.42598 205.632H2.83398V199.52L3.32998 199.024L4.32198 200V204.736ZM10.722 205.264L11.458 206L10.722 206.736H8.62598L8.19398 206.016L8.64198 205.264H10.722Z" fill="#FF0000"/>
<path d="M19.3525 207.488V210.048L18.3605 211.776H18.1205V209.232L19.1285 207.488H19.3525ZM22.3285 207.488H22.5525L23.5605 209.232V211.776H23.3205L22.3285 210.048V207.488ZM20.1045 200.224H21.5765V203.968L20.8405 205.264L20.1045 204V200.224ZM16.3925 212.976L15.8965 212.48V206.368H16.4885L16.6325 206.528L17.3845 207.264V212L16.3925 212.976ZM24.2965 207.264L25.1925 206.368H25.7845V212.48L25.2885 212.976L24.2965 212V207.264ZM25.2885 199.024L25.7845 199.52V205.632H25.1925L24.2965 204.736V200.016L25.2885 199.024ZM17.3845 204.736L16.4885 205.632H15.8965V199.52L16.3925 199.024L17.3845 200V204.736Z" fill="#FF0000"/>
<path d="M29.983 198.496L30.479 198H37.327L37.823 198.496L36.847 199.488H30.959L29.983 198.496ZM29.455 212.976L28.959 212.48V206.368H29.551L29.695 206.528L30.447 207.264V212L29.455 212.976ZM37.823 213.504L37.327 214H30.479L29.983 213.504L30.959 212.512H36.847L37.823 213.504ZM37.359 207.264L38.255 206.368H38.847V212.48L38.351 212.976L37.359 212V207.264ZM38.351 199.024L38.847 199.52V205.632H38.255L37.359 204.736V200.016L38.351 199.024ZM30.447 204.736L29.551 205.632H28.959V199.52L29.455 199.024L30.447 200V204.736Z" fill="#FF0000"/>
<path d="M44.0215 206.736L43.2855 206L44.0215 205.264H46.1015L46.5335 206.016L46.1015 206.736H44.0215ZM43.0455 198.496L43.5415 198H50.3895L50.8855 198.496L49.9095 199.488H44.0215L43.0455 198.496ZM42.5175 212.976L42.0215 212.48V206.368H42.6135L42.7575 206.528L43.5095 207.264V212L42.5175 212.976ZM43.5095 204.736L42.6135 205.632H42.0215V199.52L42.5175 199.024L43.5095 200V204.736ZM49.9095 205.264L50.6455 206L49.9095 206.736H47.8135L47.3815 206.016L47.8295 205.264H49.9095Z" fill="#FF0000"/>
<path d="M57.084 206.736L56.348 206L57.084 205.264H59.164L59.596 206.016L59.164 206.736H57.084ZM56.108 198.496L56.604 198H63.452L63.948 198.496L62.972 199.488H57.084L56.108 198.496ZM55.58 212.976L55.084 212.48V206.368H55.676L55.82 206.528L56.572 207.264V212L55.58 212.976ZM56.572 204.736L55.676 205.632H55.084V199.52L55.58 199.024L56.572 200V204.736ZM62.972 205.264L63.708 206L62.972 206.736H60.876L60.444 206.016L60.892 205.264H62.972Z" fill="#FF0000"/>
<path d="M71.6025 204.512H71.3785L70.3705 202.768V200.224H70.6105L71.6025 201.952V204.512ZM69.1705 198.496L69.6665 198H76.5145L77.0105 198.496L76.0345 199.488H70.1465L69.1705 198.496ZM77.0105 213.504L76.5145 214H69.6665L69.1705 213.504L70.1465 212.512H76.0345L77.0105 213.504ZM76.5465 207.264L77.4425 206.368H78.0345V212.48L77.5385 212.976L76.5465 212V207.264ZM76.0345 205.264L76.7705 206L76.0345 206.736H73.9385L73.5065 206.016L73.9545 205.264H76.0345Z" fill="#FF0000"/>
<path d="M83.209 206.736L82.473 206L83.209 205.264H85.289L85.721 206.016L85.289 206.736H83.209ZM82.233 198.496L82.729 198H89.577L90.073 198.496L89.097 199.488H83.209L82.233 198.496ZM81.705 212.976L81.209 212.48V206.368H81.801L81.945 206.528L82.697 207.264V212L81.705 212.976ZM90.073 213.504L89.577 214H82.729L82.233 213.504L83.209 212.512H89.097L90.073 213.504ZM82.697 204.736L81.801 205.632H81.209V199.52L81.705 199.024L82.697 200V204.736ZM89.097 205.264L89.833 206L89.097 206.736H87.001L86.569 206.016L87.017 205.264H89.097Z" fill="#FF0000"/>
<path d="M99.9515 211.776H98.4795V208.032L99.2155 206.752L99.9515 208.048V211.776ZM95.2955 198.496L95.7915 198H102.639L103.135 198.496L102.159 199.488H96.2715L95.2955 198.496ZM98.4795 200.224H99.9515V203.968L99.2155 205.264L98.4795 204V200.224Z" fill="#FF0000"/>
<path d="M3.85798 231.496L4.35398 231H11.202L11.698 231.496L10.722 232.488H4.83398L3.85798 231.496ZM3.32998 245.976L2.83398 245.48V239.368H3.42598L3.56998 239.528L4.32198 240.264V245L3.32998 245.976ZM11.698 246.504L11.202 247H4.35398L3.85798 246.504L4.83398 245.512H10.722L11.698 246.504ZM4.32198 237.736L3.42598 238.632H2.83398V232.52L3.32998 232.024L4.32198 233V237.736Z" fill="#FF0000"/>
<path d="M17.8965 239.736L17.1605 239L17.8965 238.264H19.9765L20.4085 239.016L19.9765 239.736H17.8965ZM16.9205 231.496L17.4165 231H24.2645L24.7605 231.496L23.7845 232.488H17.8965L16.9205 231.496ZM22.3285 240.488H22.5525L23.5605 242.232V244.776H23.3205L22.3285 243.048V240.488ZM16.3925 245.976L15.8965 245.48V239.368H16.4885L16.6325 239.528L17.3845 240.264V245L16.3925 245.976ZM25.2885 232.024L25.7845 232.52V238.632H25.1925L24.2965 237.736V233.016L25.2885 232.024ZM17.3845 237.736L16.4885 238.632H15.8965V232.52L16.3925 232.024L17.3845 233V237.736ZM23.7845 238.264L24.5205 239L23.7845 239.736H21.6885L21.2565 239.016L21.7045 238.264H23.7845Z" fill="#FF0000"/>
<path d="M29.983 231.496L30.479 231H37.327L37.823 231.496L36.847 232.488H30.959L29.983 231.496ZM29.455 245.976L28.959 245.48V239.368H29.551L29.695 239.528L30.447 240.264V245L29.455 245.976ZM37.823 246.504L37.327 247H30.479L29.983 246.504L30.959 245.512H36.847L37.823 246.504ZM37.359 240.264L38.255 239.368H38.847V245.48L38.351 245.976L37.359 245V240.264ZM38.351 232.024L38.847 232.52V238.632H38.255L37.359 237.736V233.016L38.351 232.024ZM30.447 237.736L29.551 238.632H28.959V232.52L29.455 232.024L30.447 233V237.736Z" fill="#FF0000"/>
<path d="M45.4775 237.512H45.2535L44.2455 235.768V233.224H44.4855L45.4775 234.952V237.512ZM43.0455 231.496L43.5415 231H50.3895L50.8855 231.496L49.9095 232.488H44.0215L43.0455 231.496ZM50.8855 246.504L50.3895 247H43.5415L43.0455 246.504L44.0215 245.512H49.9095L50.8855 246.504ZM50.4215 240.264L51.3175 239.368H51.9095V245.48L51.4135 245.976L50.4215 245V240.264ZM49.9095 238.264L50.6455 239L49.9095 239.736H47.8135L47.3815 239.016L47.8295 238.264H49.9095Z" fill="#FF0000"/>
<path d="M58.54 237.512H58.316L57.308 235.768V233.224H57.548L58.54 234.952V237.512ZM56.108 231.496L56.604 231H63.452L63.948 231.496L62.972 232.488H57.084L56.108 231.496ZM63.948 246.504L63.452 247H56.604L56.108 246.504L57.084 245.512H62.972L63.948 246.504ZM63.484 240.264L64.38 239.368H64.972V245.48L64.476 245.976L63.484 245V240.264ZM62.972 238.264L63.708 239L62.972 239.736H60.876L60.444 239.016L60.892 238.264H62.972Z" fill="#FF0000"/>
<path d="M73.8265 244.776H72.3545V241.032L73.0905 239.752L73.8265 241.048V244.776ZM71.6025 237.512H71.3785L70.3705 235.768V233.224H70.6105L71.6025 234.952V237.512ZM68.6425 245.976L68.1465 245.48V239.368H68.7385L68.8825 239.528L69.6345 240.264V245L68.6425 245.976ZM76.5465 240.264L77.4425 239.368H78.0345V245.48L77.5385 245.976L76.5465 245V240.264ZM77.5385 232.024L78.0345 232.52V238.632H77.4425L76.5465 237.736V233.016L77.5385 232.024ZM75.5705 233.224H75.8105V235.768L74.8025 237.512H74.5785V234.952L75.5705 233.224ZM69.6345 237.736L68.7385 238.632H68.1465V232.52L68.6425 232.024L69.6345 233V237.736Z" fill="#FF0000"/>
<path d="M82.233 231.496L82.729 231H89.577L90.073 231.496L89.097 232.488H83.209L82.233 231.496ZM81.705 245.976L81.209 245.48V239.368H81.801L81.945 239.528L82.697 240.264V245L81.705 245.976ZM90.073 246.504L89.577 247H82.729L82.233 246.504L83.209 245.512H89.097L90.073 246.504ZM89.609 240.264L90.505 239.368H91.097V245.48L90.601 245.976L89.609 245V240.264ZM90.601 232.024L91.097 232.52V238.632H90.505L89.609 237.736V233.016L90.601 232.024ZM82.697 237.736L81.801 238.632H81.209V232.52L81.705 232.024L82.697 233V237.736Z" fill="#FF0000"/>
<path d="M99.9515 244.776H98.4795V241.032L99.2155 239.752L99.9515 241.048V244.776ZM95.2955 231.496L95.7915 231H102.639L103.135 231.496L102.159 232.488H96.2715L95.2955 231.496ZM98.4795 233.224H99.9515V236.968L99.2155 238.264L98.4795 237V233.224ZM103.135 246.504L102.639 247H95.7915L95.2955 246.504L96.2715 245.512H102.159L103.135 246.504ZM102.671 240.264L103.567 239.368H104.159V245.48L103.663 245.976L102.671 245V240.264ZM103.663 232.024L104.159 232.52V238.632H103.567L102.671 237.736V233.016L103.663 232.024Z" fill="#FF0000"/>
<path d="M3.85798 262.496L4.35398 262H11.202L11.698 262.496L10.722 263.488H4.83398L3.85798 262.496ZM3.32998 276.976L2.83398 276.48V270.368H3.42598L3.56998 270.528L4.32198 271.264V276L3.32998 276.976ZM11.698 277.504L11.202 278H4.35398L3.85798 277.504L4.83398 276.512H10.722L11.698 277.504ZM11.234 271.264L12.13 270.368H12.722V276.48L12.226 276.976L11.234 276V271.264ZM12.226 263.024L12.722 263.52V269.632H12.13L11.234 268.736V264.016L12.226 263.024ZM4.32198 268.736L3.42598 269.632H2.83398V263.52L3.32998 263.024L4.32198 264V268.736Z" fill="#FF0000"/>
<path d="M19.3525 268.512H19.1285L18.1205 266.768V264.224H18.3605L19.3525 265.952V268.512ZM16.9205 262.496L17.4165 262H24.2645L24.7605 262.496L23.7845 263.488H17.8965L16.9205 262.496ZM24.7605 277.504L24.2645 278H17.4165L16.9205 277.504L17.8965 276.512H23.7845L24.7605 277.504ZM24.2965 271.264L25.1925 270.368H25.7845V276.48L25.2885 276.976L24.2965 276V271.264ZM23.7845 269.264L24.5205 270L23.7845 270.736H21.6885L21.2565 270.016L21.7045 269.264H23.7845Z" fill="#FF0000"/>
<path d="M29.983 262.496L30.479 262H37.327L37.823 262.496L36.847 263.488H30.959L29.983 262.496ZM29.455 276.976L28.959 276.48V270.368H29.551L29.695 270.528L30.447 271.264V276L29.455 276.976ZM37.823 277.504L37.327 278H30.479L29.983 277.504L30.959 276.512H36.847L37.823 277.504ZM30.447 268.736L29.551 269.632H28.959V263.52L29.455 263.024L30.447 264V268.736Z" fill="#FF0000"/>
<path d="M50.4215 271.264L51.3175 270.368H51.9095V276.48L51.4135 276.976L50.4215 276V271.264ZM51.4135 263.024L51.9095 263.52V269.632H51.3175L50.4215 268.736V264.016L51.4135 263.024Z" fill="#FF0000"/>
<path d="M71.6025 271.488V274.048L70.6105 275.776H70.3705V273.232L71.3785 271.488H71.6025ZM68.6425 276.976L68.1465 276.48V270.368H68.7385L68.8825 270.528L69.6345 271.264V276L68.6425 276.976ZM75.5705 264.224H75.8105V266.768L74.8025 268.512H74.5785V265.952L75.5705 264.224ZM69.6345 268.736L68.7385 269.632H68.1465V263.52L68.6425 263.024L69.6345 264V268.736Z" fill="#FF0000"/>
<path d="M82.233 262.496L82.729 262H89.577L90.073 262.496L89.097 263.488H83.209L82.233 262.496ZM81.705 276.976L81.209 276.48V270.368H81.801L81.945 270.528L82.697 271.264V276L81.705 276.976ZM90.073 277.504L89.577 278H82.729L82.233 277.504L83.209 276.512H89.097L90.073 277.504ZM89.609 271.264L90.505 270.368H91.097V276.48L90.601 276.976L89.609 276V271.264ZM90.601 263.024L91.097 263.52V269.632H90.505L89.609 268.736V264.016L90.601 263.024ZM82.697 268.736L81.801 269.632H81.209V263.52L81.705 263.024L82.697 264V268.736Z" fill="#FF0000"/>
<path d="M94.7675 276.976L94.2715 276.48V270.368H94.8635L95.0075 270.528L95.7595 271.264V276L94.7675 276.976ZM103.135 277.504L102.639 278H95.7915L95.2955 277.504L96.2715 276.512H102.159L103.135 277.504ZM95.7595 268.736L94.8635 269.632H94.2715V263.52L94.7675 263.024L95.7595 264V268.736Z" fill="#FF0000"/>
<path d="M3.85798 293.496L4.35398 293H11.202L11.698 293.496L10.722 294.488H4.83398L3.85798 293.496ZM3.32998 307.976L2.83398 307.48V301.368H3.42598L3.56998 301.528L4.32198 302.264V307L3.32998 307.976ZM11.698 308.504L11.202 309H4.35398L3.85798 308.504L4.83398 307.512H10.722L11.698 308.504ZM11.234 302.264L12.13 301.368H12.722V307.48L12.226 307.976L11.234 307V302.264ZM12.226 294.024L12.722 294.52V300.632H12.13L11.234 299.736V295.016L12.226 294.024ZM4.32198 299.736L3.42598 300.632H2.83398V294.52L3.32998 294.024L4.32198 295V299.736Z" fill="#FF0000"/>
<path d="M19.3525 299.512H19.1285L18.1205 297.768V295.224H18.3605L19.3525 296.952V299.512ZM16.9205 293.496L17.4165 293H24.2645L24.7605 293.496L23.7845 294.488H17.8965L16.9205 293.496ZM24.7605 308.504L24.2645 309H17.4165L16.9205 308.504L17.8965 307.512H23.7845L24.7605 308.504ZM24.2965 302.264L25.1925 301.368H25.7845V307.48L25.2885 307.976L24.2965 307V302.264ZM23.7845 300.264L24.5205 301L23.7845 301.736H21.6885L21.2565 301.016L21.7045 300.264H23.7845Z" fill="#FF0000"/>
<path d="M29.983 293.496L30.479 293H37.327L37.823 293.496L36.847 294.488H30.959L29.983 293.496ZM29.455 307.976L28.959 307.48V301.368H29.551L29.695 301.528L30.447 302.264V307L29.455 307.976ZM37.823 308.504L37.327 309H30.479L29.983 308.504L30.959 307.512H36.847L37.823 308.504ZM30.447 299.736L29.551 300.632H28.959V294.52L29.455 294.024L30.447 295V299.736Z" fill="#FF0000"/>
<path d="M44.0215 301.736L43.2855 301L44.0215 300.264H46.1015L46.5335 301.016L46.1015 301.736H44.0215ZM43.0455 293.496L43.5415 293H50.3895L50.8855 293.496L49.9095 294.488H44.0215L43.0455 293.496ZM42.5175 307.976L42.0215 307.48V301.368H42.6135L42.7575 301.528L43.5095 302.264V307L42.5175 307.976ZM50.8855 308.504L50.3895 309H43.5415L43.0455 308.504L44.0215 307.512H49.9095L50.8855 308.504ZM51.4135 294.024L51.9095 294.52V300.632H51.3175L50.4215 299.736V295.016L51.4135 294.024ZM49.9095 300.264L50.6455 301L49.9095 301.736H47.8135L47.3815 301.016L47.8295 300.264H49.9095Z" fill="#FF0000"/>
<path d="M71.6025 302.488V305.048L70.6105 306.776H70.3705V304.232L71.3785 302.488H71.6025ZM68.6425 307.976L68.1465 307.48V301.368H68.7385L68.8825 301.528L69.6345 302.264V307L68.6425 307.976ZM75.5705 295.224H75.8105V297.768L74.8025 299.512H74.5785V296.952L75.5705 295.224ZM69.6345 299.736L68.7385 300.632H68.1465V294.52L68.6425 294.024L69.6345 295V299.736Z" fill="#FF0000"/>
<path d="M82.233 293.496L82.729 293H89.577L90.073 293.496L89.097 294.488H83.209L82.233 293.496ZM81.705 307.976L81.209 307.48V301.368H81.801L81.945 301.528L82.697 302.264V307L81.705 307.976ZM90.073 308.504L89.577 309H82.729L82.233 308.504L83.209 307.512H89.097L90.073 308.504ZM89.609 302.264L90.505 301.368H91.097V307.48L90.601 307.976L89.609 307V302.264ZM90.601 294.024L91.097 294.52V300.632H90.505L89.609 299.736V295.016L90.601 294.024ZM82.697 299.736L81.801 300.632H81.209V294.52L81.705 294.024L82.697 295V299.736Z" fill="#FF0000"/>
<path d="M94.7675 307.976L94.2715 307.48V301.368H94.8635L95.0075 301.528L95.7595 302.264V307L94.7675 307.976ZM103.135 308.504L102.639 309H95.7915L95.2955 308.504L96.2715 307.512H102.159L103.135 308.504ZM95.7595 299.736L94.8635 300.632H94.2715V294.52L94.7675 294.024L95.7595 295V299.736Z" fill="#FF0000"/>
<path d="M4.834 332.736L4.098 332L4.834 331.264H6.498H6.914L7.346 332.016L6.914 332.736H5.058H4.834ZM3.858 324.496L4.354 324H11.202L11.698 324.496L10.722 325.488H10.69H8.514H7.042H4.866H4.834L3.858 324.496ZM9.266 333.488H9.49L10.498 335.232V337.776H10.258L9.266 336.048V333.488ZM3.33 338.976L2.834 338.48V332.368H3.426L3.57 332.528L4.322 333.264V336.512V337.776V338L3.33 338.976ZM12.226 325.024L12.722 325.52V331.632H12.13L11.234 330.736V330.288V327.488V326.224V326.016L12.226 325.024ZM4.322 330.736L3.426 331.632H2.834V325.52L3.33 325.024L4.322 326V326.224V327.488V330.736ZM10.722 331.264L11.458 332L10.722 332.736H10.498H9.266H8.626L8.194 332.016L8.642 331.264H9.058H10.722ZM21.5765 337.488V337.776H20.1045V334.768V334.032L20.8405 332.752L21.5765 334.048V334.768V337.488ZM16.9205 324.496L17.4165 324H24.2645L24.7605 324.496L23.7845 325.488H23.7525H21.5765H20.1045H17.9285H17.8965L16.9205 324.496ZM20.1045 326.224H21.5765V329.232V329.968L20.8405 331.264L20.1045 330V329.232V326.224ZM24.7605 339.504L24.2645 340H17.4165L16.9205 339.504L17.8965 338.512H17.9285H20.1045H21.5765H23.7525H23.7845L24.7605 339.504ZM32.415 330.512H32.191L31.183 328.768V326.224H31.423L32.415 327.952V330.512ZM35.391 333.488H35.615L36.623 335.232V337.776H36.383L35.391 336.048V333.488ZM29.455 338.976L28.959 338.48V332.368H29.551L29.695 332.528L30.447 333.264V336.512V337.776V338L29.455 338.976ZM37.359 333.264L38.255 332.368H38.847V338.48L38.351 338.976L37.359 338V337.776V336.512V333.264ZM38.351 325.024L38.847 325.52V331.632H38.255L37.359 330.736V330.288V327.488V326.224V326.016L38.351 325.024ZM30.447 330.736L29.551 331.632H28.959V325.52L29.455 325.024L30.447 326V326.224V327.488V330.736ZM43.0455 324.496L43.5415 324H50.3895L50.8855 324.496L49.9095 325.488H49.8775H47.7015H46.2295H44.0535H44.0215L43.0455 324.496ZM42.5175 338.976L42.0215 338.48V332.368H42.6135L42.7575 332.528L43.5095 333.264V336.512V337.776V338L42.5175 338.976ZM50.8855 339.504L50.3895 340H43.5415L43.0455 339.504L44.0215 338.512H44.0535H46.2295H47.7015H49.8775H49.9095L50.8855 339.504ZM50.4215 333.264L51.3175 332.368H51.9095V338.48L51.4135 338.976L50.4215 338V337.776V336.512V333.264ZM43.5095 330.736L42.6135 331.632H42.0215V325.52L42.5175 325.024L43.5095 326V326.224V327.488V330.736ZM49.9095 331.264L50.6455 332L49.9095 332.736H49.6855H48.4535H47.8135L47.3815 332.016L47.8295 331.264H48.2455H49.9095ZM71.6025 333.488V336.048L70.6105 337.776H70.3705V335.232L71.3785 333.488H71.6025ZM68.6425 338.976L68.1465 338.48V332.368H68.7385L68.8825 332.528L69.6345 333.264V336.512V337.776V338L68.6425 338.976ZM75.5705 326.224H75.8105V328.768L74.8025 330.512H74.5785V327.952L75.5705 326.224ZM69.6345 330.736L68.7385 331.632H68.1465V325.52L68.6425 325.024L69.6345 326V326.224V327.488V330.736ZM82.233 324.496L82.729 324H89.577L90.073 324.496L89.097 325.488H89.065H86.889H85.417H83.241H83.209L82.233 324.496ZM81.705 338.976L81.209 338.48V332.368H81.801L81.945 332.528L82.697 333.264V336.512V337.776V338L81.705 338.976ZM90.073 339.504L89.577 340H82.729L82.233 339.504L83.209 338.512H83.241H85.417H86.889H89.065H89.097L90.073 339.504ZM89.609 333.264L90.505 332.368H91.097V338.48L90.601 338.976L89.609 338V337.776V336.512V333.264ZM90.601 325.024L91.097 325.52V331.632H90.505L89.609 330.736V330.288V327.488V326.224V326.016L90.601 325.024ZM82.697 330.736L81.801 331.632H81.209V325.52L81.705 325.024L82.697 326V326.224V327.488V330.736ZM94.7675 338.976L94.2715 338.48V332.368H94.8635L95.0075 332.528L95.7595 333.264V336.512V337.776V338L94.7675 338.976ZM103.136 339.504L102.64 340H95.7915L95.2955 339.504L96.2715 338.512H96.3035H98.4795H99.9515H102.128H102.16L103.136 339.504ZM95.7595 330.736L94.8635 331.632H94.2715V325.52L94.7675 325.024L95.7595 326V326.224V327.488V330.736Z" fill="#FF0000"/>
<path d="M6.28998 361.512H6.06598L5.05798 359.768V357.224H5.29798L6.28998 358.952V361.512ZM9.26599 364.488H9.48998L10.498 366.232V368.776H10.258L9.26599 367.048V364.488ZM3.32998 369.976L2.83398 369.48V363.368H3.42598L3.56998 363.528L4.32198 364.264V369L3.32998 369.976ZM11.234 364.264L12.13 363.368H12.722V369.48L12.226 369.976L11.234 369V364.264ZM12.226 356.024L12.722 356.52V362.632H12.13L11.234 361.736V357.016L12.226 356.024ZM4.32198 361.736L3.42598 362.632H2.83398V356.52L3.32998 356.024L4.32198 357V361.736Z" fill="#FF0000"/>
<path d="M16.9205 355.496L17.4165 355H24.2645L24.7605 355.496L23.7845 356.488H17.8965L16.9205 355.496ZM16.3925 369.976L15.8965 369.48V363.368H16.4885L16.6325 363.528L17.3845 364.264V369L16.3925 369.976ZM24.7605 370.504L24.2645 371H17.4165L16.9205 370.504L17.8965 369.512H23.7845L24.7605 370.504ZM24.2965 364.264L25.1925 363.368H25.7845V369.48L25.2885 369.976L24.2965 369V364.264ZM25.2885 356.024L25.7845 356.52V362.632H25.1925L24.2965 361.736V357.016L25.2885 356.024ZM17.3845 361.736L16.4885 362.632H15.8965V356.52L16.3925 356.024L17.3845 357V361.736Z" fill="#FF0000"/>
<path d="M34.639 368.776H33.167V365.032L33.903 363.752L34.639 365.048V368.776ZM29.983 355.496L30.479 355H37.327L37.823 355.496L36.847 356.488H30.959L29.983 355.496ZM33.167 357.224H34.639V360.968L33.903 362.264L33.167 361V357.224ZM37.823 370.504L37.327 371H30.479L29.983 370.504L30.959 369.512H36.847L37.823 370.504Z" fill="#FF0000"/>
<path d="M45.4775 361.512H45.2535L44.2455 359.768V357.224H44.4855L45.4775 358.952V361.512ZM43.0455 355.496L43.5415 355H50.3895L50.8855 355.496L49.9095 356.488H44.0215L43.0455 355.496ZM50.8855 370.504L50.3895 371H43.5415L43.0455 370.504L44.0215 369.512H49.9095L50.8855 370.504ZM50.4215 364.264L51.3175 363.368H51.9095V369.48L51.4135 369.976L50.4215 369V364.264ZM49.9095 362.264L50.6455 363L49.9095 363.736H47.8135L47.3815 363.016L47.8295 362.264H49.9095Z" fill="#FF0000"/>
<path d="M57.084 363.736L56.348 363L57.084 362.264H59.164L59.596 363.016L59.164 363.736H57.084ZM56.108 355.496L56.604 355H63.452L63.948 355.496L62.972 356.488H57.084L56.108 355.496ZM55.58 369.976L55.084 369.48V363.368H55.676L55.82 363.528L56.572 364.264V369L55.58 369.976ZM63.948 370.504L63.452 371H56.604L56.108 370.504L57.084 369.512H62.972L63.948 370.504ZM56.572 361.736L55.676 362.632H55.084V356.52L55.58 356.024L56.572 357V361.736ZM62.972 362.264L63.708 363L62.972 363.736H60.876L60.444 363.016L60.892 362.264H62.972Z" fill="#FF0000"/>
<path d="M71.6025 364.488V367.048L70.6105 368.776H70.3705V366.232L71.3785 364.488H71.6025ZM68.6425 369.976L68.1465 369.48V363.368H68.7385L68.8825 363.528L69.6345 364.264V369L68.6425 369.976ZM75.5705 357.224H75.8105V359.768L74.8025 361.512H74.5785V358.952L75.5705 357.224ZM69.6345 361.736L68.7385 362.632H68.1465V356.52L68.6425 356.024L69.6345 357V361.736Z" fill="#FF0000"/>
<path d="M82.233 355.496L82.729 355H89.577L90.073 355.496L89.097 356.488H83.209L82.233 355.496ZM81.705 369.976L81.209 369.48V363.368H81.801L81.945 363.528L82.697 364.264V369L81.705 369.976ZM90.073 370.504L89.577 371H82.729L82.233 370.504L83.209 369.512H89.097L90.073 370.504ZM89.609 364.264L90.505 363.368H91.097V369.48L90.601 369.976L89.609 369V364.264ZM90.601 356.024L91.097 356.52V362.632H90.505L89.609 361.736V357.016L90.601 356.024ZM82.697 361.736L81.801 362.632H81.209V356.52L81.705 356.024L82.697 357V361.736Z" fill="#FF0000"/>
<path d="M94.7675 369.976L94.2715 369.48V363.368H94.8635L95.0075 363.528L95.7595 364.264V369L94.7675 369.976ZM103.135 370.504L102.639 371H95.7915L95.2955 370.504L96.2715 369.512H102.159L103.135 370.504ZM95.7595 361.736L94.8635 362.632H94.2715V356.52L94.7675 356.024L95.7595 357V361.736Z" fill="#FF0000"/>
<path d="M16.9205 386.496L17.4165 386H24.2645L24.7605 386.496L23.7845 387.488H23.7525H21.5765H20.1045H17.9285H17.8965L16.9205 386.496ZM16.3925 400.976L15.8965 400.48V394.368H16.4885L16.6325 394.528L17.3845 395.264V398.512V399.776V400L16.3925 400.976ZM24.7605 401.504L24.2645 402H17.4165L16.9205 401.504L17.8965 400.512H17.9285H20.1045H21.5765H23.7525H23.7845L24.7605 401.504ZM17.3845 392.736L16.4885 393.632H15.8965V387.52L16.3925 387.024L17.3845 388V388.224V389.488V392.736ZM29.455 400.976L28.959 400.48V394.368H29.551L29.695 394.528L30.447 395.264V398.512V399.776V400L29.455 400.976ZM37.823 401.504L37.327 402H30.479L29.983 401.504L30.959 400.512H30.991H33.167H34.639H36.815H36.847L37.823 401.504ZM37.359 395.264L38.255 394.368H38.847V400.48L38.351 400.976L37.359 400V399.776V398.512V395.264ZM38.351 387.024L38.847 387.52V393.632H38.255L37.359 392.736V392.288V389.488V388.224V388.016L38.351 387.024ZM30.447 392.736L29.551 393.632H28.959V387.52L29.455 387.024L30.447 388V388.224V389.488V392.736ZM47.7015 399.488V399.776H46.2295V396.768V396.032L46.9655 394.752L47.7015 396.048V396.768V399.488ZM43.0455 386.496L43.5415 386H50.3895L50.8855 386.496L49.9095 387.488H49.8775H47.7015H46.2295H44.0535H44.0215L43.0455 386.496ZM46.2295 388.224H47.7015V391.232V391.968L46.9655 393.264L46.2295 392V391.232V388.224ZM56.108 386.496L56.604 386H63.452L63.948 386.496L62.972 387.488H62.94H60.764H59.292H57.116H57.084L56.108 386.496ZM55.58 400.976L55.084 400.48V394.368H55.676L55.82 394.528L56.572 395.264V398.512V399.776V400L55.58 400.976ZM63.948 401.504L63.452 402H56.604L56.108 401.504L57.084 400.512H57.116H59.292H60.764H62.94H62.972L63.948 401.504ZM63.484 395.264L64.38 394.368H64.972V400.48L64.476 400.976L63.484 400V399.776V398.512V395.264ZM64.476 387.024L64.972 387.52V393.632H64.38L63.484 392.736V392.288V389.488V388.224V388.016L64.476 387.024ZM56.572 392.736L55.676 393.632H55.084V387.52L55.58 387.024L56.572 388V388.224V389.488V392.736ZM70.1465 394.736L69.4105 394L70.1465 393.264H71.8105H72.2265L72.6585 394.016L72.2265 394.736H70.3705H70.1465ZM69.1705 386.496L69.6665 386H76.5145L77.0105 386.496L76.0345 387.488H76.0025H73.8265H72.3545H70.1785H70.1465L69.1705 386.496ZM68.6425 400.976L68.1465 400.48V394.368H68.7385L68.8825 394.528L69.6345 395.264V398.512V399.776V400L68.6425 400.976ZM69.6345 392.736L68.7385 393.632H68.1465V387.52L68.6425 387.024L69.6345 388V388.224V389.488V392.736ZM76.0345 393.264L76.7705 394L76.0345 394.736H75.8105H74.5785H73.9385L73.5065 394.016L73.9545 393.264H74.3705H76.0345ZM83.209 394.736L82.473 394L83.209 393.264H84.873H85.289L85.721 394.016L85.289 394.736H83.433H83.209ZM82.233 386.496L82.729 386H89.577L90.073 386.496L89.097 387.488H89.065H86.889H85.417H83.241H83.209L82.233 386.496ZM81.705 400.976L81.209 400.48V394.368H81.801L81.945 394.528L82.697 395.264V398.512V399.776V400L81.705 400.976ZM82.697 392.736L81.801 393.632H81.209V387.52L81.705 387.024L82.697 388V388.224V389.488V392.736ZM89.097 393.264L89.833 394L89.097 394.736H88.873H87.641H87.001L86.569 394.016L87.017 393.264H87.433H89.097Z" fill="#FF0000"/>
<path d="M30.959 425.736L30.223 425L30.959 424.264H33.039L33.471 425.016L33.039 425.736H30.959ZM29.983 417.496L30.479 417H37.327L37.823 417.496L36.847 418.488H30.959L29.983 417.496ZM35.391 426.488H35.615L36.623 428.232V430.776H36.383L35.391 429.048V426.488ZM29.455 431.976L28.959 431.48V425.368H29.551L29.695 425.528L30.447 426.264V431L29.455 431.976ZM38.351 418.024L38.847 418.52V424.632H38.255L37.359 423.736V419.016L38.351 418.024ZM30.447 423.736L29.551 424.632H28.959V418.52L29.455 418.024L30.447 419V423.736ZM36.847 424.264L37.583 425L36.847 425.736H34.751L34.319 425.016L34.767 424.264H36.847Z" fill="#FF0000"/>
<path d="M44.0215 425.736L43.2855 425L44.0215 424.264H46.1015L46.5335 425.016L46.1015 425.736H44.0215ZM43.0455 417.496L43.5415 417H50.3895L50.8855 417.496L49.9095 418.488H44.0215L43.0455 417.496ZM42.5175 431.976L42.0215 431.48V425.368H42.6135L42.7575 425.528L43.5095 426.264V431L42.5175 431.976ZM50.8855 432.504L50.3895 433H43.5415L43.0455 432.504L44.0215 431.512H49.9095L50.8855 432.504ZM43.5095 423.736L42.6135 424.632H42.0215V418.52L42.5175 418.024L43.5095 419V423.736ZM49.9095 424.264L50.6455 425L49.9095 425.736H47.8135L47.3815 425.016L47.8295 424.264H49.9095Z" fill="#FF0000"/>
<path d="M58.54 423.512H58.316L57.308 421.768V419.224H57.548L58.54 420.952V423.512ZM56.108 417.496L56.604 417H63.452L63.948 417.496L62.972 418.488H57.084L56.108 417.496ZM63.948 432.504L63.452 433H56.604L56.108 432.504L57.084 431.512H62.972L63.948 432.504ZM63.484 426.264L64.38 425.368H64.972V431.48L64.476 431.976L63.484 431V426.264ZM62.972 424.264L63.708 425L62.972 425.736H60.876L60.444 425.016L60.892 424.264H62.972Z" fill="#FF0000"/>
<path d="M69.1705 417.496L69.6665 417H76.5145L77.0105 417.496L76.0345 418.488H70.1465L69.1705 417.496ZM68.6425 431.976L68.1465 431.48V425.368H68.7385L68.8825 425.528L69.6345 426.264V431L68.6425 431.976ZM77.0105 432.504L76.5145 433H69.6665L69.1705 432.504L70.1465 431.512H76.0345L77.0105 432.504ZM76.5465 426.264L77.4425 425.368H78.0345V431.48L77.5385 431.976L76.5465 431V426.264ZM77.5385 418.024L78.0345 418.52V424.632H77.4425L76.5465 423.736V419.016L77.5385 418.024ZM69.6345 423.736L68.7385 424.632H68.1465V418.52L68.6425 418.024L69.6345 419V423.736Z" fill="#FF0000"/>
<path d="M3.33 462.976L2.834 462.48V456.368H3.426L3.57 456.528L4.322 457.264V460.512V461.776V462L3.33 462.976ZM11.698 463.504L11.202 464H4.354L3.858 463.504L4.834 462.512H4.866H7.042H8.514H10.69H10.722L11.698 463.504ZM4.322 454.736L3.426 455.632H2.834V449.52L3.33 449.024L4.322 450V450.224V451.488V454.736ZM17.8965 456.736L17.1605 456L17.8965 455.264H19.5605H19.9765L20.4085 456.016L19.9765 456.736H18.1205H17.8965ZM16.9205 448.496L17.4165 448H24.2645L24.7605 448.496L23.7845 449.488H23.7525H21.5765H20.1045H17.9285H17.8965L16.9205 448.496ZM16.3925 462.976L15.8965 462.48V456.368H16.4885L16.6325 456.528L17.3845 457.264V460.512V461.776V462L16.3925 462.976ZM17.3845 454.736L16.4885 455.632H15.8965V449.52L16.3925 449.024L17.3845 450V450.224V451.488V454.736ZM23.7845 455.264L24.5205 456L23.7845 456.736H23.5605H22.3285H21.6885L21.2565 456.016L21.7045 455.264H22.1205H23.7845ZM29.983 448.496L30.479 448H37.327L37.823 448.496L36.847 449.488H36.815H34.639H33.167H30.991H30.959L29.983 448.496ZM29.455 462.976L28.959 462.48V456.368H29.551L29.695 456.528L30.447 457.264V460.512V461.776V462L29.455 462.976ZM37.823 463.504L37.327 464H30.479L29.983 463.504L30.959 462.512H30.991H33.167H34.639H36.815H36.847L37.823 463.504ZM37.359 457.264L38.255 456.368H38.847V462.48L38.351 462.976L37.359 462V461.776V460.512V457.264ZM38.351 449.024L38.847 449.52V455.632H38.255L37.359 454.736V454.288V451.488V450.224V450.016L38.351 449.024ZM30.447 454.736L29.551 455.632H28.959V449.52L29.455 449.024L30.447 450V450.224V451.488V454.736ZM50.4215 457.264L51.3175 456.368H51.9095V462.48L51.4135 462.976L50.4215 462V461.776V460.512V457.264ZM51.4135 449.024L51.9095 449.52V455.632H51.3175L50.4215 454.736V454.288V451.488V450.224V450.016L51.4135 449.024ZM60.764 461.488V461.776H59.292V458.768V458.032L60.028 456.752L60.764 458.048V458.768V461.488ZM58.54 454.512H58.316L57.308 452.768V450.224H57.548L58.54 451.952V454.512ZM55.58 462.976L55.084 462.48V456.368H55.676L55.82 456.528L56.572 457.264V460.512V461.776V462L55.58 462.976ZM63.484 457.264L64.38 456.368H64.972V462.48L64.476 462.976L63.484 462V461.776V460.512V457.264ZM64.476 449.024L64.972 449.52V455.632H64.38L63.484 454.736V454.288V451.488V450.224V450.016L64.476 449.024ZM62.508 450.224H62.748V452.768L61.74 454.512H61.516V451.952L62.508 450.224ZM56.572 454.736L55.676 455.632H55.084V449.52L55.58 449.024L56.572 450V450.224V451.488V454.736ZM69.1705 448.496L69.6665 448H76.5145L77.0105 448.496L76.0345 449.488H76.0025H73.8265H72.3545H70.1785H70.1465L69.1705 448.496ZM68.6425 462.976L68.1465 462.48V456.368H68.7385L68.8825 456.528L69.6345 457.264V460.512V461.776V462L68.6425 462.976ZM77.0105 463.504L76.5145 464H69.6665L69.1705 463.504L70.1465 462.512H70.1785H72.3545H73.8265H76.0025H76.0345L77.0105 463.504ZM76.5465 457.264L77.4425 456.368H78.0345V462.48L77.5385 462.976L76.5465 462V461.776V460.512V457.264ZM77.5385 449.024L78.0345 449.52V455.632H77.4425L76.5465 454.736V454.288V451.488V450.224V450.016L77.5385 449.024ZM69.6345 454.736L68.7385 455.632H68.1465V449.52L68.6425 449.024L69.6345 450V450.224V451.488V454.736ZM86.889 461.488V461.776H85.417V458.768V458.032L86.153 456.752L86.889 458.048V458.768V461.488ZM82.233 448.496L82.729 448H89.577L90.073 448.496L89.097 449.488H89.065H86.889H85.417H83.241H83.209L82.233 448.496ZM85.417 450.224H86.889V453.232V453.968L86.153 455.264L85.417 454V453.232V450.224ZM90.073 463.504L89.577 464H82.729L82.233 463.504L83.209 462.512H83.241H85.417H86.889H89.065H89.097L90.073 463.504ZM89.609 457.264L90.505 456.368H91.097V462.48L90.601 462.976L89.609 462V461.776V460.512V457.264ZM90.601 449.024L91.097 449.52V455.632H90.505L89.609 454.736V454.288V451.488V450.224V450.016L90.601 449.024ZM102.672 457.264L103.568 456.368H104.16V462.48L103.664 462.976L102.672 462V461.776V460.512V457.264ZM103.664 449.024L104.16 449.52V455.632H103.568L102.672 454.736V454.288V451.488V450.224V450.016L103.664 449.024Z" fill="#FF0000"/>
<path d="M3.33 493.976L2.834 493.48V487.368H3.426L3.57 487.528L4.322 488.264V491.512V492.776V493L3.33 493.976ZM11.698 494.504L11.202 495H4.354L3.858 494.504L4.834 493.512H4.866H7.042H8.514H10.69H10.722L11.698 494.504ZM4.322 485.736L3.426 486.632H2.834V480.52L3.33 480.024L4.322 481V481.224V482.488V485.736ZM17.8965 487.736L17.1605 487L17.8965 486.264H19.5605H19.9765L20.4085 487.016L19.9765 487.736H18.1205H17.8965ZM16.9205 479.496L17.4165 479H24.2645L24.7605 479.496L23.7845 480.488H23.7525H21.5765H20.1045H17.9285H17.8965L16.9205 479.496ZM16.3925 493.976L15.8965 493.48V487.368H16.4885L16.6325 487.528L17.3845 488.264V491.512V492.776V493L16.3925 493.976ZM17.3845 485.736L16.4885 486.632H15.8965V480.52L16.3925 480.024L17.3845 481V481.224V482.488V485.736ZM23.7845 486.264L24.5205 487L23.7845 487.736H23.5605H22.3285H21.6885L21.2565 487.016L21.7045 486.264H22.1205H23.7845ZM29.983 479.496L30.479 479H37.327L37.823 479.496L36.847 480.488H36.815H34.639H33.167H30.991H30.959L29.983 479.496ZM29.455 493.976L28.959 493.48V487.368H29.551L29.695 487.528L30.447 488.264V491.512V492.776V493L29.455 493.976ZM37.823 494.504L37.327 495H30.479L29.983 494.504L30.959 493.512H30.991H33.167H34.639H36.815H36.847L37.823 494.504ZM37.359 488.264L38.255 487.368H38.847V493.48L38.351 493.976L37.359 493V492.776V491.512V488.264ZM38.351 480.024L38.847 480.52V486.632H38.255L37.359 485.736V485.288V482.488V481.224V481.016L38.351 480.024ZM30.447 485.736L29.551 486.632H28.959V480.52L29.455 480.024L30.447 481V481.224V482.488V485.736ZM50.4215 488.264L51.3175 487.368H51.9095V493.48L51.4135 493.976L50.4215 493V492.776V491.512V488.264ZM51.4135 480.024L51.9095 480.52V486.632H51.3175L50.4215 485.736V485.288V482.488V481.224V481.016L51.4135 480.024ZM60.764 492.488V492.776H59.292V489.768V489.032L60.028 487.752L60.764 489.048V489.768V492.488ZM58.54 485.512H58.316L57.308 483.768V481.224H57.548L58.54 482.952V485.512ZM55.58 493.976L55.084 493.48V487.368H55.676L55.82 487.528L56.572 488.264V491.512V492.776V493L55.58 493.976ZM63.484 488.264L64.38 487.368H64.972V493.48L64.476 493.976L63.484 493V492.776V491.512V488.264ZM64.476 480.024L64.972 480.52V486.632H64.38L63.484 485.736V485.288V482.488V481.224V481.016L64.476 480.024ZM62.508 481.224H62.748V483.768L61.74 485.512H61.516V482.952L62.508 481.224ZM56.572 485.736L55.676 486.632H55.084V480.52L55.58 480.024L56.572 481V481.224V482.488V485.736ZM69.1705 479.496L69.6665 479H76.5145L77.0105 479.496L76.0345 480.488H76.0025H73.8265H72.3545H70.1785H70.1465L69.1705 479.496ZM68.6425 493.976L68.1465 493.48V487.368H68.7385L68.8825 487.528L69.6345 488.264V491.512V492.776V493L68.6425 493.976ZM77.0105 494.504L76.5145 495H69.6665L69.1705 494.504L70.1465 493.512H70.1785H72.3545H73.8265H76.0025H76.0345L77.0105 494.504ZM76.5465 488.264L77.4425 487.368H78.0345V493.48L77.5385 493.976L76.5465 493V492.776V491.512V488.264ZM77.5385 480.024L78.0345 480.52V486.632H77.4425L76.5465 485.736V485.288V482.488V481.224V481.016L77.5385 480.024ZM69.6345 485.736L68.7385 486.632H68.1465V480.52L68.6425 480.024L69.6345 481V481.224V482.488V485.736ZM86.889 492.488V492.776H85.417V489.768V489.032L86.153 487.752L86.889 489.048V489.768V492.488ZM82.233 479.496L82.729 479H89.577L90.073 479.496L89.097 480.488H89.065H86.889H85.417H83.241H83.209L82.233 479.496ZM85.417 481.224H86.889V484.232V484.968L86.153 486.264L85.417 485V484.232V481.224ZM90.073 494.504L89.577 495H82.729L82.233 494.504L83.209 493.512H83.241H85.417H86.889H89.065H89.097L90.073 494.504ZM89.609 488.264L90.505 487.368H91.097V493.48L90.601 493.976L89.609 493V492.776V491.512V488.264ZM90.601 480.024L91.097 480.52V486.632H90.505L89.609 485.736V485.288V482.488V481.224V481.016L90.601 480.024ZM96.2715 487.736L95.5355 487L96.2715 486.264H97.9355H98.3515L98.7835 487.016L98.3515 487.736H96.4955H96.2715ZM95.2955 479.496L95.7915 479H102.64L103.136 479.496L102.16 480.488H102.128H99.9515H98.4795H96.3035H96.2715L95.2955 479.496ZM94.7675 493.976L94.2715 493.48V487.368H94.8635L95.0075 487.528L95.7595 488.264V491.512V492.776V493L94.7675 493.976ZM103.136 494.504L102.64 495H95.7915L95.2955 494.504L96.2715 493.512H96.3035H98.4795H99.9515H102.128H102.16L103.136 494.504ZM103.664 480.024L104.16 480.52V486.632H103.568L102.672 485.736V485.288V482.488V481.224V481.016L103.664 480.024ZM102.16 486.264L102.896 487L102.16 487.736H101.936H100.704H100.064L99.6315 487.016L100.08 486.264H100.496H102.16Z" fill="#FF0000"/>
<path d="M3.33 524.976L2.834 524.48V518.368H3.426L3.57 518.528L4.322 519.264V522.512V523.776V524L3.33 524.976ZM11.698 525.504L11.202 526H4.354L3.858 525.504L4.834 524.512H4.866H7.042H8.514H10.69H10.722L11.698 525.504ZM4.322 516.736L3.426 517.632H2.834V511.52L3.33 511.024L4.322 512V512.224V513.488V516.736ZM17.8965 518.736L17.1605 518L17.8965 517.264H19.5605H19.9765L20.4085 518.016L19.9765 518.736H18.1205H17.8965ZM16.9205 510.496L17.4165 510H24.2645L24.7605 510.496L23.7845 511.488H23.7525H21.5765H20.1045H17.9285H17.8965L16.9205 510.496ZM16.3925 524.976L15.8965 524.48V518.368H16.4885L16.6325 518.528L17.3845 519.264V522.512V523.776V524L16.3925 524.976ZM17.3845 516.736L16.4885 517.632H15.8965V511.52L16.3925 511.024L17.3845 512V512.224V513.488V516.736ZM23.7845 517.264L24.5205 518L23.7845 518.736H23.5605H22.3285H21.6885L21.2565 518.016L21.7045 517.264H22.1205H23.7845ZM29.983 510.496L30.479 510H37.327L37.823 510.496L36.847 511.488H36.815H34.639H33.167H30.991H30.959L29.983 510.496ZM29.455 524.976L28.959 524.48V518.368H29.551L29.695 518.528L30.447 519.264V522.512V523.776V524L29.455 524.976ZM37.823 525.504L37.327 526H30.479L29.983 525.504L30.959 524.512H30.991H33.167H34.639H36.815H36.847L37.823 525.504ZM37.359 519.264L38.255 518.368H38.847V524.48L38.351 524.976L37.359 524V523.776V522.512V519.264ZM38.351 511.024L38.847 511.52V517.632H38.255L37.359 516.736V516.288V513.488V512.224V512.016L38.351 511.024ZM30.447 516.736L29.551 517.632H28.959V511.52L29.455 511.024L30.447 512V512.224V513.488V516.736ZM44.0215 518.736L43.2855 518L44.0215 517.264H45.6855H46.1015L46.5335 518.016L46.1015 518.736H44.2455H44.0215ZM43.0455 510.496L43.5415 510H50.3895L50.8855 510.496L49.9095 511.488H49.8775H47.7015H46.2295H44.0535H44.0215L43.0455 510.496ZM42.5175 524.976L42.0215 524.48V518.368H42.6135L42.7575 518.528L43.5095 519.264V522.512V523.776V524L42.5175 524.976ZM50.8855 525.504L50.3895 526H43.5415L43.0455 525.504L44.0215 524.512H44.0535H46.2295H47.7015H49.8775H49.9095L50.8855 525.504ZM51.4135 511.024L51.9095 511.52V517.632H51.3175L50.4215 516.736V516.288V513.488V512.224V512.016L51.4135 511.024ZM49.9095 517.264L50.6455 518L49.9095 518.736H49.6855H48.4535H47.8135L47.3815 518.016L47.8295 517.264H48.2455H49.9095ZM57.084 518.736L56.348 518L57.084 517.264H58.748H59.164L59.596 518.016L59.164 518.736H57.308H57.084ZM56.108 510.496L56.604 510H63.452L63.948 510.496L62.972 511.488H62.94H60.764H59.292H57.116H57.084L56.108 510.496ZM61.516 519.488H61.74L62.748 521.232V523.776H62.508L61.516 522.048V519.488ZM55.58 524.976L55.084 524.48V518.368H55.676L55.82 518.528L56.572 519.264V522.512V523.776V524L55.58 524.976ZM64.476 511.024L64.972 511.52V517.632H64.38L63.484 516.736V516.288V513.488V512.224V512.016L64.476 511.024ZM56.572 516.736L55.676 517.632H55.084V511.52L55.58 511.024L56.572 512V512.224V513.488V516.736ZM62.972 517.264L63.708 518L62.972 518.736H62.748H61.516H60.876L60.444 518.016L60.892 517.264H61.308H62.972ZM70.1465 518.736L69.4105 518L70.1465 517.264H71.8105H72.2265L72.6585 518.016L72.2265 518.736H70.3705H70.1465ZM69.1705 510.496L69.6665 510H76.5145L77.0105 510.496L76.0345 511.488H76.0025H73.8265H72.3545H70.1785H70.1465L69.1705 510.496ZM68.6425 524.976L68.1465 524.48V518.368H68.7385L68.8825 518.528L69.6345 519.264V522.512V523.776V524L68.6425 524.976ZM76.5465 519.264L77.4425 518.368H78.0345V524.48L77.5385 524.976L76.5465 524V523.776V522.512V519.264ZM77.5385 511.024L78.0345 511.52V517.632H77.4425L76.5465 516.736V516.288V513.488V512.224V512.016L77.5385 511.024ZM69.6345 516.736L68.7385 517.632H68.1465V511.52L68.6425 511.024L69.6345 512V512.224V513.488V516.736ZM76.0345 517.264L76.7705 518L76.0345 518.736H75.8105H74.5785H73.9385L73.5065 518.016L73.9545 517.264H74.3705H76.0345ZM86.889 523.488V523.776H85.417V520.768V520.032L86.153 518.752L86.889 520.048V520.768V523.488ZM82.233 510.496L82.729 510H89.577L90.073 510.496L89.097 511.488H89.065H86.889H85.417H83.241H83.209L82.233 510.496ZM85.417 512.224H86.889V515.232V515.968L86.153 517.264L85.417 516V515.232V512.224ZM96.2715 518.736L95.5355 518L96.2715 517.264H97.9355H98.3515L98.7835 518.016L98.3515 518.736H96.4955H96.2715ZM95.2955 510.496L95.7915 510H102.64L103.136 510.496L102.16 511.488H102.128H99.9515H98.4795H96.3035H96.2715L95.2955 510.496ZM94.7675 524.976L94.2715 524.48V518.368H94.8635L95.0075 518.528L95.7595 519.264V522.512V523.776V524L94.7675 524.976ZM103.136 525.504L102.64 526H95.7915L95.2955 525.504L96.2715 524.512H96.3035H98.4795H99.9515H102.128H102.16L103.136 525.504ZM95.7595 516.736L94.8635 517.632H94.2715V511.52L94.7675 511.024L95.7595 512V512.224V513.488V516.736ZM102.16 517.264L102.896 518L102.16 518.736H101.936H100.704H100.064L99.6315 518.016L100.08 517.264H100.496H102.16Z" fill="#FF0000"/>
<path d="M3.33 555.976L2.834 555.48V549.368H3.426L3.57 549.528L4.322 550.264V553.512V554.776V555L3.33 555.976ZM11.698 556.504L11.202 557H4.354L3.858 556.504L4.834 555.512H4.866H7.042H8.514H10.69H10.722L11.698 556.504ZM4.322 547.736L3.426 548.632H2.834V542.52L3.33 542.024L4.322 543V543.224V544.488V547.736ZM17.8965 549.736L17.1605 549L17.8965 548.264H19.5605H19.9765L20.4085 549.016L19.9765 549.736H18.1205H17.8965ZM16.9205 541.496L17.4165 541H24.2645L24.7605 541.496L23.7845 542.488H23.7525H21.5765H20.1045H17.9285H17.8965L16.9205 541.496ZM16.3925 555.976L15.8965 555.48V549.368H16.4885L16.6325 549.528L17.3845 550.264V553.512V554.776V555L16.3925 555.976ZM17.3845 547.736L16.4885 548.632H15.8965V542.52L16.3925 542.024L17.3845 543V543.224V544.488V547.736ZM23.7845 548.264L24.5205 549L23.7845 549.736H23.5605H22.3285H21.6885L21.2565 549.016L21.7045 548.264H22.1205H23.7845ZM29.983 541.496L30.479 541H37.327L37.823 541.496L36.847 542.488H36.815H34.639H33.167H30.991H30.959L29.983 541.496ZM29.455 555.976L28.959 555.48V549.368H29.551L29.695 549.528L30.447 550.264V553.512V554.776V555L29.455 555.976ZM37.823 556.504L37.327 557H30.479L29.983 556.504L30.959 555.512H30.991H33.167H34.639H36.815H36.847L37.823 556.504ZM37.359 550.264L38.255 549.368H38.847V555.48L38.351 555.976L37.359 555V554.776V553.512V550.264ZM38.351 542.024L38.847 542.52V548.632H38.255L37.359 547.736V547.288V544.488V543.224V543.016L38.351 542.024ZM30.447 547.736L29.551 548.632H28.959V542.52L29.455 542.024L30.447 543V543.224V544.488V547.736ZM44.0215 549.736L43.2855 549L44.0215 548.264H45.6855H46.1015L46.5335 549.016L46.1015 549.736H44.2455H44.0215ZM43.0455 541.496L43.5415 541H50.3895L50.8855 541.496L49.9095 542.488H49.8775H47.7015H46.2295H44.0535H44.0215L43.0455 541.496ZM42.5175 555.976L42.0215 555.48V549.368H42.6135L42.7575 549.528L43.5095 550.264V553.512V554.776V555L42.5175 555.976ZM50.8855 556.504L50.3895 557H43.5415L43.0455 556.504L44.0215 555.512H44.0535H46.2295H47.7015H49.8775H49.9095L50.8855 556.504ZM51.4135 542.024L51.9095 542.52V548.632H51.3175L50.4215 547.736V547.288V544.488V543.224V543.016L51.4135 542.024ZM49.9095 548.264L50.6455 549L49.9095 549.736H49.6855H48.4535H47.8135L47.3815 549.016L47.8295 548.264H48.2455H49.9095ZM60.764 554.488V554.776H59.292V551.768V551.032L60.028 549.752L60.764 551.048V551.768V554.488ZM58.54 547.512H58.316L57.308 545.768V543.224H57.548L58.54 544.952V547.512ZM55.58 555.976L55.084 555.48V549.368H55.676L55.82 549.528L56.572 550.264V553.512V554.776V555L55.58 555.976ZM63.484 550.264L64.38 549.368H64.972V555.48L64.476 555.976L63.484 555V554.776V553.512V550.264ZM64.476 542.024L64.972 542.52V548.632H64.38L63.484 547.736V547.288V544.488V543.224V543.016L64.476 542.024ZM62.508 543.224H62.748V545.768L61.74 547.512H61.516V544.952L62.508 543.224ZM56.572 547.736L55.676 548.632H55.084V542.52L55.58 542.024L56.572 543V543.224V544.488V547.736ZM69.1705 541.496L69.6665 541H76.5145L77.0105 541.496L76.0345 542.488H76.0025H73.8265H72.3545H70.1785H70.1465L69.1705 541.496ZM68.6425 555.976L68.1465 555.48V549.368H68.7385L68.8825 549.528L69.6345 550.264V553.512V554.776V555L68.6425 555.976ZM77.0105 556.504L76.5145 557H69.6665L69.1705 556.504L70.1465 555.512H70.1785H72.3545H73.8265H76.0025H76.0345L77.0105 556.504ZM76.5465 550.264L77.4425 549.368H78.0345V555.48L77.5385 555.976L76.5465 555V554.776V553.512V550.264ZM77.5385 542.024L78.0345 542.52V548.632H77.4425L76.5465 547.736V547.288V544.488V543.224V543.016L77.5385 542.024ZM69.6345 547.736L68.7385 548.632H68.1465V542.52L68.6425 542.024L69.6345 543V543.224V544.488V547.736ZM86.889 554.488V554.776H85.417V551.768V551.032L86.153 549.752L86.889 551.048V551.768V554.488ZM82.233 541.496L82.729 541H89.577L90.073 541.496L89.097 542.488H89.065H86.889H85.417H83.241H83.209L82.233 541.496ZM85.417 543.224H86.889V546.232V546.968L86.153 548.264L85.417 547V546.232V543.224ZM90.073 556.504L89.577 557H82.729L82.233 556.504L83.209 555.512H83.241H85.417H86.889H89.065H89.097L90.073 556.504ZM89.609 550.264L90.505 549.368H91.097V555.48L90.601 555.976L89.609 555V554.776V553.512V550.264ZM90.601 542.024L91.097 542.52V548.632H90.505L89.609 547.736V547.288V544.488V543.224V543.016L90.601 542.024ZM102.672 550.264L103.568 549.368H104.16V555.48L103.664 555.976L102.672 555V554.776V553.512V550.264ZM103.664 542.024L104.16 542.52V548.632H103.568L102.672 547.736V547.288V544.488V543.224V543.016L103.664 542.024Z" fill="#FF0000"/>
<path d="M3.33 586.976L2.834 586.48V580.368H3.426L3.57 580.528L4.322 581.264V584.512V585.776V586L3.33 586.976ZM11.698 587.504L11.202 588H4.354L3.858 587.504L4.834 586.512H4.866H7.042H8.514H10.69H10.722L11.698 587.504ZM4.322 578.736L3.426 579.632H2.834V573.52L3.33 573.024L4.322 574V574.224V575.488V578.736ZM17.8965 580.736L17.1605 580L17.8965 579.264H19.5605H19.9765L20.4085 580.016L19.9765 580.736H18.1205H17.8965ZM16.9205 572.496L17.4165 572H24.2645L24.7605 572.496L23.7845 573.488H23.7525H21.5765H20.1045H17.9285H17.8965L16.9205 572.496ZM16.3925 586.976L15.8965 586.48V580.368H16.4885L16.6325 580.528L17.3845 581.264V584.512V585.776V586L16.3925 586.976ZM17.3845 578.736L16.4885 579.632H15.8965V573.52L16.3925 573.024L17.3845 574V574.224V575.488V578.736ZM23.7845 579.264L24.5205 580L23.7845 580.736H23.5605H22.3285H21.6885L21.2565 580.016L21.7045 579.264H22.1205H23.7845ZM29.983 572.496L30.479 572H37.327L37.823 572.496L36.847 573.488H36.815H34.639H33.167H30.991H30.959L29.983 572.496ZM29.455 586.976L28.959 586.48V580.368H29.551L29.695 580.528L30.447 581.264V584.512V585.776V586L29.455 586.976ZM37.823 587.504L37.327 588H30.479L29.983 587.504L30.959 586.512H30.991H33.167H34.639H36.815H36.847L37.823 587.504ZM37.359 581.264L38.255 580.368H38.847V586.48L38.351 586.976L37.359 586V585.776V584.512V581.264ZM38.351 573.024L38.847 573.52V579.632H38.255L37.359 578.736V578.288V575.488V574.224V574.016L38.351 573.024ZM30.447 578.736L29.551 579.632H28.959V573.52L29.455 573.024L30.447 574V574.224V575.488V578.736ZM44.0215 580.736L43.2855 580L44.0215 579.264H45.6855H46.1015L46.5335 580.016L46.1015 580.736H44.2455H44.0215ZM43.0455 572.496L43.5415 572H50.3895L50.8855 572.496L49.9095 573.488H49.8775H47.7015H46.2295H44.0535H44.0215L43.0455 572.496ZM42.5175 586.976L42.0215 586.48V580.368H42.6135L42.7575 580.528L43.5095 581.264V584.512V585.776V586L42.5175 586.976ZM50.8855 587.504L50.3895 588H43.5415L43.0455 587.504L44.0215 586.512H44.0535H46.2295H47.7015H49.8775H49.9095L50.8855 587.504ZM51.4135 573.024L51.9095 573.52V579.632H51.3175L50.4215 578.736V578.288V575.488V574.224V574.016L51.4135 573.024ZM49.9095 579.264L50.6455 580L49.9095 580.736H49.6855H48.4535H47.8135L47.3815 580.016L47.8295 579.264H48.2455H49.9095ZM60.764 585.488V585.776H59.292V582.768V582.032L60.028 580.752L60.764 582.048V582.768V585.488ZM58.54 578.512H58.316L57.308 576.768V574.224H57.548L58.54 575.952V578.512ZM55.58 586.976L55.084 586.48V580.368H55.676L55.82 580.528L56.572 581.264V584.512V585.776V586L55.58 586.976ZM63.484 581.264L64.38 580.368H64.972V586.48L64.476 586.976L63.484 586V585.776V584.512V581.264ZM64.476 573.024L64.972 573.52V579.632H64.38L63.484 578.736V578.288V575.488V574.224V574.016L64.476 573.024ZM62.508 574.224H62.748V576.768L61.74 578.512H61.516V575.952L62.508 574.224ZM56.572 578.736L55.676 579.632H55.084V573.52L55.58 573.024L56.572 574V574.224V575.488V578.736ZM69.1705 572.496L69.6665 572H76.5145L77.0105 572.496L76.0345 573.488H76.0025H73.8265H72.3545H70.1785H70.1465L69.1705 572.496ZM68.6425 586.976L68.1465 586.48V580.368H68.7385L68.8825 580.528L69.6345 581.264V584.512V585.776V586L68.6425 586.976ZM77.0105 587.504L76.5145 588H69.6665L69.1705 587.504L70.1465 586.512H70.1785H72.3545H73.8265H76.0025H76.0345L77.0105 587.504ZM76.5465 581.264L77.4425 580.368H78.0345V586.48L77.5385 586.976L76.5465 586V585.776V584.512V581.264ZM77.5385 573.024L78.0345 573.52V579.632H77.4425L76.5465 578.736V578.288V575.488V574.224V574.016L77.5385 573.024ZM69.6345 578.736L68.7385 579.632H68.1465V573.52L68.6425 573.024L69.6345 574V574.224V575.488V578.736ZM86.889 585.488V585.776H85.417V582.768V582.032L86.153 580.752L86.889 582.048V582.768V585.488ZM82.233 572.496L82.729 572H89.577L90.073 572.496L89.097 573.488H89.065H86.889H85.417H83.241H83.209L82.233 572.496ZM85.417 574.224H86.889V577.232V577.968L86.153 579.264L85.417 578V577.232V574.224ZM90.073 587.504L89.577 588H82.729L82.233 587.504L83.209 586.512H83.241H85.417H86.889H89.065H89.097L90.073 587.504ZM89.609 581.264L90.505 580.368H91.097V586.48L90.601 586.976L89.609 586V585.776V584.512V581.264ZM90.601 573.024L91.097 573.52V579.632H90.505L89.609 578.736V578.288V575.488V574.224V574.016L90.601 573.024ZM96.2715 580.736L95.5355 580L96.2715 579.264H97.9355H98.3515L98.7835 580.016L98.3515 580.736H96.4955H96.2715ZM95.2955 572.496L95.7915 572H102.64L103.136 572.496L102.16 573.488H102.128H99.9515H98.4795H96.3035H96.2715L95.2955 572.496ZM94.7675 586.976L94.2715 586.48V580.368H94.8635L95.0075 580.528L95.7595 581.264V584.512V585.776V586L94.7675 586.976ZM103.136 587.504L102.64 588H95.7915L95.2955 587.504L96.2715 586.512H96.3035H98.4795H99.9515H102.128H102.16L103.136 587.504ZM103.664 573.024L104.16 573.52V579.632H103.568L102.672 578.736V578.288V575.488V574.224V574.016L103.664 573.024ZM102.16 579.264L102.896 580L102.16 580.736H101.936H100.704H100.064L99.6315 580.016L100.08 579.264H100.496H102.16Z" fill="#FF0000"/>
<path d="M4.834 611.736L4.098 611L4.834 610.264H6.498H6.914L7.346 611.016L6.914 611.736H5.058H4.834ZM3.858 603.496L4.354 603H11.202L11.698 603.496L10.722 604.488H10.69H8.514H7.042H4.866H4.834L3.858 603.496ZM3.33 617.976L2.834 617.48V611.368H3.426L3.57 611.528L4.322 612.264V615.512V616.776V617L3.33 617.976ZM4.322 609.736L3.426 610.632H2.834V604.52L3.33 604.024L4.322 605V605.224V606.488V609.736ZM10.722 610.264L11.458 611L10.722 611.736H10.498H9.266H8.626L8.194 611.016L8.642 610.264H9.058H10.722ZM21.5765 616.488V616.776H20.1045V613.768V613.032L20.8405 611.752L21.5765 613.048V613.768V616.488ZM16.9205 603.496L17.4165 603H24.2645L24.7605 603.496L23.7845 604.488H23.7525H21.5765H20.1045H17.9285H17.8965L16.9205 603.496ZM20.1045 605.224H21.5765V608.232V608.968L20.8405 610.264L20.1045 609V608.232V605.224ZM24.7605 618.504L24.2645 619H17.4165L16.9205 618.504L17.8965 617.512H17.9285H20.1045H21.5765H23.7525H23.7845L24.7605 618.504ZM29.455 617.976L28.959 617.48V611.368H29.551L29.695 611.528L30.447 612.264V615.512V616.776V617L29.455 617.976ZM37.823 618.504L37.327 619H30.479L29.983 618.504L30.959 617.512H30.991H33.167H34.639H36.815H36.847L37.823 618.504ZM30.447 609.736L29.551 610.632H28.959V604.52L29.455 604.024L30.447 605V605.224V606.488V609.736ZM47.7015 616.488V616.776H46.2295V613.768V613.032L46.9655 611.752L47.7015 613.048V613.768V616.488ZM43.0455 603.496L43.5415 603H50.3895L50.8855 603.496L49.9095 604.488H49.8775H47.7015H46.2295H44.0535H44.0215L43.0455 603.496ZM46.2295 605.224H47.7015V608.232V608.968L46.9655 610.264L46.2295 609V608.232V605.224ZM57.084 611.736L56.348 611L57.084 610.264H58.748H59.164L59.596 611.016L59.164 611.736H57.308H57.084ZM56.108 603.496L56.604 603H63.452L63.948 603.496L62.972 604.488H62.94H60.764H59.292H57.116H57.084L56.108 603.496ZM55.58 617.976L55.084 617.48V611.368H55.676L55.82 611.528L56.572 612.264V615.512V616.776V617L55.58 617.976ZM63.948 618.504L63.452 619H56.604L56.108 618.504L57.084 617.512H57.116H59.292H60.764H62.94H62.972L63.948 618.504ZM56.572 609.736L55.676 610.632H55.084V604.52L55.58 604.024L56.572 605V605.224V606.488V609.736ZM62.972 610.264L63.708 611L62.972 611.736H62.748H61.516H60.876L60.444 611.016L60.892 610.264H61.308H62.972ZM71.6025 609.512H71.3785L70.3705 607.768V605.224H70.6105L71.6025 606.952V609.512ZM74.5785 612.488H74.8025L75.8105 614.232V616.776H75.5705L74.5785 615.048V612.488ZM68.6425 617.976L68.1465 617.48V611.368H68.7385L68.8825 611.528L69.6345 612.264V615.512V616.776V617L68.6425 617.976ZM76.5465 612.264L77.4425 611.368H78.0345V617.48L77.5385 617.976L76.5465 617V616.776V615.512V612.264ZM77.5385 604.024L78.0345 604.52V610.632H77.4425L76.5465 609.736V609.288V606.488V605.224V605.016L77.5385 604.024ZM69.6345 609.736L68.7385 610.632H68.1465V604.52L68.6425 604.024L69.6345 605V605.224V606.488V609.736ZM84.665 612.488V615.048L83.673 616.776H83.433V614.232L84.441 612.488H84.665ZM81.705 617.976L81.209 617.48V611.368H81.801L81.945 611.528L82.697 612.264V615.512V616.776V617L81.705 617.976ZM88.633 605.224H88.873V607.768L87.865 609.512H87.641V606.952L88.633 605.224ZM82.697 609.736L81.801 610.632H81.209V604.52L81.705 604.024L82.697 605V605.224V606.488V609.736ZM96.2715 611.736L95.5355 611L96.2715 610.264H97.9355H98.3515L98.7835 611.016L98.3515 611.736H96.4955H96.2715ZM95.2955 603.496L95.7915 603H102.64L103.136 603.496L102.16 604.488H102.128H99.9515H98.4795H96.3035H96.2715L95.2955 603.496ZM94.7675 617.976L94.2715 617.48V611.368H94.8635L95.0075 611.528L95.7595 612.264V615.512V616.776V617L94.7675 617.976ZM102.672 612.264L103.568 611.368H104.16V617.48L103.664 617.976L102.672 617V616.776V615.512V612.264ZM103.664 604.024L104.16 604.52V610.632H103.568L102.672 609.736V609.288V606.488V605.224V605.016L103.664 604.024ZM95.7595 609.736L94.8635 610.632H94.2715V604.52L94.7675 604.024L95.7595 605V605.224V606.488V609.736ZM102.16 610.264L102.896 611L102.16 611.736H101.936H100.704H100.064L99.6315 611.016L100.08 610.264H100.496H102.16Z" fill="#FF0000"/>
<path d="M4.834 642.736L4.098 642L4.834 641.264H6.498H6.914L7.346 642.016L6.914 642.736H5.058H4.834ZM3.858 634.496L4.354 634H11.202L11.698 634.496L10.722 635.488H10.69H8.514H7.042H4.866H4.834L3.858 634.496ZM3.33 648.976L2.834 648.48V642.368H3.426L3.57 642.528L4.322 643.264V646.512V647.776V648L3.33 648.976ZM4.322 640.736L3.426 641.632H2.834V635.52L3.33 635.024L4.322 636V636.224V637.488V640.736ZM10.722 641.264L11.458 642L10.722 642.736H10.498H9.266H8.626L8.194 642.016L8.642 641.264H9.058H10.722ZM21.5765 647.488V647.776H20.1045V644.768V644.032L20.8405 642.752L21.5765 644.048V644.768V647.488ZM16.9205 634.496L17.4165 634H24.2645L24.7605 634.496L23.7845 635.488H23.7525H21.5765H20.1045H17.9285H17.8965L16.9205 634.496ZM20.1045 636.224H21.5765V639.232V639.968L20.8405 641.264L20.1045 640V639.232V636.224ZM24.7605 649.504L24.2645 650H17.4165L16.9205 649.504L17.8965 648.512H17.9285H20.1045H21.5765H23.7525H23.7845L24.7605 649.504ZM29.455 648.976L28.959 648.48V642.368H29.551L29.695 642.528L30.447 643.264V646.512V647.776V648L29.455 648.976ZM37.823 649.504L37.327 650H30.479L29.983 649.504L30.959 648.512H30.991H33.167H34.639H36.815H36.847L37.823 649.504ZM30.447 640.736L29.551 641.632H28.959V635.52L29.455 635.024L30.447 636V636.224V637.488V640.736ZM47.7015 647.488V647.776H46.2295V644.768V644.032L46.9655 642.752L47.7015 644.048V644.768V647.488ZM43.0455 634.496L43.5415 634H50.3895L50.8855 634.496L49.9095 635.488H49.8775H47.7015H46.2295H44.0535H44.0215L43.0455 634.496ZM46.2295 636.224H47.7015V639.232V639.968L46.9655 641.264L46.2295 640V639.232V636.224ZM57.084 642.736L56.348 642L57.084 641.264H58.748H59.164L59.596 642.016L59.164 642.736H57.308H57.084ZM56.108 634.496L56.604 634H63.452L63.948 634.496L62.972 635.488H62.94H60.764H59.292H57.116H57.084L56.108 634.496ZM55.58 648.976L55.084 648.48V642.368H55.676L55.82 642.528L56.572 643.264V646.512V647.776V648L55.58 648.976ZM63.948 649.504L63.452 650H56.604L56.108 649.504L57.084 648.512H57.116H59.292H60.764H62.94H62.972L63.948 649.504ZM56.572 640.736L55.676 641.632H55.084V635.52L55.58 635.024L56.572 636V636.224V637.488V640.736ZM62.972 641.264L63.708 642L62.972 642.736H62.748H61.516H60.876L60.444 642.016L60.892 641.264H61.308H62.972ZM71.6025 640.512H71.3785L70.3705 638.768V636.224H70.6105L71.6025 637.952V640.512ZM74.5785 643.488H74.8025L75.8105 645.232V647.776H75.5705L74.5785 646.048V643.488ZM68.6425 648.976L68.1465 648.48V642.368H68.7385L68.8825 642.528L69.6345 643.264V646.512V647.776V648L68.6425 648.976ZM76.5465 643.264L77.4425 642.368H78.0345V648.48L77.5385 648.976L76.5465 648V647.776V646.512V643.264ZM77.5385 635.024L78.0345 635.52V641.632H77.4425L76.5465 640.736V640.288V637.488V636.224V636.016L77.5385 635.024ZM69.6345 640.736L68.7385 641.632H68.1465V635.52L68.6425 635.024L69.6345 636V636.224V637.488V640.736ZM84.665 643.488V646.048L83.673 647.776H83.433V645.232L84.441 643.488H84.665ZM81.705 648.976L81.209 648.48V642.368H81.801L81.945 642.528L82.697 643.264V646.512V647.776V648L81.705 648.976ZM88.633 636.224H88.873V638.768L87.865 640.512H87.641V637.952L88.633 636.224ZM82.697 640.736L81.801 641.632H81.209V635.52L81.705 635.024L82.697 636V636.224V637.488V640.736ZM96.2715 642.736L95.5355 642L96.2715 641.264H97.9355H98.3515L98.7835 642.016L98.3515 642.736H96.4955H96.2715ZM95.2955 634.496L95.7915 634H102.64L103.136 634.496L102.16 635.488H102.128H99.9515H98.4795H96.3035H96.2715L95.2955 634.496ZM100.704 643.488H100.928L101.936 645.232V647.776H101.696L100.704 646.048V643.488ZM94.7675 648.976L94.2715 648.48V642.368H94.8635L95.0075 642.528L95.7595 643.264V646.512V647.776V648L94.7675 648.976ZM103.664 635.024L104.16 635.52V641.632H103.568L102.672 640.736V640.288V637.488V636.224V636.016L103.664 635.024ZM95.7595 640.736L94.8635 641.632H94.2715V635.52L94.7675 635.024L95.7595 636V636.224V637.488V640.736ZM102.16 641.264L102.896 642L102.16 642.736H101.936H100.704H100.064L99.6315 642.016L100.08 641.264H100.496H102.16Z" fill="#FF0000"/>
<path d="M4.834 673.736L4.098 673L4.834 672.264H6.498H6.914L7.346 673.016L6.914 673.736H5.058H4.834ZM3.858 665.496L4.354 665H11.202L11.698 665.496L10.722 666.488H10.69H8.514H7.042H4.866H4.834L3.858 665.496ZM3.33 679.976L2.834 679.48V673.368H3.426L3.57 673.528L4.322 674.264V677.512V678.776V679L3.33 679.976ZM11.234 674.264L12.13 673.368H12.722V679.48L12.226 679.976L11.234 679V678.776V677.512V674.264ZM12.226 666.024L12.722 666.52V672.632H12.13L11.234 671.736V671.288V668.488V667.224V667.016L12.226 666.024ZM4.322 671.736L3.426 672.632H2.834V666.52L3.33 666.024L4.322 667V667.224V668.488V671.736ZM10.722 672.264L11.458 673L10.722 673.736H10.498H9.266H8.626L8.194 673.016L8.642 672.264H9.058H10.722ZM21.5765 678.488V678.776H20.1045V675.768V675.032L20.8405 673.752L21.5765 675.048V675.768V678.488ZM19.3525 671.512H19.1285L18.1205 669.768V667.224H18.3605L19.3525 668.952V671.512ZM16.3925 679.976L15.8965 679.48V673.368H16.4885L16.6325 673.528L17.3845 674.264V677.512V678.776V679L16.3925 679.976ZM24.2965 674.264L25.1925 673.368H25.7845V679.48L25.2885 679.976L24.2965 679V678.776V677.512V674.264ZM25.2885 666.024L25.7845 666.52V672.632H25.1925L24.2965 671.736V671.288V668.488V667.224V667.016L25.2885 666.024ZM23.3205 667.224H23.5605V669.768L22.5525 671.512H22.3285V668.952L23.3205 667.224ZM17.3845 671.736L16.4885 672.632H15.8965V666.52L16.3925 666.024L17.3845 667V667.224V668.488V671.736ZM30.959 673.736L30.223 673L30.959 672.264H32.623H33.039L33.471 673.016L33.039 673.736H31.183H30.959ZM29.983 665.496L30.479 665H37.327L37.823 665.496L36.847 666.488H36.815H34.639H33.167H30.991H30.959L29.983 665.496ZM29.455 679.976L28.959 679.48V673.368H29.551L29.695 673.528L30.447 674.264V677.512V678.776V679L29.455 679.976ZM38.351 666.024L38.847 666.52V672.632H38.255L37.359 671.736V671.288V668.488V667.224V667.016L38.351 666.024ZM30.447 671.736L29.551 672.632H28.959V666.52L29.455 666.024L30.447 667V667.224V668.488V671.736ZM36.847 672.264L37.583 673L36.847 673.736H36.623H35.391H34.751L34.319 673.016L34.767 672.264H35.183H36.847ZM57.084 673.736L56.348 673L57.084 672.264H58.748H59.164L59.596 673.016L59.164 673.736H57.308H57.084ZM56.108 665.496L56.604 665H63.452L63.948 665.496L62.972 666.488H62.94H60.764H59.292H57.116H57.084L56.108 665.496ZM55.58 679.976L55.084 679.48V673.368H55.676L55.82 673.528L56.572 674.264V677.512V678.776V679L55.58 679.976ZM63.948 680.504L63.452 681H56.604L56.108 680.504L57.084 679.512H57.116H59.292H60.764H62.94H62.972L63.948 680.504ZM56.572 671.736L55.676 672.632H55.084V666.52L55.58 666.024L56.572 667V667.224V668.488V671.736ZM62.972 672.264L63.708 673L62.972 673.736H62.748H61.516H60.876L60.444 673.016L60.892 672.264H61.308H62.972ZM71.6025 671.512H71.3785L70.3705 669.768V667.224H70.6105L71.6025 668.952V671.512ZM74.5785 674.488H74.8025L75.8105 676.232V678.776H75.5705L74.5785 677.048V674.488ZM68.6425 679.976L68.1465 679.48V673.368H68.7385L68.8825 673.528L69.6345 674.264V677.512V678.776V679L68.6425 679.976ZM76.5465 674.264L77.4425 673.368H78.0345V679.48L77.5385 679.976L76.5465 679V678.776V677.512V674.264ZM77.5385 666.024L78.0345 666.52V672.632H77.4425L76.5465 671.736V671.288V668.488V667.224V667.016L77.5385 666.024ZM69.6345 671.736L68.7385 672.632H68.1465V666.52L68.6425 666.024L69.6345 667V667.224V668.488V671.736ZM84.665 674.488V677.048L83.673 678.776H83.433V676.232L84.441 674.488H84.665ZM81.705 679.976L81.209 679.48V673.368H81.801L81.945 673.528L82.697 674.264V677.512V678.776V679L81.705 679.976ZM88.633 667.224H88.873V669.768L87.865 671.512H87.641V668.952L88.633 667.224ZM82.697 671.736L81.801 672.632H81.209V666.52L81.705 666.024L82.697 667V667.224V668.488V671.736ZM96.2715 673.736L95.5355 673L96.2715 672.264H97.9355H98.3515L98.7835 673.016L98.3515 673.736H96.4955H96.2715ZM95.2955 665.496L95.7915 665H102.64L103.136 665.496L102.16 666.488H102.128H99.9515H98.4795H96.3035H96.2715L95.2955 665.496ZM94.7675 679.976L94.2715 679.48V673.368H94.8635L95.0075 673.528L95.7595 674.264V677.512V678.776V679L94.7675 679.976ZM102.672 674.264L103.568 673.368H104.16V679.48L103.664 679.976L102.672 679V678.776V677.512V674.264ZM103.664 666.024L104.16 666.52V672.632H103.568L102.672 671.736V671.288V668.488V667.224V667.016L103.664 666.024ZM95.7595 671.736L94.8635 672.632H94.2715V666.52L94.7675 666.024L95.7595 667V667.224V668.488V671.736ZM102.16 672.264L102.896 673L102.16 673.736H101.936H100.704H100.064L99.6315 673.016L100.08 672.264H100.496H102.16Z" fill="#FF0000"/>
<path d="M4.834 704.736L4.098 704L4.834 703.264H6.498H6.914L7.346 704.016L6.914 704.736H5.058H4.834ZM3.858 696.496L4.354 696H11.202L11.698 696.496L10.722 697.488H10.69H8.514H7.042H4.866H4.834L3.858 696.496ZM3.33 710.976L2.834 710.48V704.368H3.426L3.57 704.528L4.322 705.264V708.512V709.776V710L3.33 710.976ZM11.234 705.264L12.13 704.368H12.722V710.48L12.226 710.976L11.234 710V709.776V708.512V705.264ZM12.226 697.024L12.722 697.52V703.632H12.13L11.234 702.736V702.288V699.488V698.224V698.016L12.226 697.024ZM4.322 702.736L3.426 703.632H2.834V697.52L3.33 697.024L4.322 698V698.224V699.488V702.736ZM10.722 703.264L11.458 704L10.722 704.736H10.498H9.266H8.626L8.194 704.016L8.642 703.264H9.058H10.722ZM21.5765 709.488V709.776H20.1045V706.768V706.032L20.8405 704.752L21.5765 706.048V706.768V709.488ZM19.3525 702.512H19.1285L18.1205 700.768V698.224H18.3605L19.3525 699.952V702.512ZM16.3925 710.976L15.8965 710.48V704.368H16.4885L16.6325 704.528L17.3845 705.264V708.512V709.776V710L16.3925 710.976ZM24.2965 705.264L25.1925 704.368H25.7845V710.48L25.2885 710.976L24.2965 710V709.776V708.512V705.264ZM25.2885 697.024L25.7845 697.52V703.632H25.1925L24.2965 702.736V702.288V699.488V698.224V698.016L25.2885 697.024ZM23.3205 698.224H23.5605V700.768L22.5525 702.512H22.3285V699.952L23.3205 698.224ZM17.3845 702.736L16.4885 703.632H15.8965V697.52L16.3925 697.024L17.3845 698V698.224V699.488V702.736ZM30.959 704.736L30.223 704L30.959 703.264H32.623H33.039L33.471 704.016L33.039 704.736H31.183H30.959ZM29.983 696.496L30.479 696H37.327L37.823 696.496L36.847 697.488H36.815H34.639H33.167H30.991H30.959L29.983 696.496ZM29.455 710.976L28.959 710.48V704.368H29.551L29.695 704.528L30.447 705.264V708.512V709.776V710L29.455 710.976ZM38.351 697.024L38.847 697.52V703.632H38.255L37.359 702.736V702.288V699.488V698.224V698.016L38.351 697.024ZM30.447 702.736L29.551 703.632H28.959V697.52L29.455 697.024L30.447 698V698.224V699.488V702.736ZM36.847 703.264L37.583 704L36.847 704.736H36.623H35.391H34.751L34.319 704.016L34.767 703.264H35.183H36.847ZM57.084 704.736L56.348 704L57.084 703.264H58.748H59.164L59.596 704.016L59.164 704.736H57.308H57.084ZM56.108 696.496L56.604 696H63.452L63.948 696.496L62.972 697.488H62.94H60.764H59.292H57.116H57.084L56.108 696.496ZM55.58 710.976L55.084 710.48V704.368H55.676L55.82 704.528L56.572 705.264V708.512V709.776V710L55.58 710.976ZM63.948 711.504L63.452 712H56.604L56.108 711.504L57.084 710.512H57.116H59.292H60.764H62.94H62.972L63.948 711.504ZM56.572 702.736L55.676 703.632H55.084V697.52L55.58 697.024L56.572 698V698.224V699.488V702.736ZM62.972 703.264L63.708 704L62.972 704.736H62.748H61.516H60.876L60.444 704.016L60.892 703.264H61.308H62.972ZM71.6025 702.512H71.3785L70.3705 700.768V698.224H70.6105L71.6025 699.952V702.512ZM74.5785 705.488H74.8025L75.8105 707.232V709.776H75.5705L74.5785 708.048V705.488ZM68.6425 710.976L68.1465 710.48V704.368H68.7385L68.8825 704.528L69.6345 705.264V708.512V709.776V710L68.6425 710.976ZM76.5465 705.264L77.4425 704.368H78.0345V710.48L77.5385 710.976L76.5465 710V709.776V708.512V705.264ZM77.5385 697.024L78.0345 697.52V703.632H77.4425L76.5465 702.736V702.288V699.488V698.224V698.016L77.5385 697.024ZM69.6345 702.736L68.7385 703.632H68.1465V697.52L68.6425 697.024L69.6345 698V698.224V699.488V702.736ZM84.665 705.488V708.048L83.673 709.776H83.433V707.232L84.441 705.488H84.665ZM81.705 710.976L81.209 710.48V704.368H81.801L81.945 704.528L82.697 705.264V708.512V709.776V710L81.705 710.976ZM88.633 698.224H88.873V700.768L87.865 702.512H87.641V699.952L88.633 698.224ZM82.697 702.736L81.801 703.632H81.209V697.52L81.705 697.024L82.697 698V698.224V699.488V702.736ZM96.2715 704.736L95.5355 704L96.2715 703.264H97.9355H98.3515L98.7835 704.016L98.3515 704.736H96.4955H96.2715ZM95.2955 696.496L95.7915 696H102.64L103.136 696.496L102.16 697.488H102.128H99.9515H98.4795H96.3035H96.2715L95.2955 696.496ZM100.704 705.488H100.928L101.936 707.232V709.776H101.696L100.704 708.048V705.488ZM94.7675 710.976L94.2715 710.48V704.368H94.8635L95.0075 704.528L95.7595 705.264V708.512V709.776V710L94.7675 710.976ZM103.664 697.024L104.16 697.52V703.632H103.568L102.672 702.736V702.288V699.488V698.224V698.016L103.664 697.024ZM95.7595 702.736L94.8635 703.632H94.2715V697.52L94.7675 697.024L95.7595 698V698.224V699.488V702.736ZM102.16 703.264L102.896 704L102.16 704.736H101.936H100.704H100.064L99.6315 704.016L100.08 703.264H100.496H102.16Z" fill="#FF0000"/>
</g>
<defs>
<clipPath id="clip0_141_1242">
<rect width="107" height="719" fill="white"/>
</clipPath>
</defs>
</svg>
