<svg width="31" height="1519" viewBox="0 0 31 1519" fill="none" xmlns="http://www.w3.org/2000/svg">
<rect width="31" height="31" fill="black" fill-opacity="0.01"/>
<path d="M20.54 17.488V20.048L19.548 21.776H19.308V19.232L20.316 17.488H20.54ZM18.108 8.496L18.604 8H25.452L25.948 8.496L24.972 9.488H24.94H22.764H21.292H19.116H19.084L18.108 8.496ZM17.58 22.976L17.084 22.48V16.368H17.676L17.82 16.528L18.572 17.264V20.512V21.776V22L17.58 22.976ZM25.948 23.504L25.452 24H18.604L18.108 23.504L19.084 22.512H19.116H21.292H22.764H24.94H24.972L25.948 23.504ZM25.484 17.264L26.38 16.368H26.972V22.48L26.476 22.976L25.484 22V21.776V20.512V17.264ZM26.476 9.024L26.972 9.52V15.632H26.38L25.484 14.736V14.288V11.488V10.224V10.016L26.476 9.024ZM24.508 10.224H24.748V12.768L23.74 14.512H23.516V11.952L24.508 10.224ZM18.572 14.736L17.676 15.632H17.084V9.52L17.58 9.024L18.572 10V10.224V11.488V14.736Z" fill="#FF0000"/>
<rect y="31" width="31" height="31" fill="black" fill-opacity="0.01"/>
<path d="M25.484 48.264L26.38 47.368H26.972V53.48L26.476 53.976L25.484 53V52.776V51.512V48.264ZM26.476 40.024L26.972 40.52V46.632H26.38L25.484 45.736V45.288V42.488V41.224V41.016L26.476 40.024Z" fill="#FF0000"/>
<rect y="62" width="31" height="31" fill="black" fill-opacity="0.01"/>
<path d="M19.084 78.736L18.348 78L19.084 77.264H20.748H21.164L21.596 78.016L21.164 78.736H19.308H19.084ZM18.108 70.496L18.604 70H25.452L25.948 70.496L24.972 71.488H24.94H22.764H21.292H19.116H19.084L18.108 70.496ZM17.58 84.976L17.084 84.48V78.368H17.676L17.82 78.528L18.572 79.264V82.512V83.776V84L17.58 84.976ZM25.948 85.504L25.452 86H18.604L18.108 85.504L19.084 84.512H19.116H21.292H22.764H24.94H24.972L25.948 85.504ZM26.476 71.024L26.972 71.52V77.632H26.38L25.484 76.736V76.288V73.488V72.224V72.016L26.476 71.024ZM24.972 77.264L25.708 78L24.972 78.736H24.748H23.516H22.876L22.444 78.016L22.892 77.264H23.308H24.972Z" fill="#FF0000"/>
<rect y="93" width="31" height="31" fill="black" fill-opacity="0.01"/>
<path d="M19.084 109.736L18.348 109L19.084 108.264H20.748H21.164L21.596 109.016L21.164 109.736H19.308H19.084ZM18.108 101.496L18.604 101H25.452L25.948 101.496L24.972 102.488H24.94H22.764H21.292H19.116H19.084L18.108 101.496ZM25.948 116.504L25.452 117H18.604L18.108 116.504L19.084 115.512H19.116H21.292H22.764H24.94H24.972L25.948 116.504ZM25.484 110.264L26.38 109.368H26.972V115.48L26.476 115.976L25.484 115V114.776V113.512V110.264ZM26.476 102.024L26.972 102.52V108.632H26.38L25.484 107.736V107.288V104.488V103.224V103.016L26.476 102.024ZM24.972 108.264L25.708 109L24.972 109.736H24.748H23.516H22.876L22.444 109.016L22.892 108.264H23.308H24.972Z" fill="#FF0000"/>
<rect y="124" width="31" height="31" fill="black" fill-opacity="0.01"/>
<path d="M19.084 140.736L18.348 140L19.084 139.264H20.748H21.164L21.596 140.016L21.164 140.736H19.308H19.084ZM25.484 141.264L26.38 140.368H26.972V146.48L26.476 146.976L25.484 146V145.776V144.512V141.264ZM26.476 133.024L26.972 133.52V139.632H26.38L25.484 138.736V138.288V135.488V134.224V134.016L26.476 133.024ZM18.572 138.736L17.676 139.632H17.084V133.52L17.58 133.024L18.572 134V134.224V135.488V138.736ZM24.972 139.264L25.708 140L24.972 140.736H24.748H23.516H22.876L22.444 140.016L22.892 139.264H23.308H24.972Z" fill="#FF0000"/>
<rect y="155" width="31" height="31" fill="black" fill-opacity="0.01"/>
<path d="M19.084 171.736L18.348 171L19.084 170.264H20.748H21.164L21.596 171.016L21.164 171.736H19.308H19.084ZM18.108 163.496L18.604 163H25.452L25.948 163.496L24.972 164.488H24.94H22.764H21.292H19.116H19.084L18.108 163.496ZM25.948 178.504L25.452 179H18.604L18.108 178.504L19.084 177.512H19.116H21.292H22.764H24.94H24.972L25.948 178.504ZM25.484 172.264L26.38 171.368H26.972V177.48L26.476 177.976L25.484 177V176.776V175.512V172.264ZM18.572 169.736L17.676 170.632H17.084V164.52L17.58 164.024L18.572 165V165.224V166.488V169.736ZM24.972 170.264L25.708 171L24.972 171.736H24.748H23.516H22.876L22.444 171.016L22.892 170.264H23.308H24.972Z" fill="#FF0000"/>
<rect y="186" width="31" height="31" fill="black" fill-opacity="0.01"/>
<path d="M19.084 202.736L18.348 202L19.084 201.264H20.748H21.164L21.596 202.016L21.164 202.736H19.308H19.084ZM18.108 194.496L18.604 194H25.452L25.948 194.496L24.972 195.488H24.94H22.764H21.292H19.116H19.084L18.108 194.496ZM17.58 208.976L17.084 208.48V202.368H17.676L17.82 202.528L18.572 203.264V206.512V207.776V208L17.58 208.976ZM25.948 209.504L25.452 210H18.604L18.108 209.504L19.084 208.512H19.116H21.292H22.764H24.94H24.972L25.948 209.504ZM25.484 203.264L26.38 202.368H26.972V208.48L26.476 208.976L25.484 208V207.776V206.512V203.264ZM18.572 200.736L17.676 201.632H17.084V195.52L17.58 195.024L18.572 196V196.224V197.488V200.736ZM24.972 201.264L25.708 202L24.972 202.736H24.748H23.516H22.876L22.444 202.016L22.892 201.264H23.308H24.972Z" fill="#FF0000"/>
<rect y="217" width="31" height="31" fill="black" fill-opacity="0.01"/>
<path d="M18.108 225.496L18.604 225H25.452L25.948 225.496L24.972 226.488H24.94H22.764H21.292H19.116H19.084L18.108 225.496ZM25.484 234.264L26.38 233.368H26.972V239.48L26.476 239.976L25.484 239V238.776V237.512V234.264ZM26.476 226.024L26.972 226.52V232.632H26.38L25.484 231.736V231.288V228.488V227.224V227.016L26.476 226.024ZM18.572 231.736L17.676 232.632H17.084V226.52L17.58 226.024L18.572 227V227.224V228.488V231.736Z" fill="#FF0000"/>
<rect y="248" width="31" height="31" fill="black" fill-opacity="0.01"/>
<path d="M19.084 264.736L18.348 264L19.084 263.264H20.748H21.164L21.596 264.016L21.164 264.736H19.308H19.084ZM18.108 256.496L18.604 256H25.452L25.948 256.496L24.972 257.488H24.94H22.764H21.292H19.116H19.084L18.108 256.496ZM17.58 270.976L17.084 270.48V264.368H17.676L17.82 264.528L18.572 265.264V268.512V269.776V270L17.58 270.976ZM25.948 271.504L25.452 272H18.604L18.108 271.504L19.084 270.512H19.116H21.292H22.764H24.94H24.972L25.948 271.504ZM25.484 265.264L26.38 264.368H26.972V270.48L26.476 270.976L25.484 270V269.776V268.512V265.264ZM26.476 257.024L26.972 257.52V263.632H26.38L25.484 262.736V262.288V259.488V258.224V258.016L26.476 257.024ZM18.572 262.736L17.676 263.632H17.084V257.52L17.58 257.024L18.572 258V258.224V259.488V262.736ZM24.972 263.264L25.708 264L24.972 264.736H24.748H23.516H22.876L22.444 264.016L22.892 263.264H23.308H24.972Z" fill="#FF0000"/>
<rect y="279" width="31" height="31" fill="black" fill-opacity="0.01"/>
<path d="M19.084 295.736L18.348 295L19.084 294.264H20.748H21.164L21.596 295.016L21.164 295.736H19.308H19.084ZM18.108 287.496L18.604 287H25.452L25.948 287.496L24.972 288.488H24.94H22.764H21.292H19.116H19.084L18.108 287.496ZM25.948 302.504L25.452 303H18.604L18.108 302.504L19.084 301.512H19.116H21.292H22.764H24.94H24.972L25.948 302.504ZM25.484 296.264L26.38 295.368H26.972V301.48L26.476 301.976L25.484 301V300.776V299.512V296.264ZM26.476 288.024L26.972 288.52V294.632H26.38L25.484 293.736V293.288V290.488V289.224V289.016L26.476 288.024ZM18.572 293.736L17.676 294.632H17.084V288.52L17.58 288.024L18.572 289V289.224V290.488V293.736ZM24.972 294.264L25.708 295L24.972 295.736H24.748H23.516H22.876L22.444 295.016L22.892 294.264H23.308H24.972Z" fill="#FF0000"/>
<rect y="310" width="31" height="31" fill="black" fill-opacity="0.01"/>
<path d="M12.4215 327.264L13.3175 326.368H13.9095V332.48L13.4135 332.976L12.4215 332V331.776V330.512V327.264ZM13.4135 319.024L13.9095 319.52V325.632H13.3175L12.4215 324.736V324.288V321.488V320.224V320.016L13.4135 319.024ZM20.54 327.488V330.048L19.548 331.776H19.308V329.232L20.316 327.488H20.54ZM18.108 318.496L18.604 318H25.452L25.948 318.496L24.972 319.488H24.94H22.764H21.292H19.116H19.084L18.108 318.496ZM17.58 332.976L17.084 332.48V326.368H17.676L17.82 326.528L18.572 327.264V330.512V331.776V332L17.58 332.976ZM25.948 333.504L25.452 334H18.604L18.108 333.504L19.084 332.512H19.116H21.292H22.764H24.94H24.972L25.948 333.504ZM25.484 327.264L26.38 326.368H26.972V332.48L26.476 332.976L25.484 332V331.776V330.512V327.264ZM26.476 319.024L26.972 319.52V325.632H26.38L25.484 324.736V324.288V321.488V320.224V320.016L26.476 319.024ZM24.508 320.224H24.748V322.768L23.74 324.512H23.516V321.952L24.508 320.224ZM18.572 324.736L17.676 325.632H17.084V319.52L17.58 319.024L18.572 320V320.224V321.488V324.736Z" fill="#FF0000"/>
<rect y="341" width="31" height="31" fill="black" fill-opacity="0.01"/>
<path d="M12.4215 358.264L13.3175 357.368H13.9095V363.48L13.4135 363.976L12.4215 363V362.776V361.512V358.264ZM13.4135 350.024L13.9095 350.52V356.632H13.3175L12.4215 355.736V355.288V352.488V351.224V351.016L13.4135 350.024ZM25.484 358.264L26.38 357.368H26.972V363.48L26.476 363.976L25.484 363V362.776V361.512V358.264ZM26.476 350.024L26.972 350.52V356.632H26.38L25.484 355.736V355.288V352.488V351.224V351.016L26.476 350.024Z" fill="#FF0000"/>
<rect y="372" width="31" height="31" fill="black" fill-opacity="0.01"/>
<path d="M12.4215 389.264L13.3175 388.368H13.9095V394.48L13.4135 394.976L12.4215 394V393.776V392.512V389.264ZM13.4135 381.024L13.9095 381.52V387.632H13.3175L12.4215 386.736V386.288V383.488V382.224V382.016L13.4135 381.024ZM19.084 388.736L18.348 388L19.084 387.264H20.748H21.164L21.596 388.016L21.164 388.736H19.308H19.084ZM18.108 380.496L18.604 380H25.452L25.948 380.496L24.972 381.488H24.94H22.764H21.292H19.116H19.084L18.108 380.496ZM17.58 394.976L17.084 394.48V388.368H17.676L17.82 388.528L18.572 389.264V392.512V393.776V394L17.58 394.976ZM25.948 395.504L25.452 396H18.604L18.108 395.504L19.084 394.512H19.116H21.292H22.764H24.94H24.972L25.948 395.504ZM26.476 381.024L26.972 381.52V387.632H26.38L25.484 386.736V386.288V383.488V382.224V382.016L26.476 381.024ZM24.972 387.264L25.708 388L24.972 388.736H24.748H23.516H22.876L22.444 388.016L22.892 387.264H23.308H24.972Z" fill="#FF0000"/>
<rect y="403" width="31" height="31" fill="black" fill-opacity="0.01"/>
<path d="M12.4215 420.264L13.3175 419.368H13.9095V425.48L13.4135 425.976L12.4215 425V424.776V423.512V420.264ZM13.4135 412.024L13.9095 412.52V418.632H13.3175L12.4215 417.736V417.288V414.488V413.224V413.016L13.4135 412.024ZM19.084 419.736L18.348 419L19.084 418.264H20.748H21.164L21.596 419.016L21.164 419.736H19.308H19.084ZM18.108 411.496L18.604 411H25.452L25.948 411.496L24.972 412.488H24.94H22.764H21.292H19.116H19.084L18.108 411.496ZM25.948 426.504L25.452 427H18.604L18.108 426.504L19.084 425.512H19.116H21.292H22.764H24.94H24.972L25.948 426.504ZM25.484 420.264L26.38 419.368H26.972V425.48L26.476 425.976L25.484 425V424.776V423.512V420.264ZM26.476 412.024L26.972 412.52V418.632H26.38L25.484 417.736V417.288V414.488V413.224V413.016L26.476 412.024ZM24.972 418.264L25.708 419L24.972 419.736H24.748H23.516H22.876L22.444 419.016L22.892 418.264H23.308H24.972Z" fill="#FF0000"/>
<rect y="434" width="31" height="31" fill="black" fill-opacity="0.01"/>
<path d="M12.4215 451.264L13.3175 450.368H13.9095V456.48L13.4135 456.976L12.4215 456V455.776V454.512V451.264ZM13.4135 443.024L13.9095 443.52V449.632H13.3175L12.4215 448.736V448.288V445.488V444.224V444.016L13.4135 443.024ZM19.084 450.736L18.348 450L19.084 449.264H20.748H21.164L21.596 450.016L21.164 450.736H19.308H19.084ZM25.484 451.264L26.38 450.368H26.972V456.48L26.476 456.976L25.484 456V455.776V454.512V451.264ZM26.476 443.024L26.972 443.52V449.632H26.38L25.484 448.736V448.288V445.488V444.224V444.016L26.476 443.024ZM18.572 448.736L17.676 449.632H17.084V443.52L17.58 443.024L18.572 444V444.224V445.488V448.736ZM24.972 449.264L25.708 450L24.972 450.736H24.748H23.516H22.876L22.444 450.016L22.892 449.264H23.308H24.972Z" fill="#FF0000"/>
<rect y="465" width="31" height="31" fill="black" fill-opacity="0.01"/>
<path d="M12.4215 482.264L13.3175 481.368H13.9095V487.48L13.4135 487.976L12.4215 487V486.776V485.512V482.264ZM13.4135 474.024L13.9095 474.52V480.632H13.3175L12.4215 479.736V479.288V476.488V475.224V475.016L13.4135 474.024ZM19.084 481.736L18.348 481L19.084 480.264H20.748H21.164L21.596 481.016L21.164 481.736H19.308H19.084ZM18.108 473.496L18.604 473H25.452L25.948 473.496L24.972 474.488H24.94H22.764H21.292H19.116H19.084L18.108 473.496ZM25.948 488.504L25.452 489H18.604L18.108 488.504L19.084 487.512H19.116H21.292H22.764H24.94H24.972L25.948 488.504ZM25.484 482.264L26.38 481.368H26.972V487.48L26.476 487.976L25.484 487V486.776V485.512V482.264ZM18.572 479.736L17.676 480.632H17.084V474.52L17.58 474.024L18.572 475V475.224V476.488V479.736ZM24.972 480.264L25.708 481L24.972 481.736H24.748H23.516H22.876L22.444 481.016L22.892 480.264H23.308H24.972Z" fill="#FF0000"/>
<rect y="496" width="31" height="31" fill="black" fill-opacity="0.01"/>
<path d="M12.4215 513.264L13.3175 512.368H13.9095V518.48L13.4135 518.976L12.4215 518V517.776V516.512V513.264ZM13.4135 505.024L13.9095 505.52V511.632H13.3175L12.4215 510.736V510.288V507.488V506.224V506.016L13.4135 505.024ZM19.084 512.736L18.348 512L19.084 511.264H20.748H21.164L21.596 512.016L21.164 512.736H19.308H19.084ZM18.108 504.496L18.604 504H25.452L25.948 504.496L24.972 505.488H24.94H22.764H21.292H19.116H19.084L18.108 504.496ZM17.58 518.976L17.084 518.48V512.368H17.676L17.82 512.528L18.572 513.264V516.512V517.776V518L17.58 518.976ZM25.948 519.504L25.452 520H18.604L18.108 519.504L19.084 518.512H19.116H21.292H22.764H24.94H24.972L25.948 519.504ZM25.484 513.264L26.38 512.368H26.972V518.48L26.476 518.976L25.484 518V517.776V516.512V513.264ZM18.572 510.736L17.676 511.632H17.084V505.52L17.58 505.024L18.572 506V506.224V507.488V510.736ZM24.972 511.264L25.708 512L24.972 512.736H24.748H23.516H22.876L22.444 512.016L22.892 511.264H23.308H24.972Z" fill="#FF0000"/>
<rect y="527" width="31" height="31" fill="black" fill-opacity="0.01"/>
<path d="M12.4215 544.264L13.3175 543.368H13.9095V549.48L13.4135 549.976L12.4215 549V548.776V547.512V544.264ZM13.4135 536.024L13.9095 536.52V542.632H13.3175L12.4215 541.736V541.288V538.488V537.224V537.016L13.4135 536.024ZM18.108 535.496L18.604 535H25.452L25.948 535.496L24.972 536.488H24.94H22.764H21.292H19.116H19.084L18.108 535.496ZM25.484 544.264L26.38 543.368H26.972V549.48L26.476 549.976L25.484 549V548.776V547.512V544.264ZM26.476 536.024L26.972 536.52V542.632H26.38L25.484 541.736V541.288V538.488V537.224V537.016L26.476 536.024ZM18.572 541.736L17.676 542.632H17.084V536.52L17.58 536.024L18.572 537V537.224V538.488V541.736Z" fill="#FF0000"/>
<rect y="558" width="31" height="31" fill="black" fill-opacity="0.01"/>
<path d="M12.4215 575.264L13.3175 574.368H13.9095V580.48L13.4135 580.976L12.4215 580V579.776V578.512V575.264ZM13.4135 567.024L13.9095 567.52V573.632H13.3175L12.4215 572.736V572.288V569.488V568.224V568.016L13.4135 567.024ZM19.084 574.736L18.348 574L19.084 573.264H20.748H21.164L21.596 574.016L21.164 574.736H19.308H19.084ZM18.108 566.496L18.604 566H25.452L25.948 566.496L24.972 567.488H24.94H22.764H21.292H19.116H19.084L18.108 566.496ZM17.58 580.976L17.084 580.48V574.368H17.676L17.82 574.528L18.572 575.264V578.512V579.776V580L17.58 580.976ZM25.948 581.504L25.452 582H18.604L18.108 581.504L19.084 580.512H19.116H21.292H22.764H24.94H24.972L25.948 581.504ZM25.484 575.264L26.38 574.368H26.972V580.48L26.476 580.976L25.484 580V579.776V578.512V575.264ZM26.476 567.024L26.972 567.52V573.632H26.38L25.484 572.736V572.288V569.488V568.224V568.016L26.476 567.024ZM18.572 572.736L17.676 573.632H17.084V567.52L17.58 567.024L18.572 568V568.224V569.488V572.736ZM24.972 573.264L25.708 574L24.972 574.736H24.748H23.516H22.876L22.444 574.016L22.892 573.264H23.308H24.972Z" fill="#FF0000"/>
<rect y="589" width="31" height="31" fill="black" fill-opacity="0.01"/>
<path d="M12.4215 606.264L13.3175 605.368H13.9095V611.48L13.4135 611.976L12.4215 611V610.776V609.512V606.264ZM13.4135 598.024L13.9095 598.52V604.632H13.3175L12.4215 603.736V603.288V600.488V599.224V599.016L13.4135 598.024ZM19.084 605.736L18.348 605L19.084 604.264H20.748H21.164L21.596 605.016L21.164 605.736H19.308H19.084ZM18.108 597.496L18.604 597H25.452L25.948 597.496L24.972 598.488H24.94H22.764H21.292H19.116H19.084L18.108 597.496ZM25.948 612.504L25.452 613H18.604L18.108 612.504L19.084 611.512H19.116H21.292H22.764H24.94H24.972L25.948 612.504ZM25.484 606.264L26.38 605.368H26.972V611.48L26.476 611.976L25.484 611V610.776V609.512V606.264ZM26.476 598.024L26.972 598.52V604.632H26.38L25.484 603.736V603.288V600.488V599.224V599.016L26.476 598.024ZM18.572 603.736L17.676 604.632H17.084V598.52L17.58 598.024L18.572 599V599.224V600.488V603.736ZM24.972 604.264L25.708 605L24.972 605.736H24.748H23.516H22.876L22.444 605.016L22.892 604.264H23.308H24.972Z" fill="#FF0000"/>
<rect y="620" width="31" height="31" fill="black" fill-opacity="0.01"/>
<path d="M6.0215 636.736L5.2855 636L6.0215 635.264H7.6855H8.1015L8.5335 636.016L8.1015 636.736H6.2455H6.0215ZM5.0455 628.496L5.5415 628H12.3895L12.8855 628.496L11.9095 629.488H11.8775H9.7015H8.2295H6.0535H6.0215L5.0455 628.496ZM4.5175 642.976L4.0215 642.48V636.368H4.6135L4.7575 636.528L5.5095 637.264V640.512V641.776V642L4.5175 642.976ZM12.8855 643.504L12.3895 644H5.5415L5.0455 643.504L6.0215 642.512H6.0535H8.2295H9.7015H11.8775H11.9095L12.8855 643.504ZM13.4135 629.024L13.9095 629.52V635.632H13.3175L12.4215 634.736V634.288V631.488V630.224V630.016L13.4135 629.024ZM11.9095 635.264L12.6455 636L11.9095 636.736H11.6855H10.4535H9.8135L9.3815 636.016L9.8295 635.264H10.2455H11.9095ZM20.54 637.488V640.048L19.548 641.776H19.308V639.232L20.316 637.488H20.54ZM18.108 628.496L18.604 628H25.452L25.948 628.496L24.972 629.488H24.94H22.764H21.292H19.116H19.084L18.108 628.496ZM17.58 642.976L17.084 642.48V636.368H17.676L17.82 636.528L18.572 637.264V640.512V641.776V642L17.58 642.976ZM25.948 643.504L25.452 644H18.604L18.108 643.504L19.084 642.512H19.116H21.292H22.764H24.94H24.972L25.948 643.504ZM25.484 637.264L26.38 636.368H26.972V642.48L26.476 642.976L25.484 642V641.776V640.512V637.264ZM26.476 629.024L26.972 629.52V635.632H26.38L25.484 634.736V634.288V631.488V630.224V630.016L26.476 629.024ZM24.508 630.224H24.748V632.768L23.74 634.512H23.516V631.952L24.508 630.224ZM18.572 634.736L17.676 635.632H17.084V629.52L17.58 629.024L18.572 630V630.224V631.488V634.736Z" fill="#FF0000"/>
<rect y="651" width="31" height="31" fill="black" fill-opacity="0.01"/>
<path d="M6.0215 667.736L5.2855 667L6.0215 666.264H7.6855H8.1015L8.5335 667.016L8.1015 667.736H6.2455H6.0215ZM5.0455 659.496L5.5415 659H12.3895L12.8855 659.496L11.9095 660.488H11.8775H9.7015H8.2295H6.0535H6.0215L5.0455 659.496ZM4.5175 673.976L4.0215 673.48V667.368H4.6135L4.7575 667.528L5.5095 668.264V671.512V672.776V673L4.5175 673.976ZM12.8855 674.504L12.3895 675H5.5415L5.0455 674.504L6.0215 673.512H6.0535H8.2295H9.7015H11.8775H11.9095L12.8855 674.504ZM13.4135 660.024L13.9095 660.52V666.632H13.3175L12.4215 665.736V665.288V662.488V661.224V661.016L13.4135 660.024ZM11.9095 666.264L12.6455 667L11.9095 667.736H11.6855H10.4535H9.8135L9.3815 667.016L9.8295 666.264H10.2455H11.9095ZM25.484 668.264L26.38 667.368H26.972V673.48L26.476 673.976L25.484 673V672.776V671.512V668.264ZM26.476 660.024L26.972 660.52V666.632H26.38L25.484 665.736V665.288V662.488V661.224V661.016L26.476 660.024Z" fill="#FF0000"/>
<rect y="682" width="31" height="31" fill="black" fill-opacity="0.01"/>
<path d="M6.0215 698.736L5.2855 698L6.0215 697.264H7.6855H8.1015L8.5335 698.016L8.1015 698.736H6.2455H6.0215ZM5.0455 690.496L5.5415 690H12.3895L12.8855 690.496L11.9095 691.488H11.8775H9.7015H8.2295H6.0535H6.0215L5.0455 690.496ZM4.5175 704.976L4.0215 704.48V698.368H4.6135L4.7575 698.528L5.5095 699.264V702.512V703.776V704L4.5175 704.976ZM12.8855 705.504L12.3895 706H5.5415L5.0455 705.504L6.0215 704.512H6.0535H8.2295H9.7015H11.8775H11.9095L12.8855 705.504ZM13.4135 691.024L13.9095 691.52V697.632H13.3175L12.4215 696.736V696.288V693.488V692.224V692.016L13.4135 691.024ZM11.9095 697.264L12.6455 698L11.9095 698.736H11.6855H10.4535H9.8135L9.3815 698.016L9.8295 697.264H10.2455H11.9095ZM19.084 698.736L18.348 698L19.084 697.264H20.748H21.164L21.596 698.016L21.164 698.736H19.308H19.084ZM18.108 690.496L18.604 690H25.452L25.948 690.496L24.972 691.488H24.94H22.764H21.292H19.116H19.084L18.108 690.496ZM17.58 704.976L17.084 704.48V698.368H17.676L17.82 698.528L18.572 699.264V702.512V703.776V704L17.58 704.976ZM25.948 705.504L25.452 706H18.604L18.108 705.504L19.084 704.512H19.116H21.292H22.764H24.94H24.972L25.948 705.504ZM26.476 691.024L26.972 691.52V697.632H26.38L25.484 696.736V696.288V693.488V692.224V692.016L26.476 691.024ZM24.972 697.264L25.708 698L24.972 698.736H24.748H23.516H22.876L22.444 698.016L22.892 697.264H23.308H24.972Z" fill="#FF0000"/>
<rect y="713" width="31" height="31" fill="black" fill-opacity="0.01"/>
<path d="M6.0215 729.736L5.2855 729L6.0215 728.264H7.6855H8.1015L8.5335 729.016L8.1015 729.736H6.2455H6.0215ZM5.0455 721.496L5.5415 721H12.3895L12.8855 721.496L11.9095 722.488H11.8775H9.7015H8.2295H6.0535H6.0215L5.0455 721.496ZM4.5175 735.976L4.0215 735.48V729.368H4.6135L4.7575 729.528L5.5095 730.264V733.512V734.776V735L4.5175 735.976ZM12.8855 736.504L12.3895 737H5.5415L5.0455 736.504L6.0215 735.512H6.0535H8.2295H9.7015H11.8775H11.9095L12.8855 736.504ZM13.4135 722.024L13.9095 722.52V728.632H13.3175L12.4215 727.736V727.288V724.488V723.224V723.016L13.4135 722.024ZM11.9095 728.264L12.6455 729L11.9095 729.736H11.6855H10.4535H9.8135L9.3815 729.016L9.8295 728.264H10.2455H11.9095ZM19.084 729.736L18.348 729L19.084 728.264H20.748H21.164L21.596 729.016L21.164 729.736H19.308H19.084ZM18.108 721.496L18.604 721H25.452L25.948 721.496L24.972 722.488H24.94H22.764H21.292H19.116H19.084L18.108 721.496ZM25.948 736.504L25.452 737H18.604L18.108 736.504L19.084 735.512H19.116H21.292H22.764H24.94H24.972L25.948 736.504ZM25.484 730.264L26.38 729.368H26.972V735.48L26.476 735.976L25.484 735V734.776V733.512V730.264ZM26.476 722.024L26.972 722.52V728.632H26.38L25.484 727.736V727.288V724.488V723.224V723.016L26.476 722.024ZM24.972 728.264L25.708 729L24.972 729.736H24.748H23.516H22.876L22.444 729.016L22.892 728.264H23.308H24.972Z" fill="#FF0000"/>
<rect y="744" width="31" height="31" fill="black" fill-opacity="0.01"/>
<path d="M6.0215 760.736L5.2855 760L6.0215 759.264H7.6855H8.1015L8.5335 760.016L8.1015 760.736H6.2455H6.0215ZM5.0455 752.496L5.5415 752H12.3895L12.8855 752.496L11.9095 753.488H11.8775H9.7015H8.2295H6.0535H6.0215L5.0455 752.496ZM4.5175 766.976L4.0215 766.48V760.368H4.6135L4.7575 760.528L5.5095 761.264V764.512V765.776V766L4.5175 766.976ZM12.8855 767.504L12.3895 768H5.5415L5.0455 767.504L6.0215 766.512H6.0535H8.2295H9.7015H11.8775H11.9095L12.8855 767.504ZM13.4135 753.024L13.9095 753.52V759.632H13.3175L12.4215 758.736V758.288V755.488V754.224V754.016L13.4135 753.024ZM11.9095 759.264L12.6455 760L11.9095 760.736H11.6855H10.4535H9.8135L9.3815 760.016L9.8295 759.264H10.2455H11.9095ZM19.084 760.736L18.348 760L19.084 759.264H20.748H21.164L21.596 760.016L21.164 760.736H19.308H19.084ZM25.484 761.264L26.38 760.368H26.972V766.48L26.476 766.976L25.484 766V765.776V764.512V761.264ZM26.476 753.024L26.972 753.52V759.632H26.38L25.484 758.736V758.288V755.488V754.224V754.016L26.476 753.024ZM18.572 758.736L17.676 759.632H17.084V753.52L17.58 753.024L18.572 754V754.224V755.488V758.736ZM24.972 759.264L25.708 760L24.972 760.736H24.748H23.516H22.876L22.444 760.016L22.892 759.264H23.308H24.972Z" fill="#FF0000"/>
<rect y="775" width="31" height="31" fill="black" fill-opacity="0.01"/>
<path d="M6.0215 791.736L5.2855 791L6.0215 790.264H7.6855H8.1015L8.5335 791.016L8.1015 791.736H6.2455H6.0215ZM5.0455 783.496L5.5415 783H12.3895L12.8855 783.496L11.9095 784.488H11.8775H9.7015H8.2295H6.0535H6.0215L5.0455 783.496ZM4.5175 797.976L4.0215 797.48V791.368H4.6135L4.7575 791.528L5.5095 792.264V795.512V796.776V797L4.5175 797.976ZM12.8855 798.504L12.3895 799H5.5415L5.0455 798.504L6.0215 797.512H6.0535H8.2295H9.7015H11.8775H11.9095L12.8855 798.504ZM13.4135 784.024L13.9095 784.52V790.632H13.3175L12.4215 789.736V789.288V786.488V785.224V785.016L13.4135 784.024ZM11.9095 790.264L12.6455 791L11.9095 791.736H11.6855H10.4535H9.8135L9.3815 791.016L9.8295 790.264H10.2455H11.9095ZM19.084 791.736L18.348 791L19.084 790.264H20.748H21.164L21.596 791.016L21.164 791.736H19.308H19.084ZM18.108 783.496L18.604 783H25.452L25.948 783.496L24.972 784.488H24.94H22.764H21.292H19.116H19.084L18.108 783.496ZM25.948 798.504L25.452 799H18.604L18.108 798.504L19.084 797.512H19.116H21.292H22.764H24.94H24.972L25.948 798.504ZM25.484 792.264L26.38 791.368H26.972V797.48L26.476 797.976L25.484 797V796.776V795.512V792.264ZM18.572 789.736L17.676 790.632H17.084V784.52L17.58 784.024L18.572 785V785.224V786.488V789.736ZM24.972 790.264L25.708 791L24.972 791.736H24.748H23.516H22.876L22.444 791.016L22.892 790.264H23.308H24.972Z" fill="#FF0000"/>
<rect y="806" width="31" height="31" fill="black" fill-opacity="0.01"/>
<path d="M6.0215 822.736L5.2855 822L6.0215 821.264H7.6855H8.1015L8.5335 822.016L8.1015 822.736H6.2455H6.0215ZM5.0455 814.496L5.5415 814H12.3895L12.8855 814.496L11.9095 815.488H11.8775H9.7015H8.2295H6.0535H6.0215L5.0455 814.496ZM4.5175 828.976L4.0215 828.48V822.368H4.6135L4.7575 822.528L5.5095 823.264V826.512V827.776V828L4.5175 828.976ZM12.8855 829.504L12.3895 830H5.5415L5.0455 829.504L6.0215 828.512H6.0535H8.2295H9.7015H11.8775H11.9095L12.8855 829.504ZM13.4135 815.024L13.9095 815.52V821.632H13.3175L12.4215 820.736V820.288V817.488V816.224V816.016L13.4135 815.024ZM11.9095 821.264L12.6455 822L11.9095 822.736H11.6855H10.4535H9.8135L9.3815 822.016L9.8295 821.264H10.2455H11.9095ZM19.084 822.736L18.348 822L19.084 821.264H20.748H21.164L21.596 822.016L21.164 822.736H19.308H19.084ZM18.108 814.496L18.604 814H25.452L25.948 814.496L24.972 815.488H24.94H22.764H21.292H19.116H19.084L18.108 814.496ZM17.58 828.976L17.084 828.48V822.368H17.676L17.82 822.528L18.572 823.264V826.512V827.776V828L17.58 828.976ZM25.948 829.504L25.452 830H18.604L18.108 829.504L19.084 828.512H19.116H21.292H22.764H24.94H24.972L25.948 829.504ZM25.484 823.264L26.38 822.368H26.972V828.48L26.476 828.976L25.484 828V827.776V826.512V823.264ZM18.572 820.736L17.676 821.632H17.084V815.52L17.58 815.024L18.572 816V816.224V817.488V820.736ZM24.972 821.264L25.708 822L24.972 822.736H24.748H23.516H22.876L22.444 822.016L22.892 821.264H23.308H24.972Z" fill="#FF0000"/>
<rect y="837" width="31" height="31" fill="black" fill-opacity="0.01"/>
<path d="M6.0215 853.736L5.2855 853L6.0215 852.264H7.6855H8.1015L8.5335 853.016L8.1015 853.736H6.2455H6.0215ZM5.0455 845.496L5.5415 845H12.3895L12.8855 845.496L11.9095 846.488H11.8775H9.7015H8.2295H6.0535H6.0215L5.0455 845.496ZM4.5175 859.976L4.0215 859.48V853.368H4.6135L4.7575 853.528L5.5095 854.264V857.512V858.776V859L4.5175 859.976ZM12.8855 860.504L12.3895 861H5.5415L5.0455 860.504L6.0215 859.512H6.0535H8.2295H9.7015H11.8775H11.9095L12.8855 860.504ZM13.4135 846.024L13.9095 846.52V852.632H13.3175L12.4215 851.736V851.288V848.488V847.224V847.016L13.4135 846.024ZM11.9095 852.264L12.6455 853L11.9095 853.736H11.6855H10.4535H9.8135L9.3815 853.016L9.8295 852.264H10.2455H11.9095ZM18.108 845.496L18.604 845H25.452L25.948 845.496L24.972 846.488H24.94H22.764H21.292H19.116H19.084L18.108 845.496ZM25.484 854.264L26.38 853.368H26.972V859.48L26.476 859.976L25.484 859V858.776V857.512V854.264ZM26.476 846.024L26.972 846.52V852.632H26.38L25.484 851.736V851.288V848.488V847.224V847.016L26.476 846.024ZM18.572 851.736L17.676 852.632H17.084V846.52L17.58 846.024L18.572 847V847.224V848.488V851.736Z" fill="#FF0000"/>
<rect y="868" width="31" height="31" fill="black" fill-opacity="0.01"/>
<path d="M6.0215 884.736L5.2855 884L6.0215 883.264H7.6855H8.1015L8.5335 884.016L8.1015 884.736H6.2455H6.0215ZM5.0455 876.496L5.5415 876H12.3895L12.8855 876.496L11.9095 877.488H11.8775H9.7015H8.2295H6.0535H6.0215L5.0455 876.496ZM4.5175 890.976L4.0215 890.48V884.368H4.6135L4.7575 884.528L5.5095 885.264V888.512V889.776V890L4.5175 890.976ZM12.8855 891.504L12.3895 892H5.5415L5.0455 891.504L6.0215 890.512H6.0535H8.2295H9.7015H11.8775H11.9095L12.8855 891.504ZM13.4135 877.024L13.9095 877.52V883.632H13.3175L12.4215 882.736V882.288V879.488V878.224V878.016L13.4135 877.024ZM11.9095 883.264L12.6455 884L11.9095 884.736H11.6855H10.4535H9.8135L9.3815 884.016L9.8295 883.264H10.2455H11.9095ZM19.084 884.736L18.348 884L19.084 883.264H20.748H21.164L21.596 884.016L21.164 884.736H19.308H19.084ZM18.108 876.496L18.604 876H25.452L25.948 876.496L24.972 877.488H24.94H22.764H21.292H19.116H19.084L18.108 876.496ZM17.58 890.976L17.084 890.48V884.368H17.676L17.82 884.528L18.572 885.264V888.512V889.776V890L17.58 890.976ZM25.948 891.504L25.452 892H18.604L18.108 891.504L19.084 890.512H19.116H21.292H22.764H24.94H24.972L25.948 891.504ZM25.484 885.264L26.38 884.368H26.972V890.48L26.476 890.976L25.484 890V889.776V888.512V885.264ZM26.476 877.024L26.972 877.52V883.632H26.38L25.484 882.736V882.288V879.488V878.224V878.016L26.476 877.024ZM18.572 882.736L17.676 883.632H17.084V877.52L17.58 877.024L18.572 878V878.224V879.488V882.736ZM24.972 883.264L25.708 884L24.972 884.736H24.748H23.516H22.876L22.444 884.016L22.892 883.264H23.308H24.972Z" fill="#FF0000"/>
<rect y="899" width="31" height="31" fill="black" fill-opacity="0.01"/>
<path d="M6.0215 915.736L5.2855 915L6.0215 914.264H7.6855H8.1015L8.5335 915.016L8.1015 915.736H6.2455H6.0215ZM5.0455 907.496L5.5415 907H12.3895L12.8855 907.496L11.9095 908.488H11.8775H9.7015H8.2295H6.0535H6.0215L5.0455 907.496ZM4.5175 921.976L4.0215 921.48V915.368H4.6135L4.7575 915.528L5.5095 916.264V919.512V920.776V921L4.5175 921.976ZM12.8855 922.504L12.3895 923H5.5415L5.0455 922.504L6.0215 921.512H6.0535H8.2295H9.7015H11.8775H11.9095L12.8855 922.504ZM13.4135 908.024L13.9095 908.52V914.632H13.3175L12.4215 913.736V913.288V910.488V909.224V909.016L13.4135 908.024ZM11.9095 914.264L12.6455 915L11.9095 915.736H11.6855H10.4535H9.8135L9.3815 915.016L9.8295 914.264H10.2455H11.9095ZM19.084 915.736L18.348 915L19.084 914.264H20.748H21.164L21.596 915.016L21.164 915.736H19.308H19.084ZM18.108 907.496L18.604 907H25.452L25.948 907.496L24.972 908.488H24.94H22.764H21.292H19.116H19.084L18.108 907.496ZM25.948 922.504L25.452 923H18.604L18.108 922.504L19.084 921.512H19.116H21.292H22.764H24.94H24.972L25.948 922.504ZM25.484 916.264L26.38 915.368H26.972V921.48L26.476 921.976L25.484 921V920.776V919.512V916.264ZM26.476 908.024L26.972 908.52V914.632H26.38L25.484 913.736V913.288V910.488V909.224V909.016L26.476 908.024ZM18.572 913.736L17.676 914.632H17.084V908.52L17.58 908.024L18.572 909V909.224V910.488V913.736ZM24.972 914.264L25.708 915L24.972 915.736H24.748H23.516H22.876L22.444 915.016L22.892 914.264H23.308H24.972Z" fill="#FF0000"/>
<rect y="930" width="31" height="31" fill="black" fill-opacity="0.01"/>
<path d="M6.0215 946.736L5.2855 946L6.0215 945.264H7.6855H8.1015L8.5335 946.016L8.1015 946.736H6.2455H6.0215ZM5.0455 938.496L5.5415 938H12.3895L12.8855 938.496L11.9095 939.488H11.8775H9.7015H8.2295H6.0535H6.0215L5.0455 938.496ZM12.8855 953.504L12.3895 954H5.5415L5.0455 953.504L6.0215 952.512H6.0535H8.2295H9.7015H11.8775H11.9095L12.8855 953.504ZM12.4215 947.264L13.3175 946.368H13.9095V952.48L13.4135 952.976L12.4215 952V951.776V950.512V947.264ZM13.4135 939.024L13.9095 939.52V945.632H13.3175L12.4215 944.736V944.288V941.488V940.224V940.016L13.4135 939.024ZM11.9095 945.264L12.6455 946L11.9095 946.736H11.6855H10.4535H9.8135L9.3815 946.016L9.8295 945.264H10.2455H11.9095ZM20.54 947.488V950.048L19.548 951.776H19.308V949.232L20.316 947.488H20.54ZM18.108 938.496L18.604 938H25.452L25.948 938.496L24.972 939.488H24.94H22.764H21.292H19.116H19.084L18.108 938.496ZM17.58 952.976L17.084 952.48V946.368H17.676L17.82 946.528L18.572 947.264V950.512V951.776V952L17.58 952.976ZM25.948 953.504L25.452 954H18.604L18.108 953.504L19.084 952.512H19.116H21.292H22.764H24.94H24.972L25.948 953.504ZM25.484 947.264L26.38 946.368H26.972V952.48L26.476 952.976L25.484 952V951.776V950.512V947.264ZM26.476 939.024L26.972 939.52V945.632H26.38L25.484 944.736V944.288V941.488V940.224V940.016L26.476 939.024ZM24.508 940.224H24.748V942.768L23.74 944.512H23.516V941.952L24.508 940.224ZM18.572 944.736L17.676 945.632H17.084V939.52L17.58 939.024L18.572 940V940.224V941.488V944.736Z" fill="#FF0000"/>
<rect y="961" width="31" height="31" fill="black" fill-opacity="0.01"/>
<path d="M6.0215 977.736L5.2855 977L6.0215 976.264H7.6855H8.1015L8.5335 977.016L8.1015 977.736H6.2455H6.0215ZM5.0455 969.496L5.5415 969H12.3895L12.8855 969.496L11.9095 970.488H11.8775H9.7015H8.2295H6.0535H6.0215L5.0455 969.496ZM12.8855 984.504L12.3895 985H5.5415L5.0455 984.504L6.0215 983.512H6.0535H8.2295H9.7015H11.8775H11.9095L12.8855 984.504ZM12.4215 978.264L13.3175 977.368H13.9095V983.48L13.4135 983.976L12.4215 983V982.776V981.512V978.264ZM13.4135 970.024L13.9095 970.52V976.632H13.3175L12.4215 975.736V975.288V972.488V971.224V971.016L13.4135 970.024ZM11.9095 976.264L12.6455 977L11.9095 977.736H11.6855H10.4535H9.8135L9.3815 977.016L9.8295 976.264H10.2455H11.9095ZM25.484 978.264L26.38 977.368H26.972V983.48L26.476 983.976L25.484 983V982.776V981.512V978.264ZM26.476 970.024L26.972 970.52V976.632H26.38L25.484 975.736V975.288V972.488V971.224V971.016L26.476 970.024Z" fill="#FF0000"/>
<rect y="992" width="31" height="31" fill="black" fill-opacity="0.01"/>
<path d="M6.0215 1008.74L5.2855 1008L6.0215 1007.26H7.6855H8.1015L8.5335 1008.02L8.1015 1008.74H6.2455H6.0215ZM5.0455 1000.5L5.5415 1000H12.3895L12.8855 1000.5L11.9095 1001.49H11.8775H9.7015H8.2295H6.0535H6.0215L5.0455 1000.5ZM12.8855 1015.5L12.3895 1016H5.5415L5.0455 1015.5L6.0215 1014.51H6.0535H8.2295H9.7015H11.8775H11.9095L12.8855 1015.5ZM12.4215 1009.26L13.3175 1008.37H13.9095V1014.48L13.4135 1014.98L12.4215 1014V1013.78V1012.51V1009.26ZM13.4135 1001.02L13.9095 1001.52V1007.63H13.3175L12.4215 1006.74V1006.29V1003.49V1002.22V1002.02L13.4135 1001.02ZM11.9095 1007.26L12.6455 1008L11.9095 1008.74H11.6855H10.4535H9.8135L9.3815 1008.02L9.8295 1007.26H10.2455H11.9095ZM19.084 1008.74L18.348 1008L19.084 1007.26H20.748H21.164L21.596 1008.02L21.164 1008.74H19.308H19.084ZM18.108 1000.5L18.604 1000H25.452L25.948 1000.5L24.972 1001.49H24.94H22.764H21.292H19.116H19.084L18.108 1000.5ZM17.58 1014.98L17.084 1014.48V1008.37H17.676L17.82 1008.53L18.572 1009.26V1012.51V1013.78V1014L17.58 1014.98ZM25.948 1015.5L25.452 1016H18.604L18.108 1015.5L19.084 1014.51H19.116H21.292H22.764H24.94H24.972L25.948 1015.5ZM26.476 1001.02L26.972 1001.52V1007.63H26.38L25.484 1006.74V1006.29V1003.49V1002.22V1002.02L26.476 1001.02ZM24.972 1007.26L25.708 1008L24.972 1008.74H24.748H23.516H22.876L22.444 1008.02L22.892 1007.26H23.308H24.972Z" fill="#FF0000"/>
<rect y="1023" width="31" height="31" fill="black" fill-opacity="0.01"/>
<path d="M6.0215 1039.74L5.2855 1039L6.0215 1038.26H7.6855H8.1015L8.5335 1039.02L8.1015 1039.74H6.2455H6.0215ZM5.0455 1031.5L5.5415 1031H12.3895L12.8855 1031.5L11.9095 1032.49H11.8775H9.7015H8.2295H6.0535H6.0215L5.0455 1031.5ZM12.8855 1046.5L12.3895 1047H5.5415L5.0455 1046.5L6.0215 1045.51H6.0535H8.2295H9.7015H11.8775H11.9095L12.8855 1046.5ZM12.4215 1040.26L13.3175 1039.37H13.9095V1045.48L13.4135 1045.98L12.4215 1045V1044.78V1043.51V1040.26ZM13.4135 1032.02L13.9095 1032.52V1038.63H13.3175L12.4215 1037.74V1037.29V1034.49V1033.22V1033.02L13.4135 1032.02ZM11.9095 1038.26L12.6455 1039L11.9095 1039.74H11.6855H10.4535H9.8135L9.3815 1039.02L9.8295 1038.26H10.2455H11.9095ZM19.084 1039.74L18.348 1039L19.084 1038.26H20.748H21.164L21.596 1039.02L21.164 1039.74H19.308H19.084ZM18.108 1031.5L18.604 1031H25.452L25.948 1031.5L24.972 1032.49H24.94H22.764H21.292H19.116H19.084L18.108 1031.5ZM25.948 1046.5L25.452 1047H18.604L18.108 1046.5L19.084 1045.51H19.116H21.292H22.764H24.94H24.972L25.948 1046.5ZM25.484 1040.26L26.38 1039.37H26.972V1045.48L26.476 1045.98L25.484 1045V1044.78V1043.51V1040.26ZM26.476 1032.02L26.972 1032.52V1038.63H26.38L25.484 1037.74V1037.29V1034.49V1033.22V1033.02L26.476 1032.02ZM24.972 1038.26L25.708 1039L24.972 1039.74H24.748H23.516H22.876L22.444 1039.02L22.892 1038.26H23.308H24.972Z" fill="#FF0000"/>
<rect y="1054" width="31" height="31" fill="black" fill-opacity="0.01"/>
<path d="M6.0215 1070.74L5.2855 1070L6.0215 1069.26H7.6855H8.1015L8.5335 1070.02L8.1015 1070.74H6.2455H6.0215ZM5.0455 1062.5L5.5415 1062H12.3895L12.8855 1062.5L11.9095 1063.49H11.8775H9.7015H8.2295H6.0535H6.0215L5.0455 1062.5ZM12.8855 1077.5L12.3895 1078H5.5415L5.0455 1077.5L6.0215 1076.51H6.0535H8.2295H9.7015H11.8775H11.9095L12.8855 1077.5ZM12.4215 1071.26L13.3175 1070.37H13.9095V1076.48L13.4135 1076.98L12.4215 1076V1075.78V1074.51V1071.26ZM13.4135 1063.02L13.9095 1063.52V1069.63H13.3175L12.4215 1068.74V1068.29V1065.49V1064.22V1064.02L13.4135 1063.02ZM11.9095 1069.26L12.6455 1070L11.9095 1070.74H11.6855H10.4535H9.8135L9.3815 1070.02L9.8295 1069.26H10.2455H11.9095ZM19.084 1070.74L18.348 1070L19.084 1069.26H20.748H21.164L21.596 1070.02L21.164 1070.74H19.308H19.084ZM25.484 1071.26L26.38 1070.37H26.972V1076.48L26.476 1076.98L25.484 1076V1075.78V1074.51V1071.26ZM26.476 1063.02L26.972 1063.52V1069.63H26.38L25.484 1068.74V1068.29V1065.49V1064.22V1064.02L26.476 1063.02ZM18.572 1068.74L17.676 1069.63H17.084V1063.52L17.58 1063.02L18.572 1064V1064.22V1065.49V1068.74ZM24.972 1069.26L25.708 1070L24.972 1070.74H24.748H23.516H22.876L22.444 1070.02L22.892 1069.26H23.308H24.972Z" fill="#FF0000"/>
<rect y="1085" width="31" height="31" fill="black" fill-opacity="0.01"/>
<path d="M6.0215 1101.74L5.2855 1101L6.0215 1100.26H7.6855H8.1015L8.5335 1101.02L8.1015 1101.74H6.2455H6.0215ZM5.0455 1093.5L5.5415 1093H12.3895L12.8855 1093.5L11.9095 1094.49H11.8775H9.7015H8.2295H6.0535H6.0215L5.0455 1093.5ZM12.8855 1108.5L12.3895 1109H5.5415L5.0455 1108.5L6.0215 1107.51H6.0535H8.2295H9.7015H11.8775H11.9095L12.8855 1108.5ZM12.4215 1102.26L13.3175 1101.37H13.9095V1107.48L13.4135 1107.98L12.4215 1107V1106.78V1105.51V1102.26ZM13.4135 1094.02L13.9095 1094.52V1100.63H13.3175L12.4215 1099.74V1099.29V1096.49V1095.22V1095.02L13.4135 1094.02ZM11.9095 1100.26L12.6455 1101L11.9095 1101.74H11.6855H10.4535H9.8135L9.3815 1101.02L9.8295 1100.26H10.2455H11.9095ZM19.084 1101.74L18.348 1101L19.084 1100.26H20.748H21.164L21.596 1101.02L21.164 1101.74H19.308H19.084ZM18.108 1093.5L18.604 1093H25.452L25.948 1093.5L24.972 1094.49H24.94H22.764H21.292H19.116H19.084L18.108 1093.5ZM25.948 1108.5L25.452 1109H18.604L18.108 1108.5L19.084 1107.51H19.116H21.292H22.764H24.94H24.972L25.948 1108.5ZM25.484 1102.26L26.38 1101.37H26.972V1107.48L26.476 1107.98L25.484 1107V1106.78V1105.51V1102.26ZM18.572 1099.74L17.676 1100.63H17.084V1094.52L17.58 1094.02L18.572 1095V1095.22V1096.49V1099.74ZM24.972 1100.26L25.708 1101L24.972 1101.74H24.748H23.516H22.876L22.444 1101.02L22.892 1100.26H23.308H24.972Z" fill="#FF0000"/>
<rect y="1116" width="31" height="31" fill="black" fill-opacity="0.01"/>
<path d="M6.0215 1132.74L5.2855 1132L6.0215 1131.26H7.6855H8.1015L8.5335 1132.02L8.1015 1132.74H6.2455H6.0215ZM5.0455 1124.5L5.5415 1124H12.3895L12.8855 1124.5L11.9095 1125.49H11.8775H9.7015H8.2295H6.0535H6.0215L5.0455 1124.5ZM12.8855 1139.5L12.3895 1140H5.5415L5.0455 1139.5L6.0215 1138.51H6.0535H8.2295H9.7015H11.8775H11.9095L12.8855 1139.5ZM12.4215 1133.26L13.3175 1132.37H13.9095V1138.48L13.4135 1138.98L12.4215 1138V1137.78V1136.51V1133.26ZM13.4135 1125.02L13.9095 1125.52V1131.63H13.3175L12.4215 1130.74V1130.29V1127.49V1126.22V1126.02L13.4135 1125.02ZM11.9095 1131.26L12.6455 1132L11.9095 1132.74H11.6855H10.4535H9.8135L9.3815 1132.02L9.8295 1131.26H10.2455H11.9095ZM19.084 1132.74L18.348 1132L19.084 1131.26H20.748H21.164L21.596 1132.02L21.164 1132.74H19.308H19.084ZM18.108 1124.5L18.604 1124H25.452L25.948 1124.5L24.972 1125.49H24.94H22.764H21.292H19.116H19.084L18.108 1124.5ZM17.58 1138.98L17.084 1138.48V1132.37H17.676L17.82 1132.53L18.572 1133.26V1136.51V1137.78V1138L17.58 1138.98ZM25.948 1139.5L25.452 1140H18.604L18.108 1139.5L19.084 1138.51H19.116H21.292H22.764H24.94H24.972L25.948 1139.5ZM25.484 1133.26L26.38 1132.37H26.972V1138.48L26.476 1138.98L25.484 1138V1137.78V1136.51V1133.26ZM18.572 1130.74L17.676 1131.63H17.084V1125.52L17.58 1125.02L18.572 1126V1126.22V1127.49V1130.74ZM24.972 1131.26L25.708 1132L24.972 1132.74H24.748H23.516H22.876L22.444 1132.02L22.892 1131.26H23.308H24.972Z" fill="#FF0000"/>
<rect y="1147" width="31" height="31" fill="black" fill-opacity="0.01"/>
<path d="M6.0215 1163.74L5.2855 1163L6.0215 1162.26H7.6855H8.1015L8.5335 1163.02L8.1015 1163.74H6.2455H6.0215ZM5.0455 1155.5L5.5415 1155H12.3895L12.8855 1155.5L11.9095 1156.49H11.8775H9.7015H8.2295H6.0535H6.0215L5.0455 1155.5ZM12.8855 1170.5L12.3895 1171H5.5415L5.0455 1170.5L6.0215 1169.51H6.0535H8.2295H9.7015H11.8775H11.9095L12.8855 1170.5ZM12.4215 1164.26L13.3175 1163.37H13.9095V1169.48L13.4135 1169.98L12.4215 1169V1168.78V1167.51V1164.26ZM13.4135 1156.02L13.9095 1156.52V1162.63H13.3175L12.4215 1161.74V1161.29V1158.49V1157.22V1157.02L13.4135 1156.02ZM11.9095 1162.26L12.6455 1163L11.9095 1163.74H11.6855H10.4535H9.8135L9.3815 1163.02L9.8295 1162.26H10.2455H11.9095ZM18.108 1155.5L18.604 1155H25.452L25.948 1155.5L24.972 1156.49H24.94H22.764H21.292H19.116H19.084L18.108 1155.5ZM25.484 1164.26L26.38 1163.37H26.972V1169.48L26.476 1169.98L25.484 1169V1168.78V1167.51V1164.26ZM26.476 1156.02L26.972 1156.52V1162.63H26.38L25.484 1161.74V1161.29V1158.49V1157.22V1157.02L26.476 1156.02ZM18.572 1161.74L17.676 1162.63H17.084V1156.52L17.58 1156.02L18.572 1157V1157.22V1158.49V1161.74Z" fill="#FF0000"/>
<rect y="1178" width="31" height="31" fill="black" fill-opacity="0.01"/>
<path d="M6.0215 1194.74L5.2855 1194L6.0215 1193.26H7.6855H8.1015L8.5335 1194.02L8.1015 1194.74H6.2455H6.0215ZM5.0455 1186.5L5.5415 1186H12.3895L12.8855 1186.5L11.9095 1187.49H11.8775H9.7015H8.2295H6.0535H6.0215L5.0455 1186.5ZM12.8855 1201.5L12.3895 1202H5.5415L5.0455 1201.5L6.0215 1200.51H6.0535H8.2295H9.7015H11.8775H11.9095L12.8855 1201.5ZM12.4215 1195.26L13.3175 1194.37H13.9095V1200.48L13.4135 1200.98L12.4215 1200V1199.78V1198.51V1195.26ZM13.4135 1187.02L13.9095 1187.52V1193.63H13.3175L12.4215 1192.74V1192.29V1189.49V1188.22V1188.02L13.4135 1187.02ZM11.9095 1193.26L12.6455 1194L11.9095 1194.74H11.6855H10.4535H9.8135L9.3815 1194.02L9.8295 1193.26H10.2455H11.9095ZM19.084 1194.74L18.348 1194L19.084 1193.26H20.748H21.164L21.596 1194.02L21.164 1194.74H19.308H19.084ZM18.108 1186.5L18.604 1186H25.452L25.948 1186.5L24.972 1187.49H24.94H22.764H21.292H19.116H19.084L18.108 1186.5ZM17.58 1200.98L17.084 1200.48V1194.37H17.676L17.82 1194.53L18.572 1195.26V1198.51V1199.78V1200L17.58 1200.98ZM25.948 1201.5L25.452 1202H18.604L18.108 1201.5L19.084 1200.51H19.116H21.292H22.764H24.94H24.972L25.948 1201.5ZM25.484 1195.26L26.38 1194.37H26.972V1200.48L26.476 1200.98L25.484 1200V1199.78V1198.51V1195.26ZM26.476 1187.02L26.972 1187.52V1193.63H26.38L25.484 1192.74V1192.29V1189.49V1188.22V1188.02L26.476 1187.02ZM18.572 1192.74L17.676 1193.63H17.084V1187.52L17.58 1187.02L18.572 1188V1188.22V1189.49V1192.74ZM24.972 1193.26L25.708 1194L24.972 1194.74H24.748H23.516H22.876L22.444 1194.02L22.892 1193.26H23.308H24.972Z" fill="#FF0000"/>
<rect y="1209" width="31" height="31" fill="black" fill-opacity="0.01"/>
<path d="M6.0215 1225.74L5.2855 1225L6.0215 1224.26H7.6855H8.1015L8.5335 1225.02L8.1015 1225.74H6.2455H6.0215ZM5.0455 1217.5L5.5415 1217H12.3895L12.8855 1217.5L11.9095 1218.49H11.8775H9.7015H8.2295H6.0535H6.0215L5.0455 1217.5ZM12.8855 1232.5L12.3895 1233H5.5415L5.0455 1232.5L6.0215 1231.51H6.0535H8.2295H9.7015H11.8775H11.9095L12.8855 1232.5ZM12.4215 1226.26L13.3175 1225.37H13.9095V1231.48L13.4135 1231.98L12.4215 1231V1230.78V1229.51V1226.26ZM13.4135 1218.02L13.9095 1218.52V1224.63H13.3175L12.4215 1223.74V1223.29V1220.49V1219.22V1219.02L13.4135 1218.02ZM11.9095 1224.26L12.6455 1225L11.9095 1225.74H11.6855H10.4535H9.8135L9.3815 1225.02L9.8295 1224.26H10.2455H11.9095ZM19.084 1225.74L18.348 1225L19.084 1224.26H20.748H21.164L21.596 1225.02L21.164 1225.74H19.308H19.084ZM18.108 1217.5L18.604 1217H25.452L25.948 1217.5L24.972 1218.49H24.94H22.764H21.292H19.116H19.084L18.108 1217.5ZM25.948 1232.5L25.452 1233H18.604L18.108 1232.5L19.084 1231.51H19.116H21.292H22.764H24.94H24.972L25.948 1232.5ZM25.484 1226.26L26.38 1225.37H26.972V1231.48L26.476 1231.98L25.484 1231V1230.78V1229.51V1226.26ZM26.476 1218.02L26.972 1218.52V1224.63H26.38L25.484 1223.74V1223.29V1220.49V1219.22V1219.02L26.476 1218.02ZM18.572 1223.74L17.676 1224.63H17.084V1218.52L17.58 1218.02L18.572 1219V1219.22V1220.49V1223.74ZM24.972 1224.26L25.708 1225L24.972 1225.74H24.748H23.516H22.876L22.444 1225.02L22.892 1224.26H23.308H24.972Z" fill="#FF0000"/>
<rect y="1240" width="31" height="31" fill="black" fill-opacity="0.01"/>
<path d="M6.0215 1256.74L5.2855 1256L6.0215 1255.26H7.6855H8.1015L8.5335 1256.02L8.1015 1256.74H6.2455H6.0215ZM12.4215 1257.26L13.3175 1256.37H13.9095V1262.48L13.4135 1262.98L12.4215 1262V1261.78V1260.51V1257.26ZM13.4135 1249.02L13.9095 1249.52V1255.63H13.3175L12.4215 1254.74V1254.29V1251.49V1250.22V1250.02L13.4135 1249.02ZM5.5095 1254.74L4.6135 1255.63H4.0215V1249.52L4.5175 1249.02L5.5095 1250V1250.22V1251.49V1254.74ZM11.9095 1255.26L12.6455 1256L11.9095 1256.74H11.6855H10.4535H9.8135L9.3815 1256.02L9.8295 1255.26H10.2455H11.9095ZM20.54 1257.49V1260.05L19.548 1261.78H19.308V1259.23L20.316 1257.49H20.54ZM18.108 1248.5L18.604 1248H25.452L25.948 1248.5L24.972 1249.49H24.94H22.764H21.292H19.116H19.084L18.108 1248.5ZM17.58 1262.98L17.084 1262.48V1256.37H17.676L17.82 1256.53L18.572 1257.26V1260.51V1261.78V1262L17.58 1262.98ZM25.948 1263.5L25.452 1264H18.604L18.108 1263.5L19.084 1262.51H19.116H21.292H22.764H24.94H24.972L25.948 1263.5ZM25.484 1257.26L26.38 1256.37H26.972V1262.48L26.476 1262.98L25.484 1262V1261.78V1260.51V1257.26ZM26.476 1249.02L26.972 1249.52V1255.63H26.38L25.484 1254.74V1254.29V1251.49V1250.22V1250.02L26.476 1249.02ZM24.508 1250.22H24.748V1252.77L23.74 1254.51H23.516V1251.95L24.508 1250.22ZM18.572 1254.74L17.676 1255.63H17.084V1249.52L17.58 1249.02L18.572 1250V1250.22V1251.49V1254.74Z" fill="#FF0000"/>
<rect y="1271" width="31" height="31" fill="black" fill-opacity="0.01"/>
<path d="M6.0215 1287.74L5.2855 1287L6.0215 1286.26H7.6855H8.1015L8.5335 1287.02L8.1015 1287.74H6.2455H6.0215ZM12.4215 1288.26L13.3175 1287.37H13.9095V1293.48L13.4135 1293.98L12.4215 1293V1292.78V1291.51V1288.26ZM13.4135 1280.02L13.9095 1280.52V1286.63H13.3175L12.4215 1285.74V1285.29V1282.49V1281.22V1281.02L13.4135 1280.02ZM5.5095 1285.74L4.6135 1286.63H4.0215V1280.52L4.5175 1280.02L5.5095 1281V1281.22V1282.49V1285.74ZM11.9095 1286.26L12.6455 1287L11.9095 1287.74H11.6855H10.4535H9.8135L9.3815 1287.02L9.8295 1286.26H10.2455H11.9095ZM25.484 1288.26L26.38 1287.37H26.972V1293.48L26.476 1293.98L25.484 1293V1292.78V1291.51V1288.26ZM26.476 1280.02L26.972 1280.52V1286.63H26.38L25.484 1285.74V1285.29V1282.49V1281.22V1281.02L26.476 1280.02Z" fill="#FF0000"/>
<rect y="1302" width="31" height="31" fill="black" fill-opacity="0.01"/>
<path d="M6.0215 1318.74L5.2855 1318L6.0215 1317.26H7.6855H8.1015L8.5335 1318.02L8.1015 1318.74H6.2455H6.0215ZM12.4215 1319.26L13.3175 1318.37H13.9095V1324.48L13.4135 1324.98L12.4215 1324V1323.78V1322.51V1319.26ZM13.4135 1311.02L13.9095 1311.52V1317.63H13.3175L12.4215 1316.74V1316.29V1313.49V1312.22V1312.02L13.4135 1311.02ZM5.5095 1316.74L4.6135 1317.63H4.0215V1311.52L4.5175 1311.02L5.5095 1312V1312.22V1313.49V1316.74ZM11.9095 1317.26L12.6455 1318L11.9095 1318.74H11.6855H10.4535H9.8135L9.3815 1318.02L9.8295 1317.26H10.2455H11.9095ZM19.084 1318.74L18.348 1318L19.084 1317.26H20.748H21.164L21.596 1318.02L21.164 1318.74H19.308H19.084ZM18.108 1310.5L18.604 1310H25.452L25.948 1310.5L24.972 1311.49H24.94H22.764H21.292H19.116H19.084L18.108 1310.5ZM17.58 1324.98L17.084 1324.48V1318.37H17.676L17.82 1318.53L18.572 1319.26V1322.51V1323.78V1324L17.58 1324.98ZM25.948 1325.5L25.452 1326H18.604L18.108 1325.5L19.084 1324.51H19.116H21.292H22.764H24.94H24.972L25.948 1325.5ZM26.476 1311.02L26.972 1311.52V1317.63H26.38L25.484 1316.74V1316.29V1313.49V1312.22V1312.02L26.476 1311.02ZM24.972 1317.26L25.708 1318L24.972 1318.74H24.748H23.516H22.876L22.444 1318.02L22.892 1317.26H23.308H24.972Z" fill="#FF0000"/>
<rect y="1333" width="31" height="31" fill="black" fill-opacity="0.01"/>
<path d="M6.0215 1349.74L5.2855 1349L6.0215 1348.26H7.6855H8.1015L8.5335 1349.02L8.1015 1349.74H6.2455H6.0215ZM12.4215 1350.26L13.3175 1349.37H13.9095V1355.48L13.4135 1355.98L12.4215 1355V1354.78V1353.51V1350.26ZM13.4135 1342.02L13.9095 1342.52V1348.63H13.3175L12.4215 1347.74V1347.29V1344.49V1343.22V1343.02L13.4135 1342.02ZM5.5095 1347.74L4.6135 1348.63H4.0215V1342.52L4.5175 1342.02L5.5095 1343V1343.22V1344.49V1347.74ZM11.9095 1348.26L12.6455 1349L11.9095 1349.74H11.6855H10.4535H9.8135L9.3815 1349.02L9.8295 1348.26H10.2455H11.9095ZM19.084 1349.74L18.348 1349L19.084 1348.26H20.748H21.164L21.596 1349.02L21.164 1349.74H19.308H19.084ZM18.108 1341.5L18.604 1341H25.452L25.948 1341.5L24.972 1342.49H24.94H22.764H21.292H19.116H19.084L18.108 1341.5ZM25.948 1356.5L25.452 1357H18.604L18.108 1356.5L19.084 1355.51H19.116H21.292H22.764H24.94H24.972L25.948 1356.5ZM25.484 1350.26L26.38 1349.37H26.972V1355.48L26.476 1355.98L25.484 1355V1354.78V1353.51V1350.26ZM26.476 1342.02L26.972 1342.52V1348.63H26.38L25.484 1347.74V1347.29V1344.49V1343.22V1343.02L26.476 1342.02ZM24.972 1348.26L25.708 1349L24.972 1349.74H24.748H23.516H22.876L22.444 1349.02L22.892 1348.26H23.308H24.972Z" fill="#FF0000"/>
<rect y="1364" width="31" height="31" fill="black" fill-opacity="0.01"/>
<path d="M6.0215 1380.74L5.2855 1380L6.0215 1379.26H7.6855H8.1015L8.5335 1380.02L8.1015 1380.74H6.2455H6.0215ZM12.4215 1381.26L13.3175 1380.37H13.9095V1386.48L13.4135 1386.98L12.4215 1386V1385.78V1384.51V1381.26ZM13.4135 1373.02L13.9095 1373.52V1379.63H13.3175L12.4215 1378.74V1378.29V1375.49V1374.22V1374.02L13.4135 1373.02ZM5.5095 1378.74L4.6135 1379.63H4.0215V1373.52L4.5175 1373.02L5.5095 1374V1374.22V1375.49V1378.74ZM11.9095 1379.26L12.6455 1380L11.9095 1380.74H11.6855H10.4535H9.8135L9.3815 1380.02L9.8295 1379.26H10.2455H11.9095ZM19.084 1380.74L18.348 1380L19.084 1379.26H20.748H21.164L21.596 1380.02L21.164 1380.74H19.308H19.084ZM25.484 1381.26L26.38 1380.37H26.972V1386.48L26.476 1386.98L25.484 1386V1385.78V1384.51V1381.26ZM26.476 1373.02L26.972 1373.52V1379.63H26.38L25.484 1378.74V1378.29V1375.49V1374.22V1374.02L26.476 1373.02ZM18.572 1378.74L17.676 1379.63H17.084V1373.52L17.58 1373.02L18.572 1374V1374.22V1375.49V1378.74ZM24.972 1379.26L25.708 1380L24.972 1380.74H24.748H23.516H22.876L22.444 1380.02L22.892 1379.26H23.308H24.972Z" fill="#FF0000"/>
<rect y="1395" width="31" height="31" fill="black" fill-opacity="0.01"/>
<path d="M6.0215 1411.74L5.2855 1411L6.0215 1410.26H7.6855H8.1015L8.5335 1411.02L8.1015 1411.74H6.2455H6.0215ZM12.4215 1412.26L13.3175 1411.37H13.9095V1417.48L13.4135 1417.98L12.4215 1417V1416.78V1415.51V1412.26ZM13.4135 1404.02L13.9095 1404.52V1410.63H13.3175L12.4215 1409.74V1409.29V1406.49V1405.22V1405.02L13.4135 1404.02ZM5.5095 1409.74L4.6135 1410.63H4.0215V1404.52L4.5175 1404.02L5.5095 1405V1405.22V1406.49V1409.74ZM11.9095 1410.26L12.6455 1411L11.9095 1411.74H11.6855H10.4535H9.8135L9.3815 1411.02L9.8295 1410.26H10.2455H11.9095ZM19.084 1411.74L18.348 1411L19.084 1410.26H20.748H21.164L21.596 1411.02L21.164 1411.74H19.308H19.084ZM18.108 1403.5L18.604 1403H25.452L25.948 1403.5L24.972 1404.49H24.94H22.764H21.292H19.116H19.084L18.108 1403.5ZM25.948 1418.5L25.452 1419H18.604L18.108 1418.5L19.084 1417.51H19.116H21.292H22.764H24.94H24.972L25.948 1418.5ZM25.484 1412.26L26.38 1411.37H26.972V1417.48L26.476 1417.98L25.484 1417V1416.78V1415.51V1412.26ZM18.572 1409.74L17.676 1410.63H17.084V1404.52L17.58 1404.02L18.572 1405V1405.22V1406.49V1409.74ZM24.972 1410.26L25.708 1411L24.972 1411.74H24.748H23.516H22.876L22.444 1411.02L22.892 1410.26H23.308H24.972Z" fill="#FF0000"/>
<rect y="1426" width="31" height="31" fill="black" fill-opacity="0.01"/>
<path d="M6.0215 1442.74L5.2855 1442L6.0215 1441.26H7.6855H8.1015L8.5335 1442.02L8.1015 1442.74H6.2455H6.0215ZM12.4215 1443.26L13.3175 1442.37H13.9095V1448.48L13.4135 1448.98L12.4215 1448V1447.78V1446.51V1443.26ZM13.4135 1435.02L13.9095 1435.52V1441.63H13.3175L12.4215 1440.74V1440.29V1437.49V1436.22V1436.02L13.4135 1435.02ZM5.5095 1440.74L4.6135 1441.63H4.0215V1435.52L4.5175 1435.02L5.5095 1436V1436.22V1437.49V1440.74ZM11.9095 1441.26L12.6455 1442L11.9095 1442.74H11.6855H10.4535H9.8135L9.3815 1442.02L9.8295 1441.26H10.2455H11.9095ZM19.084 1442.74L18.348 1442L19.084 1441.26H20.748H21.164L21.596 1442.02L21.164 1442.74H19.308H19.084ZM18.108 1434.5L18.604 1434H25.452L25.948 1434.5L24.972 1435.49H24.94H22.764H21.292H19.116H19.084L18.108 1434.5ZM17.58 1448.98L17.084 1448.48V1442.37H17.676L17.82 1442.53L18.572 1443.26V1446.51V1447.78V1448L17.58 1448.98ZM25.948 1449.5L25.452 1450H18.604L18.108 1449.5L19.084 1448.51H19.116H21.292H22.764H24.94H24.972L25.948 1449.5ZM25.484 1443.26L26.38 1442.37H26.972V1448.48L26.476 1448.98L25.484 1448V1447.78V1446.51V1443.26ZM18.572 1440.74L17.676 1441.63H17.084V1435.52L17.58 1435.02L18.572 1436V1436.22V1437.49V1440.74ZM24.972 1441.26L25.708 1442L24.972 1442.74H24.748H23.516H22.876L22.444 1442.02L22.892 1441.26H23.308H24.972Z" fill="#FF0000"/>
<rect y="1457" width="31" height="31" fill="black" fill-opacity="0.01"/>
<path d="M6.0215 1473.74L5.2855 1473L6.0215 1472.26H7.6855H8.1015L8.5335 1473.02L8.1015 1473.74H6.2455H6.0215ZM12.4215 1474.26L13.3175 1473.37H13.9095V1479.48L13.4135 1479.98L12.4215 1479V1478.78V1477.51V1474.26ZM13.4135 1466.02L13.9095 1466.52V1472.63H13.3175L12.4215 1471.74V1471.29V1468.49V1467.22V1467.02L13.4135 1466.02ZM5.5095 1471.74L4.6135 1472.63H4.0215V1466.52L4.5175 1466.02L5.5095 1467V1467.22V1468.49V1471.74ZM11.9095 1472.26L12.6455 1473L11.9095 1473.74H11.6855H10.4535H9.8135L9.3815 1473.02L9.8295 1472.26H10.2455H11.9095ZM18.108 1465.5L18.604 1465H25.452L25.948 1465.5L24.972 1466.49H24.94H22.764H21.292H19.116H19.084L18.108 1465.5ZM25.484 1474.26L26.38 1473.37H26.972V1479.48L26.476 1479.98L25.484 1479V1478.78V1477.51V1474.26ZM26.476 1466.02L26.972 1466.52V1472.63H26.38L25.484 1471.74V1471.29V1468.49V1467.22V1467.02L26.476 1466.02ZM18.572 1471.74L17.676 1472.63H17.084V1466.52L17.58 1466.02L18.572 1467V1467.22V1468.49V1471.74Z" fill="#FF0000"/>
<rect y="1488" width="31" height="31" fill="black" fill-opacity="0.01"/>
<path d="M6.0215 1504.74L5.2855 1504L6.0215 1503.26H7.6855H8.1015L8.5335 1504.02L8.1015 1504.74H6.2455H6.0215ZM12.4215 1505.26L13.3175 1504.37H13.9095V1510.48L13.4135 1510.98L12.4215 1510V1509.78V1508.51V1505.26ZM13.4135 1497.02L13.9095 1497.52V1503.63H13.3175L12.4215 1502.74V1502.29V1499.49V1498.22V1498.02L13.4135 1497.02ZM5.5095 1502.74L4.6135 1503.63H4.0215V1497.52L4.5175 1497.02L5.5095 1498V1498.22V1499.49V1502.74ZM11.9095 1503.26L12.6455 1504L11.9095 1504.74H11.6855H10.4535H9.8135L9.3815 1504.02L9.8295 1503.26H10.2455H11.9095ZM19.084 1504.74L18.348 1504L19.084 1503.26H20.748H21.164L21.596 1504.02L21.164 1504.74H19.308H19.084ZM18.108 1496.5L18.604 1496H25.452L25.948 1496.5L24.972 1497.49H24.94H22.764H21.292H19.116H19.084L18.108 1496.5ZM17.58 1510.98L17.084 1510.48V1504.37H17.676L17.82 1504.53L18.572 1505.26V1508.51V1509.78V1510L17.58 1510.98ZM25.948 1511.5L25.452 1512H18.604L18.108 1511.5L19.084 1510.51H19.116H21.292H22.764H24.94H24.972L25.948 1511.5ZM25.484 1505.26L26.38 1504.37H26.972V1510.48L26.476 1510.98L25.484 1510V1509.78V1508.51V1505.26ZM26.476 1497.02L26.972 1497.52V1503.63H26.38L25.484 1502.74V1502.29V1499.49V1498.22V1498.02L26.476 1497.02ZM18.572 1502.74L17.676 1503.63H17.084V1497.52L17.58 1497.02L18.572 1498V1498.22V1499.49V1502.74ZM24.972 1503.26L25.708 1504L24.972 1504.74H24.748H23.516H22.876L22.444 1504.02L22.892 1503.26H23.308H24.972Z" fill="#FF0000"/>
</svg>
