<?xml version="1.0" encoding="UTF-8" standalone="no"?>
<!-- Created with Inkscape (http://www.inkscape.org/) -->

<svg
   version="1.1"
   id="svg1"
   width="2700"
   height="2700"
   viewBox="0 0 2699.9999 2699.9999"
   sodipodi:docname="knob_svg painted_NEU2.svg"
   inkscape:version="1.4.2 (f4327f4, 2025-05-13)"
   inkscape:export-filename="knob_layer2.svg"
   inkscape:export-xdpi="96"
   inkscape:export-ydpi="96"
   inkscape:export-batch-path="D:\Blenderprojekte\ObXf\knob-svg"
   inkscape:export-batch-name="knob_svg_L1"
   xmlns:inkscape="http://www.inkscape.org/namespaces/inkscape"
   xmlns:sodipodi="http://sodipodi.sourceforge.net/DTD/sodipodi-0.dtd"
   xmlns:xlink="http://www.w3.org/1999/xlink"
   xmlns="http://www.w3.org/2000/svg"
   xmlns:svg="http://www.w3.org/2000/svg">
  <defs
     id="defs1">
    <linearGradient
       id="swatch97"
       inkscape:swatch="solid">
      <stop
         style="stop-color:#000000;stop-opacity:1;"
         offset="0"
         id="stop97" />
    </linearGradient>
    <linearGradient
       id="swatch85"
       inkscape:swatch="solid">
      <stop
         style="stop-color:#252525;stop-opacity:1;"
         offset="0"
         id="stop85" />
    </linearGradient>
    <linearGradient
       id="swatch74"
       inkscape:swatch="solid">
      <stop
         style="stop-color:#e5e5e5;stop-opacity:1;"
         offset="0"
         id="stop74" />
    </linearGradient>
    <linearGradient
       id="swatch73"
       inkscape:swatch="solid">
      <stop
         style="stop-color:#272727;stop-opacity:1;"
         offset="0"
         id="stop73" />
    </linearGradient>
    <linearGradient
       id="swatch69">
      <stop
         style="stop-color:#2f3033;stop-opacity:1;"
         offset="0"
         id="stop69" />
    </linearGradient>
    <linearGradient
       id="swatch60"
       inkscape:collect="always">
      <stop
         style="stop-color:#222222;stop-opacity:1;"
         offset="0"
         id="stop60" />
      <stop
         style="stop-color:#141414;stop-opacity:0.14197531;"
         offset="0.48677966"
         id="stop61" />
    </linearGradient>
    <linearGradient
       id="linearGradient58"
       inkscape:swatch="gradient">
      <stop
         style="stop-color:#000000;stop-opacity:0;"
         offset="0"
         id="stop58" />
      <stop
         style="stop-color:#000000;stop-opacity:0;"
         offset="1"
         id="stop59" />
    </linearGradient>
    <linearGradient
       id="swatch44">
      <stop
         style="stop-color:#d1d3d4;stop-opacity:1;"
         offset="0.73152542"
         id="stop44" />
    </linearGradient>
    <linearGradient
       id="linearGradient8"
       inkscape:collect="always">
      <stop
         style="stop-color:#262729;stop-opacity:1;"
         offset="0.57581967"
         id="stop8" />
      <stop
         style="stop-color:#262729;stop-opacity:0;"
         offset="0.91803277"
         id="stop9" />
    </linearGradient>
    <linearGradient
       id="linearGradient4"
       inkscape:collect="always">
      <stop
         style="stop-color:#000000;stop-opacity:1;"
         offset="0"
         id="stop2" />
      <stop
         style="stop-color:#424449;stop-opacity:0.65098041;"
         offset="0.77889287"
         id="stop3" />
      <stop
         style="stop-color:#000000;stop-opacity:1;"
         offset="1"
         id="stop4" />
    </linearGradient>
    <linearGradient
       id="linearGradient40"
       inkscape:collect="always">
      <stop
         style="stop-color:#6b6b6b;stop-opacity:1;"
         offset="0"
         id="stop38" />
      <stop
         style="stop-color:#878787;stop-opacity:0;"
         offset="1"
         id="stop40" />
    </linearGradient>
    <linearGradient
       id="linearGradient37"
       inkscape:collect="always">
      <stop
         style="stop-color:#4b4d50;stop-opacity:1;"
         offset="0"
         id="stop35" />
      <stop
         style="stop-color:#74777e;stop-opacity:0.65098041;"
         offset="0.23933648"
         id="stop36" />
      <stop
         style="stop-color:#4b4d50;stop-opacity:0;"
         offset="0.79740304"
         id="stop37" />
    </linearGradient>
    <linearGradient
       id="linearGradient33"
       inkscape:collect="always">
      <stop
         style="stop-color:#3d3d3d;stop-opacity:1;"
         offset="0"
         id="stop32" />
      <stop
         style="stop-color:#7c878c;stop-opacity:0.65098041;"
         offset="0.08649286"
         id="stop34" />
      <stop
         style="stop-color:#050505;stop-opacity:0;"
         offset="1"
         id="stop33" />
    </linearGradient>
    <linearGradient
       id="swatch30"
       inkscape:swatch="solid">
      <stop
         style="stop-color:#191919;stop-opacity:0.7733236;"
         offset="0"
         id="stop30" />
    </linearGradient>
    <linearGradient
       id="linearGradient19"
       inkscape:collect="always">
      <stop
         style="stop-color:#4b4d50;stop-opacity:1;"
         offset="0.0149561"
         id="stop19" />
      <stop
         style="stop-color:#4b4d50;stop-opacity:0;"
         offset="0.69356495"
         id="stop20" />
    </linearGradient>
    <linearGradient
       id="linearGradient120"
       inkscape:collect="always">
      <stop
         style="stop-color:#202123;stop-opacity:1;"
         offset="0"
         id="stop120" />
      <stop
         style="stop-color:#313235;stop-opacity:1;"
         offset="0.43551239"
         id="stop122" />
      <stop
         style="stop-color:#3b3c3e;stop-opacity:1;"
         offset="0.90165257"
         id="stop123" />
      <stop
         style="stop-color:#47484a;stop-opacity:1;"
         offset="1"
         id="stop121" />
    </linearGradient>
    <linearGradient
       inkscape:collect="always"
       xlink:href="#linearGradient120"
       id="linearGradient121"
       x1="1333.3331"
       y1="2648.333"
       x2="1333.3333"
       y2="215.69077"
       gradientUnits="userSpaceOnUse"
       gradientTransform="translate(16.666656,16.666656)" />
    <filter
       inkscape:collect="always"
       style="color-interpolation-filters:sRGB"
       id="filter130"
       x="-0.0010705703"
       y="-0.0010705703"
       width="1.0021411"
       height="1.0021411">
      <feGaussianBlur
         inkscape:collect="always"
         stdDeviation="0.1315"
         id="feGaussianBlur130" />
    </filter>
    <linearGradient
       inkscape:collect="always"
       xlink:href="#linearGradient33"
       id="linearGradient20"
       x1="1333.3335"
       y1="715.11975"
       x2="1329.7018"
       y2="1951.547"
       gradientUnits="userSpaceOnUse"
       gradientTransform="translate(-2.4383718e-5,-1.6255812e-5)" />
    <linearGradient
       inkscape:collect="always"
       xlink:href="#linearGradient19"
       id="linearGradient32"
       gradientUnits="userSpaceOnUse"
       gradientTransform="matrix(1.4558074,0,0,1.4558074,-591.07657,-591.07665)"
       x1="1333.3335"
       y1="715.11975"
       x2="1329.7018"
       y2="1951.547" />
    <linearGradient
       inkscape:collect="always"
       xlink:href="#linearGradient37"
       id="linearGradient34"
       gradientUnits="userSpaceOnUse"
       gradientTransform="translate(-2.4414062e-5,-2.3896484e-5)"
       x1="1333.3335"
       y1="715.11975"
       x2="1329.7018"
       y2="1951.547" />
    <linearGradient
       inkscape:collect="always"
       xlink:href="#linearGradient40"
       id="linearGradient34-9"
       gradientUnits="userSpaceOnUse"
       gradientTransform="matrix(1.1087017,0,0,1.1087017,-128.26891,-128.26891)"
       x1="1333.3335"
       y1="715.11975"
       x2="1329.7018"
       y2="1951.547" />
    <linearGradient
       inkscape:collect="always"
       xlink:href="#linearGradient4"
       id="linearGradient2"
       gradientUnits="userSpaceOnUse"
       gradientTransform="matrix(1.4340763,0,0,1.4340763,-562.10192,-562.10188)"
       x1="1333.3335"
       y1="715.11975"
       x2="1329.7018"
       y2="1951.547" />
    <radialGradient
       inkscape:collect="always"
       xlink:href="#linearGradient8"
       id="radialGradient9"
       cx="1333.3334"
       cy="1333.3334"
       fx="1333.3334"
       fy="1333.3334"
       r="621.67102"
       gradientUnits="userSpaceOnUse" />
    <linearGradient
       inkscape:collect="always"
       xlink:href="#swatch44"
       id="linearGradient64"
       x1="445.00009"
       y1="1349.9958"
       x2="2255"
       y2="1349.9958"
       gradientUnits="userSpaceOnUse" />
    <linearGradient
       inkscape:collect="always"
       xlink:href="#swatch60"
       id="linearGradient65"
       x1="1350"
       y1="450"
       x2="1350"
       y2="2250"
       gradientUnits="userSpaceOnUse" />
    <linearGradient
       inkscape:collect="always"
       xlink:href="#swatch69"
       id="linearGradient71"
       gradientUnits="userSpaceOnUse"
       x1="752.59082"
       y1="1333.3334"
       x2="1914.0759"
       y2="1333.3334" />
    <linearGradient
       inkscape:collect="always"
       xlink:href="#swatch85"
       id="linearGradient85"
       x1="850.85327"
       y1="712.42322"
       x2="1097.099"
       y2="712.42322"
       gradientUnits="userSpaceOnUse" />
    <linearGradient
       inkscape:collect="always"
       xlink:href="#swatch85"
       id="linearGradient86"
       x1="1223.5496"
       y1="635.88739"
       x2="1476.4504"
       y2="635.88739"
       gradientUnits="userSpaceOnUse" />
    <linearGradient
       inkscape:collect="always"
       xlink:href="#swatch85"
       id="linearGradient87"
       x1="570"
       y1="1350"
       x2="701.77472"
       y2="1350"
       gradientUnits="userSpaceOnUse" />
    <linearGradient
       inkscape:collect="always"
       xlink:href="#swatch85"
       id="linearGradient88"
       x1="612.59387"
       y1="975.30719"
       x2="812.25256"
       y2="975.30719"
       gradientUnits="userSpaceOnUse" />
    <linearGradient
       inkscape:collect="always"
       xlink:href="#swatch85"
       id="linearGradient89"
       x1="1887.7474"
       y1="1725.3584"
       x2="2087.406"
       y2="1725.3584"
       gradientUnits="userSpaceOnUse" />
    <linearGradient
       inkscape:collect="always"
       xlink:href="#swatch85"
       id="linearGradient90"
       x1="850.85327"
       y1="1987.5768"
       x2="1098.4301"
       y2="1987.5768"
       gradientUnits="userSpaceOnUse" />
    <linearGradient
       inkscape:collect="always"
       xlink:href="#swatch85"
       id="linearGradient91"
       x1="1223.5496"
       y1="2064.1128"
       x2="1476.4504"
       y2="2064.1128"
       gradientUnits="userSpaceOnUse" />
    <linearGradient
       inkscape:collect="always"
       xlink:href="#swatch85"
       id="linearGradient92"
       x1="611.26282"
       y1="1726.0239"
       x2="812.25256"
       y2="1726.0239"
       gradientUnits="userSpaceOnUse" />
    <linearGradient
       inkscape:collect="always"
       xlink:href="#swatch85"
       id="linearGradient93"
       x1="1887.7474"
       y1="974.64166"
       x2="2087.406"
       y2="974.64166"
       gradientUnits="userSpaceOnUse" />
    <linearGradient
       inkscape:collect="always"
       xlink:href="#swatch85"
       id="linearGradient94"
       x1="1601.5699"
       y1="1987.5768"
       x2="1849.1469"
       y2="1987.5768"
       gradientUnits="userSpaceOnUse" />
    <linearGradient
       inkscape:collect="always"
       xlink:href="#swatch85"
       id="linearGradient95"
       x1="1601.5699"
       y1="712.42322"
       x2="1849.1469"
       y2="712.42322"
       gradientUnits="userSpaceOnUse" />
    <linearGradient
       inkscape:collect="always"
       xlink:href="#swatch85"
       id="linearGradient97"
       gradientUnits="userSpaceOnUse"
       x1="1998.2252"
       y1="1350"
       x2="2130"
       y2="1350" />
  </defs>
  <sodipodi:namedview
     id="namedview1"
     pagecolor="#505050"
     bordercolor="#eeeeee"
     borderopacity="1"
     inkscape:showpageshadow="0"
     inkscape:pageopacity="0"
     inkscape:pagecheckerboard="0"
     inkscape:deskcolor="#505050"
     inkscape:zoom="0.20455729"
     inkscape:cx="-327.5366"
     inkscape:cy="427.75303"
     inkscape:window-width="3840"
     inkscape:window-height="2054"
     inkscape:window-x="-11"
     inkscape:window-y="-11"
     inkscape:window-maximized="1"
     inkscape:current-layer="g1"
     showguides="false">
    <inkscape:page
       x="0"
       y="0"
       width="2700"
       height="2700"
       id="page2"
       margin="0"
       bleed="0" />
  </sodipodi:namedview>
  <g
     inkscape:groupmode="layer"
     inkscape:label="Image"
     id="g1">
    <g
       id="g781"
       inkscape:label="Layer1"
       transform="translate(2.9698713e-5,2.9698713e-5)"
       inkscape:export-filename="g781.svg"
       inkscape:export-xdpi="1.4400001"
       inkscape:export-ydpi="1.4400001"
       sodipodi:insensitive="true"
       style="display:none">
      <circle
         style="display:inline;fill:url(#linearGradient121);fill-opacity:1;fill-rule:evenodd;stroke:#333333;stroke-width:5;stroke-linecap:round;stroke-dasharray:none;stroke-dashoffset:0;stroke-opacity:1;paint-order:fill markers stroke;filter:url(#filter130)"
         id="path239"
         cy="1350"
         cx="1350"
         r="1315"
         inkscape:label="Hut" />
      <circle
         style="display:inline;opacity:0.520646;fill:url(#linearGradient65);fill-rule:nonzero;stroke:url(#linearGradient64);stroke-width:0;stroke-linecap:round;stroke-dasharray:none;stroke-dashoffset:0;stroke-opacity:0;paint-order:fill markers stroke"
         id="path1"
         cx="1350"
         cy="1350"
         r="900"
         inkscape:label="Sink" />
      <path
         style="display:inline;mix-blend-mode:normal;fill:#262729;fill-opacity:1;stroke:url(#linearGradient32);stroke-width:20;stroke-linecap:round;stroke-linejoin:bevel;stroke-dasharray:none;stroke-opacity:1;paint-order:stroke fill markers"
         id="path14-1"
         sodipodi:type="arc"
         sodipodi:cx="1350"
         sodipodi:cy="1350"
         sodipodi:rx="794.07672"
         sodipodi:ry="794.07672"
         sodipodi:start="0"
         sodipodi:end="6.2731593"
         sodipodi:open="true"
         sodipodi:arc-type="arc"
         d="M 2144.0767,1350 A 794.07672,794.07672 0 0 1 1351.9904,2144.0742 794.07672,794.07672 0 0 1 555.93326,1353.9807 794.07672,794.07672 0 0 1 1344.029,555.94573 794.07672,794.07672 0 0 1 2144.0368,1342.0387"
         inkscape:label="Sinkradial" />
      <path
         style="display:inline;opacity:0.550562;fill:#262729;fill-opacity:1;stroke:url(#linearGradient34-9);stroke-width:390.507;stroke-linecap:round;stroke-linejoin:bevel;stroke-dasharray:none;stroke-opacity:1;paint-order:stroke fill markers"
         id="path14-7-2"
         sodipodi:type="arc"
         sodipodi:cx="1350"
         sodipodi:cy="1350"
         sodipodi:rx="604.74628"
         sodipodi:ry="604.74628"
         sodipodi:start="0"
         sodipodi:end="6.2731593"
         sodipodi:open="true"
         sodipodi:arc-type="arc"
         d="M 1954.7463,1350 A 604.74628,604.74628 0 0 1 1351.5158,1954.7444 604.74628,604.74628 0 0 1 745.26132,1353.0316 604.74628,604.74628 0 0 1 1345.4526,745.27082 604.74628,604.74628 0 0 1 1954.7159,1343.9369"
         inkscape:label="Reflection Bottum Riffles" />
      <path
         style="display:inline;opacity:0.5;mix-blend-mode:normal;fill:#262729;fill-opacity:1;stroke:url(#linearGradient2);stroke-width:15.5531;stroke-linecap:round;stroke-linejoin:bevel;stroke-dasharray:none;stroke-opacity:1;paint-order:stroke fill markers"
         id="path14-7-2-1"
         sodipodi:type="arc"
         sodipodi:cx="1350"
         sodipodi:cy="1350"
         sodipodi:rx="782.22345"
         sodipodi:ry="782.22345"
         sodipodi:start="0"
         sodipodi:end="6.2731593"
         sodipodi:open="true"
         sodipodi:arc-type="arc"
         d="m 2132.2234,1350 a 782.22345,782.22345 0 0 1 -780.2628,782.221 782.22345,782.22345 0 0 1 -784.17422,-778.2997 782.22345,782.22345 0 0 1 776.33172,-786.12264 782.22345,782.22345 0 0 1 788.066,774.35894"
         inkscape:label="Reflection Bottum Riffles" />
      <path
         style="display:inline;opacity:1;fill:url(#radialGradient9);fill-opacity:1;stroke:url(#linearGradient34);stroke-width:145.36;stroke-linecap:round;stroke-linejoin:bevel;stroke-dasharray:none;stroke-opacity:1;paint-order:stroke fill markers"
         id="path14-7"
         sodipodi:type="arc"
         sodipodi:cx="1333.3334"
         sodipodi:cy="1333.3334"
         sodipodi:rx="545.45453"
         sodipodi:ry="545.45453"
         sodipodi:start="0"
         sodipodi:end="6.2731593"
         sodipodi:open="true"
         sodipodi:arc-type="arc"
         d="m 1878.7879,1333.3334 a 545.45453,545.45453 0 0 1 -544.0873,545.4528 545.45453,545.45453 0 0 1 -546.8149,-542.7185 545.45453,545.45453 0 0 1 541.3462,-548.17343 545.45453,545.45453 0 0 1 549.5286,539.97043"
         transform="matrix(1.1007157,0,0,1.1007157,-117.62101,-117.621)"
         inkscape:label="Reflection" />
      <path
         style="display:inline;opacity:0.865079;mix-blend-mode:normal;fill:url(#linearGradient71);stroke:url(#linearGradient20);stroke-width:70.576;stroke-linecap:round;stroke-linejoin:bevel;stroke-dasharray:none;stroke-opacity:1;paint-order:stroke fill markers"
         id="path14"
         sodipodi:type="arc"
         sodipodi:cx="1333.3334"
         sodipodi:cy="1333.3334"
         sodipodi:rx="545.45453"
         sodipodi:ry="545.45453"
         sodipodi:start="0"
         sodipodi:end="6.2731593"
         sodipodi:open="true"
         sodipodi:arc-type="arc"
         d="m 1878.7879,1333.3334 a 545.45453,545.45453 0 0 1 -544.0873,545.4528 545.45453,545.45453 0 0 1 -546.8149,-542.7185 545.45453,545.45453 0 0 1 541.3462,-548.17343 545.45453,545.45453 0 0 1 549.5286,539.97043"
         inkscape:label="TopHatReflection"
         transform="matrix(0.98461668,0,0,0.98461668,37.177714,37.177722)" />
      <rect
         style="display:inline;opacity:0;fill:#3a3b3d;fill-opacity:1;stroke:none;stroke-width:0;stroke-linecap:round;stroke-linejoin:bevel;stroke-dasharray:none;stroke-dashoffset:0;stroke-opacity:0;paint-order:stroke fill markers"
         id="rect73"
         width="2700"
         height="2700"
         x="0"
         y="0"
         rx="29.694017"
         transform="translate(-2.9698713e-5,-2.9698713e-5)" />
    </g>
    <g
       id="g2"
       inkscape:label="Layer2"
       style="display:inline"
       sodipodi:insensitive="true">
      <path
         d="m 1348.6232,97.536228 4.1305,1.3768 20.652,38.550702 16.5219,30.2898 19.2752,35.7971 17.8987,33.0436 19.2753,35.7971 19.2753,35.7971 19.2755,35.7971 19.2753,35.7971 19.2754,35.7971 16.5217,30.2898 v 4.1305 h -380 l 1.3767,-6.8841 19.2754,-35.7971 20.6522,-38.5508 19.2754,-35.797 19.2753,-35.7971 19.2754,-35.7971 19.2754,-35.7971 16.5218,-30.2899 19.2753,-35.7971 19.2754,-35.7971 13.768,-24.782602 z"
         fill="#ffffff"
         id="path1-5"
         style="display:inline;stroke-width:1.37682"
         inkscape:transform-center-x="2.9144564"
         inkscape:transform-center-y="-2.9144557"
         inkscape:label="Arrow" />
      <g
         id="g65">
        <path
           d="M 2122.0136,1223.5495 H 2130 l -1.3311,3.9932 -17.3037,10.6485 -13.3106,11.9795 -11.9795,13.3106 -14.6417,27.9522 -5.3242,21.2969 -2.6621,23.959 v 26.6212 l 2.6621,22.628 3.9932,18.6348 13.3106,27.9522 11.9795,14.6417 11.9795,11.9795 14.6416,9.3174 6.6553,3.9932 1.3311,3.9931 -14.6416,-1.331 -37.2697,-6.6553 -21.2969,-3.9932 -13.3106,-3.9932 -13.3106,-11.9795 -13.3105,-15.9727 -11.9796,-25.2901 -3.9931,-11.9795 -2.6622,-19.9659 v -51.9112 l 3.9932,-23.9591 9.3174,-22.628 9.3174,-14.6416 15.9727,-17.3038 9.3174,-6.6552 25.2901,-5.3243 11.9796,-2.6621 15.9727,-2.6621 z"
           id="path2"
           style="fill:url(#linearGradient97);fill-opacity:1;stroke-width:1.33106" />
        <path
           d="m 1629.5222,612.59385 h 2.6621 l 1.3311,10.64847 1.331,17.30375 7.9864,27.95222 10.6484,18.63481 10.6485,13.31058 9.3174,9.31741 21.2969,15.97269 29.2833,15.9727 27.9522,10.64846 14.6417,2.66212 h 29.2832 l 22.628,-5.32423 15.9727,-6.65529 9.3174,-5.32424 h 5.3243 l -2.6622,5.32424 -17.3037,19.96587 -11.9795,14.64163 -17.3038,19.96591 -11.9795,9.31741 -15.9727,3.99317 -9.3174,1.33106 h -29.2833 l -15.9727,-2.66211 -26.6211,-10.64847 -23.9591,-13.31062 -17.3037,-11.97952 -14.6417,-11.97952 -10.6484,-11.97952 -11.9796,-18.63482 -5.3242,-11.97952 -5.3242,-19.96587 v -9.3174 l 14.6416,-43.92492 6.6553,-15.97269 5.3242,-15.9727 z"
           id="path3"
           style="fill:url(#linearGradient95);fill-opacity:1;stroke-width:1.33106" />
        <path
           d="m 1732.0136,1887.7475 h 34.6076 l 19.9658,5.3242 11.9795,7.9863 5.3243,5.3243 v 2.6621 h 2.6621 l 14.6416,18.6348 15.9727,17.3038 9.3174,11.9795 2.6622,5.3242 -7.9864,-1.3311 -18.6348,-9.3174 -18.6348,-5.3242 -7.9864,-1.331 h -29.2832 l -18.6349,3.9931 -23.959,9.3174 -22.628,11.9796 -17.3037,11.9795 -14.6417,11.9795 -9.3174,9.3174 -13.3106,19.9659 -6.6553,15.9727 -5.3242,19.9658 -1.331,17.3038 -1.3311,10.6485 h -2.6621 l -6.6553,-17.3038 -3.9932,-10.6485 -5.3242,-14.6416 -11.9795,-34.6075 v -11.9795 l 9.3174,-26.6212 6.6553,-11.9795 11.9795,-15.9727 9.3174,-9.3174 19.9659,-14.6417 19.9658,-11.9795 21.297,-10.6484 18.6348,-6.6553 z"
           id="path4"
           style="fill:url(#linearGradient94);fill-opacity:1;stroke-width:1.33106" />
        <path
           d="m 1959.6246,850.85327 h 2.6621 l -1.3311,7.98635 -9.3174,18.63481 -5.3242,18.63482 -1.3311,7.98634 v 29.28328 l 3.9932,18.63481 10.6485,26.62116 14.6416,26.62116 13.3106,17.3038 11.9795,13.3105 13.3106,10.6485 18.6348,10.6485 27.9522,7.9863 15.9727,1.3311 11.9795,1.331 v 2.6621 l -23.959,9.3175 -22.628,7.9863 -17.3037,6.6553 -13.3106,3.9932 -17.3038,-1.3311 -11.9795,-3.9932 -21.2969,-10.6484 -15.9727,-11.9796 -10.6485,-10.6484 -15.9727,-22.628 -13.3106,-23.959 -7.9863,-15.97275 -6.6553,-21.29692 -1.3311,-7.98635 v -33.27645 l 3.9932,-19.96587 7.9864,-11.97952 17.3037,-15.9727 14.6416,-11.97952 18.6349,-15.9727 z"
           id="path5"
           style="fill:url(#linearGradient93);fill-opacity:1;stroke-width:1.33106" />
        <path
           d="m 687.1331,1602.901 h 17.30376 l 14.64164,3.9932 21.29692,10.6485 17.30377,13.3106 13.31058,14.6416 9.31741,13.3106 11.97952,19.9659 10.64846,21.2969 6.65529,17.3037 2.66212,13.3106 v 33.2765 l -3.99317,19.9658 -5.32424,10.6485 -10.64846,10.6485 -14.64164,11.9795 -18.63481,15.9727 -14.64165,11.9795 -6.65529,3.9932 1.33106,-7.9864 9.3174,-18.6348 5.32423,-18.6348 1.33108,-7.9863 v -29.2833 l -3.99319,-18.6348 -10.64847,-26.6212 -14.64163,-26.6212 -13.31058,-17.3037 -11.97953,-13.3106 -13.31058,-10.6485 -18.63481,-10.6484 -27.95222,-7.9864 -17.30375,-1.331 -10.64846,-1.3311 -1.33106,-2.6621 23.95904,-9.3174 27.95222,-9.3174 13.31058,-5.3242 z"
           id="path6"
           style="fill:url(#linearGradient92);fill-opacity:1;stroke-width:1.33106" />
        <path
           d="m 1324.7099,1998.2253 h 50.5802 l 23.959,3.9931 19.9659,7.9864 14.6417,7.9863 17.3037,14.6417 9.3174,10.6484 5.3242,19.9659 5.3243,29.2833 5.3242,30.6143 V 2130 l -3.9932,-1.331 -10.6484,-17.3038 -11.9795,-13.3106 -13.3106,-11.9795 -18.6348,-10.6485 -17.3038,-6.6553 -22.628,-3.9931 -14.6416,-1.3311 h -26.6212 l -23.959,2.6621 -21.2969,5.3243 -21.297,10.6484 -14.6416,10.6485 -14.6417,14.6416 -9.3174,14.6417 -3.9931,6.6553 -3.9932,1.331 1.3311,-14.6416 5.3242,-30.6144 5.3242,-27.9522 3.9932,-13.3106 11.9795,-13.3105 15.9727,-13.3106 21.2969,-10.6485 17.3038,-5.3242 z"
           id="path7"
           style="fill:url(#linearGradient91);fill-opacity:1;stroke-width:1.33106" />
        <path
           d="m 934.70991,1887.7475 h 35.93856 l 22.62799,6.6552 30.61434,14.6417 25.2901,15.9727 17.3037,14.6416 10.6485,11.9795 10.6485,15.9727 10.6484,31.9454 v 10.6485 l -6.6552,21.2969 -5.3243,13.3106 -10.6484,29.2833 -5.3243,13.3106 h -2.6621 l -1.3311,-10.6485 -1.331,-17.3038 -7.9864,-27.9522 -10.6484,-18.6348 -10.6485,-13.3106 -9.3174,-9.3174 -21.2969,-15.9727 -23.95906,-13.3106 -14.64164,-6.6552 -23.95905,-7.9864 -9.3174,-1.331 h -29.28328 l -22.62798,5.3242 -15.9727,6.6553 -9.31741,5.3242 h -5.32423 l 2.66212,-5.3242 15.97269,-18.6348 11.97953,-14.6417 11.97952,-13.3106 9.3174,-10.6484 9.31741,-6.6553 z"
           id="path8"
           style="fill:url(#linearGradient90);fill-opacity:1;stroke-width:1.33106" />
        <path
           d="m 1999.5563,1601.57 h 10.6485 l 19.9658,6.6553 54.5734,19.9658 2.6621,1.3311 v 2.6621 l -10.6484,1.3311 -17.3038,1.331 -27.9522,7.9864 -18.6348,10.6484 -13.3106,10.6485 -9.3174,9.3174 -15.9727,21.2969 -15.9727,29.2833 -10.6485,27.9522 -2.6621,14.6417 v 29.2833 l 5.3243,22.6279 6.6553,15.9727 5.3242,9.3174 v 5.3243 l -5.3242,-2.6621 -18.6349,-15.9727 -14.6416,-11.9796 -14.6416,-13.3105 -10.6485,-9.3174 -6.6553,-11.9796 -3.9932,-18.6348 v -30.6143 l 2.6622,-17.3038 7.9863,-19.9658 10.6485,-21.297 13.3105,-21.2969 13.3106,-17.3037 10.6485,-10.6485 19.9659,-13.3106 14.6416,-6.6553 z"
           id="path9"
           style="fill:url(#linearGradient89);fill-opacity:1;stroke-width:1.33106" />
        <path
           d="m 737.71331,852.18433 5.32423,1.33106 19.96588,17.30375 14.64164,11.97953 14.64164,13.31058 10.64846,9.3174 5.32424,9.31741 3.99317,22.62798 v 29.28328 l -3.99317,18.63481 -10.64847,25.29007 -14.64164,26.6212 -18.63481,25.2901 -10.64848,10.6485 -19.96587,13.3105 -14.64163,6.6553 -17.30376,5.3243 h -10.64846 l -22.62799,-6.6553 -10.64846,-3.9932 -31.94539,-11.9795 -13.31058,-5.3243 v -2.6621 l 11.97952,-1.331 21.29693,-2.6621 22.62798,-6.6553 18.63481,-10.6485 13.31058,-10.6485 9.31741,-9.3174 15.9727,-21.2969 15.97269,-29.28327 10.64847,-27.95222 2.66213,-14.64164 v -29.28328 l -5.32425,-22.62798 -6.65529,-15.9727 -5.32423,-9.3174 z"
           id="path10"
           style="fill:url(#linearGradient88);fill-opacity:1;stroke-width:1.33106" />
        <path
           d="m 570,1223.5495 22.62799,2.6621 30.61433,5.3243 29.28328,6.6553 11.97952,7.9863 14.64164,15.9727 10.64846,17.3038 6.65529,15.9726 2.66212,9.3175 2.66211,27.9522 v 42.5938 l -3.99317,25.2901 -10.64847,23.9591 -9.3174,14.6416 -17.30376,18.6348 -13.31058,5.3243 -22.62798,5.3242 -19.96587,2.6621 -11.97952,2.6621 -15.9727,2.6621 H 570 l 2.66212,-5.3242 14.64163,-7.9863 15.9727,-14.6417 10.64846,-11.9795 14.64164,-27.9522 3.99318,-14.6417 2.66211,-15.9727 1.33106,-14.6416 v -26.6212 l -2.66212,-23.959 -5.32423,-21.2969 -14.64164,-27.9522 -14.64163,-15.9727 -11.97953,-10.6485 -15.97269,-9.3174 z"
           id="path11"
           style="fill:url(#linearGradient87);fill-opacity:1;stroke-width:1.33106" />
        <path
           d="m 1223.5495,570 5.3242,2.66211 7.9864,14.64164 14.6416,15.9727 11.9795,10.64846 27.9523,14.64164 14.6416,3.99317 15.9727,2.66212 14.6416,1.33106 h 26.6212 l 23.959,-2.66212 21.297,-5.32423 27.9522,-14.64164 17.3037,-15.9727 9.3174,-10.64846 9.3174,-15.9727 3.9932,-1.33105 -1.331,13.31058 -7.9864,46.58703 -5.3242,22.62798 -7.9864,11.97952 -15.9727,14.64164 -13.3105,7.98635 -14.6417,6.65529 -9.3174,3.99317 -25.2901,3.99318 h -42.5939 l -26.6211,-2.66212 -17.3038,-5.32423 -21.2969,-10.64846 -18.6348,-15.9727 -7.9864,-9.31741 -5.3242,-14.64163 -7.9863,-42.59386 -3.9932,-23.95904 z"
           id="path12"
           style="fill:url(#linearGradient86);fill-opacity:1;stroke-width:1.33106" />
        <path
           d="m 1067.8157,612.59385 3.9932,1.33106 6.6553,19.96587 5.3242,13.31058 6.6553,19.96587 3.9932,9.31741 2.6621,9.3174 v 19.96587 l -9.3174,25.2901 -9.3174,14.64164 -9.3174,11.97952 -13.3106,11.97953 -18.6348,13.31058 -29.2833,15.97273 -18.63482,7.98635 -6.65529,2.66212 -15.97269,2.66211 H 933.37885 L 909.4198,805.5973 896.10922,793.61774 884.1297,778.9761 l -13.31058,-14.64164 -14.64164,-18.63481 -5.32423,-6.65529 5.32423,-1.33106 21.29693,10.64847 18.63481,5.32423 7.98635,1.33106 h 29.28328 l 18.63481,-3.99318 26.62116,-10.64846 26.62118,-14.64164 17.3037,-13.31058 13.3106,-11.97952 10.6485,-13.31058 10.6484,-18.63481 7.9864,-27.95222 1.331,-17.30375 z"
           id="path13"
           style="fill:url(#linearGradient85);fill-opacity:1;stroke-width:1.33106" />
      </g>
      <rect
         style="opacity:0;fill:#3a3b3d;fill-opacity:1;stroke:none;stroke-width:0;stroke-linecap:round;stroke-linejoin:bevel;stroke-dasharray:none;stroke-dashoffset:0;stroke-opacity:0;paint-order:stroke fill markers"
         id="rect71"
         width="2700"
         height="2700"
         x="0"
         y="0"
         rx="29.694017"
         inkscape:label="ViewBox" />
    </g>
  </g>
</svg>
