<svg width="29" height="232" viewBox="0 0 29 232" fill="none" xmlns="http://www.w3.org/2000/svg">
<path d="M17.9528 16.264L18.8488 15.368H19.4408V21.48L18.9448 21.976L17.9528 21V20.776V19.512V16.264ZM18.9448 8.024L19.4408 8.52V14.632H18.8488L17.9528 13.736V13.288V10.488V9.224V9.016L18.9448 8.024Z" fill="#FF0000"/>
<path d="M11.5528 44.736L10.8168 44L11.5528 43.264H13.2168H13.6328L14.0648 44.016L13.6328 44.736H11.7768H11.5528ZM10.5768 36.496L11.0728 36H17.9208L18.4168 36.496L17.4408 37.488H17.4088H15.2328H13.7608H11.5848H11.5528L10.5768 36.496ZM10.0488 50.976L9.55275 50.48V44.368H10.1448L10.2888 44.528L11.0408 45.264V48.512V49.776V50L10.0488 50.976ZM18.4168 51.504L17.9208 52H11.0728L10.5768 51.504L11.5528 50.512H11.5848H13.7608H15.2328H17.4088H17.4408L18.4168 51.504ZM18.9448 37.024L19.4408 37.52V43.632H18.8488L17.9528 42.736V42.288V39.488V38.224V38.016L18.9448 37.024ZM17.4408 43.264L18.1768 44L17.4408 44.736H17.2168H15.9848H15.3448L14.9128 44.016L15.3608 43.264H15.7768H17.4408Z" fill="#FF0000"/>
<path d="M11.5528 73.736L10.8168 73L11.5528 72.264H13.2168H13.6328L14.0648 73.016L13.6328 73.736H11.7768H11.5528ZM10.5768 65.496L11.0728 65H17.9208L18.4168 65.496L17.4408 66.488H17.4088H15.2328H13.7608H11.5848H11.5528L10.5768 65.496ZM18.4168 80.504L17.9208 81H11.0728L10.5768 80.504L11.5528 79.512H11.5848H13.7608H15.2328H17.4088H17.4408L18.4168 80.504ZM17.9528 74.264L18.8488 73.368H19.4408V79.48L18.9448 79.976L17.9528 79V78.776V77.512V74.264ZM18.9448 66.024L19.4408 66.52V72.632H18.8488L17.9528 71.736V71.288V68.488V67.224V67.016L18.9448 66.024ZM17.4408 72.264L18.1768 73L17.4408 73.736H17.2168H15.9848H15.3448L14.9128 73.016L15.3608 72.264H15.7768H17.4408Z" fill="#FF0000"/>
<path d="M11.5528 102.736L10.8168 102L11.5528 101.264H13.2168H13.6328L14.0648 102.016L13.6328 102.736H11.7768H11.5528ZM17.9528 103.264L18.8488 102.368H19.4408V108.48L18.9448 108.976L17.9528 108V107.776V106.512V103.264ZM18.9448 95.024L19.4408 95.52V101.632H18.8488L17.9528 100.736V100.288V97.488V96.224V96.016L18.9448 95.024ZM11.0408 100.736L10.1448 101.632H9.55275V95.52L10.0488 95.024L11.0408 96V96.224V97.488V100.736ZM17.4408 101.264L18.1768 102L17.4408 102.736H17.2168H15.9848H15.3448L14.9128 102.016L15.3608 101.264H15.7768H17.4408Z" fill="#FF0000"/>
<path d="M11.5528 131.736L10.8168 131L11.5528 130.264H13.2168H13.6328L14.0648 131.016L13.6328 131.736H11.7768H11.5528ZM10.5768 123.496L11.0728 123H17.9208L18.4168 123.496L17.4408 124.488H17.4088H15.2328H13.7608H11.5848H11.5528L10.5768 123.496ZM18.4168 138.504L17.9208 139H11.0728L10.5768 138.504L11.5528 137.512H11.5848H13.7608H15.2328H17.4088H17.4408L18.4168 138.504ZM17.9528 132.264L18.8488 131.368H19.4408V137.48L18.9448 137.976L17.9528 137V136.776V135.512V132.264ZM11.0408 129.736L10.1448 130.632H9.55275V124.52L10.0488 124.024L11.0408 125V125.224V126.488V129.736ZM17.4408 130.264L18.1768 131L17.4408 131.736H17.2168H15.9848H15.3448L14.9128 131.016L15.3608 130.264H15.7768H17.4408Z" fill="#FF0000"/>
<path d="M11.5528 160.736L10.8168 160L11.5528 159.264H13.2168H13.6328L14.0648 160.016L13.6328 160.736H11.7768H11.5528ZM10.5768 152.496L11.0728 152H17.9208L18.4168 152.496L17.4408 153.488H17.4088H15.2328H13.7608H11.5848H11.5528L10.5768 152.496ZM10.0488 166.976L9.55275 166.48V160.368H10.1448L10.2888 160.528L11.0408 161.264V164.512V165.776V166L10.0488 166.976ZM18.4168 167.504L17.9208 168H11.0728L10.5768 167.504L11.5528 166.512H11.5848H13.7608H15.2328H17.4088H17.4408L18.4168 167.504ZM17.9528 161.264L18.8488 160.368H19.4408V166.48L18.9448 166.976L17.9528 166V165.776V164.512V161.264ZM11.0408 158.736L10.1448 159.632H9.55275V153.52L10.0488 153.024L11.0408 154V154.224V155.488V158.736ZM17.4408 159.264L18.1768 160L17.4408 160.736H17.2168H15.9848H15.3448L14.9128 160.016L15.3608 159.264H15.7768H17.4408Z" fill="#FF0000"/>
<path d="M10.5768 181.496L11.0728 181H17.9208L18.4168 181.496L17.4408 182.488H17.4088H15.2328H13.7608H11.5848H11.5528L10.5768 181.496ZM17.9528 190.264L18.8488 189.368H19.4408V195.48L18.9448 195.976L17.9528 195V194.776V193.512V190.264ZM18.9448 182.024L19.4408 182.52V188.632H18.8488L17.9528 187.736V187.288V184.488V183.224V183.016L18.9448 182.024ZM11.0408 187.736L10.1448 188.632H9.55275V182.52L10.0488 182.024L11.0408 183V183.224V184.488V187.736Z" fill="#FF0000"/>
<path d="M11.5528 218.736L10.8168 218L11.5528 217.264H13.2168H13.6328L14.0648 218.016L13.6328 218.736H11.7768H11.5528ZM10.5768 210.496L11.0728 210H17.9208L18.4168 210.496L17.4408 211.488H17.4088H15.2328H13.7608H11.5848H11.5528L10.5768 210.496ZM10.0488 224.976L9.55275 224.48V218.368H10.1448L10.2888 218.528L11.0408 219.264V222.512V223.776V224L10.0488 224.976ZM18.4168 225.504L17.9208 226H11.0728L10.5768 225.504L11.5528 224.512H11.5848H13.7608H15.2328H17.4088H17.4408L18.4168 225.504ZM17.9528 219.264L18.8488 218.368H19.4408V224.48L18.9448 224.976L17.9528 224V223.776V222.512V219.264ZM18.9448 211.024L19.4408 211.52V217.632H18.8488L17.9528 216.736V216.288V213.488V212.224V212.016L18.9448 211.024ZM11.0408 216.736L10.1448 217.632H9.55275V211.52L10.0488 211.024L11.0408 212V212.224V213.488V216.736ZM17.4408 217.264L18.1768 218L17.4408 218.736H17.2168H15.9848H15.3448L14.9128 218.016L15.3608 217.264H15.7768H17.4408Z" fill="#FF0000"/>
</svg>
