<svg width="29" height="928" viewBox="0 0 29 928" fill="none" xmlns="http://www.w3.org/2000/svg">
<path d="M24.484 16.264L25.38 15.368H25.972V21.48L25.476 21.976L24.484 21V20.776V19.512V16.264ZM25.476 8.024L25.972 8.52V14.632H25.38L24.484 13.736V13.288V10.488V9.224V9.016L25.476 8.024Z" fill="#FF0000"/>
<path d="M18.084 44.736L17.348 44L18.084 43.264H19.748H20.164L20.596 44.016L20.164 44.736H18.308H18.084ZM17.108 36.496L17.604 36H24.452L24.948 36.496L23.972 37.488H23.94H21.764H20.292H18.116H18.084L17.108 36.496ZM16.58 50.976L16.084 50.48V44.368H16.676L16.82 44.528L17.572 45.264V48.512V49.776V50L16.58 50.976ZM24.948 51.504L24.452 52H17.604L17.108 51.504L18.084 50.512H18.116H20.292H21.764H23.94H23.972L24.948 51.504ZM25.476 37.024L25.972 37.52V43.632H25.38L24.484 42.736V42.288V39.488V38.224V38.016L25.476 37.024ZM23.972 43.264L24.708 44L23.972 44.736H23.748H22.516H21.876L21.444 44.016L21.892 43.264H22.308H23.972Z" fill="#FF0000"/>
<path d="M18.084 73.736L17.348 73L18.084 72.264H19.748H20.164L20.596 73.016L20.164 73.736H18.308H18.084ZM17.108 65.496L17.604 65H24.452L24.948 65.496L23.972 66.488H23.94H21.764H20.292H18.116H18.084L17.108 65.496ZM24.948 80.504L24.452 81H17.604L17.108 80.504L18.084 79.512H18.116H20.292H21.764H23.94H23.972L24.948 80.504ZM24.484 74.264L25.38 73.368H25.972V79.48L25.476 79.976L24.484 79V78.776V77.512V74.264ZM25.476 66.024L25.972 66.52V72.632H25.38L24.484 71.736V71.288V68.488V67.224V67.016L25.476 66.024ZM23.972 72.264L24.708 73L23.972 73.736H23.748H22.516H21.876L21.444 73.016L21.892 72.264H22.308H23.972Z" fill="#FF0000"/>
<path d="M18.084 102.736L17.348 102L18.084 101.264H19.748H20.164L20.596 102.016L20.164 102.736H18.308H18.084ZM24.484 103.264L25.38 102.368H25.972V108.48L25.476 108.976L24.484 108V107.776V106.512V103.264ZM25.476 95.024L25.972 95.52V101.632H25.38L24.484 100.736V100.288V97.488V96.224V96.016L25.476 95.024ZM17.572 100.736L16.676 101.632H16.084V95.52L16.58 95.024L17.572 96V96.224V97.488V100.736ZM23.972 101.264L24.708 102L23.972 102.736H23.748H22.516H21.876L21.444 102.016L21.892 101.264H22.308H23.972Z" fill="#FF0000"/>
<path d="M18.084 131.736L17.348 131L18.084 130.264H19.748H20.164L20.596 131.016L20.164 131.736H18.308H18.084ZM17.108 123.496L17.604 123H24.452L24.948 123.496L23.972 124.488H23.94H21.764H20.292H18.116H18.084L17.108 123.496ZM24.948 138.504L24.452 139H17.604L17.108 138.504L18.084 137.512H18.116H20.292H21.764H23.94H23.972L24.948 138.504ZM24.484 132.264L25.38 131.368H25.972V137.48L25.476 137.976L24.484 137V136.776V135.512V132.264ZM17.572 129.736L16.676 130.632H16.084V124.52L16.58 124.024L17.572 125V125.224V126.488V129.736ZM23.972 130.264L24.708 131L23.972 131.736H23.748H22.516H21.876L21.444 131.016L21.892 130.264H22.308H23.972Z" fill="#FF0000"/>
<path d="M18.084 160.736L17.348 160L18.084 159.264H19.748H20.164L20.596 160.016L20.164 160.736H18.308H18.084ZM17.108 152.496L17.604 152H24.452L24.948 152.496L23.972 153.488H23.94H21.764H20.292H18.116H18.084L17.108 152.496ZM16.58 166.976L16.084 166.48V160.368H16.676L16.82 160.528L17.572 161.264V164.512V165.776V166L16.58 166.976ZM24.948 167.504L24.452 168H17.604L17.108 167.504L18.084 166.512H18.116H20.292H21.764H23.94H23.972L24.948 167.504ZM24.484 161.264L25.38 160.368H25.972V166.48L25.476 166.976L24.484 166V165.776V164.512V161.264ZM17.572 158.736L16.676 159.632H16.084V153.52L16.58 153.024L17.572 154V154.224V155.488V158.736ZM23.972 159.264L24.708 160L23.972 160.736H23.748H22.516H21.876L21.444 160.016L21.892 159.264H22.308H23.972Z" fill="#FF0000"/>
<path d="M17.108 181.496L17.604 181H24.452L24.948 181.496L23.972 182.488H23.94H21.764H20.292H18.116H18.084L17.108 181.496ZM24.484 190.264L25.38 189.368H25.972V195.48L25.476 195.976L24.484 195V194.776V193.512V190.264ZM25.476 182.024L25.972 182.52V188.632H25.38L24.484 187.736V187.288V184.488V183.224V183.016L25.476 182.024ZM17.572 187.736L16.676 188.632H16.084V182.52L16.58 182.024L17.572 183V183.224V184.488V187.736Z" fill="#FF0000"/>
<path d="M18.084 218.736L17.348 218L18.084 217.264H19.748H20.164L20.596 218.016L20.164 218.736H18.308H18.084ZM17.108 210.496L17.604 210H24.452L24.948 210.496L23.972 211.488H23.94H21.764H20.292H18.116H18.084L17.108 210.496ZM16.58 224.976L16.084 224.48V218.368H16.676L16.82 218.528L17.572 219.264V222.512V223.776V224L16.58 224.976ZM24.948 225.504L24.452 226H17.604L17.108 225.504L18.084 224.512H18.116H20.292H21.764H23.94H23.972L24.948 225.504ZM24.484 219.264L25.38 218.368H25.972V224.48L25.476 224.976L24.484 224V223.776V222.512V219.264ZM25.476 211.024L25.972 211.52V217.632H25.38L24.484 216.736V216.288V213.488V212.224V212.016L25.476 211.024ZM17.572 216.736L16.676 217.632H16.084V211.52L16.58 211.024L17.572 212V212.224V213.488V216.736ZM23.972 217.264L24.708 218L23.972 218.736H23.748H22.516H21.876L21.444 218.016L21.892 217.264H22.308H23.972Z" fill="#FF0000"/>
<path d="M18.084 247.736L17.348 247L18.084 246.264H19.748H20.164L20.596 247.016L20.164 247.736H18.308H18.084ZM17.108 239.496L17.604 239H24.452L24.948 239.496L23.972 240.488H23.94H21.764H20.292H18.116H18.084L17.108 239.496ZM24.948 254.504L24.452 255H17.604L17.108 254.504L18.084 253.512H18.116H20.292H21.764H23.94H23.972L24.948 254.504ZM24.484 248.264L25.38 247.368H25.972V253.48L25.476 253.976L24.484 253V252.776V251.512V248.264ZM25.476 240.024L25.972 240.52V246.632H25.38L24.484 245.736V245.288V242.488V241.224V241.016L25.476 240.024ZM17.572 245.736L16.676 246.632H16.084V240.52L16.58 240.024L17.572 241V241.224V242.488V245.736ZM23.972 246.264L24.708 247L23.972 247.736H23.748H22.516H21.876L21.444 247.016L21.892 246.264H22.308H23.972Z" fill="#FF0000"/>
<path d="M11.4215 277.264L12.3175 276.368H12.9095V282.48L12.4135 282.976L11.4215 282V281.776V280.512V277.264ZM12.4135 269.024L12.9095 269.52V275.632H12.3175L11.4215 274.736V274.288V271.488V270.224V270.016L12.4135 269.024ZM19.54 277.488V280.048L18.548 281.776H18.308V279.232L19.316 277.488H19.54ZM17.108 268.496L17.604 268H24.452L24.948 268.496L23.972 269.488H23.94H21.764H20.292H18.116H18.084L17.108 268.496ZM16.58 282.976L16.084 282.48V276.368H16.676L16.82 276.528L17.572 277.264V280.512V281.776V282L16.58 282.976ZM24.948 283.504L24.452 284H17.604L17.108 283.504L18.084 282.512H18.116H20.292H21.764H23.94H23.972L24.948 283.504ZM24.484 277.264L25.38 276.368H25.972V282.48L25.476 282.976L24.484 282V281.776V280.512V277.264ZM25.476 269.024L25.972 269.52V275.632H25.38L24.484 274.736V274.288V271.488V270.224V270.016L25.476 269.024ZM23.508 270.224H23.748V272.768L22.74 274.512H22.516V271.952L23.508 270.224ZM17.572 274.736L16.676 275.632H16.084V269.52L16.58 269.024L17.572 270V270.224V271.488V274.736Z" fill="#FF0000"/>
<path d="M11.4215 306.264L12.3175 305.368H12.9095V311.48L12.4135 311.976L11.4215 311V310.776V309.512V306.264ZM12.4135 298.024L12.9095 298.52V304.632H12.3175L11.4215 303.736V303.288V300.488V299.224V299.016L12.4135 298.024ZM24.484 306.264L25.38 305.368H25.972V311.48L25.476 311.976L24.484 311V310.776V309.512V306.264ZM25.476 298.024L25.972 298.52V304.632H25.38L24.484 303.736V303.288V300.488V299.224V299.016L25.476 298.024Z" fill="#FF0000"/>
<path d="M11.4215 335.264L12.3175 334.368H12.9095V340.48L12.4135 340.976L11.4215 340V339.776V338.512V335.264ZM12.4135 327.024L12.9095 327.52V333.632H12.3175L11.4215 332.736V332.288V329.488V328.224V328.016L12.4135 327.024ZM18.084 334.736L17.348 334L18.084 333.264H19.748H20.164L20.596 334.016L20.164 334.736H18.308H18.084ZM17.108 326.496L17.604 326H24.452L24.948 326.496L23.972 327.488H23.94H21.764H20.292H18.116H18.084L17.108 326.496ZM16.58 340.976L16.084 340.48V334.368H16.676L16.82 334.528L17.572 335.264V338.512V339.776V340L16.58 340.976ZM24.948 341.504L24.452 342H17.604L17.108 341.504L18.084 340.512H18.116H20.292H21.764H23.94H23.972L24.948 341.504ZM25.476 327.024L25.972 327.52V333.632H25.38L24.484 332.736V332.288V329.488V328.224V328.016L25.476 327.024ZM23.972 333.264L24.708 334L23.972 334.736H23.748H22.516H21.876L21.444 334.016L21.892 333.264H22.308H23.972Z" fill="#FF0000"/>
<path d="M11.4215 364.264L12.3175 363.368H12.9095V369.48L12.4135 369.976L11.4215 369V368.776V367.512V364.264ZM12.4135 356.024L12.9095 356.52V362.632H12.3175L11.4215 361.736V361.288V358.488V357.224V357.016L12.4135 356.024ZM18.084 363.736L17.348 363L18.084 362.264H19.748H20.164L20.596 363.016L20.164 363.736H18.308H18.084ZM17.108 355.496L17.604 355H24.452L24.948 355.496L23.972 356.488H23.94H21.764H20.292H18.116H18.084L17.108 355.496ZM24.948 370.504L24.452 371H17.604L17.108 370.504L18.084 369.512H18.116H20.292H21.764H23.94H23.972L24.948 370.504ZM24.484 364.264L25.38 363.368H25.972V369.48L25.476 369.976L24.484 369V368.776V367.512V364.264ZM25.476 356.024L25.972 356.52V362.632H25.38L24.484 361.736V361.288V358.488V357.224V357.016L25.476 356.024ZM23.972 362.264L24.708 363L23.972 363.736H23.748H22.516H21.876L21.444 363.016L21.892 362.264H22.308H23.972Z" fill="#FF0000"/>
<path d="M11.4215 393.264L12.3175 392.368H12.9095V398.48L12.4135 398.976L11.4215 398V397.776V396.512V393.264ZM12.4135 385.024L12.9095 385.52V391.632H12.3175L11.4215 390.736V390.288V387.488V386.224V386.016L12.4135 385.024ZM18.084 392.736L17.348 392L18.084 391.264H19.748H20.164L20.596 392.016L20.164 392.736H18.308H18.084ZM24.484 393.264L25.38 392.368H25.972V398.48L25.476 398.976L24.484 398V397.776V396.512V393.264ZM25.476 385.024L25.972 385.52V391.632H25.38L24.484 390.736V390.288V387.488V386.224V386.016L25.476 385.024ZM17.572 390.736L16.676 391.632H16.084V385.52L16.58 385.024L17.572 386V386.224V387.488V390.736ZM23.972 391.264L24.708 392L23.972 392.736H23.748H22.516H21.876L21.444 392.016L21.892 391.264H22.308H23.972Z" fill="#FF0000"/>
<path d="M11.4215 422.264L12.3175 421.368H12.9095V427.48L12.4135 427.976L11.4215 427V426.776V425.512V422.264ZM12.4135 414.024L12.9095 414.52V420.632H12.3175L11.4215 419.736V419.288V416.488V415.224V415.016L12.4135 414.024ZM18.084 421.736L17.348 421L18.084 420.264H19.748H20.164L20.596 421.016L20.164 421.736H18.308H18.084ZM17.108 413.496L17.604 413H24.452L24.948 413.496L23.972 414.488H23.94H21.764H20.292H18.116H18.084L17.108 413.496ZM24.948 428.504L24.452 429H17.604L17.108 428.504L18.084 427.512H18.116H20.292H21.764H23.94H23.972L24.948 428.504ZM24.484 422.264L25.38 421.368H25.972V427.48L25.476 427.976L24.484 427V426.776V425.512V422.264ZM17.572 419.736L16.676 420.632H16.084V414.52L16.58 414.024L17.572 415V415.224V416.488V419.736ZM23.972 420.264L24.708 421L23.972 421.736H23.748H22.516H21.876L21.444 421.016L21.892 420.264H22.308H23.972Z" fill="#FF0000"/>
<path d="M11.4215 451.264L12.3175 450.368H12.9095V456.48L12.4135 456.976L11.4215 456V455.776V454.512V451.264ZM12.4135 443.024L12.9095 443.52V449.632H12.3175L11.4215 448.736V448.288V445.488V444.224V444.016L12.4135 443.024ZM18.084 450.736L17.348 450L18.084 449.264H19.748H20.164L20.596 450.016L20.164 450.736H18.308H18.084ZM17.108 442.496L17.604 442H24.452L24.948 442.496L23.972 443.488H23.94H21.764H20.292H18.116H18.084L17.108 442.496ZM16.58 456.976L16.084 456.48V450.368H16.676L16.82 450.528L17.572 451.264V454.512V455.776V456L16.58 456.976ZM24.948 457.504L24.452 458H17.604L17.108 457.504L18.084 456.512H18.116H20.292H21.764H23.94H23.972L24.948 457.504ZM24.484 451.264L25.38 450.368H25.972V456.48L25.476 456.976L24.484 456V455.776V454.512V451.264ZM17.572 448.736L16.676 449.632H16.084V443.52L16.58 443.024L17.572 444V444.224V445.488V448.736ZM23.972 449.264L24.708 450L23.972 450.736H23.748H22.516H21.876L21.444 450.016L21.892 449.264H22.308H23.972Z" fill="#FF0000"/>
<path d="M11.4215 480.264L12.3175 479.368H12.9095V485.48L12.4135 485.976L11.4215 485V484.776V483.512V480.264ZM12.4135 472.024L12.9095 472.52V478.632H12.3175L11.4215 477.736V477.288V474.488V473.224V473.016L12.4135 472.024ZM17.108 471.496L17.604 471H24.452L24.948 471.496L23.972 472.488H23.94H21.764H20.292H18.116H18.084L17.108 471.496ZM24.484 480.264L25.38 479.368H25.972V485.48L25.476 485.976L24.484 485V484.776V483.512V480.264ZM25.476 472.024L25.972 472.52V478.632H25.38L24.484 477.736V477.288V474.488V473.224V473.016L25.476 472.024ZM17.572 477.736L16.676 478.632H16.084V472.52L16.58 472.024L17.572 473V473.224V474.488V477.736Z" fill="#FF0000"/>
<path d="M11.4215 509.264L12.3175 508.368H12.9095V514.48L12.4135 514.976L11.4215 514V513.776V512.512V509.264ZM12.4135 501.024L12.9095 501.52V507.632H12.3175L11.4215 506.736V506.288V503.488V502.224V502.016L12.4135 501.024ZM18.084 508.736L17.348 508L18.084 507.264H19.748H20.164L20.596 508.016L20.164 508.736H18.308H18.084ZM17.108 500.496L17.604 500H24.452L24.948 500.496L23.972 501.488H23.94H21.764H20.292H18.116H18.084L17.108 500.496ZM16.58 514.976L16.084 514.48V508.368H16.676L16.82 508.528L17.572 509.264V512.512V513.776V514L16.58 514.976ZM24.948 515.504L24.452 516H17.604L17.108 515.504L18.084 514.512H18.116H20.292H21.764H23.94H23.972L24.948 515.504ZM24.484 509.264L25.38 508.368H25.972V514.48L25.476 514.976L24.484 514V513.776V512.512V509.264ZM25.476 501.024L25.972 501.52V507.632H25.38L24.484 506.736V506.288V503.488V502.224V502.016L25.476 501.024ZM17.572 506.736L16.676 507.632H16.084V501.52L16.58 501.024L17.572 502V502.224V503.488V506.736ZM23.972 507.264L24.708 508L23.972 508.736H23.748H22.516H21.876L21.444 508.016L21.892 507.264H22.308H23.972Z" fill="#FF0000"/>
<path d="M11.4215 538.264L12.3175 537.368H12.9095V543.48L12.4135 543.976L11.4215 543V542.776V541.512V538.264ZM12.4135 530.024L12.9095 530.52V536.632H12.3175L11.4215 535.736V535.288V532.488V531.224V531.016L12.4135 530.024ZM18.084 537.736L17.348 537L18.084 536.264H19.748H20.164L20.596 537.016L20.164 537.736H18.308H18.084ZM17.108 529.496L17.604 529H24.452L24.948 529.496L23.972 530.488H23.94H21.764H20.292H18.116H18.084L17.108 529.496ZM24.948 544.504L24.452 545H17.604L17.108 544.504L18.084 543.512H18.116H20.292H21.764H23.94H23.972L24.948 544.504ZM24.484 538.264L25.38 537.368H25.972V543.48L25.476 543.976L24.484 543V542.776V541.512V538.264ZM25.476 530.024L25.972 530.52V536.632H25.38L24.484 535.736V535.288V532.488V531.224V531.016L25.476 530.024ZM17.572 535.736L16.676 536.632H16.084V530.52L16.58 530.024L17.572 531V531.224V532.488V535.736ZM23.972 536.264L24.708 537L23.972 537.736H23.748H22.516H21.876L21.444 537.016L21.892 536.264H22.308H23.972Z" fill="#FF0000"/>
<path d="M5.0215 566.736L4.2855 566L5.0215 565.264H6.6855H7.1015L7.5335 566.016L7.1015 566.736H5.2455H5.0215ZM4.0455 558.496L4.5415 558H11.3895L11.8855 558.496L10.9095 559.488H10.8775H8.7015H7.2295H5.0535H5.0215L4.0455 558.496ZM3.5175 572.976L3.0215 572.48V566.368H3.6135L3.7575 566.528L4.5095 567.264V570.512V571.776V572L3.5175 572.976ZM11.8855 573.504L11.3895 574H4.5415L4.0455 573.504L5.0215 572.512H5.0535H7.2295H8.7015H10.8775H10.9095L11.8855 573.504ZM12.4135 559.024L12.9095 559.52V565.632H12.3175L11.4215 564.736V564.288V561.488V560.224V560.016L12.4135 559.024ZM10.9095 565.264L11.6455 566L10.9095 566.736H10.6855H9.4535H8.8135L8.3815 566.016L8.8295 565.264H9.2455H10.9095ZM19.54 567.488V570.048L18.548 571.776H18.308V569.232L19.316 567.488H19.54ZM17.108 558.496L17.604 558H24.452L24.948 558.496L23.972 559.488H23.94H21.764H20.292H18.116H18.084L17.108 558.496ZM16.58 572.976L16.084 572.48V566.368H16.676L16.82 566.528L17.572 567.264V570.512V571.776V572L16.58 572.976ZM24.948 573.504L24.452 574H17.604L17.108 573.504L18.084 572.512H18.116H20.292H21.764H23.94H23.972L24.948 573.504ZM24.484 567.264L25.38 566.368H25.972V572.48L25.476 572.976L24.484 572V571.776V570.512V567.264ZM25.476 559.024L25.972 559.52V565.632H25.38L24.484 564.736V564.288V561.488V560.224V560.016L25.476 559.024ZM23.508 560.224H23.748V562.768L22.74 564.512H22.516V561.952L23.508 560.224ZM17.572 564.736L16.676 565.632H16.084V559.52L16.58 559.024L17.572 560V560.224V561.488V564.736Z" fill="#FF0000"/>
<path d="M5.0215 595.736L4.2855 595L5.0215 594.264H6.6855H7.1015L7.5335 595.016L7.1015 595.736H5.2455H5.0215ZM4.0455 587.496L4.5415 587H11.3895L11.8855 587.496L10.9095 588.488H10.8775H8.7015H7.2295H5.0535H5.0215L4.0455 587.496ZM3.5175 601.976L3.0215 601.48V595.368H3.6135L3.7575 595.528L4.5095 596.264V599.512V600.776V601L3.5175 601.976ZM11.8855 602.504L11.3895 603H4.5415L4.0455 602.504L5.0215 601.512H5.0535H7.2295H8.7015H10.8775H10.9095L11.8855 602.504ZM12.4135 588.024L12.9095 588.52V594.632H12.3175L11.4215 593.736V593.288V590.488V589.224V589.016L12.4135 588.024ZM10.9095 594.264L11.6455 595L10.9095 595.736H10.6855H9.4535H8.8135L8.3815 595.016L8.8295 594.264H9.2455H10.9095ZM24.484 596.264L25.38 595.368H25.972V601.48L25.476 601.976L24.484 601V600.776V599.512V596.264ZM25.476 588.024L25.972 588.52V594.632H25.38L24.484 593.736V593.288V590.488V589.224V589.016L25.476 588.024Z" fill="#FF0000"/>
<path d="M5.0215 624.736L4.2855 624L5.0215 623.264H6.6855H7.1015L7.5335 624.016L7.1015 624.736H5.2455H5.0215ZM4.0455 616.496L4.5415 616H11.3895L11.8855 616.496L10.9095 617.488H10.8775H8.7015H7.2295H5.0535H5.0215L4.0455 616.496ZM3.5175 630.976L3.0215 630.48V624.368H3.6135L3.7575 624.528L4.5095 625.264V628.512V629.776V630L3.5175 630.976ZM11.8855 631.504L11.3895 632H4.5415L4.0455 631.504L5.0215 630.512H5.0535H7.2295H8.7015H10.8775H10.9095L11.8855 631.504ZM12.4135 617.024L12.9095 617.52V623.632H12.3175L11.4215 622.736V622.288V619.488V618.224V618.016L12.4135 617.024ZM10.9095 623.264L11.6455 624L10.9095 624.736H10.6855H9.4535H8.8135L8.3815 624.016L8.8295 623.264H9.2455H10.9095ZM18.084 624.736L17.348 624L18.084 623.264H19.748H20.164L20.596 624.016L20.164 624.736H18.308H18.084ZM17.108 616.496L17.604 616H24.452L24.948 616.496L23.972 617.488H23.94H21.764H20.292H18.116H18.084L17.108 616.496ZM16.58 630.976L16.084 630.48V624.368H16.676L16.82 624.528L17.572 625.264V628.512V629.776V630L16.58 630.976ZM24.948 631.504L24.452 632H17.604L17.108 631.504L18.084 630.512H18.116H20.292H21.764H23.94H23.972L24.948 631.504ZM25.476 617.024L25.972 617.52V623.632H25.38L24.484 622.736V622.288V619.488V618.224V618.016L25.476 617.024ZM23.972 623.264L24.708 624L23.972 624.736H23.748H22.516H21.876L21.444 624.016L21.892 623.264H22.308H23.972Z" fill="#FF0000"/>
<path d="M5.0215 653.736L4.2855 653L5.0215 652.264H6.6855H7.1015L7.5335 653.016L7.1015 653.736H5.2455H5.0215ZM4.0455 645.496L4.5415 645H11.3895L11.8855 645.496L10.9095 646.488H10.8775H8.7015H7.2295H5.0535H5.0215L4.0455 645.496ZM3.5175 659.976L3.0215 659.48V653.368H3.6135L3.7575 653.528L4.5095 654.264V657.512V658.776V659L3.5175 659.976ZM11.8855 660.504L11.3895 661H4.5415L4.0455 660.504L5.0215 659.512H5.0535H7.2295H8.7015H10.8775H10.9095L11.8855 660.504ZM12.4135 646.024L12.9095 646.52V652.632H12.3175L11.4215 651.736V651.288V648.488V647.224V647.016L12.4135 646.024ZM10.9095 652.264L11.6455 653L10.9095 653.736H10.6855H9.4535H8.8135L8.3815 653.016L8.8295 652.264H9.2455H10.9095ZM18.084 653.736L17.348 653L18.084 652.264H19.748H20.164L20.596 653.016L20.164 653.736H18.308H18.084ZM17.108 645.496L17.604 645H24.452L24.948 645.496L23.972 646.488H23.94H21.764H20.292H18.116H18.084L17.108 645.496ZM24.948 660.504L24.452 661H17.604L17.108 660.504L18.084 659.512H18.116H20.292H21.764H23.94H23.972L24.948 660.504ZM24.484 654.264L25.38 653.368H25.972V659.48L25.476 659.976L24.484 659V658.776V657.512V654.264ZM25.476 646.024L25.972 646.52V652.632H25.38L24.484 651.736V651.288V648.488V647.224V647.016L25.476 646.024ZM23.972 652.264L24.708 653L23.972 653.736H23.748H22.516H21.876L21.444 653.016L21.892 652.264H22.308H23.972Z" fill="#FF0000"/>
<path d="M5.0215 682.736L4.2855 682L5.0215 681.264H6.6855H7.1015L7.5335 682.016L7.1015 682.736H5.2455H5.0215ZM4.0455 674.496L4.5415 674H11.3895L11.8855 674.496L10.9095 675.488H10.8775H8.7015H7.2295H5.0535H5.0215L4.0455 674.496ZM3.5175 688.976L3.0215 688.48V682.368H3.6135L3.7575 682.528L4.5095 683.264V686.512V687.776V688L3.5175 688.976ZM11.8855 689.504L11.3895 690H4.5415L4.0455 689.504L5.0215 688.512H5.0535H7.2295H8.7015H10.8775H10.9095L11.8855 689.504ZM12.4135 675.024L12.9095 675.52V681.632H12.3175L11.4215 680.736V680.288V677.488V676.224V676.016L12.4135 675.024ZM10.9095 681.264L11.6455 682L10.9095 682.736H10.6855H9.4535H8.8135L8.3815 682.016L8.8295 681.264H9.2455H10.9095ZM18.084 682.736L17.348 682L18.084 681.264H19.748H20.164L20.596 682.016L20.164 682.736H18.308H18.084ZM24.484 683.264L25.38 682.368H25.972V688.48L25.476 688.976L24.484 688V687.776V686.512V683.264ZM25.476 675.024L25.972 675.52V681.632H25.38L24.484 680.736V680.288V677.488V676.224V676.016L25.476 675.024ZM17.572 680.736L16.676 681.632H16.084V675.52L16.58 675.024L17.572 676V676.224V677.488V680.736ZM23.972 681.264L24.708 682L23.972 682.736H23.748H22.516H21.876L21.444 682.016L21.892 681.264H22.308H23.972Z" fill="#FF0000"/>
<path d="M5.0215 711.736L4.2855 711L5.0215 710.264H6.6855H7.1015L7.5335 711.016L7.1015 711.736H5.2455H5.0215ZM4.0455 703.496L4.5415 703H11.3895L11.8855 703.496L10.9095 704.488H10.8775H8.7015H7.2295H5.0535H5.0215L4.0455 703.496ZM3.5175 717.976L3.0215 717.48V711.368H3.6135L3.7575 711.528L4.5095 712.264V715.512V716.776V717L3.5175 717.976ZM11.8855 718.504L11.3895 719H4.5415L4.0455 718.504L5.0215 717.512H5.0535H7.2295H8.7015H10.8775H10.9095L11.8855 718.504ZM12.4135 704.024L12.9095 704.52V710.632H12.3175L11.4215 709.736V709.288V706.488V705.224V705.016L12.4135 704.024ZM10.9095 710.264L11.6455 711L10.9095 711.736H10.6855H9.4535H8.8135L8.3815 711.016L8.8295 710.264H9.2455H10.9095ZM18.084 711.736L17.348 711L18.084 710.264H19.748H20.164L20.596 711.016L20.164 711.736H18.308H18.084ZM17.108 703.496L17.604 703H24.452L24.948 703.496L23.972 704.488H23.94H21.764H20.292H18.116H18.084L17.108 703.496ZM24.948 718.504L24.452 719H17.604L17.108 718.504L18.084 717.512H18.116H20.292H21.764H23.94H23.972L24.948 718.504ZM24.484 712.264L25.38 711.368H25.972V717.48L25.476 717.976L24.484 717V716.776V715.512V712.264ZM17.572 709.736L16.676 710.632H16.084V704.52L16.58 704.024L17.572 705V705.224V706.488V709.736ZM23.972 710.264L24.708 711L23.972 711.736H23.748H22.516H21.876L21.444 711.016L21.892 710.264H22.308H23.972Z" fill="#FF0000"/>
<path d="M5.0215 740.736L4.2855 740L5.0215 739.264H6.6855H7.1015L7.5335 740.016L7.1015 740.736H5.2455H5.0215ZM4.0455 732.496L4.5415 732H11.3895L11.8855 732.496L10.9095 733.488H10.8775H8.7015H7.2295H5.0535H5.0215L4.0455 732.496ZM3.5175 746.976L3.0215 746.48V740.368H3.6135L3.7575 740.528L4.5095 741.264V744.512V745.776V746L3.5175 746.976ZM11.8855 747.504L11.3895 748H4.5415L4.0455 747.504L5.0215 746.512H5.0535H7.2295H8.7015H10.8775H10.9095L11.8855 747.504ZM12.4135 733.024L12.9095 733.52V739.632H12.3175L11.4215 738.736V738.288V735.488V734.224V734.016L12.4135 733.024ZM10.9095 739.264L11.6455 740L10.9095 740.736H10.6855H9.4535H8.8135L8.3815 740.016L8.8295 739.264H9.2455H10.9095ZM18.084 740.736L17.348 740L18.084 739.264H19.748H20.164L20.596 740.016L20.164 740.736H18.308H18.084ZM17.108 732.496L17.604 732H24.452L24.948 732.496L23.972 733.488H23.94H21.764H20.292H18.116H18.084L17.108 732.496ZM16.58 746.976L16.084 746.48V740.368H16.676L16.82 740.528L17.572 741.264V744.512V745.776V746L16.58 746.976ZM24.948 747.504L24.452 748H17.604L17.108 747.504L18.084 746.512H18.116H20.292H21.764H23.94H23.972L24.948 747.504ZM24.484 741.264L25.38 740.368H25.972V746.48L25.476 746.976L24.484 746V745.776V744.512V741.264ZM17.572 738.736L16.676 739.632H16.084V733.52L16.58 733.024L17.572 734V734.224V735.488V738.736ZM23.972 739.264L24.708 740L23.972 740.736H23.748H22.516H21.876L21.444 740.016L21.892 739.264H22.308H23.972Z" fill="#FF0000"/>
<path d="M5.0215 769.736L4.2855 769L5.0215 768.264H6.6855H7.1015L7.5335 769.016L7.1015 769.736H5.2455H5.0215ZM4.0455 761.496L4.5415 761H11.3895L11.8855 761.496L10.9095 762.488H10.8775H8.7015H7.2295H5.0535H5.0215L4.0455 761.496ZM3.5175 775.976L3.0215 775.48V769.368H3.6135L3.7575 769.528L4.5095 770.264V773.512V774.776V775L3.5175 775.976ZM11.8855 776.504L11.3895 777H4.5415L4.0455 776.504L5.0215 775.512H5.0535H7.2295H8.7015H10.8775H10.9095L11.8855 776.504ZM12.4135 762.024L12.9095 762.52V768.632H12.3175L11.4215 767.736V767.288V764.488V763.224V763.016L12.4135 762.024ZM10.9095 768.264L11.6455 769L10.9095 769.736H10.6855H9.4535H8.8135L8.3815 769.016L8.8295 768.264H9.2455H10.9095ZM17.108 761.496L17.604 761H24.452L24.948 761.496L23.972 762.488H23.94H21.764H20.292H18.116H18.084L17.108 761.496ZM24.484 770.264L25.38 769.368H25.972V775.48L25.476 775.976L24.484 775V774.776V773.512V770.264ZM25.476 762.024L25.972 762.52V768.632H25.38L24.484 767.736V767.288V764.488V763.224V763.016L25.476 762.024ZM17.572 767.736L16.676 768.632H16.084V762.52L16.58 762.024L17.572 763V763.224V764.488V767.736Z" fill="#FF0000"/>
<path d="M5.0215 798.736L4.2855 798L5.0215 797.264H6.6855H7.1015L7.5335 798.016L7.1015 798.736H5.2455H5.0215ZM4.0455 790.496L4.5415 790H11.3895L11.8855 790.496L10.9095 791.488H10.8775H8.7015H7.2295H5.0535H5.0215L4.0455 790.496ZM3.5175 804.976L3.0215 804.48V798.368H3.6135L3.7575 798.528L4.5095 799.264V802.512V803.776V804L3.5175 804.976ZM11.8855 805.504L11.3895 806H4.5415L4.0455 805.504L5.0215 804.512H5.0535H7.2295H8.7015H10.8775H10.9095L11.8855 805.504ZM12.4135 791.024L12.9095 791.52V797.632H12.3175L11.4215 796.736V796.288V793.488V792.224V792.016L12.4135 791.024ZM10.9095 797.264L11.6455 798L10.9095 798.736H10.6855H9.4535H8.8135L8.3815 798.016L8.8295 797.264H9.2455H10.9095ZM18.084 798.736L17.348 798L18.084 797.264H19.748H20.164L20.596 798.016L20.164 798.736H18.308H18.084ZM17.108 790.496L17.604 790H24.452L24.948 790.496L23.972 791.488H23.94H21.764H20.292H18.116H18.084L17.108 790.496ZM16.58 804.976L16.084 804.48V798.368H16.676L16.82 798.528L17.572 799.264V802.512V803.776V804L16.58 804.976ZM24.948 805.504L24.452 806H17.604L17.108 805.504L18.084 804.512H18.116H20.292H21.764H23.94H23.972L24.948 805.504ZM24.484 799.264L25.38 798.368H25.972V804.48L25.476 804.976L24.484 804V803.776V802.512V799.264ZM25.476 791.024L25.972 791.52V797.632H25.38L24.484 796.736V796.288V793.488V792.224V792.016L25.476 791.024ZM17.572 796.736L16.676 797.632H16.084V791.52L16.58 791.024L17.572 792V792.224V793.488V796.736ZM23.972 797.264L24.708 798L23.972 798.736H23.748H22.516H21.876L21.444 798.016L21.892 797.264H22.308H23.972Z" fill="#FF0000"/>
<path d="M5.0215 827.736L4.2855 827L5.0215 826.264H6.6855H7.1015L7.5335 827.016L7.1015 827.736H5.2455H5.0215ZM4.0455 819.496L4.5415 819H11.3895L11.8855 819.496L10.9095 820.488H10.8775H8.7015H7.2295H5.0535H5.0215L4.0455 819.496ZM3.5175 833.976L3.0215 833.48V827.368H3.6135L3.7575 827.528L4.5095 828.264V831.512V832.776V833L3.5175 833.976ZM11.8855 834.504L11.3895 835H4.5415L4.0455 834.504L5.0215 833.512H5.0535H7.2295H8.7015H10.8775H10.9095L11.8855 834.504ZM12.4135 820.024L12.9095 820.52V826.632H12.3175L11.4215 825.736V825.288V822.488V821.224V821.016L12.4135 820.024ZM10.9095 826.264L11.6455 827L10.9095 827.736H10.6855H9.4535H8.8135L8.3815 827.016L8.8295 826.264H9.2455H10.9095ZM18.084 827.736L17.348 827L18.084 826.264H19.748H20.164L20.596 827.016L20.164 827.736H18.308H18.084ZM17.108 819.496L17.604 819H24.452L24.948 819.496L23.972 820.488H23.94H21.764H20.292H18.116H18.084L17.108 819.496ZM24.948 834.504L24.452 835H17.604L17.108 834.504L18.084 833.512H18.116H20.292H21.764H23.94H23.972L24.948 834.504ZM24.484 828.264L25.38 827.368H25.972V833.48L25.476 833.976L24.484 833V832.776V831.512V828.264ZM25.476 820.024L25.972 820.52V826.632H25.38L24.484 825.736V825.288V822.488V821.224V821.016L25.476 820.024ZM17.572 825.736L16.676 826.632H16.084V820.52L16.58 820.024L17.572 821V821.224V822.488V825.736ZM23.972 826.264L24.708 827L23.972 827.736H23.748H22.516H21.876L21.444 827.016L21.892 826.264H22.308H23.972Z" fill="#FF0000"/>
<path d="M5.0215 856.736L4.2855 856L5.0215 855.264H6.6855H7.1015L7.5335 856.016L7.1015 856.736H5.2455H5.0215ZM4.0455 848.496L4.5415 848H11.3895L11.8855 848.496L10.9095 849.488H10.8775H8.7015H7.2295H5.0535H5.0215L4.0455 848.496ZM11.8855 863.504L11.3895 864H4.5415L4.0455 863.504L5.0215 862.512H5.0535H7.2295H8.7015H10.8775H10.9095L11.8855 863.504ZM11.4215 857.264L12.3175 856.368H12.9095V862.48L12.4135 862.976L11.4215 862V861.776V860.512V857.264ZM12.4135 849.024L12.9095 849.52V855.632H12.3175L11.4215 854.736V854.288V851.488V850.224V850.016L12.4135 849.024ZM10.9095 855.264L11.6455 856L10.9095 856.736H10.6855H9.4535H8.8135L8.3815 856.016L8.8295 855.264H9.2455H10.9095ZM19.54 857.488V860.048L18.548 861.776H18.308V859.232L19.316 857.488H19.54ZM17.108 848.496L17.604 848H24.452L24.948 848.496L23.972 849.488H23.94H21.764H20.292H18.116H18.084L17.108 848.496ZM16.58 862.976L16.084 862.48V856.368H16.676L16.82 856.528L17.572 857.264V860.512V861.776V862L16.58 862.976ZM24.948 863.504L24.452 864H17.604L17.108 863.504L18.084 862.512H18.116H20.292H21.764H23.94H23.972L24.948 863.504ZM24.484 857.264L25.38 856.368H25.972V862.48L25.476 862.976L24.484 862V861.776V860.512V857.264ZM25.476 849.024L25.972 849.52V855.632H25.38L24.484 854.736V854.288V851.488V850.224V850.016L25.476 849.024ZM23.508 850.224H23.748V852.768L22.74 854.512H22.516V851.952L23.508 850.224ZM17.572 854.736L16.676 855.632H16.084V849.52L16.58 849.024L17.572 850V850.224V851.488V854.736Z" fill="#FF0000"/>
<path d="M5.0215 885.736L4.2855 885L5.0215 884.264H6.6855H7.1015L7.5335 885.016L7.1015 885.736H5.2455H5.0215ZM4.0455 877.496L4.5415 877H11.3895L11.8855 877.496L10.9095 878.488H10.8775H8.7015H7.2295H5.0535H5.0215L4.0455 877.496ZM11.8855 892.504L11.3895 893H4.5415L4.0455 892.504L5.0215 891.512H5.0535H7.2295H8.7015H10.8775H10.9095L11.8855 892.504ZM11.4215 886.264L12.3175 885.368H12.9095V891.48L12.4135 891.976L11.4215 891V890.776V889.512V886.264ZM12.4135 878.024L12.9095 878.52V884.632H12.3175L11.4215 883.736V883.288V880.488V879.224V879.016L12.4135 878.024ZM10.9095 884.264L11.6455 885L10.9095 885.736H10.6855H9.4535H8.8135L8.3815 885.016L8.8295 884.264H9.2455H10.9095ZM24.484 886.264L25.38 885.368H25.972V891.48L25.476 891.976L24.484 891V890.776V889.512V886.264ZM25.476 878.024L25.972 878.52V884.632H25.38L24.484 883.736V883.288V880.488V879.224V879.016L25.476 878.024Z" fill="#FF0000"/>
<path d="M5.0215 914.736L4.2855 914L5.0215 913.264H6.6855H7.1015L7.5335 914.016L7.1015 914.736H5.2455H5.0215ZM4.0455 906.496L4.5415 906H11.3895L11.8855 906.496L10.9095 907.488H10.8775H8.7015H7.2295H5.0535H5.0215L4.0455 906.496ZM11.8855 921.504L11.3895 922H4.5415L4.0455 921.504L5.0215 920.512H5.0535H7.2295H8.7015H10.8775H10.9095L11.8855 921.504ZM11.4215 915.264L12.3175 914.368H12.9095V920.48L12.4135 920.976L11.4215 920V919.776V918.512V915.264ZM12.4135 907.024L12.9095 907.52V913.632H12.3175L11.4215 912.736V912.288V909.488V908.224V908.016L12.4135 907.024ZM10.9095 913.264L11.6455 914L10.9095 914.736H10.6855H9.4535H8.8135L8.3815 914.016L8.8295 913.264H9.2455H10.9095ZM18.084 914.736L17.348 914L18.084 913.264H19.748H20.164L20.596 914.016L20.164 914.736H18.308H18.084ZM17.108 906.496L17.604 906H24.452L24.948 906.496L23.972 907.488H23.94H21.764H20.292H18.116H18.084L17.108 906.496ZM16.58 920.976L16.084 920.48V914.368H16.676L16.82 914.528L17.572 915.264V918.512V919.776V920L16.58 920.976ZM24.948 921.504L24.452 922H17.604L17.108 921.504L18.084 920.512H18.116H20.292H21.764H23.94H23.972L24.948 921.504ZM25.476 907.024L25.972 907.52V913.632H25.38L24.484 912.736V912.288V909.488V908.224V908.016L25.476 907.024ZM23.972 913.264L24.708 914L23.972 914.736H23.748H22.516H21.876L21.444 914.016L21.892 913.264H22.308H23.972Z" fill="#FF0000"/>
</svg>
