<svg width="64" height="435" viewBox="0 0 64 435" fill="none" xmlns="http://www.w3.org/2000/svg">
<path d="M21.0175 21.976L20.5215 21.48V15.368H21.1135L21.2575 15.528L22.0095 16.264V19.512V20.776V21L21.0175 21.976ZM29.3855 22.504L28.8895 23H22.0415L21.5455 22.504L22.5215 21.512H22.5535H24.7295H26.2015H28.3775H28.4095L29.3855 22.504ZM22.0095 13.736L21.1135 14.632H20.5215V8.52L21.0175 8.024L22.0095 9V9.224V10.488V13.736ZM35.584 15.736L34.848 15L35.584 14.264H37.248H37.664L38.096 15.016L37.664 15.736H35.808H35.584ZM41.984 16.264L42.88 15.368H43.472V21.48L42.976 21.976L41.984 21V20.776V19.512V16.264ZM42.976 8.024L43.472 8.52V14.632H42.88L41.984 13.736V13.288V10.488V9.224V9.016L42.976 8.024ZM35.072 13.736L34.176 14.632H33.584V8.52L34.08 8.024L35.072 9V9.224V10.488V13.736ZM41.472 14.264L42.208 15L41.472 15.736H41.248H40.016H39.376L38.944 15.016L39.392 14.264H39.808H41.472Z" fill="#FF0000"/>
<path d="M21.0175 50.976L20.5215 50.48V44.368H21.1135L21.2575 44.528L22.0095 45.264V48.512V49.776V50L21.0175 50.976ZM29.3855 51.504L28.8895 52H22.0415L21.5455 51.504L22.5215 50.512H22.5535H24.7295H26.2015H28.3775H28.4095L29.3855 51.504ZM22.0095 42.736L21.1135 43.632H20.5215V37.52L21.0175 37.024L22.0095 38V38.224V39.488V42.736ZM35.584 44.736L34.848 44L35.584 43.264H37.248H37.664L38.096 44.016L37.664 44.736H35.808H35.584ZM34.608 36.496L35.104 36H41.952L42.448 36.496L41.472 37.488H41.44H39.264H37.792H35.616H35.584L34.608 36.496ZM42.448 51.504L41.952 52H35.104L34.608 51.504L35.584 50.512H35.616H37.792H39.264H41.44H41.472L42.448 51.504ZM41.984 45.264L42.88 44.368H43.472V50.48L42.976 50.976L41.984 50V49.776V48.512V45.264ZM42.976 37.024L43.472 37.52V43.632H42.88L41.984 42.736V42.288V39.488V38.224V38.016L42.976 37.024ZM41.472 43.264L42.208 44L41.472 44.736H41.248H40.016H39.376L38.944 44.016L39.392 43.264H39.808H41.472Z" fill="#FF0000"/>
<path d="M21.0175 79.976L20.5215 79.48V73.368H21.1135L21.2575 73.528L22.0095 74.264V77.512V78.776V79L21.0175 79.976ZM29.3855 80.504L28.8895 81H22.0415L21.5455 80.504L22.5215 79.512H22.5535H24.7295H26.2015H28.3775H28.4095L29.3855 80.504ZM22.0095 71.736L21.1135 72.632H20.5215V66.52L21.0175 66.024L22.0095 67V67.224V68.488V71.736ZM35.584 73.736L34.848 73L35.584 72.264H37.248H37.664L38.096 73.016L37.664 73.736H35.808H35.584ZM34.608 65.496L35.104 65H41.952L42.448 65.496L41.472 66.488H41.44H39.264H37.792H35.616H35.584L34.608 65.496ZM34.08 79.976L33.584 79.48V73.368H34.176L34.32 73.528L35.072 74.264V77.512V78.776V79L34.08 79.976ZM42.448 80.504L41.952 81H35.104L34.608 80.504L35.584 79.512H35.616H37.792H39.264H41.44H41.472L42.448 80.504ZM42.976 66.024L43.472 66.52V72.632H42.88L41.984 71.736V71.288V68.488V67.224V67.016L42.976 66.024ZM41.472 72.264L42.208 73L41.472 73.736H41.248H40.016H39.376L38.944 73.016L39.392 72.264H39.808H41.472Z" fill="#FF0000"/>
<path d="M21.0175 108.976L20.5215 108.48V102.368H21.1135L21.2575 102.528L22.0095 103.264V106.512V107.776V108L21.0175 108.976ZM29.3855 109.504L28.8895 110H22.0415L21.5455 109.504L22.5215 108.512H22.5535H24.7295H26.2015H28.3775H28.4095L29.3855 109.504ZM22.0095 100.736L21.1135 101.632H20.5215V95.52L21.0175 95.024L22.0095 96V96.224V97.488V100.736ZM41.984 103.264L42.88 102.368H43.472V108.48L42.976 108.976L41.984 108V107.776V106.512V103.264ZM42.976 95.024L43.472 95.52V101.632H42.88L41.984 100.736V100.288V97.488V96.224V96.016L42.976 95.024Z" fill="#FF0000"/>
<path d="M22.5215 131.736L21.7855 131L22.5215 130.264H24.1855H24.6015L25.0335 131.016L24.6015 131.736H22.7455H22.5215ZM21.0175 137.976L20.5215 137.48V131.368H21.1135L21.2575 131.528L22.0095 132.264V135.512V136.776V137L21.0175 137.976ZM28.9215 132.264L29.8175 131.368H30.4095V137.48L29.9135 137.976L28.9215 137V136.776V135.512V132.264ZM29.9135 124.024L30.4095 124.52V130.632H29.8175L28.9215 129.736V129.288V126.488V125.224V125.016L29.9135 124.024ZM22.0095 129.736L21.1135 130.632H20.5215V124.52L21.0175 124.024L22.0095 125V125.224V126.488V129.736ZM28.4095 130.264L29.1455 131L28.4095 131.736H28.1855H26.9535H26.3135L25.8815 131.016L26.3295 130.264H26.7455H28.4095ZM35.584 131.736L34.848 131L35.584 130.264H37.248H37.664L38.096 131.016L37.664 131.736H35.808H35.584ZM34.608 123.496L35.104 123H41.952L42.448 123.496L41.472 124.488H41.44H39.264H37.792H35.616H35.584L34.608 123.496ZM42.448 138.504L41.952 139H35.104L34.608 138.504L35.584 137.512H35.616H37.792H39.264H41.44H41.472L42.448 138.504ZM41.984 132.264L42.88 131.368H43.472V137.48L42.976 137.976L41.984 137V136.776V135.512V132.264ZM42.976 124.024L43.472 124.52V130.632H42.88L41.984 129.736V129.288V126.488V125.224V125.016L42.976 124.024ZM41.472 130.264L42.208 131L41.472 131.736H41.248H40.016H39.376L38.944 131.016L39.392 130.264H39.808H41.472Z" fill="#FF0000"/>
<path d="M22.5215 160.736L21.7855 160L22.5215 159.264H24.1855H24.6015L25.0335 160.016L24.6015 160.736H22.7455H22.5215ZM21.0175 166.976L20.5215 166.48V160.368H21.1135L21.2575 160.528L22.0095 161.264V164.512V165.776V166L21.0175 166.976ZM28.9215 161.264L29.8175 160.368H30.4095V166.48L29.9135 166.976L28.9215 166V165.776V164.512V161.264ZM29.9135 153.024L30.4095 153.52V159.632H29.8175L28.9215 158.736V158.288V155.488V154.224V154.016L29.9135 153.024ZM22.0095 158.736L21.1135 159.632H20.5215V153.52L21.0175 153.024L22.0095 154V154.224V155.488V158.736ZM28.4095 159.264L29.1455 160L28.4095 160.736H28.1855H26.9535H26.3135L25.8815 160.016L26.3295 159.264H26.7455H28.4095ZM35.584 160.736L34.848 160L35.584 159.264H37.248H37.664L38.096 160.016L37.664 160.736H35.808H35.584ZM34.608 152.496L35.104 152H41.952L42.448 152.496L41.472 153.488H41.44H39.264H37.792H35.616H35.584L34.608 152.496ZM34.08 166.976L33.584 166.48V160.368H34.176L34.32 160.528L35.072 161.264V164.512V165.776V166L34.08 166.976ZM42.448 167.504L41.952 168H35.104L34.608 167.504L35.584 166.512H35.616H37.792H39.264H41.44H41.472L42.448 167.504ZM42.976 153.024L43.472 153.52V159.632H42.88L41.984 158.736V158.288V155.488V154.224V154.016L42.976 153.024ZM41.472 159.264L42.208 160L41.472 160.736H41.248H40.016H39.376L38.944 160.016L39.392 159.264H39.808H41.472Z" fill="#FF0000"/>
<path d="M22.5215 189.736L21.7855 189L22.5215 188.264H24.1855H24.6015L25.0335 189.016L24.6015 189.736H22.7455H22.5215ZM21.0175 195.976L20.5215 195.48V189.368H21.1135L21.2575 189.528L22.0095 190.264V193.512V194.776V195L21.0175 195.976ZM28.9215 190.264L29.8175 189.368H30.4095V195.48L29.9135 195.976L28.9215 195V194.776V193.512V190.264ZM29.9135 182.024L30.4095 182.52V188.632H29.8175L28.9215 187.736V187.288V184.488V183.224V183.016L29.9135 182.024ZM22.0095 187.736L21.1135 188.632H20.5215V182.52L21.0175 182.024L22.0095 183V183.224V184.488V187.736ZM28.4095 188.264L29.1455 189L28.4095 189.736H28.1855H26.9535H26.3135L25.8815 189.016L26.3295 188.264H26.7455H28.4095ZM41.984 190.264L42.88 189.368H43.472V195.48L42.976 195.976L41.984 195V194.776V193.512V190.264ZM42.976 182.024L43.472 182.52V188.632H42.88L41.984 187.736V187.288V184.488V183.224V183.016L42.976 182.024Z" fill="#FF0000"/>
<path d="M26.2015 223.488V223.776H24.7295V220.768V220.032L25.4655 218.752L26.2015 220.048V220.768V223.488ZM21.5455 210.496L22.0415 210H28.8895L29.3855 210.496L28.4095 211.488H28.3775H26.2015H24.7295H22.5535H22.5215L21.5455 210.496ZM24.7295 212.224H26.2015V215.232V215.968L25.4655 217.264L24.7295 216V215.232V212.224ZM29.3855 225.504L28.8895 226H22.0415L21.5455 225.504L22.5215 224.512H22.5535H24.7295H26.2015H28.3775H28.4095L29.3855 225.504ZM28.9215 219.264L29.8175 218.368H30.4095V224.48L29.9135 224.976L28.9215 224V223.776V222.512V219.264ZM29.9135 211.024L30.4095 211.52V217.632H29.8175L28.9215 216.736V216.288V213.488V212.224V212.016L29.9135 211.024ZM28.4095 217.264L29.1455 218L28.4095 218.736H28.1855H26.9535H26.3135L25.8815 218.016L26.3295 217.264H26.7455H28.4095ZM35.584 218.736L34.848 218L35.584 217.264H37.248H37.664L38.096 218.016L37.664 218.736H35.808H35.584ZM41.984 219.264L42.88 218.368H43.472V224.48L42.976 224.976L41.984 224V223.776V222.512V219.264ZM42.976 211.024L43.472 211.52V217.632H42.88L41.984 216.736V216.288V213.488V212.224V212.016L42.976 211.024ZM35.072 216.736L34.176 217.632H33.584V211.52L34.08 211.024L35.072 212V212.224V213.488V216.736ZM41.472 217.264L42.208 218L41.472 218.736H41.248H40.016H39.376L38.944 218.016L39.392 217.264H39.808H41.472Z" fill="#FF0000"/>
<path d="M26.2015 252.488V252.776H24.7295V249.768V249.032L25.4655 247.752L26.2015 249.048V249.768V252.488ZM21.5455 239.496L22.0415 239H28.8895L29.3855 239.496L28.4095 240.488H28.3775H26.2015H24.7295H22.5535H22.5215L21.5455 239.496ZM24.7295 241.224H26.2015V244.232V244.968L25.4655 246.264L24.7295 245V244.232V241.224ZM29.3855 254.504L28.8895 255H22.0415L21.5455 254.504L22.5215 253.512H22.5535H24.7295H26.2015H28.3775H28.4095L29.3855 254.504ZM28.9215 248.264L29.8175 247.368H30.4095V253.48L29.9135 253.976L28.9215 253V252.776V251.512V248.264ZM29.9135 240.024L30.4095 240.52V246.632H29.8175L28.9215 245.736V245.288V242.488V241.224V241.016L29.9135 240.024ZM28.4095 246.264L29.1455 247L28.4095 247.736H28.1855H26.9535H26.3135L25.8815 247.016L26.3295 246.264H26.7455H28.4095ZM35.584 247.736L34.848 247L35.584 246.264H37.248H37.664L38.096 247.016L37.664 247.736H35.808H35.584ZM34.608 239.496L35.104 239H41.952L42.448 239.496L41.472 240.488H41.44H39.264H37.792H35.616H35.584L34.608 239.496ZM34.08 253.976L33.584 253.48V247.368H34.176L34.32 247.528L35.072 248.264V251.512V252.776V253L34.08 253.976ZM42.448 254.504L41.952 255H35.104L34.608 254.504L35.584 253.512H35.616H37.792H39.264H41.44H41.472L42.448 254.504ZM42.976 240.024L43.472 240.52V246.632H42.88L41.984 245.736V245.288V242.488V241.224V241.016L42.976 240.024ZM41.472 246.264L42.208 247L41.472 247.736H41.248H40.016H39.376L38.944 247.016L39.392 246.264H39.808H41.472Z" fill="#FF0000"/>
<path d="M23.9775 274.512H23.7535L22.7455 272.768V270.224H22.9855L23.9775 271.952V274.512ZM26.9535 277.488H27.1775L28.1855 279.232V281.776H27.9455L26.9535 280.048V277.488ZM21.0175 282.976L20.5215 282.48V276.368H21.1135L21.2575 276.528L22.0095 277.264V280.512V281.776V282L21.0175 282.976ZM28.9215 277.264L29.8175 276.368H30.4095V282.48L29.9135 282.976L28.9215 282V281.776V280.512V277.264ZM29.9135 269.024L30.4095 269.52V275.632H29.8175L28.9215 274.736V274.288V271.488V270.224V270.016L29.9135 269.024ZM22.0095 274.736L21.1135 275.632H20.5215V269.52L21.0175 269.024L22.0095 270V270.224V271.488V274.736ZM35.584 276.736L34.848 276L35.584 275.264H37.248H37.664L38.096 276.016L37.664 276.736H35.808H35.584ZM34.608 268.496L35.104 268H41.952L42.448 268.496L41.472 269.488H41.44H39.264H37.792H35.616H35.584L34.608 268.496ZM34.08 282.976L33.584 282.48V276.368H34.176L34.32 276.528L35.072 277.264V280.512V281.776V282L34.08 282.976ZM42.448 283.504L41.952 284H35.104L34.608 283.504L35.584 282.512H35.616H37.792H39.264H41.44H41.472L42.448 283.504ZM42.976 269.024L43.472 269.52V275.632H42.88L41.984 274.736V274.288V271.488V270.224V270.016L42.976 269.024ZM41.472 275.264L42.208 276L41.472 276.736H41.248H40.016H39.376L38.944 276.016L39.392 275.264H39.808H41.472Z" fill="#FF0000"/>
<path d="M22.5215 305.736L21.7855 305L22.5215 304.264H24.1855H24.6015L25.0335 305.016L24.6015 305.736H22.7455H22.5215ZM21.5455 297.496L22.0415 297H28.8895L29.3855 297.496L28.4095 298.488H28.3775H26.2015H24.7295H22.5535H22.5215L21.5455 297.496ZM21.0175 311.976L20.5215 311.48V305.368H21.1135L21.2575 305.528L22.0095 306.264V309.512V310.776V311L21.0175 311.976ZM29.9135 298.024L30.4095 298.52V304.632H29.8175L28.9215 303.736V303.288V300.488V299.224V299.016L29.9135 298.024ZM22.0095 303.736L21.1135 304.632H20.5215V298.52L21.0175 298.024L22.0095 299V299.224V300.488V303.736ZM28.4095 304.264L29.1455 305L28.4095 305.736H28.1855H26.9535H26.3135L25.8815 305.016L26.3295 304.264H26.7455H28.4095ZM35.584 305.736L34.848 305L35.584 304.264H37.248H37.664L38.096 305.016L37.664 305.736H35.808H35.584ZM34.608 297.496L35.104 297H41.952L42.448 297.496L41.472 298.488H41.44H39.264H37.792H35.616H35.584L34.608 297.496ZM42.448 312.504L41.952 313H35.104L34.608 312.504L35.584 311.512H35.616H37.792H39.264H41.44H41.472L42.448 312.504ZM41.984 306.264L42.88 305.368H43.472V311.48L42.976 311.976L41.984 311V310.776V309.512V306.264ZM42.976 298.024L43.472 298.52V304.632H42.88L41.984 303.736V303.288V300.488V299.224V299.016L42.976 298.024ZM41.472 304.264L42.208 305L41.472 305.736H41.248H40.016H39.376L38.944 305.016L39.392 304.264H39.808H41.472Z" fill="#FF0000"/>
<path d="M9.459 334.736L8.723 334L9.459 333.264H11.123H11.539L11.971 334.016L11.539 334.736H9.683H9.459ZM7.955 340.976L7.459 340.48V334.368H8.051L8.195 334.528L8.947 335.264V338.512V339.776V340L7.955 340.976ZM15.859 335.264L16.755 334.368H17.347V340.48L16.851 340.976L15.859 340V339.776V338.512V335.264ZM16.851 327.024L17.347 327.52V333.632H16.755L15.859 332.736V332.288V329.488V328.224V328.016L16.851 327.024ZM8.947 332.736L8.051 333.632H7.459V327.52L7.955 327.024L8.947 328V328.224V329.488V332.736ZM15.347 333.264L16.083 334L15.347 334.736H15.123H13.891H13.251L12.819 334.016L13.267 333.264H13.683H15.347ZM22.5215 334.736L21.7855 334L22.5215 333.264H24.1855H24.6015L25.0335 334.016L24.6015 334.736H22.7455H22.5215ZM21.5455 326.496L22.0415 326H28.8895L29.3855 326.496L28.4095 327.488H28.3775H26.2015H24.7295H22.5535H22.5215L21.5455 326.496ZM21.0175 340.976L20.5215 340.48V334.368H21.1135L21.2575 334.528L22.0095 335.264V338.512V339.776V340L21.0175 340.976ZM29.3855 341.504L28.8895 342H22.0415L21.5455 341.504L22.5215 340.512H22.5535H24.7295H26.2015H28.3775H28.4095L29.3855 341.504ZM29.9135 327.024L30.4095 327.52V333.632H29.8175L28.9215 332.736V332.288V329.488V328.224V328.016L29.9135 327.024ZM28.4095 333.264L29.1455 334L28.4095 334.736H28.1855H26.9535H26.3135L25.8815 334.016L26.3295 333.264H26.7455H28.4095ZM34.08 340.976L33.584 340.48V334.368H34.176L34.32 334.528L35.072 335.264V338.512V339.776V340L34.08 340.976ZM42.448 341.504L41.952 342H35.104L34.608 341.504L35.584 340.512H35.616H37.792H39.264H41.44H41.472L42.448 341.504ZM35.072 332.736L34.176 333.632H33.584V327.52L34.08 327.024L35.072 328V328.224V329.488V332.736ZM55.0465 335.264L55.9425 334.368H56.5345V340.48L56.0385 340.976L55.0465 340V339.776V338.512V335.264ZM56.0385 327.024L56.5345 327.52V333.632H55.9425L55.0465 332.736V332.288V329.488V328.224V328.016L56.0385 327.024Z" fill="#FF0000"/>
<path d="M9.459 363.736L8.723 363L9.459 362.264H11.123H11.539L11.971 363.016L11.539 363.736H9.683H9.459ZM7.955 369.976L7.459 369.48V363.368H8.051L8.195 363.528L8.947 364.264V367.512V368.776V369L7.955 369.976ZM15.859 364.264L16.755 363.368H17.347V369.48L16.851 369.976L15.859 369V368.776V367.512V364.264ZM16.851 356.024L17.347 356.52V362.632H16.755L15.859 361.736V361.288V358.488V357.224V357.016L16.851 356.024ZM8.947 361.736L8.051 362.632H7.459V356.52L7.955 356.024L8.947 357V357.224V358.488V361.736ZM15.347 362.264L16.083 363L15.347 363.736H15.123H13.891H13.251L12.819 363.016L13.267 362.264H13.683H15.347ZM22.5215 363.736L21.7855 363L22.5215 362.264H24.1855H24.6015L25.0335 363.016L24.6015 363.736H22.7455H22.5215ZM21.5455 355.496L22.0415 355H28.8895L29.3855 355.496L28.4095 356.488H28.3775H26.2015H24.7295H22.5535H22.5215L21.5455 355.496ZM29.3855 370.504L28.8895 371H22.0415L21.5455 370.504L22.5215 369.512H22.5535H24.7295H26.2015H28.3775H28.4095L29.3855 370.504ZM28.9215 364.264L29.8175 363.368H30.4095V369.48L29.9135 369.976L28.9215 369V368.776V367.512V364.264ZM29.9135 356.024L30.4095 356.52V362.632H29.8175L28.9215 361.736V361.288V358.488V357.224V357.016L29.9135 356.024ZM28.4095 362.264L29.1455 363L28.4095 363.736H28.1855H26.9535H26.3135L25.8815 363.016L26.3295 362.264H26.7455H28.4095ZM34.08 369.976L33.584 369.48V363.368H34.176L34.32 363.528L35.072 364.264V367.512V368.776V369L34.08 369.976ZM42.448 370.504L41.952 371H35.104L34.608 370.504L35.584 369.512H35.616H37.792H39.264H41.44H41.472L42.448 370.504ZM35.072 361.736L34.176 362.632H33.584V356.52L34.08 356.024L35.072 357V357.224V358.488V361.736ZM55.0465 364.264L55.9425 363.368H56.5345V369.48L56.0385 369.976L55.0465 369V368.776V367.512V364.264ZM56.0385 356.024L56.5345 356.52V362.632H55.9425L55.0465 361.736V361.288V358.488V357.224V357.016L56.0385 356.024Z" fill="#FF0000"/>
<path d="M10.915 390.512H10.691L9.683 388.768V386.224H9.923L10.915 387.952V390.512ZM13.891 393.488H14.115L15.123 395.232V397.776H14.883L13.891 396.048V393.488ZM7.955 398.976L7.459 398.48V392.368H8.051L8.195 392.528L8.947 393.264V396.512V397.776V398L7.955 398.976ZM15.859 393.264L16.755 392.368H17.347V398.48L16.851 398.976L15.859 398V397.776V396.512V393.264ZM16.851 385.024L17.347 385.52V391.632H16.755L15.859 390.736V390.288V387.488V386.224V386.016L16.851 385.024ZM8.947 390.736L8.051 391.632H7.459V385.52L7.955 385.024L8.947 386V386.224V387.488V390.736ZM22.5215 392.736L21.7855 392L22.5215 391.264H24.1855H24.6015L25.0335 392.016L24.6015 392.736H22.7455H22.5215ZM21.5455 384.496L22.0415 384H28.8895L29.3855 384.496L28.4095 385.488H28.3775H26.2015H24.7295H22.5535H22.5215L21.5455 384.496ZM21.0175 398.976L20.5215 398.48V392.368H21.1135L21.2575 392.528L22.0095 393.264V396.512V397.776V398L21.0175 398.976ZM29.3855 399.504L28.8895 400H22.0415L21.5455 399.504L22.5215 398.512H22.5535H24.7295H26.2015H28.3775H28.4095L29.3855 399.504ZM29.9135 385.024L30.4095 385.52V391.632H29.8175L28.9215 390.736V390.288V387.488V386.224V386.016L29.9135 385.024ZM28.4095 391.264L29.1455 392L28.4095 392.736H28.1855H26.9535H26.3135L25.8815 392.016L26.3295 391.264H26.7455H28.4095ZM34.08 398.976L33.584 398.48V392.368H34.176L34.32 392.528L35.072 393.264V396.512V397.776V398L34.08 398.976ZM42.448 399.504L41.952 400H35.104L34.608 399.504L35.584 398.512H35.616H37.792H39.264H41.44H41.472L42.448 399.504ZM35.072 390.736L34.176 391.632H33.584V385.52L34.08 385.024L35.072 386V386.224V387.488V390.736ZM55.0465 393.264L55.9425 392.368H56.5345V398.48L56.0385 398.976L55.0465 398V397.776V396.512V393.264ZM56.0385 385.024L56.5345 385.52V391.632H55.9425L55.0465 390.736V390.288V387.488V386.224V386.016L56.0385 385.024Z" fill="#FF0000"/>
<path d="M9.459 421.736L8.723 421L9.459 420.264H11.123H11.539L11.971 421.016L11.539 421.736H9.683H9.459ZM8.483 413.496L8.979 413H15.827L16.323 413.496L15.347 414.488H15.315H13.139H11.667H9.491H9.459L8.483 413.496ZM7.955 427.976L7.459 427.48V421.368H8.051L8.195 421.528L8.947 422.264V425.512V426.776V427L7.955 427.976ZM16.851 414.024L17.347 414.52V420.632H16.755L15.859 419.736V419.288V416.488V415.224V415.016L16.851 414.024ZM8.947 419.736L8.051 420.632H7.459V414.52L7.955 414.024L8.947 415V415.224V416.488V419.736ZM15.347 420.264L16.083 421L15.347 421.736H15.123H13.891H13.251L12.819 421.016L13.267 420.264H13.683H15.347ZM22.5215 421.736L21.7855 421L22.5215 420.264H24.1855H24.6015L25.0335 421.016L24.6015 421.736H22.7455H22.5215ZM21.5455 413.496L22.0415 413H28.8895L29.3855 413.496L28.4095 414.488H28.3775H26.2015H24.7295H22.5535H22.5215L21.5455 413.496ZM29.3855 428.504L28.8895 429H22.0415L21.5455 428.504L22.5215 427.512H22.5535H24.7295H26.2015H28.3775H28.4095L29.3855 428.504ZM28.9215 422.264L29.8175 421.368H30.4095V427.48L29.9135 427.976L28.9215 427V426.776V425.512V422.264ZM29.9135 414.024L30.4095 414.52V420.632H29.8175L28.9215 419.736V419.288V416.488V415.224V415.016L29.9135 414.024ZM28.4095 420.264L29.1455 421L28.4095 421.736H28.1855H26.9535H26.3135L25.8815 421.016L26.3295 420.264H26.7455H28.4095ZM34.08 427.976L33.584 427.48V421.368H34.176L34.32 421.528L35.072 422.264V425.512V426.776V427L34.08 427.976ZM42.448 428.504L41.952 429H35.104L34.608 428.504L35.584 427.512H35.616H37.792H39.264H41.44H41.472L42.448 428.504ZM35.072 419.736L34.176 420.632H33.584V414.52L34.08 414.024L35.072 415V415.224V416.488V419.736ZM55.0465 422.264L55.9425 421.368H56.5345V427.48L56.0385 427.976L55.0465 427V426.776V425.512V422.264ZM56.0385 414.024L56.5345 414.52V420.632H55.9425L55.0465 419.736V419.288V416.488V415.224V415.016L56.0385 414.024Z" fill="#FF0000"/>
</svg>
