<svg width="90" height="116" viewBox="0 0 90 116" fill="none" xmlns="http://www.w3.org/2000/svg">
<path d="M26.139 20.488V20.776H24.667V17.768V17.032L25.403 15.752L26.139 17.048V17.768V20.488ZM21.483 7.496L21.979 7H28.827L29.323 7.496L28.347 8.488H28.315H26.139H24.667H22.491H22.459L21.483 7.496ZM24.667 9.224H26.139V12.232V12.968L25.403 14.264L24.667 13V12.232V9.224ZM29.323 22.504L28.827 23H21.979L21.483 22.504L22.459 21.512H22.491H24.667H26.139H28.315H28.347L29.323 22.504ZM28.859 16.264L29.755 15.368H30.347V21.48L29.851 21.976L28.859 21V20.776V19.512V16.264ZM29.851 8.024L30.347 8.52V14.632H29.755L28.859 13.736V13.288V10.488V9.224V9.016L29.851 8.024ZM28.347 14.264L29.083 15L28.347 15.736H28.123H26.891H26.251L25.819 15.016L26.267 14.264H26.683H28.347ZM34.5455 7.496L35.0415 7H41.8895L42.3855 7.496L41.4095 8.488H41.3775H39.2015H37.7295H35.5535H35.5215L34.5455 7.496ZM34.0175 21.976L33.5215 21.48V15.368H34.1135L34.2575 15.528L35.0095 16.264V19.512V20.776V21L34.0175 21.976ZM42.3855 22.504L41.8895 23H35.0415L34.5455 22.504L35.5215 21.512H35.5535H37.7295H39.2015H41.3775H41.4095L42.3855 22.504ZM41.9215 16.264L42.8175 15.368H43.4095V21.48L42.9135 21.976L41.9215 21V20.776V19.512V16.264ZM42.9135 8.024L43.4095 8.52V14.632H42.8175L41.9215 13.736V13.288V10.488V9.224V9.016L42.9135 8.024ZM35.0095 13.736L34.1135 14.632H33.5215V8.52L34.0175 8.024L35.0095 9V9.224V10.488V13.736ZM52.264 20.488V20.776H50.792V17.768V17.032L51.528 15.752L52.264 17.048V17.768V20.488ZM47.608 7.496L48.104 7H54.952L55.448 7.496L54.472 8.488H54.44H52.264H50.792H48.616H48.584L47.608 7.496ZM50.792 9.224H52.264V12.232V12.968L51.528 14.264L50.792 13V12.232V9.224ZM61.6465 15.736L60.9105 15L61.6465 14.264H63.3105H63.7265L64.1585 15.016L63.7265 15.736H61.8705H61.6465ZM60.1425 21.976L59.6465 21.48V15.368H60.2385L60.3825 15.528L61.1345 16.264V19.512V20.776V21L60.1425 21.976ZM68.0465 16.264L68.9425 15.368H69.5345V21.48L69.0385 21.976L68.0465 21V20.776V19.512V16.264ZM69.0385 8.024L69.5345 8.52V14.632H68.9425L68.0465 13.736V13.288V10.488V9.224V9.016L69.0385 8.024ZM61.1345 13.736L60.2385 14.632H59.6465V8.52L60.1425 8.024L61.1345 9V9.224V10.488V13.736ZM67.5345 14.264L68.2705 15L67.5345 15.736H67.3105H66.0785H65.4385L65.0065 15.016L65.4545 14.264H65.8705H67.5345Z" fill="#FF0000"/>
<path d="M9.3965 44.736L8.6605 44L9.3965 43.264H11.0605H11.4765L11.9085 44.016L11.4765 44.736H9.6205H9.3965ZM8.4205 36.496L8.9165 36H15.7645L16.2605 36.496L15.2845 37.488H15.2525H13.0765H11.6045H9.4285H9.3965L8.4205 36.496ZM7.8925 50.976L7.3965 50.48V44.368H7.9885L8.1325 44.528L8.8845 45.264V48.512V49.776V50L7.8925 50.976ZM8.8845 42.736L7.9885 43.632H7.3965V37.52L7.8925 37.024L8.8845 38V38.224V39.488V42.736ZM15.2845 43.264L16.0205 44L15.2845 44.736H15.0605H13.8285H13.1885L12.7565 44.016L13.2045 43.264H13.6205H15.2845ZM26.139 49.488V49.776H24.667V46.768V46.032L25.403 44.752L26.139 46.048V46.768V49.488ZM21.483 36.496L21.979 36H28.827L29.323 36.496L28.347 37.488H28.315H26.139H24.667H22.491H22.459L21.483 36.496ZM24.667 38.224H26.139V41.232V41.968L25.403 43.264L24.667 42V41.232V38.224ZM29.323 51.504L28.827 52H21.979L21.483 51.504L22.459 50.512H22.491H24.667H26.139H28.315H28.347L29.323 51.504ZM34.0175 50.976L33.5215 50.48V44.368H34.1135L34.2575 44.528L35.0095 45.264V48.512V49.776V50L34.0175 50.976ZM42.3855 51.504L41.8895 52H35.0415L34.5455 51.504L35.5215 50.512H35.5535H37.7295H39.2015H41.3775H41.4095L42.3855 51.504ZM35.0095 42.736L34.1135 43.632H33.5215V37.52L34.0175 37.024L35.0095 38V38.224V39.488V42.736ZM52.264 49.488V49.776H50.792V46.768V46.032L51.528 44.752L52.264 46.048V46.768V49.488ZM47.608 36.496L48.104 36H54.952L55.448 36.496L54.472 37.488H54.44H52.264H50.792H48.616H48.584L47.608 36.496ZM50.792 38.224H52.264V41.232V41.968L51.528 43.264L50.792 42V41.232V38.224ZM61.6465 44.736L60.9105 44L61.6465 43.264H63.3105H63.7265L64.1585 44.016L63.7265 44.736H61.8705H61.6465ZM60.6705 36.496L61.1665 36H68.0145L68.5105 36.496L67.5345 37.488H67.5025H65.3265H63.8545H61.6785H61.6465L60.6705 36.496ZM60.1425 50.976L59.6465 50.48V44.368H60.2385L60.3825 44.528L61.1345 45.264V48.512V49.776V50L60.1425 50.976ZM68.5105 51.504L68.0145 52H61.1665L60.6705 51.504L61.6465 50.512H61.6785H63.8545H65.3265H67.5025H67.5345L68.5105 51.504ZM61.1345 42.736L60.2385 43.632H59.6465V37.52L60.1425 37.024L61.1345 38V38.224V39.488V42.736ZM67.5345 43.264L68.2705 44L67.5345 44.736H67.3105H66.0785H65.4385L65.0065 44.016L65.4545 43.264H65.8705H67.5345ZM74.709 44.736L73.973 44L74.709 43.264H76.373H76.789L77.221 44.016L76.789 44.736H74.933H74.709ZM73.733 36.496L74.229 36H81.077L81.573 36.496L80.597 37.488H80.565H78.389H76.917H74.741H74.709L73.733 36.496ZM79.141 45.488H79.365L80.373 47.232V49.776H80.133L79.141 48.048V45.488ZM73.205 50.976L72.709 50.48V44.368H73.301L73.445 44.528L74.197 45.264V48.512V49.776V50L73.205 50.976ZM82.101 37.024L82.597 37.52V43.632H82.005L81.109 42.736V42.288V39.488V38.224V38.016L82.101 37.024ZM74.197 42.736L73.301 43.632H72.709V37.52L73.205 37.024L74.197 38V38.224V39.488V42.736ZM80.597 43.264L81.333 44L80.597 44.736H80.373H79.141H78.501L78.069 44.016L78.517 43.264H78.933H80.597Z" fill="#FF0000"/>
<path d="M35.5215 73.736L34.7855 73L35.5215 72.264H37.1855H37.6015L38.0335 73.016L37.6015 73.736H35.7455H35.5215ZM34.5455 65.496L35.0415 65H41.8895L42.3855 65.496L41.4095 66.488H41.3775H39.2015H37.7295H35.5535H35.5215L34.5455 65.496ZM34.0175 79.976L33.5215 79.48V73.368H34.1135L34.2575 73.528L35.0095 74.264V77.512V78.776V79L34.0175 79.976ZM41.9215 74.264L42.8175 73.368H43.4095V79.48L42.9135 79.976L41.9215 79V78.776V77.512V74.264ZM42.9135 66.024L43.4095 66.52V72.632H42.8175L41.9215 71.736V71.288V68.488V67.224V67.016L42.9135 66.024ZM35.0095 71.736L34.1135 72.632H33.5215V66.52L34.0175 66.024L35.0095 67V67.224V68.488V71.736ZM41.4095 72.264L42.1455 73L41.4095 73.736H41.1855H39.9535H39.3135L38.8815 73.016L39.3295 72.264H39.7455H41.4095ZM52.264 78.488V78.776H50.792V75.768V75.032L51.528 73.752L52.264 75.048V75.768V78.488ZM50.04 71.512H49.816L48.808 69.768V67.224H49.048L50.04 68.952V71.512ZM47.08 79.976L46.584 79.48V73.368H47.176L47.32 73.528L48.072 74.264V77.512V78.776V79L47.08 79.976ZM54.984 74.264L55.88 73.368H56.472V79.48L55.976 79.976L54.984 79V78.776V77.512V74.264ZM55.976 66.024L56.472 66.52V72.632H55.88L54.984 71.736V71.288V68.488V67.224V67.016L55.976 66.024ZM54.008 67.224H54.248V69.768L53.24 71.512H53.016V68.952L54.008 67.224ZM48.072 71.736L47.176 72.632H46.584V66.52L47.08 66.024L48.072 67V67.224V68.488V71.736ZM61.6465 73.736L60.9105 73L61.6465 72.264H63.3105H63.7265L64.1585 73.016L63.7265 73.736H61.8705H61.6465ZM60.6705 65.496L61.1665 65H68.0145L68.5105 65.496L67.5345 66.488H67.5025H65.3265H63.8545H61.6785H61.6465L60.6705 65.496ZM60.1425 79.976L59.6465 79.48V73.368H60.2385L60.3825 73.528L61.1345 74.264V77.512V78.776V79L60.1425 79.976ZM69.0385 66.024L69.5345 66.52V72.632H68.9425L68.0465 71.736V71.288V68.488V67.224V67.016L69.0385 66.024ZM61.1345 71.736L60.2385 72.632H59.6465V66.52L60.1425 66.024L61.1345 67V67.224V68.488V71.736ZM67.5345 72.264L68.2705 73L67.5345 73.736H67.3105H66.0785H65.4385L65.0065 73.016L65.4545 72.264H65.8705H67.5345Z" fill="#FF0000"/>
<path d="M9.3965 102.736L8.6605 102L9.3965 101.264H11.0605H11.4765L11.9085 102.016L11.4765 102.736H9.6205H9.3965ZM8.4205 94.496L8.9165 94H15.7645L16.2605 94.496L15.2845 95.488H15.2525H13.0765H11.6045H9.4285H9.3965L8.4205 94.496ZM13.8285 103.488H14.0525L15.0605 105.232V107.776H14.8205L13.8285 106.048V103.488ZM7.8925 108.976L7.3965 108.48V102.368H7.9885L8.1325 102.528L8.8845 103.264V106.512V107.776V108L7.8925 108.976ZM16.7885 95.024L17.2845 95.52V101.632H16.6925L15.7965 100.736V100.288V97.488V96.224V96.016L16.7885 95.024ZM8.8845 100.736L7.9885 101.632H7.3965V95.52L7.8925 95.024L8.8845 96V96.224V97.488V100.736ZM15.2845 101.264L16.0205 102L15.2845 102.736H15.0605H13.8285H13.1885L12.7565 102.016L13.2045 101.264H13.6205H15.2845ZM22.459 102.736L21.723 102L22.459 101.264H24.123H24.539L24.971 102.016L24.539 102.736H22.683H22.459ZM21.483 94.496L21.979 94H28.827L29.323 94.496L28.347 95.488H28.315H26.139H24.667H22.491H22.459L21.483 94.496ZM20.955 108.976L20.459 108.48V102.368H21.051L21.195 102.528L21.947 103.264V106.512V107.776V108L20.955 108.976ZM29.323 109.504L28.827 110H21.979L21.483 109.504L22.459 108.512H22.491H24.667H26.139H28.315H28.347L29.323 109.504ZM21.947 100.736L21.051 101.632H20.459V95.52L20.955 95.024L21.947 96V96.224V97.488V100.736ZM28.347 101.264L29.083 102L28.347 102.736H28.123H26.891H26.251L25.819 102.016L26.267 101.264H26.683H28.347ZM39.2015 107.488V107.776H37.7295V104.768V104.032L38.4655 102.752L39.2015 104.048V104.768V107.488ZM34.5455 94.496L35.0415 94H41.8895L42.3855 94.496L41.4095 95.488H41.3775H39.2015H37.7295H35.5535H35.5215L34.5455 94.496ZM37.7295 96.224H39.2015V99.232V99.968L38.4655 101.264L37.7295 100V99.232V96.224ZM48.584 102.736L47.848 102L48.584 101.264H50.248H50.664L51.096 102.016L50.664 102.736H48.808H48.584ZM47.608 94.496L48.104 94H54.952L55.448 94.496L54.472 95.488H54.44H52.264H50.792H48.616H48.584L47.608 94.496ZM53.016 103.488H53.24L54.248 105.232V107.776H54.008L53.016 106.048V103.488ZM47.08 108.976L46.584 108.48V102.368H47.176L47.32 102.528L48.072 103.264V106.512V107.776V108L47.08 108.976ZM55.976 95.024L56.472 95.52V101.632H55.88L54.984 100.736V100.288V97.488V96.224V96.016L55.976 95.024ZM48.072 100.736L47.176 101.632H46.584V95.52L47.08 95.024L48.072 96V96.224V97.488V100.736ZM54.472 101.264L55.208 102L54.472 102.736H54.248H53.016H52.376L51.944 102.016L52.392 101.264H52.808H54.472ZM65.3265 107.488V107.776H63.8545V104.768V104.032L64.5905 102.752L65.3265 104.048V104.768V107.488ZM60.6705 94.496L61.1665 94H68.0145L68.5105 94.496L67.5345 95.488H67.5025H65.3265H63.8545H61.6785H61.6465L60.6705 94.496ZM63.8545 96.224H65.3265V99.232V99.968L64.5905 101.264L63.8545 100V99.232V96.224ZM68.5105 109.504L68.0145 110H61.1665L60.6705 109.504L61.6465 108.512H61.6785H63.8545H65.3265H67.5025H67.5345L68.5105 109.504ZM73.733 94.496L74.229 94H81.077L81.573 94.496L80.597 95.488H80.565H78.389H76.917H74.741H74.709L73.733 94.496ZM73.205 108.976L72.709 108.48V102.368H73.301L73.445 102.528L74.197 103.264V106.512V107.776V108L73.205 108.976ZM81.573 109.504L81.077 110H74.229L73.733 109.504L74.709 108.512H74.741H76.917H78.389H80.565H80.597L81.573 109.504ZM81.109 103.264L82.005 102.368H82.597V108.48L82.101 108.976L81.109 108V107.776V106.512V103.264ZM74.197 100.736L73.301 101.632H72.709V95.52L73.205 95.024L74.197 96V96.224V97.488V100.736ZM80.597 101.264L81.333 102L80.597 102.736H80.373H79.141H78.501L78.069 102.016L78.517 101.264H78.933H80.597Z" fill="#FF0000"/>
</svg>
