<svg width="29" height="1421" viewBox="0 0 29 1421" fill="none" xmlns="http://www.w3.org/2000/svg">
<path d="M19.54 16.488V19.048L18.548 20.776H18.308V18.232L19.316 16.488H19.54ZM17.108 7.496L17.604 7H24.452L24.948 7.496L23.972 8.488H23.94H21.764H20.292H18.116H18.084L17.108 7.496ZM16.58 21.976L16.084 21.48V15.368H16.676L16.82 15.528L17.572 16.264V19.512V20.776V21L16.58 21.976ZM24.948 22.504L24.452 23H17.604L17.108 22.504L18.084 21.512H18.116H20.292H21.764H23.94H23.972L24.948 22.504ZM24.484 16.264L25.38 15.368H25.972V21.48L25.476 21.976L24.484 21V20.776V19.512V16.264ZM25.476 8.024L25.972 8.52V14.632H25.38L24.484 13.736V13.288V10.488V9.224V9.016L25.476 8.024ZM23.508 9.224H23.748V11.768L22.74 13.512H22.516V10.952L23.508 9.224ZM17.572 13.736L16.676 14.632H16.084V8.52L16.58 8.024L17.572 9V9.224V10.488V13.736Z" fill="#FF0000"/>
<path d="M24.484 45.264L25.38 44.368H25.972V50.48L25.476 50.976L24.484 50V49.776V48.512V45.264ZM25.476 37.024L25.972 37.52V43.632H25.38L24.484 42.736V42.288V39.488V38.224V38.016L25.476 37.024Z" fill="#FF0000"/>
<path d="M18.084 73.736L17.348 73L18.084 72.264H19.748H20.164L20.596 73.016L20.164 73.736H18.308H18.084ZM17.108 65.496L17.604 65H24.452L24.948 65.496L23.972 66.488H23.94H21.764H20.292H18.116H18.084L17.108 65.496ZM16.58 79.976L16.084 79.48V73.368H16.676L16.82 73.528L17.572 74.264V77.512V78.776V79L16.58 79.976ZM24.948 80.504L24.452 81H17.604L17.108 80.504L18.084 79.512H18.116H20.292H21.764H23.94H23.972L24.948 80.504ZM25.476 66.024L25.972 66.52V72.632H25.38L24.484 71.736V71.288V68.488V67.224V67.016L25.476 66.024ZM23.972 72.264L24.708 73L23.972 73.736H23.748H22.516H21.876L21.444 73.016L21.892 72.264H22.308H23.972Z" fill="#FF0000"/>
<path d="M18.084 102.736L17.348 102L18.084 101.264H19.748H20.164L20.596 102.016L20.164 102.736H18.308H18.084ZM17.108 94.496L17.604 94H24.452L24.948 94.496L23.972 95.488H23.94H21.764H20.292H18.116H18.084L17.108 94.496ZM24.948 109.504L24.452 110H17.604L17.108 109.504L18.084 108.512H18.116H20.292H21.764H23.94H23.972L24.948 109.504ZM24.484 103.264L25.38 102.368H25.972V108.48L25.476 108.976L24.484 108V107.776V106.512V103.264ZM25.476 95.024L25.972 95.52V101.632H25.38L24.484 100.736V100.288V97.488V96.224V96.016L25.476 95.024ZM23.972 101.264L24.708 102L23.972 102.736H23.748H22.516H21.876L21.444 102.016L21.892 101.264H22.308H23.972Z" fill="#FF0000"/>
<path d="M18.084 131.736L17.348 131L18.084 130.264H19.748H20.164L20.596 131.016L20.164 131.736H18.308H18.084ZM24.484 132.264L25.38 131.368H25.972V137.48L25.476 137.976L24.484 137V136.776V135.512V132.264ZM25.476 124.024L25.972 124.52V130.632H25.38L24.484 129.736V129.288V126.488V125.224V125.016L25.476 124.024ZM17.572 129.736L16.676 130.632H16.084V124.52L16.58 124.024L17.572 125V125.224V126.488V129.736ZM23.972 130.264L24.708 131L23.972 131.736H23.748H22.516H21.876L21.444 131.016L21.892 130.264H22.308H23.972Z" fill="#FF0000"/>
<path d="M18.084 160.736L17.348 160L18.084 159.264H19.748H20.164L20.596 160.016L20.164 160.736H18.308H18.084ZM17.108 152.496L17.604 152H24.452L24.948 152.496L23.972 153.488H23.94H21.764H20.292H18.116H18.084L17.108 152.496ZM24.948 167.504L24.452 168H17.604L17.108 167.504L18.084 166.512H18.116H20.292H21.764H23.94H23.972L24.948 167.504ZM24.484 161.264L25.38 160.368H25.972V166.48L25.476 166.976L24.484 166V165.776V164.512V161.264ZM17.572 158.736L16.676 159.632H16.084V153.52L16.58 153.024L17.572 154V154.224V155.488V158.736ZM23.972 159.264L24.708 160L23.972 160.736H23.748H22.516H21.876L21.444 160.016L21.892 159.264H22.308H23.972Z" fill="#FF0000"/>
<path d="M18.084 189.736L17.348 189L18.084 188.264H19.748H20.164L20.596 189.016L20.164 189.736H18.308H18.084ZM17.108 181.496L17.604 181H24.452L24.948 181.496L23.972 182.488H23.94H21.764H20.292H18.116H18.084L17.108 181.496ZM16.58 195.976L16.084 195.48V189.368H16.676L16.82 189.528L17.572 190.264V193.512V194.776V195L16.58 195.976ZM24.948 196.504L24.452 197H17.604L17.108 196.504L18.084 195.512H18.116H20.292H21.764H23.94H23.972L24.948 196.504ZM24.484 190.264L25.38 189.368H25.972V195.48L25.476 195.976L24.484 195V194.776V193.512V190.264ZM17.572 187.736L16.676 188.632H16.084V182.52L16.58 182.024L17.572 183V183.224V184.488V187.736ZM23.972 188.264L24.708 189L23.972 189.736H23.748H22.516H21.876L21.444 189.016L21.892 188.264H22.308H23.972Z" fill="#FF0000"/>
<path d="M17.108 210.496L17.604 210H24.452L24.948 210.496L23.972 211.488H23.94H21.764H20.292H18.116H18.084L17.108 210.496ZM24.484 219.264L25.38 218.368H25.972V224.48L25.476 224.976L24.484 224V223.776V222.512V219.264ZM25.476 211.024L25.972 211.52V217.632H25.38L24.484 216.736V216.288V213.488V212.224V212.016L25.476 211.024ZM17.572 216.736L16.676 217.632H16.084V211.52L16.58 211.024L17.572 212V212.224V213.488V216.736Z" fill="#FF0000"/>
<path d="M18.084 247.736L17.348 247L18.084 246.264H19.748H20.164L20.596 247.016L20.164 247.736H18.308H18.084ZM17.108 239.496L17.604 239H24.452L24.948 239.496L23.972 240.488H23.94H21.764H20.292H18.116H18.084L17.108 239.496ZM16.58 253.976L16.084 253.48V247.368H16.676L16.82 247.528L17.572 248.264V251.512V252.776V253L16.58 253.976ZM24.948 254.504L24.452 255H17.604L17.108 254.504L18.084 253.512H18.116H20.292H21.764H23.94H23.972L24.948 254.504ZM24.484 248.264L25.38 247.368H25.972V253.48L25.476 253.976L24.484 253V252.776V251.512V248.264ZM25.476 240.024L25.972 240.52V246.632H25.38L24.484 245.736V245.288V242.488V241.224V241.016L25.476 240.024ZM17.572 245.736L16.676 246.632H16.084V240.52L16.58 240.024L17.572 241V241.224V242.488V245.736ZM23.972 246.264L24.708 247L23.972 247.736H23.748H22.516H21.876L21.444 247.016L21.892 246.264H22.308H23.972Z" fill="#FF0000"/>
<path d="M18.084 276.736L17.348 276L18.084 275.264H19.748H20.164L20.596 276.016L20.164 276.736H18.308H18.084ZM17.108 268.496L17.604 268H24.452L24.948 268.496L23.972 269.488H23.94H21.764H20.292H18.116H18.084L17.108 268.496ZM24.948 283.504L24.452 284H17.604L17.108 283.504L18.084 282.512H18.116H20.292H21.764H23.94H23.972L24.948 283.504ZM24.484 277.264L25.38 276.368H25.972V282.48L25.476 282.976L24.484 282V281.776V280.512V277.264ZM25.476 269.024L25.972 269.52V275.632H25.38L24.484 274.736V274.288V271.488V270.224V270.016L25.476 269.024ZM17.572 274.736L16.676 275.632H16.084V269.52L16.58 269.024L17.572 270V270.224V271.488V274.736ZM23.972 275.264L24.708 276L23.972 276.736H23.748H22.516H21.876L21.444 276.016L21.892 275.264H22.308H23.972Z" fill="#FF0000"/>
<path d="M11.4215 306.264L12.3175 305.368H12.9095V311.48L12.4135 311.976L11.4215 311V310.776V309.512V306.264ZM12.4135 298.024L12.9095 298.52V304.632H12.3175L11.4215 303.736V303.288V300.488V299.224V299.016L12.4135 298.024ZM19.54 306.488V309.048L18.548 310.776H18.308V308.232L19.316 306.488H19.54ZM17.108 297.496L17.604 297H24.452L24.948 297.496L23.972 298.488H23.94H21.764H20.292H18.116H18.084L17.108 297.496ZM16.58 311.976L16.084 311.48V305.368H16.676L16.82 305.528L17.572 306.264V309.512V310.776V311L16.58 311.976ZM24.948 312.504L24.452 313H17.604L17.108 312.504L18.084 311.512H18.116H20.292H21.764H23.94H23.972L24.948 312.504ZM24.484 306.264L25.38 305.368H25.972V311.48L25.476 311.976L24.484 311V310.776V309.512V306.264ZM25.476 298.024L25.972 298.52V304.632H25.38L24.484 303.736V303.288V300.488V299.224V299.016L25.476 298.024ZM23.508 299.224H23.748V301.768L22.74 303.512H22.516V300.952L23.508 299.224ZM17.572 303.736L16.676 304.632H16.084V298.52L16.58 298.024L17.572 299V299.224V300.488V303.736Z" fill="#FF0000"/>
<path d="M11.4215 335.264L12.3175 334.368H12.9095V340.48L12.4135 340.976L11.4215 340V339.776V338.512V335.264ZM12.4135 327.024L12.9095 327.52V333.632H12.3175L11.4215 332.736V332.288V329.488V328.224V328.016L12.4135 327.024ZM24.484 335.264L25.38 334.368H25.972V340.48L25.476 340.976L24.484 340V339.776V338.512V335.264ZM25.476 327.024L25.972 327.52V333.632H25.38L24.484 332.736V332.288V329.488V328.224V328.016L25.476 327.024Z" fill="#FF0000"/>
<path d="M11.4215 364.264L12.3175 363.368H12.9095V369.48L12.4135 369.976L11.4215 369V368.776V367.512V364.264ZM12.4135 356.024L12.9095 356.52V362.632H12.3175L11.4215 361.736V361.288V358.488V357.224V357.016L12.4135 356.024ZM18.084 363.736L17.348 363L18.084 362.264H19.748H20.164L20.596 363.016L20.164 363.736H18.308H18.084ZM17.108 355.496L17.604 355H24.452L24.948 355.496L23.972 356.488H23.94H21.764H20.292H18.116H18.084L17.108 355.496ZM16.58 369.976L16.084 369.48V363.368H16.676L16.82 363.528L17.572 364.264V367.512V368.776V369L16.58 369.976ZM24.948 370.504L24.452 371H17.604L17.108 370.504L18.084 369.512H18.116H20.292H21.764H23.94H23.972L24.948 370.504ZM25.476 356.024L25.972 356.52V362.632H25.38L24.484 361.736V361.288V358.488V357.224V357.016L25.476 356.024ZM23.972 362.264L24.708 363L23.972 363.736H23.748H22.516H21.876L21.444 363.016L21.892 362.264H22.308H23.972Z" fill="#FF0000"/>
<path d="M11.4215 393.264L12.3175 392.368H12.9095V398.48L12.4135 398.976L11.4215 398V397.776V396.512V393.264ZM12.4135 385.024L12.9095 385.52V391.632H12.3175L11.4215 390.736V390.288V387.488V386.224V386.016L12.4135 385.024ZM18.084 392.736L17.348 392L18.084 391.264H19.748H20.164L20.596 392.016L20.164 392.736H18.308H18.084ZM17.108 384.496L17.604 384H24.452L24.948 384.496L23.972 385.488H23.94H21.764H20.292H18.116H18.084L17.108 384.496ZM24.948 399.504L24.452 400H17.604L17.108 399.504L18.084 398.512H18.116H20.292H21.764H23.94H23.972L24.948 399.504ZM24.484 393.264L25.38 392.368H25.972V398.48L25.476 398.976L24.484 398V397.776V396.512V393.264ZM25.476 385.024L25.972 385.52V391.632H25.38L24.484 390.736V390.288V387.488V386.224V386.016L25.476 385.024ZM23.972 391.264L24.708 392L23.972 392.736H23.748H22.516H21.876L21.444 392.016L21.892 391.264H22.308H23.972Z" fill="#FF0000"/>
<path d="M11.4215 422.264L12.3175 421.368H12.9095V427.48L12.4135 427.976L11.4215 427V426.776V425.512V422.264ZM12.4135 414.024L12.9095 414.52V420.632H12.3175L11.4215 419.736V419.288V416.488V415.224V415.016L12.4135 414.024ZM18.084 421.736L17.348 421L18.084 420.264H19.748H20.164L20.596 421.016L20.164 421.736H18.308H18.084ZM24.484 422.264L25.38 421.368H25.972V427.48L25.476 427.976L24.484 427V426.776V425.512V422.264ZM25.476 414.024L25.972 414.52V420.632H25.38L24.484 419.736V419.288V416.488V415.224V415.016L25.476 414.024ZM17.572 419.736L16.676 420.632H16.084V414.52L16.58 414.024L17.572 415V415.224V416.488V419.736ZM23.972 420.264L24.708 421L23.972 421.736H23.748H22.516H21.876L21.444 421.016L21.892 420.264H22.308H23.972Z" fill="#FF0000"/>
<path d="M11.4215 451.264L12.3175 450.368H12.9095V456.48L12.4135 456.976L11.4215 456V455.776V454.512V451.264ZM12.4135 443.024L12.9095 443.52V449.632H12.3175L11.4215 448.736V448.288V445.488V444.224V444.016L12.4135 443.024ZM18.084 450.736L17.348 450L18.084 449.264H19.748H20.164L20.596 450.016L20.164 450.736H18.308H18.084ZM17.108 442.496L17.604 442H24.452L24.948 442.496L23.972 443.488H23.94H21.764H20.292H18.116H18.084L17.108 442.496ZM24.948 457.504L24.452 458H17.604L17.108 457.504L18.084 456.512H18.116H20.292H21.764H23.94H23.972L24.948 457.504ZM24.484 451.264L25.38 450.368H25.972V456.48L25.476 456.976L24.484 456V455.776V454.512V451.264ZM17.572 448.736L16.676 449.632H16.084V443.52L16.58 443.024L17.572 444V444.224V445.488V448.736ZM23.972 449.264L24.708 450L23.972 450.736H23.748H22.516H21.876L21.444 450.016L21.892 449.264H22.308H23.972Z" fill="#FF0000"/>
<path d="M11.4215 480.264L12.3175 479.368H12.9095V485.48L12.4135 485.976L11.4215 485V484.776V483.512V480.264ZM12.4135 472.024L12.9095 472.52V478.632H12.3175L11.4215 477.736V477.288V474.488V473.224V473.016L12.4135 472.024ZM18.084 479.736L17.348 479L18.084 478.264H19.748H20.164L20.596 479.016L20.164 479.736H18.308H18.084ZM17.108 471.496L17.604 471H24.452L24.948 471.496L23.972 472.488H23.94H21.764H20.292H18.116H18.084L17.108 471.496ZM16.58 485.976L16.084 485.48V479.368H16.676L16.82 479.528L17.572 480.264V483.512V484.776V485L16.58 485.976ZM24.948 486.504L24.452 487H17.604L17.108 486.504L18.084 485.512H18.116H20.292H21.764H23.94H23.972L24.948 486.504ZM24.484 480.264L25.38 479.368H25.972V485.48L25.476 485.976L24.484 485V484.776V483.512V480.264ZM17.572 477.736L16.676 478.632H16.084V472.52L16.58 472.024L17.572 473V473.224V474.488V477.736ZM23.972 478.264L24.708 479L23.972 479.736H23.748H22.516H21.876L21.444 479.016L21.892 478.264H22.308H23.972Z" fill="#FF0000"/>
<path d="M11.4215 509.264L12.3175 508.368H12.9095V514.48L12.4135 514.976L11.4215 514V513.776V512.512V509.264ZM12.4135 501.024L12.9095 501.52V507.632H12.3175L11.4215 506.736V506.288V503.488V502.224V502.016L12.4135 501.024ZM17.108 500.496L17.604 500H24.452L24.948 500.496L23.972 501.488H23.94H21.764H20.292H18.116H18.084L17.108 500.496ZM24.484 509.264L25.38 508.368H25.972V514.48L25.476 514.976L24.484 514V513.776V512.512V509.264ZM25.476 501.024L25.972 501.52V507.632H25.38L24.484 506.736V506.288V503.488V502.224V502.016L25.476 501.024ZM17.572 506.736L16.676 507.632H16.084V501.52L16.58 501.024L17.572 502V502.224V503.488V506.736Z" fill="#FF0000"/>
<path d="M11.4215 538.264L12.3175 537.368H12.9095V543.48L12.4135 543.976L11.4215 543V542.776V541.512V538.264ZM12.4135 530.024L12.9095 530.52V536.632H12.3175L11.4215 535.736V535.288V532.488V531.224V531.016L12.4135 530.024ZM18.084 537.736L17.348 537L18.084 536.264H19.748H20.164L20.596 537.016L20.164 537.736H18.308H18.084ZM17.108 529.496L17.604 529H24.452L24.948 529.496L23.972 530.488H23.94H21.764H20.292H18.116H18.084L17.108 529.496ZM16.58 543.976L16.084 543.48V537.368H16.676L16.82 537.528L17.572 538.264V541.512V542.776V543L16.58 543.976ZM24.948 544.504L24.452 545H17.604L17.108 544.504L18.084 543.512H18.116H20.292H21.764H23.94H23.972L24.948 544.504ZM24.484 538.264L25.38 537.368H25.972V543.48L25.476 543.976L24.484 543V542.776V541.512V538.264ZM25.476 530.024L25.972 530.52V536.632H25.38L24.484 535.736V535.288V532.488V531.224V531.016L25.476 530.024ZM17.572 535.736L16.676 536.632H16.084V530.52L16.58 530.024L17.572 531V531.224V532.488V535.736ZM23.972 536.264L24.708 537L23.972 537.736H23.748H22.516H21.876L21.444 537.016L21.892 536.264H22.308H23.972Z" fill="#FF0000"/>
<path d="M11.4215 567.264L12.3175 566.368H12.9095V572.48L12.4135 572.976L11.4215 572V571.776V570.512V567.264ZM12.4135 559.024L12.9095 559.52V565.632H12.3175L11.4215 564.736V564.288V561.488V560.224V560.016L12.4135 559.024ZM18.084 566.736L17.348 566L18.084 565.264H19.748H20.164L20.596 566.016L20.164 566.736H18.308H18.084ZM17.108 558.496L17.604 558H24.452L24.948 558.496L23.972 559.488H23.94H21.764H20.292H18.116H18.084L17.108 558.496ZM24.948 573.504L24.452 574H17.604L17.108 573.504L18.084 572.512H18.116H20.292H21.764H23.94H23.972L24.948 573.504ZM24.484 567.264L25.38 566.368H25.972V572.48L25.476 572.976L24.484 572V571.776V570.512V567.264ZM25.476 559.024L25.972 559.52V565.632H25.38L24.484 564.736V564.288V561.488V560.224V560.016L25.476 559.024ZM17.572 564.736L16.676 565.632H16.084V559.52L16.58 559.024L17.572 560V560.224V561.488V564.736ZM23.972 565.264L24.708 566L23.972 566.736H23.748H22.516H21.876L21.444 566.016L21.892 565.264H22.308H23.972Z" fill="#FF0000"/>
<path d="M5.0215 595.736L4.2855 595L5.0215 594.264H6.6855H7.1015L7.5335 595.016L7.1015 595.736H5.2455H5.0215ZM4.0455 587.496L4.5415 587H11.3895L11.8855 587.496L10.9095 588.488H10.8775H8.7015H7.2295H5.0535H5.0215L4.0455 587.496ZM3.5175 601.976L3.0215 601.48V595.368H3.6135L3.7575 595.528L4.5095 596.264V599.512V600.776V601L3.5175 601.976ZM11.8855 602.504L11.3895 603H4.5415L4.0455 602.504L5.0215 601.512H5.0535H7.2295H8.7015H10.8775H10.9095L11.8855 602.504ZM12.4135 588.024L12.9095 588.52V594.632H12.3175L11.4215 593.736V593.288V590.488V589.224V589.016L12.4135 588.024ZM10.9095 594.264L11.6455 595L10.9095 595.736H10.6855H9.4535H8.8135L8.3815 595.016L8.8295 594.264H9.2455H10.9095ZM19.54 596.488V599.048L18.548 600.776H18.308V598.232L19.316 596.488H19.54ZM17.108 587.496L17.604 587H24.452L24.948 587.496L23.972 588.488H23.94H21.764H20.292H18.116H18.084L17.108 587.496ZM16.58 601.976L16.084 601.48V595.368H16.676L16.82 595.528L17.572 596.264V599.512V600.776V601L16.58 601.976ZM24.948 602.504L24.452 603H17.604L17.108 602.504L18.084 601.512H18.116H20.292H21.764H23.94H23.972L24.948 602.504ZM24.484 596.264L25.38 595.368H25.972V601.48L25.476 601.976L24.484 601V600.776V599.512V596.264ZM25.476 588.024L25.972 588.52V594.632H25.38L24.484 593.736V593.288V590.488V589.224V589.016L25.476 588.024ZM23.508 589.224H23.748V591.768L22.74 593.512H22.516V590.952L23.508 589.224ZM17.572 593.736L16.676 594.632H16.084V588.52L16.58 588.024L17.572 589V589.224V590.488V593.736Z" fill="#FF0000"/>
<path d="M5.0215 624.736L4.2855 624L5.0215 623.264H6.6855H7.1015L7.5335 624.016L7.1015 624.736H5.2455H5.0215ZM4.0455 616.496L4.5415 616H11.3895L11.8855 616.496L10.9095 617.488H10.8775H8.7015H7.2295H5.0535H5.0215L4.0455 616.496ZM3.5175 630.976L3.0215 630.48V624.368H3.6135L3.7575 624.528L4.5095 625.264V628.512V629.776V630L3.5175 630.976ZM11.8855 631.504L11.3895 632H4.5415L4.0455 631.504L5.0215 630.512H5.0535H7.2295H8.7015H10.8775H10.9095L11.8855 631.504ZM12.4135 617.024L12.9095 617.52V623.632H12.3175L11.4215 622.736V622.288V619.488V618.224V618.016L12.4135 617.024ZM10.9095 623.264L11.6455 624L10.9095 624.736H10.6855H9.4535H8.8135L8.3815 624.016L8.8295 623.264H9.2455H10.9095ZM24.484 625.264L25.38 624.368H25.972V630.48L25.476 630.976L24.484 630V629.776V628.512V625.264ZM25.476 617.024L25.972 617.52V623.632H25.38L24.484 622.736V622.288V619.488V618.224V618.016L25.476 617.024Z" fill="#FF0000"/>
<path d="M5.0215 653.736L4.2855 653L5.0215 652.264H6.6855H7.1015L7.5335 653.016L7.1015 653.736H5.2455H5.0215ZM4.0455 645.496L4.5415 645H11.3895L11.8855 645.496L10.9095 646.488H10.8775H8.7015H7.2295H5.0535H5.0215L4.0455 645.496ZM3.5175 659.976L3.0215 659.48V653.368H3.6135L3.7575 653.528L4.5095 654.264V657.512V658.776V659L3.5175 659.976ZM11.8855 660.504L11.3895 661H4.5415L4.0455 660.504L5.0215 659.512H5.0535H7.2295H8.7015H10.8775H10.9095L11.8855 660.504ZM12.4135 646.024L12.9095 646.52V652.632H12.3175L11.4215 651.736V651.288V648.488V647.224V647.016L12.4135 646.024ZM10.9095 652.264L11.6455 653L10.9095 653.736H10.6855H9.4535H8.8135L8.3815 653.016L8.8295 652.264H9.2455H10.9095ZM18.084 653.736L17.348 653L18.084 652.264H19.748H20.164L20.596 653.016L20.164 653.736H18.308H18.084ZM17.108 645.496L17.604 645H24.452L24.948 645.496L23.972 646.488H23.94H21.764H20.292H18.116H18.084L17.108 645.496ZM16.58 659.976L16.084 659.48V653.368H16.676L16.82 653.528L17.572 654.264V657.512V658.776V659L16.58 659.976ZM24.948 660.504L24.452 661H17.604L17.108 660.504L18.084 659.512H18.116H20.292H21.764H23.94H23.972L24.948 660.504ZM25.476 646.024L25.972 646.52V652.632H25.38L24.484 651.736V651.288V648.488V647.224V647.016L25.476 646.024ZM23.972 652.264L24.708 653L23.972 653.736H23.748H22.516H21.876L21.444 653.016L21.892 652.264H22.308H23.972Z" fill="#FF0000"/>
<path d="M5.0215 682.736L4.2855 682L5.0215 681.264H6.6855H7.1015L7.5335 682.016L7.1015 682.736H5.2455H5.0215ZM4.0455 674.496L4.5415 674H11.3895L11.8855 674.496L10.9095 675.488H10.8775H8.7015H7.2295H5.0535H5.0215L4.0455 674.496ZM3.5175 688.976L3.0215 688.48V682.368H3.6135L3.7575 682.528L4.5095 683.264V686.512V687.776V688L3.5175 688.976ZM11.8855 689.504L11.3895 690H4.5415L4.0455 689.504L5.0215 688.512H5.0535H7.2295H8.7015H10.8775H10.9095L11.8855 689.504ZM12.4135 675.024L12.9095 675.52V681.632H12.3175L11.4215 680.736V680.288V677.488V676.224V676.016L12.4135 675.024ZM10.9095 681.264L11.6455 682L10.9095 682.736H10.6855H9.4535H8.8135L8.3815 682.016L8.8295 681.264H9.2455H10.9095ZM18.084 682.736L17.348 682L18.084 681.264H19.748H20.164L20.596 682.016L20.164 682.736H18.308H18.084ZM17.108 674.496L17.604 674H24.452L24.948 674.496L23.972 675.488H23.94H21.764H20.292H18.116H18.084L17.108 674.496ZM24.948 689.504L24.452 690H17.604L17.108 689.504L18.084 688.512H18.116H20.292H21.764H23.94H23.972L24.948 689.504ZM24.484 683.264L25.38 682.368H25.972V688.48L25.476 688.976L24.484 688V687.776V686.512V683.264ZM25.476 675.024L25.972 675.52V681.632H25.38L24.484 680.736V680.288V677.488V676.224V676.016L25.476 675.024ZM23.972 681.264L24.708 682L23.972 682.736H23.748H22.516H21.876L21.444 682.016L21.892 681.264H22.308H23.972Z" fill="#FF0000"/>
<path d="M5.0215 711.736L4.2855 711L5.0215 710.264H6.6855H7.1015L7.5335 711.016L7.1015 711.736H5.2455H5.0215ZM4.0455 703.496L4.5415 703H11.3895L11.8855 703.496L10.9095 704.488H10.8775H8.7015H7.2295H5.0535H5.0215L4.0455 703.496ZM3.5175 717.976L3.0215 717.48V711.368H3.6135L3.7575 711.528L4.5095 712.264V715.512V716.776V717L3.5175 717.976ZM11.8855 718.504L11.3895 719H4.5415L4.0455 718.504L5.0215 717.512H5.0535H7.2295H8.7015H10.8775H10.9095L11.8855 718.504ZM12.4135 704.024L12.9095 704.52V710.632H12.3175L11.4215 709.736V709.288V706.488V705.224V705.016L12.4135 704.024ZM10.9095 710.264L11.6455 711L10.9095 711.736H10.6855H9.4535H8.8135L8.3815 711.016L8.8295 710.264H9.2455H10.9095ZM18.084 711.736L17.348 711L18.084 710.264H19.748H20.164L20.596 711.016L20.164 711.736H18.308H18.084ZM24.484 712.264L25.38 711.368H25.972V717.48L25.476 717.976L24.484 717V716.776V715.512V712.264ZM25.476 704.024L25.972 704.52V710.632H25.38L24.484 709.736V709.288V706.488V705.224V705.016L25.476 704.024ZM17.572 709.736L16.676 710.632H16.084V704.52L16.58 704.024L17.572 705V705.224V706.488V709.736ZM23.972 710.264L24.708 711L23.972 711.736H23.748H22.516H21.876L21.444 711.016L21.892 710.264H22.308H23.972Z" fill="#FF0000"/>
<path d="M5.0215 740.736L4.2855 740L5.0215 739.264H6.6855H7.1015L7.5335 740.016L7.1015 740.736H5.2455H5.0215ZM4.0455 732.496L4.5415 732H11.3895L11.8855 732.496L10.9095 733.488H10.8775H8.7015H7.2295H5.0535H5.0215L4.0455 732.496ZM3.5175 746.976L3.0215 746.48V740.368H3.6135L3.7575 740.528L4.5095 741.264V744.512V745.776V746L3.5175 746.976ZM11.8855 747.504L11.3895 748H4.5415L4.0455 747.504L5.0215 746.512H5.0535H7.2295H8.7015H10.8775H10.9095L11.8855 747.504ZM12.4135 733.024L12.9095 733.52V739.632H12.3175L11.4215 738.736V738.288V735.488V734.224V734.016L12.4135 733.024ZM10.9095 739.264L11.6455 740L10.9095 740.736H10.6855H9.4535H8.8135L8.3815 740.016L8.8295 739.264H9.2455H10.9095ZM18.084 740.736L17.348 740L18.084 739.264H19.748H20.164L20.596 740.016L20.164 740.736H18.308H18.084ZM17.108 732.496L17.604 732H24.452L24.948 732.496L23.972 733.488H23.94H21.764H20.292H18.116H18.084L17.108 732.496ZM24.948 747.504L24.452 748H17.604L17.108 747.504L18.084 746.512H18.116H20.292H21.764H23.94H23.972L24.948 747.504ZM24.484 741.264L25.38 740.368H25.972V746.48L25.476 746.976L24.484 746V745.776V744.512V741.264ZM17.572 738.736L16.676 739.632H16.084V733.52L16.58 733.024L17.572 734V734.224V735.488V738.736ZM23.972 739.264L24.708 740L23.972 740.736H23.748H22.516H21.876L21.444 740.016L21.892 739.264H22.308H23.972Z" fill="#FF0000"/>
<path d="M5.0215 769.736L4.2855 769L5.0215 768.264H6.6855H7.1015L7.5335 769.016L7.1015 769.736H5.2455H5.0215ZM4.0455 761.496L4.5415 761H11.3895L11.8855 761.496L10.9095 762.488H10.8775H8.7015H7.2295H5.0535H5.0215L4.0455 761.496ZM3.5175 775.976L3.0215 775.48V769.368H3.6135L3.7575 769.528L4.5095 770.264V773.512V774.776V775L3.5175 775.976ZM11.8855 776.504L11.3895 777H4.5415L4.0455 776.504L5.0215 775.512H5.0535H7.2295H8.7015H10.8775H10.9095L11.8855 776.504ZM12.4135 762.024L12.9095 762.52V768.632H12.3175L11.4215 767.736V767.288V764.488V763.224V763.016L12.4135 762.024ZM10.9095 768.264L11.6455 769L10.9095 769.736H10.6855H9.4535H8.8135L8.3815 769.016L8.8295 768.264H9.2455H10.9095ZM18.084 769.736L17.348 769L18.084 768.264H19.748H20.164L20.596 769.016L20.164 769.736H18.308H18.084ZM17.108 761.496L17.604 761H24.452L24.948 761.496L23.972 762.488H23.94H21.764H20.292H18.116H18.084L17.108 761.496ZM16.58 775.976L16.084 775.48V769.368H16.676L16.82 769.528L17.572 770.264V773.512V774.776V775L16.58 775.976ZM24.948 776.504L24.452 777H17.604L17.108 776.504L18.084 775.512H18.116H20.292H21.764H23.94H23.972L24.948 776.504ZM24.484 770.264L25.38 769.368H25.972V775.48L25.476 775.976L24.484 775V774.776V773.512V770.264ZM17.572 767.736L16.676 768.632H16.084V762.52L16.58 762.024L17.572 763V763.224V764.488V767.736ZM23.972 768.264L24.708 769L23.972 769.736H23.748H22.516H21.876L21.444 769.016L21.892 768.264H22.308H23.972Z" fill="#FF0000"/>
<path d="M5.0215 798.736L4.2855 798L5.0215 797.264H6.6855H7.1015L7.5335 798.016L7.1015 798.736H5.2455H5.0215ZM4.0455 790.496L4.5415 790H11.3895L11.8855 790.496L10.9095 791.488H10.8775H8.7015H7.2295H5.0535H5.0215L4.0455 790.496ZM3.5175 804.976L3.0215 804.48V798.368H3.6135L3.7575 798.528L4.5095 799.264V802.512V803.776V804L3.5175 804.976ZM11.8855 805.504L11.3895 806H4.5415L4.0455 805.504L5.0215 804.512H5.0535H7.2295H8.7015H10.8775H10.9095L11.8855 805.504ZM12.4135 791.024L12.9095 791.52V797.632H12.3175L11.4215 796.736V796.288V793.488V792.224V792.016L12.4135 791.024ZM10.9095 797.264L11.6455 798L10.9095 798.736H10.6855H9.4535H8.8135L8.3815 798.016L8.8295 797.264H9.2455H10.9095ZM17.108 790.496L17.604 790H24.452L24.948 790.496L23.972 791.488H23.94H21.764H20.292H18.116H18.084L17.108 790.496ZM24.484 799.264L25.38 798.368H25.972V804.48L25.476 804.976L24.484 804V803.776V802.512V799.264ZM25.476 791.024L25.972 791.52V797.632H25.38L24.484 796.736V796.288V793.488V792.224V792.016L25.476 791.024ZM17.572 796.736L16.676 797.632H16.084V791.52L16.58 791.024L17.572 792V792.224V793.488V796.736Z" fill="#FF0000"/>
<path d="M5.0215 827.736L4.2855 827L5.0215 826.264H6.6855H7.1015L7.5335 827.016L7.1015 827.736H5.2455H5.0215ZM4.0455 819.496L4.5415 819H11.3895L11.8855 819.496L10.9095 820.488H10.8775H8.7015H7.2295H5.0535H5.0215L4.0455 819.496ZM3.5175 833.976L3.0215 833.48V827.368H3.6135L3.7575 827.528L4.5095 828.264V831.512V832.776V833L3.5175 833.976ZM11.8855 834.504L11.3895 835H4.5415L4.0455 834.504L5.0215 833.512H5.0535H7.2295H8.7015H10.8775H10.9095L11.8855 834.504ZM12.4135 820.024L12.9095 820.52V826.632H12.3175L11.4215 825.736V825.288V822.488V821.224V821.016L12.4135 820.024ZM10.9095 826.264L11.6455 827L10.9095 827.736H10.6855H9.4535H8.8135L8.3815 827.016L8.8295 826.264H9.2455H10.9095ZM18.084 827.736L17.348 827L18.084 826.264H19.748H20.164L20.596 827.016L20.164 827.736H18.308H18.084ZM17.108 819.496L17.604 819H24.452L24.948 819.496L23.972 820.488H23.94H21.764H20.292H18.116H18.084L17.108 819.496ZM16.58 833.976L16.084 833.48V827.368H16.676L16.82 827.528L17.572 828.264V831.512V832.776V833L16.58 833.976ZM24.948 834.504L24.452 835H17.604L17.108 834.504L18.084 833.512H18.116H20.292H21.764H23.94H23.972L24.948 834.504ZM24.484 828.264L25.38 827.368H25.972V833.48L25.476 833.976L24.484 833V832.776V831.512V828.264ZM25.476 820.024L25.972 820.52V826.632H25.38L24.484 825.736V825.288V822.488V821.224V821.016L25.476 820.024ZM17.572 825.736L16.676 826.632H16.084V820.52L16.58 820.024L17.572 821V821.224V822.488V825.736ZM23.972 826.264L24.708 827L23.972 827.736H23.748H22.516H21.876L21.444 827.016L21.892 826.264H22.308H23.972Z" fill="#FF0000"/>
<path d="M5.0215 856.736L4.2855 856L5.0215 855.264H6.6855H7.1015L7.5335 856.016L7.1015 856.736H5.2455H5.0215ZM4.0455 848.496L4.5415 848H11.3895L11.8855 848.496L10.9095 849.488H10.8775H8.7015H7.2295H5.0535H5.0215L4.0455 848.496ZM3.5175 862.976L3.0215 862.48V856.368H3.6135L3.7575 856.528L4.5095 857.264V860.512V861.776V862L3.5175 862.976ZM11.8855 863.504L11.3895 864H4.5415L4.0455 863.504L5.0215 862.512H5.0535H7.2295H8.7015H10.8775H10.9095L11.8855 863.504ZM12.4135 849.024L12.9095 849.52V855.632H12.3175L11.4215 854.736V854.288V851.488V850.224V850.016L12.4135 849.024ZM10.9095 855.264L11.6455 856L10.9095 856.736H10.6855H9.4535H8.8135L8.3815 856.016L8.8295 855.264H9.2455H10.9095ZM18.084 856.736L17.348 856L18.084 855.264H19.748H20.164L20.596 856.016L20.164 856.736H18.308H18.084ZM17.108 848.496L17.604 848H24.452L24.948 848.496L23.972 849.488H23.94H21.764H20.292H18.116H18.084L17.108 848.496ZM24.948 863.504L24.452 864H17.604L17.108 863.504L18.084 862.512H18.116H20.292H21.764H23.94H23.972L24.948 863.504ZM24.484 857.264L25.38 856.368H25.972V862.48L25.476 862.976L24.484 862V861.776V860.512V857.264ZM25.476 849.024L25.972 849.52V855.632H25.38L24.484 854.736V854.288V851.488V850.224V850.016L25.476 849.024ZM17.572 854.736L16.676 855.632H16.084V849.52L16.58 849.024L17.572 850V850.224V851.488V854.736ZM23.972 855.264L24.708 856L23.972 856.736H23.748H22.516H21.876L21.444 856.016L21.892 855.264H22.308H23.972Z" fill="#FF0000"/>
<path d="M5.0215 885.736L4.2855 885L5.0215 884.264H6.6855H7.1015L7.5335 885.016L7.1015 885.736H5.2455H5.0215ZM4.0455 877.496L4.5415 877H11.3895L11.8855 877.496L10.9095 878.488H10.8775H8.7015H7.2295H5.0535H5.0215L4.0455 877.496ZM11.8855 892.504L11.3895 893H4.5415L4.0455 892.504L5.0215 891.512H5.0535H7.2295H8.7015H10.8775H10.9095L11.8855 892.504ZM11.4215 886.264L12.3175 885.368H12.9095V891.48L12.4135 891.976L11.4215 891V890.776V889.512V886.264ZM12.4135 878.024L12.9095 878.52V884.632H12.3175L11.4215 883.736V883.288V880.488V879.224V879.016L12.4135 878.024ZM10.9095 884.264L11.6455 885L10.9095 885.736H10.6855H9.4535H8.8135L8.3815 885.016L8.8295 884.264H9.2455H10.9095ZM19.54 886.488V889.048L18.548 890.776H18.308V888.232L19.316 886.488H19.54ZM17.108 877.496L17.604 877H24.452L24.948 877.496L23.972 878.488H23.94H21.764H20.292H18.116H18.084L17.108 877.496ZM16.58 891.976L16.084 891.48V885.368H16.676L16.82 885.528L17.572 886.264V889.512V890.776V891L16.58 891.976ZM24.948 892.504L24.452 893H17.604L17.108 892.504L18.084 891.512H18.116H20.292H21.764H23.94H23.972L24.948 892.504ZM24.484 886.264L25.38 885.368H25.972V891.48L25.476 891.976L24.484 891V890.776V889.512V886.264ZM25.476 878.024L25.972 878.52V884.632H25.38L24.484 883.736V883.288V880.488V879.224V879.016L25.476 878.024ZM23.508 879.224H23.748V881.768L22.74 883.512H22.516V880.952L23.508 879.224ZM17.572 883.736L16.676 884.632H16.084V878.52L16.58 878.024L17.572 879V879.224V880.488V883.736Z" fill="#FF0000"/>
<path d="M5.0215 914.736L4.2855 914L5.0215 913.264H6.6855H7.1015L7.5335 914.016L7.1015 914.736H5.2455H5.0215ZM4.0455 906.496L4.5415 906H11.3895L11.8855 906.496L10.9095 907.488H10.8775H8.7015H7.2295H5.0535H5.0215L4.0455 906.496ZM11.8855 921.504L11.3895 922H4.5415L4.0455 921.504L5.0215 920.512H5.0535H7.2295H8.7015H10.8775H10.9095L11.8855 921.504ZM11.4215 915.264L12.3175 914.368H12.9095V920.48L12.4135 920.976L11.4215 920V919.776V918.512V915.264ZM12.4135 907.024L12.9095 907.52V913.632H12.3175L11.4215 912.736V912.288V909.488V908.224V908.016L12.4135 907.024ZM10.9095 913.264L11.6455 914L10.9095 914.736H10.6855H9.4535H8.8135L8.3815 914.016L8.8295 913.264H9.2455H10.9095ZM24.484 915.264L25.38 914.368H25.972V920.48L25.476 920.976L24.484 920V919.776V918.512V915.264ZM25.476 907.024L25.972 907.52V913.632H25.38L24.484 912.736V912.288V909.488V908.224V908.016L25.476 907.024Z" fill="#FF0000"/>
<path d="M5.0215 943.736L4.2855 943L5.0215 942.264H6.6855H7.1015L7.5335 943.016L7.1015 943.736H5.2455H5.0215ZM4.0455 935.496L4.5415 935H11.3895L11.8855 935.496L10.9095 936.488H10.8775H8.7015H7.2295H5.0535H5.0215L4.0455 935.496ZM11.8855 950.504L11.3895 951H4.5415L4.0455 950.504L5.0215 949.512H5.0535H7.2295H8.7015H10.8775H10.9095L11.8855 950.504ZM11.4215 944.264L12.3175 943.368H12.9095V949.48L12.4135 949.976L11.4215 949V948.776V947.512V944.264ZM12.4135 936.024L12.9095 936.52V942.632H12.3175L11.4215 941.736V941.288V938.488V937.224V937.016L12.4135 936.024ZM10.9095 942.264L11.6455 943L10.9095 943.736H10.6855H9.4535H8.8135L8.3815 943.016L8.8295 942.264H9.2455H10.9095ZM18.084 943.736L17.348 943L18.084 942.264H19.748H20.164L20.596 943.016L20.164 943.736H18.308H18.084ZM17.108 935.496L17.604 935H24.452L24.948 935.496L23.972 936.488H23.94H21.764H20.292H18.116H18.084L17.108 935.496ZM16.58 949.976L16.084 949.48V943.368H16.676L16.82 943.528L17.572 944.264V947.512V948.776V949L16.58 949.976ZM24.948 950.504L24.452 951H17.604L17.108 950.504L18.084 949.512H18.116H20.292H21.764H23.94H23.972L24.948 950.504ZM25.476 936.024L25.972 936.52V942.632H25.38L24.484 941.736V941.288V938.488V937.224V937.016L25.476 936.024ZM23.972 942.264L24.708 943L23.972 943.736H23.748H22.516H21.876L21.444 943.016L21.892 942.264H22.308H23.972Z" fill="#FF0000"/>
<path d="M5.0215 972.736L4.2855 972L5.0215 971.264H6.6855H7.1015L7.5335 972.016L7.1015 972.736H5.2455H5.0215ZM4.0455 964.496L4.5415 964H11.3895L11.8855 964.496L10.9095 965.488H10.8775H8.7015H7.2295H5.0535H5.0215L4.0455 964.496ZM11.8855 979.504L11.3895 980H4.5415L4.0455 979.504L5.0215 978.512H5.0535H7.2295H8.7015H10.8775H10.9095L11.8855 979.504ZM11.4215 973.264L12.3175 972.368H12.9095V978.48L12.4135 978.976L11.4215 978V977.776V976.512V973.264ZM12.4135 965.024L12.9095 965.52V971.632H12.3175L11.4215 970.736V970.288V967.488V966.224V966.016L12.4135 965.024ZM10.9095 971.264L11.6455 972L10.9095 972.736H10.6855H9.4535H8.8135L8.3815 972.016L8.8295 971.264H9.2455H10.9095ZM18.084 972.736L17.348 972L18.084 971.264H19.748H20.164L20.596 972.016L20.164 972.736H18.308H18.084ZM17.108 964.496L17.604 964H24.452L24.948 964.496L23.972 965.488H23.94H21.764H20.292H18.116H18.084L17.108 964.496ZM24.948 979.504L24.452 980H17.604L17.108 979.504L18.084 978.512H18.116H20.292H21.764H23.94H23.972L24.948 979.504ZM24.484 973.264L25.38 972.368H25.972V978.48L25.476 978.976L24.484 978V977.776V976.512V973.264ZM25.476 965.024L25.972 965.52V971.632H25.38L24.484 970.736V970.288V967.488V966.224V966.016L25.476 965.024ZM23.972 971.264L24.708 972L23.972 972.736H23.748H22.516H21.876L21.444 972.016L21.892 971.264H22.308H23.972Z" fill="#FF0000"/>
<path d="M5.0215 1001.74L4.2855 1001L5.0215 1000.26H6.6855H7.1015L7.5335 1001.02L7.1015 1001.74H5.2455H5.0215ZM4.0455 993.496L4.5415 993H11.3895L11.8855 993.496L10.9095 994.488H10.8775H8.7015H7.2295H5.0535H5.0215L4.0455 993.496ZM11.8855 1008.5L11.3895 1009H4.5415L4.0455 1008.5L5.0215 1007.51H5.0535H7.2295H8.7015H10.8775H10.9095L11.8855 1008.5ZM11.4215 1002.26L12.3175 1001.37H12.9095V1007.48L12.4135 1007.98L11.4215 1007V1006.78V1005.51V1002.26ZM12.4135 994.024L12.9095 994.52V1000.63H12.3175L11.4215 999.736V999.288V996.488V995.224V995.016L12.4135 994.024ZM10.9095 1000.26L11.6455 1001L10.9095 1001.74H10.6855H9.4535H8.8135L8.3815 1001.02L8.8295 1000.26H9.2455H10.9095ZM18.084 1001.74L17.348 1001L18.084 1000.26H19.748H20.164L20.596 1001.02L20.164 1001.74H18.308H18.084ZM24.484 1002.26L25.38 1001.37H25.972V1007.48L25.476 1007.98L24.484 1007V1006.78V1005.51V1002.26ZM25.476 994.024L25.972 994.52V1000.63H25.38L24.484 999.736V999.288V996.488V995.224V995.016L25.476 994.024ZM17.572 999.736L16.676 1000.63H16.084V994.52L16.58 994.024L17.572 995V995.224V996.488V999.736ZM23.972 1000.26L24.708 1001L23.972 1001.74H23.748H22.516H21.876L21.444 1001.02L21.892 1000.26H22.308H23.972Z" fill="#FF0000"/>
<path d="M5.0215 1030.74L4.2855 1030L5.0215 1029.26H6.6855H7.1015L7.5335 1030.02L7.1015 1030.74H5.2455H5.0215ZM4.0455 1022.5L4.5415 1022H11.3895L11.8855 1022.5L10.9095 1023.49H10.8775H8.7015H7.2295H5.0535H5.0215L4.0455 1022.5ZM11.8855 1037.5L11.3895 1038H4.5415L4.0455 1037.5L5.0215 1036.51H5.0535H7.2295H8.7015H10.8775H10.9095L11.8855 1037.5ZM11.4215 1031.26L12.3175 1030.37H12.9095V1036.48L12.4135 1036.98L11.4215 1036V1035.78V1034.51V1031.26ZM12.4135 1023.02L12.9095 1023.52V1029.63H12.3175L11.4215 1028.74V1028.29V1025.49V1024.22V1024.02L12.4135 1023.02ZM10.9095 1029.26L11.6455 1030L10.9095 1030.74H10.6855H9.4535H8.8135L8.3815 1030.02L8.8295 1029.26H9.2455H10.9095ZM18.084 1030.74L17.348 1030L18.084 1029.26H19.748H20.164L20.596 1030.02L20.164 1030.74H18.308H18.084ZM17.108 1022.5L17.604 1022H24.452L24.948 1022.5L23.972 1023.49H23.94H21.764H20.292H18.116H18.084L17.108 1022.5ZM24.948 1037.5L24.452 1038H17.604L17.108 1037.5L18.084 1036.51H18.116H20.292H21.764H23.94H23.972L24.948 1037.5ZM24.484 1031.26L25.38 1030.37H25.972V1036.48L25.476 1036.98L24.484 1036V1035.78V1034.51V1031.26ZM17.572 1028.74L16.676 1029.63H16.084V1023.52L16.58 1023.02L17.572 1024V1024.22V1025.49V1028.74ZM23.972 1029.26L24.708 1030L23.972 1030.74H23.748H22.516H21.876L21.444 1030.02L21.892 1029.26H22.308H23.972Z" fill="#FF0000"/>
<path d="M5.0215 1059.74L4.2855 1059L5.0215 1058.26H6.6855H7.1015L7.5335 1059.02L7.1015 1059.74H5.2455H5.0215ZM4.0455 1051.5L4.5415 1051H11.3895L11.8855 1051.5L10.9095 1052.49H10.8775H8.7015H7.2295H5.0535H5.0215L4.0455 1051.5ZM11.8855 1066.5L11.3895 1067H4.5415L4.0455 1066.5L5.0215 1065.51H5.0535H7.2295H8.7015H10.8775H10.9095L11.8855 1066.5ZM11.4215 1060.26L12.3175 1059.37H12.9095V1065.48L12.4135 1065.98L11.4215 1065V1064.78V1063.51V1060.26ZM12.4135 1052.02L12.9095 1052.52V1058.63H12.3175L11.4215 1057.74V1057.29V1054.49V1053.22V1053.02L12.4135 1052.02ZM10.9095 1058.26L11.6455 1059L10.9095 1059.74H10.6855H9.4535H8.8135L8.3815 1059.02L8.8295 1058.26H9.2455H10.9095ZM18.084 1059.74L17.348 1059L18.084 1058.26H19.748H20.164L20.596 1059.02L20.164 1059.74H18.308H18.084ZM17.108 1051.5L17.604 1051H24.452L24.948 1051.5L23.972 1052.49H23.94H21.764H20.292H18.116H18.084L17.108 1051.5ZM16.58 1065.98L16.084 1065.48V1059.37H16.676L16.82 1059.53L17.572 1060.26V1063.51V1064.78V1065L16.58 1065.98ZM24.948 1066.5L24.452 1067H17.604L17.108 1066.5L18.084 1065.51H18.116H20.292H21.764H23.94H23.972L24.948 1066.5ZM24.484 1060.26L25.38 1059.37H25.972V1065.48L25.476 1065.98L24.484 1065V1064.78V1063.51V1060.26ZM17.572 1057.74L16.676 1058.63H16.084V1052.52L16.58 1052.02L17.572 1053V1053.22V1054.49V1057.74ZM23.972 1058.26L24.708 1059L23.972 1059.74H23.748H22.516H21.876L21.444 1059.02L21.892 1058.26H22.308H23.972Z" fill="#FF0000"/>
<path d="M5.0215 1088.74L4.2855 1088L5.0215 1087.26H6.6855H7.1015L7.5335 1088.02L7.1015 1088.74H5.2455H5.0215ZM4.0455 1080.5L4.5415 1080H11.3895L11.8855 1080.5L10.9095 1081.49H10.8775H8.7015H7.2295H5.0535H5.0215L4.0455 1080.5ZM11.8855 1095.5L11.3895 1096H4.5415L4.0455 1095.5L5.0215 1094.51H5.0535H7.2295H8.7015H10.8775H10.9095L11.8855 1095.5ZM11.4215 1089.26L12.3175 1088.37H12.9095V1094.48L12.4135 1094.98L11.4215 1094V1093.78V1092.51V1089.26ZM12.4135 1081.02L12.9095 1081.52V1087.63H12.3175L11.4215 1086.74V1086.29V1083.49V1082.22V1082.02L12.4135 1081.02ZM10.9095 1087.26L11.6455 1088L10.9095 1088.74H10.6855H9.4535H8.8135L8.3815 1088.02L8.8295 1087.26H9.2455H10.9095ZM17.108 1080.5L17.604 1080H24.452L24.948 1080.5L23.972 1081.49H23.94H21.764H20.292H18.116H18.084L17.108 1080.5ZM24.484 1089.26L25.38 1088.37H25.972V1094.48L25.476 1094.98L24.484 1094V1093.78V1092.51V1089.26ZM25.476 1081.02L25.972 1081.52V1087.63H25.38L24.484 1086.74V1086.29V1083.49V1082.22V1082.02L25.476 1081.02ZM17.572 1086.74L16.676 1087.63H16.084V1081.52L16.58 1081.02L17.572 1082V1082.22V1083.49V1086.74Z" fill="#FF0000"/>
<path d="M5.0215 1117.74L4.2855 1117L5.0215 1116.26H6.6855H7.1015L7.5335 1117.02L7.1015 1117.74H5.2455H5.0215ZM4.0455 1109.5L4.5415 1109H11.3895L11.8855 1109.5L10.9095 1110.49H10.8775H8.7015H7.2295H5.0535H5.0215L4.0455 1109.5ZM11.8855 1124.5L11.3895 1125H4.5415L4.0455 1124.5L5.0215 1123.51H5.0535H7.2295H8.7015H10.8775H10.9095L11.8855 1124.5ZM11.4215 1118.26L12.3175 1117.37H12.9095V1123.48L12.4135 1123.98L11.4215 1123V1122.78V1121.51V1118.26ZM12.4135 1110.02L12.9095 1110.52V1116.63H12.3175L11.4215 1115.74V1115.29V1112.49V1111.22V1111.02L12.4135 1110.02ZM10.9095 1116.26L11.6455 1117L10.9095 1117.74H10.6855H9.4535H8.8135L8.3815 1117.02L8.8295 1116.26H9.2455H10.9095ZM18.084 1117.74L17.348 1117L18.084 1116.26H19.748H20.164L20.596 1117.02L20.164 1117.74H18.308H18.084ZM17.108 1109.5L17.604 1109H24.452L24.948 1109.5L23.972 1110.49H23.94H21.764H20.292H18.116H18.084L17.108 1109.5ZM16.58 1123.98L16.084 1123.48V1117.37H16.676L16.82 1117.53L17.572 1118.26V1121.51V1122.78V1123L16.58 1123.98ZM24.948 1124.5L24.452 1125H17.604L17.108 1124.5L18.084 1123.51H18.116H20.292H21.764H23.94H23.972L24.948 1124.5ZM24.484 1118.26L25.38 1117.37H25.972V1123.48L25.476 1123.98L24.484 1123V1122.78V1121.51V1118.26ZM25.476 1110.02L25.972 1110.52V1116.63H25.38L24.484 1115.74V1115.29V1112.49V1111.22V1111.02L25.476 1110.02ZM17.572 1115.74L16.676 1116.63H16.084V1110.52L16.58 1110.02L17.572 1111V1111.22V1112.49V1115.74ZM23.972 1116.26L24.708 1117L23.972 1117.74H23.748H22.516H21.876L21.444 1117.02L21.892 1116.26H22.308H23.972Z" fill="#FF0000"/>
<path d="M5.0215 1146.74L4.2855 1146L5.0215 1145.26H6.6855H7.1015L7.5335 1146.02L7.1015 1146.74H5.2455H5.0215ZM4.0455 1138.5L4.5415 1138H11.3895L11.8855 1138.5L10.9095 1139.49H10.8775H8.7015H7.2295H5.0535H5.0215L4.0455 1138.5ZM11.8855 1153.5L11.3895 1154H4.5415L4.0455 1153.5L5.0215 1152.51H5.0535H7.2295H8.7015H10.8775H10.9095L11.8855 1153.5ZM11.4215 1147.26L12.3175 1146.37H12.9095V1152.48L12.4135 1152.98L11.4215 1152V1151.78V1150.51V1147.26ZM12.4135 1139.02L12.9095 1139.52V1145.63H12.3175L11.4215 1144.74V1144.29V1141.49V1140.22V1140.02L12.4135 1139.02ZM10.9095 1145.26L11.6455 1146L10.9095 1146.74H10.6855H9.4535H8.8135L8.3815 1146.02L8.8295 1145.26H9.2455H10.9095ZM18.084 1146.74L17.348 1146L18.084 1145.26H19.748H20.164L20.596 1146.02L20.164 1146.74H18.308H18.084ZM17.108 1138.5L17.604 1138H24.452L24.948 1138.5L23.972 1139.49H23.94H21.764H20.292H18.116H18.084L17.108 1138.5ZM24.948 1153.5L24.452 1154H17.604L17.108 1153.5L18.084 1152.51H18.116H20.292H21.764H23.94H23.972L24.948 1153.5ZM24.484 1147.26L25.38 1146.37H25.972V1152.48L25.476 1152.98L24.484 1152V1151.78V1150.51V1147.26ZM25.476 1139.02L25.972 1139.52V1145.63H25.38L24.484 1144.74V1144.29V1141.49V1140.22V1140.02L25.476 1139.02ZM17.572 1144.74L16.676 1145.63H16.084V1139.52L16.58 1139.02L17.572 1140V1140.22V1141.49V1144.74ZM23.972 1145.26L24.708 1146L23.972 1146.74H23.748H22.516H21.876L21.444 1146.02L21.892 1145.26H22.308H23.972Z" fill="#FF0000"/>
<path d="M5.0215 1175.74L4.2855 1175L5.0215 1174.26H6.6855H7.1015L7.5335 1175.02L7.1015 1175.74H5.2455H5.0215ZM11.4215 1176.26L12.3175 1175.37H12.9095V1181.48L12.4135 1181.98L11.4215 1181V1180.78V1179.51V1176.26ZM12.4135 1168.02L12.9095 1168.52V1174.63H12.3175L11.4215 1173.74V1173.29V1170.49V1169.22V1169.02L12.4135 1168.02ZM4.5095 1173.74L3.6135 1174.63H3.0215V1168.52L3.5175 1168.02L4.5095 1169V1169.22V1170.49V1173.74ZM10.9095 1174.26L11.6455 1175L10.9095 1175.74H10.6855H9.4535H8.8135L8.3815 1175.02L8.8295 1174.26H9.2455H10.9095ZM19.54 1176.49V1179.05L18.548 1180.78H18.308V1178.23L19.316 1176.49H19.54ZM17.108 1167.5L17.604 1167H24.452L24.948 1167.5L23.972 1168.49H23.94H21.764H20.292H18.116H18.084L17.108 1167.5ZM16.58 1181.98L16.084 1181.48V1175.37H16.676L16.82 1175.53L17.572 1176.26V1179.51V1180.78V1181L16.58 1181.98ZM24.948 1182.5L24.452 1183H17.604L17.108 1182.5L18.084 1181.51H18.116H20.292H21.764H23.94H23.972L24.948 1182.5ZM24.484 1176.26L25.38 1175.37H25.972V1181.48L25.476 1181.98L24.484 1181V1180.78V1179.51V1176.26ZM25.476 1168.02L25.972 1168.52V1174.63H25.38L24.484 1173.74V1173.29V1170.49V1169.22V1169.02L25.476 1168.02ZM23.508 1169.22H23.748V1171.77L22.74 1173.51H22.516V1170.95L23.508 1169.22ZM17.572 1173.74L16.676 1174.63H16.084V1168.52L16.58 1168.02L17.572 1169V1169.22V1170.49V1173.74Z" fill="#FF0000"/>
<path d="M5.0215 1204.74L4.2855 1204L5.0215 1203.26H6.6855H7.1015L7.5335 1204.02L7.1015 1204.74H5.2455H5.0215ZM11.4215 1205.26L12.3175 1204.37H12.9095V1210.48L12.4135 1210.98L11.4215 1210V1209.78V1208.51V1205.26ZM12.4135 1197.02L12.9095 1197.52V1203.63H12.3175L11.4215 1202.74V1202.29V1199.49V1198.22V1198.02L12.4135 1197.02ZM4.5095 1202.74L3.6135 1203.63H3.0215V1197.52L3.5175 1197.02L4.5095 1198V1198.22V1199.49V1202.74ZM10.9095 1203.26L11.6455 1204L10.9095 1204.74H10.6855H9.4535H8.8135L8.3815 1204.02L8.8295 1203.26H9.2455H10.9095ZM24.484 1205.26L25.38 1204.37H25.972V1210.48L25.476 1210.98L24.484 1210V1209.78V1208.51V1205.26ZM25.476 1197.02L25.972 1197.52V1203.63H25.38L24.484 1202.74V1202.29V1199.49V1198.22V1198.02L25.476 1197.02Z" fill="#FF0000"/>
<path d="M5.0215 1233.74L4.2855 1233L5.0215 1232.26H6.6855H7.1015L7.5335 1233.02L7.1015 1233.74H5.2455H5.0215ZM11.4215 1234.26L12.3175 1233.37H12.9095V1239.48L12.4135 1239.98L11.4215 1239V1238.78V1237.51V1234.26ZM12.4135 1226.02L12.9095 1226.52V1232.63H12.3175L11.4215 1231.74V1231.29V1228.49V1227.22V1227.02L12.4135 1226.02ZM4.5095 1231.74L3.6135 1232.63H3.0215V1226.52L3.5175 1226.02L4.5095 1227V1227.22V1228.49V1231.74ZM10.9095 1232.26L11.6455 1233L10.9095 1233.74H10.6855H9.4535H8.8135L8.3815 1233.02L8.8295 1232.26H9.2455H10.9095ZM18.084 1233.74L17.348 1233L18.084 1232.26H19.748H20.164L20.596 1233.02L20.164 1233.74H18.308H18.084ZM17.108 1225.5L17.604 1225H24.452L24.948 1225.5L23.972 1226.49H23.94H21.764H20.292H18.116H18.084L17.108 1225.5ZM16.58 1239.98L16.084 1239.48V1233.37H16.676L16.82 1233.53L17.572 1234.26V1237.51V1238.78V1239L16.58 1239.98ZM24.948 1240.5L24.452 1241H17.604L17.108 1240.5L18.084 1239.51H18.116H20.292H21.764H23.94H23.972L24.948 1240.5ZM25.476 1226.02L25.972 1226.52V1232.63H25.38L24.484 1231.74V1231.29V1228.49V1227.22V1227.02L25.476 1226.02ZM23.972 1232.26L24.708 1233L23.972 1233.74H23.748H22.516H21.876L21.444 1233.02L21.892 1232.26H22.308H23.972Z" fill="#FF0000"/>
<path d="M5.0215 1262.74L4.2855 1262L5.0215 1261.26H6.6855H7.1015L7.5335 1262.02L7.1015 1262.74H5.2455H5.0215ZM11.4215 1263.26L12.3175 1262.37H12.9095V1268.48L12.4135 1268.98L11.4215 1268V1267.78V1266.51V1263.26ZM12.4135 1255.02L12.9095 1255.52V1261.63H12.3175L11.4215 1260.74V1260.29V1257.49V1256.22V1256.02L12.4135 1255.02ZM4.5095 1260.74L3.6135 1261.63H3.0215V1255.52L3.5175 1255.02L4.5095 1256V1256.22V1257.49V1260.74ZM10.9095 1261.26L11.6455 1262L10.9095 1262.74H10.6855H9.4535H8.8135L8.3815 1262.02L8.8295 1261.26H9.2455H10.9095ZM18.084 1262.74L17.348 1262L18.084 1261.26H19.748H20.164L20.596 1262.02L20.164 1262.74H18.308H18.084ZM17.108 1254.5L17.604 1254H24.452L24.948 1254.5L23.972 1255.49H23.94H21.764H20.292H18.116H18.084L17.108 1254.5ZM24.948 1269.5L24.452 1270H17.604L17.108 1269.5L18.084 1268.51H18.116H20.292H21.764H23.94H23.972L24.948 1269.5ZM24.484 1263.26L25.38 1262.37H25.972V1268.48L25.476 1268.98L24.484 1268V1267.78V1266.51V1263.26ZM25.476 1255.02L25.972 1255.52V1261.63H25.38L24.484 1260.74V1260.29V1257.49V1256.22V1256.02L25.476 1255.02ZM23.972 1261.26L24.708 1262L23.972 1262.74H23.748H22.516H21.876L21.444 1262.02L21.892 1261.26H22.308H23.972Z" fill="#FF0000"/>
<path d="M5.0215 1291.74L4.2855 1291L5.0215 1290.26H6.6855H7.1015L7.5335 1291.02L7.1015 1291.74H5.2455H5.0215ZM11.4215 1292.26L12.3175 1291.37H12.9095V1297.48L12.4135 1297.98L11.4215 1297V1296.78V1295.51V1292.26ZM12.4135 1284.02L12.9095 1284.52V1290.63H12.3175L11.4215 1289.74V1289.29V1286.49V1285.22V1285.02L12.4135 1284.02ZM4.5095 1289.74L3.6135 1290.63H3.0215V1284.52L3.5175 1284.02L4.5095 1285V1285.22V1286.49V1289.74ZM10.9095 1290.26L11.6455 1291L10.9095 1291.74H10.6855H9.4535H8.8135L8.3815 1291.02L8.8295 1290.26H9.2455H10.9095ZM18.084 1291.74L17.348 1291L18.084 1290.26H19.748H20.164L20.596 1291.02L20.164 1291.74H18.308H18.084ZM24.484 1292.26L25.38 1291.37H25.972V1297.48L25.476 1297.98L24.484 1297V1296.78V1295.51V1292.26ZM25.476 1284.02L25.972 1284.52V1290.63H25.38L24.484 1289.74V1289.29V1286.49V1285.22V1285.02L25.476 1284.02ZM17.572 1289.74L16.676 1290.63H16.084V1284.52L16.58 1284.02L17.572 1285V1285.22V1286.49V1289.74ZM23.972 1290.26L24.708 1291L23.972 1291.74H23.748H22.516H21.876L21.444 1291.02L21.892 1290.26H22.308H23.972Z" fill="#FF0000"/>
<path d="M5.0215 1320.74L4.2855 1320L5.0215 1319.26H6.6855H7.1015L7.5335 1320.02L7.1015 1320.74H5.2455H5.0215ZM11.4215 1321.26L12.3175 1320.37H12.9095V1326.48L12.4135 1326.98L11.4215 1326V1325.78V1324.51V1321.26ZM12.4135 1313.02L12.9095 1313.52V1319.63H12.3175L11.4215 1318.74V1318.29V1315.49V1314.22V1314.02L12.4135 1313.02ZM4.5095 1318.74L3.6135 1319.63H3.0215V1313.52L3.5175 1313.02L4.5095 1314V1314.22V1315.49V1318.74ZM10.9095 1319.26L11.6455 1320L10.9095 1320.74H10.6855H9.4535H8.8135L8.3815 1320.02L8.8295 1319.26H9.2455H10.9095ZM18.084 1320.74L17.348 1320L18.084 1319.26H19.748H20.164L20.596 1320.02L20.164 1320.74H18.308H18.084ZM17.108 1312.5L17.604 1312H24.452L24.948 1312.5L23.972 1313.49H23.94H21.764H20.292H18.116H18.084L17.108 1312.5ZM24.948 1327.5L24.452 1328H17.604L17.108 1327.5L18.084 1326.51H18.116H20.292H21.764H23.94H23.972L24.948 1327.5ZM24.484 1321.26L25.38 1320.37H25.972V1326.48L25.476 1326.98L24.484 1326V1325.78V1324.51V1321.26ZM17.572 1318.74L16.676 1319.63H16.084V1313.52L16.58 1313.02L17.572 1314V1314.22V1315.49V1318.74ZM23.972 1319.26L24.708 1320L23.972 1320.74H23.748H22.516H21.876L21.444 1320.02L21.892 1319.26H22.308H23.972Z" fill="#FF0000"/>
<path d="M5.0215 1349.74L4.2855 1349L5.0215 1348.26H6.6855H7.1015L7.5335 1349.02L7.1015 1349.74H5.2455H5.0215ZM11.4215 1350.26L12.3175 1349.37H12.9095V1355.48L12.4135 1355.98L11.4215 1355V1354.78V1353.51V1350.26ZM12.4135 1342.02L12.9095 1342.52V1348.63H12.3175L11.4215 1347.74V1347.29V1344.49V1343.22V1343.02L12.4135 1342.02ZM4.5095 1347.74L3.6135 1348.63H3.0215V1342.52L3.5175 1342.02L4.5095 1343V1343.22V1344.49V1347.74ZM10.9095 1348.26L11.6455 1349L10.9095 1349.74H10.6855H9.4535H8.8135L8.3815 1349.02L8.8295 1348.26H9.2455H10.9095ZM18.084 1349.74L17.348 1349L18.084 1348.26H19.748H20.164L20.596 1349.02L20.164 1349.74H18.308H18.084ZM17.108 1341.5L17.604 1341H24.452L24.948 1341.5L23.972 1342.49H23.94H21.764H20.292H18.116H18.084L17.108 1341.5ZM16.58 1355.98L16.084 1355.48V1349.37H16.676L16.82 1349.53L17.572 1350.26V1353.51V1354.78V1355L16.58 1355.98ZM24.948 1356.5L24.452 1357H17.604L17.108 1356.5L18.084 1355.51H18.116H20.292H21.764H23.94H23.972L24.948 1356.5ZM24.484 1350.26L25.38 1349.37H25.972V1355.48L25.476 1355.98L24.484 1355V1354.78V1353.51V1350.26ZM17.572 1347.74L16.676 1348.63H16.084V1342.52L16.58 1342.02L17.572 1343V1343.22V1344.49V1347.74ZM23.972 1348.26L24.708 1349L23.972 1349.74H23.748H22.516H21.876L21.444 1349.02L21.892 1348.26H22.308H23.972Z" fill="#FF0000"/>
<path d="M5.0215 1378.74L4.2855 1378L5.0215 1377.26H6.6855H7.1015L7.5335 1378.02L7.1015 1378.74H5.2455H5.0215ZM11.4215 1379.26L12.3175 1378.37H12.9095V1384.48L12.4135 1384.98L11.4215 1384V1383.78V1382.51V1379.26ZM12.4135 1371.02L12.9095 1371.52V1377.63H12.3175L11.4215 1376.74V1376.29V1373.49V1372.22V1372.02L12.4135 1371.02ZM4.5095 1376.74L3.6135 1377.63H3.0215V1371.52L3.5175 1371.02L4.5095 1372V1372.22V1373.49V1376.74ZM10.9095 1377.26L11.6455 1378L10.9095 1378.74H10.6855H9.4535H8.8135L8.3815 1378.02L8.8295 1377.26H9.2455H10.9095ZM17.108 1370.5L17.604 1370H24.452L24.948 1370.5L23.972 1371.49H23.94H21.764H20.292H18.116H18.084L17.108 1370.5ZM24.484 1379.26L25.38 1378.37H25.972V1384.48L25.476 1384.98L24.484 1384V1383.78V1382.51V1379.26ZM25.476 1371.02L25.972 1371.52V1377.63H25.38L24.484 1376.74V1376.29V1373.49V1372.22V1372.02L25.476 1371.02ZM17.572 1376.74L16.676 1377.63H16.084V1371.52L16.58 1371.02L17.572 1372V1372.22V1373.49V1376.74Z" fill="#FF0000"/>
<path d="M5.0215 1407.74L4.2855 1407L5.0215 1406.26H6.6855H7.1015L7.5335 1407.02L7.1015 1407.74H5.2455H5.0215ZM11.4215 1408.26L12.3175 1407.37H12.9095V1413.48L12.4135 1413.98L11.4215 1413V1412.78V1411.51V1408.26ZM12.4135 1400.02L12.9095 1400.52V1406.63H12.3175L11.4215 1405.74V1405.29V1402.49V1401.22V1401.02L12.4135 1400.02ZM4.5095 1405.74L3.6135 1406.63H3.0215V1400.52L3.5175 1400.02L4.5095 1401V1401.22V1402.49V1405.74ZM10.9095 1406.26L11.6455 1407L10.9095 1407.74H10.6855H9.4535H8.8135L8.3815 1407.02L8.8295 1406.26H9.2455H10.9095ZM18.084 1407.74L17.348 1407L18.084 1406.26H19.748H20.164L20.596 1407.02L20.164 1407.74H18.308H18.084ZM17.108 1399.5L17.604 1399H24.452L24.948 1399.5L23.972 1400.49H23.94H21.764H20.292H18.116H18.084L17.108 1399.5ZM16.58 1413.98L16.084 1413.48V1407.37H16.676L16.82 1407.53L17.572 1408.26V1411.51V1412.78V1413L16.58 1413.98ZM24.948 1414.5L24.452 1415H17.604L17.108 1414.5L18.084 1413.51H18.116H20.292H21.764H23.94H23.972L24.948 1414.5ZM24.484 1408.26L25.38 1407.37H25.972V1413.48L25.476 1413.98L24.484 1413V1412.78V1411.51V1408.26ZM25.476 1400.02L25.972 1400.52V1406.63H25.38L24.484 1405.74V1405.29V1402.49V1401.22V1401.02L25.476 1400.02ZM17.572 1405.74L16.676 1406.63H16.084V1400.52L16.58 1400.02L17.572 1401V1401.22V1402.49V1405.74ZM23.972 1406.26L24.708 1407L23.972 1407.74H23.748H22.516H21.876L21.444 1407.02L21.892 1406.26H22.308H23.972Z" fill="#FF0000"/>
</svg>
