<svg width="64" height="87" viewBox="0 0 64 87" fill="none" xmlns="http://www.w3.org/2000/svg">
<path d="M7.955 21.976L7.459 21.48V15.368H8.051L8.195 15.528L8.947 16.264V19.512V20.776V21L7.955 21.976ZM16.323 22.504L15.827 23H8.979L8.483 22.504L9.459 21.512H9.491H11.667H13.139H15.315H15.347L16.323 22.504ZM8.947 13.736L8.051 14.632H7.459V8.52L7.955 8.024L8.947 9V9.224V10.488V13.736ZM22.5215 15.736L21.7855 15L22.5215 14.264H24.1855H24.6015L25.0335 15.016L24.6015 15.736H22.7455H22.5215ZM21.5455 7.496L22.0415 7H28.8895L29.3855 7.496L28.4095 8.488H28.3775H26.2015H24.7295H22.5535H22.5215L21.5455 7.496ZM21.0175 21.976L20.5215 21.48V15.368H21.1135L21.2575 15.528L22.0095 16.264V19.512V20.776V21L21.0175 21.976ZM28.9215 16.264L29.8175 15.368H30.4095V21.48L29.9135 21.976L28.9215 21V20.776V19.512V16.264ZM29.9135 8.024L30.4095 8.52V14.632H29.8175L28.9215 13.736V13.288V10.488V9.224V9.016L29.9135 8.024ZM22.0095 13.736L21.1135 14.632H20.5215V8.52L21.0175 8.024L22.0095 9V9.224V10.488V13.736ZM28.4095 14.264L29.1455 15L28.4095 15.736H28.1855H26.9535H26.3135L25.8815 15.016L26.3295 14.264H26.7455H28.4095ZM35.584 15.736L34.848 15L35.584 14.264H37.248H37.664L38.096 15.016L37.664 15.736H35.808H35.584ZM37.04 13.512H36.816L35.808 11.768V9.224H36.048L37.04 10.952V13.512ZM34.608 7.496L35.104 7H41.952L42.448 7.496L41.472 8.488H41.44H39.264H37.792H35.616H35.584L34.608 7.496ZM40.016 16.488H40.24L41.248 18.232V20.776H41.008L40.016 19.048V16.488ZM42.448 22.504L41.952 23H35.104L34.608 22.504L35.584 21.512H35.616H37.792H39.264H41.44H41.472L42.448 22.504ZM41.984 16.264L42.88 15.368H43.472V21.48L42.976 21.976L41.984 21V20.776V19.512V16.264ZM35.072 13.736L34.176 14.632H33.584V8.52L34.08 8.024L35.072 9V9.224V10.488V13.736ZM41.472 14.264L42.208 15L41.472 15.736H41.248H40.016H39.376L38.944 15.016L39.392 14.264H39.808H41.472ZM52.3265 20.488V20.776H50.8545V17.768V17.032L51.5905 15.752L52.3265 17.048V17.768V20.488ZM47.6705 7.496L48.1665 7H55.0145L55.5105 7.496L54.5345 8.488H54.5025H52.3265H50.8545H48.6785H48.6465L47.6705 7.496ZM50.8545 9.224H52.3265V12.232V12.968L51.5905 14.264L50.8545 13V12.232V9.224Z" fill="#FF0000"/>
<path d="M21.0175 50.976L20.5215 50.48V44.368H21.1135L21.2575 44.528L22.0095 45.264V48.512V49.776V50L21.0175 50.976ZM29.3855 51.504L28.8895 52H22.0415L21.5455 51.504L22.5215 50.512H22.5535H24.7295H26.2015H28.3775H28.4095L29.3855 51.504ZM22.0095 42.736L21.1135 43.632H20.5215V37.52L21.0175 37.024L22.0095 38V38.224V39.488V42.736ZM34.608 36.496L35.104 36H41.952L42.448 36.496L41.472 37.488H41.44H39.264H37.792H35.616H35.584L34.608 36.496ZM34.08 50.976L33.584 50.48V44.368H34.176L34.32 44.528L35.072 45.264V48.512V49.776V50L34.08 50.976ZM42.448 51.504L41.952 52H35.104L34.608 51.504L35.584 50.512H35.616H37.792H39.264H41.44H41.472L42.448 51.504ZM41.984 45.264L42.88 44.368H43.472V50.48L42.976 50.976L41.984 50V49.776V48.512V45.264ZM42.976 37.024L43.472 37.52V43.632H42.88L41.984 42.736V42.288V39.488V38.224V38.016L42.976 37.024ZM35.072 42.736L34.176 43.632H33.584V37.52L34.08 37.024L35.072 38V38.224V39.488V42.736ZM50.1025 45.488V48.048L49.1105 49.776H48.8705V47.232L49.8785 45.488H50.1025ZM53.0785 45.488H53.3025L54.3105 47.232V49.776H54.0705L53.0785 48.048V45.488ZM50.8545 38.224H52.3265V41.232V41.968L51.5905 43.264L50.8545 42V41.232V38.224ZM47.1425 50.976L46.6465 50.48V44.368H47.2385L47.3825 44.528L48.1345 45.264V48.512V49.776V50L47.1425 50.976ZM55.0465 45.264L55.9425 44.368H56.5345V50.48L56.0385 50.976L55.0465 50V49.776V48.512V45.264ZM56.0385 37.024L56.5345 37.52V43.632H55.9425L55.0465 42.736V42.288V39.488V38.224V38.016L56.0385 37.024ZM48.1345 42.736L47.2385 43.632H46.6465V37.52L47.1425 37.024L48.1345 38V38.224V39.488V42.736Z" fill="#FF0000"/>
<path d="M9.459 73.736L8.723 73L9.459 72.264H11.123H11.539L11.971 73.016L11.539 73.736H9.683H9.459ZM7.955 79.976L7.459 79.48V73.368H8.051L8.195 73.528L8.947 74.264V77.512V78.776V79L7.955 79.976ZM15.859 74.264L16.755 73.368H17.347V79.48L16.851 79.976L15.859 79V78.776V77.512V74.264ZM16.851 66.024L17.347 66.52V72.632H16.755L15.859 71.736V71.288V68.488V67.224V67.016L16.851 66.024ZM8.947 71.736L8.051 72.632H7.459V66.52L7.955 66.024L8.947 67V67.224V68.488V71.736ZM15.347 72.264L16.083 73L15.347 73.736H15.123H13.891H13.251L12.819 73.016L13.267 72.264H13.683H15.347ZM26.2015 78.488V78.776H24.7295V75.768V75.032L25.4655 73.752L26.2015 75.048V75.768V78.488ZM21.5455 65.496L22.0415 65H28.8895L29.3855 65.496L28.4095 66.488H28.3775H26.2015H24.7295H22.5535H22.5215L21.5455 65.496ZM24.7295 67.224H26.2015V70.232V70.968L25.4655 72.264L24.7295 71V70.232V67.224ZM29.3855 80.504L28.8895 81H22.0415L21.5455 80.504L22.5215 79.512H22.5535H24.7295H26.2015H28.3775H28.4095L29.3855 80.504ZM34.608 65.496L35.104 65H41.952L42.448 65.496L41.472 66.488H41.44H39.264H37.792H35.616H35.584L34.608 65.496ZM34.08 79.976L33.584 79.48V73.368H34.176L34.32 73.528L35.072 74.264V77.512V78.776V79L34.08 79.976ZM42.448 80.504L41.952 81H35.104L34.608 80.504L35.584 79.512H35.616H37.792H39.264H41.44H41.472L42.448 80.504ZM41.984 74.264L42.88 73.368H43.472V79.48L42.976 79.976L41.984 79V78.776V77.512V74.264ZM35.072 71.736L34.176 72.632H33.584V66.52L34.08 66.024L35.072 67V67.224V68.488V71.736ZM41.472 72.264L42.208 73L41.472 73.736H41.248H40.016H39.376L38.944 73.016L39.392 72.264H39.808H41.472ZM48.6465 73.736L47.9105 73L48.6465 72.264H50.3105H50.7265L51.1585 73.016L50.7265 73.736H48.8705H48.6465ZM47.1425 79.976L46.6465 79.48V73.368H47.2385L47.3825 73.528L48.1345 74.264V77.512V78.776V79L47.1425 79.976ZM55.0465 74.264L55.9425 73.368H56.5345V79.48L56.0385 79.976L55.0465 79V78.776V77.512V74.264ZM56.0385 66.024L56.5345 66.52V72.632H55.9425L55.0465 71.736V71.288V68.488V67.224V67.016L56.0385 66.024ZM48.1345 71.736L47.2385 72.632H46.6465V66.52L47.1425 66.024L48.1345 67V67.224V68.488V71.736ZM54.5345 72.264L55.2705 73L54.5345 73.736H54.3105H53.0785H52.4385L52.0065 73.016L52.4545 72.264H52.8705H54.5345Z" fill="#FF0000"/>
</svg>
