<?xml version="1.0" encoding="UTF-8" standalone="no"?>
<svg
   width="18"
   height="78"
   viewBox="0 0 18 78"
   fill="none"
   version="1.1"
   id="svg24"
   sodipodi:docname="button-slim-noise.svg"
   inkscape:version="1.4.3 (0d15f75042, 2025-12-25)"
   xmlns:inkscape="http://www.inkscape.org/namespaces/inkscape"
   xmlns:sodipodi="http://sodipodi.sourceforge.net/DTD/sodipodi-0.dtd"
   xmlns:xlink="http://www.w3.org/1999/xlink"
   xmlns="http://www.w3.org/2000/svg"
   xmlns:svg="http://www.w3.org/2000/svg">
  <sodipodi:namedview
     id="namedview24"
     pagecolor="#ffffff"
     bordercolor="#000000"
     borderopacity="0.25"
     inkscape:showpageshadow="2"
     inkscape:pageopacity="0.0"
     inkscape:pagecheckerboard="0"
     inkscape:deskcolor="#d1d1d1"
     inkscape:zoom="10.641026"
     inkscape:cx="8.9746988"
     inkscape:cy="23.963855"
     inkscape:window-width="1883"
     inkscape:window-height="1048"
     inkscape:window-x="37"
     inkscape:window-y="0"
     inkscape:window-maximized="1"
     inkscape:current-layer="svg24" />
  <rect
     width="18"
     height="78"
     fill="black"
     fill-opacity="0.01"
     id="rect1" />
  <rect
     x="1.5"
     y="1.5"
     width="15"
     height="10"
     rx="1.5"
     fill="#817F7E"
     stroke="#242424"
     id="rect2" />
  <path
     id="rect3"
     d="m 4,3 h 10 c 0.554,0 1,0.446 1,1 v 5 c 0,0.554 -0.446,1 -1,1 H 4 C 3.446,10 3,9.554 3,9 V 4 C 3,3.446 3.446,3 4,3 Z"
     style="fill:url(#radialGradient26)" />
  <rect
     x="1.5"
     y="14.5"
     width="15"
     height="10"
     rx="1.5"
     fill="#626363"
     stroke="#242424"
     id="rect4" />
  <path
     id="rect5"
     d="m 4,16 h 10 c 0.554,0 1,0.446 1,1 v 5 c 0,0.554 -0.446,1 -1,1 H 4 C 3.446,23 3,22.554 3,22 v -5 c 0,-0.554 0.446,-1 1,-1 z"
     style="fill:url(#radialGradient28)" />
  <rect
     x="1.5"
     y="27.5"
     width="15"
     height="10"
     rx="1.5"
     fill="#693F5B"
     stroke="#242424"
     id="rect6" />
  <path
     id="rect7"
     d="m 4,29 h 10 c 0.554,0 1,0.446 1,1 v 5 c 0,0.554 -0.446,1 -1,1 H 4 C 3.446,36 3,35.554 3,35 v -5 c 0,-0.554 0.446,-1 1,-1 z"
     style="fill:url(#radialGradient30)" />
  <rect
     x="1.5"
     y="40.5"
     width="15"
     height="10"
     rx="1.5"
     fill="#4D3344"
     stroke="#242424"
     id="rect8" />
  <path
     id="rect9"
     d="m 4,42 h 10 c 0.554,0 1,0.446 1,1 v 5 c 0,0.554 -0.446,1 -1,1 H 4 C 3.446,49 3,48.554 3,48 v -5 c 0,-0.554 0.446,-1 1,-1 z"
     style="fill:url(#radialGradient32)" />
  <rect
     x="1.5"
     y="53.5"
     width="15"
     height="10"
     rx="1.5"
     fill="#461818"
     stroke="#242424"
     id="rect10" />
  <path
     id="rect11"
     style="fill:url(#paint4_radial_51_809)"
     d="m 4,55 h 10 c 0.554,0 1,0.446 1,1 v 5 c 0,0.554 -0.446,1 -1,1 H 4 C 3.446,62 3,61.554 3,61 v -5 c 0,-0.554 0.446,-1 1,-1 z" />
  <rect
     x="1.5"
     y="66.5"
     width="15"
     height="10"
     rx="1.5"
     fill="#331212"
     stroke="#242424"
     id="rect12" />
  <path
     id="rect13"
     style="fill:url(#paint5_radial_51_809)"
     d="m 4,68 h 10 c 0.554,0 1,0.446 1,1 v 5 c 0,0.554 -0.446,1 -1,1 H 4 C 3.446,75 3,74.554 3,74 v -5 c 0,-0.554 0.446,-1 1,-1 z" />
  <defs
     id="defs24">
    <linearGradient
       id="linearGradient30"
       inkscape:collect="always">
      <stop
         style="stop-color:#df9fc9;stop-opacity:0.75;"
         offset="0"
         id="stop31" />
      <stop
         style="stop-color:#aa6192;stop-opacity:0.75;"
         offset="1"
         id="stop32" />
    </linearGradient>
    <linearGradient
       id="linearGradient28"
       inkscape:collect="always">
      <stop
         style="stop-color:#df9fc9;stop-opacity:1;"
         offset="0"
         id="stop29" />
      <stop
         style="stop-color:#aa6192;stop-opacity:1;"
         offset="1"
         id="stop30" />
    </linearGradient>
    <linearGradient
       id="linearGradient26"
       inkscape:collect="always">
      <stop
         style="stop-color:#ececec;stop-opacity:0.75;"
         offset="0"
         id="stop27" />
      <stop
         style="stop-color:#aeaaa4;stop-opacity:0.75;"
         offset="1"
         id="stop28" />
    </linearGradient>
    <linearGradient
       id="linearGradient24"
       inkscape:collect="always">
      <stop
         style="stop-color:#ececec;stop-opacity:1;"
         offset="0"
         id="stop25" />
      <stop
         style="stop-color:#aeaaa4;stop-opacity:1;"
         offset="1"
         id="stop26" />
    </linearGradient>
    <radialGradient
       id="paint1_radial_51_809"
       cx="0"
       cy="0"
       r="1"
       gradientUnits="userSpaceOnUse"
       gradientTransform="translate(9 19.5) rotate(90) scale(3.5 7.61279)">
      <stop
         stop-color="white"
         stop-opacity="0.75"
         id="stop15" />
      <stop
         offset="1"
         stop-color="#BFBBB5"
         stop-opacity="0.75"
         id="stop16"
         style="stop-color:#b5b1ab;stop-opacity:0.75;" />
    </radialGradient>
    <radialGradient
       id="paint2_radial_51_809"
       cx="0"
       cy="0"
       r="1"
       gradientUnits="userSpaceOnUse"
       gradientTransform="translate(9 32.5) rotate(90) scale(3.5 7.61279)">
      <stop
         stop-color="#DF9FC9"
         id="stop17" />
      <stop
         offset="1"
         stop-color="#D279B4"
         id="stop18"
         style="stop-color:#bf6ea4;stop-opacity:1;" />
    </radialGradient>
    <radialGradient
       id="paint3_radial_51_809"
       cx="0"
       cy="0"
       r="1"
       gradientUnits="userSpaceOnUse"
       gradientTransform="translate(9 45.5) rotate(90) scale(3.5 7.61279)">
      <stop
         stop-color="#DF9FC9"
         stop-opacity="0.75"
         id="stop19" />
      <stop
         offset="1"
         stop-color="#D279B4"
         stop-opacity="0.75"
         id="stop20" />
    </radialGradient>
    <radialGradient
       id="paint4_radial_51_809"
       cx="0"
       cy="0"
       r="1"
       gradientUnits="userSpaceOnUse"
       gradientTransform="translate(9 58.5) rotate(90) scale(3.5 7.61279)">
      <stop
         stop-color="#FF0000"
         id="stop21" />
      <stop
         offset="1"
         stop-color="#730505"
         id="stop22" />
    </radialGradient>
    <radialGradient
       id="paint5_radial_51_809"
       cx="0"
       cy="0"
       r="1"
       gradientUnits="userSpaceOnUse"
       gradientTransform="translate(9 71.5) rotate(90) scale(3.5 7.61279)">
      <stop
         stop-color="#FF0000"
         stop-opacity="0.75"
         id="stop23" />
      <stop
         offset="1"
         stop-color="#730505"
         stop-opacity="0.75"
         id="stop24" />
    </radialGradient>
    <radialGradient
       inkscape:collect="always"
       xlink:href="#linearGradient24"
       id="radialGradient26"
       cx="9"
       cy="6.5"
       fx="9"
       fy="6.5"
       r="6"
       gradientTransform="matrix(1,0,0,0.58333333,0,2.7083333)"
       gradientUnits="userSpaceOnUse" />
    <radialGradient
       inkscape:collect="always"
       xlink:href="#linearGradient26"
       id="radialGradient28"
       cx="9"
       cy="19.5"
       fx="9"
       fy="19.5"
       r="6"
       gradientTransform="matrix(1,0,0,0.58333333,0,8.125)"
       gradientUnits="userSpaceOnUse" />
    <radialGradient
       inkscape:collect="always"
       xlink:href="#linearGradient28"
       id="radialGradient30"
       cx="9"
       cy="32.5"
       fx="9"
       fy="32.5"
       r="6"
       gradientTransform="matrix(1,0,0,0.58333333,0,13.541667)"
       gradientUnits="userSpaceOnUse" />
    <radialGradient
       inkscape:collect="always"
       xlink:href="#linearGradient30"
       id="radialGradient32"
       cx="9"
       cy="45.5"
       fx="9"
       fy="45.5"
       r="6"
       gradientTransform="matrix(1,0,0,0.58333333,0,18.958333)"
       gradientUnits="userSpaceOnUse" />
  </defs>
</svg>
