<?xml version="1.0" encoding="UTF-8" standalone="no"?>
<svg
   width="11"
   height="44"
   viewBox="0 0 11 44"
   fill="none"
   version="1.1"
   id="svg14"
   sodipodi:docname="button-keytrack.svg"
   inkscape:version="1.4.3 (0d15f75042, 2025-12-25)"
   xmlns:inkscape="http://www.inkscape.org/namespaces/inkscape"
   xmlns:sodipodi="http://sodipodi.sourceforge.net/DTD/sodipodi-0.dtd"
   xmlns="http://www.w3.org/2000/svg"
   xmlns:svg="http://www.w3.org/2000/svg">
  <defs
     id="defs14" />
  <sodipodi:namedview
     id="namedview14"
     pagecolor="#ffffff"
     bordercolor="#000000"
     borderopacity="0.25"
     inkscape:showpageshadow="2"
     inkscape:pageopacity="0.0"
     inkscape:pagecheckerboard="0"
     inkscape:deskcolor="#d1d1d1"
     inkscape:zoom="26.67721"
     inkscape:cx="2.0429423"
     inkscape:cy="14.094427"
     inkscape:window-width="1883"
     inkscape:window-height="1048"
     inkscape:window-x="37"
     inkscape:window-y="0"
     inkscape:window-maximized="1"
     inkscape:current-layer="svg14" />
  <rect
     x="0.5"
     y="0.5"
     width="10"
     height="43"
     stroke="black"
     stroke-opacity="0.01"
     id="rect1" />
  <rect
     x="1.5"
     y="1.5"
     width="8"
     height="8"
     rx="1.5"
     id="rect2"
     style="stroke:#697b7f;stroke-opacity:1" />
  <rect
     x="3.625"
     y="5.5"
     width="0.75"
     height="4.125"
     id="rect3"
     style="fill:#697b7f;fill-opacity:1" />
  <rect
     x="6.625"
     y="5.5"
     width="0.75"
     height="4.125"
     id="rect4"
     style="fill:#697b7f;fill-opacity:1" />
  <path
     d="M2.875 1.375H5.125V4.875C5.125 5.42728 4.67728 5.875 4.125 5.875H3.875C3.32272 5.875 2.875 5.42728 2.875 4.875V1.375Z"
     id="path4"
     style="fill:#697b7f;fill-opacity:1" />
  <path
     d="M5.875 1.375H8.125V4.875C8.125 5.42728 7.67728 5.875 7.125 5.875H6.875C6.32272 5.875 5.875 5.42728 5.875 4.875V1.375Z"
     id="path5"
     style="fill:#697b7f;fill-opacity:1" />
  <rect
     x="1.5"
     y="12.5"
     width="8"
     height="8"
     rx="1.5"
     id="rect5"
     style="stroke:#697b7f;stroke-opacity:1" />
  <rect
     x="3.625"
     y="16.5"
     width="0.75"
     height="4.125"
     id="rect6"
     style="fill:#697b7f;fill-opacity:1" />
  <rect
     x="6.625"
     y="16.5"
     width="0.75"
     height="4.125"
     id="rect7"
     style="fill:#697b7f;fill-opacity:1" />
  <path
     d="M2.875 12.375H5.125V15.875C5.125 16.4273 4.67728 16.875 4.125 16.875H3.875C3.32272 16.875 2.875 16.4273 2.875 15.875V12.375Z"
     id="path7"
     style="fill:#697b7f;fill-opacity:1" />
  <path
     d="M5.875 12.375H8.125V15.875C8.125 16.4273 7.67728 16.875 7.125 16.875H6.875C6.32272 16.875 5.875 16.4273 5.875 15.875V12.375Z"
     id="path8"
     style="fill:#697b7f;fill-opacity:1" />
  <path
     id="rect8"
     style="stroke:#cbbda8"
     d="m 3,23.5 h 5 c 0.831,0 1.5,0.669 1.5,1.5 v 5 c 0,0.831 -0.669,1.5 -1.5,1.5 H 3 C 2.169,31.5 1.5,30.831 1.5,30 v -5 c 0,-0.831 0.669,-1.5 1.5,-1.5 z" />
  <path
     id="rect9"
     style="fill:#cbbda8"
     d="m 3.625,27.5 h 0.75 v 4.125 h -0.75 z" />
  <path
     id="rect10"
     style="fill:#cbbda8"
     d="m 6.625,27.5 h 0.75 v 4.125 h -0.75 z" />
  <path
     d="M2.875 23.375H5.125V26.875C5.125 27.4273 4.67728 27.875 4.125 27.875H3.875C3.32272 27.875 2.875 27.4273 2.875 26.875V23.375Z"
     id="path10"
     style="fill:#cbbda8;fill-opacity:1" />
  <path
     d="M5.875 23.375H8.125V26.875C8.125 27.4273 7.67728 27.875 7.125 27.875H6.875C6.32272 27.875 5.875 27.4273 5.875 26.875V23.375Z"
     id="path11"
     style="fill:#cbbda8;fill-opacity:1" />
  <path
     id="rect11"
     style="stroke:#cbbda8"
     d="m 3,34.5 h 5 c 0.831,0 1.5,0.669 1.5,1.5 v 5 c 0,0.831 -0.669,1.5 -1.5,1.5 H 3 C 2.169,42.5 1.5,41.831 1.5,41 v -5 c 0,-0.831 0.669,-1.5 1.5,-1.5 z" />
  <path
     id="rect12"
     style="fill:#cbbda8"
     d="m 3.625,38.5 h 0.75 v 4.125 h -0.75 z" />
  <path
     id="rect13"
     style="fill:#cbbda8"
     d="m 6.625,38.5 h 0.75 v 4.125 h -0.75 z" />
  <path
     d="M2.875 34.375H5.125V37.875C5.125 38.4273 4.67728 38.875 4.125 38.875H3.875C3.32272 38.875 2.875 38.4273 2.875 37.875V34.375Z"
     id="path13"
     style="fill:#cbbda8;fill-opacity:1" />
  <path
     d="M5.875 34.375H8.125V37.875C8.125 38.4273 7.67728 38.875 7.125 38.875H6.875C6.32272 38.875 5.875 38.4273 5.875 37.875V34.375Z"
     id="path14"
     style="fill:#cbbda8;fill-opacity:1" />
</svg>
