<?xml version="1.0" encoding="UTF-8" standalone="no"?>
<svg
   width="23"
   height="70"
   viewBox="0 0 23 70"
   fill="none"
   version="1.1"
   id="svg9"
   sodipodi:docname="button-clear-red.svg"
   inkscape:version="1.4.3 (0d15f75042, 2025-12-25)"
   xmlns:inkscape="http://www.inkscape.org/namespaces/inkscape"
   xmlns:sodipodi="http://sodipodi.sourceforge.net/DTD/sodipodi-0.dtd"
   xmlns="http://www.w3.org/2000/svg"
   xmlns:svg="http://www.w3.org/2000/svg">
  <defs
     id="defs9" />
  <sodipodi:namedview
     id="namedview9"
     pagecolor="#ffffff"
     bordercolor="#000000"
     borderopacity="0.25"
     inkscape:showpageshadow="2"
     inkscape:pageopacity="0.0"
     inkscape:pagecheckerboard="0"
     inkscape:deskcolor="#d1d1d1"
     inkscape:zoom="5.9285714"
     inkscape:cx="-1.4337349"
     inkscape:cy="32.722892"
     inkscape:window-width="1883"
     inkscape:window-height="1048"
     inkscape:window-x="37"
     inkscape:window-y="0"
     inkscape:window-maximized="1"
     inkscape:current-layer="svg9" />
  <rect
     y="35"
     width="23"
     height="35"
     id="rect1"
     style="fill:#96262a;fill-opacity:1" />
  <path
     d="M3 53H20V68H3V53Z"
     id="path1"
     style="fill:#912628;fill-opacity:1" />
  <path
     d="M0 48H23L20 53H3L0 48Z"
     id="path2"
     style="fill:#d95458;fill-opacity:1" />
  <path
     d="M0 70L0 48L3 53L3 68L0 70Z"
     id="path3"
     style="fill:#701d20;fill-opacity:1" />
  <path
     d="M23 70V48L20 53V68L23 70Z"
     id="path4"
     style="fill:#781e21;fill-opacity:1" />
  <path
     d="M23 69.9953L20 67.9953L3 68L0 69.9953H23Z"
     id="path5"
     style="fill:#571619;fill-opacity:1" />
  <rect
     width="23"
     height="35"
     id="rect5"
     style="fill:#a82c2e;fill-opacity:1" />
  <rect
     x="3"
     y="17"
     width="17"
     height="15"
     id="rect6"
     style="fill:#9c282c;fill-opacity:1" />
  <path
     d="M0 13H23L20 17H3L0 13Z"
     id="path6"
     style="fill:#ce5054;fill-opacity:1" />
  <path
     d="M0 35H23L20 32H3L0 35Z"
     id="path7"
     style="fill:#661a1b;fill-opacity:1" />
  <path
     d="M0 35L0 13L3 17L3 32L0 35Z"
     id="path8"
     style="fill:#802023;fill-opacity:1" />
  <path
     d="M23 35V13L20 17V32L23 35Z"
     id="path9"
     style="fill:#872323;fill-opacity:1" />
</svg>
