<svg width="23" height="70" viewBox="0 0 23 70" fill="none" xmlns="http://www.w3.org/2000/svg">
<rect y="35" width="23" height="35" fill="#B6B1AA"/>
<path d="M3 53H20V68H3V53Z" fill="#9D9A95"/>
<path d="M0 48H23L20 53H3L0 48Z" fill="#EAE7E1"/>
<path d="M0 70L0 48L3 53L3 68L0 70Z" fill="#626363"/>
<path d="M23 70V48L20 53V68L23 70Z" fill="#626363"/>
<path d="M23 69.9953L20 67.9953L3 68L0 69.9953H23Z" fill="#393939"/>
<rect width="23" height="35" fill="#BFBBB5"/>
<rect x="3" y="17" width="17" height="15" fill="#A7A4A0"/>
<path d="M0 13H23L20 17H3L0 13Z" fill="#DBD5CB"/>
<path d="M0 35H23L20 32H3L0 35Z" fill="#58585C"/>
<path d="M0 35L0 13L3 17L3 32L0 35Z" fill="#817F7E"/>
<path d="M23 35V13L20 17V32L23 35Z" fill="#817F7E"/>
</svg>
