<?xml version="1.0" encoding="UTF-8" standalone="no"?>
<svg
   width="11"
   height="44"
   viewBox="0 0 11 44"
   fill="none"
   version="1.1"
   id="svg4"
   sodipodi:docname="button-bipolar.svg"
   inkscape:version="1.4.3 (0d15f75042, 2025-12-25)"
   xmlns:inkscape="http://www.inkscape.org/namespaces/inkscape"
   xmlns:sodipodi="http://sodipodi.sourceforge.net/DTD/sodipodi-0.dtd"
   xmlns="http://www.w3.org/2000/svg"
   xmlns:svg="http://www.w3.org/2000/svg">
  <defs
     id="defs4" />
  <sodipodi:namedview
     id="namedview4"
     pagecolor="#ffffff"
     bordercolor="#000000"
     borderopacity="0.25"
     inkscape:showpageshadow="2"
     inkscape:pageopacity="0.0"
     inkscape:pagecheckerboard="0"
     inkscape:deskcolor="#d1d1d1"
     inkscape:zoom="18.863636"
     inkscape:cx="5.4867471"
     inkscape:cy="13.518073"
     inkscape:window-width="1883"
     inkscape:window-height="1048"
     inkscape:window-x="37"
     inkscape:window-y="0"
     inkscape:window-maximized="1"
     inkscape:current-layer="svg4" />
  <rect
     x="0.5"
     y="0.5"
     width="10"
     height="43"
     stroke="black"
     stroke-opacity="0.01"
     id="rect1" />
  <path
     d="M8 9V9.5H3V9H8ZM5.75 1.5V3.75H8V4.25H5.75V6.5H5.25V4.25H3V3.75H5.25V1.5H5.75Z"
     id="path1"
     style="fill:#697b7f;fill-opacity:1;stroke:#697b7f;stroke-opacity:1" />
  <path
     d="M8 20V20.5H3V20H8ZM5.75 12.5V14.75H8V15.25H5.75V17.5H5.25V15.25H3V14.75H5.25V12.5H5.75Z"
     id="path2"
     style="fill:#697b7f;fill-opacity:1;stroke:#697b7f;stroke-opacity:1" />
  <path
     d="M8 31V31.5H3V31H8ZM5.75 23.5V25.75H8V26.25H5.75V28.5H5.25V26.25H3V25.75H5.25V23.5H5.75Z"
     id="path3"
     style="fill:#cbbda8;fill-opacity:1;stroke:#cbbda8;stroke-opacity:1" />
  <path
     fill="white"
     id="path4"
     style="stroke:#cbbda8;stroke-opacity:1;fill:#cbbda8;fill-opacity:1"
     d="M8 42V42.5H3V42H8ZM5.75 34.5V36.75H8V37.25H5.75V39.5H5.25V37.25H3V36.75H5.25V34.5H5.75Z" />
</svg>
