<?xml version="1.0" encoding="UTF-8" standalone="no"?>
<svg
   width="23"
   height="210"
   viewBox="0 0 23 210"
   fill="none"
   version="1.1"
   id="svg31"
   sodipodi:docname="button-dual.svg"
   inkscape:version="1.4.3 (0d15f75042, 2025-12-25)"
   xmlns:inkscape="http://www.inkscape.org/namespaces/inkscape"
   xmlns:sodipodi="http://sodipodi.sourceforge.net/DTD/sodipodi-0.dtd"
   xmlns="http://www.w3.org/2000/svg"
   xmlns:svg="http://www.w3.org/2000/svg">
  <defs
     id="defs31" />
  <sodipodi:namedview
     id="namedview31"
     pagecolor="#ffffff"
     bordercolor="#000000"
     borderopacity="0.25"
     inkscape:showpageshadow="2"
     inkscape:pageopacity="0.0"
     inkscape:pagecheckerboard="0"
     inkscape:deskcolor="#d1d1d1"
     inkscape:zoom="7.904762"
     inkscape:cx="-3.6054217"
     inkscape:cy="144.09036"
     inkscape:window-width="1883"
     inkscape:window-height="1048"
     inkscape:window-x="37"
     inkscape:window-y="0"
     inkscape:window-maximized="1"
     inkscape:current-layer="svg31" />
  <rect
     y="175"
     width="23"
     height="35"
     id="rect1-0"
     style="fill:#505f62;fill-opacity:1"
     x="0" />
  <path
     d="m 3,193 h 17 v 15 H 3 Z"
     id="path1-9"
     style="fill:#4b585a;fill-opacity:1" />
  <path
     d="m 0,188 h 23 l -3,5 H 3 Z"
     id="path2-3"
     style="fill:#7e8b93;fill-opacity:1" />
  <path
     d="m 0,210 v -22 l 3,5 v 15 z"
     id="path3-6"
     style="fill:#43494b;fill-opacity:1" />
  <path
     d="m 23,210 v -22 l -3,5 v 15 z"
     id="path4-0"
     style="fill:#424b4c;fill-opacity:1" />
  <path
     d="m 23,209.9953 -3,-2 -17,0.005 -3,1.9953 z"
     id="path5-6"
     style="fill:#2b3033;fill-opacity:1" />
  <rect
     width="23"
     height="35"
     id="rect5-2"
     style="fill:#5a6a6d;fill-opacity:1"
     x="0"
     y="140" />
  <rect
     x="3"
     y="157"
     width="17"
     height="15"
     id="rect6-6"
     style="fill:#536365;fill-opacity:1" />
  <path
     d="m 0,153 h 23 l -3,4 H 3 Z"
     id="path6-1"
     style="fill:#738086;fill-opacity:1" />
  <path
     d="m 0,175 h 23 l -3,-3 H 3 Z"
     id="path7-8"
     style="fill:#31373a;fill-opacity:1" />
  <path
     d="m 0,175 v -22 l 3,4 v 15 z"
     id="path8-7"
     style="fill:#4d5456;fill-opacity:1" />
  <path
     d="m 23,175 v -22 l -3,4 v 15 z"
     id="path9-9"
     style="fill:#515b5d;fill-opacity:1" />
  <circle
     cx="6.5"
     cy="182.5"
     r="3.75"
     fill="#1D3F24"
     stroke="#191919"
     stroke-width="1.5"
     id="circle5" />
  <circle
     cx="16.5"
     cy="182.5"
     r="3.75"
     stroke="#191919"
     stroke-width="1.5"
     id="circle6"
     style="fill:#ff2b00;fill-opacity:1" />
  <circle
     cx="6.5"
     cy="146.5"
     r="3.75"
     fill="#1D3F24"
     stroke="#191919"
     stroke-width="1.5"
     id="circle10" />
  <circle
     cx="16.5"
     cy="146.5"
     r="3.75"
     stroke="#191919"
     stroke-width="1.5"
     id="circle11"
     style="fill:#ff2b00;fill-opacity:1" />
  <rect
     y="105"
     width="23"
     height="35"
     id="rect1-3"
     style="fill:#505f62;fill-opacity:1"
     x="0" />
  <path
     d="m 3,123 h 17 v 15 H 3 Z"
     id="path1-6"
     style="fill:#4b585a;fill-opacity:1" />
  <path
     d="m 0,118 h 23 l -3,5 H 3 Z"
     id="path2-7"
     style="fill:#7e8b93;fill-opacity:1" />
  <path
     d="m 0,140 v -22 l 3,5 v 15 z"
     id="path3-5"
     style="fill:#43494b;fill-opacity:1" />
  <path
     d="m 23,140 v -22 l -3,5 v 15 z"
     id="path4-3"
     style="fill:#424b4c;fill-opacity:1" />
  <path
     d="m 23,139.9953 -3,-2 -17,0.005 -3,1.9953 z"
     id="path5-5"
     style="fill:#2b3033;fill-opacity:1" />
  <rect
     width="23"
     height="35"
     id="rect5-6"
     style="fill:#5a6a6d;fill-opacity:1"
     x="0"
     y="70" />
  <rect
     x="3"
     y="87"
     width="17"
     height="15"
     id="rect6-2"
     style="fill:#536365;fill-opacity:1" />
  <path
     d="m 0,83 h 23 l -3,4 H 3 Z"
     id="path6-9"
     style="fill:#738086;fill-opacity:1" />
  <path
     d="m 0,105 h 23 l -3,-3 H 3 Z"
     id="path7-1"
     style="fill:#31373a;fill-opacity:1" />
  <path
     d="M 0,105 V 83 l 3,4 v 15 z"
     id="path8-2"
     style="fill:#4d5456;fill-opacity:1" />
  <path
     d="M 23,105 V 83 l -3,4 v 15 z"
     id="path9-7"
     style="fill:#515b5d;fill-opacity:1" />
  <circle
     cx="6.5"
     cy="112.5"
     r="3.75"
     fill="#33FF33"
     stroke="#191919"
     stroke-width="1.5"
     id="circle15" />
  <circle
     cx="16.5"
     cy="112.5"
     r="3.75"
     fill="#301010"
     stroke="#191919"
     stroke-width="1.5"
     id="circle16" />
  <circle
     cx="6.5"
     cy="76.5"
     r="3.75"
     fill="#33FF33"
     stroke="#191919"
     stroke-width="1.5"
     id="circle20" />
  <circle
     cx="16.5"
     cy="76.5"
     r="3.75"
     fill="#301010"
     stroke="#191919"
     stroke-width="1.5"
     id="circle21" />
  <rect
     y="35"
     width="23"
     height="35"
     id="rect1"
     style="fill:#505f62;fill-opacity:1"
     x="0" />
  <path
     d="M 3,53 H 20 V 68 H 3 Z"
     id="path1"
     style="fill:#4b585a;fill-opacity:1" />
  <path
     d="m 0,48 h 23 l -3,5 H 3 Z"
     id="path2"
     style="fill:#7e8b93;fill-opacity:1" />
  <path
     d="M 0,70 V 48 l 3,5 v 15 z"
     id="path3"
     style="fill:#43494b;fill-opacity:1" />
  <path
     d="M 23,70 V 48 l -3,5 v 15 z"
     id="path4"
     style="fill:#424b4c;fill-opacity:1" />
  <path
     d="m 23,69.9953 -3,-2 L 3,68 0,69.9953 Z"
     id="path5"
     style="fill:#2b3033;fill-opacity:1" />
  <rect
     width="23"
     height="35"
     id="rect5"
     style="fill:#5a6a6d;fill-opacity:1"
     x="0"
     y="0" />
  <rect
     x="3"
     y="17"
     width="17"
     height="15"
     id="rect6"
     style="fill:#536365;fill-opacity:1" />
  <path
     d="m 0,13 h 23 l -3,4 H 3 Z"
     id="path6"
     style="fill:#738086;fill-opacity:1" />
  <path
     d="M 0,35 H 23 L 20,32 H 3 Z"
     id="path7"
     style="fill:#31373a;fill-opacity:1" />
  <path
     d="M 0,35 V 13 l 3,4 v 15 z"
     id="path8"
     style="fill:#4d5456;fill-opacity:1" />
  <path
     d="M 23,35 V 13 l -3,4 v 15 z"
     id="path9"
     style="fill:#515b5d;fill-opacity:1" />
  <circle
     cx="6.5"
     cy="42.5"
     r="3.75"
     fill="#1D3F24"
     stroke="#191919"
     stroke-width="1.5"
     id="circle25" />
  <circle
     cx="16.5"
     cy="42.5"
     r="3.75"
     fill="#301010"
     stroke="#191919"
     stroke-width="1.5"
     id="circle26" />
  <circle
     cx="6.5"
     cy="6.5"
     r="3.75"
     fill="#1D3F24"
     stroke="#191919"
     stroke-width="1.5"
     id="circle30" />
  <circle
     cx="16.5"
     cy="6.5"
     r="3.75"
     fill="#301010"
     stroke="#191919"
     stroke-width="1.5"
     id="circle31" />
</svg>
