<?xml version="1.0" encoding="UTF-8" standalone="no"?>
<svg
   width="70"
   height="224"
   viewBox="0 0 70 224"
   fill="none"
   version="1.1"
   id="svg31"
   sodipodi:docname="label-filter-mode.svg"
   inkscape:version="1.4.3 (0d15f75042, 2025-12-25)"
   xmlns:inkscape="http://www.inkscape.org/namespaces/inkscape"
   xmlns:sodipodi="http://sodipodi.sourceforge.net/DTD/sodipodi-0.dtd"
   xmlns:xlink="http://www.w3.org/1999/xlink"
   xmlns="http://www.w3.org/2000/svg"
   xmlns:svg="http://www.w3.org/2000/svg">
  <sodipodi:namedview
     id="namedview31"
     pagecolor="#ffffff"
     bordercolor="#000000"
     borderopacity="0.25"
     inkscape:showpageshadow="2"
     inkscape:pageopacity="0.0"
     inkscape:pagecheckerboard="0"
     inkscape:deskcolor="#d1d1d1"
     inkscape:zoom="3.7053571"
     inkscape:cx="22.26506"
     inkscape:cy="131.43133"
     inkscape:window-width="1883"
     inkscape:window-height="1048"
     inkscape:window-x="37"
     inkscape:window-y="0"
     inkscape:window-maximized="1"
     inkscape:current-layer="svg31" />
  <rect
     width="70"
     height="224"
     fill="black"
     fill-opacity="0.01"
     id="rect1" />
  <path
     d="M26 7.57463C16.6588 11.2247 10 20.7175 10 31.8531C10 36.2435 11.0368 40.3777 12.8633 44H10.6182C8.94015 40.326 8 36.2054 8 31.8531C8 19.5345 15.5337 9.07454 26 5.33317V7.57463Z"
     id="path3"
     style="fill:#cbbda8;fill-opacity:1" />
  <path
     d="M42 5C52.9829 8.41693 61 19.1457 61 31.8531C61 36.2054 60.0598 40.326 58.3818 44H56.1367C57.9632 40.3777 59 36.2435 59 31.8531C59 20.3242 51.8621 10.5578 42 7.21154V5Z"
     id="path4"
     style="fill:#cbbda8;fill-opacity:1" />
  <path
     d="M56.4241 47.3345V52H55.4329V50.0688H53.6282V52H52.637V47.3345H53.6282V49.2383H55.4329V47.3345H56.4241ZM58.5124 50.3696V52H57.5212V47.3345H59.8488C60.2726 47.3345 60.5768 47.3641 60.7614 47.4233C61.0667 47.5259 61.3083 47.7389 61.486 48.0625C61.6182 48.304 61.6843 48.5672 61.6843 48.8521C61.6843 49.1392 61.6205 49.4069 61.4929 49.6553C61.3493 49.9378 61.1362 50.1395 60.8537 50.2603C60.6873 50.3332 60.439 50.3696 60.1086 50.3696H58.5124ZM58.5124 49.5391H59.8659C60.1074 49.5391 60.2772 49.5003 60.3752 49.4229C60.521 49.3066 60.5939 49.105 60.5939 48.8179C60.5939 48.5034 60.4834 48.3018 60.2624 48.2129C60.1826 48.181 60.0573 48.165 59.8864 48.165H58.5124V49.5391Z"
     id="path5"
     style="fill:#cbbda8;fill-opacity:1" />
  <path
     d="M32.9097 4.57861V8H31.9629V3.33447H33.2344L35.0903 6.81055V3.33447H36.0371V8H34.8135L32.9097 4.57861Z"
     id="path6"
     style="fill:#cbbda8;fill-opacity:1" />
  <path
     d="M9.5882 47.3345H10.5794V49.9526C10.5931 50.2853 10.6079 50.5063 10.6238 50.6157C10.6694 50.9028 10.8563 51.0749 11.1844 51.1318C11.3348 51.1569 11.5524 51.1694 11.8372 51.1694H12.7908V52H11.7347C11.2357 52.0023 10.8734 51.9738 10.6478 51.9146C10.1328 51.7642 9.80695 51.4372 9.67023 50.9336C9.61783 50.7399 9.59048 50.4129 9.5882 49.9526V47.3345ZM14.5065 50.3696V52H13.5153V47.3345H15.8429C16.2668 47.3345 16.571 47.3641 16.7555 47.4233C17.0609 47.5259 17.3024 47.7389 17.4802 48.0625C17.6123 48.304 17.6784 48.5672 17.6784 48.8521C17.6784 49.1392 17.6146 49.4069 17.487 49.6553C17.3434 49.9378 17.1304 50.1395 16.8478 50.2603C16.6815 50.3332 16.4331 50.3696 16.1027 50.3696H14.5065ZM14.5065 49.5391H15.86C16.1016 49.5391 16.2713 49.5003 16.3693 49.4229C16.5151 49.3066 16.5881 49.105 16.5881 48.8179C16.5881 48.5034 16.4776 48.3018 16.2565 48.2129C16.1768 48.181 16.0514 48.165 15.8805 48.165H14.5065V49.5391Z"
     id="path7"
     style="fill:#cbbda8;fill-opacity:1" />
  <path
     d="M26 63.5746C16.6588 67.2247 10 76.7175 10 87.8531C10 92.2435 11.0368 96.3777 12.8633 100H10.6182C8.94015 96.326 8 92.2054 8 87.8531C8 75.5345 15.5337 65.0745 26 61.3332V63.5746Z"
     id="path8"
     style="fill:#cbbda8;fill-opacity:1" />
  <path
     d="M42 61C52.9829 64.4169 61 75.1457 61 87.8531C61 92.2054 60.0598 96.326 58.3818 100H56.1367C57.9632 96.3777 59 92.2435 59 87.8531C59 76.3242 51.8621 66.5578 42 63.2115V61Z"
     id="path9"
     style="fill:#cbbda8;fill-opacity:1" />
  <path
     d="M56.4241 103.334V108H55.4329V106.069H53.6282V108H52.637V103.334H53.6282V105.238H55.4329V103.334H56.4241ZM58.5124 106.37V108H57.5212V103.334H59.8488C60.2726 103.334 60.5768 103.364 60.7614 103.423C61.0667 103.526 61.3083 103.739 61.486 104.063C61.6182 104.304 61.6843 104.567 61.6843 104.852C61.6843 105.139 61.6205 105.407 61.4929 105.655C61.3493 105.938 61.1362 106.139 60.8537 106.26C60.6873 106.333 60.439 106.37 60.1086 106.37H58.5124ZM58.5124 105.539H59.8659C60.1074 105.539 60.2772 105.5 60.3752 105.423C60.521 105.307 60.5939 105.105 60.5939 104.818C60.5939 104.503 60.4834 104.302 60.2624 104.213C60.1826 104.181 60.0573 104.165 59.8864 104.165H58.5124V105.539Z"
     style="fill:#cbbda8;fill-opacity:1"
     id="path10" />
  <path
     d="M29.5618 64V59.3345H32.2005C32.6129 59.3345 32.9137 59.3812 33.1029 59.4746C33.3193 59.5863 33.4845 59.7674 33.5985 60.0181C33.6782 60.1935 33.7181 60.3735 33.7181 60.5581C33.7181 60.8748 33.611 61.1574 33.3968 61.4058C33.2897 61.5265 33.1701 61.6143 33.0379 61.6689C33.4891 61.8763 33.7147 62.242 33.7147 62.7661C33.7147 63.0692 33.6429 63.3244 33.4993 63.5317C33.3239 63.7801 33.0561 63.9271 32.6961 63.9727C32.5457 63.9909 32.3612 64 32.1424 64H29.5618ZM30.553 61.252H31.9066C32.0843 61.252 32.2062 61.2394 32.2723 61.2144C32.3839 61.1711 32.4717 61.097 32.5355 60.9922C32.5924 60.8965 32.6209 60.7905 32.6209 60.6743C32.6209 60.4875 32.5526 60.3496 32.4158 60.2607C32.3179 60.1969 32.1549 60.165 31.9271 60.165H30.553V61.252ZM30.553 63.1694H31.9066C32.0843 63.1694 32.2062 63.1569 32.2723 63.1318C32.3839 63.0885 32.4717 63.0145 32.5355 62.9097C32.5924 62.814 32.6209 62.708 32.6209 62.5918C32.6209 62.4049 32.5526 62.2671 32.4158 62.1782C32.3179 62.1144 32.1549 62.0825 31.9271 62.0825H30.553V63.1694ZM35.5876 62.3696V64H34.5964V59.3345H36.924C37.3478 59.3345 37.652 59.3641 37.8366 59.4233C38.1419 59.5259 38.3835 59.7389 38.5612 60.0625C38.6934 60.304 38.7595 60.5672 38.7595 60.8521C38.7595 61.1392 38.6957 61.4069 38.568 61.6553C38.4245 61.9378 38.2114 62.1395 37.9289 62.2603C37.7625 62.3332 37.5142 62.3696 37.1838 62.3696H35.5876ZM35.5876 61.5391H36.9411C37.1826 61.5391 37.3524 61.5003 37.4504 61.4229C37.5962 61.3066 37.6691 61.105 37.6691 60.8179C37.6691 60.5034 37.5586 60.3018 37.3376 60.2129C37.2578 60.181 37.1325 60.165 36.9616 60.165H35.5876V61.5391Z"
     id="path11"
     style="fill:#cbbda8;fill-opacity:1" />
  <path
     d="M9.5882 103.334H10.5794V105.953C10.5931 106.285 10.6079 106.506 10.6238 106.616C10.6694 106.903 10.8563 107.075 11.1844 107.132C11.3348 107.157 11.5524 107.169 11.8372 107.169H12.7908V108H11.7347C11.2357 108.002 10.8734 107.974 10.6478 107.915C10.1328 107.764 9.80695 107.437 9.67023 106.934C9.61783 106.74 9.59048 106.413 9.5882 105.953V103.334ZM14.5065 106.37V108H13.5153V103.334H15.8429C16.2668 103.334 16.571 103.364 16.7555 103.423C17.0609 103.526 17.3024 103.739 17.4802 104.063C17.6123 104.304 17.6784 104.567 17.6784 104.852C17.6784 105.139 17.6146 105.407 17.487 105.655C17.3434 105.938 17.1304 106.139 16.8478 106.26C16.6815 106.333 16.4331 106.37 16.1027 106.37H14.5065ZM14.5065 105.539H15.86C16.1016 105.539 16.2713 105.5 16.3693 105.423C16.5151 105.307 16.5881 105.105 16.5881 104.818C16.5881 104.503 16.4776 104.302 16.2565 104.213C16.1768 104.181 16.0514 104.165 15.8805 104.165H14.5065V105.539Z"
     id="path12"
     style="fill:#cbbda8;fill-opacity:1" />
  <path
     d="M13.4258 130.737C11.2504 134.589 10 139.088 10 143.895C10 148.27 11.0368 152.39 12.8633 156H10.6182C8.94015 152.339 8 148.232 8 143.895C8 139.136 9.13304 134.657 11.1289 130.737H13.4258Z"
     id="path13"
     style="fill:#cbbda8;fill-opacity:1" />
  <path
     d="M57.8711 130.737C59.867 134.657 61 139.136 61 143.895C61 148.232 60.0598 152.339 58.3818 156H56.1367C57.9632 152.39 59 148.27 59 143.895C59 139.088 57.7496 134.589 55.5742 130.737H57.8711Z"
     id="path14"
     style="fill:#cbbda8;fill-opacity:1" />
  <path
     d="M34.5 116C40.8734 116 46.7205 118.369 51.292 122.316H47.918C44.0634 119.655 39.4539 118.105 34.5 118.105C29.5461 118.105 24.9366 119.655 21.082 122.316H17.708C22.2795 118.369 28.1266 116 34.5 116Z"
     id="path15"
     style="fill:#cbbda8;fill-opacity:1" />
  <path
     d="M53.5262 164H52.535V159.334H53.5262V164ZM55.6144 162.37V164H54.6232V159.334H56.9509C57.3747 159.334 57.6789 159.364 57.8635 159.423C58.1688 159.526 58.4103 159.739 58.5881 160.063C58.7202 160.304 58.7863 160.567 58.7863 160.852C58.7863 161.139 58.7225 161.407 58.5949 161.655C58.4513 161.938 58.2383 162.139 57.9557 162.26C57.7894 162.333 57.541 162.37 57.2106 162.37H55.6144ZM55.6144 161.539H56.9679C57.2095 161.539 57.3792 161.5 57.4772 161.423C57.6231 161.307 57.696 161.105 57.696 160.818C57.696 160.503 57.5855 160.302 57.3644 160.213C57.2847 160.181 57.1594 160.165 56.9885 160.165H55.6144V161.539Z"
     id="path16"
     style="fill:#cbbda8;fill-opacity:1" />
  <path
     d="M52.4642 127.673H55.513V128.5H51.473V127.259C51.4661 126.737 51.5972 126.34 51.866 126.066C52.0233 125.914 52.2261 125.818 52.4744 125.779C52.5565 125.766 52.7251 125.759 52.9803 125.759H53.7425C53.7926 125.759 53.8872 125.751 54.0262 125.735C54.2176 125.714 54.3555 125.648 54.4398 125.537C54.5081 125.448 54.5423 125.346 54.5423 125.232C54.5423 125.137 54.5195 125.043 54.4739 124.952C54.4056 124.818 54.2825 124.732 54.1048 124.696C53.9863 124.673 53.8655 124.662 53.7425 124.662H51.5482V123.834H53.951C54.548 123.834 54.965 123.934 55.202 124.132C55.3455 124.253 55.456 124.413 55.5335 124.614C55.6019 124.796 55.6361 124.99 55.6361 125.195C55.6361 125.457 55.5859 125.704 55.4857 125.937C55.3535 126.249 55.0835 126.446 54.6756 126.528C54.491 126.567 54.2723 126.586 54.0194 126.586H53.3597C52.9586 126.586 52.7057 126.644 52.6009 126.76C52.5189 126.84 52.4733 127.006 52.4642 127.259V127.673ZM57.4543 126.87V128.5H56.4631V123.834H58.7907C59.2145 123.834 59.5187 123.864 59.7033 123.923C60.0086 124.026 60.2502 124.239 60.4279 124.563C60.5601 124.804 60.6262 125.067 60.6262 125.352C60.6262 125.639 60.5623 125.907 60.4347 126.155C60.2912 126.438 60.0781 126.639 59.7956 126.76C59.6292 126.833 59.3809 126.87 59.0505 126.87H57.4543ZM57.4543 126.039H58.8078C59.0493 126.039 59.2191 126 59.3171 125.923C59.4629 125.807 59.5358 125.605 59.5358 125.318C59.5358 125.003 59.4253 124.802 59.2043 124.713C59.1245 124.681 58.9992 124.665 58.8283 124.665H57.4543V126.039Z"
     id="path17"
     style="fill:#cbbda8;fill-opacity:1" />
  <path
     d="M9.59602 128.5V127.673H11.5955C11.8735 127.673 12.0615 127.633 12.1595 127.553C12.278 127.46 12.3372 127.316 12.3372 127.123C12.3372 126.888 12.2598 126.726 12.1048 126.637C12.0114 126.58 11.8416 126.552 11.5955 126.552H10.0369V125.725H11.5955C11.8872 125.725 12.0797 125.688 12.1732 125.615C12.2803 125.529 12.3338 125.392 12.3338 125.205C12.3338 125 12.2632 124.85 12.1219 124.754C12.0581 124.711 11.9783 124.683 11.8826 124.672C11.8348 124.665 11.7391 124.662 11.5955 124.662H9.59602V123.834H11.7698C12.0797 123.837 12.2768 123.842 12.3612 123.852C12.4477 123.861 12.5434 123.885 12.6483 123.923C12.8875 124.012 13.0789 124.174 13.2225 124.409C13.3592 124.632 13.4276 124.869 13.4276 125.12C13.4276 125.555 13.2202 125.892 12.8055 126.131C13.2225 126.403 13.431 126.78 13.431 127.263C13.431 127.707 13.2635 128.036 12.9285 128.25C12.7257 128.383 12.4603 128.462 12.1321 128.49C12.0364 128.497 11.8758 128.5 11.6502 128.5H9.59602ZM15.3073 126.87V128.5H14.3161V123.834H16.6437C17.0676 123.834 17.3718 123.864 17.5563 123.923C17.8617 124.026 18.1032 124.239 18.2809 124.563C18.4131 124.804 18.4792 125.067 18.4792 125.352C18.4792 125.639 18.4154 125.907 18.2878 126.155C18.1442 126.438 17.9312 126.639 17.6486 126.76C17.4823 126.833 17.2339 126.87 16.9035 126.87H15.3073ZM15.3073 126.039H16.6608C16.9024 126.039 17.0721 126 17.1701 125.923C17.3159 125.807 17.3888 125.605 17.3888 125.318C17.3888 125.003 17.2783 124.802 17.0573 124.713C16.9776 124.681 16.8522 124.665 16.6813 124.665H15.3073V126.039Z"
     id="path18"
     style="fill:#cbbda8;fill-opacity:1" />
  <path
     d="M8.23371 163.19V162.202L10.8655 159.334H12.1746V162.363H12.7899V163.19H12.1746V164H11.1834V163.19H8.23371ZM9.34455 162.363H11.1834V160.367L9.34455 162.363ZM14.6115 162.37V164H13.6203V159.334H15.9479C16.3718 159.334 16.676 159.364 16.8605 159.423C17.1659 159.526 17.4074 159.739 17.5851 160.063C17.7173 160.304 17.7834 160.567 17.7834 160.852C17.7834 161.139 17.7196 161.407 17.592 161.655C17.4484 161.938 17.2354 162.139 16.9528 162.26C16.7865 162.333 16.5381 162.37 16.2077 162.37H14.6115ZM14.6115 161.539H15.965C16.2066 161.539 16.3763 161.5 16.4743 161.423C16.6201 161.307 16.693 161.105 16.693 160.818C16.693 160.503 16.5825 160.302 16.3615 160.213C16.2818 160.181 16.1564 160.165 15.9855 160.165H14.6115V161.539Z"
     id="path19"
     style="fill:#cbbda8;fill-opacity:1" />
  <rect
     x="0.5"
     y="180.5"
     width="69"
     height="36"
     rx="0.5"
     fill="#36373A"
     stroke="black"
     id="rect19"
     style="fill:#47474c;fill-opacity:1" />
  <rect
     x="3.5"
     y="183.5"
     width="63"
     height="30"
     fill="#101010"
     stroke="#202020"
     id="rect20" />
  <path
     d="m 16.139,204.488 v 0.288 h -1.472 v -3.008 -0.736 l 0.736,-1.28 0.736,1.296 v 0.72 z m -3.68,-4.752 -0.736,-0.736 0.736,-0.736 h 1.664 0.416 l 0.432,0.752 -0.432,0.72 h -1.856 z m 1.456,0.752 v 2.56 l -0.992,1.728 h -0.24 v -2.544 l 1.008,-1.744 z m 0,-2.976 h -0.224 l -1.008,-1.744 v -2.544 h 0.24 l 0.992,1.728 z M 11.483,191.496 11.979,191 h 6.848 l 0.496,0.496 -0.976,0.992 h -0.032 -2.176 -1.472 -2.176 -0.032 z m 5.408,8.992 h 0.224 l 1.008,1.744 v 2.544 h -0.24 l -0.992,-1.728 z m -2.224,-7.264 h 1.472 v 3.008 0.736 L 15.403,198.264 14.667,197 v -0.768 z m -3.712,12.752 -0.496,-0.496 v -6.112 h 0.592 l 0.144,0.16 0.752,0.736 v 3.248 1.264 0.224 z m 8.368,0.528 -0.496,0.496 h -6.848 l -0.496,-0.496 0.976,-0.992 h 0.032 2.176 1.472 2.176 0.032 z m -0.464,-6.24 0.896,-0.896 h 0.592 v 6.112 L 19.851,205.976 18.859,205 v -0.224 -1.264 z m 0.992,-8.24 0.496,0.496 v 6.112 h -0.592 l -0.896,-0.896 v -0.448 -2.8 -1.264 -0.208 z m -1.968,1.2 h 0.24 v 2.544 l -1.008,1.744 h -0.224 v -2.56 z m -5.936,4.512 -0.896,0.896 h -0.592 v -6.112 l 0.496,-0.496 0.992,0.976 v 0.224 1.264 z m 6.4,0.528 0.736,0.736 -0.736,0.736 h -0.224 -1.232 -0.64 l -0.432,-0.72 0.448,-0.752 h 0.416 z m 10.8545,6.224 v 0.288 h -1.472 v -3.008 -0.736 l 0.736,-1.28 0.736,1.296 v 0.72 z m -3.68,-4.752 -0.736,-0.736 0.736,-0.736 h 1.664 0.416 l 0.432,0.752 -0.432,0.72 h -1.856 z m 1.456,0.752 v 2.56 l -0.992,1.728 h -0.24 v -2.544 l 1.008,-1.744 z m 0,-2.976 h -0.224 l -1.008,-1.744 v -2.544 h 0.24 l 0.992,1.728 z m -2.432,-6.016 0.496,-0.496 h 6.848 l 0.496,0.496 -0.976,0.992 h -0.032 -2.176 -1.472 -2.176 -0.032 z m 5.408,8.992 h 0.224 l 1.008,1.744 v 2.544 h -0.24 l -0.992,-1.728 z m -2.224,-7.264 h 1.472 v 3.008 0.736 l -0.736,1.296 -0.736,-1.264 v -0.768 z m -3.712,12.752 -0.496,-0.496 v -6.112 h 0.592 l 0.144,0.16 0.752,0.736 v 3.248 1.264 0.224 z m 8.368,0.528 -0.496,0.496 h -6.848 l -0.496,-0.496 0.976,-0.992 h 0.032 2.176 1.472 2.176 0.032 z m -0.464,-6.24 0.896,-0.896 h 0.592 v 6.112 l -0.496,0.496 -0.992,-0.976 v -0.224 -1.264 z m 0.992,-8.24 0.496,0.496 v 6.112 h -0.592 l -0.896,-0.896 v -0.448 -2.8 -1.264 -0.208 z m -1.968,1.2 h 0.24 v 2.544 l -1.008,1.744 h -0.224 v -2.56 z m -5.936,4.512 -0.896,0.896 h -0.592 v -6.112 l 0.496,-0.496 0.992,0.976 v 0.224 1.264 z m 6.4,0.528 0.736,0.736 -0.736,0.736 h -0.224 -1.232 -0.64 l -0.432,-0.72 0.448,-0.752 h 0.416 z m 10.8545,6.224 v 0.288 h -1.472 v -3.008 -0.736 l 0.736,-1.28 0.736,1.296 v 0.72 z m -3.68,-4.752 -0.736,-0.736 0.736,-0.736 h 1.664 0.416 l 0.432,0.752 -0.432,0.72 h -1.856 z m 1.456,0.752 v 2.56 l -0.992,1.728 h -0.24 v -2.544 l 1.008,-1.744 z m 0,-2.976 h -0.224 l -1.008,-1.744 v -2.544 h 0.24 l 0.992,1.728 z M 37.608,191.496 38.104,191 h 6.848 l 0.496,0.496 -0.976,0.992 H 44.44 42.264 40.792 38.616 38.584 Z m 5.408,8.992 h 0.224 l 1.008,1.744 v 2.544 h -0.24 l -0.992,-1.728 z m -2.224,-7.264 h 1.472 v 3.008 0.736 L 41.528,198.264 40.792,197 v -0.768 z m -3.712,12.752 -0.496,-0.496 v -6.112 h 0.592 l 0.144,0.16 0.752,0.736 v 3.248 1.264 0.224 z m 8.368,0.528 -0.496,0.496 h -6.848 l -0.496,-0.496 0.976,-0.992 h 0.032 2.176 1.472 2.176 0.032 z m -0.464,-6.24 0.896,-0.896 h 0.592 v 6.112 L 45.976,205.976 44.984,205 v -0.224 -1.264 z m 0.992,-8.24 0.496,0.496 v 6.112 H 45.88 l -0.896,-0.896 v -0.448 -2.8 -1.264 -0.208 z m -1.968,1.2 h 0.24 v 2.544 l -1.008,1.744 h -0.224 v -2.56 z m -5.936,4.512 -0.896,0.896 h -0.592 v -6.112 l 0.496,-0.496 0.992,0.976 v 0.224 1.264 z m 6.4,0.528 0.736,0.736 -0.736,0.736 h -0.224 -1.232 -0.64 l -0.432,-0.72 0.448,-0.752 h 0.416 z m 10.8545,6.224 v 0.288 h -1.472 v -3.008 -0.736 l 0.736,-1.28 0.736,1.296 v 0.72 z m -3.68,-4.752 -0.736,-0.736 0.736,-0.736 h 1.664 0.416 l 0.432,0.752 -0.432,0.72 h -1.856 z m 1.456,0.752 v 2.56 l -0.992,1.728 h -0.24 v -2.544 l 1.008,-1.744 z m 0,-2.976 h -0.224 l -1.008,-1.744 v -2.544 h 0.24 l 0.992,1.728 z m -2.432,-6.016 0.496,-0.496 h 6.848 l 0.496,0.496 -0.976,0.992 h -0.032 -2.176 -1.472 -2.176 -0.032 z m 5.408,8.992 h 0.224 l 1.008,1.744 v 2.544 h -0.24 l -0.992,-1.728 z m -2.224,-7.264 h 1.472 v 3.008 0.736 l -0.736,1.296 -0.736,-1.264 v -0.768 z m -3.712,12.752 -0.496,-0.496 v -6.112 h 0.592 l 0.144,0.16 0.752,0.736 v 3.248 1.264 0.224 z m 8.368,0.528 -0.496,0.496 h -6.848 l -0.496,-0.496 0.976,-0.992 h 0.032 2.176 1.472 2.176 0.032 z m -0.464,-6.24 0.896,-0.896 h 0.592 v 6.112 l -0.496,0.496 -0.992,-0.976 v -0.224 -1.264 z m 0.992,-8.24 0.496,0.496 v 6.112 h -0.592 l -0.896,-0.896 v -0.448 -2.8 -1.264 -0.208 z m -1.968,1.2 h 0.24 v 2.544 l -1.008,1.744 h -0.224 v -2.56 z m -5.936,4.512 -0.896,0.896 h -0.592 v -6.112 l 0.496,-0.496 0.992,0.976 v 0.224 1.264 z m 6.4,0.528 0.736,0.736 -0.736,0.736 h -0.224 -1.232 -0.64 l -0.432,-0.72 0.448,-0.752 h 0.416 z"
     id="path20"
     style="opacity:0.2;fill:#ff5919;fill-opacity:1" />
  <defs
     id="defs31">
    <radialGradient
       id="paint0_radial_45_1753"
       cx="0"
       cy="0"
       r="1"
       gradientUnits="userSpaceOnUse"
       gradientTransform="translate(34 31) rotate(90) scale(20)">
      <stop
         stop-color="#202020"
         id="stop26" />
      <stop
         offset="1"
         id="stop27" />
    </radialGradient>
    <radialGradient
       id="paint1_radial_45_1753"
       cx="0"
       cy="0"
       r="1"
       gradientUnits="userSpaceOnUse"
       gradientTransform="translate(34 87) rotate(90) scale(20)">
      <stop
         stop-color="#202020"
         id="stop28" />
      <stop
         offset="1"
         id="stop29" />
    </radialGradient>
    <radialGradient
       id="paint2_radial_45_1753"
       cx="0"
       cy="0"
       r="1"
       gradientUnits="userSpaceOnUse"
       gradientTransform="translate(34 143) rotate(90) scale(20)">
      <stop
         stop-color="#202020"
         id="stop30" />
      <stop
         offset="1"
         id="stop31" />
    </radialGradient>
    <radialGradient
       inkscape:collect="always"
       xlink:href="#linearGradient24"
       id="radialGradient25"
       cx="74.075233"
       cy="151.2606"
       fx="74.075233"
       fy="151.2606"
       r="27.688841"
       gradientUnits="userSpaceOnUse"
       gradientTransform="matrix(0.83689682,0,0,0.83689693,-26.012988,-91.699076)" />
    <linearGradient
       id="linearGradient24"
       inkscape:collect="always">
      <stop
         style="stop-color:#000000;stop-opacity:0.74000152"
         offset="0"
         id="stop26-3" />
      <stop
         style="stop-color:#000000;stop-opacity:1;"
         offset="0.81396586"
         id="stop24" />
      <stop
         style="stop-color:#000000;stop-opacity:0;"
         offset="1"
         id="stop25" />
    </linearGradient>
    <linearGradient
       inkscape:collect="always"
       xlink:href="#linearGradient9"
       id="linearGradient12"
       x1="58.304825"
       y1="127.20101"
       x2="85.518394"
       y2="166.26866"
       gradientUnits="userSpaceOnUse"
       gradientTransform="matrix(0.93583029,0,0,0.93583029,-33.379768,-106.56703)" />
    <linearGradient
       id="linearGradient9"
       inkscape:collect="always">
      <stop
         style="stop-color:#f2bdad;stop-opacity:1;"
         offset="0.3218253"
         id="stop11" />
      <stop
         style="stop-color:#6d422f;stop-opacity:0;"
         offset="0.49693713"
         id="stop13" />
      <stop
         style="stop-color:#190b04;stop-opacity:1;"
         offset="0.70879513"
         id="stop12" />
    </linearGradient>
    <radialGradient
       inkscape:collect="always"
       xlink:href="#linearGradient24"
       id="radialGradient25-5"
       cx="74.075233"
       cy="151.2606"
       fx="74.075233"
       fy="151.2606"
       r="27.688841"
       gradientUnits="userSpaceOnUse"
       gradientTransform="matrix(0.83689682,0,0,0.83689693,-26.012987,-35.699076)" />
    <linearGradient
       inkscape:collect="always"
       xlink:href="#linearGradient9"
       id="linearGradient31"
       gradientUnits="userSpaceOnUse"
       gradientTransform="matrix(0.93583029,0,0,0.93583029,-33.379767,-50.567028)"
       x1="58.304825"
       y1="127.20101"
       x2="85.518394"
       y2="166.26866" />
    <radialGradient
       inkscape:collect="always"
       xlink:href="#linearGradient24"
       id="radialGradient25-0"
       cx="74.075233"
       cy="151.2606"
       fx="74.075233"
       fy="151.2606"
       r="27.688841"
       gradientUnits="userSpaceOnUse"
       gradientTransform="matrix(0.83689682,0,0,0.83689693,-26.012987,20.300922)" />
    <linearGradient
       inkscape:collect="always"
       xlink:href="#linearGradient9"
       id="linearGradient32"
       gradientUnits="userSpaceOnUse"
       gradientTransform="matrix(0.93583029,0,0,0.93583029,-33.379767,5.43297)"
       x1="58.304825"
       y1="127.20101"
       x2="85.518394"
       y2="166.26866" />
  </defs>
  <path
     id="path7-6"
     style="display:inline;opacity:0.174714;fill:url(#linearGradient12);fill-rule:evenodd;stroke-width:2.80748"
     d="M 34.000002,8.4238301 A 22.576902,22.576902 0 0 0 11.42383,31 22.576902,22.576902 0 0 0 34.000002,53.57617 22.576902,22.576902 0 0 0 56.576174,31 22.576902,22.576902 0 0 0 34.000002,8.4238301 Z m 0,1.6406199 A 20.934744,20.934744 0 0 1 54.935549,31 20.934744,20.934744 0 0 1 34.000002,51.93555 20.934744,20.934744 0 0 1 13.064455,31 20.934744,20.934744 0 0 1 34.000002,10.06445 Z" />
  <path
     id="path23"
     style="display:inline;opacity:0.401964;fill:url(#radialGradient25);fill-rule:evenodd;stroke-width:3.21069"
     d="M 63.633382,31 A 29.633385,29.633385 0 0 1 34.000002,60.63338 29.633385,29.633385 0 0 1 4.366617,31 29.633385,29.633385 0 0 1 34.000002,1.3666201 29.633385,29.633385 0 0 1 63.633382,31 Z" />
  <path
     id="path7-6-7"
     style="display:inline;opacity:0.174714;fill:url(#linearGradient31);fill-rule:evenodd;stroke-width:2.80748"
     d="M 34.000003,64.42383 A 22.576902,22.576902 0 0 0 11.423831,87 22.576902,22.576902 0 0 0 34.000003,109.57617 22.576902,22.576902 0 0 0 56.576175,87 22.576902,22.576902 0 0 0 34.000003,64.42383 Z m 0,1.64062 A 20.934744,20.934744 0 0 1 54.93555,87 20.934744,20.934744 0 0 1 34.000003,107.93555 20.934744,20.934744 0 0 1 13.064456,87 20.934744,20.934744 0 0 1 34.000003,66.06445 Z" />
  <path
     id="path23-0"
     style="display:inline;opacity:0.401964;fill:url(#radialGradient25-5);fill-rule:evenodd;stroke-width:3.21069"
     d="M 63.633383,87 A 29.633385,29.633385 0 0 1 34.000003,116.63338 29.633385,29.633385 0 0 1 4.366618,87 29.633385,29.633385 0 0 1 34.000003,57.36662 29.633385,29.633385 0 0 1 63.633383,87 Z" />
  <path
     id="path7-6-79"
     style="display:inline;opacity:0.174714;fill:url(#linearGradient32);fill-rule:evenodd;stroke-width:2.80748"
     d="M 34.000003,120.42383 A 22.576902,22.576902 0 0 0 11.423831,143 22.576902,22.576902 0 0 0 34.000003,165.57617 22.576902,22.576902 0 0 0 56.576175,143 22.576902,22.576902 0 0 0 34.000003,120.42383 Z m 0,1.64062 A 20.934744,20.934744 0 0 1 54.93555,143 20.934744,20.934744 0 0 1 34.000003,163.93555 20.934744,20.934744 0 0 1 13.064456,143 20.934744,20.934744 0 0 1 34.000003,122.06445 Z" />
  <path
     id="path23-2"
     style="display:inline;opacity:0.401964;fill:url(#radialGradient25-0);fill-rule:evenodd;stroke-width:3.21069"
     d="M 63.633383,143 A 29.633385,29.633385 0 0 1 34.000003,172.63338 29.633385,29.633385 0 0 1 4.366618,143 29.633385,29.633385 0 0 1 34.000003,113.36662 29.633385,29.633385 0 0 1 63.633383,143 Z" />
</svg>
