<svg width="107" height="682" viewBox="0 0 107 682" fill="none" xmlns="http://www.w3.org/2000/svg">
<g clip-path="url(#clip0_287_3178)">
<rect width="107" height="31" fill="black" fill-opacity="0.01"/>
<path d="M32.415 14.512H32.191L31.183 12.768V10.224H31.423L32.415 11.952V14.512ZM35.391 17.488H35.615L36.623 19.232V21.776H36.383L35.391 20.048V17.488ZM29.455 22.976L28.959 22.48V16.368H29.551L29.695 16.528L30.447 17.264V20.512V21.776V22L29.455 22.976ZM37.359 17.264L38.255 16.368H38.847V22.48L38.351 22.976L37.359 22V21.776V20.512V17.264ZM38.351 9.024L38.847 9.52V15.632H38.255L37.359 14.736V14.288V11.488V10.224V10.016L38.351 9.024ZM30.447 14.736L29.551 15.632H28.959V9.52L29.455 9.024L30.447 10V10.224V11.488V14.736ZM43.0455 8.496L43.5415 8H50.3895L50.8855 8.496L49.9095 9.488H49.8775H47.7015H46.2295H44.0535H44.0215L43.0455 8.496ZM42.5175 22.976L42.0215 22.48V16.368H42.6135L42.7575 16.528L43.5095 17.264V20.512V21.776V22L42.5175 22.976ZM50.8855 23.504L50.3895 24H43.5415L43.0455 23.504L44.0215 22.512H44.0535H46.2295H47.7015H49.8775H49.9095L50.8855 23.504ZM50.4215 17.264L51.3175 16.368H51.9095V22.48L51.4135 22.976L50.4215 22V21.776V20.512V17.264ZM51.4135 9.024L51.9095 9.52V15.632H51.3175L50.4215 14.736V14.288V11.488V10.224V10.016L51.4135 9.024ZM43.5095 14.736L42.6135 15.632H42.0215V9.52L42.5175 9.024L43.5095 10V10.224V11.488V14.736ZM58.54 14.512H58.316L57.308 12.768V10.224H57.548L58.54 11.952V14.512ZM61.516 17.488H61.74L62.748 19.232V21.776H62.508L61.516 20.048V17.488ZM55.58 22.976L55.084 22.48V16.368H55.676L55.82 16.528L56.572 17.264V20.512V21.776V22L55.58 22.976ZM63.484 17.264L64.38 16.368H64.972V22.48L64.476 22.976L63.484 22V21.776V20.512V17.264ZM64.476 9.024L64.972 9.52V15.632H64.38L63.484 14.736V14.288V11.488V10.224V10.016L64.476 9.024ZM56.572 14.736L55.676 15.632H55.084V9.52L55.58 9.024L56.572 10V10.224V11.488V14.736ZM70.1465 16.736L69.4105 16L70.1465 15.264H71.8105H72.2265L72.6585 16.016L72.2265 16.736H70.3705H70.1465ZM69.1705 8.496L69.6665 8H76.5145L77.0105 8.496L76.0345 9.488H76.0025H73.8265H72.3545H70.1785H70.1465L69.1705 8.496ZM68.6425 22.976L68.1465 22.48V16.368H68.7385L68.8825 16.528L69.6345 17.264V20.512V21.776V22L68.6425 22.976ZM77.0105 23.504L76.5145 24H69.6665L69.1705 23.504L70.1465 22.512H70.1785H72.3545H73.8265H76.0025H76.0345L77.0105 23.504ZM69.6345 14.736L68.7385 15.632H68.1465V9.52L68.6425 9.024L69.6345 10V10.224V11.488V14.736ZM76.0345 15.264L76.7705 16L76.0345 16.736H75.8105H74.5785H73.9385L73.5065 16.016L73.9545 15.264H74.3705H76.0345Z" fill="#ff923d"/>
<rect width="107" height="31" transform="translate(0 31)" fill="black" fill-opacity="0.01"/>
<path d="M3.85798 39.496L4.35398 39H11.202L11.698 39.496L10.722 40.488H4.83398L3.85798 39.496ZM3.32998 53.976L2.83398 53.48V47.368H3.42598L3.56998 47.528L4.32198 48.264V53L3.32998 53.976ZM11.698 54.504L11.202 55H4.35398L3.85798 54.504L4.83398 53.512H10.722L11.698 54.504ZM11.234 48.264L12.13 47.368H12.722V53.48L12.226 53.976L11.234 53V48.264ZM12.226 40.024L12.722 40.52V46.632H12.13L11.234 45.736V41.016L12.226 40.024ZM4.32198 45.736L3.42598 46.632H2.83398V40.52L3.32998 40.024L4.32198 41V45.736Z" fill="#ff923d"/>
<path d="M19.3525 45.512H19.1285L18.1205 43.768V41.224H18.3605L19.3525 42.952V45.512ZM16.9205 39.496L17.4165 39H24.2645L24.7605 39.496L23.7845 40.488H17.8965L16.9205 39.496ZM24.7605 54.504L24.2645 55H17.4165L16.9205 54.504L17.8965 53.512H23.7845L24.7605 54.504ZM24.2965 48.264L25.1925 47.368H25.7845V53.48L25.2885 53.976L24.2965 53V48.264ZM23.7845 46.264L24.5205 47L23.7845 47.736H21.6885L21.2565 47.016L21.7045 46.264H23.7845Z" fill="#ff923d"/>
<path d="M29.983 39.496L30.479 39H37.327L37.823 39.496L36.847 40.488H30.959L29.983 39.496ZM29.455 53.976L28.959 53.48V47.368H29.551L29.695 47.528L30.447 48.264V53L29.455 53.976ZM37.823 54.504L37.327 55H30.479L29.983 54.504L30.959 53.512H36.847L37.823 54.504ZM30.447 45.736L29.551 46.632H28.959V40.52L29.455 40.024L30.447 41V45.736Z" fill="#ff923d"/>
<path d="M44.0215 47.736L43.2855 47L44.0215 46.264H46.1015L46.5335 47.016L46.1015 47.736H44.0215ZM43.0455 39.496L43.5415 39H50.3895L50.8855 39.496L49.9095 40.488H44.0215L43.0455 39.496ZM42.5175 53.976L42.0215 53.48V47.368H42.6135L42.7575 47.528L43.5095 48.264V53L42.5175 53.976ZM51.4135 40.024L51.9095 40.52V46.632H51.3175L50.4215 45.736V41.016L51.4135 40.024ZM43.5095 45.736L42.6135 46.632H42.0215V40.52L42.5175 40.024L43.5095 41V45.736ZM49.9095 46.264L50.6455 47L49.9095 47.736H47.8135L47.3815 47.016L47.8295 46.264H49.9095Z" fill="#ff923d"/>
<path d="M60.764 52.776H59.292V49.032L60.028 47.752L60.764 49.048V52.776ZM56.108 39.496L56.604 39H63.452L63.948 39.496L62.972 40.488H57.084L56.108 39.496ZM59.292 41.224H60.764V44.968L60.028 46.264L59.292 45V41.224ZM63.948 54.504L63.452 55H56.604L56.108 54.504L57.084 53.512H62.972L63.948 54.504Z" fill="#ff923d"/>
<path d="M73.8265 52.776H72.3545V49.032L73.0905 47.752L73.8265 49.048V52.776ZM69.1705 39.496L69.6665 39H76.5145L77.0105 39.496L76.0345 40.488H70.1465L69.1705 39.496ZM72.3545 41.224H73.8265V44.968L73.0905 46.264L72.3545 45V41.224Z" fill="#ff923d"/>
<path d="M82.233 39.496L82.729 39H89.577L90.073 39.496L89.097 40.488H83.209L82.233 39.496ZM81.705 53.976L81.209 53.48V47.368H81.801L81.945 47.528L82.697 48.264V53L81.705 53.976ZM90.073 54.504L89.577 55H82.729L82.233 54.504L83.209 53.512H89.097L90.073 54.504ZM82.697 45.736L81.801 46.632H81.209V40.52L81.705 40.024L82.697 41V45.736Z" fill="#ff923d"/>
<path d="M96.2715 47.736L95.5355 47L96.2715 46.264H98.3515L98.7835 47.016L98.3515 47.736H96.2715ZM94.7675 53.976L94.2715 53.48V47.368H94.8635L95.0075 47.528L95.7595 48.264V53L94.7675 53.976ZM102.671 48.264L103.567 47.368H104.159V53.48L103.663 53.976L102.671 53V48.264ZM103.663 40.024L104.159 40.52V46.632H103.567L102.671 45.736V41.016L103.663 40.024ZM95.7595 45.736L94.8635 46.632H94.2715V40.52L94.7675 40.024L95.7595 41V45.736ZM102.159 46.264L102.895 47L102.159 47.736H100.063L99.6315 47.016L100.079 46.264H102.159Z" fill="#ff923d"/>
<rect width="107" height="31" transform="translate(0 62)" fill="black" fill-opacity="0.01"/>
<path d="M3.85798 70.496L4.35398 70H11.202L11.698 70.496L10.722 71.488H4.83398L3.85798 70.496ZM3.32998 84.976L2.83398 84.48V78.368H3.42598L3.56998 78.528L4.32198 79.264V84L3.32998 84.976ZM11.698 85.504L11.202 86H4.35398L3.85798 85.504L4.83398 84.512H10.722L11.698 85.504ZM11.234 79.264L12.13 78.368H12.722V84.48L12.226 84.976L11.234 84V79.264ZM12.226 71.024L12.722 71.52V77.632H12.13L11.234 76.736V72.016L12.226 71.024ZM4.32198 76.736L3.42598 77.632H2.83398V71.52L3.32998 71.024L4.32198 72V76.736Z" fill="#ff923d"/>
<path d="M19.3525 76.512H19.1285L18.1205 74.768V72.224H18.3605L19.3525 73.952V76.512ZM16.9205 70.496L17.4165 70H24.2645L24.7605 70.496L23.7845 71.488H17.8965L16.9205 70.496ZM24.7605 85.504L24.2645 86H17.4165L16.9205 85.504L17.8965 84.512H23.7845L24.7605 85.504ZM24.2965 79.264L25.1925 78.368H25.7845V84.48L25.2885 84.976L24.2965 84V79.264ZM23.7845 77.264L24.5205 78L23.7845 78.736H21.6885L21.2565 78.016L21.7045 77.264H23.7845Z" fill="#ff923d"/>
<path d="M29.983 70.496L30.479 70H37.327L37.823 70.496L36.847 71.488H30.959L29.983 70.496ZM29.455 84.976L28.959 84.48V78.368H29.551L29.695 78.528L30.447 79.264V84L29.455 84.976ZM37.823 85.504L37.327 86H30.479L29.983 85.504L30.959 84.512H36.847L37.823 85.504ZM30.447 76.736L29.551 77.632H28.959V71.52L29.455 71.024L30.447 72V76.736Z" fill="#ff923d"/>
<path d="M50.4215 79.264L51.3175 78.368H51.9095V84.48L51.4135 84.976L50.4215 84V79.264ZM51.4135 71.024L51.9095 71.52V77.632H51.3175L50.4215 76.736V72.016L51.4135 71.024Z" fill="#ff923d"/>
<path d="M57.084 78.736L56.348 78L57.084 77.264H59.164L59.596 78.016L59.164 78.736H57.084ZM56.108 70.496L56.604 70H63.452L63.948 70.496L62.972 71.488H57.084L56.108 70.496ZM55.58 84.976L55.084 84.48V78.368H55.676L55.82 78.528L56.572 79.264V84L55.58 84.976ZM64.476 71.024L64.972 71.52V77.632H64.38L63.484 76.736V72.016L64.476 71.024ZM56.572 76.736L55.676 77.632H55.084V71.52L55.58 71.024L56.572 72V76.736ZM62.972 77.264L63.708 78L62.972 78.736H60.876L60.444 78.016L60.892 77.264H62.972Z" fill="#ff923d"/>
<path d="M73.8265 83.776H72.3545V80.032L73.0905 78.752L73.8265 80.048V83.776ZM69.1705 70.496L69.6665 70H76.5145L77.0105 70.496L76.0345 71.488H70.1465L69.1705 70.496ZM72.3545 72.224H73.8265V75.968L73.0905 77.264L72.3545 76V72.224Z" fill="#ff923d"/>
<path d="M82.233 70.496L82.729 70H89.577L90.073 70.496L89.097 71.488H83.209L82.233 70.496ZM81.705 84.976L81.209 84.48V78.368H81.801L81.945 78.528L82.697 79.264V84L81.705 84.976ZM90.073 85.504L89.577 86H82.729L82.233 85.504L83.209 84.512H89.097L90.073 85.504ZM82.697 76.736L81.801 77.632H81.209V71.52L81.705 71.024L82.697 72V76.736Z" fill="#ff923d"/>
<path d="M96.2715 78.736L95.5355 78L96.2715 77.264H98.3515L98.7835 78.016L98.3515 78.736H96.2715ZM94.7675 84.976L94.2715 84.48V78.368H94.8635L95.0075 78.528L95.7595 79.264V84L94.7675 84.976ZM102.671 79.264L103.567 78.368H104.159V84.48L103.663 84.976L102.671 84V79.264ZM103.663 71.024L104.159 71.52V77.632H103.567L102.671 76.736V72.016L103.663 71.024ZM95.7595 76.736L94.8635 77.632H94.2715V71.52L94.7675 71.024L95.7595 72V76.736ZM102.159 77.264L102.895 78L102.159 78.736H100.063L99.6315 78.016L100.079 77.264H102.159Z" fill="#ff923d"/>
<rect width="107" height="31" transform="translate(0 93)" fill="black" fill-opacity="0.01"/>
<path d="M3.85798 101.496L4.35398 101H11.202L11.698 101.496L10.722 102.488H4.83398L3.85798 101.496ZM3.32998 115.976L2.83398 115.48V109.368H3.42598L3.56998 109.528L4.32198 110.264V115L3.32998 115.976ZM11.698 116.504L11.202 117H4.35398L3.85798 116.504L4.83398 115.512H10.722L11.698 116.504ZM11.234 110.264L12.13 109.368H12.722V115.48L12.226 115.976L11.234 115V110.264ZM12.226 102.024L12.722 102.52V108.632H12.13L11.234 107.736V103.016L12.226 102.024ZM4.32198 107.736L3.42598 108.632H2.83398V102.52L3.32998 102.024L4.32198 103V107.736Z" fill="#ff923d"/>
<path d="M19.3525 107.512H19.1285L18.1205 105.768V103.224H18.3605L19.3525 104.952V107.512ZM16.9205 101.496L17.4165 101H24.2645L24.7605 101.496L23.7845 102.488H17.8965L16.9205 101.496ZM24.7605 116.504L24.2645 117H17.4165L16.9205 116.504L17.8965 115.512H23.7845L24.7605 116.504ZM24.2965 110.264L25.1925 109.368H25.7845V115.48L25.2885 115.976L24.2965 115V110.264ZM23.7845 108.264L24.5205 109L23.7845 109.736H21.6885L21.2565 109.016L21.7045 108.264H23.7845Z" fill="#ff923d"/>
<path d="M29.983 101.496L30.479 101H37.327L37.823 101.496L36.847 102.488H30.959L29.983 101.496ZM29.455 115.976L28.959 115.48V109.368H29.551L29.695 109.528L30.447 110.264V115L29.455 115.976ZM37.823 116.504L37.327 117H30.479L29.983 116.504L30.959 115.512H36.847L37.823 116.504ZM30.447 107.736L29.551 108.632H28.959V102.52L29.455 102.024L30.447 103V107.736Z" fill="#ff923d"/>
<path d="M44.0215 109.736L43.2855 109L44.0215 108.264H46.1015L46.5335 109.016L46.1015 109.736H44.0215ZM43.0455 101.496L43.5415 101H50.3895L50.8855 101.496L49.9095 102.488H44.0215L43.0455 101.496ZM42.5175 115.976L42.0215 115.48V109.368H42.6135L42.7575 109.528L43.5095 110.264V115L42.5175 115.976ZM50.8855 116.504L50.3895 117H43.5415L43.0455 116.504L44.0215 115.512H49.9095L50.8855 116.504ZM51.4135 102.024L51.9095 102.52V108.632H51.3175L50.4215 107.736V103.016L51.4135 102.024ZM49.9095 108.264L50.6455 109L49.9095 109.736H47.8135L47.3815 109.016L47.8295 108.264H49.9095Z" fill="#ff923d"/>
<path d="M57.084 109.736L56.348 109L57.084 108.264H59.164L59.596 109.016L59.164 109.736H57.084ZM56.108 101.496L56.604 101H63.452L63.948 101.496L62.972 102.488H57.084L56.108 101.496ZM55.58 115.976L55.084 115.48V109.368H55.676L55.82 109.528L56.572 110.264V115L55.58 115.976ZM64.476 102.024L64.972 102.52V108.632H64.38L63.484 107.736V103.016L64.476 102.024ZM56.572 107.736L55.676 108.632H55.084V102.52L55.58 102.024L56.572 103V107.736ZM62.972 108.264L63.708 109L62.972 109.736H60.876L60.444 109.016L60.892 108.264H62.972Z" fill="#ff923d"/>
<path d="M73.8265 114.776H72.3545V111.032L73.0905 109.752L73.8265 111.048V114.776ZM69.1705 101.496L69.6665 101H76.5145L77.0105 101.496L76.0345 102.488H70.1465L69.1705 101.496ZM72.3545 103.224H73.8265V106.968L73.0905 108.264L72.3545 107V103.224Z" fill="#ff923d"/>
<path d="M82.233 101.496L82.729 101H89.577L90.073 101.496L89.097 102.488H83.209L82.233 101.496ZM81.705 115.976L81.209 115.48V109.368H81.801L81.945 109.528L82.697 110.264V115L81.705 115.976ZM90.073 116.504L89.577 117H82.729L82.233 116.504L83.209 115.512H89.097L90.073 116.504ZM82.697 107.736L81.801 108.632H81.209V102.52L81.705 102.024L82.697 103V107.736Z" fill="#ff923d"/>
<path d="M96.2715 109.736L95.5355 109L96.2715 108.264H98.3515L98.7835 109.016L98.3515 109.736H96.2715ZM94.7675 115.976L94.2715 115.48V109.368H94.8635L95.0075 109.528L95.7595 110.264V115L94.7675 115.976ZM102.671 110.264L103.567 109.368H104.159V115.48L103.663 115.976L102.671 115V110.264ZM103.663 102.024L104.159 102.52V108.632H103.567L102.671 107.736V103.016L103.663 102.024ZM95.7595 107.736L94.8635 108.632H94.2715V102.52L94.7675 102.024L95.7595 103V107.736ZM102.159 108.264L102.895 109L102.159 109.736H100.063L99.6315 109.016L100.079 108.264H102.159Z" fill="#ff923d"/>
<rect width="107" height="31" transform="translate(0 124)" fill="black" fill-opacity="0.01"/>
<path d="M21.5765 145.488V145.776H20.1045V142.768V142.032L20.8405 140.752L21.5765 142.048V142.768V145.488ZM16.9205 132.496L17.4165 132H24.2645L24.7605 132.496L23.7845 133.488H23.7525H21.5765H20.1045H17.9285H17.8965L16.9205 132.496ZM20.1045 134.224H21.5765V137.232V137.968L20.8405 139.264L20.1045 138V137.232V134.224ZM24.7605 147.504L24.2645 148H17.4165L16.9205 147.504L17.8965 146.512H17.9285H20.1045H21.5765H23.7525H23.7845L24.7605 147.504ZM24.2965 141.264L25.1925 140.368H25.7845V146.48L25.2885 146.976L24.2965 146V145.776V144.512V141.264ZM25.2885 133.024L25.7845 133.52V139.632H25.1925L24.2965 138.736V138.288V135.488V134.224V134.016L25.2885 133.024ZM30.959 140.736L30.223 140L30.959 139.264H32.623H33.039L33.471 140.016L33.039 140.736H31.183H30.959ZM29.983 132.496L30.479 132H37.327L37.823 132.496L36.847 133.488H36.815H34.639H33.167H30.991H30.959L29.983 132.496ZM29.455 146.976L28.959 146.48V140.368H29.551L29.695 140.528L30.447 141.264V144.512V145.776V146L29.455 146.976ZM37.823 147.504L37.327 148H30.479L29.983 147.504L30.959 146.512H30.991H33.167H34.639H36.815H36.847L37.823 147.504ZM30.447 138.736L29.551 139.632H28.959V133.52L29.455 133.024L30.447 134V134.224V135.488V138.736ZM36.847 139.264L37.583 140L36.847 140.736H36.623H35.391H34.751L34.319 140.016L34.767 139.264H35.183H36.847ZM47.7015 145.488V145.776H46.2295V142.768V142.032L46.9655 140.752L47.7015 142.048V142.768V145.488ZM43.0455 132.496L43.5415 132H50.3895L50.8855 132.496L49.9095 133.488H49.8775H47.7015H46.2295H44.0535H44.0215L43.0455 132.496ZM46.2295 134.224H47.7015V137.232V137.968L46.9655 139.264L46.2295 138V137.232V134.224ZM55.58 146.976L55.084 146.48V140.368H55.676L55.82 140.528L56.572 141.264V144.512V145.776V146L55.58 146.976ZM63.948 147.504L63.452 148H56.604L56.108 147.504L57.084 146.512H57.116H59.292H60.764H62.94H62.972L63.948 147.504ZM63.484 141.264L64.38 140.368H64.972V146.48L64.476 146.976L63.484 146V145.776V144.512V141.264ZM64.476 133.024L64.972 133.52V139.632H64.38L63.484 138.736V138.288V135.488V134.224V134.016L64.476 133.024ZM56.572 138.736L55.676 139.632H55.084V133.52L55.58 133.024L56.572 134V134.224V135.488V138.736ZM71.6025 138.512H71.3785L70.3705 136.768V134.224H70.6105L71.6025 135.952V138.512ZM74.5785 141.488H74.8025L75.8105 143.232V145.776H75.5705L74.5785 144.048V141.488ZM68.6425 146.976L68.1465 146.48V140.368H68.7385L68.8825 140.528L69.6345 141.264V144.512V145.776V146L68.6425 146.976ZM76.5465 141.264L77.4425 140.368H78.0345V146.48L77.5385 146.976L76.5465 146V145.776V144.512V141.264ZM77.5385 133.024L78.0345 133.52V139.632H77.4425L76.5465 138.736V138.288V135.488V134.224V134.016L77.5385 133.024ZM69.6345 138.736L68.7385 139.632H68.1465V133.52L68.6425 133.024L69.6345 134V134.224V135.488V138.736ZM83.209 140.736L82.473 140L83.209 139.264H84.873H85.289L85.721 140.016L85.289 140.736H83.433H83.209ZM82.233 132.496L82.729 132H89.577L90.073 132.496L89.097 133.488H89.065H86.889H85.417H83.241H83.209L82.233 132.496ZM81.705 146.976L81.209 146.48V140.368H81.801L81.945 140.528L82.697 141.264V144.512V145.776V146L81.705 146.976ZM90.073 147.504L89.577 148H82.729L82.233 147.504L83.209 146.512H83.241H85.417H86.889H89.065H89.097L90.073 147.504ZM82.697 138.736L81.801 139.632H81.209V133.52L81.705 133.024L82.697 134V134.224V135.488V138.736ZM89.097 139.264L89.833 140L89.097 140.736H88.873H87.641H87.001L86.569 140.016L87.017 139.264H87.433H89.097Z" fill="#ff923d"/>
<rect width="107" height="31" transform="translate(0 155)" fill="black" fill-opacity="0.01"/>
<path d="M3.33 177.976L2.834 177.48V171.368H3.426L3.57 171.528L4.322 172.264V175.512V176.776V177L3.33 177.976ZM11.698 178.504L11.202 179H4.354L3.858 178.504L4.834 177.512H4.866H7.042H8.514H10.69H10.722L11.698 178.504ZM11.234 172.264L12.13 171.368H12.722V177.48L12.226 177.976L11.234 177V176.776V175.512V172.264ZM12.226 164.024L12.722 164.52V170.632H12.13L11.234 169.736V169.288V166.488V165.224V165.016L12.226 164.024ZM4.322 169.736L3.426 170.632H2.834V164.52L3.33 164.024L4.322 165V165.224V166.488V169.736ZM19.3525 169.512H19.1285L18.1205 167.768V165.224H18.3605L19.3525 166.952V169.512ZM22.3285 172.488H22.5525L23.5605 174.232V176.776H23.3205L22.3285 175.048V172.488ZM16.3925 177.976L15.8965 177.48V171.368H16.4885L16.6325 171.528L17.3845 172.264V175.512V176.776V177L16.3925 177.976ZM24.2965 172.264L25.1925 171.368H25.7845V177.48L25.2885 177.976L24.2965 177V176.776V175.512V172.264ZM25.2885 164.024L25.7845 164.52V170.632H25.1925L24.2965 169.736V169.288V166.488V165.224V165.016L25.2885 164.024ZM17.3845 169.736L16.4885 170.632H15.8965V164.52L16.3925 164.024L17.3845 165V165.224V166.488V169.736ZM34.639 176.488V176.776H33.167V173.768V173.032L33.903 171.752L34.639 173.048V173.768V176.488ZM29.983 163.496L30.479 163H37.327L37.823 163.496L36.847 164.488H36.815H34.639H33.167H30.991H30.959L29.983 163.496ZM33.167 165.224H34.639V168.232V168.968L33.903 170.264L33.167 169V168.232V165.224ZM37.823 178.504L37.327 179H30.479L29.983 178.504L30.959 177.512H30.991H33.167H34.639H36.815H36.847L37.823 178.504ZM47.7015 176.488V176.776H46.2295V173.768V173.032L46.9655 171.752L47.7015 173.048V173.768V176.488ZM43.0455 163.496L43.5415 163H50.3895L50.8855 163.496L49.9095 164.488H49.8775H47.7015H46.2295H44.0535H44.0215L43.0455 163.496ZM46.2295 165.224H47.7015V168.232V168.968L46.9655 170.264L46.2295 169V168.232V165.224ZM50.8855 178.504L50.3895 179H43.5415L43.0455 178.504L44.0215 177.512H44.0535H46.2295H47.7015H49.8775H49.9095L50.8855 178.504ZM50.4215 172.264L51.3175 171.368H51.9095V177.48L51.4135 177.976L50.4215 177V176.776V175.512V172.264ZM51.4135 164.024L51.9095 164.52V170.632H51.3175L50.4215 169.736V169.288V166.488V165.224V165.016L51.4135 164.024ZM57.084 171.736L56.348 171L57.084 170.264H58.748H59.164L59.596 171.016L59.164 171.736H57.308H57.084ZM56.108 163.496L56.604 163H63.452L63.948 163.496L62.972 164.488H62.94H60.764H59.292H57.116H57.084L56.108 163.496ZM55.58 177.976L55.084 177.48V171.368H55.676L55.82 171.528L56.572 172.264V175.512V176.776V177L55.58 177.976ZM63.948 178.504L63.452 179H56.604L56.108 178.504L57.084 177.512H57.116H59.292H60.764H62.94H62.972L63.948 178.504ZM56.572 169.736L55.676 170.632H55.084V164.52L55.58 164.024L56.572 165V165.224V166.488V169.736ZM62.972 170.264L63.708 171L62.972 171.736H62.748H61.516H60.876L60.444 171.016L60.892 170.264H61.308H62.972ZM73.8265 176.488V176.776H72.3545V173.768V173.032L73.0905 171.752L73.8265 173.048V173.768V176.488ZM69.1705 163.496L69.6665 163H76.5145L77.0105 163.496L76.0345 164.488H76.0025H73.8265H72.3545H70.1785H70.1465L69.1705 163.496ZM72.3545 165.224H73.8265V168.232V168.968L73.0905 170.264L72.3545 169V168.232V165.224ZM81.705 177.976L81.209 177.48V171.368H81.801L81.945 171.528L82.697 172.264V175.512V176.776V177L81.705 177.976ZM90.073 178.504L89.577 179H82.729L82.233 178.504L83.209 177.512H83.241H85.417H86.889H89.065H89.097L90.073 178.504ZM89.609 172.264L90.505 171.368H91.097V177.48L90.601 177.976L89.609 177V176.776V175.512V172.264ZM90.601 164.024L91.097 164.52V170.632H90.505L89.609 169.736V169.288V166.488V165.224V165.016L90.601 164.024ZM82.697 169.736L81.801 170.632H81.209V164.52L81.705 164.024L82.697 165V165.224V166.488V169.736ZM97.7275 169.512H97.5035L96.4955 167.768V165.224H96.7355L97.7275 166.952V169.512ZM100.704 172.488H100.928L101.936 174.232V176.776H101.696L100.704 175.048V172.488ZM94.7675 177.976L94.2715 177.48V171.368H94.8635L95.0075 171.528L95.7595 172.264V175.512V176.776V177L94.7675 177.976ZM102.672 172.264L103.568 171.368H104.16V177.48L103.664 177.976L102.672 177V176.776V175.512V172.264ZM103.664 164.024L104.16 164.52V170.632H103.568L102.672 169.736V169.288V166.488V165.224V165.016L103.664 164.024ZM95.7595 169.736L94.8635 170.632H94.2715V164.52L94.7675 164.024L95.7595 165V165.224V166.488V169.736Z" fill="#ff923d"/>
<rect width="107" height="31" transform="translate(0 186)" fill="black" fill-opacity="0.01"/>
<path d="M17.8965 202.736L17.1605 202L17.8965 201.264H19.9765L20.4085 202.016L19.9765 202.736H17.8965ZM16.9205 194.496L17.4165 194H24.2645L24.7605 194.496L23.7845 195.488H17.8965L16.9205 194.496ZM16.3925 208.976L15.8965 208.48V202.368H16.4885L16.6325 202.528L17.3845 203.264V208L16.3925 208.976ZM25.2885 195.024L25.7845 195.52V201.632H25.1925L24.2965 200.736V196.016L25.2885 195.024ZM17.3845 200.736L16.4885 201.632H15.8965V195.52L16.3925 195.024L17.3845 196V200.736ZM23.7845 201.264L24.5205 202L23.7845 202.736H21.6885L21.2565 202.016L21.7045 201.264H23.7845Z" fill="#ff923d"/>
<path d="M29.455 208.976L28.959 208.48V202.368H29.551L29.695 202.528L30.447 203.264V208L29.455 208.976ZM37.823 209.504L37.327 210H30.479L29.983 209.504L30.959 208.512H36.847L37.823 209.504ZM37.359 203.264L38.255 202.368H38.847V208.48L38.351 208.976L37.359 208V203.264ZM38.351 195.024L38.847 195.52V201.632H38.255L37.359 200.736V196.016L38.351 195.024ZM30.447 200.736L29.551 201.632H28.959V195.52L29.455 195.024L30.447 196V200.736Z" fill="#ff923d"/>
<path d="M42.5175 208.976L42.0215 208.48V202.368H42.6135L42.7575 202.528L43.5095 203.264V208L42.5175 208.976ZM50.8855 209.504L50.3895 210H43.5415L43.0455 209.504L44.0215 208.512H49.9095L50.8855 209.504ZM43.5095 200.736L42.6135 201.632H42.0215V195.52L42.5175 195.024L43.5095 196V200.736Z" fill="#ff923d"/>
<path d="M58.54 200.512H58.316L57.308 198.768V196.224H57.548L58.54 197.952V200.512ZM56.108 194.496L56.604 194H63.452L63.948 194.496L62.972 195.488H57.084L56.108 194.496ZM63.948 209.504L63.452 210H56.604L56.108 209.504L57.084 208.512H62.972L63.948 209.504ZM63.484 203.264L64.38 202.368H64.972V208.48L64.476 208.976L63.484 208V203.264ZM62.972 201.264L63.708 202L62.972 202.736H60.876L60.444 202.016L60.892 201.264H62.972Z" fill="#ff923d"/>
<path d="M70.1465 202.736L69.4105 202L70.1465 201.264H72.2265L72.6585 202.016L72.2265 202.736H70.1465ZM69.1705 194.496L69.6665 194H76.5145L77.0105 194.496L76.0345 195.488H70.1465L69.1705 194.496ZM68.6425 208.976L68.1465 208.48V202.368H68.7385L68.8825 202.528L69.6345 203.264V208L68.6425 208.976ZM77.0105 209.504L76.5145 210H69.6665L69.1705 209.504L70.1465 208.512H76.0345L77.0105 209.504ZM69.6345 200.736L68.7385 201.632H68.1465V195.52L68.6425 195.024L69.6345 196V200.736ZM76.0345 201.264L76.7705 202L76.0345 202.736H73.9385L73.5065 202.016L73.9545 201.264H76.0345Z" fill="#ff923d"/>
<path d="M84.665 203.488V206.048L83.673 207.776H83.433V205.232L84.441 203.488H84.665ZM87.641 203.488H87.865L88.873 205.232V207.776H88.633L87.641 206.048V203.488ZM85.417 196.224H86.889V199.968L86.153 201.264L85.417 200V196.224ZM81.705 208.976L81.209 208.48V202.368H81.801L81.945 202.528L82.697 203.264V208L81.705 208.976ZM89.609 203.264L90.505 202.368H91.097V208.48L90.601 208.976L89.609 208V203.264ZM90.601 195.024L91.097 195.52V201.632H90.505L89.609 200.736V196.016L90.601 195.024ZM82.697 200.736L81.801 201.632H81.209V195.52L81.705 195.024L82.697 196V200.736Z" fill="#ff923d"/>
<rect width="107" height="31" transform="translate(0 217)" fill="black" fill-opacity="0.01"/>
<path d="M4.83398 233.736L4.09798 233L4.83398 232.264H6.91398L7.34598 233.016L6.91398 233.736H4.83398ZM3.85798 225.496L4.35398 225H11.202L11.698 225.496L10.722 226.488H4.83398L3.85798 225.496ZM3.32998 239.976L2.83398 239.48V233.368H3.42598L3.56998 233.528L4.32198 234.264V239L3.32998 239.976ZM12.226 226.024L12.722 226.52V232.632H12.13L11.234 231.736V227.016L12.226 226.024ZM4.32198 231.736L3.42598 232.632H2.83398V226.52L3.32998 226.024L4.32198 227V231.736ZM10.722 232.264L11.458 233L10.722 233.736H8.62598L8.19398 233.016L8.64198 232.264H10.722Z" fill="#ff923d"/>
<path d="M19.3525 234.488V237.048L18.3605 238.776H18.1205V236.232L19.1285 234.488H19.3525ZM22.3285 234.488H22.5525L23.5605 236.232V238.776H23.3205L22.3285 237.048V234.488ZM20.1045 227.224H21.5765V230.968L20.8405 232.264L20.1045 231V227.224ZM16.3925 239.976L15.8965 239.48V233.368H16.4885L16.6325 233.528L17.3845 234.264V239L16.3925 239.976ZM24.2965 234.264L25.1925 233.368H25.7845V239.48L25.2885 239.976L24.2965 239V234.264ZM25.2885 226.024L25.7845 226.52V232.632H25.1925L24.2965 231.736V227.016L25.2885 226.024ZM17.3845 231.736L16.4885 232.632H15.8965V226.52L16.3925 226.024L17.3845 227V231.736Z" fill="#ff923d"/>
<path d="M29.983 225.496L30.479 225H37.327L37.823 225.496L36.847 226.488H30.959L29.983 225.496ZM29.455 239.976L28.959 239.48V233.368H29.551L29.695 233.528L30.447 234.264V239L29.455 239.976ZM37.823 240.504L37.327 241H30.479L29.983 240.504L30.959 239.512H36.847L37.823 240.504ZM37.359 234.264L38.255 233.368H38.847V239.48L38.351 239.976L37.359 239V234.264ZM38.351 226.024L38.847 226.52V232.632H38.255L37.359 231.736V227.016L38.351 226.024ZM30.447 231.736L29.551 232.632H28.959V226.52L29.455 226.024L30.447 227V231.736Z" fill="#ff923d"/>
<path d="M44.0215 233.736L43.2855 233L44.0215 232.264H46.1015L46.5335 233.016L46.1015 233.736H44.0215ZM43.0455 225.496L43.5415 225H50.3895L50.8855 225.496L49.9095 226.488H44.0215L43.0455 225.496ZM42.5175 239.976L42.0215 239.48V233.368H42.6135L42.7575 233.528L43.5095 234.264V239L42.5175 239.976ZM43.5095 231.736L42.6135 232.632H42.0215V226.52L42.5175 226.024L43.5095 227V231.736ZM49.9095 232.264L50.6455 233L49.9095 233.736H47.8135L47.3815 233.016L47.8295 232.264H49.9095Z" fill="#ff923d"/>
<path d="M57.084 233.736L56.348 233L57.084 232.264H59.164L59.596 233.016L59.164 233.736H57.084ZM56.108 225.496L56.604 225H63.452L63.948 225.496L62.972 226.488H57.084L56.108 225.496ZM55.58 239.976L55.084 239.48V233.368H55.676L55.82 233.528L56.572 234.264V239L55.58 239.976ZM56.572 231.736L55.676 232.632H55.084V226.52L55.58 226.024L56.572 227V231.736ZM62.972 232.264L63.708 233L62.972 233.736H60.876L60.444 233.016L60.892 232.264H62.972Z" fill="#ff923d"/>
<path d="M71.6025 231.512H71.3785L70.3705 229.768V227.224H70.6105L71.6025 228.952V231.512ZM69.1705 225.496L69.6665 225H76.5145L77.0105 225.496L76.0345 226.488H70.1465L69.1705 225.496ZM77.0105 240.504L76.5145 241H69.6665L69.1705 240.504L70.1465 239.512H76.0345L77.0105 240.504ZM76.5465 234.264L77.4425 233.368H78.0345V239.48L77.5385 239.976L76.5465 239V234.264ZM76.0345 232.264L76.7705 233L76.0345 233.736H73.9385L73.5065 233.016L73.9545 232.264H76.0345Z" fill="#ff923d"/>
<path d="M83.209 233.736L82.473 233L83.209 232.264H85.289L85.721 233.016L85.289 233.736H83.209ZM82.233 225.496L82.729 225H89.577L90.073 225.496L89.097 226.488H83.209L82.233 225.496ZM81.705 239.976L81.209 239.48V233.368H81.801L81.945 233.528L82.697 234.264V239L81.705 239.976ZM90.073 240.504L89.577 241H82.729L82.233 240.504L83.209 239.512H89.097L90.073 240.504ZM82.697 231.736L81.801 232.632H81.209V226.52L81.705 226.024L82.697 227V231.736ZM89.097 232.264L89.833 233L89.097 233.736H87.001L86.569 233.016L87.017 232.264H89.097Z" fill="#ff923d"/>
<path d="M99.9515 238.776H98.4795V235.032L99.2155 233.752L99.9515 235.048V238.776ZM95.2955 225.496L95.7915 225H102.639L103.135 225.496L102.159 226.488H96.2715L95.2955 225.496ZM98.4795 227.224H99.9515V230.968L99.2155 232.264L98.4795 231V227.224Z" fill="#ff923d"/>
<rect width="107" height="31" transform="translate(0 248)" fill="black" fill-opacity="0.01"/>
<path d="M3.85798 256.496L4.35398 256H11.202L11.698 256.496L10.722 257.488H4.83398L3.85798 256.496ZM3.32998 270.976L2.83398 270.48V264.368H3.42598L3.56998 264.528L4.32198 265.264V270L3.32998 270.976ZM11.698 271.504L11.202 272H4.35398L3.85798 271.504L4.83398 270.512H10.722L11.698 271.504ZM4.32198 262.736L3.42598 263.632H2.83398V257.52L3.32998 257.024L4.32198 258V262.736Z" fill="#ff923d"/>
<path d="M17.8965 264.736L17.1605 264L17.8965 263.264H19.9765L20.4085 264.016L19.9765 264.736H17.8965ZM16.9205 256.496L17.4165 256H24.2645L24.7605 256.496L23.7845 257.488H17.8965L16.9205 256.496ZM22.3285 265.488H22.5525L23.5605 267.232V269.776H23.3205L22.3285 268.048V265.488ZM16.3925 270.976L15.8965 270.48V264.368H16.4885L16.6325 264.528L17.3845 265.264V270L16.3925 270.976ZM25.2885 257.024L25.7845 257.52V263.632H25.1925L24.2965 262.736V258.016L25.2885 257.024ZM17.3845 262.736L16.4885 263.632H15.8965V257.52L16.3925 257.024L17.3845 258V262.736ZM23.7845 263.264L24.5205 264L23.7845 264.736H21.6885L21.2565 264.016L21.7045 263.264H23.7845Z" fill="#ff923d"/>
<path d="M29.983 256.496L30.479 256H37.327L37.823 256.496L36.847 257.488H30.959L29.983 256.496ZM29.455 270.976L28.959 270.48V264.368H29.551L29.695 264.528L30.447 265.264V270L29.455 270.976ZM37.823 271.504L37.327 272H30.479L29.983 271.504L30.959 270.512H36.847L37.823 271.504ZM37.359 265.264L38.255 264.368H38.847V270.48L38.351 270.976L37.359 270V265.264ZM38.351 257.024L38.847 257.52V263.632H38.255L37.359 262.736V258.016L38.351 257.024ZM30.447 262.736L29.551 263.632H28.959V257.52L29.455 257.024L30.447 258V262.736Z" fill="#ff923d"/>
<path d="M45.4775 262.512H45.2535L44.2455 260.768V258.224H44.4855L45.4775 259.952V262.512ZM43.0455 256.496L43.5415 256H50.3895L50.8855 256.496L49.9095 257.488H44.0215L43.0455 256.496ZM50.8855 271.504L50.3895 272H43.5415L43.0455 271.504L44.0215 270.512H49.9095L50.8855 271.504ZM50.4215 265.264L51.3175 264.368H51.9095V270.48L51.4135 270.976L50.4215 270V265.264ZM49.9095 263.264L50.6455 264L49.9095 264.736H47.8135L47.3815 264.016L47.8295 263.264H49.9095Z" fill="#ff923d"/>
<path d="M58.54 262.512H58.316L57.308 260.768V258.224H57.548L58.54 259.952V262.512ZM56.108 256.496L56.604 256H63.452L63.948 256.496L62.972 257.488H57.084L56.108 256.496ZM63.948 271.504L63.452 272H56.604L56.108 271.504L57.084 270.512H62.972L63.948 271.504ZM63.484 265.264L64.38 264.368H64.972V270.48L64.476 270.976L63.484 270V265.264ZM62.972 263.264L63.708 264L62.972 264.736H60.876L60.444 264.016L60.892 263.264H62.972Z" fill="#ff923d"/>
<path d="M73.8265 269.776H72.3545V266.032L73.0905 264.752L73.8265 266.048V269.776ZM71.6025 262.512H71.3785L70.3705 260.768V258.224H70.6105L71.6025 259.952V262.512ZM68.6425 270.976L68.1465 270.48V264.368H68.7385L68.8825 264.528L69.6345 265.264V270L68.6425 270.976ZM76.5465 265.264L77.4425 264.368H78.0345V270.48L77.5385 270.976L76.5465 270V265.264ZM77.5385 257.024L78.0345 257.52V263.632H77.4425L76.5465 262.736V258.016L77.5385 257.024ZM75.5705 258.224H75.8105V260.768L74.8025 262.512H74.5785V259.952L75.5705 258.224ZM69.6345 262.736L68.7385 263.632H68.1465V257.52L68.6425 257.024L69.6345 258V262.736Z" fill="#ff923d"/>
<path d="M82.233 256.496L82.729 256H89.577L90.073 256.496L89.097 257.488H83.209L82.233 256.496ZM81.705 270.976L81.209 270.48V264.368H81.801L81.945 264.528L82.697 265.264V270L81.705 270.976ZM90.073 271.504L89.577 272H82.729L82.233 271.504L83.209 270.512H89.097L90.073 271.504ZM89.609 265.264L90.505 264.368H91.097V270.48L90.601 270.976L89.609 270V265.264ZM90.601 257.024L91.097 257.52V263.632H90.505L89.609 262.736V258.016L90.601 257.024ZM82.697 262.736L81.801 263.632H81.209V257.52L81.705 257.024L82.697 258V262.736Z" fill="#ff923d"/>
<path d="M99.9515 269.776H98.4795V266.032L99.2155 264.752L99.9515 266.048V269.776ZM95.2955 256.496L95.7915 256H102.639L103.135 256.496L102.159 257.488H96.2715L95.2955 256.496ZM98.4795 258.224H99.9515V261.968L99.2155 263.264L98.4795 262V258.224ZM103.135 271.504L102.639 272H95.7915L95.2955 271.504L96.2715 270.512H102.159L103.135 271.504ZM102.671 265.264L103.567 264.368H104.159V270.48L103.663 270.976L102.671 270V265.264ZM103.663 257.024L104.159 257.52V263.632H103.567L102.671 262.736V258.016L103.663 257.024Z" fill="#ff923d"/>
<rect width="107" height="31" transform="translate(0 279)" fill="black" fill-opacity="0.01"/>
<path d="M3.85798 287.496L4.35398 287H11.202L11.698 287.496L10.722 288.488H4.83398L3.85798 287.496ZM3.32998 301.976L2.83398 301.48V295.368H3.42598L3.56998 295.528L4.32198 296.264V301L3.32998 301.976ZM11.698 302.504L11.202 303H4.35398L3.85798 302.504L4.83398 301.512H10.722L11.698 302.504ZM11.234 296.264L12.13 295.368H12.722V301.48L12.226 301.976L11.234 301V296.264ZM12.226 288.024L12.722 288.52V294.632H12.13L11.234 293.736V289.016L12.226 288.024ZM4.32198 293.736L3.42598 294.632H2.83398V288.52L3.32998 288.024L4.32198 289V293.736Z" fill="#ff923d"/>
<path d="M19.3525 293.512H19.1285L18.1205 291.768V289.224H18.3605L19.3525 290.952V293.512ZM16.9205 287.496L17.4165 287H24.2645L24.7605 287.496L23.7845 288.488H17.8965L16.9205 287.496ZM24.7605 302.504L24.2645 303H17.4165L16.9205 302.504L17.8965 301.512H23.7845L24.7605 302.504ZM24.2965 296.264L25.1925 295.368H25.7845V301.48L25.2885 301.976L24.2965 301V296.264ZM23.7845 294.264L24.5205 295L23.7845 295.736H21.6885L21.2565 295.016L21.7045 294.264H23.7845Z" fill="#ff923d"/>
<path d="M29.983 287.496L30.479 287H37.327L37.823 287.496L36.847 288.488H30.959L29.983 287.496ZM29.455 301.976L28.959 301.48V295.368H29.551L29.695 295.528L30.447 296.264V301L29.455 301.976ZM37.823 302.504L37.327 303H30.479L29.983 302.504L30.959 301.512H36.847L37.823 302.504ZM30.447 293.736L29.551 294.632H28.959V288.52L29.455 288.024L30.447 289V293.736Z" fill="#ff923d"/>
<path d="M50.4215 296.264L51.3175 295.368H51.9095V301.48L51.4135 301.976L50.4215 301V296.264ZM51.4135 288.024L51.9095 288.52V294.632H51.3175L50.4215 293.736V289.016L51.4135 288.024Z" fill="#ff923d"/>
<path d="M71.6025 296.488V299.048L70.6105 300.776H70.3705V298.232L71.3785 296.488H71.6025ZM68.6425 301.976L68.1465 301.48V295.368H68.7385L68.8825 295.528L69.6345 296.264V301L68.6425 301.976ZM75.5705 289.224H75.8105V291.768L74.8025 293.512H74.5785V290.952L75.5705 289.224ZM69.6345 293.736L68.7385 294.632H68.1465V288.52L68.6425 288.024L69.6345 289V293.736Z" fill="#ff923d"/>
<path d="M82.233 287.496L82.729 287H89.577L90.073 287.496L89.097 288.488H83.209L82.233 287.496ZM81.705 301.976L81.209 301.48V295.368H81.801L81.945 295.528L82.697 296.264V301L81.705 301.976ZM90.073 302.504L89.577 303H82.729L82.233 302.504L83.209 301.512H89.097L90.073 302.504ZM89.609 296.264L90.505 295.368H91.097V301.48L90.601 301.976L89.609 301V296.264ZM90.601 288.024L91.097 288.52V294.632H90.505L89.609 293.736V289.016L90.601 288.024ZM82.697 293.736L81.801 294.632H81.209V288.52L81.705 288.024L82.697 289V293.736Z" fill="#ff923d"/>
<path d="M94.7675 301.976L94.2715 301.48V295.368H94.8635L95.0075 295.528L95.7595 296.264V301L94.7675 301.976ZM103.135 302.504L102.639 303H95.7915L95.2955 302.504L96.2715 301.512H102.159L103.135 302.504ZM95.7595 293.736L94.8635 294.632H94.2715V288.52L94.7675 288.024L95.7595 289V293.736Z" fill="#ff923d"/>
<rect width="107" height="31" transform="translate(0 310)" fill="black" fill-opacity="0.01"/>
<path d="M3.85798 318.496L4.35398 318H11.202L11.698 318.496L10.722 319.488H4.83398L3.85798 318.496ZM3.32998 332.976L2.83398 332.48V326.368H3.42598L3.56998 326.528L4.32198 327.264V332L3.32998 332.976ZM11.698 333.504L11.202 334H4.35398L3.85798 333.504L4.83398 332.512H10.722L11.698 333.504ZM11.234 327.264L12.13 326.368H12.722V332.48L12.226 332.976L11.234 332V327.264ZM12.226 319.024L12.722 319.52V325.632H12.13L11.234 324.736V320.016L12.226 319.024ZM4.32198 324.736L3.42598 325.632H2.83398V319.52L3.32998 319.024L4.32198 320V324.736Z" fill="#ff923d"/>
<path d="M19.3525 324.512H19.1285L18.1205 322.768V320.224H18.3605L19.3525 321.952V324.512ZM16.9205 318.496L17.4165 318H24.2645L24.7605 318.496L23.7845 319.488H17.8965L16.9205 318.496ZM24.7605 333.504L24.2645 334H17.4165L16.9205 333.504L17.8965 332.512H23.7845L24.7605 333.504ZM24.2965 327.264L25.1925 326.368H25.7845V332.48L25.2885 332.976L24.2965 332V327.264ZM23.7845 325.264L24.5205 326L23.7845 326.736H21.6885L21.2565 326.016L21.7045 325.264H23.7845Z" fill="#ff923d"/>
<path d="M29.983 318.496L30.479 318H37.327L37.823 318.496L36.847 319.488H30.959L29.983 318.496ZM29.455 332.976L28.959 332.48V326.368H29.551L29.695 326.528L30.447 327.264V332L29.455 332.976ZM37.823 333.504L37.327 334H30.479L29.983 333.504L30.959 332.512H36.847L37.823 333.504ZM30.447 324.736L29.551 325.632H28.959V319.52L29.455 319.024L30.447 320V324.736Z" fill="#ff923d"/>
<path d="M44.0215 326.736L43.2855 326L44.0215 325.264H46.1015L46.5335 326.016L46.1015 326.736H44.0215ZM43.0455 318.496L43.5415 318H50.3895L50.8855 318.496L49.9095 319.488H44.0215L43.0455 318.496ZM42.5175 332.976L42.0215 332.48V326.368H42.6135L42.7575 326.528L43.5095 327.264V332L42.5175 332.976ZM50.8855 333.504L50.3895 334H43.5415L43.0455 333.504L44.0215 332.512H49.9095L50.8855 333.504ZM51.4135 319.024L51.9095 319.52V325.632H51.3175L50.4215 324.736V320.016L51.4135 319.024ZM49.9095 325.264L50.6455 326L49.9095 326.736H47.8135L47.3815 326.016L47.8295 325.264H49.9095Z" fill="#ff923d"/>
<path d="M71.6025 327.488V330.048L70.6105 331.776H70.3705V329.232L71.3785 327.488H71.6025ZM68.6425 332.976L68.1465 332.48V326.368H68.7385L68.8825 326.528L69.6345 327.264V332L68.6425 332.976ZM75.5705 320.224H75.8105V322.768L74.8025 324.512H74.5785V321.952L75.5705 320.224ZM69.6345 324.736L68.7385 325.632H68.1465V319.52L68.6425 319.024L69.6345 320V324.736Z" fill="#ff923d"/>
<path d="M82.233 318.496L82.729 318H89.577L90.073 318.496L89.097 319.488H83.209L82.233 318.496ZM81.705 332.976L81.209 332.48V326.368H81.801L81.945 326.528L82.697 327.264V332L81.705 332.976ZM90.073 333.504L89.577 334H82.729L82.233 333.504L83.209 332.512H89.097L90.073 333.504ZM89.609 327.264L90.505 326.368H91.097V332.48L90.601 332.976L89.609 332V327.264ZM90.601 319.024L91.097 319.52V325.632H90.505L89.609 324.736V320.016L90.601 319.024ZM82.697 324.736L81.801 325.632H81.209V319.52L81.705 319.024L82.697 320V324.736Z" fill="#ff923d"/>
<path d="M94.7675 332.976L94.2715 332.48V326.368H94.8635L95.0075 326.528L95.7595 327.264V332L94.7675 332.976ZM103.135 333.504L102.639 334H95.7915L95.2955 333.504L96.2715 332.512H102.159L103.135 333.504ZM95.7595 324.736L94.8635 325.632H94.2715V319.52L94.7675 319.024L95.7595 320V324.736Z" fill="#ff923d"/>
<rect width="107" height="31" transform="translate(0 341)" fill="black" fill-opacity="0.01"/>
<path d="M4.834 357.736L4.098 357L4.834 356.264H6.498H6.914L7.346 357.016L6.914 357.736H5.058H4.834ZM3.858 349.496L4.354 349H11.202L11.698 349.496L10.722 350.488H10.69H8.514H7.042H4.866H4.834L3.858 349.496ZM9.266 358.488H9.49L10.498 360.232V362.776H10.258L9.266 361.048V358.488ZM3.33 363.976L2.834 363.48V357.368H3.426L3.57 357.528L4.322 358.264V361.512V362.776V363L3.33 363.976ZM12.226 350.024L12.722 350.52V356.632H12.13L11.234 355.736V355.288V352.488V351.224V351.016L12.226 350.024ZM4.322 355.736L3.426 356.632H2.834V350.52L3.33 350.024L4.322 351V351.224V352.488V355.736ZM10.722 356.264L11.458 357L10.722 357.736H10.498H9.266H8.626L8.194 357.016L8.642 356.264H9.058H10.722ZM21.5765 362.488V362.776H20.1045V359.768V359.032L20.8405 357.752L21.5765 359.048V359.768V362.488ZM16.9205 349.496L17.4165 349H24.2645L24.7605 349.496L23.7845 350.488H23.7525H21.5765H20.1045H17.9285H17.8965L16.9205 349.496ZM20.1045 351.224H21.5765V354.232V354.968L20.8405 356.264L20.1045 355V354.232V351.224ZM24.7605 364.504L24.2645 365H17.4165L16.9205 364.504L17.8965 363.512H17.9285H20.1045H21.5765H23.7525H23.7845L24.7605 364.504ZM32.415 355.512H32.191L31.183 353.768V351.224H31.423L32.415 352.952V355.512ZM35.391 358.488H35.615L36.623 360.232V362.776H36.383L35.391 361.048V358.488ZM29.455 363.976L28.959 363.48V357.368H29.551L29.695 357.528L30.447 358.264V361.512V362.776V363L29.455 363.976ZM37.359 358.264L38.255 357.368H38.847V363.48L38.351 363.976L37.359 363V362.776V361.512V358.264ZM38.351 350.024L38.847 350.52V356.632H38.255L37.359 355.736V355.288V352.488V351.224V351.016L38.351 350.024ZM30.447 355.736L29.551 356.632H28.959V350.52L29.455 350.024L30.447 351V351.224V352.488V355.736ZM43.0455 349.496L43.5415 349H50.3895L50.8855 349.496L49.9095 350.488H49.8775H47.7015H46.2295H44.0535H44.0215L43.0455 349.496ZM42.5175 363.976L42.0215 363.48V357.368H42.6135L42.7575 357.528L43.5095 358.264V361.512V362.776V363L42.5175 363.976ZM50.8855 364.504L50.3895 365H43.5415L43.0455 364.504L44.0215 363.512H44.0535H46.2295H47.7015H49.8775H49.9095L50.8855 364.504ZM50.4215 358.264L51.3175 357.368H51.9095V363.48L51.4135 363.976L50.4215 363V362.776V361.512V358.264ZM43.5095 355.736L42.6135 356.632H42.0215V350.52L42.5175 350.024L43.5095 351V351.224V352.488V355.736ZM49.9095 356.264L50.6455 357L49.9095 357.736H49.6855H48.4535H47.8135L47.3815 357.016L47.8295 356.264H48.2455H49.9095ZM71.6025 358.488V361.048L70.6105 362.776H70.3705V360.232L71.3785 358.488H71.6025ZM68.6425 363.976L68.1465 363.48V357.368H68.7385L68.8825 357.528L69.6345 358.264V361.512V362.776V363L68.6425 363.976ZM75.5705 351.224H75.8105V353.768L74.8025 355.512H74.5785V352.952L75.5705 351.224ZM69.6345 355.736L68.7385 356.632H68.1465V350.52L68.6425 350.024L69.6345 351V351.224V352.488V355.736ZM82.233 349.496L82.729 349H89.577L90.073 349.496L89.097 350.488H89.065H86.889H85.417H83.241H83.209L82.233 349.496ZM81.705 363.976L81.209 363.48V357.368H81.801L81.945 357.528L82.697 358.264V361.512V362.776V363L81.705 363.976ZM90.073 364.504L89.577 365H82.729L82.233 364.504L83.209 363.512H83.241H85.417H86.889H89.065H89.097L90.073 364.504ZM89.609 358.264L90.505 357.368H91.097V363.48L90.601 363.976L89.609 363V362.776V361.512V358.264ZM90.601 350.024L91.097 350.52V356.632H90.505L89.609 355.736V355.288V352.488V351.224V351.016L90.601 350.024ZM82.697 355.736L81.801 356.632H81.209V350.52L81.705 350.024L82.697 351V351.224V352.488V355.736ZM94.7675 363.976L94.2715 363.48V357.368H94.8635L95.0075 357.528L95.7595 358.264V361.512V362.776V363L94.7675 363.976ZM103.136 364.504L102.64 365H95.7915L95.2955 364.504L96.2715 363.512H96.3035H98.4795H99.9515H102.128H102.16L103.136 364.504ZM95.7595 355.736L94.8635 356.632H94.2715V350.52L94.7675 350.024L95.7595 351V351.224V352.488V355.736Z" fill="#ff923d"/>
<rect width="107" height="31" transform="translate(0 372)" fill="black" fill-opacity="0.01"/>
<path d="M6.28998 386.512H6.06598L5.05798 384.768V382.224H5.29798L6.28998 383.952V386.512ZM9.26599 389.488H9.48998L10.498 391.232V393.776H10.258L9.26599 392.048V389.488ZM3.32998 394.976L2.83398 394.48V388.368H3.42598L3.56998 388.528L4.32198 389.264V394L3.32998 394.976ZM11.234 389.264L12.13 388.368H12.722V394.48L12.226 394.976L11.234 394V389.264ZM12.226 381.024L12.722 381.52V387.632H12.13L11.234 386.736V382.016L12.226 381.024ZM4.32198 386.736L3.42598 387.632H2.83398V381.52L3.32998 381.024L4.32198 382V386.736Z" fill="#ff923d"/>
<path d="M16.9205 380.496L17.4165 380H24.2645L24.7605 380.496L23.7845 381.488H17.8965L16.9205 380.496ZM16.3925 394.976L15.8965 394.48V388.368H16.4885L16.6325 388.528L17.3845 389.264V394L16.3925 394.976ZM24.7605 395.504L24.2645 396H17.4165L16.9205 395.504L17.8965 394.512H23.7845L24.7605 395.504ZM24.2965 389.264L25.1925 388.368H25.7845V394.48L25.2885 394.976L24.2965 394V389.264ZM25.2885 381.024L25.7845 381.52V387.632H25.1925L24.2965 386.736V382.016L25.2885 381.024ZM17.3845 386.736L16.4885 387.632H15.8965V381.52L16.3925 381.024L17.3845 382V386.736Z" fill="#ff923d"/>
<path d="M34.639 393.776H33.167V390.032L33.903 388.752L34.639 390.048V393.776ZM29.983 380.496L30.479 380H37.327L37.823 380.496L36.847 381.488H30.959L29.983 380.496ZM33.167 382.224H34.639V385.968L33.903 387.264L33.167 386V382.224ZM37.823 395.504L37.327 396H30.479L29.983 395.504L30.959 394.512H36.847L37.823 395.504Z" fill="#ff923d"/>
<path d="M45.4775 386.512H45.2535L44.2455 384.768V382.224H44.4855L45.4775 383.952V386.512ZM43.0455 380.496L43.5415 380H50.3895L50.8855 380.496L49.9095 381.488H44.0215L43.0455 380.496ZM50.8855 395.504L50.3895 396H43.5415L43.0455 395.504L44.0215 394.512H49.9095L50.8855 395.504ZM50.4215 389.264L51.3175 388.368H51.9095V394.48L51.4135 394.976L50.4215 394V389.264ZM49.9095 387.264L50.6455 388L49.9095 388.736H47.8135L47.3815 388.016L47.8295 387.264H49.9095Z" fill="#ff923d"/>
<path d="M57.084 388.736L56.348 388L57.084 387.264H59.164L59.596 388.016L59.164 388.736H57.084ZM56.108 380.496L56.604 380H63.452L63.948 380.496L62.972 381.488H57.084L56.108 380.496ZM55.58 394.976L55.084 394.48V388.368H55.676L55.82 388.528L56.572 389.264V394L55.58 394.976ZM63.948 395.504L63.452 396H56.604L56.108 395.504L57.084 394.512H62.972L63.948 395.504ZM56.572 386.736L55.676 387.632H55.084V381.52L55.58 381.024L56.572 382V386.736ZM62.972 387.264L63.708 388L62.972 388.736H60.876L60.444 388.016L60.892 387.264H62.972Z" fill="#ff923d"/>
<path d="M71.6025 389.488V392.048L70.6105 393.776H70.3705V391.232L71.3785 389.488H71.6025ZM68.6425 394.976L68.1465 394.48V388.368H68.7385L68.8825 388.528L69.6345 389.264V394L68.6425 394.976ZM75.5705 382.224H75.8105V384.768L74.8025 386.512H74.5785V383.952L75.5705 382.224ZM69.6345 386.736L68.7385 387.632H68.1465V381.52L68.6425 381.024L69.6345 382V386.736Z" fill="#ff923d"/>
<path d="M82.233 380.496L82.729 380H89.577L90.073 380.496L89.097 381.488H83.209L82.233 380.496ZM81.705 394.976L81.209 394.48V388.368H81.801L81.945 388.528L82.697 389.264V394L81.705 394.976ZM90.073 395.504L89.577 396H82.729L82.233 395.504L83.209 394.512H89.097L90.073 395.504ZM89.609 389.264L90.505 388.368H91.097V394.48L90.601 394.976L89.609 394V389.264ZM90.601 381.024L91.097 381.52V387.632H90.505L89.609 386.736V382.016L90.601 381.024ZM82.697 386.736L81.801 387.632H81.209V381.52L81.705 381.024L82.697 382V386.736Z" fill="#ff923d"/>
<path d="M94.7675 394.976L94.2715 394.48V388.368H94.8635L95.0075 388.528L95.7595 389.264V394L94.7675 394.976ZM103.135 395.504L102.639 396H95.7915L95.2955 395.504L96.2715 394.512H102.159L103.135 395.504ZM95.7595 386.736L94.8635 387.632H94.2715V381.52L94.7675 381.024L95.7595 382V386.736Z" fill="#ff923d"/>
<rect width="107" height="31" transform="translate(0 403)" fill="black" fill-opacity="0.01"/>
<path d="M16.9205 411.496L17.4165 411H24.2645L24.7605 411.496L23.7845 412.488H23.7525H21.5765H20.1045H17.9285H17.8965L16.9205 411.496ZM16.3925 425.976L15.8965 425.48V419.368H16.4885L16.6325 419.528L17.3845 420.264V423.512V424.776V425L16.3925 425.976ZM24.7605 426.504L24.2645 427H17.4165L16.9205 426.504L17.8965 425.512H17.9285H20.1045H21.5765H23.7525H23.7845L24.7605 426.504ZM17.3845 417.736L16.4885 418.632H15.8965V412.52L16.3925 412.024L17.3845 413V413.224V414.488V417.736ZM29.455 425.976L28.959 425.48V419.368H29.551L29.695 419.528L30.447 420.264V423.512V424.776V425L29.455 425.976ZM37.823 426.504L37.327 427H30.479L29.983 426.504L30.959 425.512H30.991H33.167H34.639H36.815H36.847L37.823 426.504ZM37.359 420.264L38.255 419.368H38.847V425.48L38.351 425.976L37.359 425V424.776V423.512V420.264ZM38.351 412.024L38.847 412.52V418.632H38.255L37.359 417.736V417.288V414.488V413.224V413.016L38.351 412.024ZM30.447 417.736L29.551 418.632H28.959V412.52L29.455 412.024L30.447 413V413.224V414.488V417.736ZM47.7015 424.488V424.776H46.2295V421.768V421.032L46.9655 419.752L47.7015 421.048V421.768V424.488ZM43.0455 411.496L43.5415 411H50.3895L50.8855 411.496L49.9095 412.488H49.8775H47.7015H46.2295H44.0535H44.0215L43.0455 411.496ZM46.2295 413.224H47.7015V416.232V416.968L46.9655 418.264L46.2295 417V416.232V413.224ZM56.108 411.496L56.604 411H63.452L63.948 411.496L62.972 412.488H62.94H60.764H59.292H57.116H57.084L56.108 411.496ZM55.58 425.976L55.084 425.48V419.368H55.676L55.82 419.528L56.572 420.264V423.512V424.776V425L55.58 425.976ZM63.948 426.504L63.452 427H56.604L56.108 426.504L57.084 425.512H57.116H59.292H60.764H62.94H62.972L63.948 426.504ZM63.484 420.264L64.38 419.368H64.972V425.48L64.476 425.976L63.484 425V424.776V423.512V420.264ZM64.476 412.024L64.972 412.52V418.632H64.38L63.484 417.736V417.288V414.488V413.224V413.016L64.476 412.024ZM56.572 417.736L55.676 418.632H55.084V412.52L55.58 412.024L56.572 413V413.224V414.488V417.736ZM70.1465 419.736L69.4105 419L70.1465 418.264H71.8105H72.2265L72.6585 419.016L72.2265 419.736H70.3705H70.1465ZM69.1705 411.496L69.6665 411H76.5145L77.0105 411.496L76.0345 412.488H76.0025H73.8265H72.3545H70.1785H70.1465L69.1705 411.496ZM68.6425 425.976L68.1465 425.48V419.368H68.7385L68.8825 419.528L69.6345 420.264V423.512V424.776V425L68.6425 425.976ZM69.6345 417.736L68.7385 418.632H68.1465V412.52L68.6425 412.024L69.6345 413V413.224V414.488V417.736ZM76.0345 418.264L76.7705 419L76.0345 419.736H75.8105H74.5785H73.9385L73.5065 419.016L73.9545 418.264H74.3705H76.0345ZM83.209 419.736L82.473 419L83.209 418.264H84.873H85.289L85.721 419.016L85.289 419.736H83.433H83.209ZM82.233 411.496L82.729 411H89.577L90.073 411.496L89.097 412.488H89.065H86.889H85.417H83.241H83.209L82.233 411.496ZM81.705 425.976L81.209 425.48V419.368H81.801L81.945 419.528L82.697 420.264V423.512V424.776V425L81.705 425.976ZM82.697 417.736L81.801 418.632H81.209V412.52L81.705 412.024L82.697 413V413.224V414.488V417.736ZM89.097 418.264L89.833 419L89.097 419.736H88.873H87.641H87.001L86.569 419.016L87.017 418.264H87.433H89.097Z" fill="#ff923d"/>
<rect width="107" height="31" transform="translate(0 434)" fill="black" fill-opacity="0.01"/>
<path d="M30.959 450.736L30.223 450L30.959 449.264H33.039L33.471 450.016L33.039 450.736H30.959ZM29.983 442.496L30.479 442H37.327L37.823 442.496L36.847 443.488H30.959L29.983 442.496ZM35.391 451.488H35.615L36.623 453.232V455.776H36.383L35.391 454.048V451.488ZM29.455 456.976L28.959 456.48V450.368H29.551L29.695 450.528L30.447 451.264V456L29.455 456.976ZM38.351 443.024L38.847 443.52V449.632H38.255L37.359 448.736V444.016L38.351 443.024ZM30.447 448.736L29.551 449.632H28.959V443.52L29.455 443.024L30.447 444V448.736ZM36.847 449.264L37.583 450L36.847 450.736H34.751L34.319 450.016L34.767 449.264H36.847Z" fill="#ff923d"/>
<path d="M44.0215 450.736L43.2855 450L44.0215 449.264H46.1015L46.5335 450.016L46.1015 450.736H44.0215ZM43.0455 442.496L43.5415 442H50.3895L50.8855 442.496L49.9095 443.488H44.0215L43.0455 442.496ZM42.5175 456.976L42.0215 456.48V450.368H42.6135L42.7575 450.528L43.5095 451.264V456L42.5175 456.976ZM50.8855 457.504L50.3895 458H43.5415L43.0455 457.504L44.0215 456.512H49.9095L50.8855 457.504ZM43.5095 448.736L42.6135 449.632H42.0215V443.52L42.5175 443.024L43.5095 444V448.736ZM49.9095 449.264L50.6455 450L49.9095 450.736H47.8135L47.3815 450.016L47.8295 449.264H49.9095Z" fill="#ff923d"/>
<path d="M58.54 448.512H58.316L57.308 446.768V444.224H57.548L58.54 445.952V448.512ZM56.108 442.496L56.604 442H63.452L63.948 442.496L62.972 443.488H57.084L56.108 442.496ZM63.948 457.504L63.452 458H56.604L56.108 457.504L57.084 456.512H62.972L63.948 457.504ZM63.484 451.264L64.38 450.368H64.972V456.48L64.476 456.976L63.484 456V451.264ZM62.972 449.264L63.708 450L62.972 450.736H60.876L60.444 450.016L60.892 449.264H62.972Z" fill="#ff923d"/>
<path d="M69.1705 442.496L69.6665 442H76.5145L77.0105 442.496L76.0345 443.488H70.1465L69.1705 442.496ZM68.6425 456.976L68.1465 456.48V450.368H68.7385L68.8825 450.528L69.6345 451.264V456L68.6425 456.976ZM77.0105 457.504L76.5145 458H69.6665L69.1705 457.504L70.1465 456.512H76.0345L77.0105 457.504ZM76.5465 451.264L77.4425 450.368H78.0345V456.48L77.5385 456.976L76.5465 456V451.264ZM77.5385 443.024L78.0345 443.52V449.632H77.4425L76.5465 448.736V444.016L77.5385 443.024ZM69.6345 448.736L68.7385 449.632H68.1465V443.52L68.6425 443.024L69.6345 444V448.736Z" fill="#ff923d"/>
<rect width="107" height="31" transform="translate(0 465)" fill="black" fill-opacity="0.01"/>
<path d="M3.33 487.976L2.834 487.48V481.368H3.426L3.57 481.528L4.322 482.264V485.512V486.776V487L3.33 487.976ZM11.698 488.504L11.202 489H4.354L3.858 488.504L4.834 487.512H4.866H7.042H8.514H10.69H10.722L11.698 488.504ZM4.322 479.736L3.426 480.632H2.834V474.52L3.33 474.024L4.322 475V475.224V476.488V479.736ZM17.8965 481.736L17.1605 481L17.8965 480.264H19.5605H19.9765L20.4085 481.016L19.9765 481.736H18.1205H17.8965ZM16.9205 473.496L17.4165 473H24.2645L24.7605 473.496L23.7845 474.488H23.7525H21.5765H20.1045H17.9285H17.8965L16.9205 473.496ZM16.3925 487.976L15.8965 487.48V481.368H16.4885L16.6325 481.528L17.3845 482.264V485.512V486.776V487L16.3925 487.976ZM17.3845 479.736L16.4885 480.632H15.8965V474.52L16.3925 474.024L17.3845 475V475.224V476.488V479.736ZM23.7845 480.264L24.5205 481L23.7845 481.736H23.5605H22.3285H21.6885L21.2565 481.016L21.7045 480.264H22.1205H23.7845ZM29.983 473.496L30.479 473H37.327L37.823 473.496L36.847 474.488H36.815H34.639H33.167H30.991H30.959L29.983 473.496ZM29.455 487.976L28.959 487.48V481.368H29.551L29.695 481.528L30.447 482.264V485.512V486.776V487L29.455 487.976ZM37.823 488.504L37.327 489H30.479L29.983 488.504L30.959 487.512H30.991H33.167H34.639H36.815H36.847L37.823 488.504ZM37.359 482.264L38.255 481.368H38.847V487.48L38.351 487.976L37.359 487V486.776V485.512V482.264ZM38.351 474.024L38.847 474.52V480.632H38.255L37.359 479.736V479.288V476.488V475.224V475.016L38.351 474.024ZM30.447 479.736L29.551 480.632H28.959V474.52L29.455 474.024L30.447 475V475.224V476.488V479.736ZM50.4215 482.264L51.3175 481.368H51.9095V487.48L51.4135 487.976L50.4215 487V486.776V485.512V482.264ZM51.4135 474.024L51.9095 474.52V480.632H51.3175L50.4215 479.736V479.288V476.488V475.224V475.016L51.4135 474.024ZM60.764 486.488V486.776H59.292V483.768V483.032L60.028 481.752L60.764 483.048V483.768V486.488ZM58.54 479.512H58.316L57.308 477.768V475.224H57.548L58.54 476.952V479.512ZM55.58 487.976L55.084 487.48V481.368H55.676L55.82 481.528L56.572 482.264V485.512V486.776V487L55.58 487.976ZM63.484 482.264L64.38 481.368H64.972V487.48L64.476 487.976L63.484 487V486.776V485.512V482.264ZM64.476 474.024L64.972 474.52V480.632H64.38L63.484 479.736V479.288V476.488V475.224V475.016L64.476 474.024ZM62.508 475.224H62.748V477.768L61.74 479.512H61.516V476.952L62.508 475.224ZM56.572 479.736L55.676 480.632H55.084V474.52L55.58 474.024L56.572 475V475.224V476.488V479.736ZM69.1705 473.496L69.6665 473H76.5145L77.0105 473.496L76.0345 474.488H76.0025H73.8265H72.3545H70.1785H70.1465L69.1705 473.496ZM68.6425 487.976L68.1465 487.48V481.368H68.7385L68.8825 481.528L69.6345 482.264V485.512V486.776V487L68.6425 487.976ZM77.0105 488.504L76.5145 489H69.6665L69.1705 488.504L70.1465 487.512H70.1785H72.3545H73.8265H76.0025H76.0345L77.0105 488.504ZM76.5465 482.264L77.4425 481.368H78.0345V487.48L77.5385 487.976L76.5465 487V486.776V485.512V482.264ZM77.5385 474.024L78.0345 474.52V480.632H77.4425L76.5465 479.736V479.288V476.488V475.224V475.016L77.5385 474.024ZM69.6345 479.736L68.7385 480.632H68.1465V474.52L68.6425 474.024L69.6345 475V475.224V476.488V479.736ZM86.889 486.488V486.776H85.417V483.768V483.032L86.153 481.752L86.889 483.048V483.768V486.488ZM82.233 473.496L82.729 473H89.577L90.073 473.496L89.097 474.488H89.065H86.889H85.417H83.241H83.209L82.233 473.496ZM85.417 475.224H86.889V478.232V478.968L86.153 480.264L85.417 479V478.232V475.224ZM90.073 488.504L89.577 489H82.729L82.233 488.504L83.209 487.512H83.241H85.417H86.889H89.065H89.097L90.073 488.504ZM89.609 482.264L90.505 481.368H91.097V487.48L90.601 487.976L89.609 487V486.776V485.512V482.264ZM90.601 474.024L91.097 474.52V480.632H90.505L89.609 479.736V479.288V476.488V475.224V475.016L90.601 474.024ZM102.672 482.264L103.568 481.368H104.16V487.48L103.664 487.976L102.672 487V486.776V485.512V482.264ZM103.664 474.024L104.16 474.52V480.632H103.568L102.672 479.736V479.288V476.488V475.224V475.016L103.664 474.024Z" fill="#ff923d"/>
<rect width="107" height="31" transform="translate(0 496)" fill="black" fill-opacity="0.01"/>
<path d="M3.33 518.976L2.834 518.48V512.368H3.426L3.57 512.528L4.322 513.264V516.512V517.776V518L3.33 518.976ZM11.698 519.504L11.202 520H4.354L3.858 519.504L4.834 518.512H4.866H7.042H8.514H10.69H10.722L11.698 519.504ZM4.322 510.736L3.426 511.632H2.834V505.52L3.33 505.024L4.322 506V506.224V507.488V510.736ZM17.8965 512.736L17.1605 512L17.8965 511.264H19.5605H19.9765L20.4085 512.016L19.9765 512.736H18.1205H17.8965ZM16.9205 504.496L17.4165 504H24.2645L24.7605 504.496L23.7845 505.488H23.7525H21.5765H20.1045H17.9285H17.8965L16.9205 504.496ZM16.3925 518.976L15.8965 518.48V512.368H16.4885L16.6325 512.528L17.3845 513.264V516.512V517.776V518L16.3925 518.976ZM17.3845 510.736L16.4885 511.632H15.8965V505.52L16.3925 505.024L17.3845 506V506.224V507.488V510.736ZM23.7845 511.264L24.5205 512L23.7845 512.736H23.5605H22.3285H21.6885L21.2565 512.016L21.7045 511.264H22.1205H23.7845ZM29.983 504.496L30.479 504H37.327L37.823 504.496L36.847 505.488H36.815H34.639H33.167H30.991H30.959L29.983 504.496ZM29.455 518.976L28.959 518.48V512.368H29.551L29.695 512.528L30.447 513.264V516.512V517.776V518L29.455 518.976ZM37.823 519.504L37.327 520H30.479L29.983 519.504L30.959 518.512H30.991H33.167H34.639H36.815H36.847L37.823 519.504ZM37.359 513.264L38.255 512.368H38.847V518.48L38.351 518.976L37.359 518V517.776V516.512V513.264ZM38.351 505.024L38.847 505.52V511.632H38.255L37.359 510.736V510.288V507.488V506.224V506.016L38.351 505.024ZM30.447 510.736L29.551 511.632H28.959V505.52L29.455 505.024L30.447 506V506.224V507.488V510.736ZM50.4215 513.264L51.3175 512.368H51.9095V518.48L51.4135 518.976L50.4215 518V517.776V516.512V513.264ZM51.4135 505.024L51.9095 505.52V511.632H51.3175L50.4215 510.736V510.288V507.488V506.224V506.016L51.4135 505.024ZM60.764 517.488V517.776H59.292V514.768V514.032L60.028 512.752L60.764 514.048V514.768V517.488ZM58.54 510.512H58.316L57.308 508.768V506.224H57.548L58.54 507.952V510.512ZM55.58 518.976L55.084 518.48V512.368H55.676L55.82 512.528L56.572 513.264V516.512V517.776V518L55.58 518.976ZM63.484 513.264L64.38 512.368H64.972V518.48L64.476 518.976L63.484 518V517.776V516.512V513.264ZM64.476 505.024L64.972 505.52V511.632H64.38L63.484 510.736V510.288V507.488V506.224V506.016L64.476 505.024ZM62.508 506.224H62.748V508.768L61.74 510.512H61.516V507.952L62.508 506.224ZM56.572 510.736L55.676 511.632H55.084V505.52L55.58 505.024L56.572 506V506.224V507.488V510.736ZM69.1705 504.496L69.6665 504H76.5145L77.0105 504.496L76.0345 505.488H76.0025H73.8265H72.3545H70.1785H70.1465L69.1705 504.496ZM68.6425 518.976L68.1465 518.48V512.368H68.7385L68.8825 512.528L69.6345 513.264V516.512V517.776V518L68.6425 518.976ZM77.0105 519.504L76.5145 520H69.6665L69.1705 519.504L70.1465 518.512H70.1785H72.3545H73.8265H76.0025H76.0345L77.0105 519.504ZM76.5465 513.264L77.4425 512.368H78.0345V518.48L77.5385 518.976L76.5465 518V517.776V516.512V513.264ZM77.5385 505.024L78.0345 505.52V511.632H77.4425L76.5465 510.736V510.288V507.488V506.224V506.016L77.5385 505.024ZM69.6345 510.736L68.7385 511.632H68.1465V505.52L68.6425 505.024L69.6345 506V506.224V507.488V510.736ZM86.889 517.488V517.776H85.417V514.768V514.032L86.153 512.752L86.889 514.048V514.768V517.488ZM82.233 504.496L82.729 504H89.577L90.073 504.496L89.097 505.488H89.065H86.889H85.417H83.241H83.209L82.233 504.496ZM85.417 506.224H86.889V509.232V509.968L86.153 511.264L85.417 510V509.232V506.224ZM90.073 519.504L89.577 520H82.729L82.233 519.504L83.209 518.512H83.241H85.417H86.889H89.065H89.097L90.073 519.504ZM89.609 513.264L90.505 512.368H91.097V518.48L90.601 518.976L89.609 518V517.776V516.512V513.264ZM90.601 505.024L91.097 505.52V511.632H90.505L89.609 510.736V510.288V507.488V506.224V506.016L90.601 505.024ZM96.2715 512.736L95.5355 512L96.2715 511.264H97.9355H98.3515L98.7835 512.016L98.3515 512.736H96.4955H96.2715ZM95.2955 504.496L95.7915 504H102.64L103.136 504.496L102.16 505.488H102.128H99.9515H98.4795H96.3035H96.2715L95.2955 504.496ZM94.7675 518.976L94.2715 518.48V512.368H94.8635L95.0075 512.528L95.7595 513.264V516.512V517.776V518L94.7675 518.976ZM103.136 519.504L102.64 520H95.7915L95.2955 519.504L96.2715 518.512H96.3035H98.4795H99.9515H102.128H102.16L103.136 519.504ZM103.664 505.024L104.16 505.52V511.632H103.568L102.672 510.736V510.288V507.488V506.224V506.016L103.664 505.024ZM102.16 511.264L102.896 512L102.16 512.736H101.936H100.704H100.064L99.6315 512.016L100.08 511.264H100.496H102.16Z" fill="#ff923d"/>
<rect width="107" height="31" transform="translate(0 527)" fill="black" fill-opacity="0.01"/>
<path d="M3.33 549.976L2.834 549.48V543.368H3.426L3.57 543.528L4.322 544.264V547.512V548.776V549L3.33 549.976ZM11.698 550.504L11.202 551H4.354L3.858 550.504L4.834 549.512H4.866H7.042H8.514H10.69H10.722L11.698 550.504ZM4.322 541.736L3.426 542.632H2.834V536.52L3.33 536.024L4.322 537V537.224V538.488V541.736ZM17.8965 543.736L17.1605 543L17.8965 542.264H19.5605H19.9765L20.4085 543.016L19.9765 543.736H18.1205H17.8965ZM16.9205 535.496L17.4165 535H24.2645L24.7605 535.496L23.7845 536.488H23.7525H21.5765H20.1045H17.9285H17.8965L16.9205 535.496ZM16.3925 549.976L15.8965 549.48V543.368H16.4885L16.6325 543.528L17.3845 544.264V547.512V548.776V549L16.3925 549.976ZM17.3845 541.736L16.4885 542.632H15.8965V536.52L16.3925 536.024L17.3845 537V537.224V538.488V541.736ZM23.7845 542.264L24.5205 543L23.7845 543.736H23.5605H22.3285H21.6885L21.2565 543.016L21.7045 542.264H22.1205H23.7845ZM29.983 535.496L30.479 535H37.327L37.823 535.496L36.847 536.488H36.815H34.639H33.167H30.991H30.959L29.983 535.496ZM29.455 549.976L28.959 549.48V543.368H29.551L29.695 543.528L30.447 544.264V547.512V548.776V549L29.455 549.976ZM37.823 550.504L37.327 551H30.479L29.983 550.504L30.959 549.512H30.991H33.167H34.639H36.815H36.847L37.823 550.504ZM37.359 544.264L38.255 543.368H38.847V549.48L38.351 549.976L37.359 549V548.776V547.512V544.264ZM38.351 536.024L38.847 536.52V542.632H38.255L37.359 541.736V541.288V538.488V537.224V537.016L38.351 536.024ZM30.447 541.736L29.551 542.632H28.959V536.52L29.455 536.024L30.447 537V537.224V538.488V541.736ZM44.0215 543.736L43.2855 543L44.0215 542.264H45.6855H46.1015L46.5335 543.016L46.1015 543.736H44.2455H44.0215ZM43.0455 535.496L43.5415 535H50.3895L50.8855 535.496L49.9095 536.488H49.8775H47.7015H46.2295H44.0535H44.0215L43.0455 535.496ZM42.5175 549.976L42.0215 549.48V543.368H42.6135L42.7575 543.528L43.5095 544.264V547.512V548.776V549L42.5175 549.976ZM50.8855 550.504L50.3895 551H43.5415L43.0455 550.504L44.0215 549.512H44.0535H46.2295H47.7015H49.8775H49.9095L50.8855 550.504ZM51.4135 536.024L51.9095 536.52V542.632H51.3175L50.4215 541.736V541.288V538.488V537.224V537.016L51.4135 536.024ZM49.9095 542.264L50.6455 543L49.9095 543.736H49.6855H48.4535H47.8135L47.3815 543.016L47.8295 542.264H48.2455H49.9095ZM57.084 543.736L56.348 543L57.084 542.264H58.748H59.164L59.596 543.016L59.164 543.736H57.308H57.084ZM56.108 535.496L56.604 535H63.452L63.948 535.496L62.972 536.488H62.94H60.764H59.292H57.116H57.084L56.108 535.496ZM61.516 544.488H61.74L62.748 546.232V548.776H62.508L61.516 547.048V544.488ZM55.58 549.976L55.084 549.48V543.368H55.676L55.82 543.528L56.572 544.264V547.512V548.776V549L55.58 549.976ZM64.476 536.024L64.972 536.52V542.632H64.38L63.484 541.736V541.288V538.488V537.224V537.016L64.476 536.024ZM56.572 541.736L55.676 542.632H55.084V536.52L55.58 536.024L56.572 537V537.224V538.488V541.736ZM62.972 542.264L63.708 543L62.972 543.736H62.748H61.516H60.876L60.444 543.016L60.892 542.264H61.308H62.972ZM70.1465 543.736L69.4105 543L70.1465 542.264H71.8105H72.2265L72.6585 543.016L72.2265 543.736H70.3705H70.1465ZM69.1705 535.496L69.6665 535H76.5145L77.0105 535.496L76.0345 536.488H76.0025H73.8265H72.3545H70.1785H70.1465L69.1705 535.496ZM68.6425 549.976L68.1465 549.48V543.368H68.7385L68.8825 543.528L69.6345 544.264V547.512V548.776V549L68.6425 549.976ZM76.5465 544.264L77.4425 543.368H78.0345V549.48L77.5385 549.976L76.5465 549V548.776V547.512V544.264ZM77.5385 536.024L78.0345 536.52V542.632H77.4425L76.5465 541.736V541.288V538.488V537.224V537.016L77.5385 536.024ZM69.6345 541.736L68.7385 542.632H68.1465V536.52L68.6425 536.024L69.6345 537V537.224V538.488V541.736ZM76.0345 542.264L76.7705 543L76.0345 543.736H75.8105H74.5785H73.9385L73.5065 543.016L73.9545 542.264H74.3705H76.0345ZM86.889 548.488V548.776H85.417V545.768V545.032L86.153 543.752L86.889 545.048V545.768V548.488ZM82.233 535.496L82.729 535H89.577L90.073 535.496L89.097 536.488H89.065H86.889H85.417H83.241H83.209L82.233 535.496ZM85.417 537.224H86.889V540.232V540.968L86.153 542.264L85.417 541V540.232V537.224ZM96.2715 543.736L95.5355 543L96.2715 542.264H97.9355H98.3515L98.7835 543.016L98.3515 543.736H96.4955H96.2715ZM95.2955 535.496L95.7915 535H102.64L103.136 535.496L102.16 536.488H102.128H99.9515H98.4795H96.3035H96.2715L95.2955 535.496ZM94.7675 549.976L94.2715 549.48V543.368H94.8635L95.0075 543.528L95.7595 544.264V547.512V548.776V549L94.7675 549.976ZM103.136 550.504L102.64 551H95.7915L95.2955 550.504L96.2715 549.512H96.3035H98.4795H99.9515H102.128H102.16L103.136 550.504ZM95.7595 541.736L94.8635 542.632H94.2715V536.52L94.7675 536.024L95.7595 537V537.224V538.488V541.736ZM102.16 542.264L102.896 543L102.16 543.736H101.936H100.704H100.064L99.6315 543.016L100.08 542.264H100.496H102.16Z" fill="#ff923d"/>
<rect width="107" height="31" transform="translate(0 558)" fill="black" fill-opacity="0.01"/>
<path d="M3.33 580.976L2.834 580.48V574.368H3.426L3.57 574.528L4.322 575.264V578.512V579.776V580L3.33 580.976ZM11.698 581.504L11.202 582H4.354L3.858 581.504L4.834 580.512H4.866H7.042H8.514H10.69H10.722L11.698 581.504ZM4.322 572.736L3.426 573.632H2.834V567.52L3.33 567.024L4.322 568V568.224V569.488V572.736ZM17.8965 574.736L17.1605 574L17.8965 573.264H19.5605H19.9765L20.4085 574.016L19.9765 574.736H18.1205H17.8965ZM16.9205 566.496L17.4165 566H24.2645L24.7605 566.496L23.7845 567.488H23.7525H21.5765H20.1045H17.9285H17.8965L16.9205 566.496ZM16.3925 580.976L15.8965 580.48V574.368H16.4885L16.6325 574.528L17.3845 575.264V578.512V579.776V580L16.3925 580.976ZM17.3845 572.736L16.4885 573.632H15.8965V567.52L16.3925 567.024L17.3845 568V568.224V569.488V572.736ZM23.7845 573.264L24.5205 574L23.7845 574.736H23.5605H22.3285H21.6885L21.2565 574.016L21.7045 573.264H22.1205H23.7845ZM29.983 566.496L30.479 566H37.327L37.823 566.496L36.847 567.488H36.815H34.639H33.167H30.991H30.959L29.983 566.496ZM29.455 580.976L28.959 580.48V574.368H29.551L29.695 574.528L30.447 575.264V578.512V579.776V580L29.455 580.976ZM37.823 581.504L37.327 582H30.479L29.983 581.504L30.959 580.512H30.991H33.167H34.639H36.815H36.847L37.823 581.504ZM37.359 575.264L38.255 574.368H38.847V580.48L38.351 580.976L37.359 580V579.776V578.512V575.264ZM38.351 567.024L38.847 567.52V573.632H38.255L37.359 572.736V572.288V569.488V568.224V568.016L38.351 567.024ZM30.447 572.736L29.551 573.632H28.959V567.52L29.455 567.024L30.447 568V568.224V569.488V572.736ZM44.0215 574.736L43.2855 574L44.0215 573.264H45.6855H46.1015L46.5335 574.016L46.1015 574.736H44.2455H44.0215ZM43.0455 566.496L43.5415 566H50.3895L50.8855 566.496L49.9095 567.488H49.8775H47.7015H46.2295H44.0535H44.0215L43.0455 566.496ZM42.5175 580.976L42.0215 580.48V574.368H42.6135L42.7575 574.528L43.5095 575.264V578.512V579.776V580L42.5175 580.976ZM50.8855 581.504L50.3895 582H43.5415L43.0455 581.504L44.0215 580.512H44.0535H46.2295H47.7015H49.8775H49.9095L50.8855 581.504ZM51.4135 567.024L51.9095 567.52V573.632H51.3175L50.4215 572.736V572.288V569.488V568.224V568.016L51.4135 567.024ZM49.9095 573.264L50.6455 574L49.9095 574.736H49.6855H48.4535H47.8135L47.3815 574.016L47.8295 573.264H48.2455H49.9095ZM60.764 579.488V579.776H59.292V576.768V576.032L60.028 574.752L60.764 576.048V576.768V579.488ZM58.54 572.512H58.316L57.308 570.768V568.224H57.548L58.54 569.952V572.512ZM55.58 580.976L55.084 580.48V574.368H55.676L55.82 574.528L56.572 575.264V578.512V579.776V580L55.58 580.976ZM63.484 575.264L64.38 574.368H64.972V580.48L64.476 580.976L63.484 580V579.776V578.512V575.264ZM64.476 567.024L64.972 567.52V573.632H64.38L63.484 572.736V572.288V569.488V568.224V568.016L64.476 567.024ZM62.508 568.224H62.748V570.768L61.74 572.512H61.516V569.952L62.508 568.224ZM56.572 572.736L55.676 573.632H55.084V567.52L55.58 567.024L56.572 568V568.224V569.488V572.736ZM69.1705 566.496L69.6665 566H76.5145L77.0105 566.496L76.0345 567.488H76.0025H73.8265H72.3545H70.1785H70.1465L69.1705 566.496ZM68.6425 580.976L68.1465 580.48V574.368H68.7385L68.8825 574.528L69.6345 575.264V578.512V579.776V580L68.6425 580.976ZM77.0105 581.504L76.5145 582H69.6665L69.1705 581.504L70.1465 580.512H70.1785H72.3545H73.8265H76.0025H76.0345L77.0105 581.504ZM76.5465 575.264L77.4425 574.368H78.0345V580.48L77.5385 580.976L76.5465 580V579.776V578.512V575.264ZM77.5385 567.024L78.0345 567.52V573.632H77.4425L76.5465 572.736V572.288V569.488V568.224V568.016L77.5385 567.024ZM69.6345 572.736L68.7385 573.632H68.1465V567.52L68.6425 567.024L69.6345 568V568.224V569.488V572.736ZM86.889 579.488V579.776H85.417V576.768V576.032L86.153 574.752L86.889 576.048V576.768V579.488ZM82.233 566.496L82.729 566H89.577L90.073 566.496L89.097 567.488H89.065H86.889H85.417H83.241H83.209L82.233 566.496ZM85.417 568.224H86.889V571.232V571.968L86.153 573.264L85.417 572V571.232V568.224ZM90.073 581.504L89.577 582H82.729L82.233 581.504L83.209 580.512H83.241H85.417H86.889H89.065H89.097L90.073 581.504ZM89.609 575.264L90.505 574.368H91.097V580.48L90.601 580.976L89.609 580V579.776V578.512V575.264ZM90.601 567.024L91.097 567.52V573.632H90.505L89.609 572.736V572.288V569.488V568.224V568.016L90.601 567.024ZM102.672 575.264L103.568 574.368H104.16V580.48L103.664 580.976L102.672 580V579.776V578.512V575.264ZM103.664 567.024L104.16 567.52V573.632H103.568L102.672 572.736V572.288V569.488V568.224V568.016L103.664 567.024Z" fill="#ff923d"/>
<rect width="107" height="31" transform="translate(0 589)" fill="black" fill-opacity="0.01"/>
<path d="M3.33 611.976L2.834 611.48V605.368H3.426L3.57 605.528L4.322 606.264V609.512V610.776V611L3.33 611.976ZM11.698 612.504L11.202 613H4.354L3.858 612.504L4.834 611.512H4.866H7.042H8.514H10.69H10.722L11.698 612.504ZM4.322 603.736L3.426 604.632H2.834V598.52L3.33 598.024L4.322 599V599.224V600.488V603.736ZM17.8965 605.736L17.1605 605L17.8965 604.264H19.5605H19.9765L20.4085 605.016L19.9765 605.736H18.1205H17.8965ZM16.9205 597.496L17.4165 597H24.2645L24.7605 597.496L23.7845 598.488H23.7525H21.5765H20.1045H17.9285H17.8965L16.9205 597.496ZM16.3925 611.976L15.8965 611.48V605.368H16.4885L16.6325 605.528L17.3845 606.264V609.512V610.776V611L16.3925 611.976ZM17.3845 603.736L16.4885 604.632H15.8965V598.52L16.3925 598.024L17.3845 599V599.224V600.488V603.736ZM23.7845 604.264L24.5205 605L23.7845 605.736H23.5605H22.3285H21.6885L21.2565 605.016L21.7045 604.264H22.1205H23.7845ZM29.983 597.496L30.479 597H37.327L37.823 597.496L36.847 598.488H36.815H34.639H33.167H30.991H30.959L29.983 597.496ZM29.455 611.976L28.959 611.48V605.368H29.551L29.695 605.528L30.447 606.264V609.512V610.776V611L29.455 611.976ZM37.823 612.504L37.327 613H30.479L29.983 612.504L30.959 611.512H30.991H33.167H34.639H36.815H36.847L37.823 612.504ZM37.359 606.264L38.255 605.368H38.847V611.48L38.351 611.976L37.359 611V610.776V609.512V606.264ZM38.351 598.024L38.847 598.52V604.632H38.255L37.359 603.736V603.288V600.488V599.224V599.016L38.351 598.024ZM30.447 603.736L29.551 604.632H28.959V598.52L29.455 598.024L30.447 599V599.224V600.488V603.736ZM44.0215 605.736L43.2855 605L44.0215 604.264H45.6855H46.1015L46.5335 605.016L46.1015 605.736H44.2455H44.0215ZM43.0455 597.496L43.5415 597H50.3895L50.8855 597.496L49.9095 598.488H49.8775H47.7015H46.2295H44.0535H44.0215L43.0455 597.496ZM42.5175 611.976L42.0215 611.48V605.368H42.6135L42.7575 605.528L43.5095 606.264V609.512V610.776V611L42.5175 611.976ZM50.8855 612.504L50.3895 613H43.5415L43.0455 612.504L44.0215 611.512H44.0535H46.2295H47.7015H49.8775H49.9095L50.8855 612.504ZM51.4135 598.024L51.9095 598.52V604.632H51.3175L50.4215 603.736V603.288V600.488V599.224V599.016L51.4135 598.024ZM49.9095 604.264L50.6455 605L49.9095 605.736H49.6855H48.4535H47.8135L47.3815 605.016L47.8295 604.264H48.2455H49.9095ZM60.764 610.488V610.776H59.292V607.768V607.032L60.028 605.752L60.764 607.048V607.768V610.488ZM58.54 603.512H58.316L57.308 601.768V599.224H57.548L58.54 600.952V603.512ZM55.58 611.976L55.084 611.48V605.368H55.676L55.82 605.528L56.572 606.264V609.512V610.776V611L55.58 611.976ZM63.484 606.264L64.38 605.368H64.972V611.48L64.476 611.976L63.484 611V610.776V609.512V606.264ZM64.476 598.024L64.972 598.52V604.632H64.38L63.484 603.736V603.288V600.488V599.224V599.016L64.476 598.024ZM62.508 599.224H62.748V601.768L61.74 603.512H61.516V600.952L62.508 599.224ZM56.572 603.736L55.676 604.632H55.084V598.52L55.58 598.024L56.572 599V599.224V600.488V603.736ZM69.1705 597.496L69.6665 597H76.5145L77.0105 597.496L76.0345 598.488H76.0025H73.8265H72.3545H70.1785H70.1465L69.1705 597.496ZM68.6425 611.976L68.1465 611.48V605.368H68.7385L68.8825 605.528L69.6345 606.264V609.512V610.776V611L68.6425 611.976ZM77.0105 612.504L76.5145 613H69.6665L69.1705 612.504L70.1465 611.512H70.1785H72.3545H73.8265H76.0025H76.0345L77.0105 612.504ZM76.5465 606.264L77.4425 605.368H78.0345V611.48L77.5385 611.976L76.5465 611V610.776V609.512V606.264ZM77.5385 598.024L78.0345 598.52V604.632H77.4425L76.5465 603.736V603.288V600.488V599.224V599.016L77.5385 598.024ZM69.6345 603.736L68.7385 604.632H68.1465V598.52L68.6425 598.024L69.6345 599V599.224V600.488V603.736ZM86.889 610.488V610.776H85.417V607.768V607.032L86.153 605.752L86.889 607.048V607.768V610.488ZM82.233 597.496L82.729 597H89.577L90.073 597.496L89.097 598.488H89.065H86.889H85.417H83.241H83.209L82.233 597.496ZM85.417 599.224H86.889V602.232V602.968L86.153 604.264L85.417 603V602.232V599.224ZM90.073 612.504L89.577 613H82.729L82.233 612.504L83.209 611.512H83.241H85.417H86.889H89.065H89.097L90.073 612.504ZM89.609 606.264L90.505 605.368H91.097V611.48L90.601 611.976L89.609 611V610.776V609.512V606.264ZM90.601 598.024L91.097 598.52V604.632H90.505L89.609 603.736V603.288V600.488V599.224V599.016L90.601 598.024ZM96.2715 605.736L95.5355 605L96.2715 604.264H97.9355H98.3515L98.7835 605.016L98.3515 605.736H96.4955H96.2715ZM95.2955 597.496L95.7915 597H102.64L103.136 597.496L102.16 598.488H102.128H99.9515H98.4795H96.3035H96.2715L95.2955 597.496ZM94.7675 611.976L94.2715 611.48V605.368H94.8635L95.0075 605.528L95.7595 606.264V609.512V610.776V611L94.7675 611.976ZM103.136 612.504L102.64 613H95.7915L95.2955 612.504L96.2715 611.512H96.3035H98.4795H99.9515H102.128H102.16L103.136 612.504ZM103.664 598.024L104.16 598.52V604.632H103.568L102.672 603.736V603.288V600.488V599.224V599.016L103.664 598.024ZM102.16 604.264L102.896 605L102.16 605.736H101.936H100.704H100.064L99.6315 605.016L100.08 604.264H100.496H102.16Z" fill="#ff923d"/>
<rect width="107" height="31" transform="translate(0 620)" fill="black" fill-opacity="0.01"/>
<path d="M4.834 636.736L4.098 636L4.834 635.264H6.498H6.914L7.346 636.016L6.914 636.736H5.058H4.834ZM3.858 628.496L4.354 628H11.202L11.698 628.496L10.722 629.488H10.69H8.514H7.042H4.866H4.834L3.858 628.496ZM3.33 642.976L2.834 642.48V636.368H3.426L3.57 636.528L4.322 637.264V640.512V641.776V642L3.33 642.976ZM4.322 634.736L3.426 635.632H2.834V629.52L3.33 629.024L4.322 630V630.224V631.488V634.736ZM10.722 635.264L11.458 636L10.722 636.736H10.498H9.266H8.626L8.194 636.016L8.642 635.264H9.058H10.722ZM21.5765 641.488V641.776H20.1045V638.768V638.032L20.8405 636.752L21.5765 638.048V638.768V641.488ZM16.9205 628.496L17.4165 628H24.2645L24.7605 628.496L23.7845 629.488H23.7525H21.5765H20.1045H17.9285H17.8965L16.9205 628.496ZM20.1045 630.224H21.5765V633.232V633.968L20.8405 635.264L20.1045 634V633.232V630.224ZM24.7605 643.504L24.2645 644H17.4165L16.9205 643.504L17.8965 642.512H17.9285H20.1045H21.5765H23.7525H23.7845L24.7605 643.504ZM29.455 642.976L28.959 642.48V636.368H29.551L29.695 636.528L30.447 637.264V640.512V641.776V642L29.455 642.976ZM37.823 643.504L37.327 644H30.479L29.983 643.504L30.959 642.512H30.991H33.167H34.639H36.815H36.847L37.823 643.504ZM30.447 634.736L29.551 635.632H28.959V629.52L29.455 629.024L30.447 630V630.224V631.488V634.736ZM47.7015 641.488V641.776H46.2295V638.768V638.032L46.9655 636.752L47.7015 638.048V638.768V641.488ZM43.0455 628.496L43.5415 628H50.3895L50.8855 628.496L49.9095 629.488H49.8775H47.7015H46.2295H44.0535H44.0215L43.0455 628.496ZM46.2295 630.224H47.7015V633.232V633.968L46.9655 635.264L46.2295 634V633.232V630.224ZM57.084 636.736L56.348 636L57.084 635.264H58.748H59.164L59.596 636.016L59.164 636.736H57.308H57.084ZM56.108 628.496L56.604 628H63.452L63.948 628.496L62.972 629.488H62.94H60.764H59.292H57.116H57.084L56.108 628.496ZM55.58 642.976L55.084 642.48V636.368H55.676L55.82 636.528L56.572 637.264V640.512V641.776V642L55.58 642.976ZM63.948 643.504L63.452 644H56.604L56.108 643.504L57.084 642.512H57.116H59.292H60.764H62.94H62.972L63.948 643.504ZM56.572 634.736L55.676 635.632H55.084V629.52L55.58 629.024L56.572 630V630.224V631.488V634.736ZM62.972 635.264L63.708 636L62.972 636.736H62.748H61.516H60.876L60.444 636.016L60.892 635.264H61.308H62.972ZM71.6025 634.512H71.3785L70.3705 632.768V630.224H70.6105L71.6025 631.952V634.512ZM74.5785 637.488H74.8025L75.8105 639.232V641.776H75.5705L74.5785 640.048V637.488ZM68.6425 642.976L68.1465 642.48V636.368H68.7385L68.8825 636.528L69.6345 637.264V640.512V641.776V642L68.6425 642.976ZM76.5465 637.264L77.4425 636.368H78.0345V642.48L77.5385 642.976L76.5465 642V641.776V640.512V637.264ZM77.5385 629.024L78.0345 629.52V635.632H77.4425L76.5465 634.736V634.288V631.488V630.224V630.016L77.5385 629.024ZM69.6345 634.736L68.7385 635.632H68.1465V629.52L68.6425 629.024L69.6345 630V630.224V631.488V634.736ZM84.665 637.488V640.048L83.673 641.776H83.433V639.232L84.441 637.488H84.665ZM81.705 642.976L81.209 642.48V636.368H81.801L81.945 636.528L82.697 637.264V640.512V641.776V642L81.705 642.976ZM88.633 630.224H88.873V632.768L87.865 634.512H87.641V631.952L88.633 630.224ZM82.697 634.736L81.801 635.632H81.209V629.52L81.705 629.024L82.697 630V630.224V631.488V634.736ZM96.2715 636.736L95.5355 636L96.2715 635.264H97.9355H98.3515L98.7835 636.016L98.3515 636.736H96.4955H96.2715ZM95.2955 628.496L95.7915 628H102.64L103.136 628.496L102.16 629.488H102.128H99.9515H98.4795H96.3035H96.2715L95.2955 628.496ZM100.704 637.488H100.928L101.936 639.232V641.776H101.696L100.704 640.048V637.488ZM94.7675 642.976L94.2715 642.48V636.368H94.8635L95.0075 636.528L95.7595 637.264V640.512V641.776V642L94.7675 642.976ZM103.664 629.024L104.16 629.52V635.632H103.568L102.672 634.736V634.288V631.488V630.224V630.016L103.664 629.024ZM95.7595 634.736L94.8635 635.632H94.2715V629.52L94.7675 629.024L95.7595 630V630.224V631.488V634.736ZM102.16 635.264L102.896 636L102.16 636.736H101.936H100.704H100.064L99.6315 636.016L100.08 635.264H100.496H102.16Z" fill="#ff923d"/>
<rect width="107" height="31" transform="translate(0 651)" fill="black" fill-opacity="0.01"/>
<path d="M4.834 667.736L4.098 667L4.834 666.264H6.498H6.914L7.346 667.016L6.914 667.736H5.058H4.834ZM3.858 659.496L4.354 659H11.202L11.698 659.496L10.722 660.488H10.69H8.514H7.042H4.866H4.834L3.858 659.496ZM3.33 673.976L2.834 673.48V667.368H3.426L3.57 667.528L4.322 668.264V671.512V672.776V673L3.33 673.976ZM11.234 668.264L12.13 667.368H12.722V673.48L12.226 673.976L11.234 673V672.776V671.512V668.264ZM12.226 660.024L12.722 660.52V666.632H12.13L11.234 665.736V665.288V662.488V661.224V661.016L12.226 660.024ZM4.322 665.736L3.426 666.632H2.834V660.52L3.33 660.024L4.322 661V661.224V662.488V665.736ZM10.722 666.264L11.458 667L10.722 667.736H10.498H9.266H8.626L8.194 667.016L8.642 666.264H9.058H10.722ZM21.5765 672.488V672.776H20.1045V669.768V669.032L20.8405 667.752L21.5765 669.048V669.768V672.488ZM19.3525 665.512H19.1285L18.1205 663.768V661.224H18.3605L19.3525 662.952V665.512ZM16.3925 673.976L15.8965 673.48V667.368H16.4885L16.6325 667.528L17.3845 668.264V671.512V672.776V673L16.3925 673.976ZM24.2965 668.264L25.1925 667.368H25.7845V673.48L25.2885 673.976L24.2965 673V672.776V671.512V668.264ZM25.2885 660.024L25.7845 660.52V666.632H25.1925L24.2965 665.736V665.288V662.488V661.224V661.016L25.2885 660.024ZM23.3205 661.224H23.5605V663.768L22.5525 665.512H22.3285V662.952L23.3205 661.224ZM17.3845 665.736L16.4885 666.632H15.8965V660.52L16.3925 660.024L17.3845 661V661.224V662.488V665.736ZM30.959 667.736L30.223 667L30.959 666.264H32.623H33.039L33.471 667.016L33.039 667.736H31.183H30.959ZM29.983 659.496L30.479 659H37.327L37.823 659.496L36.847 660.488H36.815H34.639H33.167H30.991H30.959L29.983 659.496ZM29.455 673.976L28.959 673.48V667.368H29.551L29.695 667.528L30.447 668.264V671.512V672.776V673L29.455 673.976ZM38.351 660.024L38.847 660.52V666.632H38.255L37.359 665.736V665.288V662.488V661.224V661.016L38.351 660.024ZM30.447 665.736L29.551 666.632H28.959V660.52L29.455 660.024L30.447 661V661.224V662.488V665.736ZM36.847 666.264L37.583 667L36.847 667.736H36.623H35.391H34.751L34.319 667.016L34.767 666.264H35.183H36.847ZM57.084 667.736L56.348 667L57.084 666.264H58.748H59.164L59.596 667.016L59.164 667.736H57.308H57.084ZM56.108 659.496L56.604 659H63.452L63.948 659.496L62.972 660.488H62.94H60.764H59.292H57.116H57.084L56.108 659.496ZM55.58 673.976L55.084 673.48V667.368H55.676L55.82 667.528L56.572 668.264V671.512V672.776V673L55.58 673.976ZM63.948 674.504L63.452 675H56.604L56.108 674.504L57.084 673.512H57.116H59.292H60.764H62.94H62.972L63.948 674.504ZM56.572 665.736L55.676 666.632H55.084V660.52L55.58 660.024L56.572 661V661.224V662.488V665.736ZM62.972 666.264L63.708 667L62.972 667.736H62.748H61.516H60.876L60.444 667.016L60.892 666.264H61.308H62.972ZM71.6025 665.512H71.3785L70.3705 663.768V661.224H70.6105L71.6025 662.952V665.512ZM74.5785 668.488H74.8025L75.8105 670.232V672.776H75.5705L74.5785 671.048V668.488ZM68.6425 673.976L68.1465 673.48V667.368H68.7385L68.8825 667.528L69.6345 668.264V671.512V672.776V673L68.6425 673.976ZM76.5465 668.264L77.4425 667.368H78.0345V673.48L77.5385 673.976L76.5465 673V672.776V671.512V668.264ZM77.5385 660.024L78.0345 660.52V666.632H77.4425L76.5465 665.736V665.288V662.488V661.224V661.016L77.5385 660.024ZM69.6345 665.736L68.7385 666.632H68.1465V660.52L68.6425 660.024L69.6345 661V661.224V662.488V665.736ZM84.665 668.488V671.048L83.673 672.776H83.433V670.232L84.441 668.488H84.665ZM81.705 673.976L81.209 673.48V667.368H81.801L81.945 667.528L82.697 668.264V671.512V672.776V673L81.705 673.976ZM88.633 661.224H88.873V663.768L87.865 665.512H87.641V662.952L88.633 661.224ZM82.697 665.736L81.801 666.632H81.209V660.52L81.705 660.024L82.697 661V661.224V662.488V665.736ZM96.2715 667.736L95.5355 667L96.2715 666.264H97.9355H98.3515L98.7835 667.016L98.3515 667.736H96.4955H96.2715ZM95.2955 659.496L95.7915 659H102.64L103.136 659.496L102.16 660.488H102.128H99.9515H98.4795H96.3035H96.2715L95.2955 659.496ZM100.704 668.488H100.928L101.936 670.232V672.776H101.696L100.704 671.048V668.488ZM94.7675 673.976L94.2715 673.48V667.368H94.8635L95.0075 667.528L95.7595 668.264V671.512V672.776V673L94.7675 673.976ZM103.664 660.024L104.16 660.52V666.632H103.568L102.672 665.736V665.288V662.488V661.224V661.016L103.664 660.024ZM95.7595 665.736L94.8635 666.632H94.2715V660.52L94.7675 660.024L95.7595 661V661.224V662.488V665.736ZM102.16 666.264L102.896 667L102.16 667.736H101.936H100.704H100.064L99.6315 667.016L100.08 666.264H100.496H102.16Z" fill="#ff923d"/>
</g>
<defs>
<clipPath id="clip0_287_3178">
<rect width="107" height="682" fill="white"/>
</clipPath>
</defs>
</svg>
